%TF.GenerationSoftware,KiCad,Pcbnew,(5.1.10)-1*%
%TF.CreationDate,2021-08-23T16:31:20+01:00*%
%TF.ProjectId,Abhoinn_IoT_V3,4162686f-696e-46e5-9f49-6f545f56332e,rev?*%
%TF.SameCoordinates,Original*%
%TF.FileFunction,Paste,Top*%
%TF.FilePolarity,Positive*%
%FSLAX46Y46*%
G04 Gerber Fmt 4.6, Leading zero omitted, Abs format (unit mm)*
G04 Created by KiCad (PCBNEW (5.1.10)-1) date 2021-08-23 16:31:20*
%MOMM*%
%LPD*%
G01*
G04 APERTURE LIST*
%ADD10R,1.200000X1.200000*%
%ADD11R,0.350000X0.500000*%
%ADD12R,0.500000X0.350000*%
%ADD13R,1.800000X3.500000*%
%ADD14R,0.900000X0.800000*%
%ADD15R,2.200000X1.050000*%
%ADD16R,1.050000X1.000000*%
G04 APERTURE END LIST*
D10*
%TO.C,IC1*%
X131500000Y-81250000D03*
X131500000Y-79250000D03*
X129500000Y-81250000D03*
X129500000Y-79250000D03*
X127500000Y-81250000D03*
X127500000Y-79250000D03*
D11*
X126250000Y-77150000D03*
X126900000Y-77150000D03*
X127550000Y-77150000D03*
X128200000Y-77150000D03*
X128850000Y-77150000D03*
X129500000Y-77150000D03*
X130150000Y-77150000D03*
X130800000Y-77150000D03*
X131450000Y-77150000D03*
X132100000Y-77150000D03*
X132750000Y-77150000D03*
D12*
X133600000Y-77975000D03*
X133600000Y-78625000D03*
X133600000Y-79275000D03*
X133600000Y-79925000D03*
X133600000Y-80575000D03*
X133600000Y-81225000D03*
X133600000Y-81875000D03*
X133600000Y-82525000D03*
D11*
X132750000Y-83350000D03*
X132100000Y-83350000D03*
X131450000Y-83350000D03*
X130800000Y-83350000D03*
X130150000Y-83350000D03*
X129500000Y-83350000D03*
X128850000Y-83350000D03*
X128200000Y-83350000D03*
X127550000Y-83350000D03*
X126900000Y-83350000D03*
X126250000Y-83350000D03*
D12*
X125400000Y-82525000D03*
X125400000Y-81875000D03*
X125400000Y-81225000D03*
X125400000Y-80575000D03*
X125400000Y-79925000D03*
X125400000Y-79275000D03*
X125400000Y-78625000D03*
X125400000Y-77975000D03*
%TD*%
%TO.C,R4*%
G36*
G01*
X129099999Y-93650000D02*
X130000001Y-93650000D01*
G75*
G02*
X130250000Y-93899999I0J-249999D01*
G01*
X130250000Y-94600001D01*
G75*
G02*
X130000001Y-94850000I-249999J0D01*
G01*
X129099999Y-94850000D01*
G75*
G02*
X128850000Y-94600001I0J249999D01*
G01*
X128850000Y-93899999D01*
G75*
G02*
X129099999Y-93650000I249999J0D01*
G01*
G37*
G36*
G01*
X129099999Y-91650000D02*
X130000001Y-91650000D01*
G75*
G02*
X130250000Y-91899999I0J-249999D01*
G01*
X130250000Y-92600001D01*
G75*
G02*
X130000001Y-92850000I-249999J0D01*
G01*
X129099999Y-92850000D01*
G75*
G02*
X128850000Y-92600001I0J249999D01*
G01*
X128850000Y-91899999D01*
G75*
G02*
X129099999Y-91650000I249999J0D01*
G01*
G37*
%TD*%
D13*
%TO.C,D1*%
X169000000Y-67000000D03*
X169000000Y-72000000D03*
%TD*%
D14*
%TO.C,U1*%
X163306000Y-75692000D03*
X161306000Y-76642000D03*
X161306000Y-74742000D03*
%TD*%
%TO.C,C6*%
G36*
G01*
X161675000Y-72762500D02*
X161675000Y-73237500D01*
G75*
G02*
X161437500Y-73475000I-237500J0D01*
G01*
X160837500Y-73475000D01*
G75*
G02*
X160600000Y-73237500I0J237500D01*
G01*
X160600000Y-72762500D01*
G75*
G02*
X160837500Y-72525000I237500J0D01*
G01*
X161437500Y-72525000D01*
G75*
G02*
X161675000Y-72762500I0J-237500D01*
G01*
G37*
G36*
G01*
X163400000Y-72762500D02*
X163400000Y-73237500D01*
G75*
G02*
X163162500Y-73475000I-237500J0D01*
G01*
X162562500Y-73475000D01*
G75*
G02*
X162325000Y-73237500I0J237500D01*
G01*
X162325000Y-72762500D01*
G75*
G02*
X162562500Y-72525000I237500J0D01*
G01*
X163162500Y-72525000D01*
G75*
G02*
X163400000Y-72762500I0J-237500D01*
G01*
G37*
%TD*%
%TO.C,C9*%
G36*
G01*
X159987500Y-80087500D02*
X159512500Y-80087500D01*
G75*
G02*
X159275000Y-79850000I0J237500D01*
G01*
X159275000Y-79250000D01*
G75*
G02*
X159512500Y-79012500I237500J0D01*
G01*
X159987500Y-79012500D01*
G75*
G02*
X160225000Y-79250000I0J-237500D01*
G01*
X160225000Y-79850000D01*
G75*
G02*
X159987500Y-80087500I-237500J0D01*
G01*
G37*
G36*
G01*
X159987500Y-81812500D02*
X159512500Y-81812500D01*
G75*
G02*
X159275000Y-81575000I0J237500D01*
G01*
X159275000Y-80975000D01*
G75*
G02*
X159512500Y-80737500I237500J0D01*
G01*
X159987500Y-80737500D01*
G75*
G02*
X160225000Y-80975000I0J-237500D01*
G01*
X160225000Y-81575000D01*
G75*
G02*
X159987500Y-81812500I-237500J0D01*
G01*
G37*
%TD*%
%TO.C,F1*%
G36*
G01*
X167278880Y-75777440D02*
X167278880Y-77027440D01*
G75*
G02*
X167028880Y-77277440I-250000J0D01*
G01*
X166103880Y-77277440D01*
G75*
G02*
X165853880Y-77027440I0J250000D01*
G01*
X165853880Y-75777440D01*
G75*
G02*
X166103880Y-75527440I250000J0D01*
G01*
X167028880Y-75527440D01*
G75*
G02*
X167278880Y-75777440I0J-250000D01*
G01*
G37*
G36*
G01*
X170253880Y-75777440D02*
X170253880Y-77027440D01*
G75*
G02*
X170003880Y-77277440I-250000J0D01*
G01*
X169078880Y-77277440D01*
G75*
G02*
X168828880Y-77027440I0J250000D01*
G01*
X168828880Y-75777440D01*
G75*
G02*
X169078880Y-75527440I250000J0D01*
G01*
X170003880Y-75527440D01*
G75*
G02*
X170253880Y-75777440I0J-250000D01*
G01*
G37*
%TD*%
%TO.C,U3*%
G36*
G01*
X144103554Y-76333095D02*
X144987437Y-75449212D01*
G75*
G02*
X145164213Y-75449212I88388J-88388D01*
G01*
X145340990Y-75625989D01*
G75*
G02*
X145340990Y-75802765I-88388J-88388D01*
G01*
X144457107Y-76686648D01*
G75*
G02*
X144280331Y-76686648I-88388J88388D01*
G01*
X144103554Y-76509871D01*
G75*
G02*
X144103554Y-76333095I88388J88388D01*
G01*
G37*
G36*
G01*
X144669239Y-76898781D02*
X145553122Y-76014898D01*
G75*
G02*
X145729898Y-76014898I88388J-88388D01*
G01*
X145906675Y-76191675D01*
G75*
G02*
X145906675Y-76368451I-88388J-88388D01*
G01*
X145022792Y-77252334D01*
G75*
G02*
X144846016Y-77252334I-88388J88388D01*
G01*
X144669239Y-77075557D01*
G75*
G02*
X144669239Y-76898781I88388J88388D01*
G01*
G37*
G36*
G01*
X145234925Y-77464466D02*
X146118808Y-76580583D01*
G75*
G02*
X146295584Y-76580583I88388J-88388D01*
G01*
X146472361Y-76757360D01*
G75*
G02*
X146472361Y-76934136I-88388J-88388D01*
G01*
X145588478Y-77818019D01*
G75*
G02*
X145411702Y-77818019I-88388J88388D01*
G01*
X145234925Y-77641242D01*
G75*
G02*
X145234925Y-77464466I88388J88388D01*
G01*
G37*
G36*
G01*
X145800610Y-78030151D02*
X146684493Y-77146268D01*
G75*
G02*
X146861269Y-77146268I88388J-88388D01*
G01*
X147038046Y-77323045D01*
G75*
G02*
X147038046Y-77499821I-88388J-88388D01*
G01*
X146154163Y-78383704D01*
G75*
G02*
X145977387Y-78383704I-88388J88388D01*
G01*
X145800610Y-78206927D01*
G75*
G02*
X145800610Y-78030151I88388J88388D01*
G01*
G37*
G36*
G01*
X146366296Y-78595837D02*
X147250179Y-77711954D01*
G75*
G02*
X147426955Y-77711954I88388J-88388D01*
G01*
X147603732Y-77888731D01*
G75*
G02*
X147603732Y-78065507I-88388J-88388D01*
G01*
X146719849Y-78949390D01*
G75*
G02*
X146543073Y-78949390I-88388J88388D01*
G01*
X146366296Y-78772613D01*
G75*
G02*
X146366296Y-78595837I88388J88388D01*
G01*
G37*
G36*
G01*
X146931981Y-79161522D02*
X147815864Y-78277639D01*
G75*
G02*
X147992640Y-78277639I88388J-88388D01*
G01*
X148169417Y-78454416D01*
G75*
G02*
X148169417Y-78631192I-88388J-88388D01*
G01*
X147285534Y-79515075D01*
G75*
G02*
X147108758Y-79515075I-88388J88388D01*
G01*
X146931981Y-79338298D01*
G75*
G02*
X146931981Y-79161522I88388J88388D01*
G01*
G37*
G36*
G01*
X147497666Y-79727208D02*
X148381549Y-78843325D01*
G75*
G02*
X148558325Y-78843325I88388J-88388D01*
G01*
X148735102Y-79020102D01*
G75*
G02*
X148735102Y-79196878I-88388J-88388D01*
G01*
X147851219Y-80080761D01*
G75*
G02*
X147674443Y-80080761I-88388J88388D01*
G01*
X147497666Y-79903984D01*
G75*
G02*
X147497666Y-79727208I88388J88388D01*
G01*
G37*
G36*
G01*
X148063352Y-80292893D02*
X148947235Y-79409010D01*
G75*
G02*
X149124011Y-79409010I88388J-88388D01*
G01*
X149300788Y-79585787D01*
G75*
G02*
X149300788Y-79762563I-88388J-88388D01*
G01*
X148416905Y-80646446D01*
G75*
G02*
X148240129Y-80646446I-88388J88388D01*
G01*
X148063352Y-80469669D01*
G75*
G02*
X148063352Y-80292893I88388J88388D01*
G01*
G37*
G36*
G01*
X148063352Y-81530331D02*
X148240129Y-81353554D01*
G75*
G02*
X148416905Y-81353554I88388J-88388D01*
G01*
X149300788Y-82237437D01*
G75*
G02*
X149300788Y-82414213I-88388J-88388D01*
G01*
X149124011Y-82590990D01*
G75*
G02*
X148947235Y-82590990I-88388J88388D01*
G01*
X148063352Y-81707107D01*
G75*
G02*
X148063352Y-81530331I88388J88388D01*
G01*
G37*
G36*
G01*
X147497666Y-82096016D02*
X147674443Y-81919239D01*
G75*
G02*
X147851219Y-81919239I88388J-88388D01*
G01*
X148735102Y-82803122D01*
G75*
G02*
X148735102Y-82979898I-88388J-88388D01*
G01*
X148558325Y-83156675D01*
G75*
G02*
X148381549Y-83156675I-88388J88388D01*
G01*
X147497666Y-82272792D01*
G75*
G02*
X147497666Y-82096016I88388J88388D01*
G01*
G37*
G36*
G01*
X146931981Y-82661702D02*
X147108758Y-82484925D01*
G75*
G02*
X147285534Y-82484925I88388J-88388D01*
G01*
X148169417Y-83368808D01*
G75*
G02*
X148169417Y-83545584I-88388J-88388D01*
G01*
X147992640Y-83722361D01*
G75*
G02*
X147815864Y-83722361I-88388J88388D01*
G01*
X146931981Y-82838478D01*
G75*
G02*
X146931981Y-82661702I88388J88388D01*
G01*
G37*
G36*
G01*
X146366296Y-83227387D02*
X146543073Y-83050610D01*
G75*
G02*
X146719849Y-83050610I88388J-88388D01*
G01*
X147603732Y-83934493D01*
G75*
G02*
X147603732Y-84111269I-88388J-88388D01*
G01*
X147426955Y-84288046D01*
G75*
G02*
X147250179Y-84288046I-88388J88388D01*
G01*
X146366296Y-83404163D01*
G75*
G02*
X146366296Y-83227387I88388J88388D01*
G01*
G37*
G36*
G01*
X145800610Y-83793073D02*
X145977387Y-83616296D01*
G75*
G02*
X146154163Y-83616296I88388J-88388D01*
G01*
X147038046Y-84500179D01*
G75*
G02*
X147038046Y-84676955I-88388J-88388D01*
G01*
X146861269Y-84853732D01*
G75*
G02*
X146684493Y-84853732I-88388J88388D01*
G01*
X145800610Y-83969849D01*
G75*
G02*
X145800610Y-83793073I88388J88388D01*
G01*
G37*
G36*
G01*
X145234925Y-84358758D02*
X145411702Y-84181981D01*
G75*
G02*
X145588478Y-84181981I88388J-88388D01*
G01*
X146472361Y-85065864D01*
G75*
G02*
X146472361Y-85242640I-88388J-88388D01*
G01*
X146295584Y-85419417D01*
G75*
G02*
X146118808Y-85419417I-88388J88388D01*
G01*
X145234925Y-84535534D01*
G75*
G02*
X145234925Y-84358758I88388J88388D01*
G01*
G37*
G36*
G01*
X144669239Y-84924443D02*
X144846016Y-84747666D01*
G75*
G02*
X145022792Y-84747666I88388J-88388D01*
G01*
X145906675Y-85631549D01*
G75*
G02*
X145906675Y-85808325I-88388J-88388D01*
G01*
X145729898Y-85985102D01*
G75*
G02*
X145553122Y-85985102I-88388J88388D01*
G01*
X144669239Y-85101219D01*
G75*
G02*
X144669239Y-84924443I88388J88388D01*
G01*
G37*
G36*
G01*
X144103554Y-85490129D02*
X144280331Y-85313352D01*
G75*
G02*
X144457107Y-85313352I88388J-88388D01*
G01*
X145340990Y-86197235D01*
G75*
G02*
X145340990Y-86374011I-88388J-88388D01*
G01*
X145164213Y-86550788D01*
G75*
G02*
X144987437Y-86550788I-88388J88388D01*
G01*
X144103554Y-85666905D01*
G75*
G02*
X144103554Y-85490129I88388J88388D01*
G01*
G37*
G36*
G01*
X142159010Y-86197235D02*
X143042893Y-85313352D01*
G75*
G02*
X143219669Y-85313352I88388J-88388D01*
G01*
X143396446Y-85490129D01*
G75*
G02*
X143396446Y-85666905I-88388J-88388D01*
G01*
X142512563Y-86550788D01*
G75*
G02*
X142335787Y-86550788I-88388J88388D01*
G01*
X142159010Y-86374011D01*
G75*
G02*
X142159010Y-86197235I88388J88388D01*
G01*
G37*
G36*
G01*
X141593325Y-85631549D02*
X142477208Y-84747666D01*
G75*
G02*
X142653984Y-84747666I88388J-88388D01*
G01*
X142830761Y-84924443D01*
G75*
G02*
X142830761Y-85101219I-88388J-88388D01*
G01*
X141946878Y-85985102D01*
G75*
G02*
X141770102Y-85985102I-88388J88388D01*
G01*
X141593325Y-85808325D01*
G75*
G02*
X141593325Y-85631549I88388J88388D01*
G01*
G37*
G36*
G01*
X141027639Y-85065864D02*
X141911522Y-84181981D01*
G75*
G02*
X142088298Y-84181981I88388J-88388D01*
G01*
X142265075Y-84358758D01*
G75*
G02*
X142265075Y-84535534I-88388J-88388D01*
G01*
X141381192Y-85419417D01*
G75*
G02*
X141204416Y-85419417I-88388J88388D01*
G01*
X141027639Y-85242640D01*
G75*
G02*
X141027639Y-85065864I88388J88388D01*
G01*
G37*
G36*
G01*
X140461954Y-84500179D02*
X141345837Y-83616296D01*
G75*
G02*
X141522613Y-83616296I88388J-88388D01*
G01*
X141699390Y-83793073D01*
G75*
G02*
X141699390Y-83969849I-88388J-88388D01*
G01*
X140815507Y-84853732D01*
G75*
G02*
X140638731Y-84853732I-88388J88388D01*
G01*
X140461954Y-84676955D01*
G75*
G02*
X140461954Y-84500179I88388J88388D01*
G01*
G37*
G36*
G01*
X139896268Y-83934493D02*
X140780151Y-83050610D01*
G75*
G02*
X140956927Y-83050610I88388J-88388D01*
G01*
X141133704Y-83227387D01*
G75*
G02*
X141133704Y-83404163I-88388J-88388D01*
G01*
X140249821Y-84288046D01*
G75*
G02*
X140073045Y-84288046I-88388J88388D01*
G01*
X139896268Y-84111269D01*
G75*
G02*
X139896268Y-83934493I88388J88388D01*
G01*
G37*
G36*
G01*
X139330583Y-83368808D02*
X140214466Y-82484925D01*
G75*
G02*
X140391242Y-82484925I88388J-88388D01*
G01*
X140568019Y-82661702D01*
G75*
G02*
X140568019Y-82838478I-88388J-88388D01*
G01*
X139684136Y-83722361D01*
G75*
G02*
X139507360Y-83722361I-88388J88388D01*
G01*
X139330583Y-83545584D01*
G75*
G02*
X139330583Y-83368808I88388J88388D01*
G01*
G37*
G36*
G01*
X138764898Y-82803122D02*
X139648781Y-81919239D01*
G75*
G02*
X139825557Y-81919239I88388J-88388D01*
G01*
X140002334Y-82096016D01*
G75*
G02*
X140002334Y-82272792I-88388J-88388D01*
G01*
X139118451Y-83156675D01*
G75*
G02*
X138941675Y-83156675I-88388J88388D01*
G01*
X138764898Y-82979898D01*
G75*
G02*
X138764898Y-82803122I88388J88388D01*
G01*
G37*
G36*
G01*
X138199212Y-82237437D02*
X139083095Y-81353554D01*
G75*
G02*
X139259871Y-81353554I88388J-88388D01*
G01*
X139436648Y-81530331D01*
G75*
G02*
X139436648Y-81707107I-88388J-88388D01*
G01*
X138552765Y-82590990D01*
G75*
G02*
X138375989Y-82590990I-88388J88388D01*
G01*
X138199212Y-82414213D01*
G75*
G02*
X138199212Y-82237437I88388J88388D01*
G01*
G37*
G36*
G01*
X138199212Y-79585787D02*
X138375989Y-79409010D01*
G75*
G02*
X138552765Y-79409010I88388J-88388D01*
G01*
X139436648Y-80292893D01*
G75*
G02*
X139436648Y-80469669I-88388J-88388D01*
G01*
X139259871Y-80646446D01*
G75*
G02*
X139083095Y-80646446I-88388J88388D01*
G01*
X138199212Y-79762563D01*
G75*
G02*
X138199212Y-79585787I88388J88388D01*
G01*
G37*
G36*
G01*
X138764898Y-79020102D02*
X138941675Y-78843325D01*
G75*
G02*
X139118451Y-78843325I88388J-88388D01*
G01*
X140002334Y-79727208D01*
G75*
G02*
X140002334Y-79903984I-88388J-88388D01*
G01*
X139825557Y-80080761D01*
G75*
G02*
X139648781Y-80080761I-88388J88388D01*
G01*
X138764898Y-79196878D01*
G75*
G02*
X138764898Y-79020102I88388J88388D01*
G01*
G37*
G36*
G01*
X139330583Y-78454416D02*
X139507360Y-78277639D01*
G75*
G02*
X139684136Y-78277639I88388J-88388D01*
G01*
X140568019Y-79161522D01*
G75*
G02*
X140568019Y-79338298I-88388J-88388D01*
G01*
X140391242Y-79515075D01*
G75*
G02*
X140214466Y-79515075I-88388J88388D01*
G01*
X139330583Y-78631192D01*
G75*
G02*
X139330583Y-78454416I88388J88388D01*
G01*
G37*
G36*
G01*
X139896268Y-77888731D02*
X140073045Y-77711954D01*
G75*
G02*
X140249821Y-77711954I88388J-88388D01*
G01*
X141133704Y-78595837D01*
G75*
G02*
X141133704Y-78772613I-88388J-88388D01*
G01*
X140956927Y-78949390D01*
G75*
G02*
X140780151Y-78949390I-88388J88388D01*
G01*
X139896268Y-78065507D01*
G75*
G02*
X139896268Y-77888731I88388J88388D01*
G01*
G37*
G36*
G01*
X140461954Y-77323045D02*
X140638731Y-77146268D01*
G75*
G02*
X140815507Y-77146268I88388J-88388D01*
G01*
X141699390Y-78030151D01*
G75*
G02*
X141699390Y-78206927I-88388J-88388D01*
G01*
X141522613Y-78383704D01*
G75*
G02*
X141345837Y-78383704I-88388J88388D01*
G01*
X140461954Y-77499821D01*
G75*
G02*
X140461954Y-77323045I88388J88388D01*
G01*
G37*
G36*
G01*
X141027639Y-76757360D02*
X141204416Y-76580583D01*
G75*
G02*
X141381192Y-76580583I88388J-88388D01*
G01*
X142265075Y-77464466D01*
G75*
G02*
X142265075Y-77641242I-88388J-88388D01*
G01*
X142088298Y-77818019D01*
G75*
G02*
X141911522Y-77818019I-88388J88388D01*
G01*
X141027639Y-76934136D01*
G75*
G02*
X141027639Y-76757360I88388J88388D01*
G01*
G37*
G36*
G01*
X141593325Y-76191675D02*
X141770102Y-76014898D01*
G75*
G02*
X141946878Y-76014898I88388J-88388D01*
G01*
X142830761Y-76898781D01*
G75*
G02*
X142830761Y-77075557I-88388J-88388D01*
G01*
X142653984Y-77252334D01*
G75*
G02*
X142477208Y-77252334I-88388J88388D01*
G01*
X141593325Y-76368451D01*
G75*
G02*
X141593325Y-76191675I88388J88388D01*
G01*
G37*
G36*
G01*
X142159010Y-75625989D02*
X142335787Y-75449212D01*
G75*
G02*
X142512563Y-75449212I88388J-88388D01*
G01*
X143396446Y-76333095D01*
G75*
G02*
X143396446Y-76509871I-88388J-88388D01*
G01*
X143219669Y-76686648D01*
G75*
G02*
X143042893Y-76686648I-88388J88388D01*
G01*
X142159010Y-75802765D01*
G75*
G02*
X142159010Y-75625989I88388J88388D01*
G01*
G37*
%TD*%
%TO.C,R8*%
G36*
G01*
X134549999Y-93650000D02*
X135450001Y-93650000D01*
G75*
G02*
X135700000Y-93899999I0J-249999D01*
G01*
X135700000Y-94600001D01*
G75*
G02*
X135450001Y-94850000I-249999J0D01*
G01*
X134549999Y-94850000D01*
G75*
G02*
X134300000Y-94600001I0J249999D01*
G01*
X134300000Y-93899999D01*
G75*
G02*
X134549999Y-93650000I249999J0D01*
G01*
G37*
G36*
G01*
X134549999Y-91650000D02*
X135450001Y-91650000D01*
G75*
G02*
X135700000Y-91899999I0J-249999D01*
G01*
X135700000Y-92600001D01*
G75*
G02*
X135450001Y-92850000I-249999J0D01*
G01*
X134549999Y-92850000D01*
G75*
G02*
X134300000Y-92600001I0J249999D01*
G01*
X134300000Y-91899999D01*
G75*
G02*
X134549999Y-91650000I249999J0D01*
G01*
G37*
%TD*%
%TO.C,R7*%
G36*
G01*
X132299999Y-93650000D02*
X133200001Y-93650000D01*
G75*
G02*
X133450000Y-93899999I0J-249999D01*
G01*
X133450000Y-94600001D01*
G75*
G02*
X133200001Y-94850000I-249999J0D01*
G01*
X132299999Y-94850000D01*
G75*
G02*
X132050000Y-94600001I0J249999D01*
G01*
X132050000Y-93899999D01*
G75*
G02*
X132299999Y-93650000I249999J0D01*
G01*
G37*
G36*
G01*
X132299999Y-91650000D02*
X133200001Y-91650000D01*
G75*
G02*
X133450000Y-91899999I0J-249999D01*
G01*
X133450000Y-92600001D01*
G75*
G02*
X133200001Y-92850000I-249999J0D01*
G01*
X132299999Y-92850000D01*
G75*
G02*
X132050000Y-92600001I0J249999D01*
G01*
X132050000Y-91899999D01*
G75*
G02*
X132299999Y-91650000I249999J0D01*
G01*
G37*
%TD*%
%TO.C,R6*%
G36*
G01*
X155049999Y-77150000D02*
X155950001Y-77150000D01*
G75*
G02*
X156200000Y-77399999I0J-249999D01*
G01*
X156200000Y-78100001D01*
G75*
G02*
X155950001Y-78350000I-249999J0D01*
G01*
X155049999Y-78350000D01*
G75*
G02*
X154800000Y-78100001I0J249999D01*
G01*
X154800000Y-77399999D01*
G75*
G02*
X155049999Y-77150000I249999J0D01*
G01*
G37*
G36*
G01*
X155049999Y-75150000D02*
X155950001Y-75150000D01*
G75*
G02*
X156200000Y-75399999I0J-249999D01*
G01*
X156200000Y-76100001D01*
G75*
G02*
X155950001Y-76350000I-249999J0D01*
G01*
X155049999Y-76350000D01*
G75*
G02*
X154800000Y-76100001I0J249999D01*
G01*
X154800000Y-75399999D01*
G75*
G02*
X155049999Y-75150000I249999J0D01*
G01*
G37*
%TD*%
%TO.C,R5*%
G36*
G01*
X155950001Y-84100000D02*
X155049999Y-84100000D01*
G75*
G02*
X154800000Y-83850001I0J249999D01*
G01*
X154800000Y-83149999D01*
G75*
G02*
X155049999Y-82900000I249999J0D01*
G01*
X155950001Y-82900000D01*
G75*
G02*
X156200000Y-83149999I0J-249999D01*
G01*
X156200000Y-83850001D01*
G75*
G02*
X155950001Y-84100000I-249999J0D01*
G01*
G37*
G36*
G01*
X155950001Y-86100000D02*
X155049999Y-86100000D01*
G75*
G02*
X154800000Y-85850001I0J249999D01*
G01*
X154800000Y-85149999D01*
G75*
G02*
X155049999Y-84900000I249999J0D01*
G01*
X155950001Y-84900000D01*
G75*
G02*
X156200000Y-85149999I0J-249999D01*
G01*
X156200000Y-85850001D01*
G75*
G02*
X155950001Y-86100000I-249999J0D01*
G01*
G37*
%TD*%
%TO.C,R3*%
G36*
G01*
X127049999Y-93650000D02*
X127950001Y-93650000D01*
G75*
G02*
X128200000Y-93899999I0J-249999D01*
G01*
X128200000Y-94600001D01*
G75*
G02*
X127950001Y-94850000I-249999J0D01*
G01*
X127049999Y-94850000D01*
G75*
G02*
X126800000Y-94600001I0J249999D01*
G01*
X126800000Y-93899999D01*
G75*
G02*
X127049999Y-93650000I249999J0D01*
G01*
G37*
G36*
G01*
X127049999Y-91650000D02*
X127950001Y-91650000D01*
G75*
G02*
X128200000Y-91899999I0J-249999D01*
G01*
X128200000Y-92600001D01*
G75*
G02*
X127950001Y-92850000I-249999J0D01*
G01*
X127049999Y-92850000D01*
G75*
G02*
X126800000Y-92600001I0J249999D01*
G01*
X126800000Y-91899999D01*
G75*
G02*
X127049999Y-91650000I249999J0D01*
G01*
G37*
%TD*%
%TO.C,R2*%
G36*
G01*
X124999999Y-93650000D02*
X125900001Y-93650000D01*
G75*
G02*
X126150000Y-93899999I0J-249999D01*
G01*
X126150000Y-94600001D01*
G75*
G02*
X125900001Y-94850000I-249999J0D01*
G01*
X124999999Y-94850000D01*
G75*
G02*
X124750000Y-94600001I0J249999D01*
G01*
X124750000Y-93899999D01*
G75*
G02*
X124999999Y-93650000I249999J0D01*
G01*
G37*
G36*
G01*
X124999999Y-91650000D02*
X125900001Y-91650000D01*
G75*
G02*
X126150000Y-91899999I0J-249999D01*
G01*
X126150000Y-92600001D01*
G75*
G02*
X125900001Y-92850000I-249999J0D01*
G01*
X124999999Y-92850000D01*
G75*
G02*
X124750000Y-92600001I0J249999D01*
G01*
X124750000Y-91899999D01*
G75*
G02*
X124999999Y-91650000I249999J0D01*
G01*
G37*
%TD*%
%TO.C,R1*%
G36*
G01*
X149260000Y-75126001D02*
X149260000Y-74225999D01*
G75*
G02*
X149509999Y-73976000I249999J0D01*
G01*
X150210001Y-73976000D01*
G75*
G02*
X150460000Y-74225999I0J-249999D01*
G01*
X150460000Y-75126001D01*
G75*
G02*
X150210001Y-75376000I-249999J0D01*
G01*
X149509999Y-75376000D01*
G75*
G02*
X149260000Y-75126001I0J249999D01*
G01*
G37*
G36*
G01*
X147260000Y-75126001D02*
X147260000Y-74225999D01*
G75*
G02*
X147509999Y-73976000I249999J0D01*
G01*
X148210001Y-73976000D01*
G75*
G02*
X148460000Y-74225999I0J-249999D01*
G01*
X148460000Y-75126001D01*
G75*
G02*
X148210001Y-75376000I-249999J0D01*
G01*
X147509999Y-75376000D01*
G75*
G02*
X147260000Y-75126001I0J249999D01*
G01*
G37*
%TD*%
D15*
%TO.C,J5*%
X121124980Y-80783220D03*
D16*
X122649980Y-79308220D03*
D15*
X121124980Y-77833220D03*
%TD*%
%TO.C,FB1*%
G36*
G01*
X165019860Y-75477160D02*
X164544860Y-75477160D01*
G75*
G02*
X164307360Y-75239660I0J237500D01*
G01*
X164307360Y-74664660D01*
G75*
G02*
X164544860Y-74427160I237500J0D01*
G01*
X165019860Y-74427160D01*
G75*
G02*
X165257360Y-74664660I0J-237500D01*
G01*
X165257360Y-75239660D01*
G75*
G02*
X165019860Y-75477160I-237500J0D01*
G01*
G37*
G36*
G01*
X165019860Y-77227160D02*
X164544860Y-77227160D01*
G75*
G02*
X164307360Y-76989660I0J237500D01*
G01*
X164307360Y-76414660D01*
G75*
G02*
X164544860Y-76177160I237500J0D01*
G01*
X165019860Y-76177160D01*
G75*
G02*
X165257360Y-76414660I0J-237500D01*
G01*
X165257360Y-76989660D01*
G75*
G02*
X165019860Y-77227160I-237500J0D01*
G01*
G37*
%TD*%
%TO.C,D6*%
G36*
G01*
X135400001Y-88987500D02*
X134599999Y-88987500D01*
G75*
G02*
X134350000Y-88737501I0J249999D01*
G01*
X134350000Y-87912499D01*
G75*
G02*
X134599999Y-87662500I249999J0D01*
G01*
X135400001Y-87662500D01*
G75*
G02*
X135650000Y-87912499I0J-249999D01*
G01*
X135650000Y-88737501D01*
G75*
G02*
X135400001Y-88987500I-249999J0D01*
G01*
G37*
G36*
G01*
X135400001Y-90912500D02*
X134599999Y-90912500D01*
G75*
G02*
X134350000Y-90662501I0J249999D01*
G01*
X134350000Y-89837499D01*
G75*
G02*
X134599999Y-89587500I249999J0D01*
G01*
X135400001Y-89587500D01*
G75*
G02*
X135650000Y-89837499I0J-249999D01*
G01*
X135650000Y-90662501D01*
G75*
G02*
X135400001Y-90912500I-249999J0D01*
G01*
G37*
%TD*%
%TO.C,D5*%
G36*
G01*
X133150001Y-88912500D02*
X132349999Y-88912500D01*
G75*
G02*
X132100000Y-88662501I0J249999D01*
G01*
X132100000Y-87837499D01*
G75*
G02*
X132349999Y-87587500I249999J0D01*
G01*
X133150001Y-87587500D01*
G75*
G02*
X133400000Y-87837499I0J-249999D01*
G01*
X133400000Y-88662501D01*
G75*
G02*
X133150001Y-88912500I-249999J0D01*
G01*
G37*
G36*
G01*
X133150001Y-90837500D02*
X132349999Y-90837500D01*
G75*
G02*
X132100000Y-90587501I0J249999D01*
G01*
X132100000Y-89762499D01*
G75*
G02*
X132349999Y-89512500I249999J0D01*
G01*
X133150001Y-89512500D01*
G75*
G02*
X133400000Y-89762499I0J-249999D01*
G01*
X133400000Y-90587501D01*
G75*
G02*
X133150001Y-90837500I-249999J0D01*
G01*
G37*
%TD*%
%TO.C,D4*%
G36*
G01*
X129900001Y-88987500D02*
X129099999Y-88987500D01*
G75*
G02*
X128850000Y-88737501I0J249999D01*
G01*
X128850000Y-87912499D01*
G75*
G02*
X129099999Y-87662500I249999J0D01*
G01*
X129900001Y-87662500D01*
G75*
G02*
X130150000Y-87912499I0J-249999D01*
G01*
X130150000Y-88737501D01*
G75*
G02*
X129900001Y-88987500I-249999J0D01*
G01*
G37*
G36*
G01*
X129900001Y-90912500D02*
X129099999Y-90912500D01*
G75*
G02*
X128850000Y-90662501I0J249999D01*
G01*
X128850000Y-89837499D01*
G75*
G02*
X129099999Y-89587500I249999J0D01*
G01*
X129900001Y-89587500D01*
G75*
G02*
X130150000Y-89837499I0J-249999D01*
G01*
X130150000Y-90662501D01*
G75*
G02*
X129900001Y-90912500I-249999J0D01*
G01*
G37*
%TD*%
%TO.C,D3*%
G36*
G01*
X127900001Y-88950000D02*
X127099999Y-88950000D01*
G75*
G02*
X126850000Y-88700001I0J249999D01*
G01*
X126850000Y-87874999D01*
G75*
G02*
X127099999Y-87625000I249999J0D01*
G01*
X127900001Y-87625000D01*
G75*
G02*
X128150000Y-87874999I0J-249999D01*
G01*
X128150000Y-88700001D01*
G75*
G02*
X127900001Y-88950000I-249999J0D01*
G01*
G37*
G36*
G01*
X127900001Y-90875000D02*
X127099999Y-90875000D01*
G75*
G02*
X126850000Y-90625001I0J249999D01*
G01*
X126850000Y-89799999D01*
G75*
G02*
X127099999Y-89550000I249999J0D01*
G01*
X127900001Y-89550000D01*
G75*
G02*
X128150000Y-89799999I0J-249999D01*
G01*
X128150000Y-90625001D01*
G75*
G02*
X127900001Y-90875000I-249999J0D01*
G01*
G37*
%TD*%
%TO.C,D2*%
G36*
G01*
X125850001Y-88987500D02*
X125049999Y-88987500D01*
G75*
G02*
X124800000Y-88737501I0J249999D01*
G01*
X124800000Y-87912499D01*
G75*
G02*
X125049999Y-87662500I249999J0D01*
G01*
X125850001Y-87662500D01*
G75*
G02*
X126100000Y-87912499I0J-249999D01*
G01*
X126100000Y-88737501D01*
G75*
G02*
X125850001Y-88987500I-249999J0D01*
G01*
G37*
G36*
G01*
X125850001Y-90912500D02*
X125049999Y-90912500D01*
G75*
G02*
X124800000Y-90662501I0J249999D01*
G01*
X124800000Y-89837499D01*
G75*
G02*
X125049999Y-89587500I249999J0D01*
G01*
X125850001Y-89587500D01*
G75*
G02*
X126100000Y-89837499I0J-249999D01*
G01*
X126100000Y-90662501D01*
G75*
G02*
X125850001Y-90912500I-249999J0D01*
G01*
G37*
%TD*%
%TO.C,C8*%
G36*
G01*
X132675000Y-74262500D02*
X132675000Y-74737500D01*
G75*
G02*
X132437500Y-74975000I-237500J0D01*
G01*
X131837500Y-74975000D01*
G75*
G02*
X131600000Y-74737500I0J237500D01*
G01*
X131600000Y-74262500D01*
G75*
G02*
X131837500Y-74025000I237500J0D01*
G01*
X132437500Y-74025000D01*
G75*
G02*
X132675000Y-74262500I0J-237500D01*
G01*
G37*
G36*
G01*
X134400000Y-74262500D02*
X134400000Y-74737500D01*
G75*
G02*
X134162500Y-74975000I-237500J0D01*
G01*
X133562500Y-74975000D01*
G75*
G02*
X133325000Y-74737500I0J237500D01*
G01*
X133325000Y-74262500D01*
G75*
G02*
X133562500Y-74025000I237500J0D01*
G01*
X134162500Y-74025000D01*
G75*
G02*
X134400000Y-74262500I0J-237500D01*
G01*
G37*
%TD*%
%TO.C,C7*%
G36*
G01*
X159762060Y-75385460D02*
X159287060Y-75385460D01*
G75*
G02*
X159049560Y-75147960I0J237500D01*
G01*
X159049560Y-74547960D01*
G75*
G02*
X159287060Y-74310460I237500J0D01*
G01*
X159762060Y-74310460D01*
G75*
G02*
X159999560Y-74547960I0J-237500D01*
G01*
X159999560Y-75147960D01*
G75*
G02*
X159762060Y-75385460I-237500J0D01*
G01*
G37*
G36*
G01*
X159762060Y-77110460D02*
X159287060Y-77110460D01*
G75*
G02*
X159049560Y-76872960I0J237500D01*
G01*
X159049560Y-76272960D01*
G75*
G02*
X159287060Y-76035460I237500J0D01*
G01*
X159762060Y-76035460D01*
G75*
G02*
X159999560Y-76272960I0J-237500D01*
G01*
X159999560Y-76872960D01*
G75*
G02*
X159762060Y-77110460I-237500J0D01*
G01*
G37*
%TD*%
%TO.C,C5*%
G36*
G01*
X138737500Y-75675000D02*
X138262500Y-75675000D01*
G75*
G02*
X138025000Y-75437500I0J237500D01*
G01*
X138025000Y-74837500D01*
G75*
G02*
X138262500Y-74600000I237500J0D01*
G01*
X138737500Y-74600000D01*
G75*
G02*
X138975000Y-74837500I0J-237500D01*
G01*
X138975000Y-75437500D01*
G75*
G02*
X138737500Y-75675000I-237500J0D01*
G01*
G37*
G36*
G01*
X138737500Y-77400000D02*
X138262500Y-77400000D01*
G75*
G02*
X138025000Y-77162500I0J237500D01*
G01*
X138025000Y-76562500D01*
G75*
G02*
X138262500Y-76325000I237500J0D01*
G01*
X138737500Y-76325000D01*
G75*
G02*
X138975000Y-76562500I0J-237500D01*
G01*
X138975000Y-77162500D01*
G75*
G02*
X138737500Y-77400000I-237500J0D01*
G01*
G37*
%TD*%
%TO.C,C4*%
G36*
G01*
X143537500Y-91262500D02*
X143537500Y-91737500D01*
G75*
G02*
X143300000Y-91975000I-237500J0D01*
G01*
X142700000Y-91975000D01*
G75*
G02*
X142462500Y-91737500I0J237500D01*
G01*
X142462500Y-91262500D01*
G75*
G02*
X142700000Y-91025000I237500J0D01*
G01*
X143300000Y-91025000D01*
G75*
G02*
X143537500Y-91262500I0J-237500D01*
G01*
G37*
G36*
G01*
X145262500Y-91262500D02*
X145262500Y-91737500D01*
G75*
G02*
X145025000Y-91975000I-237500J0D01*
G01*
X144425000Y-91975000D01*
G75*
G02*
X144187500Y-91737500I0J237500D01*
G01*
X144187500Y-91262500D01*
G75*
G02*
X144425000Y-91025000I237500J0D01*
G01*
X145025000Y-91025000D01*
G75*
G02*
X145262500Y-91262500I0J-237500D01*
G01*
G37*
%TD*%
%TO.C,C3*%
G36*
G01*
X144089000Y-74405500D02*
X144089000Y-73930500D01*
G75*
G02*
X144326500Y-73693000I237500J0D01*
G01*
X144926500Y-73693000D01*
G75*
G02*
X145164000Y-73930500I0J-237500D01*
G01*
X145164000Y-74405500D01*
G75*
G02*
X144926500Y-74643000I-237500J0D01*
G01*
X144326500Y-74643000D01*
G75*
G02*
X144089000Y-74405500I0J237500D01*
G01*
G37*
G36*
G01*
X142364000Y-74405500D02*
X142364000Y-73930500D01*
G75*
G02*
X142601500Y-73693000I237500J0D01*
G01*
X143201500Y-73693000D01*
G75*
G02*
X143439000Y-73930500I0J-237500D01*
G01*
X143439000Y-74405500D01*
G75*
G02*
X143201500Y-74643000I-237500J0D01*
G01*
X142601500Y-74643000D01*
G75*
G02*
X142364000Y-74405500I0J237500D01*
G01*
G37*
%TD*%
%TO.C,C2*%
G36*
G01*
X143537500Y-87762500D02*
X143537500Y-88237500D01*
G75*
G02*
X143300000Y-88475000I-237500J0D01*
G01*
X142700000Y-88475000D01*
G75*
G02*
X142462500Y-88237500I0J237500D01*
G01*
X142462500Y-87762500D01*
G75*
G02*
X142700000Y-87525000I237500J0D01*
G01*
X143300000Y-87525000D01*
G75*
G02*
X143537500Y-87762500I0J-237500D01*
G01*
G37*
G36*
G01*
X145262500Y-87762500D02*
X145262500Y-88237500D01*
G75*
G02*
X145025000Y-88475000I-237500J0D01*
G01*
X144425000Y-88475000D01*
G75*
G02*
X144187500Y-88237500I0J237500D01*
G01*
X144187500Y-87762500D01*
G75*
G02*
X144425000Y-87525000I237500J0D01*
G01*
X145025000Y-87525000D01*
G75*
G02*
X145262500Y-87762500I0J-237500D01*
G01*
G37*
%TD*%
%TO.C,C1*%
G36*
G01*
X143487500Y-89512500D02*
X143487500Y-89987500D01*
G75*
G02*
X143250000Y-90225000I-237500J0D01*
G01*
X142750000Y-90225000D01*
G75*
G02*
X142512500Y-89987500I0J237500D01*
G01*
X142512500Y-89512500D01*
G75*
G02*
X142750000Y-89275000I237500J0D01*
G01*
X143250000Y-89275000D01*
G75*
G02*
X143487500Y-89512500I0J-237500D01*
G01*
G37*
G36*
G01*
X145312500Y-89512500D02*
X145312500Y-89987500D01*
G75*
G02*
X145075000Y-90225000I-237500J0D01*
G01*
X144575000Y-90225000D01*
G75*
G02*
X144337500Y-89987500I0J237500D01*
G01*
X144337500Y-89512500D01*
G75*
G02*
X144575000Y-89275000I237500J0D01*
G01*
X145075000Y-89275000D01*
G75*
G02*
X145312500Y-89512500I0J-237500D01*
G01*
G37*
%TD*%
M02*
