%FSLAX45Y45*%
G04 Gerber Fmt 4.5, Leading zero omitted, Abs format (unit mm)*
G04 Created by KiCad (PCBNEW (5.1.10)-1) date 2021-07-16 13:04:02*
%MOMM*%
%LPD*%
G01*
G04 APERTURE LIST*
%TA.AperFunction,Profile*%
%ADD10C,0.050000*%
%TD*%
%ADD11C,0.200000*%
%ADD12C,0.300000*%
G04 APERTURE END LIST*
D10*
X20450000Y-8050000D02*
G75*
G03*
X20450000Y-8050000I-4800000J0D01*
G01*
D11*
X11830000Y-7430000D02*
X11870000Y-7470000D01*
X11870000Y-7430000D02*
X11830000Y-7470000D01*
X11830000Y-7730000D02*
X11870000Y-7770000D01*
X11870000Y-7730000D02*
X11830000Y-7770000D01*
X11830000Y-7980000D02*
X11870000Y-8020000D01*
X11870000Y-7980000D02*
X11830000Y-8020000D01*
X11830000Y-8280000D02*
X11870000Y-8320000D01*
X11870000Y-8280000D02*
X11830000Y-8320000D01*
X11830000Y-8530000D02*
X11870000Y-8570000D01*
X11870000Y-8530000D02*
X11830000Y-8570000D01*
X12130000Y-7430000D02*
X12170000Y-7470000D01*
X12170000Y-7430000D02*
X12130000Y-7470000D01*
X12130000Y-8530000D02*
X12170000Y-8570000D01*
X12170000Y-8530000D02*
X12130000Y-8570000D01*
X12151860Y-7910822D02*
X12191860Y-7950822D01*
X12191860Y-7910822D02*
X12151860Y-7950822D01*
X12480000Y-7430000D02*
X12520000Y-7470000D01*
X12520000Y-7430000D02*
X12480000Y-7470000D01*
X12480000Y-8530000D02*
X12520000Y-8570000D01*
X12520000Y-8530000D02*
X12480000Y-8570000D01*
X12607500Y-8102500D02*
X12647500Y-8142500D01*
X12647500Y-8102500D02*
X12607500Y-8142500D01*
X12610000Y-7985000D02*
X12650000Y-8025000D01*
X12650000Y-7985000D02*
X12610000Y-8025000D01*
X12612500Y-7787500D02*
X12652500Y-7827500D01*
X12652500Y-7787500D02*
X12612500Y-7827500D01*
X12730000Y-8005000D02*
X12770000Y-8045000D01*
X12770000Y-8005000D02*
X12730000Y-8045000D01*
X12825000Y-7905000D02*
X12865000Y-7945000D01*
X12865000Y-7905000D02*
X12825000Y-7945000D01*
X12830000Y-8105000D02*
X12870000Y-8145000D01*
X12870000Y-8105000D02*
X12830000Y-8145000D01*
X12930000Y-7430000D02*
X12970000Y-7470000D01*
X12970000Y-7430000D02*
X12930000Y-7470000D01*
X12930000Y-8005000D02*
X12970000Y-8045000D01*
X12970000Y-8005000D02*
X12930000Y-8045000D01*
X12930000Y-8530000D02*
X12970000Y-8570000D01*
X12970000Y-8530000D02*
X12930000Y-8570000D01*
X13030000Y-8105000D02*
X13070000Y-8145000D01*
X13070000Y-8105000D02*
X13030000Y-8145000D01*
X13035000Y-7905000D02*
X13075000Y-7945000D01*
X13075000Y-7905000D02*
X13035000Y-7945000D01*
X13105000Y-9380000D02*
X13145000Y-9420000D01*
X13145000Y-9380000D02*
X13105000Y-9420000D01*
X13130000Y-8005000D02*
X13170000Y-8045000D01*
X13170000Y-8005000D02*
X13130000Y-8045000D01*
X13193750Y-7326350D02*
X13233750Y-7366350D01*
X13233750Y-7326350D02*
X13193750Y-7366350D01*
X13330000Y-9380000D02*
X13370000Y-9420000D01*
X13370000Y-9380000D02*
X13330000Y-9420000D01*
X13366250Y-7343750D02*
X13406250Y-7383750D01*
X13406250Y-7343750D02*
X13366250Y-7383750D01*
X13430000Y-7830000D02*
X13470000Y-7870000D01*
X13470000Y-7830000D02*
X13430000Y-7870000D01*
X13674000Y-8112000D02*
X13714000Y-8152000D01*
X13714000Y-8112000D02*
X13674000Y-8152000D01*
X13726000Y-8272000D02*
X13766000Y-8312000D01*
X13766000Y-8272000D02*
X13726000Y-8312000D01*
X13731250Y-7666250D02*
X13771250Y-7706250D01*
X13771250Y-7666250D02*
X13731250Y-7706250D01*
X13916250Y-7493750D02*
X13956250Y-7533750D01*
X13956250Y-7493750D02*
X13916250Y-7533750D01*
X14153200Y-7396800D02*
X14193200Y-7436800D01*
X14193200Y-7396800D02*
X14153200Y-7436800D01*
X14173266Y-7841046D02*
X14213266Y-7881046D01*
X14213266Y-7841046D02*
X14173266Y-7881046D01*
X14187000Y-8980000D02*
X14227000Y-9020000D01*
X14227000Y-8980000D02*
X14187000Y-9020000D01*
X14190200Y-8780000D02*
X14230200Y-8820000D01*
X14230200Y-8780000D02*
X14190200Y-8820000D01*
X14204000Y-9225600D02*
X14244000Y-9265600D01*
X14244000Y-9225600D02*
X14204000Y-9265600D01*
X14305600Y-9530400D02*
X14345600Y-9570400D01*
X14345600Y-9530400D02*
X14305600Y-9570400D01*
X14442650Y-7312650D02*
X14482650Y-7352650D01*
X14482650Y-7312650D02*
X14442650Y-7352650D01*
X14548000Y-8780000D02*
X14588000Y-8820000D01*
X14588000Y-8780000D02*
X14548000Y-8820000D01*
X14551200Y-8980000D02*
X14591200Y-9020000D01*
X14591200Y-8980000D02*
X14551200Y-9020000D01*
X14712000Y-8633000D02*
X14752000Y-8673000D01*
X14752000Y-8633000D02*
X14712000Y-8673000D01*
X14762800Y-8514400D02*
X14802800Y-8554400D01*
X14802800Y-8514400D02*
X14762800Y-8554400D01*
X14805000Y-9255000D02*
X14845000Y-9295000D01*
X14845000Y-9255000D02*
X14805000Y-9295000D01*
X15305000Y-9255000D02*
X15345000Y-9295000D01*
X15345000Y-9255000D02*
X15305000Y-9295000D01*
X15375000Y-11859000D02*
X15415000Y-11899000D01*
X15415000Y-11859000D02*
X15375000Y-11899000D01*
X15380000Y-11630000D02*
X15420000Y-11670000D01*
X15420000Y-11630000D02*
X15380000Y-11670000D01*
X15415000Y-11929000D02*
X15455000Y-11969000D01*
X15455000Y-11929000D02*
X15415000Y-11969000D01*
X15495000Y-11929000D02*
X15535000Y-11969000D01*
X15535000Y-11929000D02*
X15495000Y-11969000D01*
X15499400Y-7701600D02*
X15539400Y-7741600D01*
X15539400Y-7701600D02*
X15499400Y-7741600D01*
X15499400Y-8362000D02*
X15539400Y-8402000D01*
X15539400Y-8362000D02*
X15499400Y-8402000D01*
X15499400Y-8819200D02*
X15539400Y-8859200D01*
X15539400Y-8819200D02*
X15499400Y-8859200D01*
X15535000Y-11859000D02*
X15575000Y-11899000D01*
X15575000Y-11859000D02*
X15535000Y-11899000D01*
X15575000Y-11929000D02*
X15615000Y-11969000D01*
X15615000Y-11929000D02*
X15575000Y-11969000D01*
X15615000Y-11859000D02*
X15655000Y-11899000D01*
X15655000Y-11859000D02*
X15615000Y-11899000D01*
X15695000Y-11859000D02*
X15735000Y-11899000D01*
X15735000Y-11859000D02*
X15695000Y-11899000D01*
X15735000Y-11929000D02*
X15775000Y-11969000D01*
X15775000Y-11929000D02*
X15735000Y-11969000D01*
X15775000Y-11859000D02*
X15815000Y-11899000D01*
X15815000Y-11859000D02*
X15775000Y-11899000D01*
X15815000Y-11929000D02*
X15855000Y-11969000D01*
X15855000Y-11929000D02*
X15815000Y-11969000D01*
X15895000Y-11929000D02*
X15935000Y-11969000D01*
X15935000Y-11929000D02*
X15895000Y-11969000D01*
X15930000Y-11630000D02*
X15970000Y-11670000D01*
X15970000Y-11630000D02*
X15930000Y-11670000D01*
X15935000Y-11859000D02*
X15975000Y-11899000D01*
X15975000Y-11859000D02*
X15935000Y-11899000D01*
X16058200Y-7828600D02*
X16098200Y-7868600D01*
X16098200Y-7828600D02*
X16058200Y-7868600D01*
X16058200Y-8184200D02*
X16098200Y-8224200D01*
X16098200Y-8184200D02*
X16058200Y-8224200D01*
X16230000Y-7730000D02*
X16270000Y-7770000D01*
X16270000Y-7730000D02*
X16230000Y-7770000D01*
X16305000Y-7655000D02*
X16345000Y-7695000D01*
X16345000Y-7655000D02*
X16305000Y-7695000D01*
X16310000Y-7092500D02*
X16350000Y-7132500D01*
X16350000Y-7092500D02*
X16310000Y-7132500D01*
X16312200Y-7346000D02*
X16352200Y-7386000D01*
X16352200Y-7346000D02*
X16312200Y-7386000D01*
X16315000Y-6845000D02*
X16355000Y-6885000D01*
X16355000Y-6845000D02*
X16315000Y-6885000D01*
X16330000Y-7980000D02*
X16370000Y-8020000D01*
X16370000Y-7980000D02*
X16330000Y-8020000D01*
X16380000Y-7540000D02*
X16420000Y-7580000D01*
X16420000Y-7540000D02*
X16380000Y-7580000D01*
X16380000Y-7730000D02*
X16420000Y-7770000D01*
X16420000Y-7730000D02*
X16380000Y-7770000D01*
X16380000Y-7880000D02*
X16420000Y-7920000D01*
X16420000Y-7880000D02*
X16380000Y-7920000D01*
X16380000Y-8080000D02*
X16420000Y-8120000D01*
X16420000Y-8080000D02*
X16380000Y-8120000D01*
X16455000Y-7805000D02*
X16495000Y-7845000D01*
X16495000Y-7805000D02*
X16455000Y-7845000D01*
X16490000Y-7219000D02*
X16530000Y-7259000D01*
X16530000Y-7219000D02*
X16490000Y-7259000D01*
X16530000Y-6830000D02*
X16570000Y-6870000D01*
X16570000Y-6830000D02*
X16530000Y-6870000D01*
X16530000Y-7730000D02*
X16570000Y-7770000D01*
X16570000Y-7730000D02*
X16530000Y-7770000D01*
X16530000Y-7880000D02*
X16570000Y-7920000D01*
X16570000Y-7880000D02*
X16530000Y-7920000D01*
X16566200Y-7117400D02*
X16606200Y-7157400D01*
X16606200Y-7117400D02*
X16566200Y-7157400D01*
X16605000Y-7805000D02*
X16645000Y-7845000D01*
X16645000Y-7805000D02*
X16605000Y-7845000D01*
X16617000Y-5949000D02*
X16657000Y-5989000D01*
X16657000Y-5949000D02*
X16617000Y-5989000D01*
X16617000Y-6203000D02*
X16657000Y-6243000D01*
X16657000Y-6203000D02*
X16617000Y-6243000D01*
X16617000Y-6457000D02*
X16657000Y-6497000D01*
X16657000Y-6457000D02*
X16617000Y-6497000D01*
X16617000Y-6711000D02*
X16657000Y-6751000D01*
X16657000Y-6711000D02*
X16617000Y-6751000D01*
X16622500Y-5727500D02*
X16662500Y-5767500D01*
X16662500Y-5727500D02*
X16622500Y-5767500D01*
X16624950Y-7541250D02*
X16664950Y-7581250D01*
X16664950Y-7541250D02*
X16624950Y-7581250D01*
X16680000Y-7730000D02*
X16720000Y-7770000D01*
X16720000Y-7730000D02*
X16680000Y-7770000D01*
X16680000Y-7880000D02*
X16720000Y-7920000D01*
X16720000Y-7880000D02*
X16680000Y-7920000D01*
X16730000Y-8080000D02*
X16770000Y-8120000D01*
X16770000Y-8080000D02*
X16730000Y-8120000D01*
X16744000Y-6838000D02*
X16784000Y-6878000D01*
X16784000Y-6838000D02*
X16744000Y-6878000D01*
X16780000Y-7780000D02*
X16820000Y-7820000D01*
X16820000Y-7780000D02*
X16780000Y-7820000D01*
X16780000Y-7980000D02*
X16820000Y-8020000D01*
X16820000Y-7980000D02*
X16780000Y-8020000D01*
X16805000Y-7880000D02*
X16845000Y-7920000D01*
X16845000Y-7880000D02*
X16805000Y-7920000D01*
X16998000Y-6838000D02*
X17038000Y-6878000D01*
X17038000Y-6838000D02*
X16998000Y-6878000D01*
X17155000Y-7005000D02*
X17195000Y-7045000D01*
X17195000Y-7005000D02*
X17155000Y-7045000D01*
X17252000Y-6838000D02*
X17292000Y-6878000D01*
X17292000Y-6838000D02*
X17252000Y-6878000D01*
X17379000Y-7219000D02*
X17419000Y-7259000D01*
X17419000Y-7219000D02*
X17379000Y-7259000D01*
X17380000Y-7005000D02*
X17420000Y-7045000D01*
X17420000Y-7005000D02*
X17380000Y-7045000D01*
X17506000Y-6838000D02*
X17546000Y-6878000D01*
X17546000Y-6838000D02*
X17506000Y-6878000D01*
X17633000Y-7473000D02*
X17673000Y-7513000D01*
X17673000Y-7473000D02*
X17633000Y-7513000D01*
X17680000Y-7005000D02*
X17720000Y-7045000D01*
X17720000Y-7005000D02*
X17680000Y-7045000D01*
X17680000Y-7230000D02*
X17720000Y-7270000D01*
X17720000Y-7230000D02*
X17680000Y-7270000D01*
X17760000Y-6838000D02*
X17800000Y-6878000D01*
X17800000Y-6838000D02*
X17760000Y-6878000D01*
X17855000Y-7980000D02*
X17895000Y-8020000D01*
X17895000Y-7980000D02*
X17855000Y-8020000D01*
X17855000Y-8130000D02*
X17895000Y-8170000D01*
X17895000Y-8130000D02*
X17855000Y-8170000D01*
X17860000Y-7740000D02*
X17900000Y-7780000D01*
X17900000Y-7740000D02*
X17860000Y-7780000D01*
X17980000Y-7005000D02*
X18020000Y-7045000D01*
X18020000Y-7005000D02*
X17980000Y-7045000D01*
X17980000Y-7230000D02*
X18020000Y-7270000D01*
X18020000Y-7230000D02*
X17980000Y-7270000D01*
X17980000Y-7480000D02*
X18020000Y-7520000D01*
X18020000Y-7480000D02*
X17980000Y-7520000D01*
X18014000Y-6838000D02*
X18054000Y-6878000D01*
X18054000Y-6838000D02*
X18014000Y-6878000D01*
X18030000Y-7980000D02*
X18070000Y-8020000D01*
X18070000Y-7980000D02*
X18030000Y-8020000D01*
X18030000Y-8130000D02*
X18070000Y-8170000D01*
X18070000Y-8130000D02*
X18030000Y-8170000D01*
X18180000Y-7980000D02*
X18220000Y-8020000D01*
X18220000Y-7980000D02*
X18180000Y-8020000D01*
X18180000Y-8130000D02*
X18220000Y-8170000D01*
X18220000Y-8130000D02*
X18180000Y-8170000D01*
X18255000Y-7005000D02*
X18295000Y-7045000D01*
X18295000Y-7005000D02*
X18255000Y-7045000D01*
X18255000Y-7230000D02*
X18295000Y-7270000D01*
X18295000Y-7230000D02*
X18255000Y-7270000D01*
X18255000Y-7480000D02*
X18295000Y-7520000D01*
X18295000Y-7480000D02*
X18255000Y-7520000D01*
X18268000Y-6838000D02*
X18308000Y-6878000D01*
X18308000Y-6838000D02*
X18268000Y-6878000D01*
X18505000Y-7005000D02*
X18545000Y-7045000D01*
X18545000Y-7005000D02*
X18505000Y-7045000D01*
X18505000Y-7230000D02*
X18545000Y-7270000D01*
X18545000Y-7230000D02*
X18505000Y-7270000D01*
X18505000Y-7480000D02*
X18545000Y-7520000D01*
X18545000Y-7480000D02*
X18505000Y-7520000D01*
X18522000Y-6838000D02*
X18562000Y-6878000D01*
X18562000Y-6838000D02*
X18522000Y-6878000D01*
X18730000Y-6980000D02*
X18770000Y-7020000D01*
X18770000Y-6980000D02*
X18730000Y-7020000D01*
X18730000Y-7230000D02*
X18770000Y-7270000D01*
X18770000Y-7230000D02*
X18730000Y-7270000D01*
X18730000Y-7480000D02*
X18770000Y-7520000D01*
X18770000Y-7480000D02*
X18730000Y-7520000D01*
X18730000Y-7730000D02*
X18770000Y-7770000D01*
X18770000Y-7730000D02*
X18730000Y-7770000D01*
X18730000Y-7980000D02*
X18770000Y-8020000D01*
X18770000Y-7980000D02*
X18730000Y-8020000D01*
X12935000Y-5550000D02*
G75*
G03*
X12935000Y-5550000I-25000J0D01*
G01*
X12935000Y-10550000D02*
G75*
G03*
X12935000Y-10550000I-25000J0D01*
G01*
X13005294Y-5380294D02*
G75*
G03*
X13005294Y-5380294I-25000J0D01*
G01*
X13005294Y-5719706D02*
G75*
G03*
X13005294Y-5719706I-25000J0D01*
G01*
X13005294Y-10380294D02*
G75*
G03*
X13005294Y-10380294I-25000J0D01*
G01*
X13005294Y-10719706D02*
G75*
G03*
X13005294Y-10719706I-25000J0D01*
G01*
X13175000Y-5310000D02*
G75*
G03*
X13175000Y-5310000I-25000J0D01*
G01*
X13175000Y-5790000D02*
G75*
G03*
X13175000Y-5790000I-25000J0D01*
G01*
X13175000Y-10310000D02*
G75*
G03*
X13175000Y-10310000I-25000J0D01*
G01*
X13175000Y-10790000D02*
G75*
G03*
X13175000Y-10790000I-25000J0D01*
G01*
X13344706Y-5380294D02*
G75*
G03*
X13344706Y-5380294I-25000J0D01*
G01*
X13344706Y-5719706D02*
G75*
G03*
X13344706Y-5719706I-25000J0D01*
G01*
X13344706Y-10380294D02*
G75*
G03*
X13344706Y-10380294I-25000J0D01*
G01*
X13344706Y-10719706D02*
G75*
G03*
X13344706Y-10719706I-25000J0D01*
G01*
X13415000Y-5550000D02*
G75*
G03*
X13415000Y-5550000I-25000J0D01*
G01*
X13415000Y-10550000D02*
G75*
G03*
X13415000Y-10550000I-25000J0D01*
G01*
X15251000Y-12534000D02*
G75*
G03*
X15251000Y-12534000I-25000J0D01*
G01*
X15211000Y-12504000D02*
X15211000Y-12564000D01*
X15241000Y-12504000D02*
X15241000Y-12564000D01*
X15211000Y-12564000D02*
G75*
G03*
X15241000Y-12564000I15000J0D01*
G01*
X15241000Y-12504000D02*
G75*
G03*
X15211000Y-12504000I-15000J0D01*
G01*
X15287000Y-11939000D02*
G75*
G03*
X15287000Y-11939000I-25000J0D01*
G01*
X15247000Y-11909000D02*
X15247000Y-11969000D01*
X15277000Y-11909000D02*
X15277000Y-11969000D01*
X15247000Y-11969000D02*
G75*
G03*
X15277000Y-11969000I15000J0D01*
G01*
X15277000Y-11909000D02*
G75*
G03*
X15247000Y-11909000I-15000J0D01*
G01*
X16113000Y-11939000D02*
G75*
G03*
X16113000Y-11939000I-25000J0D01*
G01*
X16073000Y-11909000D02*
X16073000Y-11969000D01*
X16103000Y-11909000D02*
X16103000Y-11969000D01*
X16073000Y-11969000D02*
G75*
G03*
X16103000Y-11969000I15000J0D01*
G01*
X16103000Y-11909000D02*
G75*
G03*
X16073000Y-11909000I-15000J0D01*
G01*
X16149000Y-12534000D02*
G75*
G03*
X16149000Y-12534000I-25000J0D01*
G01*
X16109000Y-12504000D02*
X16109000Y-12564000D01*
X16139000Y-12504000D02*
X16139000Y-12564000D01*
X16109000Y-12564000D02*
G75*
G03*
X16139000Y-12564000I15000J0D01*
G01*
X16139000Y-12504000D02*
G75*
G03*
X16109000Y-12504000I-15000J0D01*
G01*
X17935000Y-5550000D02*
G75*
G03*
X17935000Y-5550000I-25000J0D01*
G01*
X17935000Y-10550000D02*
G75*
G03*
X17935000Y-10550000I-25000J0D01*
G01*
X18005294Y-5380294D02*
G75*
G03*
X18005294Y-5380294I-25000J0D01*
G01*
X18005294Y-5719706D02*
G75*
G03*
X18005294Y-5719706I-25000J0D01*
G01*
X18005294Y-10380294D02*
G75*
G03*
X18005294Y-10380294I-25000J0D01*
G01*
X18005294Y-10719706D02*
G75*
G03*
X18005294Y-10719706I-25000J0D01*
G01*
X18175000Y-5310000D02*
G75*
G03*
X18175000Y-5310000I-25000J0D01*
G01*
X18175000Y-5790000D02*
G75*
G03*
X18175000Y-5790000I-25000J0D01*
G01*
X18175000Y-10310000D02*
G75*
G03*
X18175000Y-10310000I-25000J0D01*
G01*
X18175000Y-10790000D02*
G75*
G03*
X18175000Y-10790000I-25000J0D01*
G01*
X18344706Y-5380294D02*
G75*
G03*
X18344706Y-5380294I-25000J0D01*
G01*
X18344706Y-5719706D02*
G75*
G03*
X18344706Y-5719706I-25000J0D01*
G01*
X18344706Y-10380294D02*
G75*
G03*
X18344706Y-10380294I-25000J0D01*
G01*
X18344706Y-10719706D02*
G75*
G03*
X18344706Y-10719706I-25000J0D01*
G01*
X18415000Y-5550000D02*
G75*
G03*
X18415000Y-5550000I-25000J0D01*
G01*
X18415000Y-10550000D02*
G75*
G03*
X18415000Y-10550000I-25000J0D01*
G01*
X13675000Y-8610000D02*
X13675000Y-8690000D01*
X13635000Y-8650000D02*
X13715000Y-8650000D01*
X13675000Y-8810000D02*
X13675000Y-8890000D01*
X13635000Y-8850000D02*
X13715000Y-8850000D01*
X13800000Y-5260000D02*
X13800000Y-5340000D01*
X13760000Y-5300000D02*
X13840000Y-5300000D01*
X13800000Y-5460000D02*
X13800000Y-5540000D01*
X13760000Y-5500000D02*
X13840000Y-5500000D01*
X13900000Y-6610000D02*
X13900000Y-6690000D01*
X13860000Y-6650000D02*
X13940000Y-6650000D01*
X13900000Y-6810000D02*
X13900000Y-6890000D01*
X13860000Y-6850000D02*
X13940000Y-6850000D01*
X13900000Y-7010000D02*
X13900000Y-7090000D01*
X13860000Y-7050000D02*
X13940000Y-7050000D01*
X14000000Y-5260000D02*
X14000000Y-5340000D01*
X13960000Y-5300000D02*
X14040000Y-5300000D01*
X14000000Y-5460000D02*
X14000000Y-5540000D01*
X13960000Y-5500000D02*
X14040000Y-5500000D01*
X14200000Y-5260000D02*
X14200000Y-5340000D01*
X14160000Y-5300000D02*
X14240000Y-5300000D01*
X14200000Y-5460000D02*
X14200000Y-5540000D01*
X14160000Y-5500000D02*
X14240000Y-5500000D01*
X14300000Y-6610000D02*
X14300000Y-6690000D01*
X14260000Y-6650000D02*
X14340000Y-6650000D01*
X14300000Y-6810000D02*
X14300000Y-6890000D01*
X14260000Y-6850000D02*
X14340000Y-6850000D01*
X14300000Y-7010000D02*
X14300000Y-7090000D01*
X14260000Y-7050000D02*
X14340000Y-7050000D01*
X14400000Y-5260000D02*
X14400000Y-5340000D01*
X14360000Y-5300000D02*
X14440000Y-5300000D01*
X14400000Y-5460000D02*
X14400000Y-5540000D01*
X14360000Y-5500000D02*
X14440000Y-5500000D01*
X14600000Y-5260000D02*
X14600000Y-5340000D01*
X14560000Y-5300000D02*
X14640000Y-5300000D01*
X14600000Y-5460000D02*
X14600000Y-5540000D01*
X14560000Y-5500000D02*
X14640000Y-5500000D01*
X14700000Y-6610000D02*
X14700000Y-6690000D01*
X14660000Y-6650000D02*
X14740000Y-6650000D01*
X14700000Y-6810000D02*
X14700000Y-6890000D01*
X14660000Y-6850000D02*
X14740000Y-6850000D01*
X14700000Y-7010000D02*
X14700000Y-7090000D01*
X14660000Y-7050000D02*
X14740000Y-7050000D01*
X15250000Y-6610000D02*
X15250000Y-6690000D01*
X15210000Y-6650000D02*
X15290000Y-6650000D01*
X15250000Y-6810000D02*
X15250000Y-6890000D01*
X15210000Y-6850000D02*
X15290000Y-6850000D01*
X15250000Y-7010000D02*
X15250000Y-7090000D01*
X15210000Y-7050000D02*
X15290000Y-7050000D01*
X15950000Y-8510000D02*
X15950000Y-8590000D01*
X15910000Y-8550000D02*
X15990000Y-8550000D01*
X15950000Y-8710000D02*
X15950000Y-8790000D01*
X15910000Y-8750000D02*
X15990000Y-8750000D01*
X15950000Y-8910000D02*
X15950000Y-8990000D01*
X15910000Y-8950000D02*
X15990000Y-8950000D01*
X15950000Y-9110000D02*
X15950000Y-9190000D01*
X15910000Y-9150000D02*
X15990000Y-9150000D01*
X15950000Y-9310000D02*
X15950000Y-9390000D01*
X15910000Y-9350000D02*
X15990000Y-9350000D01*
X16150000Y-8510000D02*
X16150000Y-8590000D01*
X16110000Y-8550000D02*
X16190000Y-8550000D01*
X16150000Y-8710000D02*
X16150000Y-8790000D01*
X16110000Y-8750000D02*
X16190000Y-8750000D01*
X16150000Y-8910000D02*
X16150000Y-8990000D01*
X16110000Y-8950000D02*
X16190000Y-8950000D01*
X16150000Y-9110000D02*
X16150000Y-9190000D01*
X16110000Y-9150000D02*
X16190000Y-9150000D01*
X16150000Y-9310000D02*
X16150000Y-9390000D01*
X16110000Y-9350000D02*
X16190000Y-9350000D01*
X16582000Y-8077000D02*
X16582000Y-8157000D01*
X16542000Y-8117000D02*
X16622000Y-8117000D01*
X16582000Y-8277000D02*
X16582000Y-8357000D01*
X16542000Y-8317000D02*
X16622000Y-8317000D01*
X18532962Y-8043962D02*
X18532962Y-7952038D01*
X18441038Y-7952038D01*
X18441038Y-8043962D01*
X18532962Y-8043962D01*
X18532962Y-8543962D02*
X18532962Y-8452038D01*
X18441038Y-8452038D01*
X18441038Y-8543962D01*
X18532962Y-8543962D01*
X13150000Y-5710000D02*
X13310000Y-5550000D01*
X13150000Y-5390000D01*
X12990000Y-5550000D01*
X13150000Y-5710000D01*
X13150000Y-10710000D02*
X13310000Y-10550000D01*
X13150000Y-10390000D01*
X12990000Y-10550000D01*
X13150000Y-10710000D01*
X18150000Y-5710000D02*
X18310000Y-5550000D01*
X18150000Y-5390000D01*
X17990000Y-5550000D01*
X18150000Y-5710000D01*
X18150000Y-10710000D02*
X18310000Y-10550000D01*
X18150000Y-10390000D01*
X17990000Y-10550000D01*
X18150000Y-10710000D01*
D12*
X11133928Y-13318214D02*
X11133928Y-13018214D01*
X11205357Y-13018214D01*
X11248214Y-13032500D01*
X11276786Y-13061071D01*
X11291071Y-13089643D01*
X11305357Y-13146786D01*
X11305357Y-13189643D01*
X11291071Y-13246786D01*
X11276786Y-13275357D01*
X11248214Y-13303929D01*
X11205357Y-13318214D01*
X11133928Y-13318214D01*
X11433928Y-13318214D02*
X11433928Y-13118214D01*
X11433928Y-13175357D02*
X11448214Y-13146786D01*
X11462500Y-13132500D01*
X11491071Y-13118214D01*
X11519643Y-13118214D01*
X11619643Y-13318214D02*
X11619643Y-13118214D01*
X11619643Y-13018214D02*
X11605357Y-13032500D01*
X11619643Y-13046786D01*
X11633928Y-13032500D01*
X11619643Y-13018214D01*
X11619643Y-13046786D01*
X11805357Y-13318214D02*
X11776786Y-13303929D01*
X11762500Y-13275357D01*
X11762500Y-13018214D01*
X11962500Y-13318214D02*
X11933928Y-13303929D01*
X11919643Y-13275357D01*
X11919643Y-13018214D01*
X12305357Y-13318214D02*
X12305357Y-13018214D01*
X12405357Y-13232500D01*
X12505357Y-13018214D01*
X12505357Y-13318214D01*
X12776786Y-13318214D02*
X12776786Y-13161071D01*
X12762500Y-13132500D01*
X12733928Y-13118214D01*
X12676786Y-13118214D01*
X12648214Y-13132500D01*
X12776786Y-13303929D02*
X12748214Y-13318214D01*
X12676786Y-13318214D01*
X12648214Y-13303929D01*
X12633928Y-13275357D01*
X12633928Y-13246786D01*
X12648214Y-13218214D01*
X12676786Y-13203929D01*
X12748214Y-13203929D01*
X12776786Y-13189643D01*
X12919643Y-13118214D02*
X12919643Y-13418214D01*
X12919643Y-13132500D02*
X12948214Y-13118214D01*
X13005357Y-13118214D01*
X13033928Y-13132500D01*
X13048214Y-13146786D01*
X13062500Y-13175357D01*
X13062500Y-13261071D01*
X13048214Y-13289643D01*
X13033928Y-13303929D01*
X13005357Y-13318214D01*
X12948214Y-13318214D01*
X12919643Y-13303929D01*
X13191071Y-13289643D02*
X13205357Y-13303929D01*
X13191071Y-13318214D01*
X13176786Y-13303929D01*
X13191071Y-13289643D01*
X13191071Y-13318214D01*
X13191071Y-13132500D02*
X13205357Y-13146786D01*
X13191071Y-13161071D01*
X13176786Y-13146786D01*
X13191071Y-13132500D01*
X13191071Y-13161071D01*
X10807500Y-13792500D02*
X10847500Y-13832500D01*
X10847500Y-13792500D02*
X10807500Y-13832500D01*
X11191071Y-13648214D02*
X11219643Y-13648214D01*
X11248214Y-13662500D01*
X11262500Y-13676786D01*
X11276786Y-13705357D01*
X11291071Y-13762500D01*
X11291071Y-13833929D01*
X11276786Y-13891071D01*
X11262500Y-13919643D01*
X11248214Y-13933929D01*
X11219643Y-13948214D01*
X11191071Y-13948214D01*
X11162500Y-13933929D01*
X11148214Y-13919643D01*
X11133928Y-13891071D01*
X11119643Y-13833929D01*
X11119643Y-13762500D01*
X11133928Y-13705357D01*
X11148214Y-13676786D01*
X11162500Y-13662500D01*
X11191071Y-13648214D01*
X11419643Y-13919643D02*
X11433928Y-13933929D01*
X11419643Y-13948214D01*
X11405357Y-13933929D01*
X11419643Y-13919643D01*
X11419643Y-13948214D01*
X11691071Y-13748214D02*
X11691071Y-13948214D01*
X11619643Y-13633929D02*
X11548214Y-13848214D01*
X11733928Y-13848214D01*
X11905357Y-13648214D02*
X11933928Y-13648214D01*
X11962500Y-13662500D01*
X11976786Y-13676786D01*
X11991071Y-13705357D01*
X12005357Y-13762500D01*
X12005357Y-13833929D01*
X11991071Y-13891071D01*
X11976786Y-13919643D01*
X11962500Y-13933929D01*
X11933928Y-13948214D01*
X11905357Y-13948214D01*
X11876786Y-13933929D01*
X11862500Y-13919643D01*
X11848214Y-13891071D01*
X11833928Y-13833929D01*
X11833928Y-13762500D01*
X11848214Y-13705357D01*
X11862500Y-13676786D01*
X11876786Y-13662500D01*
X11905357Y-13648214D01*
X12191071Y-13648214D02*
X12219643Y-13648214D01*
X12248214Y-13662500D01*
X12262500Y-13676786D01*
X12276786Y-13705357D01*
X12291071Y-13762500D01*
X12291071Y-13833929D01*
X12276786Y-13891071D01*
X12262500Y-13919643D01*
X12248214Y-13933929D01*
X12219643Y-13948214D01*
X12191071Y-13948214D01*
X12162500Y-13933929D01*
X12148214Y-13919643D01*
X12133928Y-13891071D01*
X12119643Y-13833929D01*
X12119643Y-13762500D01*
X12133928Y-13705357D01*
X12148214Y-13676786D01*
X12162500Y-13662500D01*
X12191071Y-13648214D01*
X12419643Y-13948214D02*
X12419643Y-13748214D01*
X12419643Y-13776786D02*
X12433928Y-13762500D01*
X12462500Y-13748214D01*
X12505357Y-13748214D01*
X12533928Y-13762500D01*
X12548214Y-13791071D01*
X12548214Y-13948214D01*
X12548214Y-13791071D02*
X12562500Y-13762500D01*
X12591071Y-13748214D01*
X12633928Y-13748214D01*
X12662500Y-13762500D01*
X12676786Y-13791071D01*
X12676786Y-13948214D01*
X12819643Y-13948214D02*
X12819643Y-13748214D01*
X12819643Y-13776786D02*
X12833928Y-13762500D01*
X12862500Y-13748214D01*
X12905357Y-13748214D01*
X12933928Y-13762500D01*
X12948214Y-13791071D01*
X12948214Y-13948214D01*
X12948214Y-13791071D02*
X12962500Y-13762500D01*
X12991071Y-13748214D01*
X13033928Y-13748214D01*
X13062500Y-13762500D01*
X13076786Y-13791071D01*
X13076786Y-13948214D01*
X13662500Y-13633929D02*
X13405357Y-14019643D01*
X14048214Y-13648214D02*
X14076786Y-13648214D01*
X14105357Y-13662500D01*
X14119643Y-13676786D01*
X14133928Y-13705357D01*
X14148214Y-13762500D01*
X14148214Y-13833929D01*
X14133928Y-13891071D01*
X14119643Y-13919643D01*
X14105357Y-13933929D01*
X14076786Y-13948214D01*
X14048214Y-13948214D01*
X14019643Y-13933929D01*
X14005357Y-13919643D01*
X13991071Y-13891071D01*
X13976786Y-13833929D01*
X13976786Y-13762500D01*
X13991071Y-13705357D01*
X14005357Y-13676786D01*
X14019643Y-13662500D01*
X14048214Y-13648214D01*
X14276786Y-13919643D02*
X14291071Y-13933929D01*
X14276786Y-13948214D01*
X14262500Y-13933929D01*
X14276786Y-13919643D01*
X14276786Y-13948214D01*
X14476786Y-13648214D02*
X14505357Y-13648214D01*
X14533928Y-13662500D01*
X14548214Y-13676786D01*
X14562500Y-13705357D01*
X14576786Y-13762500D01*
X14576786Y-13833929D01*
X14562500Y-13891071D01*
X14548214Y-13919643D01*
X14533928Y-13933929D01*
X14505357Y-13948214D01*
X14476786Y-13948214D01*
X14448214Y-13933929D01*
X14433928Y-13919643D01*
X14419643Y-13891071D01*
X14405357Y-13833929D01*
X14405357Y-13762500D01*
X14419643Y-13705357D01*
X14433928Y-13676786D01*
X14448214Y-13662500D01*
X14476786Y-13648214D01*
X14862500Y-13948214D02*
X14691071Y-13948214D01*
X14776786Y-13948214D02*
X14776786Y-13648214D01*
X14748214Y-13691071D01*
X14719643Y-13719643D01*
X14691071Y-13733929D01*
X15133928Y-13648214D02*
X14991071Y-13648214D01*
X14976786Y-13791071D01*
X14991071Y-13776786D01*
X15019643Y-13762500D01*
X15091071Y-13762500D01*
X15119643Y-13776786D01*
X15133928Y-13791071D01*
X15148214Y-13819643D01*
X15148214Y-13891071D01*
X15133928Y-13919643D01*
X15119643Y-13933929D01*
X15091071Y-13948214D01*
X15019643Y-13948214D01*
X14991071Y-13933929D01*
X14976786Y-13919643D01*
X15248214Y-13648214D02*
X15448214Y-13648214D01*
X15319643Y-13948214D01*
X15548214Y-13648214D02*
X15548214Y-13705357D01*
X15662500Y-13648214D02*
X15662500Y-13705357D01*
X16105357Y-14062500D02*
X16091071Y-14048214D01*
X16062500Y-14005357D01*
X16048214Y-13976786D01*
X16033928Y-13933929D01*
X16019643Y-13862500D01*
X16019643Y-13805357D01*
X16033928Y-13733929D01*
X16048214Y-13691071D01*
X16062500Y-13662500D01*
X16091071Y-13619643D01*
X16105357Y-13605357D01*
X16376786Y-13948214D02*
X16205357Y-13948214D01*
X16291071Y-13948214D02*
X16291071Y-13648214D01*
X16262500Y-13691071D01*
X16233928Y-13719643D01*
X16205357Y-13733929D01*
X16491071Y-13676786D02*
X16505357Y-13662500D01*
X16533928Y-13648214D01*
X16605357Y-13648214D01*
X16633928Y-13662500D01*
X16648214Y-13676786D01*
X16662500Y-13705357D01*
X16662500Y-13733929D01*
X16648214Y-13776786D01*
X16476786Y-13948214D01*
X16662500Y-13948214D01*
X16762500Y-13648214D02*
X16962500Y-13648214D01*
X16833928Y-13948214D01*
X17305357Y-13948214D02*
X17305357Y-13648214D01*
X17433928Y-13948214D02*
X17433928Y-13791071D01*
X17419643Y-13762500D01*
X17391071Y-13748214D01*
X17348214Y-13748214D01*
X17319643Y-13762500D01*
X17305357Y-13776786D01*
X17619643Y-13948214D02*
X17591071Y-13933929D01*
X17576786Y-13919643D01*
X17562500Y-13891071D01*
X17562500Y-13805357D01*
X17576786Y-13776786D01*
X17591071Y-13762500D01*
X17619643Y-13748214D01*
X17662500Y-13748214D01*
X17691071Y-13762500D01*
X17705357Y-13776786D01*
X17719643Y-13805357D01*
X17719643Y-13891071D01*
X17705357Y-13919643D01*
X17691071Y-13933929D01*
X17662500Y-13948214D01*
X17619643Y-13948214D01*
X17891071Y-13948214D02*
X17862500Y-13933929D01*
X17848214Y-13905357D01*
X17848214Y-13648214D01*
X18119643Y-13933929D02*
X18091071Y-13948214D01*
X18033928Y-13948214D01*
X18005357Y-13933929D01*
X17991071Y-13905357D01*
X17991071Y-13791071D01*
X18005357Y-13762500D01*
X18033928Y-13748214D01*
X18091071Y-13748214D01*
X18119643Y-13762500D01*
X18133928Y-13791071D01*
X18133928Y-13819643D01*
X17991071Y-13848214D01*
X18248214Y-13933929D02*
X18276786Y-13948214D01*
X18333928Y-13948214D01*
X18362500Y-13933929D01*
X18376786Y-13905357D01*
X18376786Y-13891071D01*
X18362500Y-13862500D01*
X18333928Y-13848214D01*
X18291071Y-13848214D01*
X18262500Y-13833929D01*
X18248214Y-13805357D01*
X18248214Y-13791071D01*
X18262500Y-13762500D01*
X18291071Y-13748214D01*
X18333928Y-13748214D01*
X18362500Y-13762500D01*
X18476786Y-14062500D02*
X18491071Y-14048214D01*
X18519643Y-14005357D01*
X18533928Y-13976786D01*
X18548214Y-13933929D01*
X18562500Y-13862500D01*
X18562500Y-13805357D01*
X18548214Y-13733929D01*
X18533928Y-13691071D01*
X18519643Y-13662500D01*
X18491071Y-13619643D01*
X18476786Y-13605357D01*
X10847500Y-14208500D02*
G75*
G03*
X10847500Y-14208500I-25000J0D01*
G01*
X11191071Y-14044214D02*
X11219643Y-14044214D01*
X11248214Y-14058500D01*
X11262500Y-14072786D01*
X11276786Y-14101357D01*
X11291071Y-14158500D01*
X11291071Y-14229929D01*
X11276786Y-14287071D01*
X11262500Y-14315643D01*
X11248214Y-14329929D01*
X11219643Y-14344214D01*
X11191071Y-14344214D01*
X11162500Y-14329929D01*
X11148214Y-14315643D01*
X11133928Y-14287071D01*
X11119643Y-14229929D01*
X11119643Y-14158500D01*
X11133928Y-14101357D01*
X11148214Y-14072786D01*
X11162500Y-14058500D01*
X11191071Y-14044214D01*
X11419643Y-14315643D02*
X11433928Y-14329929D01*
X11419643Y-14344214D01*
X11405357Y-14329929D01*
X11419643Y-14315643D01*
X11419643Y-14344214D01*
X11705357Y-14044214D02*
X11562500Y-14044214D01*
X11548214Y-14187071D01*
X11562500Y-14172786D01*
X11591071Y-14158500D01*
X11662500Y-14158500D01*
X11691071Y-14172786D01*
X11705357Y-14187071D01*
X11719643Y-14215643D01*
X11719643Y-14287071D01*
X11705357Y-14315643D01*
X11691071Y-14329929D01*
X11662500Y-14344214D01*
X11591071Y-14344214D01*
X11562500Y-14329929D01*
X11548214Y-14315643D01*
X11905357Y-14044214D02*
X11933928Y-14044214D01*
X11962500Y-14058500D01*
X11976786Y-14072786D01*
X11991071Y-14101357D01*
X12005357Y-14158500D01*
X12005357Y-14229929D01*
X11991071Y-14287071D01*
X11976786Y-14315643D01*
X11962500Y-14329929D01*
X11933928Y-14344214D01*
X11905357Y-14344214D01*
X11876786Y-14329929D01*
X11862500Y-14315643D01*
X11848214Y-14287071D01*
X11833928Y-14229929D01*
X11833928Y-14158500D01*
X11848214Y-14101357D01*
X11862500Y-14072786D01*
X11876786Y-14058500D01*
X11905357Y-14044214D01*
X12191071Y-14044214D02*
X12219643Y-14044214D01*
X12248214Y-14058500D01*
X12262500Y-14072786D01*
X12276786Y-14101357D01*
X12291071Y-14158500D01*
X12291071Y-14229929D01*
X12276786Y-14287071D01*
X12262500Y-14315643D01*
X12248214Y-14329929D01*
X12219643Y-14344214D01*
X12191071Y-14344214D01*
X12162500Y-14329929D01*
X12148214Y-14315643D01*
X12133928Y-14287071D01*
X12119643Y-14229929D01*
X12119643Y-14158500D01*
X12133928Y-14101357D01*
X12148214Y-14072786D01*
X12162500Y-14058500D01*
X12191071Y-14044214D01*
X12419643Y-14344214D02*
X12419643Y-14144214D01*
X12419643Y-14172786D02*
X12433928Y-14158500D01*
X12462500Y-14144214D01*
X12505357Y-14144214D01*
X12533928Y-14158500D01*
X12548214Y-14187071D01*
X12548214Y-14344214D01*
X12548214Y-14187071D02*
X12562500Y-14158500D01*
X12591071Y-14144214D01*
X12633928Y-14144214D01*
X12662500Y-14158500D01*
X12676786Y-14187071D01*
X12676786Y-14344214D01*
X12819643Y-14344214D02*
X12819643Y-14144214D01*
X12819643Y-14172786D02*
X12833928Y-14158500D01*
X12862500Y-14144214D01*
X12905357Y-14144214D01*
X12933928Y-14158500D01*
X12948214Y-14187071D01*
X12948214Y-14344214D01*
X12948214Y-14187071D02*
X12962500Y-14158500D01*
X12991071Y-14144214D01*
X13033928Y-14144214D01*
X13062500Y-14158500D01*
X13076786Y-14187071D01*
X13076786Y-14344214D01*
X13662500Y-14029929D02*
X13405357Y-14415643D01*
X14048214Y-14044214D02*
X14076786Y-14044214D01*
X14105357Y-14058500D01*
X14119643Y-14072786D01*
X14133928Y-14101357D01*
X14148214Y-14158500D01*
X14148214Y-14229929D01*
X14133928Y-14287071D01*
X14119643Y-14315643D01*
X14105357Y-14329929D01*
X14076786Y-14344214D01*
X14048214Y-14344214D01*
X14019643Y-14329929D01*
X14005357Y-14315643D01*
X13991071Y-14287071D01*
X13976786Y-14229929D01*
X13976786Y-14158500D01*
X13991071Y-14101357D01*
X14005357Y-14072786D01*
X14019643Y-14058500D01*
X14048214Y-14044214D01*
X14276786Y-14315643D02*
X14291071Y-14329929D01*
X14276786Y-14344214D01*
X14262500Y-14329929D01*
X14276786Y-14315643D01*
X14276786Y-14344214D01*
X14476786Y-14044214D02*
X14505357Y-14044214D01*
X14533928Y-14058500D01*
X14548214Y-14072786D01*
X14562500Y-14101357D01*
X14576786Y-14158500D01*
X14576786Y-14229929D01*
X14562500Y-14287071D01*
X14548214Y-14315643D01*
X14533928Y-14329929D01*
X14505357Y-14344214D01*
X14476786Y-14344214D01*
X14448214Y-14329929D01*
X14433928Y-14315643D01*
X14419643Y-14287071D01*
X14405357Y-14229929D01*
X14405357Y-14158500D01*
X14419643Y-14101357D01*
X14433928Y-14072786D01*
X14448214Y-14058500D01*
X14476786Y-14044214D01*
X14862500Y-14344214D02*
X14691071Y-14344214D01*
X14776786Y-14344214D02*
X14776786Y-14044214D01*
X14748214Y-14087071D01*
X14719643Y-14115643D01*
X14691071Y-14129929D01*
X15005357Y-14344214D02*
X15062500Y-14344214D01*
X15091071Y-14329929D01*
X15105357Y-14315643D01*
X15133928Y-14272786D01*
X15148214Y-14215643D01*
X15148214Y-14101357D01*
X15133928Y-14072786D01*
X15119643Y-14058500D01*
X15091071Y-14044214D01*
X15033928Y-14044214D01*
X15005357Y-14058500D01*
X14991071Y-14072786D01*
X14976786Y-14101357D01*
X14976786Y-14172786D01*
X14991071Y-14201357D01*
X15005357Y-14215643D01*
X15033928Y-14229929D01*
X15091071Y-14229929D01*
X15119643Y-14215643D01*
X15133928Y-14201357D01*
X15148214Y-14172786D01*
X15248214Y-14044214D02*
X15448214Y-14044214D01*
X15319643Y-14344214D01*
X15548214Y-14044214D02*
X15548214Y-14101357D01*
X15662500Y-14044214D02*
X15662500Y-14101357D01*
X16105357Y-14458500D02*
X16091071Y-14444214D01*
X16062500Y-14401357D01*
X16048214Y-14372786D01*
X16033928Y-14329929D01*
X16019643Y-14258500D01*
X16019643Y-14201357D01*
X16033928Y-14129929D01*
X16048214Y-14087071D01*
X16062500Y-14058500D01*
X16091071Y-14015643D01*
X16105357Y-14001357D01*
X16191071Y-14044214D02*
X16376786Y-14044214D01*
X16276786Y-14158500D01*
X16319643Y-14158500D01*
X16348214Y-14172786D01*
X16362500Y-14187071D01*
X16376786Y-14215643D01*
X16376786Y-14287071D01*
X16362500Y-14315643D01*
X16348214Y-14329929D01*
X16319643Y-14344214D01*
X16233928Y-14344214D01*
X16205357Y-14329929D01*
X16191071Y-14315643D01*
X16491071Y-14072786D02*
X16505357Y-14058500D01*
X16533928Y-14044214D01*
X16605357Y-14044214D01*
X16633928Y-14058500D01*
X16648214Y-14072786D01*
X16662500Y-14101357D01*
X16662500Y-14129929D01*
X16648214Y-14172786D01*
X16476786Y-14344214D01*
X16662500Y-14344214D01*
X17019643Y-14344214D02*
X17019643Y-14044214D01*
X17148214Y-14344214D02*
X17148214Y-14187071D01*
X17133928Y-14158500D01*
X17105357Y-14144214D01*
X17062500Y-14144214D01*
X17033928Y-14158500D01*
X17019643Y-14172786D01*
X17333928Y-14344214D02*
X17305357Y-14329929D01*
X17291071Y-14315643D01*
X17276786Y-14287071D01*
X17276786Y-14201357D01*
X17291071Y-14172786D01*
X17305357Y-14158500D01*
X17333928Y-14144214D01*
X17376786Y-14144214D01*
X17405357Y-14158500D01*
X17419643Y-14172786D01*
X17433928Y-14201357D01*
X17433928Y-14287071D01*
X17419643Y-14315643D01*
X17405357Y-14329929D01*
X17376786Y-14344214D01*
X17333928Y-14344214D01*
X17605357Y-14344214D02*
X17576786Y-14329929D01*
X17562500Y-14301357D01*
X17562500Y-14044214D01*
X17833928Y-14329929D02*
X17805357Y-14344214D01*
X17748214Y-14344214D01*
X17719643Y-14329929D01*
X17705357Y-14301357D01*
X17705357Y-14187071D01*
X17719643Y-14158500D01*
X17748214Y-14144214D01*
X17805357Y-14144214D01*
X17833928Y-14158500D01*
X17848214Y-14187071D01*
X17848214Y-14215643D01*
X17705357Y-14244214D01*
X17962500Y-14329929D02*
X17991071Y-14344214D01*
X18048214Y-14344214D01*
X18076786Y-14329929D01*
X18091071Y-14301357D01*
X18091071Y-14287071D01*
X18076786Y-14258500D01*
X18048214Y-14244214D01*
X18005357Y-14244214D01*
X17976786Y-14229929D01*
X17962500Y-14201357D01*
X17962500Y-14187071D01*
X17976786Y-14158500D01*
X18005357Y-14144214D01*
X18048214Y-14144214D01*
X18076786Y-14158500D01*
X18448214Y-14229929D02*
X18676786Y-14229929D01*
X18562500Y-14344214D02*
X18562500Y-14115643D01*
X19176786Y-14144214D02*
X19176786Y-14344214D01*
X19105357Y-14029929D02*
X19033928Y-14244214D01*
X19219643Y-14244214D01*
X19548214Y-14329929D02*
X19576786Y-14344214D01*
X19633928Y-14344214D01*
X19662500Y-14329929D01*
X19676786Y-14301357D01*
X19676786Y-14287071D01*
X19662500Y-14258500D01*
X19633928Y-14244214D01*
X19591071Y-14244214D01*
X19562500Y-14229929D01*
X19548214Y-14201357D01*
X19548214Y-14187071D01*
X19562500Y-14158500D01*
X19591071Y-14144214D01*
X19633928Y-14144214D01*
X19662500Y-14158500D01*
X19848214Y-14344214D02*
X19819643Y-14329929D01*
X19805357Y-14301357D01*
X19805357Y-14044214D01*
X20005357Y-14344214D02*
X19976786Y-14329929D01*
X19962500Y-14315643D01*
X19948214Y-14287071D01*
X19948214Y-14201357D01*
X19962500Y-14172786D01*
X19976786Y-14158500D01*
X20005357Y-14144214D01*
X20048214Y-14144214D01*
X20076786Y-14158500D01*
X20091071Y-14172786D01*
X20105357Y-14201357D01*
X20105357Y-14287071D01*
X20091071Y-14315643D01*
X20076786Y-14329929D01*
X20048214Y-14344214D01*
X20005357Y-14344214D01*
X20191071Y-14144214D02*
X20305357Y-14144214D01*
X20233928Y-14044214D02*
X20233928Y-14301357D01*
X20248214Y-14329929D01*
X20276786Y-14344214D01*
X20305357Y-14344214D01*
X20391071Y-14329929D02*
X20419643Y-14344214D01*
X20476786Y-14344214D01*
X20505357Y-14329929D01*
X20519643Y-14301357D01*
X20519643Y-14287071D01*
X20505357Y-14258500D01*
X20476786Y-14244214D01*
X20433928Y-14244214D01*
X20405357Y-14229929D01*
X20391071Y-14201357D01*
X20391071Y-14187071D01*
X20405357Y-14158500D01*
X20433928Y-14144214D01*
X20476786Y-14144214D01*
X20505357Y-14158500D01*
X20619643Y-14458500D02*
X20633928Y-14444214D01*
X20662500Y-14401357D01*
X20676786Y-14372786D01*
X20691071Y-14329929D01*
X20705357Y-14258500D01*
X20705357Y-14201357D01*
X20691071Y-14129929D01*
X20676786Y-14087071D01*
X20662500Y-14058500D01*
X20633928Y-14015643D01*
X20619643Y-14001357D01*
X10807500Y-14564500D02*
X10807500Y-14644500D01*
X10767500Y-14604500D02*
X10847500Y-14604500D01*
X11191071Y-14440214D02*
X11219643Y-14440214D01*
X11248214Y-14454500D01*
X11262500Y-14468786D01*
X11276786Y-14497357D01*
X11291071Y-14554500D01*
X11291071Y-14625929D01*
X11276786Y-14683071D01*
X11262500Y-14711643D01*
X11248214Y-14725929D01*
X11219643Y-14740214D01*
X11191071Y-14740214D01*
X11162500Y-14725929D01*
X11148214Y-14711643D01*
X11133928Y-14683071D01*
X11119643Y-14625929D01*
X11119643Y-14554500D01*
X11133928Y-14497357D01*
X11148214Y-14468786D01*
X11162500Y-14454500D01*
X11191071Y-14440214D01*
X11419643Y-14711643D02*
X11433928Y-14725929D01*
X11419643Y-14740214D01*
X11405357Y-14725929D01*
X11419643Y-14711643D01*
X11419643Y-14740214D01*
X11605357Y-14568786D02*
X11576786Y-14554500D01*
X11562500Y-14540214D01*
X11548214Y-14511643D01*
X11548214Y-14497357D01*
X11562500Y-14468786D01*
X11576786Y-14454500D01*
X11605357Y-14440214D01*
X11662500Y-14440214D01*
X11691071Y-14454500D01*
X11705357Y-14468786D01*
X11719643Y-14497357D01*
X11719643Y-14511643D01*
X11705357Y-14540214D01*
X11691071Y-14554500D01*
X11662500Y-14568786D01*
X11605357Y-14568786D01*
X11576786Y-14583071D01*
X11562500Y-14597357D01*
X11548214Y-14625929D01*
X11548214Y-14683071D01*
X11562500Y-14711643D01*
X11576786Y-14725929D01*
X11605357Y-14740214D01*
X11662500Y-14740214D01*
X11691071Y-14725929D01*
X11705357Y-14711643D01*
X11719643Y-14683071D01*
X11719643Y-14625929D01*
X11705357Y-14597357D01*
X11691071Y-14583071D01*
X11662500Y-14568786D01*
X11905357Y-14440214D02*
X11933928Y-14440214D01*
X11962500Y-14454500D01*
X11976786Y-14468786D01*
X11991071Y-14497357D01*
X12005357Y-14554500D01*
X12005357Y-14625929D01*
X11991071Y-14683071D01*
X11976786Y-14711643D01*
X11962500Y-14725929D01*
X11933928Y-14740214D01*
X11905357Y-14740214D01*
X11876786Y-14725929D01*
X11862500Y-14711643D01*
X11848214Y-14683071D01*
X11833928Y-14625929D01*
X11833928Y-14554500D01*
X11848214Y-14497357D01*
X11862500Y-14468786D01*
X11876786Y-14454500D01*
X11905357Y-14440214D01*
X12191071Y-14440214D02*
X12219643Y-14440214D01*
X12248214Y-14454500D01*
X12262500Y-14468786D01*
X12276786Y-14497357D01*
X12291071Y-14554500D01*
X12291071Y-14625929D01*
X12276786Y-14683071D01*
X12262500Y-14711643D01*
X12248214Y-14725929D01*
X12219643Y-14740214D01*
X12191071Y-14740214D01*
X12162500Y-14725929D01*
X12148214Y-14711643D01*
X12133928Y-14683071D01*
X12119643Y-14625929D01*
X12119643Y-14554500D01*
X12133928Y-14497357D01*
X12148214Y-14468786D01*
X12162500Y-14454500D01*
X12191071Y-14440214D01*
X12419643Y-14740214D02*
X12419643Y-14540214D01*
X12419643Y-14568786D02*
X12433928Y-14554500D01*
X12462500Y-14540214D01*
X12505357Y-14540214D01*
X12533928Y-14554500D01*
X12548214Y-14583071D01*
X12548214Y-14740214D01*
X12548214Y-14583071D02*
X12562500Y-14554500D01*
X12591071Y-14540214D01*
X12633928Y-14540214D01*
X12662500Y-14554500D01*
X12676786Y-14583071D01*
X12676786Y-14740214D01*
X12819643Y-14740214D02*
X12819643Y-14540214D01*
X12819643Y-14568786D02*
X12833928Y-14554500D01*
X12862500Y-14540214D01*
X12905357Y-14540214D01*
X12933928Y-14554500D01*
X12948214Y-14583071D01*
X12948214Y-14740214D01*
X12948214Y-14583071D02*
X12962500Y-14554500D01*
X12991071Y-14540214D01*
X13033928Y-14540214D01*
X13062500Y-14554500D01*
X13076786Y-14583071D01*
X13076786Y-14740214D01*
X13662500Y-14425929D02*
X13405357Y-14811643D01*
X14048214Y-14440214D02*
X14076786Y-14440214D01*
X14105357Y-14454500D01*
X14119643Y-14468786D01*
X14133928Y-14497357D01*
X14148214Y-14554500D01*
X14148214Y-14625929D01*
X14133928Y-14683071D01*
X14119643Y-14711643D01*
X14105357Y-14725929D01*
X14076786Y-14740214D01*
X14048214Y-14740214D01*
X14019643Y-14725929D01*
X14005357Y-14711643D01*
X13991071Y-14683071D01*
X13976786Y-14625929D01*
X13976786Y-14554500D01*
X13991071Y-14497357D01*
X14005357Y-14468786D01*
X14019643Y-14454500D01*
X14048214Y-14440214D01*
X14276786Y-14711643D02*
X14291071Y-14725929D01*
X14276786Y-14740214D01*
X14262500Y-14725929D01*
X14276786Y-14711643D01*
X14276786Y-14740214D01*
X14476786Y-14440214D02*
X14505357Y-14440214D01*
X14533928Y-14454500D01*
X14548214Y-14468786D01*
X14562500Y-14497357D01*
X14576786Y-14554500D01*
X14576786Y-14625929D01*
X14562500Y-14683071D01*
X14548214Y-14711643D01*
X14533928Y-14725929D01*
X14505357Y-14740214D01*
X14476786Y-14740214D01*
X14448214Y-14725929D01*
X14433928Y-14711643D01*
X14419643Y-14683071D01*
X14405357Y-14625929D01*
X14405357Y-14554500D01*
X14419643Y-14497357D01*
X14433928Y-14468786D01*
X14448214Y-14454500D01*
X14476786Y-14440214D01*
X14676786Y-14440214D02*
X14862500Y-14440214D01*
X14762500Y-14554500D01*
X14805357Y-14554500D01*
X14833928Y-14568786D01*
X14848214Y-14583071D01*
X14862500Y-14611643D01*
X14862500Y-14683071D01*
X14848214Y-14711643D01*
X14833928Y-14725929D01*
X14805357Y-14740214D01*
X14719643Y-14740214D01*
X14691071Y-14725929D01*
X14676786Y-14711643D01*
X15148214Y-14740214D02*
X14976786Y-14740214D01*
X15062500Y-14740214D02*
X15062500Y-14440214D01*
X15033928Y-14483071D01*
X15005357Y-14511643D01*
X14976786Y-14525929D01*
X15419643Y-14440214D02*
X15276786Y-14440214D01*
X15262500Y-14583071D01*
X15276786Y-14568786D01*
X15305357Y-14554500D01*
X15376786Y-14554500D01*
X15405357Y-14568786D01*
X15419643Y-14583071D01*
X15433928Y-14611643D01*
X15433928Y-14683071D01*
X15419643Y-14711643D01*
X15405357Y-14725929D01*
X15376786Y-14740214D01*
X15305357Y-14740214D01*
X15276786Y-14725929D01*
X15262500Y-14711643D01*
X15548214Y-14440214D02*
X15548214Y-14497357D01*
X15662500Y-14440214D02*
X15662500Y-14497357D01*
X16105357Y-14854500D02*
X16091071Y-14840214D01*
X16062500Y-14797357D01*
X16048214Y-14768786D01*
X16033928Y-14725929D01*
X16019643Y-14654500D01*
X16019643Y-14597357D01*
X16033928Y-14525929D01*
X16048214Y-14483071D01*
X16062500Y-14454500D01*
X16091071Y-14411643D01*
X16105357Y-14397357D01*
X16191071Y-14440214D02*
X16376786Y-14440214D01*
X16276786Y-14554500D01*
X16319643Y-14554500D01*
X16348214Y-14568786D01*
X16362500Y-14583071D01*
X16376786Y-14611643D01*
X16376786Y-14683071D01*
X16362500Y-14711643D01*
X16348214Y-14725929D01*
X16319643Y-14740214D01*
X16233928Y-14740214D01*
X16205357Y-14725929D01*
X16191071Y-14711643D01*
X16633928Y-14440214D02*
X16576786Y-14440214D01*
X16548214Y-14454500D01*
X16533928Y-14468786D01*
X16505357Y-14511643D01*
X16491071Y-14568786D01*
X16491071Y-14683071D01*
X16505357Y-14711643D01*
X16519643Y-14725929D01*
X16548214Y-14740214D01*
X16605357Y-14740214D01*
X16633928Y-14725929D01*
X16648214Y-14711643D01*
X16662500Y-14683071D01*
X16662500Y-14611643D01*
X16648214Y-14583071D01*
X16633928Y-14568786D01*
X16605357Y-14554500D01*
X16548214Y-14554500D01*
X16519643Y-14568786D01*
X16505357Y-14583071D01*
X16491071Y-14611643D01*
X17019643Y-14740214D02*
X17019643Y-14440214D01*
X17148214Y-14740214D02*
X17148214Y-14583071D01*
X17133928Y-14554500D01*
X17105357Y-14540214D01*
X17062500Y-14540214D01*
X17033928Y-14554500D01*
X17019643Y-14568786D01*
X17333928Y-14740214D02*
X17305357Y-14725929D01*
X17291071Y-14711643D01*
X17276786Y-14683071D01*
X17276786Y-14597357D01*
X17291071Y-14568786D01*
X17305357Y-14554500D01*
X17333928Y-14540214D01*
X17376786Y-14540214D01*
X17405357Y-14554500D01*
X17419643Y-14568786D01*
X17433928Y-14597357D01*
X17433928Y-14683071D01*
X17419643Y-14711643D01*
X17405357Y-14725929D01*
X17376786Y-14740214D01*
X17333928Y-14740214D01*
X17605357Y-14740214D02*
X17576786Y-14725929D01*
X17562500Y-14697357D01*
X17562500Y-14440214D01*
X17833928Y-14725929D02*
X17805357Y-14740214D01*
X17748214Y-14740214D01*
X17719643Y-14725929D01*
X17705357Y-14697357D01*
X17705357Y-14583071D01*
X17719643Y-14554500D01*
X17748214Y-14540214D01*
X17805357Y-14540214D01*
X17833928Y-14554500D01*
X17848214Y-14583071D01*
X17848214Y-14611643D01*
X17705357Y-14640214D01*
X17962500Y-14725929D02*
X17991071Y-14740214D01*
X18048214Y-14740214D01*
X18076786Y-14725929D01*
X18091071Y-14697357D01*
X18091071Y-14683071D01*
X18076786Y-14654500D01*
X18048214Y-14640214D01*
X18005357Y-14640214D01*
X17976786Y-14625929D01*
X17962500Y-14597357D01*
X17962500Y-14583071D01*
X17976786Y-14554500D01*
X18005357Y-14540214D01*
X18048214Y-14540214D01*
X18076786Y-14554500D01*
X18191071Y-14854500D02*
X18205357Y-14840214D01*
X18233928Y-14797357D01*
X18248214Y-14768786D01*
X18262500Y-14725929D01*
X18276786Y-14654500D01*
X18276786Y-14597357D01*
X18262500Y-14525929D01*
X18248214Y-14483071D01*
X18233928Y-14454500D01*
X18205357Y-14411643D01*
X18191071Y-14397357D01*
X10828462Y-15046462D02*
X10828462Y-14954538D01*
X10736538Y-14954538D01*
X10736538Y-15046462D01*
X10828462Y-15046462D01*
X11291071Y-15136214D02*
X11119643Y-15136214D01*
X11205357Y-15136214D02*
X11205357Y-14836214D01*
X11176786Y-14879071D01*
X11148214Y-14907643D01*
X11119643Y-14921929D01*
X11419643Y-15107643D02*
X11433928Y-15121929D01*
X11419643Y-15136214D01*
X11405357Y-15121929D01*
X11419643Y-15107643D01*
X11419643Y-15136214D01*
X11533928Y-14836214D02*
X11719643Y-14836214D01*
X11619643Y-14950500D01*
X11662500Y-14950500D01*
X11691071Y-14964786D01*
X11705357Y-14979071D01*
X11719643Y-15007643D01*
X11719643Y-15079071D01*
X11705357Y-15107643D01*
X11691071Y-15121929D01*
X11662500Y-15136214D01*
X11576786Y-15136214D01*
X11548214Y-15121929D01*
X11533928Y-15107643D01*
X11905357Y-14836214D02*
X11933928Y-14836214D01*
X11962500Y-14850500D01*
X11976786Y-14864786D01*
X11991071Y-14893357D01*
X12005357Y-14950500D01*
X12005357Y-15021929D01*
X11991071Y-15079071D01*
X11976786Y-15107643D01*
X11962500Y-15121929D01*
X11933928Y-15136214D01*
X11905357Y-15136214D01*
X11876786Y-15121929D01*
X11862500Y-15107643D01*
X11848214Y-15079071D01*
X11833928Y-15021929D01*
X11833928Y-14950500D01*
X11848214Y-14893357D01*
X11862500Y-14864786D01*
X11876786Y-14850500D01*
X11905357Y-14836214D01*
X12191071Y-14836214D02*
X12219643Y-14836214D01*
X12248214Y-14850500D01*
X12262500Y-14864786D01*
X12276786Y-14893357D01*
X12291071Y-14950500D01*
X12291071Y-15021929D01*
X12276786Y-15079071D01*
X12262500Y-15107643D01*
X12248214Y-15121929D01*
X12219643Y-15136214D01*
X12191071Y-15136214D01*
X12162500Y-15121929D01*
X12148214Y-15107643D01*
X12133928Y-15079071D01*
X12119643Y-15021929D01*
X12119643Y-14950500D01*
X12133928Y-14893357D01*
X12148214Y-14864786D01*
X12162500Y-14850500D01*
X12191071Y-14836214D01*
X12419643Y-15136214D02*
X12419643Y-14936214D01*
X12419643Y-14964786D02*
X12433928Y-14950500D01*
X12462500Y-14936214D01*
X12505357Y-14936214D01*
X12533928Y-14950500D01*
X12548214Y-14979071D01*
X12548214Y-15136214D01*
X12548214Y-14979071D02*
X12562500Y-14950500D01*
X12591071Y-14936214D01*
X12633928Y-14936214D01*
X12662500Y-14950500D01*
X12676786Y-14979071D01*
X12676786Y-15136214D01*
X12819643Y-15136214D02*
X12819643Y-14936214D01*
X12819643Y-14964786D02*
X12833928Y-14950500D01*
X12862500Y-14936214D01*
X12905357Y-14936214D01*
X12933928Y-14950500D01*
X12948214Y-14979071D01*
X12948214Y-15136214D01*
X12948214Y-14979071D02*
X12962500Y-14950500D01*
X12991071Y-14936214D01*
X13033928Y-14936214D01*
X13062500Y-14950500D01*
X13076786Y-14979071D01*
X13076786Y-15136214D01*
X13662500Y-14821929D02*
X13405357Y-15207643D01*
X14048214Y-14836214D02*
X14076786Y-14836214D01*
X14105357Y-14850500D01*
X14119643Y-14864786D01*
X14133928Y-14893357D01*
X14148214Y-14950500D01*
X14148214Y-15021929D01*
X14133928Y-15079071D01*
X14119643Y-15107643D01*
X14105357Y-15121929D01*
X14076786Y-15136214D01*
X14048214Y-15136214D01*
X14019643Y-15121929D01*
X14005357Y-15107643D01*
X13991071Y-15079071D01*
X13976786Y-15021929D01*
X13976786Y-14950500D01*
X13991071Y-14893357D01*
X14005357Y-14864786D01*
X14019643Y-14850500D01*
X14048214Y-14836214D01*
X14276786Y-15107643D02*
X14291071Y-15121929D01*
X14276786Y-15136214D01*
X14262500Y-15121929D01*
X14276786Y-15107643D01*
X14276786Y-15136214D01*
X14476786Y-14836214D02*
X14505357Y-14836214D01*
X14533928Y-14850500D01*
X14548214Y-14864786D01*
X14562500Y-14893357D01*
X14576786Y-14950500D01*
X14576786Y-15021929D01*
X14562500Y-15079071D01*
X14548214Y-15107643D01*
X14533928Y-15121929D01*
X14505357Y-15136214D01*
X14476786Y-15136214D01*
X14448214Y-15121929D01*
X14433928Y-15107643D01*
X14419643Y-15079071D01*
X14405357Y-15021929D01*
X14405357Y-14950500D01*
X14419643Y-14893357D01*
X14433928Y-14864786D01*
X14448214Y-14850500D01*
X14476786Y-14836214D01*
X14848214Y-14836214D02*
X14705357Y-14836214D01*
X14691071Y-14979071D01*
X14705357Y-14964786D01*
X14733928Y-14950500D01*
X14805357Y-14950500D01*
X14833928Y-14964786D01*
X14848214Y-14979071D01*
X14862500Y-15007643D01*
X14862500Y-15079071D01*
X14848214Y-15107643D01*
X14833928Y-15121929D01*
X14805357Y-15136214D01*
X14733928Y-15136214D01*
X14705357Y-15121929D01*
X14691071Y-15107643D01*
X15148214Y-15136214D02*
X14976786Y-15136214D01*
X15062500Y-15136214D02*
X15062500Y-14836214D01*
X15033928Y-14879071D01*
X15005357Y-14907643D01*
X14976786Y-14921929D01*
X15262500Y-14864786D02*
X15276786Y-14850500D01*
X15305357Y-14836214D01*
X15376786Y-14836214D01*
X15405357Y-14850500D01*
X15419643Y-14864786D01*
X15433928Y-14893357D01*
X15433928Y-14921929D01*
X15419643Y-14964786D01*
X15248214Y-15136214D01*
X15433928Y-15136214D01*
X15548214Y-14836214D02*
X15548214Y-14893357D01*
X15662500Y-14836214D02*
X15662500Y-14893357D01*
X16105357Y-15250500D02*
X16091071Y-15236214D01*
X16062500Y-15193357D01*
X16048214Y-15164786D01*
X16033928Y-15121929D01*
X16019643Y-15050500D01*
X16019643Y-14993357D01*
X16033928Y-14921929D01*
X16048214Y-14879071D01*
X16062500Y-14850500D01*
X16091071Y-14807643D01*
X16105357Y-14793357D01*
X16205357Y-14864786D02*
X16219643Y-14850500D01*
X16248214Y-14836214D01*
X16319643Y-14836214D01*
X16348214Y-14850500D01*
X16362500Y-14864786D01*
X16376786Y-14893357D01*
X16376786Y-14921929D01*
X16362500Y-14964786D01*
X16191071Y-15136214D01*
X16376786Y-15136214D01*
X16733928Y-15136214D02*
X16733928Y-14836214D01*
X16862500Y-15136214D02*
X16862500Y-14979071D01*
X16848214Y-14950500D01*
X16819643Y-14936214D01*
X16776786Y-14936214D01*
X16748214Y-14950500D01*
X16733928Y-14964786D01*
X17048214Y-15136214D02*
X17019643Y-15121929D01*
X17005357Y-15107643D01*
X16991071Y-15079071D01*
X16991071Y-14993357D01*
X17005357Y-14964786D01*
X17019643Y-14950500D01*
X17048214Y-14936214D01*
X17091071Y-14936214D01*
X17119643Y-14950500D01*
X17133928Y-14964786D01*
X17148214Y-14993357D01*
X17148214Y-15079071D01*
X17133928Y-15107643D01*
X17119643Y-15121929D01*
X17091071Y-15136214D01*
X17048214Y-15136214D01*
X17319643Y-15136214D02*
X17291071Y-15121929D01*
X17276786Y-15093357D01*
X17276786Y-14836214D01*
X17548214Y-15121929D02*
X17519643Y-15136214D01*
X17462500Y-15136214D01*
X17433928Y-15121929D01*
X17419643Y-15093357D01*
X17419643Y-14979071D01*
X17433928Y-14950500D01*
X17462500Y-14936214D01*
X17519643Y-14936214D01*
X17548214Y-14950500D01*
X17562500Y-14979071D01*
X17562500Y-15007643D01*
X17419643Y-15036214D01*
X17676786Y-15121929D02*
X17705357Y-15136214D01*
X17762500Y-15136214D01*
X17791071Y-15121929D01*
X17805357Y-15093357D01*
X17805357Y-15079071D01*
X17791071Y-15050500D01*
X17762500Y-15036214D01*
X17719643Y-15036214D01*
X17691071Y-15021929D01*
X17676786Y-14993357D01*
X17676786Y-14979071D01*
X17691071Y-14950500D01*
X17719643Y-14936214D01*
X17762500Y-14936214D01*
X17791071Y-14950500D01*
X17905357Y-15250500D02*
X17919643Y-15236214D01*
X17948214Y-15193357D01*
X17962500Y-15164786D01*
X17976786Y-15121929D01*
X17991071Y-15050500D01*
X17991071Y-14993357D01*
X17976786Y-14921929D01*
X17962500Y-14879071D01*
X17948214Y-14850500D01*
X17919643Y-14807643D01*
X17905357Y-14793357D01*
X10687500Y-15556500D02*
X10847500Y-15396500D01*
X10687500Y-15236500D01*
X10527500Y-15396500D01*
X10687500Y-15556500D01*
X11105357Y-15232214D02*
X11291071Y-15232214D01*
X11191071Y-15346500D01*
X11233928Y-15346500D01*
X11262500Y-15360786D01*
X11276786Y-15375071D01*
X11291071Y-15403643D01*
X11291071Y-15475071D01*
X11276786Y-15503643D01*
X11262500Y-15517929D01*
X11233928Y-15532214D01*
X11148214Y-15532214D01*
X11119643Y-15517929D01*
X11105357Y-15503643D01*
X11419643Y-15503643D02*
X11433928Y-15517929D01*
X11419643Y-15532214D01*
X11405357Y-15517929D01*
X11419643Y-15503643D01*
X11419643Y-15532214D01*
X11548214Y-15260786D02*
X11562500Y-15246500D01*
X11591071Y-15232214D01*
X11662500Y-15232214D01*
X11691071Y-15246500D01*
X11705357Y-15260786D01*
X11719643Y-15289357D01*
X11719643Y-15317929D01*
X11705357Y-15360786D01*
X11533928Y-15532214D01*
X11719643Y-15532214D01*
X11905357Y-15232214D02*
X11933928Y-15232214D01*
X11962500Y-15246500D01*
X11976786Y-15260786D01*
X11991071Y-15289357D01*
X12005357Y-15346500D01*
X12005357Y-15417929D01*
X11991071Y-15475071D01*
X11976786Y-15503643D01*
X11962500Y-15517929D01*
X11933928Y-15532214D01*
X11905357Y-15532214D01*
X11876786Y-15517929D01*
X11862500Y-15503643D01*
X11848214Y-15475071D01*
X11833928Y-15417929D01*
X11833928Y-15346500D01*
X11848214Y-15289357D01*
X11862500Y-15260786D01*
X11876786Y-15246500D01*
X11905357Y-15232214D01*
X12191071Y-15232214D02*
X12219643Y-15232214D01*
X12248214Y-15246500D01*
X12262500Y-15260786D01*
X12276786Y-15289357D01*
X12291071Y-15346500D01*
X12291071Y-15417929D01*
X12276786Y-15475071D01*
X12262500Y-15503643D01*
X12248214Y-15517929D01*
X12219643Y-15532214D01*
X12191071Y-15532214D01*
X12162500Y-15517929D01*
X12148214Y-15503643D01*
X12133928Y-15475071D01*
X12119643Y-15417929D01*
X12119643Y-15346500D01*
X12133928Y-15289357D01*
X12148214Y-15260786D01*
X12162500Y-15246500D01*
X12191071Y-15232214D01*
X12419643Y-15532214D02*
X12419643Y-15332214D01*
X12419643Y-15360786D02*
X12433928Y-15346500D01*
X12462500Y-15332214D01*
X12505357Y-15332214D01*
X12533928Y-15346500D01*
X12548214Y-15375071D01*
X12548214Y-15532214D01*
X12548214Y-15375071D02*
X12562500Y-15346500D01*
X12591071Y-15332214D01*
X12633928Y-15332214D01*
X12662500Y-15346500D01*
X12676786Y-15375071D01*
X12676786Y-15532214D01*
X12819643Y-15532214D02*
X12819643Y-15332214D01*
X12819643Y-15360786D02*
X12833928Y-15346500D01*
X12862500Y-15332214D01*
X12905357Y-15332214D01*
X12933928Y-15346500D01*
X12948214Y-15375071D01*
X12948214Y-15532214D01*
X12948214Y-15375071D02*
X12962500Y-15346500D01*
X12991071Y-15332214D01*
X13033928Y-15332214D01*
X13062500Y-15346500D01*
X13076786Y-15375071D01*
X13076786Y-15532214D01*
X13662500Y-15217929D02*
X13405357Y-15603643D01*
X14048214Y-15232214D02*
X14076786Y-15232214D01*
X14105357Y-15246500D01*
X14119643Y-15260786D01*
X14133928Y-15289357D01*
X14148214Y-15346500D01*
X14148214Y-15417929D01*
X14133928Y-15475071D01*
X14119643Y-15503643D01*
X14105357Y-15517929D01*
X14076786Y-15532214D01*
X14048214Y-15532214D01*
X14019643Y-15517929D01*
X14005357Y-15503643D01*
X13991071Y-15475071D01*
X13976786Y-15417929D01*
X13976786Y-15346500D01*
X13991071Y-15289357D01*
X14005357Y-15260786D01*
X14019643Y-15246500D01*
X14048214Y-15232214D01*
X14276786Y-15503643D02*
X14291071Y-15517929D01*
X14276786Y-15532214D01*
X14262500Y-15517929D01*
X14276786Y-15503643D01*
X14276786Y-15532214D01*
X14576786Y-15532214D02*
X14405357Y-15532214D01*
X14491071Y-15532214D02*
X14491071Y-15232214D01*
X14462500Y-15275071D01*
X14433928Y-15303643D01*
X14405357Y-15317929D01*
X14691071Y-15260786D02*
X14705357Y-15246500D01*
X14733928Y-15232214D01*
X14805357Y-15232214D01*
X14833928Y-15246500D01*
X14848214Y-15260786D01*
X14862500Y-15289357D01*
X14862500Y-15317929D01*
X14848214Y-15360786D01*
X14676786Y-15532214D01*
X14862500Y-15532214D01*
X15119643Y-15232214D02*
X15062500Y-15232214D01*
X15033928Y-15246500D01*
X15019643Y-15260786D01*
X14991071Y-15303643D01*
X14976786Y-15360786D01*
X14976786Y-15475071D01*
X14991071Y-15503643D01*
X15005357Y-15517929D01*
X15033928Y-15532214D01*
X15091071Y-15532214D01*
X15119643Y-15517929D01*
X15133928Y-15503643D01*
X15148214Y-15475071D01*
X15148214Y-15403643D01*
X15133928Y-15375071D01*
X15119643Y-15360786D01*
X15091071Y-15346500D01*
X15033928Y-15346500D01*
X15005357Y-15360786D01*
X14991071Y-15375071D01*
X14976786Y-15403643D01*
X15333928Y-15232214D02*
X15362500Y-15232214D01*
X15391071Y-15246500D01*
X15405357Y-15260786D01*
X15419643Y-15289357D01*
X15433928Y-15346500D01*
X15433928Y-15417929D01*
X15419643Y-15475071D01*
X15405357Y-15503643D01*
X15391071Y-15517929D01*
X15362500Y-15532214D01*
X15333928Y-15532214D01*
X15305357Y-15517929D01*
X15291071Y-15503643D01*
X15276786Y-15475071D01*
X15262500Y-15417929D01*
X15262500Y-15346500D01*
X15276786Y-15289357D01*
X15291071Y-15260786D01*
X15305357Y-15246500D01*
X15333928Y-15232214D01*
X15548214Y-15232214D02*
X15548214Y-15289357D01*
X15662500Y-15232214D02*
X15662500Y-15289357D01*
X16105357Y-15646500D02*
X16091071Y-15632214D01*
X16062500Y-15589357D01*
X16048214Y-15560786D01*
X16033928Y-15517929D01*
X16019643Y-15446500D01*
X16019643Y-15389357D01*
X16033928Y-15317929D01*
X16048214Y-15275071D01*
X16062500Y-15246500D01*
X16091071Y-15203643D01*
X16105357Y-15189357D01*
X16348214Y-15332214D02*
X16348214Y-15532214D01*
X16276786Y-15217929D02*
X16205357Y-15432214D01*
X16391071Y-15432214D01*
X16733928Y-15532214D02*
X16733928Y-15232214D01*
X16862500Y-15532214D02*
X16862500Y-15375071D01*
X16848214Y-15346500D01*
X16819643Y-15332214D01*
X16776786Y-15332214D01*
X16748214Y-15346500D01*
X16733928Y-15360786D01*
X17048214Y-15532214D02*
X17019643Y-15517929D01*
X17005357Y-15503643D01*
X16991071Y-15475071D01*
X16991071Y-15389357D01*
X17005357Y-15360786D01*
X17019643Y-15346500D01*
X17048214Y-15332214D01*
X17091071Y-15332214D01*
X17119643Y-15346500D01*
X17133928Y-15360786D01*
X17148214Y-15389357D01*
X17148214Y-15475071D01*
X17133928Y-15503643D01*
X17119643Y-15517929D01*
X17091071Y-15532214D01*
X17048214Y-15532214D01*
X17319643Y-15532214D02*
X17291071Y-15517929D01*
X17276786Y-15489357D01*
X17276786Y-15232214D01*
X17548214Y-15517929D02*
X17519643Y-15532214D01*
X17462500Y-15532214D01*
X17433928Y-15517929D01*
X17419643Y-15489357D01*
X17419643Y-15375071D01*
X17433928Y-15346500D01*
X17462500Y-15332214D01*
X17519643Y-15332214D01*
X17548214Y-15346500D01*
X17562500Y-15375071D01*
X17562500Y-15403643D01*
X17419643Y-15432214D01*
X17676786Y-15517929D02*
X17705357Y-15532214D01*
X17762500Y-15532214D01*
X17791071Y-15517929D01*
X17805357Y-15489357D01*
X17805357Y-15475071D01*
X17791071Y-15446500D01*
X17762500Y-15432214D01*
X17719643Y-15432214D01*
X17691071Y-15417929D01*
X17676786Y-15389357D01*
X17676786Y-15375071D01*
X17691071Y-15346500D01*
X17719643Y-15332214D01*
X17762500Y-15332214D01*
X17791071Y-15346500D01*
X17905357Y-15646500D02*
X17919643Y-15632214D01*
X17948214Y-15589357D01*
X17962500Y-15560786D01*
X17976786Y-15517929D01*
X17991071Y-15446500D01*
X17991071Y-15389357D01*
X17976786Y-15317929D01*
X17962500Y-15275071D01*
X17948214Y-15246500D01*
X17919643Y-15203643D01*
X17905357Y-15189357D01*
M02*
