%TF.GenerationSoftware,KiCad,Pcbnew,(5.1.10)-1*%
%TF.CreationDate,2021-07-04T14:07:11+01:00*%
%TF.ProjectId,Abhoinn_IoT_V2,4162686f-696e-46e5-9f49-6f545f56322e,rev?*%
%TF.SameCoordinates,Original*%
%TF.FileFunction,Soldermask,Top*%
%TF.FilePolarity,Negative*%
%FSLAX46Y46*%
G04 Gerber Fmt 4.6, Leading zero omitted, Abs format (unit mm)*
G04 Created by KiCad (PCBNEW (5.1.10)-1) date 2021-07-04 14:07:11*
%MOMM*%
%LPD*%
G01*
G04 APERTURE LIST*
%ADD10C,0.100000*%
%ADD11R,1.060000X0.650000*%
%ADD12R,0.900000X0.800000*%
%ADD13C,0.650000*%
%ADD14O,0.950000X0.650000*%
%ADD15O,0.800000X1.400000*%
%ADD16R,0.300000X0.700000*%
%ADD17O,1.350000X1.350000*%
%ADD18R,1.350000X1.350000*%
%ADD19C,2.600000*%
%ADD20R,2.600000X2.600000*%
%ADD21R,2.200000X1.050000*%
%ADD22R,1.050000X1.000000*%
%ADD23R,1.200000X1.200000*%
%ADD24R,0.350000X0.500000*%
%ADD25R,0.500000X0.350000*%
%ADD26C,0.800000*%
%ADD27C,6.400000*%
G04 APERTURE END LIST*
D10*
G36*
X130500000Y-75000000D02*
G01*
X119000000Y-75000000D01*
X119000000Y-85000000D01*
X130000000Y-85000000D01*
X130000000Y-86000000D01*
X118000000Y-86000000D01*
X118000000Y-74000000D01*
X130500000Y-74000000D01*
X130500000Y-75000000D01*
G37*
X130500000Y-75000000D02*
X119000000Y-75000000D01*
X119000000Y-85000000D01*
X130000000Y-85000000D01*
X130000000Y-86000000D01*
X118000000Y-86000000D01*
X118000000Y-74000000D01*
X130500000Y-74000000D01*
X130500000Y-75000000D01*
%TO.C,U3*%
G36*
G01*
X144103554Y-76333095D02*
X144987437Y-75449212D01*
G75*
G02*
X145164213Y-75449212I88388J-88388D01*
G01*
X145340990Y-75625989D01*
G75*
G02*
X145340990Y-75802765I-88388J-88388D01*
G01*
X144457107Y-76686648D01*
G75*
G02*
X144280331Y-76686648I-88388J88388D01*
G01*
X144103554Y-76509871D01*
G75*
G02*
X144103554Y-76333095I88388J88388D01*
G01*
G37*
G36*
G01*
X144669239Y-76898781D02*
X145553122Y-76014898D01*
G75*
G02*
X145729898Y-76014898I88388J-88388D01*
G01*
X145906675Y-76191675D01*
G75*
G02*
X145906675Y-76368451I-88388J-88388D01*
G01*
X145022792Y-77252334D01*
G75*
G02*
X144846016Y-77252334I-88388J88388D01*
G01*
X144669239Y-77075557D01*
G75*
G02*
X144669239Y-76898781I88388J88388D01*
G01*
G37*
G36*
G01*
X145234925Y-77464466D02*
X146118808Y-76580583D01*
G75*
G02*
X146295584Y-76580583I88388J-88388D01*
G01*
X146472361Y-76757360D01*
G75*
G02*
X146472361Y-76934136I-88388J-88388D01*
G01*
X145588478Y-77818019D01*
G75*
G02*
X145411702Y-77818019I-88388J88388D01*
G01*
X145234925Y-77641242D01*
G75*
G02*
X145234925Y-77464466I88388J88388D01*
G01*
G37*
G36*
G01*
X145800610Y-78030151D02*
X146684493Y-77146268D01*
G75*
G02*
X146861269Y-77146268I88388J-88388D01*
G01*
X147038046Y-77323045D01*
G75*
G02*
X147038046Y-77499821I-88388J-88388D01*
G01*
X146154163Y-78383704D01*
G75*
G02*
X145977387Y-78383704I-88388J88388D01*
G01*
X145800610Y-78206927D01*
G75*
G02*
X145800610Y-78030151I88388J88388D01*
G01*
G37*
G36*
G01*
X146366296Y-78595837D02*
X147250179Y-77711954D01*
G75*
G02*
X147426955Y-77711954I88388J-88388D01*
G01*
X147603732Y-77888731D01*
G75*
G02*
X147603732Y-78065507I-88388J-88388D01*
G01*
X146719849Y-78949390D01*
G75*
G02*
X146543073Y-78949390I-88388J88388D01*
G01*
X146366296Y-78772613D01*
G75*
G02*
X146366296Y-78595837I88388J88388D01*
G01*
G37*
G36*
G01*
X146931981Y-79161522D02*
X147815864Y-78277639D01*
G75*
G02*
X147992640Y-78277639I88388J-88388D01*
G01*
X148169417Y-78454416D01*
G75*
G02*
X148169417Y-78631192I-88388J-88388D01*
G01*
X147285534Y-79515075D01*
G75*
G02*
X147108758Y-79515075I-88388J88388D01*
G01*
X146931981Y-79338298D01*
G75*
G02*
X146931981Y-79161522I88388J88388D01*
G01*
G37*
G36*
G01*
X147497666Y-79727208D02*
X148381549Y-78843325D01*
G75*
G02*
X148558325Y-78843325I88388J-88388D01*
G01*
X148735102Y-79020102D01*
G75*
G02*
X148735102Y-79196878I-88388J-88388D01*
G01*
X147851219Y-80080761D01*
G75*
G02*
X147674443Y-80080761I-88388J88388D01*
G01*
X147497666Y-79903984D01*
G75*
G02*
X147497666Y-79727208I88388J88388D01*
G01*
G37*
G36*
G01*
X148063352Y-80292893D02*
X148947235Y-79409010D01*
G75*
G02*
X149124011Y-79409010I88388J-88388D01*
G01*
X149300788Y-79585787D01*
G75*
G02*
X149300788Y-79762563I-88388J-88388D01*
G01*
X148416905Y-80646446D01*
G75*
G02*
X148240129Y-80646446I-88388J88388D01*
G01*
X148063352Y-80469669D01*
G75*
G02*
X148063352Y-80292893I88388J88388D01*
G01*
G37*
G36*
G01*
X148063352Y-81530331D02*
X148240129Y-81353554D01*
G75*
G02*
X148416905Y-81353554I88388J-88388D01*
G01*
X149300788Y-82237437D01*
G75*
G02*
X149300788Y-82414213I-88388J-88388D01*
G01*
X149124011Y-82590990D01*
G75*
G02*
X148947235Y-82590990I-88388J88388D01*
G01*
X148063352Y-81707107D01*
G75*
G02*
X148063352Y-81530331I88388J88388D01*
G01*
G37*
G36*
G01*
X147497666Y-82096016D02*
X147674443Y-81919239D01*
G75*
G02*
X147851219Y-81919239I88388J-88388D01*
G01*
X148735102Y-82803122D01*
G75*
G02*
X148735102Y-82979898I-88388J-88388D01*
G01*
X148558325Y-83156675D01*
G75*
G02*
X148381549Y-83156675I-88388J88388D01*
G01*
X147497666Y-82272792D01*
G75*
G02*
X147497666Y-82096016I88388J88388D01*
G01*
G37*
G36*
G01*
X146931981Y-82661702D02*
X147108758Y-82484925D01*
G75*
G02*
X147285534Y-82484925I88388J-88388D01*
G01*
X148169417Y-83368808D01*
G75*
G02*
X148169417Y-83545584I-88388J-88388D01*
G01*
X147992640Y-83722361D01*
G75*
G02*
X147815864Y-83722361I-88388J88388D01*
G01*
X146931981Y-82838478D01*
G75*
G02*
X146931981Y-82661702I88388J88388D01*
G01*
G37*
G36*
G01*
X146366296Y-83227387D02*
X146543073Y-83050610D01*
G75*
G02*
X146719849Y-83050610I88388J-88388D01*
G01*
X147603732Y-83934493D01*
G75*
G02*
X147603732Y-84111269I-88388J-88388D01*
G01*
X147426955Y-84288046D01*
G75*
G02*
X147250179Y-84288046I-88388J88388D01*
G01*
X146366296Y-83404163D01*
G75*
G02*
X146366296Y-83227387I88388J88388D01*
G01*
G37*
G36*
G01*
X145800610Y-83793073D02*
X145977387Y-83616296D01*
G75*
G02*
X146154163Y-83616296I88388J-88388D01*
G01*
X147038046Y-84500179D01*
G75*
G02*
X147038046Y-84676955I-88388J-88388D01*
G01*
X146861269Y-84853732D01*
G75*
G02*
X146684493Y-84853732I-88388J88388D01*
G01*
X145800610Y-83969849D01*
G75*
G02*
X145800610Y-83793073I88388J88388D01*
G01*
G37*
G36*
G01*
X145234925Y-84358758D02*
X145411702Y-84181981D01*
G75*
G02*
X145588478Y-84181981I88388J-88388D01*
G01*
X146472361Y-85065864D01*
G75*
G02*
X146472361Y-85242640I-88388J-88388D01*
G01*
X146295584Y-85419417D01*
G75*
G02*
X146118808Y-85419417I-88388J88388D01*
G01*
X145234925Y-84535534D01*
G75*
G02*
X145234925Y-84358758I88388J88388D01*
G01*
G37*
G36*
G01*
X144669239Y-84924443D02*
X144846016Y-84747666D01*
G75*
G02*
X145022792Y-84747666I88388J-88388D01*
G01*
X145906675Y-85631549D01*
G75*
G02*
X145906675Y-85808325I-88388J-88388D01*
G01*
X145729898Y-85985102D01*
G75*
G02*
X145553122Y-85985102I-88388J88388D01*
G01*
X144669239Y-85101219D01*
G75*
G02*
X144669239Y-84924443I88388J88388D01*
G01*
G37*
G36*
G01*
X144103554Y-85490129D02*
X144280331Y-85313352D01*
G75*
G02*
X144457107Y-85313352I88388J-88388D01*
G01*
X145340990Y-86197235D01*
G75*
G02*
X145340990Y-86374011I-88388J-88388D01*
G01*
X145164213Y-86550788D01*
G75*
G02*
X144987437Y-86550788I-88388J88388D01*
G01*
X144103554Y-85666905D01*
G75*
G02*
X144103554Y-85490129I88388J88388D01*
G01*
G37*
G36*
G01*
X142159010Y-86197235D02*
X143042893Y-85313352D01*
G75*
G02*
X143219669Y-85313352I88388J-88388D01*
G01*
X143396446Y-85490129D01*
G75*
G02*
X143396446Y-85666905I-88388J-88388D01*
G01*
X142512563Y-86550788D01*
G75*
G02*
X142335787Y-86550788I-88388J88388D01*
G01*
X142159010Y-86374011D01*
G75*
G02*
X142159010Y-86197235I88388J88388D01*
G01*
G37*
G36*
G01*
X141593325Y-85631549D02*
X142477208Y-84747666D01*
G75*
G02*
X142653984Y-84747666I88388J-88388D01*
G01*
X142830761Y-84924443D01*
G75*
G02*
X142830761Y-85101219I-88388J-88388D01*
G01*
X141946878Y-85985102D01*
G75*
G02*
X141770102Y-85985102I-88388J88388D01*
G01*
X141593325Y-85808325D01*
G75*
G02*
X141593325Y-85631549I88388J88388D01*
G01*
G37*
G36*
G01*
X141027639Y-85065864D02*
X141911522Y-84181981D01*
G75*
G02*
X142088298Y-84181981I88388J-88388D01*
G01*
X142265075Y-84358758D01*
G75*
G02*
X142265075Y-84535534I-88388J-88388D01*
G01*
X141381192Y-85419417D01*
G75*
G02*
X141204416Y-85419417I-88388J88388D01*
G01*
X141027639Y-85242640D01*
G75*
G02*
X141027639Y-85065864I88388J88388D01*
G01*
G37*
G36*
G01*
X140461954Y-84500179D02*
X141345837Y-83616296D01*
G75*
G02*
X141522613Y-83616296I88388J-88388D01*
G01*
X141699390Y-83793073D01*
G75*
G02*
X141699390Y-83969849I-88388J-88388D01*
G01*
X140815507Y-84853732D01*
G75*
G02*
X140638731Y-84853732I-88388J88388D01*
G01*
X140461954Y-84676955D01*
G75*
G02*
X140461954Y-84500179I88388J88388D01*
G01*
G37*
G36*
G01*
X139896268Y-83934493D02*
X140780151Y-83050610D01*
G75*
G02*
X140956927Y-83050610I88388J-88388D01*
G01*
X141133704Y-83227387D01*
G75*
G02*
X141133704Y-83404163I-88388J-88388D01*
G01*
X140249821Y-84288046D01*
G75*
G02*
X140073045Y-84288046I-88388J88388D01*
G01*
X139896268Y-84111269D01*
G75*
G02*
X139896268Y-83934493I88388J88388D01*
G01*
G37*
G36*
G01*
X139330583Y-83368808D02*
X140214466Y-82484925D01*
G75*
G02*
X140391242Y-82484925I88388J-88388D01*
G01*
X140568019Y-82661702D01*
G75*
G02*
X140568019Y-82838478I-88388J-88388D01*
G01*
X139684136Y-83722361D01*
G75*
G02*
X139507360Y-83722361I-88388J88388D01*
G01*
X139330583Y-83545584D01*
G75*
G02*
X139330583Y-83368808I88388J88388D01*
G01*
G37*
G36*
G01*
X138764898Y-82803122D02*
X139648781Y-81919239D01*
G75*
G02*
X139825557Y-81919239I88388J-88388D01*
G01*
X140002334Y-82096016D01*
G75*
G02*
X140002334Y-82272792I-88388J-88388D01*
G01*
X139118451Y-83156675D01*
G75*
G02*
X138941675Y-83156675I-88388J88388D01*
G01*
X138764898Y-82979898D01*
G75*
G02*
X138764898Y-82803122I88388J88388D01*
G01*
G37*
G36*
G01*
X138199212Y-82237437D02*
X139083095Y-81353554D01*
G75*
G02*
X139259871Y-81353554I88388J-88388D01*
G01*
X139436648Y-81530331D01*
G75*
G02*
X139436648Y-81707107I-88388J-88388D01*
G01*
X138552765Y-82590990D01*
G75*
G02*
X138375989Y-82590990I-88388J88388D01*
G01*
X138199212Y-82414213D01*
G75*
G02*
X138199212Y-82237437I88388J88388D01*
G01*
G37*
G36*
G01*
X138199212Y-79585787D02*
X138375989Y-79409010D01*
G75*
G02*
X138552765Y-79409010I88388J-88388D01*
G01*
X139436648Y-80292893D01*
G75*
G02*
X139436648Y-80469669I-88388J-88388D01*
G01*
X139259871Y-80646446D01*
G75*
G02*
X139083095Y-80646446I-88388J88388D01*
G01*
X138199212Y-79762563D01*
G75*
G02*
X138199212Y-79585787I88388J88388D01*
G01*
G37*
G36*
G01*
X138764898Y-79020102D02*
X138941675Y-78843325D01*
G75*
G02*
X139118451Y-78843325I88388J-88388D01*
G01*
X140002334Y-79727208D01*
G75*
G02*
X140002334Y-79903984I-88388J-88388D01*
G01*
X139825557Y-80080761D01*
G75*
G02*
X139648781Y-80080761I-88388J88388D01*
G01*
X138764898Y-79196878D01*
G75*
G02*
X138764898Y-79020102I88388J88388D01*
G01*
G37*
G36*
G01*
X139330583Y-78454416D02*
X139507360Y-78277639D01*
G75*
G02*
X139684136Y-78277639I88388J-88388D01*
G01*
X140568019Y-79161522D01*
G75*
G02*
X140568019Y-79338298I-88388J-88388D01*
G01*
X140391242Y-79515075D01*
G75*
G02*
X140214466Y-79515075I-88388J88388D01*
G01*
X139330583Y-78631192D01*
G75*
G02*
X139330583Y-78454416I88388J88388D01*
G01*
G37*
G36*
G01*
X139896268Y-77888731D02*
X140073045Y-77711954D01*
G75*
G02*
X140249821Y-77711954I88388J-88388D01*
G01*
X141133704Y-78595837D01*
G75*
G02*
X141133704Y-78772613I-88388J-88388D01*
G01*
X140956927Y-78949390D01*
G75*
G02*
X140780151Y-78949390I-88388J88388D01*
G01*
X139896268Y-78065507D01*
G75*
G02*
X139896268Y-77888731I88388J88388D01*
G01*
G37*
G36*
G01*
X140461954Y-77323045D02*
X140638731Y-77146268D01*
G75*
G02*
X140815507Y-77146268I88388J-88388D01*
G01*
X141699390Y-78030151D01*
G75*
G02*
X141699390Y-78206927I-88388J-88388D01*
G01*
X141522613Y-78383704D01*
G75*
G02*
X141345837Y-78383704I-88388J88388D01*
G01*
X140461954Y-77499821D01*
G75*
G02*
X140461954Y-77323045I88388J88388D01*
G01*
G37*
G36*
G01*
X141027639Y-76757360D02*
X141204416Y-76580583D01*
G75*
G02*
X141381192Y-76580583I88388J-88388D01*
G01*
X142265075Y-77464466D01*
G75*
G02*
X142265075Y-77641242I-88388J-88388D01*
G01*
X142088298Y-77818019D01*
G75*
G02*
X141911522Y-77818019I-88388J88388D01*
G01*
X141027639Y-76934136D01*
G75*
G02*
X141027639Y-76757360I88388J88388D01*
G01*
G37*
G36*
G01*
X141593325Y-76191675D02*
X141770102Y-76014898D01*
G75*
G02*
X141946878Y-76014898I88388J-88388D01*
G01*
X142830761Y-76898781D01*
G75*
G02*
X142830761Y-77075557I-88388J-88388D01*
G01*
X142653984Y-77252334D01*
G75*
G02*
X142477208Y-77252334I-88388J88388D01*
G01*
X141593325Y-76368451D01*
G75*
G02*
X141593325Y-76191675I88388J88388D01*
G01*
G37*
G36*
G01*
X142159010Y-75625989D02*
X142335787Y-75449212D01*
G75*
G02*
X142512563Y-75449212I88388J-88388D01*
G01*
X143396446Y-76333095D01*
G75*
G02*
X143396446Y-76509871I-88388J-88388D01*
G01*
X143219669Y-76686648D01*
G75*
G02*
X143042893Y-76686648I-88388J88388D01*
G01*
X142159010Y-75802765D01*
G75*
G02*
X142159010Y-75625989I88388J88388D01*
G01*
G37*
%TD*%
D11*
%TO.C,U2*%
X151850000Y-92750000D03*
X151850000Y-91800000D03*
X151850000Y-93700000D03*
X149650000Y-93700000D03*
X149650000Y-92750000D03*
X149650000Y-91800000D03*
%TD*%
D12*
%TO.C,U1*%
X169630000Y-74820000D03*
X167630000Y-75770000D03*
X167630000Y-73870000D03*
%TD*%
%TO.C,R9*%
G36*
G01*
X153512500Y-113012500D02*
X153987500Y-113012500D01*
G75*
G02*
X154225000Y-113250000I0J-237500D01*
G01*
X154225000Y-113750000D01*
G75*
G02*
X153987500Y-113987500I-237500J0D01*
G01*
X153512500Y-113987500D01*
G75*
G02*
X153275000Y-113750000I0J237500D01*
G01*
X153275000Y-113250000D01*
G75*
G02*
X153512500Y-113012500I237500J0D01*
G01*
G37*
G36*
G01*
X153512500Y-111187500D02*
X153987500Y-111187500D01*
G75*
G02*
X154225000Y-111425000I0J-237500D01*
G01*
X154225000Y-111925000D01*
G75*
G02*
X153987500Y-112162500I-237500J0D01*
G01*
X153512500Y-112162500D01*
G75*
G02*
X153275000Y-111925000I0J237500D01*
G01*
X153275000Y-111425000D01*
G75*
G02*
X153512500Y-111187500I237500J0D01*
G01*
G37*
%TD*%
%TO.C,R8*%
G36*
G01*
X133049999Y-92150000D02*
X133950001Y-92150000D01*
G75*
G02*
X134200000Y-92399999I0J-249999D01*
G01*
X134200000Y-93100001D01*
G75*
G02*
X133950001Y-93350000I-249999J0D01*
G01*
X133049999Y-93350000D01*
G75*
G02*
X132800000Y-93100001I0J249999D01*
G01*
X132800000Y-92399999D01*
G75*
G02*
X133049999Y-92150000I249999J0D01*
G01*
G37*
G36*
G01*
X133049999Y-90150000D02*
X133950001Y-90150000D01*
G75*
G02*
X134200000Y-90399999I0J-249999D01*
G01*
X134200000Y-91100001D01*
G75*
G02*
X133950001Y-91350000I-249999J0D01*
G01*
X133049999Y-91350000D01*
G75*
G02*
X132800000Y-91100001I0J249999D01*
G01*
X132800000Y-90399999D01*
G75*
G02*
X133049999Y-90150000I249999J0D01*
G01*
G37*
%TD*%
%TO.C,R7*%
G36*
G01*
X130799999Y-92150000D02*
X131700001Y-92150000D01*
G75*
G02*
X131950000Y-92399999I0J-249999D01*
G01*
X131950000Y-93100001D01*
G75*
G02*
X131700001Y-93350000I-249999J0D01*
G01*
X130799999Y-93350000D01*
G75*
G02*
X130550000Y-93100001I0J249999D01*
G01*
X130550000Y-92399999D01*
G75*
G02*
X130799999Y-92150000I249999J0D01*
G01*
G37*
G36*
G01*
X130799999Y-90150000D02*
X131700001Y-90150000D01*
G75*
G02*
X131950000Y-90399999I0J-249999D01*
G01*
X131950000Y-91100001D01*
G75*
G02*
X131700001Y-91350000I-249999J0D01*
G01*
X130799999Y-91350000D01*
G75*
G02*
X130550000Y-91100001I0J249999D01*
G01*
X130550000Y-90399999D01*
G75*
G02*
X130799999Y-90150000I249999J0D01*
G01*
G37*
%TD*%
%TO.C,R6*%
G36*
G01*
X154743999Y-75346000D02*
X155644001Y-75346000D01*
G75*
G02*
X155894000Y-75595999I0J-249999D01*
G01*
X155894000Y-76296001D01*
G75*
G02*
X155644001Y-76546000I-249999J0D01*
G01*
X154743999Y-76546000D01*
G75*
G02*
X154494000Y-76296001I0J249999D01*
G01*
X154494000Y-75595999D01*
G75*
G02*
X154743999Y-75346000I249999J0D01*
G01*
G37*
G36*
G01*
X154743999Y-73346000D02*
X155644001Y-73346000D01*
G75*
G02*
X155894000Y-73595999I0J-249999D01*
G01*
X155894000Y-74296001D01*
G75*
G02*
X155644001Y-74546000I-249999J0D01*
G01*
X154743999Y-74546000D01*
G75*
G02*
X154494000Y-74296001I0J249999D01*
G01*
X154494000Y-73595999D01*
G75*
G02*
X154743999Y-73346000I249999J0D01*
G01*
G37*
%TD*%
%TO.C,R5*%
G36*
G01*
X155644001Y-85690000D02*
X154743999Y-85690000D01*
G75*
G02*
X154494000Y-85440001I0J249999D01*
G01*
X154494000Y-84739999D01*
G75*
G02*
X154743999Y-84490000I249999J0D01*
G01*
X155644001Y-84490000D01*
G75*
G02*
X155894000Y-84739999I0J-249999D01*
G01*
X155894000Y-85440001D01*
G75*
G02*
X155644001Y-85690000I-249999J0D01*
G01*
G37*
G36*
G01*
X155644001Y-87690000D02*
X154743999Y-87690000D01*
G75*
G02*
X154494000Y-87440001I0J249999D01*
G01*
X154494000Y-86739999D01*
G75*
G02*
X154743999Y-86490000I249999J0D01*
G01*
X155644001Y-86490000D01*
G75*
G02*
X155894000Y-86739999I0J-249999D01*
G01*
X155894000Y-87440001D01*
G75*
G02*
X155644001Y-87690000I-249999J0D01*
G01*
G37*
%TD*%
%TO.C,R4*%
G36*
G01*
X162900000Y-62950001D02*
X162900000Y-62049999D01*
G75*
G02*
X163149999Y-61800000I249999J0D01*
G01*
X163850001Y-61800000D01*
G75*
G02*
X164100000Y-62049999I0J-249999D01*
G01*
X164100000Y-62950001D01*
G75*
G02*
X163850001Y-63200000I-249999J0D01*
G01*
X163149999Y-63200000D01*
G75*
G02*
X162900000Y-62950001I0J249999D01*
G01*
G37*
G36*
G01*
X160900000Y-62950001D02*
X160900000Y-62049999D01*
G75*
G02*
X161149999Y-61800000I249999J0D01*
G01*
X161850001Y-61800000D01*
G75*
G02*
X162100000Y-62049999I0J-249999D01*
G01*
X162100000Y-62950001D01*
G75*
G02*
X161850001Y-63200000I-249999J0D01*
G01*
X161149999Y-63200000D01*
G75*
G02*
X160900000Y-62950001I0J249999D01*
G01*
G37*
%TD*%
%TO.C,R3*%
G36*
G01*
X162900000Y-58950001D02*
X162900000Y-58049999D01*
G75*
G02*
X163149999Y-57800000I249999J0D01*
G01*
X163850001Y-57800000D01*
G75*
G02*
X164100000Y-58049999I0J-249999D01*
G01*
X164100000Y-58950001D01*
G75*
G02*
X163850001Y-59200000I-249999J0D01*
G01*
X163149999Y-59200000D01*
G75*
G02*
X162900000Y-58950001I0J249999D01*
G01*
G37*
G36*
G01*
X160900000Y-58950001D02*
X160900000Y-58049999D01*
G75*
G02*
X161149999Y-57800000I249999J0D01*
G01*
X161850001Y-57800000D01*
G75*
G02*
X162100000Y-58049999I0J-249999D01*
G01*
X162100000Y-58950001D01*
G75*
G02*
X161850001Y-59200000I-249999J0D01*
G01*
X161149999Y-59200000D01*
G75*
G02*
X160900000Y-58950001I0J249999D01*
G01*
G37*
%TD*%
%TO.C,R2*%
G36*
G01*
X162900000Y-66950001D02*
X162900000Y-66049999D01*
G75*
G02*
X163149999Y-65800000I249999J0D01*
G01*
X163850001Y-65800000D01*
G75*
G02*
X164100000Y-66049999I0J-249999D01*
G01*
X164100000Y-66950001D01*
G75*
G02*
X163850001Y-67200000I-249999J0D01*
G01*
X163149999Y-67200000D01*
G75*
G02*
X162900000Y-66950001I0J249999D01*
G01*
G37*
G36*
G01*
X160900000Y-66950001D02*
X160900000Y-66049999D01*
G75*
G02*
X161149999Y-65800000I249999J0D01*
G01*
X161850001Y-65800000D01*
G75*
G02*
X162100000Y-66049999I0J-249999D01*
G01*
X162100000Y-66950001D01*
G75*
G02*
X161850001Y-67200000I-249999J0D01*
G01*
X161149999Y-67200000D01*
G75*
G02*
X160900000Y-66950001I0J249999D01*
G01*
G37*
%TD*%
%TO.C,R1*%
G36*
G01*
X149260000Y-75126001D02*
X149260000Y-74225999D01*
G75*
G02*
X149509999Y-73976000I249999J0D01*
G01*
X150210001Y-73976000D01*
G75*
G02*
X150460000Y-74225999I0J-249999D01*
G01*
X150460000Y-75126001D01*
G75*
G02*
X150210001Y-75376000I-249999J0D01*
G01*
X149509999Y-75376000D01*
G75*
G02*
X149260000Y-75126001I0J249999D01*
G01*
G37*
G36*
G01*
X147260000Y-75126001D02*
X147260000Y-74225999D01*
G75*
G02*
X147509999Y-73976000I249999J0D01*
G01*
X148210001Y-73976000D01*
G75*
G02*
X148460000Y-74225999I0J-249999D01*
G01*
X148460000Y-75126001D01*
G75*
G02*
X148210001Y-75376000I-249999J0D01*
G01*
X147509999Y-75376000D01*
G75*
G02*
X147260000Y-75126001I0J249999D01*
G01*
G37*
%TD*%
D13*
%TO.C,P1*%
X154350000Y-119490000D03*
X155150000Y-119490000D03*
X155950000Y-119490000D03*
X157550000Y-119490000D03*
X158350000Y-119490000D03*
X159150000Y-119490000D03*
X153950000Y-118790000D03*
X155550000Y-118790000D03*
X156350000Y-118790000D03*
X157150000Y-118790000D03*
X157950000Y-118790000D03*
X159550000Y-118790000D03*
X153150000Y-118140000D03*
D14*
X160350000Y-118140000D03*
D15*
X152260000Y-125340000D03*
X161240000Y-125340000D03*
X160880000Y-119390000D03*
D16*
X159000000Y-117480000D03*
X157500000Y-117480000D03*
X158000000Y-117480000D03*
X158500000Y-117480000D03*
X159500000Y-117480000D03*
X157000000Y-117480000D03*
X156500000Y-117480000D03*
X156000000Y-117480000D03*
X155500000Y-117480000D03*
X155000000Y-117480000D03*
X154500000Y-117480000D03*
X154000000Y-117480000D03*
D15*
X152620000Y-119390000D03*
%TD*%
D17*
%TO.C,JP4*%
X152500000Y-70500000D03*
X152500000Y-68500000D03*
D18*
X152500000Y-66500000D03*
%TD*%
D17*
%TO.C,JP3*%
X147000000Y-70500000D03*
X147000000Y-68500000D03*
D18*
X147000000Y-66500000D03*
%TD*%
D17*
%TO.C,JP2*%
X139000000Y-70500000D03*
X139000000Y-68500000D03*
D18*
X139000000Y-66500000D03*
%TD*%
D17*
%TO.C,JP1*%
X143000000Y-70500000D03*
X143000000Y-68500000D03*
D18*
X143000000Y-66500000D03*
%TD*%
D19*
%TO.C,J6*%
X184870000Y-79980000D03*
D20*
X184870000Y-84980000D03*
%TD*%
D21*
%TO.C,J5*%
X121124980Y-80783220D03*
D22*
X122649980Y-79308220D03*
D21*
X121124980Y-77833220D03*
%TD*%
D17*
%TO.C,J4*%
X138000000Y-53000000D03*
X138000000Y-55000000D03*
X140000000Y-53000000D03*
X140000000Y-55000000D03*
X142000000Y-53000000D03*
X142000000Y-55000000D03*
X144000000Y-53000000D03*
X144000000Y-55000000D03*
X146000000Y-53000000D03*
D18*
X146000000Y-55000000D03*
%TD*%
D17*
%TO.C,J3*%
X161500000Y-85500000D03*
X159500000Y-85500000D03*
X161500000Y-87500000D03*
X159500000Y-87500000D03*
X161500000Y-89500000D03*
X159500000Y-89500000D03*
X161500000Y-91500000D03*
X159500000Y-91500000D03*
X161500000Y-93500000D03*
D18*
X159500000Y-93500000D03*
%TD*%
D17*
%TO.C,J2*%
X136750000Y-88500000D03*
D18*
X136750000Y-86500000D03*
%TD*%
D17*
%TO.C,J1*%
X165820000Y-83170000D03*
D18*
X165820000Y-81170000D03*
%TD*%
D23*
%TO.C,IC1*%
X131500000Y-81250000D03*
X131500000Y-79250000D03*
X129500000Y-81250000D03*
X129500000Y-79250000D03*
X127500000Y-81250000D03*
X127500000Y-79250000D03*
D24*
X126250000Y-77150000D03*
X126900000Y-77150000D03*
X127550000Y-77150000D03*
X128200000Y-77150000D03*
X128850000Y-77150000D03*
X129500000Y-77150000D03*
X130150000Y-77150000D03*
X130800000Y-77150000D03*
X131450000Y-77150000D03*
X132100000Y-77150000D03*
X132750000Y-77150000D03*
D25*
X133600000Y-77975000D03*
X133600000Y-78625000D03*
X133600000Y-79275000D03*
X133600000Y-79925000D03*
X133600000Y-80575000D03*
X133600000Y-81225000D03*
X133600000Y-81875000D03*
X133600000Y-82525000D03*
D24*
X132750000Y-83350000D03*
X132100000Y-83350000D03*
X131450000Y-83350000D03*
X130800000Y-83350000D03*
X130150000Y-83350000D03*
X129500000Y-83350000D03*
X128850000Y-83350000D03*
X128200000Y-83350000D03*
X127550000Y-83350000D03*
X126900000Y-83350000D03*
X126250000Y-83350000D03*
D25*
X125400000Y-82525000D03*
X125400000Y-81875000D03*
X125400000Y-81225000D03*
X125400000Y-80575000D03*
X125400000Y-79925000D03*
X125400000Y-79275000D03*
X125400000Y-78625000D03*
X125400000Y-77975000D03*
%TD*%
D26*
%TO.C,H4*%
X133197056Y-53802944D03*
X131500000Y-53100000D03*
X129802944Y-53802944D03*
X129100000Y-55500000D03*
X129802944Y-57197056D03*
X131500000Y-57900000D03*
X133197056Y-57197056D03*
X133900000Y-55500000D03*
D27*
X131500000Y-55500000D03*
%TD*%
D26*
%TO.C,H3*%
X133197056Y-103802944D03*
X131500000Y-103100000D03*
X129802944Y-103802944D03*
X129100000Y-105500000D03*
X129802944Y-107197056D03*
X131500000Y-107900000D03*
X133197056Y-107197056D03*
X133900000Y-105500000D03*
D27*
X131500000Y-105500000D03*
%TD*%
D26*
%TO.C,H2*%
X183197056Y-103802944D03*
X181500000Y-103100000D03*
X179802944Y-103802944D03*
X179100000Y-105500000D03*
X179802944Y-107197056D03*
X181500000Y-107900000D03*
X183197056Y-107197056D03*
X183900000Y-105500000D03*
D27*
X181500000Y-105500000D03*
%TD*%
D26*
%TO.C,H1*%
X183197056Y-53802944D03*
X181500000Y-53100000D03*
X179802944Y-53802944D03*
X179100000Y-55500000D03*
X179802944Y-57197056D03*
X181500000Y-57900000D03*
X183197056Y-57197056D03*
X183900000Y-55500000D03*
D27*
X181500000Y-55500000D03*
%TD*%
%TO.C,FB1*%
G36*
G01*
X173790000Y-76327500D02*
X173790000Y-75852500D01*
G75*
G02*
X174027500Y-75615000I237500J0D01*
G01*
X174602500Y-75615000D01*
G75*
G02*
X174840000Y-75852500I0J-237500D01*
G01*
X174840000Y-76327500D01*
G75*
G02*
X174602500Y-76565000I-237500J0D01*
G01*
X174027500Y-76565000D01*
G75*
G02*
X173790000Y-76327500I0J237500D01*
G01*
G37*
G36*
G01*
X172040000Y-76327500D02*
X172040000Y-75852500D01*
G75*
G02*
X172277500Y-75615000I237500J0D01*
G01*
X172852500Y-75615000D01*
G75*
G02*
X173090000Y-75852500I0J-237500D01*
G01*
X173090000Y-76327500D01*
G75*
G02*
X172852500Y-76565000I-237500J0D01*
G01*
X172277500Y-76565000D01*
G75*
G02*
X172040000Y-76327500I0J237500D01*
G01*
G37*
%TD*%
%TO.C,F1*%
G36*
G01*
X174812500Y-80975001D02*
X174812500Y-78824999D01*
G75*
G02*
X175062499Y-78575000I249999J0D01*
G01*
X176087501Y-78575000D01*
G75*
G02*
X176337500Y-78824999I0J-249999D01*
G01*
X176337500Y-80975001D01*
G75*
G02*
X176087501Y-81225000I-249999J0D01*
G01*
X175062499Y-81225000D01*
G75*
G02*
X174812500Y-80975001I0J249999D01*
G01*
G37*
G36*
G01*
X170137500Y-80975001D02*
X170137500Y-78824999D01*
G75*
G02*
X170387499Y-78575000I249999J0D01*
G01*
X171412501Y-78575000D01*
G75*
G02*
X171662500Y-78824999I0J-249999D01*
G01*
X171662500Y-80975001D01*
G75*
G02*
X171412501Y-81225000I-249999J0D01*
G01*
X170387499Y-81225000D01*
G75*
G02*
X170137500Y-80975001I0J249999D01*
G01*
G37*
%TD*%
%TO.C,D6*%
G36*
G01*
X133900000Y-87487500D02*
X133100000Y-87487500D01*
G75*
G02*
X132850000Y-87237500I0J250000D01*
G01*
X132850000Y-86412500D01*
G75*
G02*
X133100000Y-86162500I250000J0D01*
G01*
X133900000Y-86162500D01*
G75*
G02*
X134150000Y-86412500I0J-250000D01*
G01*
X134150000Y-87237500D01*
G75*
G02*
X133900000Y-87487500I-250000J0D01*
G01*
G37*
G36*
G01*
X133900000Y-89412500D02*
X133100000Y-89412500D01*
G75*
G02*
X132850000Y-89162500I0J250000D01*
G01*
X132850000Y-88337500D01*
G75*
G02*
X133100000Y-88087500I250000J0D01*
G01*
X133900000Y-88087500D01*
G75*
G02*
X134150000Y-88337500I0J-250000D01*
G01*
X134150000Y-89162500D01*
G75*
G02*
X133900000Y-89412500I-250000J0D01*
G01*
G37*
%TD*%
%TO.C,D5*%
G36*
G01*
X131650000Y-87412500D02*
X130850000Y-87412500D01*
G75*
G02*
X130600000Y-87162500I0J250000D01*
G01*
X130600000Y-86337500D01*
G75*
G02*
X130850000Y-86087500I250000J0D01*
G01*
X131650000Y-86087500D01*
G75*
G02*
X131900000Y-86337500I0J-250000D01*
G01*
X131900000Y-87162500D01*
G75*
G02*
X131650000Y-87412500I-250000J0D01*
G01*
G37*
G36*
G01*
X131650000Y-89337500D02*
X130850000Y-89337500D01*
G75*
G02*
X130600000Y-89087500I0J250000D01*
G01*
X130600000Y-88262500D01*
G75*
G02*
X130850000Y-88012500I250000J0D01*
G01*
X131650000Y-88012500D01*
G75*
G02*
X131900000Y-88262500I0J-250000D01*
G01*
X131900000Y-89087500D01*
G75*
G02*
X131650000Y-89337500I-250000J0D01*
G01*
G37*
%TD*%
%TO.C,D4*%
G36*
G01*
X158237500Y-62100000D02*
X158237500Y-62900000D01*
G75*
G02*
X157987500Y-63150000I-250000J0D01*
G01*
X157162500Y-63150000D01*
G75*
G02*
X156912500Y-62900000I0J250000D01*
G01*
X156912500Y-62100000D01*
G75*
G02*
X157162500Y-61850000I250000J0D01*
G01*
X157987500Y-61850000D01*
G75*
G02*
X158237500Y-62100000I0J-250000D01*
G01*
G37*
G36*
G01*
X160162500Y-62100000D02*
X160162500Y-62900000D01*
G75*
G02*
X159912500Y-63150000I-250000J0D01*
G01*
X159087500Y-63150000D01*
G75*
G02*
X158837500Y-62900000I0J250000D01*
G01*
X158837500Y-62100000D01*
G75*
G02*
X159087500Y-61850000I250000J0D01*
G01*
X159912500Y-61850000D01*
G75*
G02*
X160162500Y-62100000I0J-250000D01*
G01*
G37*
%TD*%
%TO.C,D3*%
G36*
G01*
X158237500Y-58100000D02*
X158237500Y-58900000D01*
G75*
G02*
X157987500Y-59150000I-250000J0D01*
G01*
X157162500Y-59150000D01*
G75*
G02*
X156912500Y-58900000I0J250000D01*
G01*
X156912500Y-58100000D01*
G75*
G02*
X157162500Y-57850000I250000J0D01*
G01*
X157987500Y-57850000D01*
G75*
G02*
X158237500Y-58100000I0J-250000D01*
G01*
G37*
G36*
G01*
X160162500Y-58100000D02*
X160162500Y-58900000D01*
G75*
G02*
X159912500Y-59150000I-250000J0D01*
G01*
X159087500Y-59150000D01*
G75*
G02*
X158837500Y-58900000I0J250000D01*
G01*
X158837500Y-58100000D01*
G75*
G02*
X159087500Y-57850000I250000J0D01*
G01*
X159912500Y-57850000D01*
G75*
G02*
X160162500Y-58100000I0J-250000D01*
G01*
G37*
%TD*%
%TO.C,D2*%
G36*
G01*
X158200000Y-66100000D02*
X158200000Y-66900000D01*
G75*
G02*
X157950000Y-67150000I-250000J0D01*
G01*
X157125000Y-67150000D01*
G75*
G02*
X156875000Y-66900000I0J250000D01*
G01*
X156875000Y-66100000D01*
G75*
G02*
X157125000Y-65850000I250000J0D01*
G01*
X157950000Y-65850000D01*
G75*
G02*
X158200000Y-66100000I0J-250000D01*
G01*
G37*
G36*
G01*
X160125000Y-66100000D02*
X160125000Y-66900000D01*
G75*
G02*
X159875000Y-67150000I-250000J0D01*
G01*
X159050000Y-67150000D01*
G75*
G02*
X158800000Y-66900000I0J250000D01*
G01*
X158800000Y-66100000D01*
G75*
G02*
X159050000Y-65850000I250000J0D01*
G01*
X159875000Y-65850000D01*
G75*
G02*
X160125000Y-66100000I0J-250000D01*
G01*
G37*
%TD*%
D10*
%TO.C,D1*%
G36*
X178500000Y-83830000D02*
G01*
X178500000Y-86130000D01*
X174900000Y-85530000D01*
X174900000Y-84430000D01*
X178500000Y-83830000D01*
G37*
G36*
X169100000Y-86130000D02*
G01*
X169100000Y-83830000D01*
X172700000Y-84430000D01*
X172700000Y-85530000D01*
X169100000Y-86130000D01*
G37*
%TD*%
%TO.C,C8*%
G36*
G01*
X132675000Y-74262500D02*
X132675000Y-74737500D01*
G75*
G02*
X132437500Y-74975000I-237500J0D01*
G01*
X131837500Y-74975000D01*
G75*
G02*
X131600000Y-74737500I0J237500D01*
G01*
X131600000Y-74262500D01*
G75*
G02*
X131837500Y-74025000I237500J0D01*
G01*
X132437500Y-74025000D01*
G75*
G02*
X132675000Y-74262500I0J-237500D01*
G01*
G37*
G36*
G01*
X134400000Y-74262500D02*
X134400000Y-74737500D01*
G75*
G02*
X134162500Y-74975000I-237500J0D01*
G01*
X133562500Y-74975000D01*
G75*
G02*
X133325000Y-74737500I0J237500D01*
G01*
X133325000Y-74262500D01*
G75*
G02*
X133562500Y-74025000I237500J0D01*
G01*
X134162500Y-74025000D01*
G75*
G02*
X134400000Y-74262500I0J-237500D01*
G01*
G37*
%TD*%
%TO.C,C7*%
G36*
G01*
X165487500Y-74425000D02*
X165012500Y-74425000D01*
G75*
G02*
X164775000Y-74187500I0J237500D01*
G01*
X164775000Y-73587500D01*
G75*
G02*
X165012500Y-73350000I237500J0D01*
G01*
X165487500Y-73350000D01*
G75*
G02*
X165725000Y-73587500I0J-237500D01*
G01*
X165725000Y-74187500D01*
G75*
G02*
X165487500Y-74425000I-237500J0D01*
G01*
G37*
G36*
G01*
X165487500Y-76150000D02*
X165012500Y-76150000D01*
G75*
G02*
X164775000Y-75912500I0J237500D01*
G01*
X164775000Y-75312500D01*
G75*
G02*
X165012500Y-75075000I237500J0D01*
G01*
X165487500Y-75075000D01*
G75*
G02*
X165725000Y-75312500I0J-237500D01*
G01*
X165725000Y-75912500D01*
G75*
G02*
X165487500Y-76150000I-237500J0D01*
G01*
G37*
%TD*%
%TO.C,C6*%
G36*
G01*
X168062500Y-71512500D02*
X168062500Y-71987500D01*
G75*
G02*
X167825000Y-72225000I-237500J0D01*
G01*
X167225000Y-72225000D01*
G75*
G02*
X166987500Y-71987500I0J237500D01*
G01*
X166987500Y-71512500D01*
G75*
G02*
X167225000Y-71275000I237500J0D01*
G01*
X167825000Y-71275000D01*
G75*
G02*
X168062500Y-71512500I0J-237500D01*
G01*
G37*
G36*
G01*
X169787500Y-71512500D02*
X169787500Y-71987500D01*
G75*
G02*
X169550000Y-72225000I-237500J0D01*
G01*
X168950000Y-72225000D01*
G75*
G02*
X168712500Y-71987500I0J237500D01*
G01*
X168712500Y-71512500D01*
G75*
G02*
X168950000Y-71275000I237500J0D01*
G01*
X169550000Y-71275000D01*
G75*
G02*
X169787500Y-71512500I0J-237500D01*
G01*
G37*
%TD*%
%TO.C,C5*%
G36*
G01*
X138737500Y-75675000D02*
X138262500Y-75675000D01*
G75*
G02*
X138025000Y-75437500I0J237500D01*
G01*
X138025000Y-74837500D01*
G75*
G02*
X138262500Y-74600000I237500J0D01*
G01*
X138737500Y-74600000D01*
G75*
G02*
X138975000Y-74837500I0J-237500D01*
G01*
X138975000Y-75437500D01*
G75*
G02*
X138737500Y-75675000I-237500J0D01*
G01*
G37*
G36*
G01*
X138737500Y-77400000D02*
X138262500Y-77400000D01*
G75*
G02*
X138025000Y-77162500I0J237500D01*
G01*
X138025000Y-76562500D01*
G75*
G02*
X138262500Y-76325000I237500J0D01*
G01*
X138737500Y-76325000D01*
G75*
G02*
X138975000Y-76562500I0J-237500D01*
G01*
X138975000Y-77162500D01*
G75*
G02*
X138737500Y-77400000I-237500J0D01*
G01*
G37*
%TD*%
%TO.C,C4*%
G36*
G01*
X143493500Y-92993500D02*
X143018500Y-92993500D01*
G75*
G02*
X142781000Y-92756000I0J237500D01*
G01*
X142781000Y-92156000D01*
G75*
G02*
X143018500Y-91918500I237500J0D01*
G01*
X143493500Y-91918500D01*
G75*
G02*
X143731000Y-92156000I0J-237500D01*
G01*
X143731000Y-92756000D01*
G75*
G02*
X143493500Y-92993500I-237500J0D01*
G01*
G37*
G36*
G01*
X143493500Y-94718500D02*
X143018500Y-94718500D01*
G75*
G02*
X142781000Y-94481000I0J237500D01*
G01*
X142781000Y-93881000D01*
G75*
G02*
X143018500Y-93643500I237500J0D01*
G01*
X143493500Y-93643500D01*
G75*
G02*
X143731000Y-93881000I0J-237500D01*
G01*
X143731000Y-94481000D01*
G75*
G02*
X143493500Y-94718500I-237500J0D01*
G01*
G37*
%TD*%
%TO.C,C3*%
G36*
G01*
X144089000Y-74405500D02*
X144089000Y-73930500D01*
G75*
G02*
X144326500Y-73693000I237500J0D01*
G01*
X144926500Y-73693000D01*
G75*
G02*
X145164000Y-73930500I0J-237500D01*
G01*
X145164000Y-74405500D01*
G75*
G02*
X144926500Y-74643000I-237500J0D01*
G01*
X144326500Y-74643000D01*
G75*
G02*
X144089000Y-74405500I0J237500D01*
G01*
G37*
G36*
G01*
X142364000Y-74405500D02*
X142364000Y-73930500D01*
G75*
G02*
X142601500Y-73693000I237500J0D01*
G01*
X143201500Y-73693000D01*
G75*
G02*
X143439000Y-73930500I0J-237500D01*
G01*
X143439000Y-74405500D01*
G75*
G02*
X143201500Y-74643000I-237500J0D01*
G01*
X142601500Y-74643000D01*
G75*
G02*
X142364000Y-74405500I0J237500D01*
G01*
G37*
%TD*%
%TO.C,C2*%
G36*
G01*
X143537500Y-87762500D02*
X143537500Y-88237500D01*
G75*
G02*
X143300000Y-88475000I-237500J0D01*
G01*
X142700000Y-88475000D01*
G75*
G02*
X142462500Y-88237500I0J237500D01*
G01*
X142462500Y-87762500D01*
G75*
G02*
X142700000Y-87525000I237500J0D01*
G01*
X143300000Y-87525000D01*
G75*
G02*
X143537500Y-87762500I0J-237500D01*
G01*
G37*
G36*
G01*
X145262500Y-87762500D02*
X145262500Y-88237500D01*
G75*
G02*
X145025000Y-88475000I-237500J0D01*
G01*
X144425000Y-88475000D01*
G75*
G02*
X144187500Y-88237500I0J237500D01*
G01*
X144187500Y-87762500D01*
G75*
G02*
X144425000Y-87525000I237500J0D01*
G01*
X145025000Y-87525000D01*
G75*
G02*
X145262500Y-87762500I0J-237500D01*
G01*
G37*
%TD*%
%TO.C,C1*%
G36*
G01*
X143487500Y-89762500D02*
X143487500Y-90237500D01*
G75*
G02*
X143250000Y-90475000I-237500J0D01*
G01*
X142750000Y-90475000D01*
G75*
G02*
X142512500Y-90237500I0J237500D01*
G01*
X142512500Y-89762500D01*
G75*
G02*
X142750000Y-89525000I237500J0D01*
G01*
X143250000Y-89525000D01*
G75*
G02*
X143487500Y-89762500I0J-237500D01*
G01*
G37*
G36*
G01*
X145312500Y-89762500D02*
X145312500Y-90237500D01*
G75*
G02*
X145075000Y-90475000I-237500J0D01*
G01*
X144575000Y-90475000D01*
G75*
G02*
X144337500Y-90237500I0J237500D01*
G01*
X144337500Y-89762500D01*
G75*
G02*
X144575000Y-89525000I237500J0D01*
G01*
X145075000Y-89525000D01*
G75*
G02*
X145312500Y-89762500I0J-237500D01*
G01*
G37*
%TD*%
M02*
