%TF.GenerationSoftware,KiCad,Pcbnew,(5.1.10)-1*%
%TF.CreationDate,2021-07-04T14:07:11+01:00*%
%TF.ProjectId,Abhoinn_IoT_V2,4162686f-696e-46e5-9f49-6f545f56322e,rev?*%
%TF.SameCoordinates,Original*%
%TF.FileFunction,Legend,Bot*%
%TF.FilePolarity,Positive*%
%FSLAX46Y46*%
G04 Gerber Fmt 4.6, Leading zero omitted, Abs format (unit mm)*
G04 Created by KiCad (PCBNEW (5.1.10)-1) date 2021-07-04 14:07:11*
%MOMM*%
%LPD*%
G01*
G04 APERTURE LIST*
%ADD10C,0.200000*%
%ADD11C,0.120000*%
%ADD12C,0.254000*%
%ADD13C,0.150000*%
G04 APERTURE END LIST*
D10*
%TO.C,IC2*%
X158700000Y-79400000D02*
X158700000Y-79400000D01*
X158600000Y-79400000D02*
X158600000Y-79400000D01*
X158700000Y-79400000D02*
X158700000Y-79400000D01*
X158600000Y-79400000D02*
G75*
G03*
X158700000Y-79400000I50000J0D01*
G01*
X158700000Y-79400000D02*
G75*
G03*
X158600000Y-79400000I-50000J0D01*
G01*
X158600000Y-79400000D02*
G75*
G03*
X158700000Y-79400000I50000J0D01*
G01*
D11*
%TO.C,C9*%
X160272000Y-80117733D02*
X160272000Y-80410267D01*
X161292000Y-80117733D02*
X161292000Y-80410267D01*
%TO.C,IC2*%
D12*
X158014761Y-81074523D02*
X158014761Y-79804523D01*
X156684285Y-80953571D02*
X156744761Y-81014047D01*
X156926190Y-81074523D01*
X157047142Y-81074523D01*
X157228571Y-81014047D01*
X157349523Y-80893095D01*
X157410000Y-80772142D01*
X157470476Y-80530238D01*
X157470476Y-80348809D01*
X157410000Y-80106904D01*
X157349523Y-79985952D01*
X157228571Y-79865000D01*
X157047142Y-79804523D01*
X156926190Y-79804523D01*
X156744761Y-79865000D01*
X156684285Y-79925476D01*
X156200476Y-79925476D02*
X156140000Y-79865000D01*
X156019047Y-79804523D01*
X155716666Y-79804523D01*
X155595714Y-79865000D01*
X155535238Y-79925476D01*
X155474761Y-80046428D01*
X155474761Y-80167380D01*
X155535238Y-80348809D01*
X156260952Y-81074523D01*
X155474761Y-81074523D01*
%TO.C,C9*%
D13*
X159709142Y-80097333D02*
X159756761Y-80049714D01*
X159804380Y-79906857D01*
X159804380Y-79811619D01*
X159756761Y-79668761D01*
X159661523Y-79573523D01*
X159566285Y-79525904D01*
X159375809Y-79478285D01*
X159232952Y-79478285D01*
X159042476Y-79525904D01*
X158947238Y-79573523D01*
X158852000Y-79668761D01*
X158804380Y-79811619D01*
X158804380Y-79906857D01*
X158852000Y-80049714D01*
X158899619Y-80097333D01*
X159804380Y-80573523D02*
X159804380Y-80764000D01*
X159756761Y-80859238D01*
X159709142Y-80906857D01*
X159566285Y-81002095D01*
X159375809Y-81049714D01*
X158994857Y-81049714D01*
X158899619Y-81002095D01*
X158852000Y-80954476D01*
X158804380Y-80859238D01*
X158804380Y-80668761D01*
X158852000Y-80573523D01*
X158899619Y-80525904D01*
X158994857Y-80478285D01*
X159232952Y-80478285D01*
X159328190Y-80525904D01*
X159375809Y-80573523D01*
X159423428Y-80668761D01*
X159423428Y-80859238D01*
X159375809Y-80954476D01*
X159328190Y-81002095D01*
X159232952Y-81049714D01*
%TD*%
M02*
