M48
; DRILL file {KiCad (5.1.10)-1} date 07/04/21 14:07:43
; FORMAT={-:-/ absolute / inch / decimal}
; #@! TF.CreationDate,2021-07-04T14:07:43+01:00
; #@! TF.GenerationSoftware,Kicad,Pcbnew,(5.1.10)-1
; #@! TF.FileFunction,Plated,1,4,PTH
FMAT,2
INCH
T1C0.0157
T2C0.0197
T3C0.0315
T4C0.0512
T5C0.1260
%
G90
G05
T1
X4.6654Y-2.9331
X4.6654Y-3.0512
X4.6654Y-3.1496
X4.6654Y-3.2677
X4.6654Y-3.3661
X4.7835Y-2.9331
X4.7835Y-3.3661
X4.7921Y-3.1224
X4.9213Y-2.9331
X4.9213Y-3.3661
X4.9715Y-3.1978
X4.9724Y-3.1516
X4.9734Y-3.0738
X5.0197Y-3.1594
X5.0571Y-3.1201
X5.0591Y-3.1988
X5.0984Y-2.9331
X5.0984Y-3.1594
X5.0984Y-3.3661
X5.1378Y-3.1988
X5.1398Y-3.1201
X5.1673Y-3.7008
X5.1772Y-3.1594
X5.2023Y-2.8923
X5.2559Y-3.7008
X5.2702Y-2.8991
X5.2953Y-3.0906
X5.3913Y-3.2016
X5.4118Y-3.2646
X5.58Y-2.92
X5.5879Y-3.0949
X5.5933Y-3.5433
X5.5946Y-3.4646
X5.6Y-3.64
X5.64Y-3.76
X5.694Y-2.8869
X5.7354Y-3.4646
X5.7367Y-3.5433
X5.8Y-3.39
X5.82Y-3.36
X5.8366Y-3.6516
X6.0335Y-3.6516
X6.061Y-4.6768
X6.063Y-4.5866
X6.0768Y-4.7043
X6.1083Y-4.7043
X6.11Y-3.04
X6.11Y-3.3
X6.11Y-3.48
X6.124Y-4.6768
X6.1398Y-4.7043
X6.1555Y-4.6768
X6.187Y-4.6768
X6.2028Y-4.7043
X6.2185Y-4.6768
X6.2343Y-4.7043
X6.2657Y-4.7043
X6.2795Y-4.5866
X6.2815Y-4.6768
X6.33Y-3.09
X6.33Y-3.23
X6.43Y-2.9
X6.4567Y-2.9764
X6.5Y-2.85
X6.53Y-2.81
X6.5531Y-2.9769
T2
X5.0827Y-2.185
X5.0827Y-4.1535
X5.1104Y-2.1182
X5.1104Y-2.2519
X5.1104Y-4.0867
X5.1104Y-4.2204
X5.1772Y-2.0906
X5.1772Y-2.2795
X5.1772Y-4.0591
X5.1772Y-4.248
X5.244Y-2.1182
X5.244Y-2.2519
X5.244Y-4.0867
X5.244Y-4.2204
X5.2717Y-2.185
X5.2717Y-4.1535
X7.0512Y-2.185
X7.0512Y-4.1535
X7.0789Y-2.1182
X7.0789Y-2.2519
X7.0789Y-4.0867
X7.0789Y-4.2204
X7.1457Y-2.0906
X7.1457Y-2.2795
X7.1457Y-4.0591
X7.1457Y-4.248
X7.2125Y-2.1182
X7.2125Y-2.2519
X7.2125Y-4.0867
X7.2125Y-4.2204
X7.2402Y-2.185
X7.2402Y-4.1535
T3
X5.3839Y-3.4055
X5.3839Y-3.4843
X5.4331Y-2.0866
X5.4331Y-2.1654
X5.4724Y-2.6181
X5.4724Y-2.6969
X5.4724Y-2.7756
X5.5118Y-2.0866
X5.5118Y-2.1654
X5.5906Y-2.0866
X5.5906Y-2.1654
X5.6299Y-2.6181
X5.6299Y-2.6969
X5.6299Y-2.7756
X5.6693Y-2.0866
X5.6693Y-2.1654
X5.748Y-2.0866
X5.748Y-2.1654
X5.7874Y-2.6181
X5.7874Y-2.6969
X5.7874Y-2.7756
X6.0039Y-2.6181
X6.0039Y-2.6969
X6.0039Y-2.7756
X6.2795Y-3.3661
X6.2795Y-3.4449
X6.2795Y-3.5236
X6.2795Y-3.6024
X6.2795Y-3.6811
X6.3583Y-3.3661
X6.3583Y-3.4449
X6.3583Y-3.5236
X6.3583Y-3.6024
X6.3583Y-3.6811
X6.5283Y-3.1957
X6.5283Y-3.2744
T4
X7.2783Y-3.1488
X7.2783Y-3.3457
T5
X5.1772Y-2.185
X5.1772Y-4.1535
X7.1457Y-2.185
X7.1457Y-4.1535
T2
G00X5.9945Y-4.9228
M15
G01X5.9945Y-4.9465
M16
G05
G00X6.0087Y-4.6886
M15
G01X6.0087Y-4.7122
M16
G05
G00X6.3339Y-4.6886
M15
G01X6.3339Y-4.7122
M16
G05
G00X6.348Y-4.9228
M15
G01X6.348Y-4.9465
M16
G05
T0
M30
