M48
; DRILL file {KiCad (5.1.10)-1} date 07/16/21 13:03:58
; FORMAT={-:-/ absolute / metric / decimal}
; #@! TF.CreationDate,2021-07-16T13:03:58+01:00
; #@! TF.GenerationSoftware,Kicad,Pcbnew,(5.1.10)-1
; #@! TF.FileFunction,Plated,1,4,PTH
FMAT,2
METRIC
T1C0.400
T2C0.500
T3C0.800
T4C1.300
T5C3.200
%
G90
G05
T1
X118.5Y-74.5
X118.5Y-77.5
X118.5Y-80.0
X118.5Y-83.0
X118.5Y-85.5
X121.5Y-74.5
X121.5Y-85.5
X121.719Y-79.308
X125.0Y-74.5
X125.0Y-85.5
X126.275Y-81.225
X126.3Y-80.05
X126.325Y-78.075
X127.5Y-80.25
X128.45Y-79.25
X128.5Y-81.25
X129.5Y-74.5
X129.5Y-80.25
X129.5Y-85.5
X130.5Y-81.25
X130.55Y-79.25
X131.25Y-94.0
X131.5Y-80.25
X132.137Y-73.463
X133.5Y-94.0
X133.862Y-73.638
X134.5Y-78.5
X136.94Y-81.32
X137.46Y-82.92
X137.512Y-76.862
X139.362Y-75.138
X141.732Y-74.168
X141.933Y-78.61
X142.07Y-90.0
X142.102Y-88.0
X142.24Y-92.456
X143.256Y-95.504
X144.626Y-73.326
X145.68Y-88.0
X145.712Y-90.0
X147.32Y-86.53
X147.828Y-85.344
X148.25Y-92.75
X153.25Y-92.75
X153.95Y-118.79
X154.0Y-116.5
X154.35Y-119.49
X155.15Y-119.49
X155.194Y-77.216
X155.194Y-83.82
X155.194Y-88.392
X155.55Y-118.79
X155.95Y-119.49
X156.35Y-118.79
X157.15Y-118.79
X157.55Y-119.49
X157.95Y-118.79
X158.35Y-119.49
X159.15Y-119.49
X159.5Y-116.5
X159.55Y-118.79
X160.782Y-78.486
X160.782Y-82.042
X162.5Y-77.5
X163.25Y-76.75
X163.3Y-71.125
X163.322Y-73.66
X163.35Y-68.65
X163.5Y-80.0
X164.0Y-75.6
X164.0Y-77.5
X164.0Y-79.0
X164.0Y-81.0
X164.75Y-78.25
X165.1Y-72.39
X165.5Y-68.5
X165.5Y-77.5
X165.5Y-79.0
X165.862Y-71.374
X166.25Y-78.25
X166.37Y-59.69
X166.37Y-62.23
X166.37Y-64.77
X166.37Y-67.31
X166.425Y-57.475
X166.45Y-75.612
X167.0Y-77.5
X167.0Y-79.0
X167.5Y-81.0
X167.64Y-68.58
X168.0Y-78.0
X168.0Y-80.0
X168.25Y-79.0
X170.18Y-68.58
X171.75Y-70.25
X172.72Y-68.58
X173.99Y-72.39
X174.0Y-70.25
X175.26Y-68.58
X176.53Y-74.93
X177.0Y-70.25
X177.0Y-72.5
X177.8Y-68.58
X178.75Y-80.0
X178.75Y-81.5
X178.8Y-77.6
X180.0Y-70.25
X180.0Y-72.5
X180.0Y-75.0
X180.34Y-68.58
X180.5Y-80.0
X180.5Y-81.5
X182.0Y-80.0
X182.0Y-81.5
X182.75Y-70.25
X182.75Y-72.5
X182.75Y-75.0
X182.88Y-68.58
X185.25Y-70.25
X185.25Y-72.5
X185.25Y-75.0
X185.42Y-68.58
X187.5Y-70.0
X187.5Y-72.5
X187.5Y-75.0
X187.5Y-77.5
X187.5Y-80.0
T2
X129.1Y-55.5
X129.1Y-105.5
X129.803Y-53.803
X129.803Y-57.197
X129.803Y-103.803
X129.803Y-107.197
X131.5Y-53.1
X131.5Y-57.9
X131.5Y-103.1
X131.5Y-107.9
X133.197Y-53.803
X133.197Y-57.197
X133.197Y-103.803
X133.197Y-107.197
X133.9Y-55.5
X133.9Y-105.5
X179.1Y-55.5
X179.1Y-105.5
X179.803Y-53.803
X179.803Y-57.197
X179.803Y-103.803
X179.803Y-107.197
X181.5Y-53.1
X181.5Y-57.9
X181.5Y-103.1
X181.5Y-107.9
X183.197Y-53.803
X183.197Y-57.197
X183.197Y-103.803
X183.197Y-107.197
X183.9Y-55.5
X183.9Y-105.5
T3
X136.75Y-86.5
X136.75Y-88.5
X138.0Y-53.0
X138.0Y-55.0
X139.0Y-66.5
X139.0Y-68.5
X139.0Y-70.5
X140.0Y-53.0
X140.0Y-55.0
X142.0Y-53.0
X142.0Y-55.0
X143.0Y-66.5
X143.0Y-68.5
X143.0Y-70.5
X144.0Y-53.0
X144.0Y-55.0
X146.0Y-53.0
X146.0Y-55.0
X147.0Y-66.5
X147.0Y-68.5
X147.0Y-70.5
X152.5Y-66.5
X152.5Y-68.5
X152.5Y-70.5
X159.5Y-85.5
X159.5Y-87.5
X159.5Y-89.5
X159.5Y-91.5
X159.5Y-93.5
X161.5Y-85.5
X161.5Y-87.5
X161.5Y-89.5
X161.5Y-91.5
X161.5Y-93.5
X165.82Y-81.17
X165.82Y-83.17
T4
X184.87Y-79.98
X184.87Y-84.98
T5
X131.5Y-55.5
X131.5Y-105.5
X181.5Y-55.5
X181.5Y-105.5
T2
G00X152.26Y-125.04
M15
G01X152.26Y-125.64
M16
G05
G00X152.62Y-119.09
M15
G01X152.62Y-119.69
M16
G05
G00X160.88Y-119.09
M15
G01X160.88Y-119.69
M16
G05
G00X161.24Y-125.04
M15
G01X161.24Y-125.64
M16
G05
T0
M30
