%TF.GenerationSoftware,KiCad,Pcbnew,(5.1.10)-1*%
%TF.CreationDate,2021-07-16T13:03:45+01:00*%
%TF.ProjectId,Abhoinn_IoT_V2,4162686f-696e-46e5-9f49-6f545f56322e,rev?*%
%TF.SameCoordinates,Original*%
%TF.FileFunction,Copper,L2,Inr*%
%TF.FilePolarity,Positive*%
%FSLAX46Y46*%
G04 Gerber Fmt 4.6, Leading zero omitted, Abs format (unit mm)*
G04 Created by KiCad (PCBNEW (5.1.10)-1) date 2021-07-16 13:03:45*
%MOMM*%
%LPD*%
G01*
G04 APERTURE LIST*
%TA.AperFunction,NonConductor*%
%ADD10C,0.150000*%
%TD*%
%TA.AperFunction,ComponentPad*%
%ADD11C,0.650000*%
%TD*%
%TA.AperFunction,ComponentPad*%
%ADD12O,0.800000X1.400000*%
%TD*%
%TA.AperFunction,ComponentPad*%
%ADD13O,1.350000X1.350000*%
%TD*%
%TA.AperFunction,ComponentPad*%
%ADD14R,1.350000X1.350000*%
%TD*%
%TA.AperFunction,ComponentPad*%
%ADD15C,2.600000*%
%TD*%
%TA.AperFunction,ComponentPad*%
%ADD16R,2.600000X2.600000*%
%TD*%
%TA.AperFunction,ComponentPad*%
%ADD17C,0.800000*%
%TD*%
%TA.AperFunction,ComponentPad*%
%ADD18C,6.400000*%
%TD*%
%TA.AperFunction,ViaPad*%
%ADD19C,0.800000*%
%TD*%
%TA.AperFunction,Conductor*%
%ADD20C,0.250000*%
%TD*%
%TA.AperFunction,Conductor*%
%ADD21C,0.254000*%
%TD*%
%TA.AperFunction,Conductor*%
%ADD22C,0.100000*%
%TD*%
G04 APERTURE END LIST*
D10*
X206500000Y-80500000D02*
G75*
G03*
X206500000Y-80500000I-50000000J0D01*
G01*
D11*
%TO.N,N/C*%
%TO.C,P1*%
X154350000Y-119490000D03*
X155150000Y-119490000D03*
X155950000Y-119490000D03*
%TO.N,+5V*%
X157550000Y-119490000D03*
%TO.N,N/C*%
X158350000Y-119490000D03*
X159150000Y-119490000D03*
%TO.N,GND*%
X153950000Y-118790000D03*
%TO.N,Net-(P1-PadA4)*%
X155550000Y-118790000D03*
%TO.N,N/C*%
X156350000Y-118790000D03*
X157150000Y-118790000D03*
%TO.N,Net-(P1-PadA4)*%
X157950000Y-118790000D03*
%TO.N,GND*%
X159550000Y-118790000D03*
D12*
%TO.N,Net-(P1-PadS1)*%
X152260000Y-125340000D03*
X161240000Y-125340000D03*
X160880000Y-119390000D03*
X152620000Y-119390000D03*
%TD*%
D13*
%TO.N,GND*%
%TO.C,JP4*%
X152500000Y-70500000D03*
%TO.N,Net-(D4-Pad2)*%
X152500000Y-68500000D03*
D14*
%TO.N,+3V3*%
X152500000Y-66500000D03*
%TD*%
D13*
%TO.N,GND*%
%TO.C,JP3*%
X147000000Y-70500000D03*
%TO.N,DBG_EN*%
X147000000Y-68500000D03*
D14*
%TO.N,+3V3*%
X147000000Y-66500000D03*
%TD*%
D13*
%TO.N,LED_RX*%
%TO.C,JP2*%
X139000000Y-70500000D03*
%TO.N,RX_LED+DBG_DATA*%
X139000000Y-68500000D03*
D14*
%TO.N,TS_DBG_DATA*%
X139000000Y-66500000D03*
%TD*%
D13*
%TO.N,LED_TX*%
%TO.C,JP1*%
X143000000Y-70500000D03*
%TO.N,TX_LED+DBG_CLK*%
X143000000Y-68500000D03*
D14*
%TO.N,TS_DBG_CLK*%
X143000000Y-66500000D03*
%TD*%
D15*
%TO.N,GND*%
%TO.C,J6*%
X184870000Y-79980000D03*
D16*
%TO.N,+5V*%
X184870000Y-84980000D03*
%TD*%
D13*
%TO.N,RESET_N*%
%TO.C,J4*%
X138000000Y-53000000D03*
%TO.N,GND*%
X138000000Y-55000000D03*
%TO.N,Net-(J4-Pad8)*%
X140000000Y-53000000D03*
%TO.N,Net-(J4-Pad7)*%
X140000000Y-55000000D03*
%TO.N,Net-(J4-Pad6)*%
X142000000Y-53000000D03*
%TO.N,GND*%
X142000000Y-55000000D03*
%TO.N,TS_DBG_CLK*%
X144000000Y-53000000D03*
%TO.N,GND*%
X144000000Y-55000000D03*
%TO.N,TS_DBG_DATA*%
X146000000Y-53000000D03*
D14*
%TO.N,+3V3*%
X146000000Y-55000000D03*
%TD*%
D13*
%TO.N,NRST*%
%TO.C,J3*%
X161500000Y-85500000D03*
%TO.N,GND*%
X159500000Y-85500000D03*
%TO.N,Net-(J3-Pad8)*%
X161500000Y-87500000D03*
%TO.N,Net-(J3-Pad7)*%
X159500000Y-87500000D03*
%TO.N,Net-(J3-Pad6)*%
X161500000Y-89500000D03*
%TO.N,GND*%
X159500000Y-89500000D03*
%TO.N,SWCLK*%
X161500000Y-91500000D03*
%TO.N,GND*%
X159500000Y-91500000D03*
%TO.N,SWDIO*%
X161500000Y-93500000D03*
D14*
%TO.N,+3V3*%
X159500000Y-93500000D03*
%TD*%
D13*
%TO.N,LPUART1_TX*%
%TO.C,J2*%
X136750000Y-88500000D03*
D14*
%TO.N,LPUART1_RX*%
X136750000Y-86500000D03*
%TD*%
D13*
%TO.N,GND*%
%TO.C,J1*%
X165820000Y-83170000D03*
D14*
%TO.N,+3V3*%
X165820000Y-81170000D03*
%TD*%
D17*
%TO.N,GND*%
%TO.C,H4*%
X133197056Y-53802944D03*
X131500000Y-53100000D03*
X129802944Y-53802944D03*
X129100000Y-55500000D03*
X129802944Y-57197056D03*
X131500000Y-57900000D03*
X133197056Y-57197056D03*
X133900000Y-55500000D03*
D18*
X131500000Y-55500000D03*
%TD*%
D17*
%TO.N,GND*%
%TO.C,H3*%
X133197056Y-103802944D03*
X131500000Y-103100000D03*
X129802944Y-103802944D03*
X129100000Y-105500000D03*
X129802944Y-107197056D03*
X131500000Y-107900000D03*
X133197056Y-107197056D03*
X133900000Y-105500000D03*
D18*
X131500000Y-105500000D03*
%TD*%
D17*
%TO.N,GND*%
%TO.C,H2*%
X183197056Y-103802944D03*
X181500000Y-103100000D03*
X179802944Y-103802944D03*
X179100000Y-105500000D03*
X179802944Y-107197056D03*
X181500000Y-107900000D03*
X183197056Y-107197056D03*
X183900000Y-105500000D03*
D18*
X181500000Y-105500000D03*
%TD*%
D17*
%TO.N,GND*%
%TO.C,H1*%
X183197056Y-53802944D03*
X181500000Y-53100000D03*
X179802944Y-53802944D03*
X179100000Y-55500000D03*
X179802944Y-57197056D03*
X181500000Y-57900000D03*
X183197056Y-57197056D03*
X183900000Y-55500000D03*
D18*
X181500000Y-55500000D03*
%TD*%
D19*
%TO.N,GND*%
X142240000Y-92456000D03*
X142070000Y-90000000D03*
X142102000Y-88000000D03*
X132137500Y-73463500D03*
X163322000Y-73660000D03*
X165100000Y-72390000D03*
X165862000Y-71374000D03*
X144626500Y-73326500D03*
X134500000Y-78500000D03*
X133500000Y-94000000D03*
X131250000Y-94000000D03*
X121718600Y-79308220D03*
X127500000Y-80250000D03*
X129500000Y-80250000D03*
X131500000Y-80250000D03*
X130550000Y-79250000D03*
X128450000Y-79250000D03*
X128500000Y-81250000D03*
X130500000Y-81250000D03*
X126325000Y-78075000D03*
X126300000Y-80050000D03*
X126275000Y-81225000D03*
X129500000Y-74500000D03*
X129500000Y-85500000D03*
X118500000Y-85500000D03*
X118500000Y-74500000D03*
X118500000Y-80000000D03*
X118500000Y-77500000D03*
X118500000Y-83000000D03*
X121500000Y-85500000D03*
X125000000Y-85500000D03*
X125000000Y-74500000D03*
X121500000Y-74500000D03*
X159500000Y-116500000D03*
X154000000Y-116500000D03*
X178750000Y-81500000D03*
X178750000Y-80000000D03*
X180500000Y-81500000D03*
X187500000Y-70000000D03*
X187500000Y-72500000D03*
X187500000Y-75000000D03*
X187500000Y-77500000D03*
X187500000Y-80000000D03*
X185420000Y-68580000D03*
X182880000Y-68580000D03*
X180340000Y-68580000D03*
X177800000Y-68580000D03*
X175260000Y-68580000D03*
X172720000Y-68580000D03*
X170180000Y-68580000D03*
X167640000Y-68580000D03*
X166370000Y-67310000D03*
X166370000Y-64770000D03*
X166370000Y-62230000D03*
X166370000Y-59690000D03*
X173990000Y-72390000D03*
X176530000Y-74930000D03*
X178800000Y-77600000D03*
X163350000Y-68650000D03*
X163300000Y-71125000D03*
X166425000Y-57475000D03*
X139362500Y-75137500D03*
X160782000Y-82042000D03*
X182000000Y-81500000D03*
X180500000Y-80000000D03*
X182000000Y-80000000D03*
X185250000Y-72500000D03*
X185250000Y-75000000D03*
X182750000Y-72500000D03*
X182750000Y-75000000D03*
X180000000Y-72500000D03*
X180000000Y-75000000D03*
X177000000Y-72500000D03*
X185250000Y-70250000D03*
X182750000Y-70250000D03*
X180000000Y-70250000D03*
X177000000Y-70250000D03*
X174000000Y-70250000D03*
X171750000Y-70250000D03*
X165500000Y-68500000D03*
%TO.N,+3V3*%
X141732000Y-74168000D03*
X145680000Y-88000000D03*
X145712000Y-90000000D03*
X143256000Y-95504000D03*
X155194000Y-88392000D03*
X166449500Y-75612500D03*
X164000000Y-75600000D03*
X133862500Y-73637500D03*
X137512500Y-76862500D03*
X167500000Y-81000000D03*
X162500000Y-77500000D03*
X164000000Y-77500000D03*
X165500000Y-77500000D03*
X167000000Y-77500000D03*
X167000000Y-79000000D03*
X165500000Y-79000000D03*
X164000000Y-79000000D03*
X168000000Y-80000000D03*
X164000000Y-81000000D03*
X163500000Y-80000000D03*
X160782000Y-78486000D03*
X168000000Y-78000000D03*
X164750000Y-78250000D03*
X166250000Y-78250000D03*
X168250000Y-79000000D03*
X163250000Y-76750000D03*
%TO.N,LPUART1_TX*%
X136940000Y-81320000D03*
%TO.N,LPUART1_RX*%
X137460000Y-82920000D03*
%TO.N,PRESSURE_SDA*%
X155194000Y-77216000D03*
X147828000Y-85344000D03*
%TO.N,PRESSURE_SCL*%
X155194000Y-83820000D03*
X147320000Y-86530000D03*
%TO.N,NRST*%
X141932660Y-78610460D03*
%TO.N,Net-(U2-Pad5)*%
X153250000Y-92750000D03*
%TO.N,Net-(U2-Pad2)*%
X148250000Y-92750000D03*
%TD*%
D20*
%TO.N,GND*%
X159500000Y-116500000D02*
X159500000Y-115000000D01*
X159500000Y-115000000D02*
X160000000Y-114500000D01*
X154000000Y-116500000D02*
X154000000Y-115000000D01*
%TD*%
D21*
%TO.N,GND*%
X189873000Y-55055605D02*
X189873000Y-105947394D01*
X174947394Y-120873000D01*
X139546981Y-120873000D01*
X137407505Y-119039163D01*
X151585000Y-119039163D01*
X151585000Y-119740838D01*
X151599976Y-119892895D01*
X151659160Y-120087993D01*
X151755267Y-120267797D01*
X151884605Y-120425396D01*
X152042204Y-120554734D01*
X152222008Y-120650841D01*
X152417106Y-120710024D01*
X152620000Y-120730007D01*
X152822895Y-120710024D01*
X153017993Y-120650841D01*
X153197797Y-120554734D01*
X153355396Y-120425396D01*
X153484734Y-120267797D01*
X153580841Y-120087992D01*
X153585257Y-120073435D01*
X153604319Y-120101964D01*
X153738036Y-120235681D01*
X153895269Y-120340741D01*
X154069978Y-120413108D01*
X154255448Y-120450000D01*
X154444552Y-120450000D01*
X154630022Y-120413108D01*
X154750000Y-120363411D01*
X154869978Y-120413108D01*
X155055448Y-120450000D01*
X155244552Y-120450000D01*
X155430022Y-120413108D01*
X155550000Y-120363411D01*
X155669978Y-120413108D01*
X155855448Y-120450000D01*
X156044552Y-120450000D01*
X156230022Y-120413108D01*
X156404731Y-120340741D01*
X156561964Y-120235681D01*
X156695681Y-120101964D01*
X156750000Y-120020670D01*
X156804319Y-120101964D01*
X156938036Y-120235681D01*
X157095269Y-120340741D01*
X157269978Y-120413108D01*
X157455448Y-120450000D01*
X157644552Y-120450000D01*
X157830022Y-120413108D01*
X157950000Y-120363411D01*
X158069978Y-120413108D01*
X158255448Y-120450000D01*
X158444552Y-120450000D01*
X158630022Y-120413108D01*
X158750000Y-120363411D01*
X158869978Y-120413108D01*
X159055448Y-120450000D01*
X159244552Y-120450000D01*
X159430022Y-120413108D01*
X159604731Y-120340741D01*
X159761964Y-120235681D01*
X159895681Y-120101964D01*
X159914744Y-120073435D01*
X159919160Y-120087993D01*
X160015267Y-120267797D01*
X160144605Y-120425396D01*
X160302204Y-120554734D01*
X160482008Y-120650841D01*
X160677106Y-120710024D01*
X160880000Y-120730007D01*
X161082895Y-120710024D01*
X161277993Y-120650841D01*
X161457797Y-120554734D01*
X161615396Y-120425396D01*
X161744734Y-120267797D01*
X161840841Y-120087992D01*
X161900024Y-119892894D01*
X161915000Y-119740837D01*
X161915000Y-119039162D01*
X161900024Y-118887105D01*
X161840841Y-118692007D01*
X161744734Y-118512203D01*
X161615396Y-118354604D01*
X161457797Y-118225266D01*
X161456325Y-118224479D01*
X161464645Y-118140000D01*
X161446110Y-117951807D01*
X161391216Y-117770846D01*
X161302073Y-117604072D01*
X161182107Y-117457893D01*
X161035928Y-117337927D01*
X160869154Y-117248784D01*
X160688193Y-117193890D01*
X160547162Y-117180000D01*
X160152838Y-117180000D01*
X160011807Y-117193890D01*
X159830846Y-117248784D01*
X159664072Y-117337927D01*
X159517893Y-117457893D01*
X159397927Y-117604072D01*
X159308784Y-117770846D01*
X159280423Y-117864338D01*
X159274972Y-117865392D01*
X159099874Y-117936813D01*
X159090677Y-117941730D01*
X159077069Y-118137464D01*
X159252371Y-118312766D01*
X159253890Y-118328193D01*
X159308784Y-118509154D01*
X159328894Y-118546776D01*
X159244552Y-118530000D01*
X159110395Y-118530000D01*
X158897464Y-118317069D01*
X158793414Y-118324303D01*
X158695681Y-118178036D01*
X158561964Y-118044319D01*
X158404731Y-117939259D01*
X158230022Y-117866892D01*
X158044552Y-117830000D01*
X157855448Y-117830000D01*
X157669978Y-117866892D01*
X157550000Y-117916589D01*
X157430022Y-117866892D01*
X157244552Y-117830000D01*
X157055448Y-117830000D01*
X156869978Y-117866892D01*
X156750000Y-117916589D01*
X156630022Y-117866892D01*
X156444552Y-117830000D01*
X156255448Y-117830000D01*
X156069978Y-117866892D01*
X155950000Y-117916589D01*
X155830022Y-117866892D01*
X155644552Y-117830000D01*
X155455448Y-117830000D01*
X155269978Y-117866892D01*
X155095269Y-117939259D01*
X154938036Y-118044319D01*
X154804319Y-118178036D01*
X154706586Y-118324303D01*
X154602536Y-118317069D01*
X154389605Y-118530000D01*
X154255448Y-118530000D01*
X154069978Y-118566892D01*
X153999965Y-118595892D01*
X154000741Y-118594731D01*
X154025544Y-118534851D01*
X154422931Y-118137464D01*
X154409323Y-117941730D01*
X154235008Y-117868419D01*
X154061942Y-117833021D01*
X154000741Y-117685269D01*
X153895681Y-117528036D01*
X153761964Y-117394319D01*
X153604731Y-117289259D01*
X153430022Y-117216892D01*
X153244552Y-117180000D01*
X153055448Y-117180000D01*
X152869978Y-117216892D01*
X152695269Y-117289259D01*
X152538036Y-117394319D01*
X152404319Y-117528036D01*
X152299259Y-117685269D01*
X152226892Y-117859978D01*
X152190000Y-118045448D01*
X152190000Y-118146267D01*
X152042203Y-118225266D01*
X151884604Y-118354604D01*
X151755266Y-118512203D01*
X151659159Y-118692008D01*
X151599976Y-118887106D01*
X151585000Y-119039163D01*
X137407505Y-119039163D01*
X124762843Y-108200881D01*
X128978724Y-108200881D01*
X129338912Y-108690548D01*
X130002882Y-109050849D01*
X130724385Y-109274694D01*
X131475695Y-109353480D01*
X132227938Y-109284178D01*
X132952208Y-109069452D01*
X133620670Y-108717555D01*
X133661088Y-108690548D01*
X134021276Y-108200881D01*
X178978724Y-108200881D01*
X179338912Y-108690548D01*
X180002882Y-109050849D01*
X180724385Y-109274694D01*
X181475695Y-109353480D01*
X182227938Y-109284178D01*
X182952208Y-109069452D01*
X183620670Y-108717555D01*
X183661088Y-108690548D01*
X184021276Y-108200881D01*
X181500000Y-105679605D01*
X178978724Y-108200881D01*
X134021276Y-108200881D01*
X131500000Y-105679605D01*
X128978724Y-108200881D01*
X124762843Y-108200881D01*
X122086354Y-105906748D01*
X121655301Y-105475695D01*
X127646520Y-105475695D01*
X127715822Y-106227938D01*
X127930548Y-106952208D01*
X128282445Y-107620670D01*
X128309452Y-107661088D01*
X128799119Y-108021276D01*
X131320395Y-105500000D01*
X131679605Y-105500000D01*
X134200881Y-108021276D01*
X134690548Y-107661088D01*
X135050849Y-106997118D01*
X135274694Y-106275615D01*
X135353480Y-105524305D01*
X135349002Y-105475695D01*
X177646520Y-105475695D01*
X177715822Y-106227938D01*
X177930548Y-106952208D01*
X178282445Y-107620670D01*
X178309452Y-107661088D01*
X178799119Y-108021276D01*
X181320395Y-105500000D01*
X181679605Y-105500000D01*
X184200881Y-108021276D01*
X184690548Y-107661088D01*
X185050849Y-106997118D01*
X185274694Y-106275615D01*
X185353480Y-105524305D01*
X185284178Y-104772062D01*
X185069452Y-104047792D01*
X184717555Y-103379330D01*
X184690548Y-103338912D01*
X184200881Y-102978724D01*
X181679605Y-105500000D01*
X181320395Y-105500000D01*
X178799119Y-102978724D01*
X178309452Y-103338912D01*
X177949151Y-104002882D01*
X177725306Y-104724385D01*
X177646520Y-105475695D01*
X135349002Y-105475695D01*
X135284178Y-104772062D01*
X135069452Y-104047792D01*
X134717555Y-103379330D01*
X134690548Y-103338912D01*
X134200881Y-102978724D01*
X131679605Y-105500000D01*
X131320395Y-105500000D01*
X128799119Y-102978724D01*
X128309452Y-103338912D01*
X127949151Y-104002882D01*
X127725306Y-104724385D01*
X127646520Y-105475695D01*
X121655301Y-105475695D01*
X118978725Y-102799119D01*
X128978724Y-102799119D01*
X131500000Y-105320395D01*
X134021276Y-102799119D01*
X178978724Y-102799119D01*
X181500000Y-105320395D01*
X184021276Y-102799119D01*
X183661088Y-102309452D01*
X182997118Y-101949151D01*
X182275615Y-101725306D01*
X181524305Y-101646520D01*
X180772062Y-101715822D01*
X180047792Y-101930548D01*
X179379330Y-102282445D01*
X179338912Y-102309452D01*
X178978724Y-102799119D01*
X134021276Y-102799119D01*
X133661088Y-102309452D01*
X132997118Y-101949151D01*
X132275615Y-101725306D01*
X131524305Y-101646520D01*
X130772062Y-101715822D01*
X130047792Y-101930548D01*
X129379330Y-102282445D01*
X129338912Y-102309452D01*
X128978724Y-102799119D01*
X118978725Y-102799119D01*
X116627000Y-100447394D01*
X116627000Y-95402061D01*
X142221000Y-95402061D01*
X142221000Y-95605939D01*
X142260774Y-95805898D01*
X142338795Y-95994256D01*
X142452063Y-96163774D01*
X142596226Y-96307937D01*
X142765744Y-96421205D01*
X142954102Y-96499226D01*
X143154061Y-96539000D01*
X143357939Y-96539000D01*
X143557898Y-96499226D01*
X143746256Y-96421205D01*
X143915774Y-96307937D01*
X144059937Y-96163774D01*
X144173205Y-95994256D01*
X144251226Y-95805898D01*
X144291000Y-95605939D01*
X144291000Y-95402061D01*
X144251226Y-95202102D01*
X144173205Y-95013744D01*
X144059937Y-94844226D01*
X143915774Y-94700063D01*
X143746256Y-94586795D01*
X143557898Y-94508774D01*
X143357939Y-94469000D01*
X143154061Y-94469000D01*
X142954102Y-94508774D01*
X142765744Y-94586795D01*
X142596226Y-94700063D01*
X142452063Y-94844226D01*
X142338795Y-95013744D01*
X142260774Y-95202102D01*
X142221000Y-95402061D01*
X116627000Y-95402061D01*
X116627000Y-92648061D01*
X147215000Y-92648061D01*
X147215000Y-92851939D01*
X147254774Y-93051898D01*
X147332795Y-93240256D01*
X147446063Y-93409774D01*
X147590226Y-93553937D01*
X147759744Y-93667205D01*
X147948102Y-93745226D01*
X148148061Y-93785000D01*
X148351939Y-93785000D01*
X148551898Y-93745226D01*
X148740256Y-93667205D01*
X148909774Y-93553937D01*
X149053937Y-93409774D01*
X149167205Y-93240256D01*
X149245226Y-93051898D01*
X149285000Y-92851939D01*
X149285000Y-92648061D01*
X152215000Y-92648061D01*
X152215000Y-92851939D01*
X152254774Y-93051898D01*
X152332795Y-93240256D01*
X152446063Y-93409774D01*
X152590226Y-93553937D01*
X152759744Y-93667205D01*
X152948102Y-93745226D01*
X153148061Y-93785000D01*
X153351939Y-93785000D01*
X153551898Y-93745226D01*
X153740256Y-93667205D01*
X153909774Y-93553937D01*
X154053937Y-93409774D01*
X154167205Y-93240256D01*
X154245226Y-93051898D01*
X154285000Y-92851939D01*
X154285000Y-92825000D01*
X158186928Y-92825000D01*
X158186928Y-94175000D01*
X158199188Y-94299482D01*
X158235498Y-94419180D01*
X158294463Y-94529494D01*
X158373815Y-94626185D01*
X158470506Y-94705537D01*
X158580820Y-94764502D01*
X158700518Y-94800812D01*
X158825000Y-94813072D01*
X160175000Y-94813072D01*
X160299482Y-94800812D01*
X160419180Y-94764502D01*
X160529494Y-94705537D01*
X160626185Y-94626185D01*
X160697487Y-94539303D01*
X160879482Y-94660907D01*
X161117887Y-94759658D01*
X161370976Y-94810000D01*
X161629024Y-94810000D01*
X161882113Y-94759658D01*
X162120518Y-94660907D01*
X162335077Y-94517544D01*
X162517544Y-94335077D01*
X162660907Y-94120518D01*
X162759658Y-93882113D01*
X162810000Y-93629024D01*
X162810000Y-93370976D01*
X162759658Y-93117887D01*
X162660907Y-92879482D01*
X162517544Y-92664923D01*
X162352621Y-92500000D01*
X162517544Y-92335077D01*
X162660907Y-92120518D01*
X162759658Y-91882113D01*
X162810000Y-91629024D01*
X162810000Y-91370976D01*
X162759658Y-91117887D01*
X162660907Y-90879482D01*
X162517544Y-90664923D01*
X162352621Y-90500000D01*
X162517544Y-90335077D01*
X162660907Y-90120518D01*
X162759658Y-89882113D01*
X162810000Y-89629024D01*
X162810000Y-89370976D01*
X162759658Y-89117887D01*
X162660907Y-88879482D01*
X162517544Y-88664923D01*
X162352621Y-88500000D01*
X162517544Y-88335077D01*
X162660907Y-88120518D01*
X162759658Y-87882113D01*
X162810000Y-87629024D01*
X162810000Y-87370976D01*
X162759658Y-87117887D01*
X162660907Y-86879482D01*
X162517544Y-86664923D01*
X162352621Y-86500000D01*
X162517544Y-86335077D01*
X162660907Y-86120518D01*
X162759658Y-85882113D01*
X162810000Y-85629024D01*
X162810000Y-85370976D01*
X162759658Y-85117887D01*
X162660907Y-84879482D01*
X162517544Y-84664923D01*
X162335077Y-84482456D01*
X162120518Y-84339093D01*
X161882113Y-84240342D01*
X161629024Y-84190000D01*
X161370976Y-84190000D01*
X161117887Y-84240342D01*
X160879482Y-84339093D01*
X160664923Y-84482456D01*
X160495285Y-84652094D01*
X160478303Y-84628773D01*
X160289537Y-84454656D01*
X160070430Y-84320711D01*
X159829401Y-84232085D01*
X159627000Y-84354915D01*
X159627000Y-85373000D01*
X159647000Y-85373000D01*
X159647000Y-85627000D01*
X159627000Y-85627000D01*
X159627000Y-85647000D01*
X159373000Y-85647000D01*
X159373000Y-85627000D01*
X158355776Y-85627000D01*
X158232090Y-85829400D01*
X158262762Y-85930528D01*
X158370527Y-86163629D01*
X158521697Y-86371227D01*
X158654060Y-86493319D01*
X158482456Y-86664923D01*
X158339093Y-86879482D01*
X158240342Y-87117887D01*
X158190000Y-87370976D01*
X158190000Y-87629024D01*
X158240342Y-87882113D01*
X158339093Y-88120518D01*
X158482456Y-88335077D01*
X158654060Y-88506681D01*
X158521697Y-88628773D01*
X158370527Y-88836371D01*
X158262762Y-89069472D01*
X158232090Y-89170600D01*
X158355776Y-89373000D01*
X159373000Y-89373000D01*
X159373000Y-89353000D01*
X159627000Y-89353000D01*
X159627000Y-89373000D01*
X159647000Y-89373000D01*
X159647000Y-89627000D01*
X159627000Y-89627000D01*
X159627000Y-91373000D01*
X159647000Y-91373000D01*
X159647000Y-91627000D01*
X159627000Y-91627000D01*
X159627000Y-91647000D01*
X159373000Y-91647000D01*
X159373000Y-91627000D01*
X158355776Y-91627000D01*
X158232090Y-91829400D01*
X158262762Y-91930528D01*
X158370527Y-92163629D01*
X158467559Y-92296881D01*
X158373815Y-92373815D01*
X158294463Y-92470506D01*
X158235498Y-92580820D01*
X158199188Y-92700518D01*
X158186928Y-92825000D01*
X154285000Y-92825000D01*
X154285000Y-92648061D01*
X154245226Y-92448102D01*
X154167205Y-92259744D01*
X154053937Y-92090226D01*
X153909774Y-91946063D01*
X153740256Y-91832795D01*
X153551898Y-91754774D01*
X153351939Y-91715000D01*
X153148061Y-91715000D01*
X152948102Y-91754774D01*
X152759744Y-91832795D01*
X152590226Y-91946063D01*
X152446063Y-92090226D01*
X152332795Y-92259744D01*
X152254774Y-92448102D01*
X152215000Y-92648061D01*
X149285000Y-92648061D01*
X149245226Y-92448102D01*
X149167205Y-92259744D01*
X149053937Y-92090226D01*
X148909774Y-91946063D01*
X148740256Y-91832795D01*
X148551898Y-91754774D01*
X148351939Y-91715000D01*
X148148061Y-91715000D01*
X147948102Y-91754774D01*
X147759744Y-91832795D01*
X147590226Y-91946063D01*
X147446063Y-92090226D01*
X147332795Y-92259744D01*
X147254774Y-92448102D01*
X147215000Y-92648061D01*
X116627000Y-92648061D01*
X116627000Y-85825000D01*
X135436928Y-85825000D01*
X135436928Y-87175000D01*
X135449188Y-87299482D01*
X135485498Y-87419180D01*
X135544463Y-87529494D01*
X135623815Y-87626185D01*
X135710697Y-87697487D01*
X135589093Y-87879482D01*
X135490342Y-88117887D01*
X135440000Y-88370976D01*
X135440000Y-88629024D01*
X135490342Y-88882113D01*
X135589093Y-89120518D01*
X135732456Y-89335077D01*
X135914923Y-89517544D01*
X136129482Y-89660907D01*
X136367887Y-89759658D01*
X136620976Y-89810000D01*
X136879024Y-89810000D01*
X137132113Y-89759658D01*
X137370518Y-89660907D01*
X137585077Y-89517544D01*
X137767544Y-89335077D01*
X137910907Y-89120518D01*
X138009658Y-88882113D01*
X138060000Y-88629024D01*
X138060000Y-88370976D01*
X138009658Y-88117887D01*
X137918603Y-87898061D01*
X144645000Y-87898061D01*
X144645000Y-88101939D01*
X144684774Y-88301898D01*
X144762795Y-88490256D01*
X144876063Y-88659774D01*
X145020226Y-88803937D01*
X145189744Y-88917205D01*
X145378102Y-88995226D01*
X145418103Y-89003183D01*
X145410102Y-89004774D01*
X145221744Y-89082795D01*
X145052226Y-89196063D01*
X144908063Y-89340226D01*
X144794795Y-89509744D01*
X144716774Y-89698102D01*
X144677000Y-89898061D01*
X144677000Y-90101939D01*
X144716774Y-90301898D01*
X144794795Y-90490256D01*
X144908063Y-90659774D01*
X145052226Y-90803937D01*
X145221744Y-90917205D01*
X145410102Y-90995226D01*
X145610061Y-91035000D01*
X145813939Y-91035000D01*
X146013898Y-90995226D01*
X146202256Y-90917205D01*
X146371774Y-90803937D01*
X146515937Y-90659774D01*
X146629205Y-90490256D01*
X146707226Y-90301898D01*
X146747000Y-90101939D01*
X146747000Y-89898061D01*
X146733343Y-89829400D01*
X158232090Y-89829400D01*
X158262762Y-89930528D01*
X158370527Y-90163629D01*
X158521697Y-90371227D01*
X158661304Y-90500000D01*
X158521697Y-90628773D01*
X158370527Y-90836371D01*
X158262762Y-91069472D01*
X158232090Y-91170600D01*
X158355776Y-91373000D01*
X159373000Y-91373000D01*
X159373000Y-89627000D01*
X158355776Y-89627000D01*
X158232090Y-89829400D01*
X146733343Y-89829400D01*
X146707226Y-89698102D01*
X146629205Y-89509744D01*
X146515937Y-89340226D01*
X146371774Y-89196063D01*
X146202256Y-89082795D01*
X146013898Y-89004774D01*
X145973897Y-88996817D01*
X145981898Y-88995226D01*
X146170256Y-88917205D01*
X146339774Y-88803937D01*
X146483937Y-88659774D01*
X146597205Y-88490256D01*
X146675226Y-88301898D01*
X146677580Y-88290061D01*
X154159000Y-88290061D01*
X154159000Y-88493939D01*
X154198774Y-88693898D01*
X154276795Y-88882256D01*
X154390063Y-89051774D01*
X154534226Y-89195937D01*
X154703744Y-89309205D01*
X154892102Y-89387226D01*
X155092061Y-89427000D01*
X155295939Y-89427000D01*
X155495898Y-89387226D01*
X155684256Y-89309205D01*
X155853774Y-89195937D01*
X155997937Y-89051774D01*
X156111205Y-88882256D01*
X156189226Y-88693898D01*
X156229000Y-88493939D01*
X156229000Y-88290061D01*
X156189226Y-88090102D01*
X156111205Y-87901744D01*
X155997937Y-87732226D01*
X155853774Y-87588063D01*
X155684256Y-87474795D01*
X155495898Y-87396774D01*
X155295939Y-87357000D01*
X155092061Y-87357000D01*
X154892102Y-87396774D01*
X154703744Y-87474795D01*
X154534226Y-87588063D01*
X154390063Y-87732226D01*
X154276795Y-87901744D01*
X154198774Y-88090102D01*
X154159000Y-88290061D01*
X146677580Y-88290061D01*
X146715000Y-88101939D01*
X146715000Y-87898061D01*
X146675226Y-87698102D01*
X146597205Y-87509744D01*
X146483937Y-87340226D01*
X146339774Y-87196063D01*
X146170256Y-87082795D01*
X145981898Y-87004774D01*
X145781939Y-86965000D01*
X145578061Y-86965000D01*
X145378102Y-87004774D01*
X145189744Y-87082795D01*
X145020226Y-87196063D01*
X144876063Y-87340226D01*
X144762795Y-87509744D01*
X144684774Y-87698102D01*
X144645000Y-87898061D01*
X137918603Y-87898061D01*
X137910907Y-87879482D01*
X137789303Y-87697487D01*
X137876185Y-87626185D01*
X137955537Y-87529494D01*
X138014502Y-87419180D01*
X138050812Y-87299482D01*
X138063072Y-87175000D01*
X138063072Y-86428061D01*
X146285000Y-86428061D01*
X146285000Y-86631939D01*
X146324774Y-86831898D01*
X146402795Y-87020256D01*
X146516063Y-87189774D01*
X146660226Y-87333937D01*
X146829744Y-87447205D01*
X147018102Y-87525226D01*
X147218061Y-87565000D01*
X147421939Y-87565000D01*
X147621898Y-87525226D01*
X147810256Y-87447205D01*
X147979774Y-87333937D01*
X148123937Y-87189774D01*
X148237205Y-87020256D01*
X148315226Y-86831898D01*
X148355000Y-86631939D01*
X148355000Y-86428061D01*
X148321394Y-86259109D01*
X148487774Y-86147937D01*
X148631937Y-86003774D01*
X148745205Y-85834256D01*
X148823226Y-85645898D01*
X148863000Y-85445939D01*
X148863000Y-85242061D01*
X148848786Y-85170600D01*
X158232090Y-85170600D01*
X158355776Y-85373000D01*
X159373000Y-85373000D01*
X159373000Y-84354915D01*
X159170599Y-84232085D01*
X158929570Y-84320711D01*
X158710463Y-84454656D01*
X158521697Y-84628773D01*
X158370527Y-84836371D01*
X158262762Y-85069472D01*
X158232090Y-85170600D01*
X148848786Y-85170600D01*
X148823226Y-85042102D01*
X148745205Y-84853744D01*
X148631937Y-84684226D01*
X148487774Y-84540063D01*
X148318256Y-84426795D01*
X148129898Y-84348774D01*
X147929939Y-84309000D01*
X147726061Y-84309000D01*
X147526102Y-84348774D01*
X147337744Y-84426795D01*
X147168226Y-84540063D01*
X147024063Y-84684226D01*
X146910795Y-84853744D01*
X146832774Y-85042102D01*
X146793000Y-85242061D01*
X146793000Y-85445939D01*
X146826606Y-85614891D01*
X146660226Y-85726063D01*
X146516063Y-85870226D01*
X146402795Y-86039744D01*
X146324774Y-86228102D01*
X146285000Y-86428061D01*
X138063072Y-86428061D01*
X138063072Y-85825000D01*
X138050812Y-85700518D01*
X138014502Y-85580820D01*
X137955537Y-85470506D01*
X137876185Y-85373815D01*
X137779494Y-85294463D01*
X137669180Y-85235498D01*
X137549482Y-85199188D01*
X137425000Y-85186928D01*
X136075000Y-85186928D01*
X135950518Y-85199188D01*
X135830820Y-85235498D01*
X135720506Y-85294463D01*
X135623815Y-85373815D01*
X135544463Y-85470506D01*
X135485498Y-85580820D01*
X135449188Y-85700518D01*
X135436928Y-85825000D01*
X116627000Y-85825000D01*
X116627000Y-81218061D01*
X135905000Y-81218061D01*
X135905000Y-81421939D01*
X135944774Y-81621898D01*
X136022795Y-81810256D01*
X136136063Y-81979774D01*
X136280226Y-82123937D01*
X136449744Y-82237205D01*
X136623386Y-82309130D01*
X136542795Y-82429744D01*
X136464774Y-82618102D01*
X136425000Y-82818061D01*
X136425000Y-83021939D01*
X136464774Y-83221898D01*
X136542795Y-83410256D01*
X136656063Y-83579774D01*
X136800226Y-83723937D01*
X136969744Y-83837205D01*
X137158102Y-83915226D01*
X137358061Y-83955000D01*
X137561939Y-83955000D01*
X137761898Y-83915226D01*
X137950256Y-83837205D01*
X138119774Y-83723937D01*
X138125650Y-83718061D01*
X154159000Y-83718061D01*
X154159000Y-83921939D01*
X154198774Y-84121898D01*
X154276795Y-84310256D01*
X154390063Y-84479774D01*
X154534226Y-84623937D01*
X154703744Y-84737205D01*
X154892102Y-84815226D01*
X155092061Y-84855000D01*
X155295939Y-84855000D01*
X155495898Y-84815226D01*
X155684256Y-84737205D01*
X155853774Y-84623937D01*
X155997937Y-84479774D01*
X156111205Y-84310256D01*
X156189226Y-84121898D01*
X156229000Y-83921939D01*
X156229000Y-83718061D01*
X156189226Y-83518102D01*
X156181480Y-83499400D01*
X164552090Y-83499400D01*
X164582762Y-83600528D01*
X164690527Y-83833629D01*
X164841697Y-84041227D01*
X165030463Y-84215344D01*
X165249570Y-84349289D01*
X165490599Y-84437915D01*
X165693000Y-84315085D01*
X165693000Y-83297000D01*
X165947000Y-83297000D01*
X165947000Y-84315085D01*
X166149401Y-84437915D01*
X166390430Y-84349289D01*
X166609537Y-84215344D01*
X166798303Y-84041227D01*
X166949473Y-83833629D01*
X167020497Y-83680000D01*
X182931928Y-83680000D01*
X182931928Y-86280000D01*
X182944188Y-86404482D01*
X182980498Y-86524180D01*
X183039463Y-86634494D01*
X183118815Y-86731185D01*
X183215506Y-86810537D01*
X183325820Y-86869502D01*
X183445518Y-86905812D01*
X183570000Y-86918072D01*
X186170000Y-86918072D01*
X186294482Y-86905812D01*
X186414180Y-86869502D01*
X186524494Y-86810537D01*
X186621185Y-86731185D01*
X186700537Y-86634494D01*
X186759502Y-86524180D01*
X186795812Y-86404482D01*
X186808072Y-86280000D01*
X186808072Y-83680000D01*
X186795812Y-83555518D01*
X186759502Y-83435820D01*
X186700537Y-83325506D01*
X186621185Y-83228815D01*
X186524494Y-83149463D01*
X186414180Y-83090498D01*
X186294482Y-83054188D01*
X186170000Y-83041928D01*
X183570000Y-83041928D01*
X183445518Y-83054188D01*
X183325820Y-83090498D01*
X183215506Y-83149463D01*
X183118815Y-83228815D01*
X183039463Y-83325506D01*
X182980498Y-83435820D01*
X182944188Y-83555518D01*
X182931928Y-83680000D01*
X167020497Y-83680000D01*
X167057238Y-83600528D01*
X167087910Y-83499400D01*
X166964224Y-83297000D01*
X165947000Y-83297000D01*
X165693000Y-83297000D01*
X164675776Y-83297000D01*
X164552090Y-83499400D01*
X156181480Y-83499400D01*
X156111205Y-83329744D01*
X155997937Y-83160226D01*
X155853774Y-83016063D01*
X155684256Y-82902795D01*
X155495898Y-82824774D01*
X155295939Y-82785000D01*
X155092061Y-82785000D01*
X154892102Y-82824774D01*
X154703744Y-82902795D01*
X154534226Y-83016063D01*
X154390063Y-83160226D01*
X154276795Y-83329744D01*
X154198774Y-83518102D01*
X154159000Y-83718061D01*
X138125650Y-83718061D01*
X138263937Y-83579774D01*
X138377205Y-83410256D01*
X138455226Y-83221898D01*
X138495000Y-83021939D01*
X138495000Y-82818061D01*
X138455226Y-82618102D01*
X138377205Y-82429744D01*
X138263937Y-82260226D01*
X138119774Y-82116063D01*
X137950256Y-82002795D01*
X137776614Y-81930870D01*
X137857205Y-81810256D01*
X137935226Y-81621898D01*
X137975000Y-81421939D01*
X137975000Y-81218061D01*
X137935226Y-81018102D01*
X137857205Y-80829744D01*
X137743937Y-80660226D01*
X137599774Y-80516063D01*
X137430256Y-80402795D01*
X137241898Y-80324774D01*
X137041939Y-80285000D01*
X136838061Y-80285000D01*
X136638102Y-80324774D01*
X136449744Y-80402795D01*
X136280226Y-80516063D01*
X136136063Y-80660226D01*
X136022795Y-80829744D01*
X135944774Y-81018102D01*
X135905000Y-81218061D01*
X116627000Y-81218061D01*
X116627000Y-78508521D01*
X140897660Y-78508521D01*
X140897660Y-78712399D01*
X140937434Y-78912358D01*
X141015455Y-79100716D01*
X141128723Y-79270234D01*
X141272886Y-79414397D01*
X141442404Y-79527665D01*
X141630762Y-79605686D01*
X141830721Y-79645460D01*
X142034599Y-79645460D01*
X142234558Y-79605686D01*
X142422916Y-79527665D01*
X142592434Y-79414397D01*
X142736597Y-79270234D01*
X142849865Y-79100716D01*
X142927886Y-78912358D01*
X142967660Y-78712399D01*
X142967660Y-78508521D01*
X142942904Y-78384061D01*
X159747000Y-78384061D01*
X159747000Y-78587939D01*
X159786774Y-78787898D01*
X159864795Y-78976256D01*
X159978063Y-79145774D01*
X160122226Y-79289937D01*
X160291744Y-79403205D01*
X160480102Y-79481226D01*
X160680061Y-79521000D01*
X160883939Y-79521000D01*
X161083898Y-79481226D01*
X161272256Y-79403205D01*
X161441774Y-79289937D01*
X161585937Y-79145774D01*
X161699205Y-78976256D01*
X161777226Y-78787898D01*
X161817000Y-78587939D01*
X161817000Y-78384061D01*
X161791338Y-78255049D01*
X161840226Y-78303937D01*
X162009744Y-78417205D01*
X162198102Y-78495226D01*
X162398061Y-78535000D01*
X162601939Y-78535000D01*
X162801898Y-78495226D01*
X162990256Y-78417205D01*
X163159774Y-78303937D01*
X163250000Y-78213711D01*
X163286289Y-78250000D01*
X163196063Y-78340226D01*
X163082795Y-78509744D01*
X163004774Y-78698102D01*
X162965000Y-78898061D01*
X162965000Y-79101939D01*
X162966888Y-79111430D01*
X162840226Y-79196063D01*
X162696063Y-79340226D01*
X162582795Y-79509744D01*
X162504774Y-79698102D01*
X162465000Y-79898061D01*
X162465000Y-80101939D01*
X162504774Y-80301898D01*
X162582795Y-80490256D01*
X162696063Y-80659774D01*
X162840226Y-80803937D01*
X162966888Y-80888570D01*
X162965000Y-80898061D01*
X162965000Y-81101939D01*
X163004774Y-81301898D01*
X163082795Y-81490256D01*
X163196063Y-81659774D01*
X163340226Y-81803937D01*
X163509744Y-81917205D01*
X163698102Y-81995226D01*
X163898061Y-82035000D01*
X164101939Y-82035000D01*
X164301898Y-81995226D01*
X164490256Y-81917205D01*
X164512571Y-81902295D01*
X164519188Y-81969482D01*
X164555498Y-82089180D01*
X164614463Y-82199494D01*
X164693815Y-82296185D01*
X164787559Y-82373119D01*
X164690527Y-82506371D01*
X164582762Y-82739472D01*
X164552090Y-82840600D01*
X164675776Y-83043000D01*
X165693000Y-83043000D01*
X165693000Y-83023000D01*
X165947000Y-83023000D01*
X165947000Y-83043000D01*
X166964224Y-83043000D01*
X167087910Y-82840600D01*
X167057238Y-82739472D01*
X166949473Y-82506371D01*
X166852441Y-82373119D01*
X166946185Y-82296185D01*
X167025537Y-82199494D01*
X167084502Y-82089180D01*
X167120812Y-81969482D01*
X167121405Y-81963457D01*
X167198102Y-81995226D01*
X167398061Y-82035000D01*
X167601939Y-82035000D01*
X167801898Y-81995226D01*
X167990256Y-81917205D01*
X168159774Y-81803937D01*
X168303937Y-81659774D01*
X168417205Y-81490256D01*
X168483907Y-81329224D01*
X183700381Y-81329224D01*
X183832317Y-81624312D01*
X184173045Y-81795159D01*
X184540557Y-81896250D01*
X184920729Y-81923701D01*
X185298951Y-81876457D01*
X185660690Y-81756333D01*
X185907683Y-81624312D01*
X186039619Y-81329224D01*
X184870000Y-80159605D01*
X183700381Y-81329224D01*
X168483907Y-81329224D01*
X168495226Y-81301898D01*
X168535000Y-81101939D01*
X168535000Y-80898061D01*
X168533112Y-80888570D01*
X168659774Y-80803937D01*
X168803937Y-80659774D01*
X168917205Y-80490256D01*
X168995226Y-80301898D01*
X169035000Y-80101939D01*
X169035000Y-80030729D01*
X182926299Y-80030729D01*
X182973543Y-80408951D01*
X183093667Y-80770690D01*
X183225688Y-81017683D01*
X183520776Y-81149619D01*
X184690395Y-79980000D01*
X185049605Y-79980000D01*
X186219224Y-81149619D01*
X186514312Y-81017683D01*
X186685159Y-80676955D01*
X186786250Y-80309443D01*
X186813701Y-79929271D01*
X186766457Y-79551049D01*
X186646333Y-79189310D01*
X186514312Y-78942317D01*
X186219224Y-78810381D01*
X185049605Y-79980000D01*
X184690395Y-79980000D01*
X183520776Y-78810381D01*
X183225688Y-78942317D01*
X183054841Y-79283045D01*
X182953750Y-79650557D01*
X182926299Y-80030729D01*
X169035000Y-80030729D01*
X169035000Y-79898061D01*
X168998608Y-79715103D01*
X169053937Y-79659774D01*
X169167205Y-79490256D01*
X169245226Y-79301898D01*
X169285000Y-79101939D01*
X169285000Y-78898061D01*
X169245226Y-78698102D01*
X169217339Y-78630776D01*
X183700381Y-78630776D01*
X184870000Y-79800395D01*
X186039619Y-78630776D01*
X185907683Y-78335688D01*
X185566955Y-78164841D01*
X185199443Y-78063750D01*
X184819271Y-78036299D01*
X184441049Y-78083543D01*
X184079310Y-78203667D01*
X183832317Y-78335688D01*
X183700381Y-78630776D01*
X169217339Y-78630776D01*
X169167205Y-78509744D01*
X169053937Y-78340226D01*
X168998608Y-78284897D01*
X169035000Y-78101939D01*
X169035000Y-77898061D01*
X168995226Y-77698102D01*
X168917205Y-77509744D01*
X168803937Y-77340226D01*
X168659774Y-77196063D01*
X168490256Y-77082795D01*
X168301898Y-77004774D01*
X168101939Y-76965000D01*
X167898061Y-76965000D01*
X167888570Y-76966888D01*
X167803937Y-76840226D01*
X167659774Y-76696063D01*
X167490256Y-76582795D01*
X167301898Y-76504774D01*
X167101939Y-76465000D01*
X167036594Y-76465000D01*
X167109274Y-76416437D01*
X167253437Y-76272274D01*
X167366705Y-76102756D01*
X167444726Y-75914398D01*
X167484500Y-75714439D01*
X167484500Y-75510561D01*
X167444726Y-75310602D01*
X167366705Y-75122244D01*
X167253437Y-74952726D01*
X167109274Y-74808563D01*
X166939756Y-74695295D01*
X166751398Y-74617274D01*
X166551439Y-74577500D01*
X166347561Y-74577500D01*
X166147602Y-74617274D01*
X165959244Y-74695295D01*
X165789726Y-74808563D01*
X165645563Y-74952726D01*
X165532295Y-75122244D01*
X165454274Y-75310602D01*
X165414500Y-75510561D01*
X165414500Y-75714439D01*
X165454274Y-75914398D01*
X165532295Y-76102756D01*
X165645563Y-76272274D01*
X165789726Y-76416437D01*
X165959244Y-76529705D01*
X166147602Y-76607726D01*
X166347561Y-76647500D01*
X166412906Y-76647500D01*
X166340226Y-76696063D01*
X166250000Y-76786289D01*
X166159774Y-76696063D01*
X165990256Y-76582795D01*
X165801898Y-76504774D01*
X165601939Y-76465000D01*
X165398061Y-76465000D01*
X165198102Y-76504774D01*
X165009744Y-76582795D01*
X164840226Y-76696063D01*
X164750000Y-76786289D01*
X164659774Y-76696063D01*
X164490256Y-76582795D01*
X164411082Y-76550000D01*
X164490256Y-76517205D01*
X164659774Y-76403937D01*
X164803937Y-76259774D01*
X164917205Y-76090256D01*
X164995226Y-75901898D01*
X165035000Y-75701939D01*
X165035000Y-75498061D01*
X164995226Y-75298102D01*
X164917205Y-75109744D01*
X164803937Y-74940226D01*
X164659774Y-74796063D01*
X164490256Y-74682795D01*
X164301898Y-74604774D01*
X164101939Y-74565000D01*
X163898061Y-74565000D01*
X163698102Y-74604774D01*
X163509744Y-74682795D01*
X163340226Y-74796063D01*
X163196063Y-74940226D01*
X163082795Y-75109744D01*
X163004774Y-75298102D01*
X162965000Y-75498061D01*
X162965000Y-75701939D01*
X162974466Y-75749530D01*
X162948102Y-75754774D01*
X162759744Y-75832795D01*
X162590226Y-75946063D01*
X162446063Y-76090226D01*
X162332795Y-76259744D01*
X162254774Y-76448102D01*
X162245372Y-76495372D01*
X162198102Y-76504774D01*
X162009744Y-76582795D01*
X161840226Y-76696063D01*
X161696063Y-76840226D01*
X161582795Y-77009744D01*
X161504774Y-77198102D01*
X161465000Y-77398061D01*
X161465000Y-77601939D01*
X161490662Y-77730951D01*
X161441774Y-77682063D01*
X161272256Y-77568795D01*
X161083898Y-77490774D01*
X160883939Y-77451000D01*
X160680061Y-77451000D01*
X160480102Y-77490774D01*
X160291744Y-77568795D01*
X160122226Y-77682063D01*
X159978063Y-77826226D01*
X159864795Y-77995744D01*
X159786774Y-78184102D01*
X159747000Y-78384061D01*
X142942904Y-78384061D01*
X142927886Y-78308562D01*
X142849865Y-78120204D01*
X142736597Y-77950686D01*
X142592434Y-77806523D01*
X142422916Y-77693255D01*
X142234558Y-77615234D01*
X142034599Y-77575460D01*
X141830721Y-77575460D01*
X141630762Y-77615234D01*
X141442404Y-77693255D01*
X141272886Y-77806523D01*
X141128723Y-77950686D01*
X141015455Y-78120204D01*
X140937434Y-78308562D01*
X140897660Y-78508521D01*
X116627000Y-78508521D01*
X116627000Y-76760561D01*
X136477500Y-76760561D01*
X136477500Y-76964439D01*
X136517274Y-77164398D01*
X136595295Y-77352756D01*
X136708563Y-77522274D01*
X136852726Y-77666437D01*
X137022244Y-77779705D01*
X137210602Y-77857726D01*
X137410561Y-77897500D01*
X137614439Y-77897500D01*
X137814398Y-77857726D01*
X138002756Y-77779705D01*
X138172274Y-77666437D01*
X138316437Y-77522274D01*
X138429705Y-77352756D01*
X138507726Y-77164398D01*
X138517738Y-77114061D01*
X154159000Y-77114061D01*
X154159000Y-77317939D01*
X154198774Y-77517898D01*
X154276795Y-77706256D01*
X154390063Y-77875774D01*
X154534226Y-78019937D01*
X154703744Y-78133205D01*
X154892102Y-78211226D01*
X155092061Y-78251000D01*
X155295939Y-78251000D01*
X155495898Y-78211226D01*
X155684256Y-78133205D01*
X155853774Y-78019937D01*
X155997937Y-77875774D01*
X156111205Y-77706256D01*
X156189226Y-77517898D01*
X156229000Y-77317939D01*
X156229000Y-77114061D01*
X156189226Y-76914102D01*
X156111205Y-76725744D01*
X155997937Y-76556226D01*
X155853774Y-76412063D01*
X155684256Y-76298795D01*
X155495898Y-76220774D01*
X155295939Y-76181000D01*
X155092061Y-76181000D01*
X154892102Y-76220774D01*
X154703744Y-76298795D01*
X154534226Y-76412063D01*
X154390063Y-76556226D01*
X154276795Y-76725744D01*
X154198774Y-76914102D01*
X154159000Y-77114061D01*
X138517738Y-77114061D01*
X138547500Y-76964439D01*
X138547500Y-76760561D01*
X138507726Y-76560602D01*
X138429705Y-76372244D01*
X138316437Y-76202726D01*
X138172274Y-76058563D01*
X138002756Y-75945295D01*
X137814398Y-75867274D01*
X137614439Y-75827500D01*
X137410561Y-75827500D01*
X137210602Y-75867274D01*
X137022244Y-75945295D01*
X136852726Y-76058563D01*
X136708563Y-76202726D01*
X136595295Y-76372244D01*
X136517274Y-76560602D01*
X136477500Y-76760561D01*
X116627000Y-76760561D01*
X116627000Y-73535561D01*
X132827500Y-73535561D01*
X132827500Y-73739439D01*
X132867274Y-73939398D01*
X132945295Y-74127756D01*
X133058563Y-74297274D01*
X133202726Y-74441437D01*
X133372244Y-74554705D01*
X133560602Y-74632726D01*
X133760561Y-74672500D01*
X133964439Y-74672500D01*
X134164398Y-74632726D01*
X134352756Y-74554705D01*
X134522274Y-74441437D01*
X134666437Y-74297274D01*
X134779705Y-74127756D01*
X134805260Y-74066061D01*
X140697000Y-74066061D01*
X140697000Y-74269939D01*
X140736774Y-74469898D01*
X140814795Y-74658256D01*
X140928063Y-74827774D01*
X141072226Y-74971937D01*
X141241744Y-75085205D01*
X141430102Y-75163226D01*
X141630061Y-75203000D01*
X141833939Y-75203000D01*
X142033898Y-75163226D01*
X142222256Y-75085205D01*
X142391774Y-74971937D01*
X142535937Y-74827774D01*
X142649205Y-74658256D01*
X142727226Y-74469898D01*
X142767000Y-74269939D01*
X142767000Y-74066061D01*
X142727226Y-73866102D01*
X142649205Y-73677744D01*
X142535937Y-73508226D01*
X142391774Y-73364063D01*
X142222256Y-73250795D01*
X142033898Y-73172774D01*
X141833939Y-73133000D01*
X141630061Y-73133000D01*
X141430102Y-73172774D01*
X141241744Y-73250795D01*
X141072226Y-73364063D01*
X140928063Y-73508226D01*
X140814795Y-73677744D01*
X140736774Y-73866102D01*
X140697000Y-74066061D01*
X134805260Y-74066061D01*
X134857726Y-73939398D01*
X134897500Y-73739439D01*
X134897500Y-73535561D01*
X134857726Y-73335602D01*
X134779705Y-73147244D01*
X134666437Y-72977726D01*
X134522274Y-72833563D01*
X134352756Y-72720295D01*
X134164398Y-72642274D01*
X133964439Y-72602500D01*
X133760561Y-72602500D01*
X133560602Y-72642274D01*
X133372244Y-72720295D01*
X133202726Y-72833563D01*
X133058563Y-72977726D01*
X132945295Y-73147244D01*
X132867274Y-73335602D01*
X132827500Y-73535561D01*
X116627000Y-73535561D01*
X116627000Y-68539672D01*
X118506387Y-65825000D01*
X137686928Y-65825000D01*
X137686928Y-67175000D01*
X137699188Y-67299482D01*
X137735498Y-67419180D01*
X137794463Y-67529494D01*
X137873815Y-67626185D01*
X137960697Y-67697487D01*
X137839093Y-67879482D01*
X137740342Y-68117887D01*
X137690000Y-68370976D01*
X137690000Y-68629024D01*
X137740342Y-68882113D01*
X137839093Y-69120518D01*
X137982456Y-69335077D01*
X138147379Y-69500000D01*
X137982456Y-69664923D01*
X137839093Y-69879482D01*
X137740342Y-70117887D01*
X137690000Y-70370976D01*
X137690000Y-70629024D01*
X137740342Y-70882113D01*
X137839093Y-71120518D01*
X137982456Y-71335077D01*
X138164923Y-71517544D01*
X138379482Y-71660907D01*
X138617887Y-71759658D01*
X138870976Y-71810000D01*
X139129024Y-71810000D01*
X139382113Y-71759658D01*
X139620518Y-71660907D01*
X139835077Y-71517544D01*
X140017544Y-71335077D01*
X140160907Y-71120518D01*
X140259658Y-70882113D01*
X140310000Y-70629024D01*
X140310000Y-70370976D01*
X140259658Y-70117887D01*
X140160907Y-69879482D01*
X140017544Y-69664923D01*
X139852621Y-69500000D01*
X140017544Y-69335077D01*
X140160907Y-69120518D01*
X140259658Y-68882113D01*
X140310000Y-68629024D01*
X140310000Y-68370976D01*
X140259658Y-68117887D01*
X140160907Y-67879482D01*
X140039303Y-67697487D01*
X140126185Y-67626185D01*
X140205537Y-67529494D01*
X140264502Y-67419180D01*
X140300812Y-67299482D01*
X140313072Y-67175000D01*
X140313072Y-65825000D01*
X141686928Y-65825000D01*
X141686928Y-67175000D01*
X141699188Y-67299482D01*
X141735498Y-67419180D01*
X141794463Y-67529494D01*
X141873815Y-67626185D01*
X141960697Y-67697487D01*
X141839093Y-67879482D01*
X141740342Y-68117887D01*
X141690000Y-68370976D01*
X141690000Y-68629024D01*
X141740342Y-68882113D01*
X141839093Y-69120518D01*
X141982456Y-69335077D01*
X142147379Y-69500000D01*
X141982456Y-69664923D01*
X141839093Y-69879482D01*
X141740342Y-70117887D01*
X141690000Y-70370976D01*
X141690000Y-70629024D01*
X141740342Y-70882113D01*
X141839093Y-71120518D01*
X141982456Y-71335077D01*
X142164923Y-71517544D01*
X142379482Y-71660907D01*
X142617887Y-71759658D01*
X142870976Y-71810000D01*
X143129024Y-71810000D01*
X143382113Y-71759658D01*
X143620518Y-71660907D01*
X143835077Y-71517544D01*
X144017544Y-71335077D01*
X144160907Y-71120518D01*
X144259658Y-70882113D01*
X144270143Y-70829400D01*
X145732090Y-70829400D01*
X145762762Y-70930528D01*
X145870527Y-71163629D01*
X146021697Y-71371227D01*
X146210463Y-71545344D01*
X146429570Y-71679289D01*
X146670599Y-71767915D01*
X146873000Y-71645085D01*
X146873000Y-70627000D01*
X147127000Y-70627000D01*
X147127000Y-71645085D01*
X147329401Y-71767915D01*
X147570430Y-71679289D01*
X147789537Y-71545344D01*
X147978303Y-71371227D01*
X148129473Y-71163629D01*
X148237238Y-70930528D01*
X148267910Y-70829400D01*
X151232090Y-70829400D01*
X151262762Y-70930528D01*
X151370527Y-71163629D01*
X151521697Y-71371227D01*
X151710463Y-71545344D01*
X151929570Y-71679289D01*
X152170599Y-71767915D01*
X152373000Y-71645085D01*
X152373000Y-70627000D01*
X152627000Y-70627000D01*
X152627000Y-71645085D01*
X152829401Y-71767915D01*
X153070430Y-71679289D01*
X153289537Y-71545344D01*
X153478303Y-71371227D01*
X153629473Y-71163629D01*
X153737238Y-70930528D01*
X153767910Y-70829400D01*
X153644224Y-70627000D01*
X152627000Y-70627000D01*
X152373000Y-70627000D01*
X151355776Y-70627000D01*
X151232090Y-70829400D01*
X148267910Y-70829400D01*
X148144224Y-70627000D01*
X147127000Y-70627000D01*
X146873000Y-70627000D01*
X145855776Y-70627000D01*
X145732090Y-70829400D01*
X144270143Y-70829400D01*
X144310000Y-70629024D01*
X144310000Y-70370976D01*
X144259658Y-70117887D01*
X144160907Y-69879482D01*
X144017544Y-69664923D01*
X143852621Y-69500000D01*
X144017544Y-69335077D01*
X144160907Y-69120518D01*
X144259658Y-68882113D01*
X144310000Y-68629024D01*
X144310000Y-68370976D01*
X144259658Y-68117887D01*
X144160907Y-67879482D01*
X144039303Y-67697487D01*
X144126185Y-67626185D01*
X144205537Y-67529494D01*
X144264502Y-67419180D01*
X144300812Y-67299482D01*
X144313072Y-67175000D01*
X144313072Y-65825000D01*
X145686928Y-65825000D01*
X145686928Y-67175000D01*
X145699188Y-67299482D01*
X145735498Y-67419180D01*
X145794463Y-67529494D01*
X145873815Y-67626185D01*
X145960697Y-67697487D01*
X145839093Y-67879482D01*
X145740342Y-68117887D01*
X145690000Y-68370976D01*
X145690000Y-68629024D01*
X145740342Y-68882113D01*
X145839093Y-69120518D01*
X145982456Y-69335077D01*
X146154060Y-69506681D01*
X146021697Y-69628773D01*
X145870527Y-69836371D01*
X145762762Y-70069472D01*
X145732090Y-70170600D01*
X145855776Y-70373000D01*
X146873000Y-70373000D01*
X146873000Y-70353000D01*
X147127000Y-70353000D01*
X147127000Y-70373000D01*
X148144224Y-70373000D01*
X148267910Y-70170600D01*
X148237238Y-70069472D01*
X148129473Y-69836371D01*
X147978303Y-69628773D01*
X147845940Y-69506681D01*
X148017544Y-69335077D01*
X148160907Y-69120518D01*
X148259658Y-68882113D01*
X148310000Y-68629024D01*
X148310000Y-68370976D01*
X148259658Y-68117887D01*
X148160907Y-67879482D01*
X148039303Y-67697487D01*
X148126185Y-67626185D01*
X148205537Y-67529494D01*
X148264502Y-67419180D01*
X148300812Y-67299482D01*
X148313072Y-67175000D01*
X148313072Y-65825000D01*
X151186928Y-65825000D01*
X151186928Y-67175000D01*
X151199188Y-67299482D01*
X151235498Y-67419180D01*
X151294463Y-67529494D01*
X151373815Y-67626185D01*
X151460697Y-67697487D01*
X151339093Y-67879482D01*
X151240342Y-68117887D01*
X151190000Y-68370976D01*
X151190000Y-68629024D01*
X151240342Y-68882113D01*
X151339093Y-69120518D01*
X151482456Y-69335077D01*
X151654060Y-69506681D01*
X151521697Y-69628773D01*
X151370527Y-69836371D01*
X151262762Y-70069472D01*
X151232090Y-70170600D01*
X151355776Y-70373000D01*
X152373000Y-70373000D01*
X152373000Y-70353000D01*
X152627000Y-70353000D01*
X152627000Y-70373000D01*
X153644224Y-70373000D01*
X153767910Y-70170600D01*
X153737238Y-70069472D01*
X153629473Y-69836371D01*
X153478303Y-69628773D01*
X153345940Y-69506681D01*
X153517544Y-69335077D01*
X153660907Y-69120518D01*
X153759658Y-68882113D01*
X153810000Y-68629024D01*
X153810000Y-68370976D01*
X153759658Y-68117887D01*
X153660907Y-67879482D01*
X153539303Y-67697487D01*
X153626185Y-67626185D01*
X153705537Y-67529494D01*
X153764502Y-67419180D01*
X153800812Y-67299482D01*
X153813072Y-67175000D01*
X153813072Y-65825000D01*
X153800812Y-65700518D01*
X153764502Y-65580820D01*
X153705537Y-65470506D01*
X153626185Y-65373815D01*
X153529494Y-65294463D01*
X153419180Y-65235498D01*
X153299482Y-65199188D01*
X153175000Y-65186928D01*
X151825000Y-65186928D01*
X151700518Y-65199188D01*
X151580820Y-65235498D01*
X151470506Y-65294463D01*
X151373815Y-65373815D01*
X151294463Y-65470506D01*
X151235498Y-65580820D01*
X151199188Y-65700518D01*
X151186928Y-65825000D01*
X148313072Y-65825000D01*
X148300812Y-65700518D01*
X148264502Y-65580820D01*
X148205537Y-65470506D01*
X148126185Y-65373815D01*
X148029494Y-65294463D01*
X147919180Y-65235498D01*
X147799482Y-65199188D01*
X147675000Y-65186928D01*
X146325000Y-65186928D01*
X146200518Y-65199188D01*
X146080820Y-65235498D01*
X145970506Y-65294463D01*
X145873815Y-65373815D01*
X145794463Y-65470506D01*
X145735498Y-65580820D01*
X145699188Y-65700518D01*
X145686928Y-65825000D01*
X144313072Y-65825000D01*
X144300812Y-65700518D01*
X144264502Y-65580820D01*
X144205537Y-65470506D01*
X144126185Y-65373815D01*
X144029494Y-65294463D01*
X143919180Y-65235498D01*
X143799482Y-65199188D01*
X143675000Y-65186928D01*
X142325000Y-65186928D01*
X142200518Y-65199188D01*
X142080820Y-65235498D01*
X141970506Y-65294463D01*
X141873815Y-65373815D01*
X141794463Y-65470506D01*
X141735498Y-65580820D01*
X141699188Y-65700518D01*
X141686928Y-65825000D01*
X140313072Y-65825000D01*
X140300812Y-65700518D01*
X140264502Y-65580820D01*
X140205537Y-65470506D01*
X140126185Y-65373815D01*
X140029494Y-65294463D01*
X139919180Y-65235498D01*
X139799482Y-65199188D01*
X139675000Y-65186928D01*
X138325000Y-65186928D01*
X138200518Y-65199188D01*
X138080820Y-65235498D01*
X137970506Y-65294463D01*
X137873815Y-65373815D01*
X137794463Y-65470506D01*
X137735498Y-65580820D01*
X137699188Y-65700518D01*
X137686928Y-65825000D01*
X118506387Y-65825000D01*
X123784623Y-58200881D01*
X128978724Y-58200881D01*
X129338912Y-58690548D01*
X130002882Y-59050849D01*
X130724385Y-59274694D01*
X131475695Y-59353480D01*
X132227938Y-59284178D01*
X132952208Y-59069452D01*
X133620670Y-58717555D01*
X133661088Y-58690548D01*
X134021276Y-58200881D01*
X178978724Y-58200881D01*
X179338912Y-58690548D01*
X180002882Y-59050849D01*
X180724385Y-59274694D01*
X181475695Y-59353480D01*
X182227938Y-59284178D01*
X182952208Y-59069452D01*
X183620670Y-58717555D01*
X183661088Y-58690548D01*
X184021276Y-58200881D01*
X181500000Y-55679605D01*
X178978724Y-58200881D01*
X134021276Y-58200881D01*
X131500000Y-55679605D01*
X128978724Y-58200881D01*
X123784623Y-58200881D01*
X125671291Y-55475695D01*
X127646520Y-55475695D01*
X127715822Y-56227938D01*
X127930548Y-56952208D01*
X128282445Y-57620670D01*
X128309452Y-57661088D01*
X128799119Y-58021276D01*
X131320395Y-55500000D01*
X131679605Y-55500000D01*
X134200881Y-58021276D01*
X134690548Y-57661088D01*
X135050849Y-56997118D01*
X135274694Y-56275615D01*
X135353480Y-55524305D01*
X135335525Y-55329401D01*
X136732085Y-55329401D01*
X136820711Y-55570430D01*
X136954656Y-55789537D01*
X137128773Y-55978303D01*
X137336371Y-56129473D01*
X137569472Y-56237238D01*
X137670600Y-56267910D01*
X137873000Y-56144224D01*
X137873000Y-55127000D01*
X136854915Y-55127000D01*
X136732085Y-55329401D01*
X135335525Y-55329401D01*
X135284178Y-54772062D01*
X135069452Y-54047792D01*
X134717555Y-53379330D01*
X134690548Y-53338912D01*
X134200881Y-52978724D01*
X131679605Y-55500000D01*
X131320395Y-55500000D01*
X128799119Y-52978724D01*
X128309452Y-53338912D01*
X127949151Y-54002882D01*
X127725306Y-54724385D01*
X127646520Y-55475695D01*
X125671291Y-55475695D01*
X127524305Y-52799119D01*
X128978724Y-52799119D01*
X131500000Y-55320395D01*
X133949419Y-52870976D01*
X136690000Y-52870976D01*
X136690000Y-53129024D01*
X136740342Y-53382113D01*
X136839093Y-53620518D01*
X136982456Y-53835077D01*
X137152094Y-54004715D01*
X137128773Y-54021697D01*
X136954656Y-54210463D01*
X136820711Y-54429570D01*
X136732085Y-54670599D01*
X136854915Y-54873000D01*
X137873000Y-54873000D01*
X137873000Y-54853000D01*
X138127000Y-54853000D01*
X138127000Y-54873000D01*
X138147000Y-54873000D01*
X138147000Y-55127000D01*
X138127000Y-55127000D01*
X138127000Y-56144224D01*
X138329400Y-56267910D01*
X138430528Y-56237238D01*
X138663629Y-56129473D01*
X138871227Y-55978303D01*
X138993319Y-55845940D01*
X139164923Y-56017544D01*
X139379482Y-56160907D01*
X139617887Y-56259658D01*
X139870976Y-56310000D01*
X140129024Y-56310000D01*
X140382113Y-56259658D01*
X140620518Y-56160907D01*
X140835077Y-56017544D01*
X141006681Y-55845940D01*
X141128773Y-55978303D01*
X141336371Y-56129473D01*
X141569472Y-56237238D01*
X141670600Y-56267910D01*
X141873000Y-56144224D01*
X141873000Y-55127000D01*
X142127000Y-55127000D01*
X142127000Y-56144224D01*
X142329400Y-56267910D01*
X142430528Y-56237238D01*
X142663629Y-56129473D01*
X142871227Y-55978303D01*
X143000000Y-55838696D01*
X143128773Y-55978303D01*
X143336371Y-56129473D01*
X143569472Y-56237238D01*
X143670600Y-56267910D01*
X143873000Y-56144224D01*
X143873000Y-55127000D01*
X142127000Y-55127000D01*
X141873000Y-55127000D01*
X141853000Y-55127000D01*
X141853000Y-54873000D01*
X141873000Y-54873000D01*
X141873000Y-54853000D01*
X142127000Y-54853000D01*
X142127000Y-54873000D01*
X143873000Y-54873000D01*
X143873000Y-54853000D01*
X144127000Y-54853000D01*
X144127000Y-54873000D01*
X144147000Y-54873000D01*
X144147000Y-55127000D01*
X144127000Y-55127000D01*
X144127000Y-56144224D01*
X144329400Y-56267910D01*
X144430528Y-56237238D01*
X144663629Y-56129473D01*
X144796881Y-56032441D01*
X144873815Y-56126185D01*
X144970506Y-56205537D01*
X145080820Y-56264502D01*
X145200518Y-56300812D01*
X145325000Y-56313072D01*
X146675000Y-56313072D01*
X146799482Y-56300812D01*
X146919180Y-56264502D01*
X147029494Y-56205537D01*
X147126185Y-56126185D01*
X147205537Y-56029494D01*
X147264502Y-55919180D01*
X147300812Y-55799482D01*
X147313072Y-55675000D01*
X147313072Y-55475695D01*
X177646520Y-55475695D01*
X177715822Y-56227938D01*
X177930548Y-56952208D01*
X178282445Y-57620670D01*
X178309452Y-57661088D01*
X178799119Y-58021276D01*
X181320395Y-55500000D01*
X181679605Y-55500000D01*
X184200881Y-58021276D01*
X184690548Y-57661088D01*
X185050849Y-56997118D01*
X185274694Y-56275615D01*
X185353480Y-55524305D01*
X185284178Y-54772062D01*
X185069452Y-54047792D01*
X184717555Y-53379330D01*
X184690548Y-53338912D01*
X184200881Y-52978724D01*
X181679605Y-55500000D01*
X181320395Y-55500000D01*
X178799119Y-52978724D01*
X178309452Y-53338912D01*
X177949151Y-54002882D01*
X177725306Y-54724385D01*
X177646520Y-55475695D01*
X147313072Y-55475695D01*
X147313072Y-54325000D01*
X147300812Y-54200518D01*
X147264502Y-54080820D01*
X147205537Y-53970506D01*
X147126185Y-53873815D01*
X147039303Y-53802513D01*
X147160907Y-53620518D01*
X147259658Y-53382113D01*
X147310000Y-53129024D01*
X147310000Y-52870976D01*
X147295707Y-52799119D01*
X178978724Y-52799119D01*
X181500000Y-55320395D01*
X184021276Y-52799119D01*
X183661088Y-52309452D01*
X182997118Y-51949151D01*
X182275615Y-51725306D01*
X181524305Y-51646520D01*
X180772062Y-51715822D01*
X180047792Y-51930548D01*
X179379330Y-52282445D01*
X179338912Y-52309452D01*
X178978724Y-52799119D01*
X147295707Y-52799119D01*
X147259658Y-52617887D01*
X147160907Y-52379482D01*
X147017544Y-52164923D01*
X146835077Y-51982456D01*
X146620518Y-51839093D01*
X146382113Y-51740342D01*
X146129024Y-51690000D01*
X145870976Y-51690000D01*
X145617887Y-51740342D01*
X145379482Y-51839093D01*
X145164923Y-51982456D01*
X145000000Y-52147379D01*
X144835077Y-51982456D01*
X144620518Y-51839093D01*
X144382113Y-51740342D01*
X144129024Y-51690000D01*
X143870976Y-51690000D01*
X143617887Y-51740342D01*
X143379482Y-51839093D01*
X143164923Y-51982456D01*
X143000000Y-52147379D01*
X142835077Y-51982456D01*
X142620518Y-51839093D01*
X142382113Y-51740342D01*
X142129024Y-51690000D01*
X141870976Y-51690000D01*
X141617887Y-51740342D01*
X141379482Y-51839093D01*
X141164923Y-51982456D01*
X141000000Y-52147379D01*
X140835077Y-51982456D01*
X140620518Y-51839093D01*
X140382113Y-51740342D01*
X140129024Y-51690000D01*
X139870976Y-51690000D01*
X139617887Y-51740342D01*
X139379482Y-51839093D01*
X139164923Y-51982456D01*
X139000000Y-52147379D01*
X138835077Y-51982456D01*
X138620518Y-51839093D01*
X138382113Y-51740342D01*
X138129024Y-51690000D01*
X137870976Y-51690000D01*
X137617887Y-51740342D01*
X137379482Y-51839093D01*
X137164923Y-51982456D01*
X136982456Y-52164923D01*
X136839093Y-52379482D01*
X136740342Y-52617887D01*
X136690000Y-52870976D01*
X133949419Y-52870976D01*
X134021276Y-52799119D01*
X133661088Y-52309452D01*
X132997118Y-51949151D01*
X132275615Y-51725306D01*
X131524305Y-51646520D01*
X130772062Y-51715822D01*
X130047792Y-51930548D01*
X129379330Y-52282445D01*
X129338912Y-52309452D01*
X128978724Y-52799119D01*
X127524305Y-52799119D01*
X130066542Y-49127000D01*
X183450345Y-49127000D01*
X189873000Y-55055605D01*
%TA.AperFunction,Conductor*%
D22*
G36*
X189873000Y-55055605D02*
G01*
X189873000Y-105947394D01*
X174947394Y-120873000D01*
X139546981Y-120873000D01*
X137407505Y-119039163D01*
X151585000Y-119039163D01*
X151585000Y-119740838D01*
X151599976Y-119892895D01*
X151659160Y-120087993D01*
X151755267Y-120267797D01*
X151884605Y-120425396D01*
X152042204Y-120554734D01*
X152222008Y-120650841D01*
X152417106Y-120710024D01*
X152620000Y-120730007D01*
X152822895Y-120710024D01*
X153017993Y-120650841D01*
X153197797Y-120554734D01*
X153355396Y-120425396D01*
X153484734Y-120267797D01*
X153580841Y-120087992D01*
X153585257Y-120073435D01*
X153604319Y-120101964D01*
X153738036Y-120235681D01*
X153895269Y-120340741D01*
X154069978Y-120413108D01*
X154255448Y-120450000D01*
X154444552Y-120450000D01*
X154630022Y-120413108D01*
X154750000Y-120363411D01*
X154869978Y-120413108D01*
X155055448Y-120450000D01*
X155244552Y-120450000D01*
X155430022Y-120413108D01*
X155550000Y-120363411D01*
X155669978Y-120413108D01*
X155855448Y-120450000D01*
X156044552Y-120450000D01*
X156230022Y-120413108D01*
X156404731Y-120340741D01*
X156561964Y-120235681D01*
X156695681Y-120101964D01*
X156750000Y-120020670D01*
X156804319Y-120101964D01*
X156938036Y-120235681D01*
X157095269Y-120340741D01*
X157269978Y-120413108D01*
X157455448Y-120450000D01*
X157644552Y-120450000D01*
X157830022Y-120413108D01*
X157950000Y-120363411D01*
X158069978Y-120413108D01*
X158255448Y-120450000D01*
X158444552Y-120450000D01*
X158630022Y-120413108D01*
X158750000Y-120363411D01*
X158869978Y-120413108D01*
X159055448Y-120450000D01*
X159244552Y-120450000D01*
X159430022Y-120413108D01*
X159604731Y-120340741D01*
X159761964Y-120235681D01*
X159895681Y-120101964D01*
X159914744Y-120073435D01*
X159919160Y-120087993D01*
X160015267Y-120267797D01*
X160144605Y-120425396D01*
X160302204Y-120554734D01*
X160482008Y-120650841D01*
X160677106Y-120710024D01*
X160880000Y-120730007D01*
X161082895Y-120710024D01*
X161277993Y-120650841D01*
X161457797Y-120554734D01*
X161615396Y-120425396D01*
X161744734Y-120267797D01*
X161840841Y-120087992D01*
X161900024Y-119892894D01*
X161915000Y-119740837D01*
X161915000Y-119039162D01*
X161900024Y-118887105D01*
X161840841Y-118692007D01*
X161744734Y-118512203D01*
X161615396Y-118354604D01*
X161457797Y-118225266D01*
X161456325Y-118224479D01*
X161464645Y-118140000D01*
X161446110Y-117951807D01*
X161391216Y-117770846D01*
X161302073Y-117604072D01*
X161182107Y-117457893D01*
X161035928Y-117337927D01*
X160869154Y-117248784D01*
X160688193Y-117193890D01*
X160547162Y-117180000D01*
X160152838Y-117180000D01*
X160011807Y-117193890D01*
X159830846Y-117248784D01*
X159664072Y-117337927D01*
X159517893Y-117457893D01*
X159397927Y-117604072D01*
X159308784Y-117770846D01*
X159280423Y-117864338D01*
X159274972Y-117865392D01*
X159099874Y-117936813D01*
X159090677Y-117941730D01*
X159077069Y-118137464D01*
X159252371Y-118312766D01*
X159253890Y-118328193D01*
X159308784Y-118509154D01*
X159328894Y-118546776D01*
X159244552Y-118530000D01*
X159110395Y-118530000D01*
X158897464Y-118317069D01*
X158793414Y-118324303D01*
X158695681Y-118178036D01*
X158561964Y-118044319D01*
X158404731Y-117939259D01*
X158230022Y-117866892D01*
X158044552Y-117830000D01*
X157855448Y-117830000D01*
X157669978Y-117866892D01*
X157550000Y-117916589D01*
X157430022Y-117866892D01*
X157244552Y-117830000D01*
X157055448Y-117830000D01*
X156869978Y-117866892D01*
X156750000Y-117916589D01*
X156630022Y-117866892D01*
X156444552Y-117830000D01*
X156255448Y-117830000D01*
X156069978Y-117866892D01*
X155950000Y-117916589D01*
X155830022Y-117866892D01*
X155644552Y-117830000D01*
X155455448Y-117830000D01*
X155269978Y-117866892D01*
X155095269Y-117939259D01*
X154938036Y-118044319D01*
X154804319Y-118178036D01*
X154706586Y-118324303D01*
X154602536Y-118317069D01*
X154389605Y-118530000D01*
X154255448Y-118530000D01*
X154069978Y-118566892D01*
X153999965Y-118595892D01*
X154000741Y-118594731D01*
X154025544Y-118534851D01*
X154422931Y-118137464D01*
X154409323Y-117941730D01*
X154235008Y-117868419D01*
X154061942Y-117833021D01*
X154000741Y-117685269D01*
X153895681Y-117528036D01*
X153761964Y-117394319D01*
X153604731Y-117289259D01*
X153430022Y-117216892D01*
X153244552Y-117180000D01*
X153055448Y-117180000D01*
X152869978Y-117216892D01*
X152695269Y-117289259D01*
X152538036Y-117394319D01*
X152404319Y-117528036D01*
X152299259Y-117685269D01*
X152226892Y-117859978D01*
X152190000Y-118045448D01*
X152190000Y-118146267D01*
X152042203Y-118225266D01*
X151884604Y-118354604D01*
X151755266Y-118512203D01*
X151659159Y-118692008D01*
X151599976Y-118887106D01*
X151585000Y-119039163D01*
X137407505Y-119039163D01*
X124762843Y-108200881D01*
X128978724Y-108200881D01*
X129338912Y-108690548D01*
X130002882Y-109050849D01*
X130724385Y-109274694D01*
X131475695Y-109353480D01*
X132227938Y-109284178D01*
X132952208Y-109069452D01*
X133620670Y-108717555D01*
X133661088Y-108690548D01*
X134021276Y-108200881D01*
X178978724Y-108200881D01*
X179338912Y-108690548D01*
X180002882Y-109050849D01*
X180724385Y-109274694D01*
X181475695Y-109353480D01*
X182227938Y-109284178D01*
X182952208Y-109069452D01*
X183620670Y-108717555D01*
X183661088Y-108690548D01*
X184021276Y-108200881D01*
X181500000Y-105679605D01*
X178978724Y-108200881D01*
X134021276Y-108200881D01*
X131500000Y-105679605D01*
X128978724Y-108200881D01*
X124762843Y-108200881D01*
X122086354Y-105906748D01*
X121655301Y-105475695D01*
X127646520Y-105475695D01*
X127715822Y-106227938D01*
X127930548Y-106952208D01*
X128282445Y-107620670D01*
X128309452Y-107661088D01*
X128799119Y-108021276D01*
X131320395Y-105500000D01*
X131679605Y-105500000D01*
X134200881Y-108021276D01*
X134690548Y-107661088D01*
X135050849Y-106997118D01*
X135274694Y-106275615D01*
X135353480Y-105524305D01*
X135349002Y-105475695D01*
X177646520Y-105475695D01*
X177715822Y-106227938D01*
X177930548Y-106952208D01*
X178282445Y-107620670D01*
X178309452Y-107661088D01*
X178799119Y-108021276D01*
X181320395Y-105500000D01*
X181679605Y-105500000D01*
X184200881Y-108021276D01*
X184690548Y-107661088D01*
X185050849Y-106997118D01*
X185274694Y-106275615D01*
X185353480Y-105524305D01*
X185284178Y-104772062D01*
X185069452Y-104047792D01*
X184717555Y-103379330D01*
X184690548Y-103338912D01*
X184200881Y-102978724D01*
X181679605Y-105500000D01*
X181320395Y-105500000D01*
X178799119Y-102978724D01*
X178309452Y-103338912D01*
X177949151Y-104002882D01*
X177725306Y-104724385D01*
X177646520Y-105475695D01*
X135349002Y-105475695D01*
X135284178Y-104772062D01*
X135069452Y-104047792D01*
X134717555Y-103379330D01*
X134690548Y-103338912D01*
X134200881Y-102978724D01*
X131679605Y-105500000D01*
X131320395Y-105500000D01*
X128799119Y-102978724D01*
X128309452Y-103338912D01*
X127949151Y-104002882D01*
X127725306Y-104724385D01*
X127646520Y-105475695D01*
X121655301Y-105475695D01*
X118978725Y-102799119D01*
X128978724Y-102799119D01*
X131500000Y-105320395D01*
X134021276Y-102799119D01*
X178978724Y-102799119D01*
X181500000Y-105320395D01*
X184021276Y-102799119D01*
X183661088Y-102309452D01*
X182997118Y-101949151D01*
X182275615Y-101725306D01*
X181524305Y-101646520D01*
X180772062Y-101715822D01*
X180047792Y-101930548D01*
X179379330Y-102282445D01*
X179338912Y-102309452D01*
X178978724Y-102799119D01*
X134021276Y-102799119D01*
X133661088Y-102309452D01*
X132997118Y-101949151D01*
X132275615Y-101725306D01*
X131524305Y-101646520D01*
X130772062Y-101715822D01*
X130047792Y-101930548D01*
X129379330Y-102282445D01*
X129338912Y-102309452D01*
X128978724Y-102799119D01*
X118978725Y-102799119D01*
X116627000Y-100447394D01*
X116627000Y-95402061D01*
X142221000Y-95402061D01*
X142221000Y-95605939D01*
X142260774Y-95805898D01*
X142338795Y-95994256D01*
X142452063Y-96163774D01*
X142596226Y-96307937D01*
X142765744Y-96421205D01*
X142954102Y-96499226D01*
X143154061Y-96539000D01*
X143357939Y-96539000D01*
X143557898Y-96499226D01*
X143746256Y-96421205D01*
X143915774Y-96307937D01*
X144059937Y-96163774D01*
X144173205Y-95994256D01*
X144251226Y-95805898D01*
X144291000Y-95605939D01*
X144291000Y-95402061D01*
X144251226Y-95202102D01*
X144173205Y-95013744D01*
X144059937Y-94844226D01*
X143915774Y-94700063D01*
X143746256Y-94586795D01*
X143557898Y-94508774D01*
X143357939Y-94469000D01*
X143154061Y-94469000D01*
X142954102Y-94508774D01*
X142765744Y-94586795D01*
X142596226Y-94700063D01*
X142452063Y-94844226D01*
X142338795Y-95013744D01*
X142260774Y-95202102D01*
X142221000Y-95402061D01*
X116627000Y-95402061D01*
X116627000Y-92648061D01*
X147215000Y-92648061D01*
X147215000Y-92851939D01*
X147254774Y-93051898D01*
X147332795Y-93240256D01*
X147446063Y-93409774D01*
X147590226Y-93553937D01*
X147759744Y-93667205D01*
X147948102Y-93745226D01*
X148148061Y-93785000D01*
X148351939Y-93785000D01*
X148551898Y-93745226D01*
X148740256Y-93667205D01*
X148909774Y-93553937D01*
X149053937Y-93409774D01*
X149167205Y-93240256D01*
X149245226Y-93051898D01*
X149285000Y-92851939D01*
X149285000Y-92648061D01*
X152215000Y-92648061D01*
X152215000Y-92851939D01*
X152254774Y-93051898D01*
X152332795Y-93240256D01*
X152446063Y-93409774D01*
X152590226Y-93553937D01*
X152759744Y-93667205D01*
X152948102Y-93745226D01*
X153148061Y-93785000D01*
X153351939Y-93785000D01*
X153551898Y-93745226D01*
X153740256Y-93667205D01*
X153909774Y-93553937D01*
X154053937Y-93409774D01*
X154167205Y-93240256D01*
X154245226Y-93051898D01*
X154285000Y-92851939D01*
X154285000Y-92825000D01*
X158186928Y-92825000D01*
X158186928Y-94175000D01*
X158199188Y-94299482D01*
X158235498Y-94419180D01*
X158294463Y-94529494D01*
X158373815Y-94626185D01*
X158470506Y-94705537D01*
X158580820Y-94764502D01*
X158700518Y-94800812D01*
X158825000Y-94813072D01*
X160175000Y-94813072D01*
X160299482Y-94800812D01*
X160419180Y-94764502D01*
X160529494Y-94705537D01*
X160626185Y-94626185D01*
X160697487Y-94539303D01*
X160879482Y-94660907D01*
X161117887Y-94759658D01*
X161370976Y-94810000D01*
X161629024Y-94810000D01*
X161882113Y-94759658D01*
X162120518Y-94660907D01*
X162335077Y-94517544D01*
X162517544Y-94335077D01*
X162660907Y-94120518D01*
X162759658Y-93882113D01*
X162810000Y-93629024D01*
X162810000Y-93370976D01*
X162759658Y-93117887D01*
X162660907Y-92879482D01*
X162517544Y-92664923D01*
X162352621Y-92500000D01*
X162517544Y-92335077D01*
X162660907Y-92120518D01*
X162759658Y-91882113D01*
X162810000Y-91629024D01*
X162810000Y-91370976D01*
X162759658Y-91117887D01*
X162660907Y-90879482D01*
X162517544Y-90664923D01*
X162352621Y-90500000D01*
X162517544Y-90335077D01*
X162660907Y-90120518D01*
X162759658Y-89882113D01*
X162810000Y-89629024D01*
X162810000Y-89370976D01*
X162759658Y-89117887D01*
X162660907Y-88879482D01*
X162517544Y-88664923D01*
X162352621Y-88500000D01*
X162517544Y-88335077D01*
X162660907Y-88120518D01*
X162759658Y-87882113D01*
X162810000Y-87629024D01*
X162810000Y-87370976D01*
X162759658Y-87117887D01*
X162660907Y-86879482D01*
X162517544Y-86664923D01*
X162352621Y-86500000D01*
X162517544Y-86335077D01*
X162660907Y-86120518D01*
X162759658Y-85882113D01*
X162810000Y-85629024D01*
X162810000Y-85370976D01*
X162759658Y-85117887D01*
X162660907Y-84879482D01*
X162517544Y-84664923D01*
X162335077Y-84482456D01*
X162120518Y-84339093D01*
X161882113Y-84240342D01*
X161629024Y-84190000D01*
X161370976Y-84190000D01*
X161117887Y-84240342D01*
X160879482Y-84339093D01*
X160664923Y-84482456D01*
X160495285Y-84652094D01*
X160478303Y-84628773D01*
X160289537Y-84454656D01*
X160070430Y-84320711D01*
X159829401Y-84232085D01*
X159627000Y-84354915D01*
X159627000Y-85373000D01*
X159647000Y-85373000D01*
X159647000Y-85627000D01*
X159627000Y-85627000D01*
X159627000Y-85647000D01*
X159373000Y-85647000D01*
X159373000Y-85627000D01*
X158355776Y-85627000D01*
X158232090Y-85829400D01*
X158262762Y-85930528D01*
X158370527Y-86163629D01*
X158521697Y-86371227D01*
X158654060Y-86493319D01*
X158482456Y-86664923D01*
X158339093Y-86879482D01*
X158240342Y-87117887D01*
X158190000Y-87370976D01*
X158190000Y-87629024D01*
X158240342Y-87882113D01*
X158339093Y-88120518D01*
X158482456Y-88335077D01*
X158654060Y-88506681D01*
X158521697Y-88628773D01*
X158370527Y-88836371D01*
X158262762Y-89069472D01*
X158232090Y-89170600D01*
X158355776Y-89373000D01*
X159373000Y-89373000D01*
X159373000Y-89353000D01*
X159627000Y-89353000D01*
X159627000Y-89373000D01*
X159647000Y-89373000D01*
X159647000Y-89627000D01*
X159627000Y-89627000D01*
X159627000Y-91373000D01*
X159647000Y-91373000D01*
X159647000Y-91627000D01*
X159627000Y-91627000D01*
X159627000Y-91647000D01*
X159373000Y-91647000D01*
X159373000Y-91627000D01*
X158355776Y-91627000D01*
X158232090Y-91829400D01*
X158262762Y-91930528D01*
X158370527Y-92163629D01*
X158467559Y-92296881D01*
X158373815Y-92373815D01*
X158294463Y-92470506D01*
X158235498Y-92580820D01*
X158199188Y-92700518D01*
X158186928Y-92825000D01*
X154285000Y-92825000D01*
X154285000Y-92648061D01*
X154245226Y-92448102D01*
X154167205Y-92259744D01*
X154053937Y-92090226D01*
X153909774Y-91946063D01*
X153740256Y-91832795D01*
X153551898Y-91754774D01*
X153351939Y-91715000D01*
X153148061Y-91715000D01*
X152948102Y-91754774D01*
X152759744Y-91832795D01*
X152590226Y-91946063D01*
X152446063Y-92090226D01*
X152332795Y-92259744D01*
X152254774Y-92448102D01*
X152215000Y-92648061D01*
X149285000Y-92648061D01*
X149245226Y-92448102D01*
X149167205Y-92259744D01*
X149053937Y-92090226D01*
X148909774Y-91946063D01*
X148740256Y-91832795D01*
X148551898Y-91754774D01*
X148351939Y-91715000D01*
X148148061Y-91715000D01*
X147948102Y-91754774D01*
X147759744Y-91832795D01*
X147590226Y-91946063D01*
X147446063Y-92090226D01*
X147332795Y-92259744D01*
X147254774Y-92448102D01*
X147215000Y-92648061D01*
X116627000Y-92648061D01*
X116627000Y-85825000D01*
X135436928Y-85825000D01*
X135436928Y-87175000D01*
X135449188Y-87299482D01*
X135485498Y-87419180D01*
X135544463Y-87529494D01*
X135623815Y-87626185D01*
X135710697Y-87697487D01*
X135589093Y-87879482D01*
X135490342Y-88117887D01*
X135440000Y-88370976D01*
X135440000Y-88629024D01*
X135490342Y-88882113D01*
X135589093Y-89120518D01*
X135732456Y-89335077D01*
X135914923Y-89517544D01*
X136129482Y-89660907D01*
X136367887Y-89759658D01*
X136620976Y-89810000D01*
X136879024Y-89810000D01*
X137132113Y-89759658D01*
X137370518Y-89660907D01*
X137585077Y-89517544D01*
X137767544Y-89335077D01*
X137910907Y-89120518D01*
X138009658Y-88882113D01*
X138060000Y-88629024D01*
X138060000Y-88370976D01*
X138009658Y-88117887D01*
X137918603Y-87898061D01*
X144645000Y-87898061D01*
X144645000Y-88101939D01*
X144684774Y-88301898D01*
X144762795Y-88490256D01*
X144876063Y-88659774D01*
X145020226Y-88803937D01*
X145189744Y-88917205D01*
X145378102Y-88995226D01*
X145418103Y-89003183D01*
X145410102Y-89004774D01*
X145221744Y-89082795D01*
X145052226Y-89196063D01*
X144908063Y-89340226D01*
X144794795Y-89509744D01*
X144716774Y-89698102D01*
X144677000Y-89898061D01*
X144677000Y-90101939D01*
X144716774Y-90301898D01*
X144794795Y-90490256D01*
X144908063Y-90659774D01*
X145052226Y-90803937D01*
X145221744Y-90917205D01*
X145410102Y-90995226D01*
X145610061Y-91035000D01*
X145813939Y-91035000D01*
X146013898Y-90995226D01*
X146202256Y-90917205D01*
X146371774Y-90803937D01*
X146515937Y-90659774D01*
X146629205Y-90490256D01*
X146707226Y-90301898D01*
X146747000Y-90101939D01*
X146747000Y-89898061D01*
X146733343Y-89829400D01*
X158232090Y-89829400D01*
X158262762Y-89930528D01*
X158370527Y-90163629D01*
X158521697Y-90371227D01*
X158661304Y-90500000D01*
X158521697Y-90628773D01*
X158370527Y-90836371D01*
X158262762Y-91069472D01*
X158232090Y-91170600D01*
X158355776Y-91373000D01*
X159373000Y-91373000D01*
X159373000Y-89627000D01*
X158355776Y-89627000D01*
X158232090Y-89829400D01*
X146733343Y-89829400D01*
X146707226Y-89698102D01*
X146629205Y-89509744D01*
X146515937Y-89340226D01*
X146371774Y-89196063D01*
X146202256Y-89082795D01*
X146013898Y-89004774D01*
X145973897Y-88996817D01*
X145981898Y-88995226D01*
X146170256Y-88917205D01*
X146339774Y-88803937D01*
X146483937Y-88659774D01*
X146597205Y-88490256D01*
X146675226Y-88301898D01*
X146677580Y-88290061D01*
X154159000Y-88290061D01*
X154159000Y-88493939D01*
X154198774Y-88693898D01*
X154276795Y-88882256D01*
X154390063Y-89051774D01*
X154534226Y-89195937D01*
X154703744Y-89309205D01*
X154892102Y-89387226D01*
X155092061Y-89427000D01*
X155295939Y-89427000D01*
X155495898Y-89387226D01*
X155684256Y-89309205D01*
X155853774Y-89195937D01*
X155997937Y-89051774D01*
X156111205Y-88882256D01*
X156189226Y-88693898D01*
X156229000Y-88493939D01*
X156229000Y-88290061D01*
X156189226Y-88090102D01*
X156111205Y-87901744D01*
X155997937Y-87732226D01*
X155853774Y-87588063D01*
X155684256Y-87474795D01*
X155495898Y-87396774D01*
X155295939Y-87357000D01*
X155092061Y-87357000D01*
X154892102Y-87396774D01*
X154703744Y-87474795D01*
X154534226Y-87588063D01*
X154390063Y-87732226D01*
X154276795Y-87901744D01*
X154198774Y-88090102D01*
X154159000Y-88290061D01*
X146677580Y-88290061D01*
X146715000Y-88101939D01*
X146715000Y-87898061D01*
X146675226Y-87698102D01*
X146597205Y-87509744D01*
X146483937Y-87340226D01*
X146339774Y-87196063D01*
X146170256Y-87082795D01*
X145981898Y-87004774D01*
X145781939Y-86965000D01*
X145578061Y-86965000D01*
X145378102Y-87004774D01*
X145189744Y-87082795D01*
X145020226Y-87196063D01*
X144876063Y-87340226D01*
X144762795Y-87509744D01*
X144684774Y-87698102D01*
X144645000Y-87898061D01*
X137918603Y-87898061D01*
X137910907Y-87879482D01*
X137789303Y-87697487D01*
X137876185Y-87626185D01*
X137955537Y-87529494D01*
X138014502Y-87419180D01*
X138050812Y-87299482D01*
X138063072Y-87175000D01*
X138063072Y-86428061D01*
X146285000Y-86428061D01*
X146285000Y-86631939D01*
X146324774Y-86831898D01*
X146402795Y-87020256D01*
X146516063Y-87189774D01*
X146660226Y-87333937D01*
X146829744Y-87447205D01*
X147018102Y-87525226D01*
X147218061Y-87565000D01*
X147421939Y-87565000D01*
X147621898Y-87525226D01*
X147810256Y-87447205D01*
X147979774Y-87333937D01*
X148123937Y-87189774D01*
X148237205Y-87020256D01*
X148315226Y-86831898D01*
X148355000Y-86631939D01*
X148355000Y-86428061D01*
X148321394Y-86259109D01*
X148487774Y-86147937D01*
X148631937Y-86003774D01*
X148745205Y-85834256D01*
X148823226Y-85645898D01*
X148863000Y-85445939D01*
X148863000Y-85242061D01*
X148848786Y-85170600D01*
X158232090Y-85170600D01*
X158355776Y-85373000D01*
X159373000Y-85373000D01*
X159373000Y-84354915D01*
X159170599Y-84232085D01*
X158929570Y-84320711D01*
X158710463Y-84454656D01*
X158521697Y-84628773D01*
X158370527Y-84836371D01*
X158262762Y-85069472D01*
X158232090Y-85170600D01*
X148848786Y-85170600D01*
X148823226Y-85042102D01*
X148745205Y-84853744D01*
X148631937Y-84684226D01*
X148487774Y-84540063D01*
X148318256Y-84426795D01*
X148129898Y-84348774D01*
X147929939Y-84309000D01*
X147726061Y-84309000D01*
X147526102Y-84348774D01*
X147337744Y-84426795D01*
X147168226Y-84540063D01*
X147024063Y-84684226D01*
X146910795Y-84853744D01*
X146832774Y-85042102D01*
X146793000Y-85242061D01*
X146793000Y-85445939D01*
X146826606Y-85614891D01*
X146660226Y-85726063D01*
X146516063Y-85870226D01*
X146402795Y-86039744D01*
X146324774Y-86228102D01*
X146285000Y-86428061D01*
X138063072Y-86428061D01*
X138063072Y-85825000D01*
X138050812Y-85700518D01*
X138014502Y-85580820D01*
X137955537Y-85470506D01*
X137876185Y-85373815D01*
X137779494Y-85294463D01*
X137669180Y-85235498D01*
X137549482Y-85199188D01*
X137425000Y-85186928D01*
X136075000Y-85186928D01*
X135950518Y-85199188D01*
X135830820Y-85235498D01*
X135720506Y-85294463D01*
X135623815Y-85373815D01*
X135544463Y-85470506D01*
X135485498Y-85580820D01*
X135449188Y-85700518D01*
X135436928Y-85825000D01*
X116627000Y-85825000D01*
X116627000Y-81218061D01*
X135905000Y-81218061D01*
X135905000Y-81421939D01*
X135944774Y-81621898D01*
X136022795Y-81810256D01*
X136136063Y-81979774D01*
X136280226Y-82123937D01*
X136449744Y-82237205D01*
X136623386Y-82309130D01*
X136542795Y-82429744D01*
X136464774Y-82618102D01*
X136425000Y-82818061D01*
X136425000Y-83021939D01*
X136464774Y-83221898D01*
X136542795Y-83410256D01*
X136656063Y-83579774D01*
X136800226Y-83723937D01*
X136969744Y-83837205D01*
X137158102Y-83915226D01*
X137358061Y-83955000D01*
X137561939Y-83955000D01*
X137761898Y-83915226D01*
X137950256Y-83837205D01*
X138119774Y-83723937D01*
X138125650Y-83718061D01*
X154159000Y-83718061D01*
X154159000Y-83921939D01*
X154198774Y-84121898D01*
X154276795Y-84310256D01*
X154390063Y-84479774D01*
X154534226Y-84623937D01*
X154703744Y-84737205D01*
X154892102Y-84815226D01*
X155092061Y-84855000D01*
X155295939Y-84855000D01*
X155495898Y-84815226D01*
X155684256Y-84737205D01*
X155853774Y-84623937D01*
X155997937Y-84479774D01*
X156111205Y-84310256D01*
X156189226Y-84121898D01*
X156229000Y-83921939D01*
X156229000Y-83718061D01*
X156189226Y-83518102D01*
X156181480Y-83499400D01*
X164552090Y-83499400D01*
X164582762Y-83600528D01*
X164690527Y-83833629D01*
X164841697Y-84041227D01*
X165030463Y-84215344D01*
X165249570Y-84349289D01*
X165490599Y-84437915D01*
X165693000Y-84315085D01*
X165693000Y-83297000D01*
X165947000Y-83297000D01*
X165947000Y-84315085D01*
X166149401Y-84437915D01*
X166390430Y-84349289D01*
X166609537Y-84215344D01*
X166798303Y-84041227D01*
X166949473Y-83833629D01*
X167020497Y-83680000D01*
X182931928Y-83680000D01*
X182931928Y-86280000D01*
X182944188Y-86404482D01*
X182980498Y-86524180D01*
X183039463Y-86634494D01*
X183118815Y-86731185D01*
X183215506Y-86810537D01*
X183325820Y-86869502D01*
X183445518Y-86905812D01*
X183570000Y-86918072D01*
X186170000Y-86918072D01*
X186294482Y-86905812D01*
X186414180Y-86869502D01*
X186524494Y-86810537D01*
X186621185Y-86731185D01*
X186700537Y-86634494D01*
X186759502Y-86524180D01*
X186795812Y-86404482D01*
X186808072Y-86280000D01*
X186808072Y-83680000D01*
X186795812Y-83555518D01*
X186759502Y-83435820D01*
X186700537Y-83325506D01*
X186621185Y-83228815D01*
X186524494Y-83149463D01*
X186414180Y-83090498D01*
X186294482Y-83054188D01*
X186170000Y-83041928D01*
X183570000Y-83041928D01*
X183445518Y-83054188D01*
X183325820Y-83090498D01*
X183215506Y-83149463D01*
X183118815Y-83228815D01*
X183039463Y-83325506D01*
X182980498Y-83435820D01*
X182944188Y-83555518D01*
X182931928Y-83680000D01*
X167020497Y-83680000D01*
X167057238Y-83600528D01*
X167087910Y-83499400D01*
X166964224Y-83297000D01*
X165947000Y-83297000D01*
X165693000Y-83297000D01*
X164675776Y-83297000D01*
X164552090Y-83499400D01*
X156181480Y-83499400D01*
X156111205Y-83329744D01*
X155997937Y-83160226D01*
X155853774Y-83016063D01*
X155684256Y-82902795D01*
X155495898Y-82824774D01*
X155295939Y-82785000D01*
X155092061Y-82785000D01*
X154892102Y-82824774D01*
X154703744Y-82902795D01*
X154534226Y-83016063D01*
X154390063Y-83160226D01*
X154276795Y-83329744D01*
X154198774Y-83518102D01*
X154159000Y-83718061D01*
X138125650Y-83718061D01*
X138263937Y-83579774D01*
X138377205Y-83410256D01*
X138455226Y-83221898D01*
X138495000Y-83021939D01*
X138495000Y-82818061D01*
X138455226Y-82618102D01*
X138377205Y-82429744D01*
X138263937Y-82260226D01*
X138119774Y-82116063D01*
X137950256Y-82002795D01*
X137776614Y-81930870D01*
X137857205Y-81810256D01*
X137935226Y-81621898D01*
X137975000Y-81421939D01*
X137975000Y-81218061D01*
X137935226Y-81018102D01*
X137857205Y-80829744D01*
X137743937Y-80660226D01*
X137599774Y-80516063D01*
X137430256Y-80402795D01*
X137241898Y-80324774D01*
X137041939Y-80285000D01*
X136838061Y-80285000D01*
X136638102Y-80324774D01*
X136449744Y-80402795D01*
X136280226Y-80516063D01*
X136136063Y-80660226D01*
X136022795Y-80829744D01*
X135944774Y-81018102D01*
X135905000Y-81218061D01*
X116627000Y-81218061D01*
X116627000Y-78508521D01*
X140897660Y-78508521D01*
X140897660Y-78712399D01*
X140937434Y-78912358D01*
X141015455Y-79100716D01*
X141128723Y-79270234D01*
X141272886Y-79414397D01*
X141442404Y-79527665D01*
X141630762Y-79605686D01*
X141830721Y-79645460D01*
X142034599Y-79645460D01*
X142234558Y-79605686D01*
X142422916Y-79527665D01*
X142592434Y-79414397D01*
X142736597Y-79270234D01*
X142849865Y-79100716D01*
X142927886Y-78912358D01*
X142967660Y-78712399D01*
X142967660Y-78508521D01*
X142942904Y-78384061D01*
X159747000Y-78384061D01*
X159747000Y-78587939D01*
X159786774Y-78787898D01*
X159864795Y-78976256D01*
X159978063Y-79145774D01*
X160122226Y-79289937D01*
X160291744Y-79403205D01*
X160480102Y-79481226D01*
X160680061Y-79521000D01*
X160883939Y-79521000D01*
X161083898Y-79481226D01*
X161272256Y-79403205D01*
X161441774Y-79289937D01*
X161585937Y-79145774D01*
X161699205Y-78976256D01*
X161777226Y-78787898D01*
X161817000Y-78587939D01*
X161817000Y-78384061D01*
X161791338Y-78255049D01*
X161840226Y-78303937D01*
X162009744Y-78417205D01*
X162198102Y-78495226D01*
X162398061Y-78535000D01*
X162601939Y-78535000D01*
X162801898Y-78495226D01*
X162990256Y-78417205D01*
X163159774Y-78303937D01*
X163250000Y-78213711D01*
X163286289Y-78250000D01*
X163196063Y-78340226D01*
X163082795Y-78509744D01*
X163004774Y-78698102D01*
X162965000Y-78898061D01*
X162965000Y-79101939D01*
X162966888Y-79111430D01*
X162840226Y-79196063D01*
X162696063Y-79340226D01*
X162582795Y-79509744D01*
X162504774Y-79698102D01*
X162465000Y-79898061D01*
X162465000Y-80101939D01*
X162504774Y-80301898D01*
X162582795Y-80490256D01*
X162696063Y-80659774D01*
X162840226Y-80803937D01*
X162966888Y-80888570D01*
X162965000Y-80898061D01*
X162965000Y-81101939D01*
X163004774Y-81301898D01*
X163082795Y-81490256D01*
X163196063Y-81659774D01*
X163340226Y-81803937D01*
X163509744Y-81917205D01*
X163698102Y-81995226D01*
X163898061Y-82035000D01*
X164101939Y-82035000D01*
X164301898Y-81995226D01*
X164490256Y-81917205D01*
X164512571Y-81902295D01*
X164519188Y-81969482D01*
X164555498Y-82089180D01*
X164614463Y-82199494D01*
X164693815Y-82296185D01*
X164787559Y-82373119D01*
X164690527Y-82506371D01*
X164582762Y-82739472D01*
X164552090Y-82840600D01*
X164675776Y-83043000D01*
X165693000Y-83043000D01*
X165693000Y-83023000D01*
X165947000Y-83023000D01*
X165947000Y-83043000D01*
X166964224Y-83043000D01*
X167087910Y-82840600D01*
X167057238Y-82739472D01*
X166949473Y-82506371D01*
X166852441Y-82373119D01*
X166946185Y-82296185D01*
X167025537Y-82199494D01*
X167084502Y-82089180D01*
X167120812Y-81969482D01*
X167121405Y-81963457D01*
X167198102Y-81995226D01*
X167398061Y-82035000D01*
X167601939Y-82035000D01*
X167801898Y-81995226D01*
X167990256Y-81917205D01*
X168159774Y-81803937D01*
X168303937Y-81659774D01*
X168417205Y-81490256D01*
X168483907Y-81329224D01*
X183700381Y-81329224D01*
X183832317Y-81624312D01*
X184173045Y-81795159D01*
X184540557Y-81896250D01*
X184920729Y-81923701D01*
X185298951Y-81876457D01*
X185660690Y-81756333D01*
X185907683Y-81624312D01*
X186039619Y-81329224D01*
X184870000Y-80159605D01*
X183700381Y-81329224D01*
X168483907Y-81329224D01*
X168495226Y-81301898D01*
X168535000Y-81101939D01*
X168535000Y-80898061D01*
X168533112Y-80888570D01*
X168659774Y-80803937D01*
X168803937Y-80659774D01*
X168917205Y-80490256D01*
X168995226Y-80301898D01*
X169035000Y-80101939D01*
X169035000Y-80030729D01*
X182926299Y-80030729D01*
X182973543Y-80408951D01*
X183093667Y-80770690D01*
X183225688Y-81017683D01*
X183520776Y-81149619D01*
X184690395Y-79980000D01*
X185049605Y-79980000D01*
X186219224Y-81149619D01*
X186514312Y-81017683D01*
X186685159Y-80676955D01*
X186786250Y-80309443D01*
X186813701Y-79929271D01*
X186766457Y-79551049D01*
X186646333Y-79189310D01*
X186514312Y-78942317D01*
X186219224Y-78810381D01*
X185049605Y-79980000D01*
X184690395Y-79980000D01*
X183520776Y-78810381D01*
X183225688Y-78942317D01*
X183054841Y-79283045D01*
X182953750Y-79650557D01*
X182926299Y-80030729D01*
X169035000Y-80030729D01*
X169035000Y-79898061D01*
X168998608Y-79715103D01*
X169053937Y-79659774D01*
X169167205Y-79490256D01*
X169245226Y-79301898D01*
X169285000Y-79101939D01*
X169285000Y-78898061D01*
X169245226Y-78698102D01*
X169217339Y-78630776D01*
X183700381Y-78630776D01*
X184870000Y-79800395D01*
X186039619Y-78630776D01*
X185907683Y-78335688D01*
X185566955Y-78164841D01*
X185199443Y-78063750D01*
X184819271Y-78036299D01*
X184441049Y-78083543D01*
X184079310Y-78203667D01*
X183832317Y-78335688D01*
X183700381Y-78630776D01*
X169217339Y-78630776D01*
X169167205Y-78509744D01*
X169053937Y-78340226D01*
X168998608Y-78284897D01*
X169035000Y-78101939D01*
X169035000Y-77898061D01*
X168995226Y-77698102D01*
X168917205Y-77509744D01*
X168803937Y-77340226D01*
X168659774Y-77196063D01*
X168490256Y-77082795D01*
X168301898Y-77004774D01*
X168101939Y-76965000D01*
X167898061Y-76965000D01*
X167888570Y-76966888D01*
X167803937Y-76840226D01*
X167659774Y-76696063D01*
X167490256Y-76582795D01*
X167301898Y-76504774D01*
X167101939Y-76465000D01*
X167036594Y-76465000D01*
X167109274Y-76416437D01*
X167253437Y-76272274D01*
X167366705Y-76102756D01*
X167444726Y-75914398D01*
X167484500Y-75714439D01*
X167484500Y-75510561D01*
X167444726Y-75310602D01*
X167366705Y-75122244D01*
X167253437Y-74952726D01*
X167109274Y-74808563D01*
X166939756Y-74695295D01*
X166751398Y-74617274D01*
X166551439Y-74577500D01*
X166347561Y-74577500D01*
X166147602Y-74617274D01*
X165959244Y-74695295D01*
X165789726Y-74808563D01*
X165645563Y-74952726D01*
X165532295Y-75122244D01*
X165454274Y-75310602D01*
X165414500Y-75510561D01*
X165414500Y-75714439D01*
X165454274Y-75914398D01*
X165532295Y-76102756D01*
X165645563Y-76272274D01*
X165789726Y-76416437D01*
X165959244Y-76529705D01*
X166147602Y-76607726D01*
X166347561Y-76647500D01*
X166412906Y-76647500D01*
X166340226Y-76696063D01*
X166250000Y-76786289D01*
X166159774Y-76696063D01*
X165990256Y-76582795D01*
X165801898Y-76504774D01*
X165601939Y-76465000D01*
X165398061Y-76465000D01*
X165198102Y-76504774D01*
X165009744Y-76582795D01*
X164840226Y-76696063D01*
X164750000Y-76786289D01*
X164659774Y-76696063D01*
X164490256Y-76582795D01*
X164411082Y-76550000D01*
X164490256Y-76517205D01*
X164659774Y-76403937D01*
X164803937Y-76259774D01*
X164917205Y-76090256D01*
X164995226Y-75901898D01*
X165035000Y-75701939D01*
X165035000Y-75498061D01*
X164995226Y-75298102D01*
X164917205Y-75109744D01*
X164803937Y-74940226D01*
X164659774Y-74796063D01*
X164490256Y-74682795D01*
X164301898Y-74604774D01*
X164101939Y-74565000D01*
X163898061Y-74565000D01*
X163698102Y-74604774D01*
X163509744Y-74682795D01*
X163340226Y-74796063D01*
X163196063Y-74940226D01*
X163082795Y-75109744D01*
X163004774Y-75298102D01*
X162965000Y-75498061D01*
X162965000Y-75701939D01*
X162974466Y-75749530D01*
X162948102Y-75754774D01*
X162759744Y-75832795D01*
X162590226Y-75946063D01*
X162446063Y-76090226D01*
X162332795Y-76259744D01*
X162254774Y-76448102D01*
X162245372Y-76495372D01*
X162198102Y-76504774D01*
X162009744Y-76582795D01*
X161840226Y-76696063D01*
X161696063Y-76840226D01*
X161582795Y-77009744D01*
X161504774Y-77198102D01*
X161465000Y-77398061D01*
X161465000Y-77601939D01*
X161490662Y-77730951D01*
X161441774Y-77682063D01*
X161272256Y-77568795D01*
X161083898Y-77490774D01*
X160883939Y-77451000D01*
X160680061Y-77451000D01*
X160480102Y-77490774D01*
X160291744Y-77568795D01*
X160122226Y-77682063D01*
X159978063Y-77826226D01*
X159864795Y-77995744D01*
X159786774Y-78184102D01*
X159747000Y-78384061D01*
X142942904Y-78384061D01*
X142927886Y-78308562D01*
X142849865Y-78120204D01*
X142736597Y-77950686D01*
X142592434Y-77806523D01*
X142422916Y-77693255D01*
X142234558Y-77615234D01*
X142034599Y-77575460D01*
X141830721Y-77575460D01*
X141630762Y-77615234D01*
X141442404Y-77693255D01*
X141272886Y-77806523D01*
X141128723Y-77950686D01*
X141015455Y-78120204D01*
X140937434Y-78308562D01*
X140897660Y-78508521D01*
X116627000Y-78508521D01*
X116627000Y-76760561D01*
X136477500Y-76760561D01*
X136477500Y-76964439D01*
X136517274Y-77164398D01*
X136595295Y-77352756D01*
X136708563Y-77522274D01*
X136852726Y-77666437D01*
X137022244Y-77779705D01*
X137210602Y-77857726D01*
X137410561Y-77897500D01*
X137614439Y-77897500D01*
X137814398Y-77857726D01*
X138002756Y-77779705D01*
X138172274Y-77666437D01*
X138316437Y-77522274D01*
X138429705Y-77352756D01*
X138507726Y-77164398D01*
X138517738Y-77114061D01*
X154159000Y-77114061D01*
X154159000Y-77317939D01*
X154198774Y-77517898D01*
X154276795Y-77706256D01*
X154390063Y-77875774D01*
X154534226Y-78019937D01*
X154703744Y-78133205D01*
X154892102Y-78211226D01*
X155092061Y-78251000D01*
X155295939Y-78251000D01*
X155495898Y-78211226D01*
X155684256Y-78133205D01*
X155853774Y-78019937D01*
X155997937Y-77875774D01*
X156111205Y-77706256D01*
X156189226Y-77517898D01*
X156229000Y-77317939D01*
X156229000Y-77114061D01*
X156189226Y-76914102D01*
X156111205Y-76725744D01*
X155997937Y-76556226D01*
X155853774Y-76412063D01*
X155684256Y-76298795D01*
X155495898Y-76220774D01*
X155295939Y-76181000D01*
X155092061Y-76181000D01*
X154892102Y-76220774D01*
X154703744Y-76298795D01*
X154534226Y-76412063D01*
X154390063Y-76556226D01*
X154276795Y-76725744D01*
X154198774Y-76914102D01*
X154159000Y-77114061D01*
X138517738Y-77114061D01*
X138547500Y-76964439D01*
X138547500Y-76760561D01*
X138507726Y-76560602D01*
X138429705Y-76372244D01*
X138316437Y-76202726D01*
X138172274Y-76058563D01*
X138002756Y-75945295D01*
X137814398Y-75867274D01*
X137614439Y-75827500D01*
X137410561Y-75827500D01*
X137210602Y-75867274D01*
X137022244Y-75945295D01*
X136852726Y-76058563D01*
X136708563Y-76202726D01*
X136595295Y-76372244D01*
X136517274Y-76560602D01*
X136477500Y-76760561D01*
X116627000Y-76760561D01*
X116627000Y-73535561D01*
X132827500Y-73535561D01*
X132827500Y-73739439D01*
X132867274Y-73939398D01*
X132945295Y-74127756D01*
X133058563Y-74297274D01*
X133202726Y-74441437D01*
X133372244Y-74554705D01*
X133560602Y-74632726D01*
X133760561Y-74672500D01*
X133964439Y-74672500D01*
X134164398Y-74632726D01*
X134352756Y-74554705D01*
X134522274Y-74441437D01*
X134666437Y-74297274D01*
X134779705Y-74127756D01*
X134805260Y-74066061D01*
X140697000Y-74066061D01*
X140697000Y-74269939D01*
X140736774Y-74469898D01*
X140814795Y-74658256D01*
X140928063Y-74827774D01*
X141072226Y-74971937D01*
X141241744Y-75085205D01*
X141430102Y-75163226D01*
X141630061Y-75203000D01*
X141833939Y-75203000D01*
X142033898Y-75163226D01*
X142222256Y-75085205D01*
X142391774Y-74971937D01*
X142535937Y-74827774D01*
X142649205Y-74658256D01*
X142727226Y-74469898D01*
X142767000Y-74269939D01*
X142767000Y-74066061D01*
X142727226Y-73866102D01*
X142649205Y-73677744D01*
X142535937Y-73508226D01*
X142391774Y-73364063D01*
X142222256Y-73250795D01*
X142033898Y-73172774D01*
X141833939Y-73133000D01*
X141630061Y-73133000D01*
X141430102Y-73172774D01*
X141241744Y-73250795D01*
X141072226Y-73364063D01*
X140928063Y-73508226D01*
X140814795Y-73677744D01*
X140736774Y-73866102D01*
X140697000Y-74066061D01*
X134805260Y-74066061D01*
X134857726Y-73939398D01*
X134897500Y-73739439D01*
X134897500Y-73535561D01*
X134857726Y-73335602D01*
X134779705Y-73147244D01*
X134666437Y-72977726D01*
X134522274Y-72833563D01*
X134352756Y-72720295D01*
X134164398Y-72642274D01*
X133964439Y-72602500D01*
X133760561Y-72602500D01*
X133560602Y-72642274D01*
X133372244Y-72720295D01*
X133202726Y-72833563D01*
X133058563Y-72977726D01*
X132945295Y-73147244D01*
X132867274Y-73335602D01*
X132827500Y-73535561D01*
X116627000Y-73535561D01*
X116627000Y-68539672D01*
X118506387Y-65825000D01*
X137686928Y-65825000D01*
X137686928Y-67175000D01*
X137699188Y-67299482D01*
X137735498Y-67419180D01*
X137794463Y-67529494D01*
X137873815Y-67626185D01*
X137960697Y-67697487D01*
X137839093Y-67879482D01*
X137740342Y-68117887D01*
X137690000Y-68370976D01*
X137690000Y-68629024D01*
X137740342Y-68882113D01*
X137839093Y-69120518D01*
X137982456Y-69335077D01*
X138147379Y-69500000D01*
X137982456Y-69664923D01*
X137839093Y-69879482D01*
X137740342Y-70117887D01*
X137690000Y-70370976D01*
X137690000Y-70629024D01*
X137740342Y-70882113D01*
X137839093Y-71120518D01*
X137982456Y-71335077D01*
X138164923Y-71517544D01*
X138379482Y-71660907D01*
X138617887Y-71759658D01*
X138870976Y-71810000D01*
X139129024Y-71810000D01*
X139382113Y-71759658D01*
X139620518Y-71660907D01*
X139835077Y-71517544D01*
X140017544Y-71335077D01*
X140160907Y-71120518D01*
X140259658Y-70882113D01*
X140310000Y-70629024D01*
X140310000Y-70370976D01*
X140259658Y-70117887D01*
X140160907Y-69879482D01*
X140017544Y-69664923D01*
X139852621Y-69500000D01*
X140017544Y-69335077D01*
X140160907Y-69120518D01*
X140259658Y-68882113D01*
X140310000Y-68629024D01*
X140310000Y-68370976D01*
X140259658Y-68117887D01*
X140160907Y-67879482D01*
X140039303Y-67697487D01*
X140126185Y-67626185D01*
X140205537Y-67529494D01*
X140264502Y-67419180D01*
X140300812Y-67299482D01*
X140313072Y-67175000D01*
X140313072Y-65825000D01*
X141686928Y-65825000D01*
X141686928Y-67175000D01*
X141699188Y-67299482D01*
X141735498Y-67419180D01*
X141794463Y-67529494D01*
X141873815Y-67626185D01*
X141960697Y-67697487D01*
X141839093Y-67879482D01*
X141740342Y-68117887D01*
X141690000Y-68370976D01*
X141690000Y-68629024D01*
X141740342Y-68882113D01*
X141839093Y-69120518D01*
X141982456Y-69335077D01*
X142147379Y-69500000D01*
X141982456Y-69664923D01*
X141839093Y-69879482D01*
X141740342Y-70117887D01*
X141690000Y-70370976D01*
X141690000Y-70629024D01*
X141740342Y-70882113D01*
X141839093Y-71120518D01*
X141982456Y-71335077D01*
X142164923Y-71517544D01*
X142379482Y-71660907D01*
X142617887Y-71759658D01*
X142870976Y-71810000D01*
X143129024Y-71810000D01*
X143382113Y-71759658D01*
X143620518Y-71660907D01*
X143835077Y-71517544D01*
X144017544Y-71335077D01*
X144160907Y-71120518D01*
X144259658Y-70882113D01*
X144270143Y-70829400D01*
X145732090Y-70829400D01*
X145762762Y-70930528D01*
X145870527Y-71163629D01*
X146021697Y-71371227D01*
X146210463Y-71545344D01*
X146429570Y-71679289D01*
X146670599Y-71767915D01*
X146873000Y-71645085D01*
X146873000Y-70627000D01*
X147127000Y-70627000D01*
X147127000Y-71645085D01*
X147329401Y-71767915D01*
X147570430Y-71679289D01*
X147789537Y-71545344D01*
X147978303Y-71371227D01*
X148129473Y-71163629D01*
X148237238Y-70930528D01*
X148267910Y-70829400D01*
X151232090Y-70829400D01*
X151262762Y-70930528D01*
X151370527Y-71163629D01*
X151521697Y-71371227D01*
X151710463Y-71545344D01*
X151929570Y-71679289D01*
X152170599Y-71767915D01*
X152373000Y-71645085D01*
X152373000Y-70627000D01*
X152627000Y-70627000D01*
X152627000Y-71645085D01*
X152829401Y-71767915D01*
X153070430Y-71679289D01*
X153289537Y-71545344D01*
X153478303Y-71371227D01*
X153629473Y-71163629D01*
X153737238Y-70930528D01*
X153767910Y-70829400D01*
X153644224Y-70627000D01*
X152627000Y-70627000D01*
X152373000Y-70627000D01*
X151355776Y-70627000D01*
X151232090Y-70829400D01*
X148267910Y-70829400D01*
X148144224Y-70627000D01*
X147127000Y-70627000D01*
X146873000Y-70627000D01*
X145855776Y-70627000D01*
X145732090Y-70829400D01*
X144270143Y-70829400D01*
X144310000Y-70629024D01*
X144310000Y-70370976D01*
X144259658Y-70117887D01*
X144160907Y-69879482D01*
X144017544Y-69664923D01*
X143852621Y-69500000D01*
X144017544Y-69335077D01*
X144160907Y-69120518D01*
X144259658Y-68882113D01*
X144310000Y-68629024D01*
X144310000Y-68370976D01*
X144259658Y-68117887D01*
X144160907Y-67879482D01*
X144039303Y-67697487D01*
X144126185Y-67626185D01*
X144205537Y-67529494D01*
X144264502Y-67419180D01*
X144300812Y-67299482D01*
X144313072Y-67175000D01*
X144313072Y-65825000D01*
X145686928Y-65825000D01*
X145686928Y-67175000D01*
X145699188Y-67299482D01*
X145735498Y-67419180D01*
X145794463Y-67529494D01*
X145873815Y-67626185D01*
X145960697Y-67697487D01*
X145839093Y-67879482D01*
X145740342Y-68117887D01*
X145690000Y-68370976D01*
X145690000Y-68629024D01*
X145740342Y-68882113D01*
X145839093Y-69120518D01*
X145982456Y-69335077D01*
X146154060Y-69506681D01*
X146021697Y-69628773D01*
X145870527Y-69836371D01*
X145762762Y-70069472D01*
X145732090Y-70170600D01*
X145855776Y-70373000D01*
X146873000Y-70373000D01*
X146873000Y-70353000D01*
X147127000Y-70353000D01*
X147127000Y-70373000D01*
X148144224Y-70373000D01*
X148267910Y-70170600D01*
X148237238Y-70069472D01*
X148129473Y-69836371D01*
X147978303Y-69628773D01*
X147845940Y-69506681D01*
X148017544Y-69335077D01*
X148160907Y-69120518D01*
X148259658Y-68882113D01*
X148310000Y-68629024D01*
X148310000Y-68370976D01*
X148259658Y-68117887D01*
X148160907Y-67879482D01*
X148039303Y-67697487D01*
X148126185Y-67626185D01*
X148205537Y-67529494D01*
X148264502Y-67419180D01*
X148300812Y-67299482D01*
X148313072Y-67175000D01*
X148313072Y-65825000D01*
X151186928Y-65825000D01*
X151186928Y-67175000D01*
X151199188Y-67299482D01*
X151235498Y-67419180D01*
X151294463Y-67529494D01*
X151373815Y-67626185D01*
X151460697Y-67697487D01*
X151339093Y-67879482D01*
X151240342Y-68117887D01*
X151190000Y-68370976D01*
X151190000Y-68629024D01*
X151240342Y-68882113D01*
X151339093Y-69120518D01*
X151482456Y-69335077D01*
X151654060Y-69506681D01*
X151521697Y-69628773D01*
X151370527Y-69836371D01*
X151262762Y-70069472D01*
X151232090Y-70170600D01*
X151355776Y-70373000D01*
X152373000Y-70373000D01*
X152373000Y-70353000D01*
X152627000Y-70353000D01*
X152627000Y-70373000D01*
X153644224Y-70373000D01*
X153767910Y-70170600D01*
X153737238Y-70069472D01*
X153629473Y-69836371D01*
X153478303Y-69628773D01*
X153345940Y-69506681D01*
X153517544Y-69335077D01*
X153660907Y-69120518D01*
X153759658Y-68882113D01*
X153810000Y-68629024D01*
X153810000Y-68370976D01*
X153759658Y-68117887D01*
X153660907Y-67879482D01*
X153539303Y-67697487D01*
X153626185Y-67626185D01*
X153705537Y-67529494D01*
X153764502Y-67419180D01*
X153800812Y-67299482D01*
X153813072Y-67175000D01*
X153813072Y-65825000D01*
X153800812Y-65700518D01*
X153764502Y-65580820D01*
X153705537Y-65470506D01*
X153626185Y-65373815D01*
X153529494Y-65294463D01*
X153419180Y-65235498D01*
X153299482Y-65199188D01*
X153175000Y-65186928D01*
X151825000Y-65186928D01*
X151700518Y-65199188D01*
X151580820Y-65235498D01*
X151470506Y-65294463D01*
X151373815Y-65373815D01*
X151294463Y-65470506D01*
X151235498Y-65580820D01*
X151199188Y-65700518D01*
X151186928Y-65825000D01*
X148313072Y-65825000D01*
X148300812Y-65700518D01*
X148264502Y-65580820D01*
X148205537Y-65470506D01*
X148126185Y-65373815D01*
X148029494Y-65294463D01*
X147919180Y-65235498D01*
X147799482Y-65199188D01*
X147675000Y-65186928D01*
X146325000Y-65186928D01*
X146200518Y-65199188D01*
X146080820Y-65235498D01*
X145970506Y-65294463D01*
X145873815Y-65373815D01*
X145794463Y-65470506D01*
X145735498Y-65580820D01*
X145699188Y-65700518D01*
X145686928Y-65825000D01*
X144313072Y-65825000D01*
X144300812Y-65700518D01*
X144264502Y-65580820D01*
X144205537Y-65470506D01*
X144126185Y-65373815D01*
X144029494Y-65294463D01*
X143919180Y-65235498D01*
X143799482Y-65199188D01*
X143675000Y-65186928D01*
X142325000Y-65186928D01*
X142200518Y-65199188D01*
X142080820Y-65235498D01*
X141970506Y-65294463D01*
X141873815Y-65373815D01*
X141794463Y-65470506D01*
X141735498Y-65580820D01*
X141699188Y-65700518D01*
X141686928Y-65825000D01*
X140313072Y-65825000D01*
X140300812Y-65700518D01*
X140264502Y-65580820D01*
X140205537Y-65470506D01*
X140126185Y-65373815D01*
X140029494Y-65294463D01*
X139919180Y-65235498D01*
X139799482Y-65199188D01*
X139675000Y-65186928D01*
X138325000Y-65186928D01*
X138200518Y-65199188D01*
X138080820Y-65235498D01*
X137970506Y-65294463D01*
X137873815Y-65373815D01*
X137794463Y-65470506D01*
X137735498Y-65580820D01*
X137699188Y-65700518D01*
X137686928Y-65825000D01*
X118506387Y-65825000D01*
X123784623Y-58200881D01*
X128978724Y-58200881D01*
X129338912Y-58690548D01*
X130002882Y-59050849D01*
X130724385Y-59274694D01*
X131475695Y-59353480D01*
X132227938Y-59284178D01*
X132952208Y-59069452D01*
X133620670Y-58717555D01*
X133661088Y-58690548D01*
X134021276Y-58200881D01*
X178978724Y-58200881D01*
X179338912Y-58690548D01*
X180002882Y-59050849D01*
X180724385Y-59274694D01*
X181475695Y-59353480D01*
X182227938Y-59284178D01*
X182952208Y-59069452D01*
X183620670Y-58717555D01*
X183661088Y-58690548D01*
X184021276Y-58200881D01*
X181500000Y-55679605D01*
X178978724Y-58200881D01*
X134021276Y-58200881D01*
X131500000Y-55679605D01*
X128978724Y-58200881D01*
X123784623Y-58200881D01*
X125671291Y-55475695D01*
X127646520Y-55475695D01*
X127715822Y-56227938D01*
X127930548Y-56952208D01*
X128282445Y-57620670D01*
X128309452Y-57661088D01*
X128799119Y-58021276D01*
X131320395Y-55500000D01*
X131679605Y-55500000D01*
X134200881Y-58021276D01*
X134690548Y-57661088D01*
X135050849Y-56997118D01*
X135274694Y-56275615D01*
X135353480Y-55524305D01*
X135335525Y-55329401D01*
X136732085Y-55329401D01*
X136820711Y-55570430D01*
X136954656Y-55789537D01*
X137128773Y-55978303D01*
X137336371Y-56129473D01*
X137569472Y-56237238D01*
X137670600Y-56267910D01*
X137873000Y-56144224D01*
X137873000Y-55127000D01*
X136854915Y-55127000D01*
X136732085Y-55329401D01*
X135335525Y-55329401D01*
X135284178Y-54772062D01*
X135069452Y-54047792D01*
X134717555Y-53379330D01*
X134690548Y-53338912D01*
X134200881Y-52978724D01*
X131679605Y-55500000D01*
X131320395Y-55500000D01*
X128799119Y-52978724D01*
X128309452Y-53338912D01*
X127949151Y-54002882D01*
X127725306Y-54724385D01*
X127646520Y-55475695D01*
X125671291Y-55475695D01*
X127524305Y-52799119D01*
X128978724Y-52799119D01*
X131500000Y-55320395D01*
X133949419Y-52870976D01*
X136690000Y-52870976D01*
X136690000Y-53129024D01*
X136740342Y-53382113D01*
X136839093Y-53620518D01*
X136982456Y-53835077D01*
X137152094Y-54004715D01*
X137128773Y-54021697D01*
X136954656Y-54210463D01*
X136820711Y-54429570D01*
X136732085Y-54670599D01*
X136854915Y-54873000D01*
X137873000Y-54873000D01*
X137873000Y-54853000D01*
X138127000Y-54853000D01*
X138127000Y-54873000D01*
X138147000Y-54873000D01*
X138147000Y-55127000D01*
X138127000Y-55127000D01*
X138127000Y-56144224D01*
X138329400Y-56267910D01*
X138430528Y-56237238D01*
X138663629Y-56129473D01*
X138871227Y-55978303D01*
X138993319Y-55845940D01*
X139164923Y-56017544D01*
X139379482Y-56160907D01*
X139617887Y-56259658D01*
X139870976Y-56310000D01*
X140129024Y-56310000D01*
X140382113Y-56259658D01*
X140620518Y-56160907D01*
X140835077Y-56017544D01*
X141006681Y-55845940D01*
X141128773Y-55978303D01*
X141336371Y-56129473D01*
X141569472Y-56237238D01*
X141670600Y-56267910D01*
X141873000Y-56144224D01*
X141873000Y-55127000D01*
X142127000Y-55127000D01*
X142127000Y-56144224D01*
X142329400Y-56267910D01*
X142430528Y-56237238D01*
X142663629Y-56129473D01*
X142871227Y-55978303D01*
X143000000Y-55838696D01*
X143128773Y-55978303D01*
X143336371Y-56129473D01*
X143569472Y-56237238D01*
X143670600Y-56267910D01*
X143873000Y-56144224D01*
X143873000Y-55127000D01*
X142127000Y-55127000D01*
X141873000Y-55127000D01*
X141853000Y-55127000D01*
X141853000Y-54873000D01*
X141873000Y-54873000D01*
X141873000Y-54853000D01*
X142127000Y-54853000D01*
X142127000Y-54873000D01*
X143873000Y-54873000D01*
X143873000Y-54853000D01*
X144127000Y-54853000D01*
X144127000Y-54873000D01*
X144147000Y-54873000D01*
X144147000Y-55127000D01*
X144127000Y-55127000D01*
X144127000Y-56144224D01*
X144329400Y-56267910D01*
X144430528Y-56237238D01*
X144663629Y-56129473D01*
X144796881Y-56032441D01*
X144873815Y-56126185D01*
X144970506Y-56205537D01*
X145080820Y-56264502D01*
X145200518Y-56300812D01*
X145325000Y-56313072D01*
X146675000Y-56313072D01*
X146799482Y-56300812D01*
X146919180Y-56264502D01*
X147029494Y-56205537D01*
X147126185Y-56126185D01*
X147205537Y-56029494D01*
X147264502Y-55919180D01*
X147300812Y-55799482D01*
X147313072Y-55675000D01*
X147313072Y-55475695D01*
X177646520Y-55475695D01*
X177715822Y-56227938D01*
X177930548Y-56952208D01*
X178282445Y-57620670D01*
X178309452Y-57661088D01*
X178799119Y-58021276D01*
X181320395Y-55500000D01*
X181679605Y-55500000D01*
X184200881Y-58021276D01*
X184690548Y-57661088D01*
X185050849Y-56997118D01*
X185274694Y-56275615D01*
X185353480Y-55524305D01*
X185284178Y-54772062D01*
X185069452Y-54047792D01*
X184717555Y-53379330D01*
X184690548Y-53338912D01*
X184200881Y-52978724D01*
X181679605Y-55500000D01*
X181320395Y-55500000D01*
X178799119Y-52978724D01*
X178309452Y-53338912D01*
X177949151Y-54002882D01*
X177725306Y-54724385D01*
X177646520Y-55475695D01*
X147313072Y-55475695D01*
X147313072Y-54325000D01*
X147300812Y-54200518D01*
X147264502Y-54080820D01*
X147205537Y-53970506D01*
X147126185Y-53873815D01*
X147039303Y-53802513D01*
X147160907Y-53620518D01*
X147259658Y-53382113D01*
X147310000Y-53129024D01*
X147310000Y-52870976D01*
X147295707Y-52799119D01*
X178978724Y-52799119D01*
X181500000Y-55320395D01*
X184021276Y-52799119D01*
X183661088Y-52309452D01*
X182997118Y-51949151D01*
X182275615Y-51725306D01*
X181524305Y-51646520D01*
X180772062Y-51715822D01*
X180047792Y-51930548D01*
X179379330Y-52282445D01*
X179338912Y-52309452D01*
X178978724Y-52799119D01*
X147295707Y-52799119D01*
X147259658Y-52617887D01*
X147160907Y-52379482D01*
X147017544Y-52164923D01*
X146835077Y-51982456D01*
X146620518Y-51839093D01*
X146382113Y-51740342D01*
X146129024Y-51690000D01*
X145870976Y-51690000D01*
X145617887Y-51740342D01*
X145379482Y-51839093D01*
X145164923Y-51982456D01*
X145000000Y-52147379D01*
X144835077Y-51982456D01*
X144620518Y-51839093D01*
X144382113Y-51740342D01*
X144129024Y-51690000D01*
X143870976Y-51690000D01*
X143617887Y-51740342D01*
X143379482Y-51839093D01*
X143164923Y-51982456D01*
X143000000Y-52147379D01*
X142835077Y-51982456D01*
X142620518Y-51839093D01*
X142382113Y-51740342D01*
X142129024Y-51690000D01*
X141870976Y-51690000D01*
X141617887Y-51740342D01*
X141379482Y-51839093D01*
X141164923Y-51982456D01*
X141000000Y-52147379D01*
X140835077Y-51982456D01*
X140620518Y-51839093D01*
X140382113Y-51740342D01*
X140129024Y-51690000D01*
X139870976Y-51690000D01*
X139617887Y-51740342D01*
X139379482Y-51839093D01*
X139164923Y-51982456D01*
X139000000Y-52147379D01*
X138835077Y-51982456D01*
X138620518Y-51839093D01*
X138382113Y-51740342D01*
X138129024Y-51690000D01*
X137870976Y-51690000D01*
X137617887Y-51740342D01*
X137379482Y-51839093D01*
X137164923Y-51982456D01*
X136982456Y-52164923D01*
X136839093Y-52379482D01*
X136740342Y-52617887D01*
X136690000Y-52870976D01*
X133949419Y-52870976D01*
X134021276Y-52799119D01*
X133661088Y-52309452D01*
X132997118Y-51949151D01*
X132275615Y-51725306D01*
X131524305Y-51646520D01*
X130772062Y-51715822D01*
X130047792Y-51930548D01*
X129379330Y-52282445D01*
X129338912Y-52309452D01*
X128978724Y-52799119D01*
X127524305Y-52799119D01*
X130066542Y-49127000D01*
X183450345Y-49127000D01*
X189873000Y-55055605D01*
G37*
%TD.AperFunction*%
%TD*%
M02*
