%TF.GenerationSoftware,KiCad,Pcbnew,(5.1.10)-1*%
%TF.CreationDate,2021-08-23T16:31:20+01:00*%
%TF.ProjectId,Abhoinn_IoT_V3,4162686f-696e-46e5-9f49-6f545f56332e,rev?*%
%TF.SameCoordinates,Original*%
%TF.FileFunction,Copper,L3,Inr*%
%TF.FilePolarity,Positive*%
%FSLAX46Y46*%
G04 Gerber Fmt 4.6, Leading zero omitted, Abs format (unit mm)*
G04 Created by KiCad (PCBNEW (5.1.10)-1) date 2021-08-23 16:31:20*
%MOMM*%
%LPD*%
G01*
G04 APERTURE LIST*
%TA.AperFunction,ComponentPad*%
%ADD10O,1.700000X1.700000*%
%TD*%
%TA.AperFunction,ComponentPad*%
%ADD11R,1.700000X1.700000*%
%TD*%
%TA.AperFunction,ComponentPad*%
%ADD12C,2.600000*%
%TD*%
%TA.AperFunction,ComponentPad*%
%ADD13R,2.600000X2.600000*%
%TD*%
%TA.AperFunction,ComponentPad*%
%ADD14C,0.800000*%
%TD*%
%TA.AperFunction,ComponentPad*%
%ADD15C,6.400000*%
%TD*%
%TA.AperFunction,ViaPad*%
%ADD16C,0.800000*%
%TD*%
%TA.AperFunction,Conductor*%
%ADD17C,0.254000*%
%TD*%
%TA.AperFunction,Conductor*%
%ADD18C,0.100000*%
%TD*%
G04 APERTURE END LIST*
D10*
%TO.N,NRST*%
%TO.C,J3*%
X148340000Y-89710000D03*
%TO.N,GND*%
X148340000Y-92250000D03*
%TO.N,N/C*%
X150880000Y-89710000D03*
X150880000Y-92250000D03*
X153420000Y-89710000D03*
%TO.N,GND*%
X153420000Y-92250000D03*
%TO.N,SWCLK*%
X155960000Y-89710000D03*
%TO.N,GND*%
X155960000Y-92250000D03*
%TO.N,SWDIO*%
X158500000Y-89710000D03*
D11*
%TO.N,+3V3*%
X158500000Y-92250000D03*
%TD*%
D10*
%TO.N,GND*%
%TO.C,JP4*%
X152500000Y-71580000D03*
%TO.N,Net-(D4-Pad2)*%
X152500000Y-69040000D03*
D11*
%TO.N,+3V3*%
X152500000Y-66500000D03*
%TD*%
D10*
%TO.N,GND*%
%TO.C,JP3*%
X147000000Y-71580000D03*
%TO.N,DBG_EN*%
X147000000Y-69040000D03*
D11*
%TO.N,+3V3*%
X147000000Y-66500000D03*
%TD*%
D10*
%TO.N,LED_RX*%
%TO.C,JP2*%
X139000000Y-71580000D03*
%TO.N,RX_LED+DBG_DATA*%
X139000000Y-69040000D03*
D11*
%TO.N,TS_DBG_DATA*%
X139000000Y-66500000D03*
%TD*%
D10*
%TO.N,LED_TX*%
%TO.C,JP1*%
X143000000Y-71580000D03*
%TO.N,TX_LED+DBG_CLK*%
X143000000Y-69040000D03*
D11*
%TO.N,TS_DBG_CLK*%
X143000000Y-66500000D03*
%TD*%
D10*
%TO.N,LPUART1_TX*%
%TO.C,J2*%
X139500000Y-90790000D03*
D11*
%TO.N,LPUART1_RX*%
X139500000Y-88250000D03*
%TD*%
D10*
%TO.N,GND*%
%TO.C,J1*%
X164000000Y-92290000D03*
D11*
%TO.N,+3V3*%
X164000000Y-89750000D03*
%TD*%
D10*
%TO.N,RESET_N*%
%TO.C,J4*%
X132660000Y-69540000D03*
%TO.N,GND*%
X132660000Y-67000000D03*
%TO.N,N/C*%
X130120000Y-69540000D03*
X130120000Y-67000000D03*
X127580000Y-69540000D03*
%TO.N,GND*%
X127580000Y-67000000D03*
%TO.N,TS_DBG_CLK*%
X125040000Y-69540000D03*
%TO.N,GND*%
X125040000Y-67000000D03*
%TO.N,TS_DBG_DATA*%
X122500000Y-69540000D03*
D11*
%TO.N,+3V3*%
X122500000Y-67000000D03*
%TD*%
D12*
%TO.N,GND*%
%TO.C,J6*%
X158250000Y-66250000D03*
D13*
%TO.N,+5V*%
X163250000Y-66250000D03*
%TD*%
D14*
%TO.N,GND*%
%TO.C,H4*%
X121697056Y-58302944D03*
X120000000Y-57600000D03*
X118302944Y-58302944D03*
X117600000Y-60000000D03*
X118302944Y-61697056D03*
X120000000Y-62400000D03*
X121697056Y-61697056D03*
X122400000Y-60000000D03*
D15*
X120000000Y-60000000D03*
%TD*%
D14*
%TO.N,GND*%
%TO.C,H3*%
X121697056Y-98302944D03*
X120000000Y-97600000D03*
X118302944Y-98302944D03*
X117600000Y-100000000D03*
X118302944Y-101697056D03*
X120000000Y-102400000D03*
X121697056Y-101697056D03*
X122400000Y-100000000D03*
D15*
X120000000Y-100000000D03*
%TD*%
D14*
%TO.N,GND*%
%TO.C,H2*%
X171697056Y-98302944D03*
X170000000Y-97600000D03*
X168302944Y-98302944D03*
X167600000Y-100000000D03*
X168302944Y-101697056D03*
X170000000Y-102400000D03*
X171697056Y-101697056D03*
X172400000Y-100000000D03*
D15*
X170000000Y-100000000D03*
%TD*%
D14*
%TO.N,GND*%
%TO.C,H1*%
X171697056Y-58302944D03*
X170000000Y-57600000D03*
X168302944Y-58302944D03*
X167600000Y-60000000D03*
X168302944Y-61697056D03*
X170000000Y-62400000D03*
X171697056Y-61697056D03*
X172400000Y-60000000D03*
D15*
X170000000Y-60000000D03*
%TD*%
D16*
%TO.N,GND*%
X142070000Y-90000000D03*
X142102000Y-88000000D03*
X144626500Y-73326500D03*
X134500000Y-78500000D03*
X121718600Y-79308220D03*
X127500000Y-80250000D03*
X129500000Y-80250000D03*
X131500000Y-80250000D03*
X130550000Y-79250000D03*
X128450000Y-79250000D03*
X128500000Y-81250000D03*
X130500000Y-81250000D03*
X126325000Y-78075000D03*
X126300000Y-80050000D03*
X126275000Y-81225000D03*
X129500000Y-74500000D03*
X129500000Y-85500000D03*
X118500000Y-85500000D03*
X118500000Y-74500000D03*
X118500000Y-80000000D03*
X118500000Y-77500000D03*
X118500000Y-83000000D03*
X121500000Y-85500000D03*
X125000000Y-85500000D03*
X125000000Y-74500000D03*
X121500000Y-74500000D03*
X158650000Y-79500000D03*
X142000000Y-91500000D03*
X135000000Y-95600000D03*
X132800000Y-95600000D03*
X129600000Y-95600000D03*
X127400000Y-95600000D03*
X125400000Y-95600000D03*
X137500000Y-74250000D03*
X119250000Y-72000000D03*
X134000000Y-72250000D03*
X119250000Y-67750000D03*
X119250000Y-64250000D03*
X144750000Y-58500000D03*
X124750000Y-58500000D03*
X165250000Y-58500000D03*
X155250000Y-58500000D03*
X134250000Y-58500000D03*
X160500000Y-58500000D03*
X150250000Y-58500000D03*
X139500000Y-58500000D03*
X129250000Y-58500000D03*
X154750000Y-72250000D03*
X160500000Y-71000000D03*
X160750000Y-64000000D03*
X166000000Y-63250000D03*
X158000000Y-72250000D03*
X127000000Y-72000000D03*
X135000000Y-65750000D03*
X138750000Y-63750000D03*
X143000000Y-63500000D03*
X149000000Y-70500000D03*
X150500000Y-69250000D03*
X150500000Y-64750000D03*
X154500000Y-64750000D03*
X154750000Y-68500000D03*
X150500000Y-67000000D03*
X123250000Y-72000000D03*
X131000000Y-72000000D03*
X160500000Y-68250000D03*
X165250000Y-60750000D03*
X145000000Y-68750000D03*
X144999999Y-71500001D03*
%TO.N,+3V3*%
X141732000Y-74168000D03*
X145680000Y-88000000D03*
X145712000Y-90000000D03*
X133862500Y-73637500D03*
X145750000Y-91500000D03*
X140250000Y-74750000D03*
X158600000Y-81500000D03*
X162750000Y-78250000D03*
X170000000Y-80000000D03*
X170000000Y-85500000D03*
X170000000Y-82750000D03*
X157500000Y-85500000D03*
X164000000Y-85500000D03*
X167000000Y-85500000D03*
X160750000Y-85500000D03*
X164000000Y-80000000D03*
X167000000Y-80000000D03*
X157500000Y-83250000D03*
X157677040Y-77000000D03*
%TO.N,LED_RX*%
X125450000Y-87300000D03*
%TO.N,LED_TX*%
X127500000Y-87250000D03*
%TO.N,Net-(D4-Pad2)*%
X129500000Y-87250000D03*
%TO.N,LPUART1_TX*%
X136940000Y-81320000D03*
%TO.N,LPUART1_RX*%
X137460000Y-82920000D03*
%TO.N,PRESSURE_SDA*%
X148250000Y-85250000D03*
X154150000Y-78900000D03*
%TO.N,PRESSURE_SCL*%
X147320000Y-86106000D03*
X154050000Y-83750000D03*
%TO.N,NRST*%
X141932660Y-78610460D03*
%TD*%
D17*
%TO.N,+3V3*%
X164332795Y-60259744D02*
X164254774Y-60448102D01*
X164215000Y-60648061D01*
X164215000Y-60851939D01*
X164254774Y-61051898D01*
X164332795Y-61240256D01*
X164446063Y-61409774D01*
X164590226Y-61553937D01*
X164759744Y-61667205D01*
X164948102Y-61745226D01*
X165148061Y-61785000D01*
X165351939Y-61785000D01*
X165551898Y-61745226D01*
X165740256Y-61667205D01*
X165909774Y-61553937D01*
X166053937Y-61409774D01*
X166167205Y-61240256D01*
X166245226Y-61051898D01*
X166272165Y-60916467D01*
X166312377Y-61118628D01*
X166601467Y-61816554D01*
X167021161Y-62444670D01*
X167555330Y-62978839D01*
X168183446Y-63398533D01*
X168881372Y-63687623D01*
X169622285Y-63835000D01*
X169873000Y-63835000D01*
X169873000Y-96165000D01*
X169622285Y-96165000D01*
X168881372Y-96312377D01*
X168183446Y-96601467D01*
X167555330Y-97021161D01*
X167021161Y-97555330D01*
X166601467Y-98183446D01*
X166312377Y-98881372D01*
X166165000Y-99622285D01*
X166165000Y-99873000D01*
X123835000Y-99873000D01*
X123835000Y-99622285D01*
X123687623Y-98881372D01*
X123398533Y-98183446D01*
X122978839Y-97555330D01*
X122444670Y-97021161D01*
X121816554Y-96601467D01*
X121118628Y-96312377D01*
X120377715Y-96165000D01*
X120127000Y-96165000D01*
X120127000Y-95498061D01*
X124365000Y-95498061D01*
X124365000Y-95701939D01*
X124404774Y-95901898D01*
X124482795Y-96090256D01*
X124596063Y-96259774D01*
X124740226Y-96403937D01*
X124909744Y-96517205D01*
X125098102Y-96595226D01*
X125298061Y-96635000D01*
X125501939Y-96635000D01*
X125701898Y-96595226D01*
X125890256Y-96517205D01*
X126059774Y-96403937D01*
X126203937Y-96259774D01*
X126317205Y-96090256D01*
X126395226Y-95901898D01*
X126400000Y-95877897D01*
X126404774Y-95901898D01*
X126482795Y-96090256D01*
X126596063Y-96259774D01*
X126740226Y-96403937D01*
X126909744Y-96517205D01*
X127098102Y-96595226D01*
X127298061Y-96635000D01*
X127501939Y-96635000D01*
X127701898Y-96595226D01*
X127890256Y-96517205D01*
X128059774Y-96403937D01*
X128203937Y-96259774D01*
X128317205Y-96090256D01*
X128395226Y-95901898D01*
X128435000Y-95701939D01*
X128435000Y-95498061D01*
X128565000Y-95498061D01*
X128565000Y-95701939D01*
X128604774Y-95901898D01*
X128682795Y-96090256D01*
X128796063Y-96259774D01*
X128940226Y-96403937D01*
X129109744Y-96517205D01*
X129298102Y-96595226D01*
X129498061Y-96635000D01*
X129701939Y-96635000D01*
X129901898Y-96595226D01*
X130090256Y-96517205D01*
X130259774Y-96403937D01*
X130403937Y-96259774D01*
X130517205Y-96090256D01*
X130595226Y-95901898D01*
X130635000Y-95701939D01*
X130635000Y-95498061D01*
X131765000Y-95498061D01*
X131765000Y-95701939D01*
X131804774Y-95901898D01*
X131882795Y-96090256D01*
X131996063Y-96259774D01*
X132140226Y-96403937D01*
X132309744Y-96517205D01*
X132498102Y-96595226D01*
X132698061Y-96635000D01*
X132901939Y-96635000D01*
X133101898Y-96595226D01*
X133290256Y-96517205D01*
X133459774Y-96403937D01*
X133603937Y-96259774D01*
X133717205Y-96090256D01*
X133795226Y-95901898D01*
X133835000Y-95701939D01*
X133835000Y-95498061D01*
X133965000Y-95498061D01*
X133965000Y-95701939D01*
X134004774Y-95901898D01*
X134082795Y-96090256D01*
X134196063Y-96259774D01*
X134340226Y-96403937D01*
X134509744Y-96517205D01*
X134698102Y-96595226D01*
X134898061Y-96635000D01*
X135101939Y-96635000D01*
X135301898Y-96595226D01*
X135490256Y-96517205D01*
X135659774Y-96403937D01*
X135803937Y-96259774D01*
X135917205Y-96090256D01*
X135995226Y-95901898D01*
X136035000Y-95701939D01*
X136035000Y-95498061D01*
X135995226Y-95298102D01*
X135917205Y-95109744D01*
X135803937Y-94940226D01*
X135659774Y-94796063D01*
X135490256Y-94682795D01*
X135301898Y-94604774D01*
X135101939Y-94565000D01*
X134898061Y-94565000D01*
X134698102Y-94604774D01*
X134509744Y-94682795D01*
X134340226Y-94796063D01*
X134196063Y-94940226D01*
X134082795Y-95109744D01*
X134004774Y-95298102D01*
X133965000Y-95498061D01*
X133835000Y-95498061D01*
X133795226Y-95298102D01*
X133717205Y-95109744D01*
X133603937Y-94940226D01*
X133459774Y-94796063D01*
X133290256Y-94682795D01*
X133101898Y-94604774D01*
X132901939Y-94565000D01*
X132698061Y-94565000D01*
X132498102Y-94604774D01*
X132309744Y-94682795D01*
X132140226Y-94796063D01*
X131996063Y-94940226D01*
X131882795Y-95109744D01*
X131804774Y-95298102D01*
X131765000Y-95498061D01*
X130635000Y-95498061D01*
X130595226Y-95298102D01*
X130517205Y-95109744D01*
X130403937Y-94940226D01*
X130259774Y-94796063D01*
X130090256Y-94682795D01*
X129901898Y-94604774D01*
X129701939Y-94565000D01*
X129498061Y-94565000D01*
X129298102Y-94604774D01*
X129109744Y-94682795D01*
X128940226Y-94796063D01*
X128796063Y-94940226D01*
X128682795Y-95109744D01*
X128604774Y-95298102D01*
X128565000Y-95498061D01*
X128435000Y-95498061D01*
X128395226Y-95298102D01*
X128317205Y-95109744D01*
X128203937Y-94940226D01*
X128059774Y-94796063D01*
X127890256Y-94682795D01*
X127701898Y-94604774D01*
X127501939Y-94565000D01*
X127298061Y-94565000D01*
X127098102Y-94604774D01*
X126909744Y-94682795D01*
X126740226Y-94796063D01*
X126596063Y-94940226D01*
X126482795Y-95109744D01*
X126404774Y-95298102D01*
X126400000Y-95322103D01*
X126395226Y-95298102D01*
X126317205Y-95109744D01*
X126203937Y-94940226D01*
X126059774Y-94796063D01*
X125890256Y-94682795D01*
X125701898Y-94604774D01*
X125501939Y-94565000D01*
X125298061Y-94565000D01*
X125098102Y-94604774D01*
X124909744Y-94682795D01*
X124740226Y-94796063D01*
X124596063Y-94940226D01*
X124482795Y-95109744D01*
X124404774Y-95298102D01*
X124365000Y-95498061D01*
X120127000Y-95498061D01*
X120127000Y-88755548D01*
X120144539Y-88555078D01*
X120195182Y-88366074D01*
X120277873Y-88188742D01*
X120390100Y-88028465D01*
X120528465Y-87890100D01*
X120688742Y-87777873D01*
X120866074Y-87695182D01*
X121055078Y-87644539D01*
X121255548Y-87627000D01*
X124465172Y-87627000D01*
X124532795Y-87790256D01*
X124646063Y-87959774D01*
X124790226Y-88103937D01*
X124959744Y-88217205D01*
X125148102Y-88295226D01*
X125348061Y-88335000D01*
X125551939Y-88335000D01*
X125751898Y-88295226D01*
X125940256Y-88217205D01*
X126109774Y-88103937D01*
X126253937Y-87959774D01*
X126367205Y-87790256D01*
X126434828Y-87627000D01*
X126535882Y-87627000D01*
X126582795Y-87740256D01*
X126696063Y-87909774D01*
X126840226Y-88053937D01*
X127009744Y-88167205D01*
X127198102Y-88245226D01*
X127398061Y-88285000D01*
X127601939Y-88285000D01*
X127801898Y-88245226D01*
X127990256Y-88167205D01*
X128159774Y-88053937D01*
X128303937Y-87909774D01*
X128417205Y-87740256D01*
X128464118Y-87627000D01*
X128535882Y-87627000D01*
X128582795Y-87740256D01*
X128696063Y-87909774D01*
X128840226Y-88053937D01*
X129009744Y-88167205D01*
X129198102Y-88245226D01*
X129398061Y-88285000D01*
X129601939Y-88285000D01*
X129801898Y-88245226D01*
X129990256Y-88167205D01*
X130159774Y-88053937D01*
X130303937Y-87909774D01*
X130417205Y-87740256D01*
X130464118Y-87627000D01*
X131250000Y-87627000D01*
X131261069Y-87626517D01*
X131478129Y-87607527D01*
X131499930Y-87603683D01*
X131710395Y-87547289D01*
X131731197Y-87539717D01*
X131928672Y-87447633D01*
X131947844Y-87436564D01*
X132000063Y-87400000D01*
X138011928Y-87400000D01*
X138011928Y-89100000D01*
X138024188Y-89224482D01*
X138060498Y-89344180D01*
X138119463Y-89454494D01*
X138198815Y-89551185D01*
X138295506Y-89630537D01*
X138405820Y-89689502D01*
X138478380Y-89711513D01*
X138346525Y-89843368D01*
X138184010Y-90086589D01*
X138072068Y-90356842D01*
X138015000Y-90643740D01*
X138015000Y-90936260D01*
X138072068Y-91223158D01*
X138184010Y-91493411D01*
X138346525Y-91736632D01*
X138553368Y-91943475D01*
X138796589Y-92105990D01*
X139066842Y-92217932D01*
X139353740Y-92275000D01*
X139646260Y-92275000D01*
X139933158Y-92217932D01*
X140203411Y-92105990D01*
X140446632Y-91943475D01*
X140653475Y-91736632D01*
X140815990Y-91493411D01*
X140855485Y-91398061D01*
X140965000Y-91398061D01*
X140965000Y-91601939D01*
X141004774Y-91801898D01*
X141082795Y-91990256D01*
X141196063Y-92159774D01*
X141340226Y-92303937D01*
X141509744Y-92417205D01*
X141698102Y-92495226D01*
X141898061Y-92535000D01*
X142101939Y-92535000D01*
X142301898Y-92495226D01*
X142490256Y-92417205D01*
X142659774Y-92303937D01*
X142803937Y-92159774D01*
X142917205Y-91990256D01*
X142995226Y-91801898D01*
X143035000Y-91601939D01*
X143035000Y-91398061D01*
X142995226Y-91198102D01*
X142917205Y-91009744D01*
X142803937Y-90840226D01*
X142748711Y-90785000D01*
X142873937Y-90659774D01*
X142987205Y-90490256D01*
X143065226Y-90301898D01*
X143105000Y-90101939D01*
X143105000Y-89898061D01*
X143065226Y-89698102D01*
X143009572Y-89563740D01*
X146855000Y-89563740D01*
X146855000Y-89856260D01*
X146912068Y-90143158D01*
X147024010Y-90413411D01*
X147186525Y-90656632D01*
X147393368Y-90863475D01*
X147567760Y-90980000D01*
X147393368Y-91096525D01*
X147186525Y-91303368D01*
X147024010Y-91546589D01*
X146912068Y-91816842D01*
X146855000Y-92103740D01*
X146855000Y-92396260D01*
X146912068Y-92683158D01*
X147024010Y-92953411D01*
X147186525Y-93196632D01*
X147393368Y-93403475D01*
X147636589Y-93565990D01*
X147906842Y-93677932D01*
X148193740Y-93735000D01*
X148486260Y-93735000D01*
X148773158Y-93677932D01*
X149043411Y-93565990D01*
X149286632Y-93403475D01*
X149493475Y-93196632D01*
X149610000Y-93022240D01*
X149726525Y-93196632D01*
X149933368Y-93403475D01*
X150176589Y-93565990D01*
X150446842Y-93677932D01*
X150733740Y-93735000D01*
X151026260Y-93735000D01*
X151313158Y-93677932D01*
X151583411Y-93565990D01*
X151826632Y-93403475D01*
X152033475Y-93196632D01*
X152150000Y-93022240D01*
X152266525Y-93196632D01*
X152473368Y-93403475D01*
X152716589Y-93565990D01*
X152986842Y-93677932D01*
X153273740Y-93735000D01*
X153566260Y-93735000D01*
X153853158Y-93677932D01*
X154123411Y-93565990D01*
X154366632Y-93403475D01*
X154573475Y-93196632D01*
X154690000Y-93022240D01*
X154806525Y-93196632D01*
X155013368Y-93403475D01*
X155256589Y-93565990D01*
X155526842Y-93677932D01*
X155813740Y-93735000D01*
X156106260Y-93735000D01*
X156393158Y-93677932D01*
X156663411Y-93565990D01*
X156906632Y-93403475D01*
X157038487Y-93271620D01*
X157060498Y-93344180D01*
X157119463Y-93454494D01*
X157198815Y-93551185D01*
X157295506Y-93630537D01*
X157405820Y-93689502D01*
X157525518Y-93725812D01*
X157650000Y-93738072D01*
X158214250Y-93735000D01*
X158373000Y-93576250D01*
X158373000Y-92377000D01*
X158627000Y-92377000D01*
X158627000Y-93576250D01*
X158785750Y-93735000D01*
X159350000Y-93738072D01*
X159474482Y-93725812D01*
X159594180Y-93689502D01*
X159704494Y-93630537D01*
X159801185Y-93551185D01*
X159880537Y-93454494D01*
X159939502Y-93344180D01*
X159975812Y-93224482D01*
X159988072Y-93100000D01*
X159985000Y-92535750D01*
X159826250Y-92377000D01*
X158627000Y-92377000D01*
X158373000Y-92377000D01*
X158353000Y-92377000D01*
X158353000Y-92123000D01*
X158373000Y-92123000D01*
X158373000Y-92103000D01*
X158627000Y-92103000D01*
X158627000Y-92123000D01*
X159826250Y-92123000D01*
X159985000Y-91964250D01*
X159988072Y-91400000D01*
X159975812Y-91275518D01*
X159939502Y-91155820D01*
X159880537Y-91045506D01*
X159801185Y-90948815D01*
X159704494Y-90869463D01*
X159594180Y-90810498D01*
X159521620Y-90788487D01*
X159653475Y-90656632D01*
X159691315Y-90600000D01*
X162511928Y-90600000D01*
X162524188Y-90724482D01*
X162560498Y-90844180D01*
X162619463Y-90954494D01*
X162698815Y-91051185D01*
X162795506Y-91130537D01*
X162905820Y-91189502D01*
X162978380Y-91211513D01*
X162846525Y-91343368D01*
X162684010Y-91586589D01*
X162572068Y-91856842D01*
X162515000Y-92143740D01*
X162515000Y-92436260D01*
X162572068Y-92723158D01*
X162684010Y-92993411D01*
X162846525Y-93236632D01*
X163053368Y-93443475D01*
X163296589Y-93605990D01*
X163566842Y-93717932D01*
X163853740Y-93775000D01*
X164146260Y-93775000D01*
X164433158Y-93717932D01*
X164703411Y-93605990D01*
X164946632Y-93443475D01*
X165153475Y-93236632D01*
X165315990Y-92993411D01*
X165427932Y-92723158D01*
X165485000Y-92436260D01*
X165485000Y-92143740D01*
X165427932Y-91856842D01*
X165315990Y-91586589D01*
X165153475Y-91343368D01*
X165021620Y-91211513D01*
X165094180Y-91189502D01*
X165204494Y-91130537D01*
X165301185Y-91051185D01*
X165380537Y-90954494D01*
X165439502Y-90844180D01*
X165475812Y-90724482D01*
X165488072Y-90600000D01*
X165485000Y-90035750D01*
X165326250Y-89877000D01*
X164127000Y-89877000D01*
X164127000Y-89897000D01*
X163873000Y-89897000D01*
X163873000Y-89877000D01*
X162673750Y-89877000D01*
X162515000Y-90035750D01*
X162511928Y-90600000D01*
X159691315Y-90600000D01*
X159815990Y-90413411D01*
X159927932Y-90143158D01*
X159985000Y-89856260D01*
X159985000Y-89563740D01*
X159927932Y-89276842D01*
X159815990Y-89006589D01*
X159744770Y-88900000D01*
X162511928Y-88900000D01*
X162515000Y-89464250D01*
X162673750Y-89623000D01*
X163873000Y-89623000D01*
X163873000Y-88423750D01*
X164127000Y-88423750D01*
X164127000Y-89623000D01*
X165326250Y-89623000D01*
X165485000Y-89464250D01*
X165488072Y-88900000D01*
X165475812Y-88775518D01*
X165439502Y-88655820D01*
X165380537Y-88545506D01*
X165301185Y-88448815D01*
X165204494Y-88369463D01*
X165094180Y-88310498D01*
X164974482Y-88274188D01*
X164850000Y-88261928D01*
X164285750Y-88265000D01*
X164127000Y-88423750D01*
X163873000Y-88423750D01*
X163714250Y-88265000D01*
X163150000Y-88261928D01*
X163025518Y-88274188D01*
X162905820Y-88310498D01*
X162795506Y-88369463D01*
X162698815Y-88448815D01*
X162619463Y-88545506D01*
X162560498Y-88655820D01*
X162524188Y-88775518D01*
X162511928Y-88900000D01*
X159744770Y-88900000D01*
X159653475Y-88763368D01*
X159446632Y-88556525D01*
X159203411Y-88394010D01*
X158933158Y-88282068D01*
X158646260Y-88225000D01*
X158353740Y-88225000D01*
X158066842Y-88282068D01*
X157796589Y-88394010D01*
X157553368Y-88556525D01*
X157346525Y-88763368D01*
X157230000Y-88937760D01*
X157113475Y-88763368D01*
X156906632Y-88556525D01*
X156663411Y-88394010D01*
X156393158Y-88282068D01*
X156106260Y-88225000D01*
X155813740Y-88225000D01*
X155526842Y-88282068D01*
X155256589Y-88394010D01*
X155013368Y-88556525D01*
X154806525Y-88763368D01*
X154690000Y-88937760D01*
X154573475Y-88763368D01*
X154366632Y-88556525D01*
X154123411Y-88394010D01*
X153853158Y-88282068D01*
X153566260Y-88225000D01*
X153273740Y-88225000D01*
X152986842Y-88282068D01*
X152716589Y-88394010D01*
X152473368Y-88556525D01*
X152266525Y-88763368D01*
X152150000Y-88937760D01*
X152033475Y-88763368D01*
X151826632Y-88556525D01*
X151583411Y-88394010D01*
X151313158Y-88282068D01*
X151026260Y-88225000D01*
X150733740Y-88225000D01*
X150446842Y-88282068D01*
X150176589Y-88394010D01*
X149933368Y-88556525D01*
X149726525Y-88763368D01*
X149610000Y-88937760D01*
X149493475Y-88763368D01*
X149286632Y-88556525D01*
X149043411Y-88394010D01*
X148773158Y-88282068D01*
X148486260Y-88225000D01*
X148193740Y-88225000D01*
X147906842Y-88282068D01*
X147636589Y-88394010D01*
X147393368Y-88556525D01*
X147186525Y-88763368D01*
X147024010Y-89006589D01*
X146912068Y-89276842D01*
X146855000Y-89563740D01*
X143009572Y-89563740D01*
X142987205Y-89509744D01*
X142873937Y-89340226D01*
X142729774Y-89196063D01*
X142560256Y-89082795D01*
X142371898Y-89004774D01*
X142363897Y-89003183D01*
X142403898Y-88995226D01*
X142592256Y-88917205D01*
X142761774Y-88803937D01*
X142905937Y-88659774D01*
X143019205Y-88490256D01*
X143097226Y-88301898D01*
X143137000Y-88101939D01*
X143137000Y-87898061D01*
X143097226Y-87698102D01*
X143019205Y-87509744D01*
X142905937Y-87340226D01*
X142761774Y-87196063D01*
X142592256Y-87082795D01*
X142403898Y-87004774D01*
X142203939Y-86965000D01*
X142000061Y-86965000D01*
X141800102Y-87004774D01*
X141611744Y-87082795D01*
X141442226Y-87196063D01*
X141298063Y-87340226D01*
X141184795Y-87509744D01*
X141106774Y-87698102D01*
X141067000Y-87898061D01*
X141067000Y-88101939D01*
X141106774Y-88301898D01*
X141184795Y-88490256D01*
X141298063Y-88659774D01*
X141442226Y-88803937D01*
X141611744Y-88917205D01*
X141800102Y-88995226D01*
X141808103Y-88996817D01*
X141768102Y-89004774D01*
X141579744Y-89082795D01*
X141410226Y-89196063D01*
X141266063Y-89340226D01*
X141152795Y-89509744D01*
X141074774Y-89698102D01*
X141035000Y-89898061D01*
X141035000Y-90101939D01*
X141074774Y-90301898D01*
X141152795Y-90490256D01*
X141266063Y-90659774D01*
X141321289Y-90715000D01*
X141196063Y-90840226D01*
X141082795Y-91009744D01*
X141004774Y-91198102D01*
X140965000Y-91398061D01*
X140855485Y-91398061D01*
X140927932Y-91223158D01*
X140985000Y-90936260D01*
X140985000Y-90643740D01*
X140927932Y-90356842D01*
X140815990Y-90086589D01*
X140653475Y-89843368D01*
X140521620Y-89711513D01*
X140594180Y-89689502D01*
X140704494Y-89630537D01*
X140801185Y-89551185D01*
X140880537Y-89454494D01*
X140939502Y-89344180D01*
X140975812Y-89224482D01*
X140988072Y-89100000D01*
X140988072Y-87400000D01*
X140975812Y-87275518D01*
X140939502Y-87155820D01*
X140880537Y-87045506D01*
X140801185Y-86948815D01*
X140704494Y-86869463D01*
X140594180Y-86810498D01*
X140474482Y-86774188D01*
X140350000Y-86761928D01*
X138650000Y-86761928D01*
X138525518Y-86774188D01*
X138405820Y-86810498D01*
X138295506Y-86869463D01*
X138198815Y-86948815D01*
X138119463Y-87045506D01*
X138060498Y-87155820D01*
X138024188Y-87275518D01*
X138011928Y-87400000D01*
X132000063Y-87400000D01*
X132126329Y-87311588D01*
X132143288Y-87297359D01*
X132297359Y-87143288D01*
X132311588Y-87126329D01*
X132436564Y-86947844D01*
X132447633Y-86928672D01*
X132539717Y-86731197D01*
X132547289Y-86710395D01*
X132603683Y-86499930D01*
X132607527Y-86478129D01*
X132626517Y-86261069D01*
X132627000Y-86250000D01*
X132627000Y-86004061D01*
X146285000Y-86004061D01*
X146285000Y-86207939D01*
X146324774Y-86407898D01*
X146402795Y-86596256D01*
X146516063Y-86765774D01*
X146660226Y-86909937D01*
X146829744Y-87023205D01*
X147018102Y-87101226D01*
X147218061Y-87141000D01*
X147421939Y-87141000D01*
X147621898Y-87101226D01*
X147810256Y-87023205D01*
X147979774Y-86909937D01*
X148123937Y-86765774D01*
X148237205Y-86596256D01*
X148315226Y-86407898D01*
X148339672Y-86285000D01*
X148351939Y-86285000D01*
X148551898Y-86245226D01*
X148740256Y-86167205D01*
X148909774Y-86053937D01*
X149053937Y-85909774D01*
X149167205Y-85740256D01*
X149245226Y-85551898D01*
X149285000Y-85351939D01*
X149285000Y-85148061D01*
X149245226Y-84948102D01*
X149167205Y-84759744D01*
X149053937Y-84590226D01*
X148909774Y-84446063D01*
X148740256Y-84332795D01*
X148551898Y-84254774D01*
X148351939Y-84215000D01*
X148148061Y-84215000D01*
X147948102Y-84254774D01*
X147759744Y-84332795D01*
X147590226Y-84446063D01*
X147446063Y-84590226D01*
X147332795Y-84759744D01*
X147254774Y-84948102D01*
X147230328Y-85071000D01*
X147218061Y-85071000D01*
X147018102Y-85110774D01*
X146829744Y-85188795D01*
X146660226Y-85302063D01*
X146516063Y-85446226D01*
X146402795Y-85615744D01*
X146324774Y-85804102D01*
X146285000Y-86004061D01*
X132627000Y-86004061D01*
X132627000Y-81218061D01*
X135905000Y-81218061D01*
X135905000Y-81421939D01*
X135944774Y-81621898D01*
X136022795Y-81810256D01*
X136136063Y-81979774D01*
X136280226Y-82123937D01*
X136449744Y-82237205D01*
X136623386Y-82309130D01*
X136542795Y-82429744D01*
X136464774Y-82618102D01*
X136425000Y-82818061D01*
X136425000Y-83021939D01*
X136464774Y-83221898D01*
X136542795Y-83410256D01*
X136656063Y-83579774D01*
X136800226Y-83723937D01*
X136969744Y-83837205D01*
X137158102Y-83915226D01*
X137358061Y-83955000D01*
X137561939Y-83955000D01*
X137761898Y-83915226D01*
X137950256Y-83837205D01*
X138119774Y-83723937D01*
X138195650Y-83648061D01*
X153015000Y-83648061D01*
X153015000Y-83851939D01*
X153054774Y-84051898D01*
X153132795Y-84240256D01*
X153246063Y-84409774D01*
X153390226Y-84553937D01*
X153559744Y-84667205D01*
X153748102Y-84745226D01*
X153948061Y-84785000D01*
X154151939Y-84785000D01*
X154351898Y-84745226D01*
X154540256Y-84667205D01*
X154709774Y-84553937D01*
X154853937Y-84409774D01*
X154967205Y-84240256D01*
X155045226Y-84051898D01*
X155085000Y-83851939D01*
X155085000Y-83648061D01*
X155045226Y-83448102D01*
X154967205Y-83259744D01*
X154853937Y-83090226D01*
X154709774Y-82946063D01*
X154540256Y-82832795D01*
X154351898Y-82754774D01*
X154151939Y-82715000D01*
X153948061Y-82715000D01*
X153748102Y-82754774D01*
X153559744Y-82832795D01*
X153390226Y-82946063D01*
X153246063Y-83090226D01*
X153132795Y-83259744D01*
X153054774Y-83448102D01*
X153015000Y-83648061D01*
X138195650Y-83648061D01*
X138263937Y-83579774D01*
X138377205Y-83410256D01*
X138455226Y-83221898D01*
X138495000Y-83021939D01*
X138495000Y-82818061D01*
X138455226Y-82618102D01*
X138377205Y-82429744D01*
X138263937Y-82260226D01*
X138119774Y-82116063D01*
X137950256Y-82002795D01*
X137776614Y-81930870D01*
X137857205Y-81810256D01*
X137935226Y-81621898D01*
X137975000Y-81421939D01*
X137975000Y-81218061D01*
X137935226Y-81018102D01*
X137857205Y-80829744D01*
X137743937Y-80660226D01*
X137599774Y-80516063D01*
X137430256Y-80402795D01*
X137241898Y-80324774D01*
X137041939Y-80285000D01*
X136838061Y-80285000D01*
X136638102Y-80324774D01*
X136449744Y-80402795D01*
X136280226Y-80516063D01*
X136136063Y-80660226D01*
X136022795Y-80829744D01*
X135944774Y-81018102D01*
X135905000Y-81218061D01*
X132627000Y-81218061D01*
X132627000Y-78398061D01*
X133465000Y-78398061D01*
X133465000Y-78601939D01*
X133504774Y-78801898D01*
X133582795Y-78990256D01*
X133696063Y-79159774D01*
X133840226Y-79303937D01*
X134009744Y-79417205D01*
X134198102Y-79495226D01*
X134398061Y-79535000D01*
X134601939Y-79535000D01*
X134801898Y-79495226D01*
X134990256Y-79417205D01*
X135159774Y-79303937D01*
X135303937Y-79159774D01*
X135417205Y-78990256D01*
X135495226Y-78801898D01*
X135535000Y-78601939D01*
X135535000Y-78508521D01*
X140897660Y-78508521D01*
X140897660Y-78712399D01*
X140937434Y-78912358D01*
X141015455Y-79100716D01*
X141128723Y-79270234D01*
X141272886Y-79414397D01*
X141442404Y-79527665D01*
X141630762Y-79605686D01*
X141830721Y-79645460D01*
X142034599Y-79645460D01*
X142234558Y-79605686D01*
X142422916Y-79527665D01*
X142592434Y-79414397D01*
X142736597Y-79270234D01*
X142849865Y-79100716D01*
X142927886Y-78912358D01*
X142950620Y-78798061D01*
X153115000Y-78798061D01*
X153115000Y-79001939D01*
X153154774Y-79201898D01*
X153232795Y-79390256D01*
X153346063Y-79559774D01*
X153490226Y-79703937D01*
X153659744Y-79817205D01*
X153848102Y-79895226D01*
X154048061Y-79935000D01*
X154251939Y-79935000D01*
X154451898Y-79895226D01*
X154640256Y-79817205D01*
X154809774Y-79703937D01*
X154953937Y-79559774D01*
X155061989Y-79398061D01*
X157615000Y-79398061D01*
X157615000Y-79601939D01*
X157654774Y-79801898D01*
X157732795Y-79990256D01*
X157846063Y-80159774D01*
X157990226Y-80303937D01*
X158159744Y-80417205D01*
X158348102Y-80495226D01*
X158548061Y-80535000D01*
X158751939Y-80535000D01*
X158951898Y-80495226D01*
X159140256Y-80417205D01*
X159309774Y-80303937D01*
X159453937Y-80159774D01*
X159567205Y-79990256D01*
X159645226Y-79801898D01*
X159685000Y-79601939D01*
X159685000Y-79398061D01*
X159645226Y-79198102D01*
X159567205Y-79009744D01*
X159453937Y-78840226D01*
X159309774Y-78696063D01*
X159140256Y-78582795D01*
X158951898Y-78504774D01*
X158751939Y-78465000D01*
X158548061Y-78465000D01*
X158348102Y-78504774D01*
X158159744Y-78582795D01*
X157990226Y-78696063D01*
X157846063Y-78840226D01*
X157732795Y-79009744D01*
X157654774Y-79198102D01*
X157615000Y-79398061D01*
X155061989Y-79398061D01*
X155067205Y-79390256D01*
X155145226Y-79201898D01*
X155185000Y-79001939D01*
X155185000Y-78798061D01*
X155145226Y-78598102D01*
X155067205Y-78409744D01*
X154953937Y-78240226D01*
X154809774Y-78096063D01*
X154640256Y-77982795D01*
X154451898Y-77904774D01*
X154251939Y-77865000D01*
X154048061Y-77865000D01*
X153848102Y-77904774D01*
X153659744Y-77982795D01*
X153490226Y-78096063D01*
X153346063Y-78240226D01*
X153232795Y-78409744D01*
X153154774Y-78598102D01*
X153115000Y-78798061D01*
X142950620Y-78798061D01*
X142967660Y-78712399D01*
X142967660Y-78508521D01*
X142927886Y-78308562D01*
X142849865Y-78120204D01*
X142736597Y-77950686D01*
X142592434Y-77806523D01*
X142422916Y-77693255D01*
X142234558Y-77615234D01*
X142034599Y-77575460D01*
X141830721Y-77575460D01*
X141630762Y-77615234D01*
X141442404Y-77693255D01*
X141272886Y-77806523D01*
X141128723Y-77950686D01*
X141015455Y-78120204D01*
X140937434Y-78308562D01*
X140897660Y-78508521D01*
X135535000Y-78508521D01*
X135535000Y-78398061D01*
X135495226Y-78198102D01*
X135417205Y-78009744D01*
X135303937Y-77840226D01*
X135159774Y-77696063D01*
X134990256Y-77582795D01*
X134801898Y-77504774D01*
X134601939Y-77465000D01*
X134398061Y-77465000D01*
X134198102Y-77504774D01*
X134009744Y-77582795D01*
X133840226Y-77696063D01*
X133696063Y-77840226D01*
X133582795Y-78009744D01*
X133504774Y-78198102D01*
X133465000Y-78398061D01*
X132627000Y-78398061D01*
X132627000Y-74148061D01*
X136465000Y-74148061D01*
X136465000Y-74351939D01*
X136504774Y-74551898D01*
X136582795Y-74740256D01*
X136696063Y-74909774D01*
X136840226Y-75053937D01*
X137009744Y-75167205D01*
X137198102Y-75245226D01*
X137398061Y-75285000D01*
X137601939Y-75285000D01*
X137801898Y-75245226D01*
X137990256Y-75167205D01*
X138159774Y-75053937D01*
X138303937Y-74909774D01*
X138417205Y-74740256D01*
X138495226Y-74551898D01*
X138535000Y-74351939D01*
X138535000Y-74148061D01*
X138495226Y-73948102D01*
X138417205Y-73759744D01*
X138303937Y-73590226D01*
X138159774Y-73446063D01*
X137990256Y-73332795D01*
X137801898Y-73254774D01*
X137601939Y-73215000D01*
X137398061Y-73215000D01*
X137198102Y-73254774D01*
X137009744Y-73332795D01*
X136840226Y-73446063D01*
X136696063Y-73590226D01*
X136582795Y-73759744D01*
X136504774Y-73948102D01*
X136465000Y-74148061D01*
X132627000Y-74148061D01*
X132627000Y-73750000D01*
X132626517Y-73738931D01*
X132607527Y-73521871D01*
X132603683Y-73500070D01*
X132547289Y-73289605D01*
X132539717Y-73268803D01*
X132447633Y-73071328D01*
X132436564Y-73052156D01*
X132311588Y-72873671D01*
X132297359Y-72856712D01*
X132143288Y-72702641D01*
X132126329Y-72688412D01*
X131947844Y-72563436D01*
X131928672Y-72552367D01*
X131888287Y-72533535D01*
X131917205Y-72490256D01*
X131995226Y-72301898D01*
X132025825Y-72148061D01*
X132965000Y-72148061D01*
X132965000Y-72351939D01*
X133004774Y-72551898D01*
X133082795Y-72740256D01*
X133196063Y-72909774D01*
X133340226Y-73053937D01*
X133509744Y-73167205D01*
X133698102Y-73245226D01*
X133898061Y-73285000D01*
X134101939Y-73285000D01*
X134301898Y-73245226D01*
X134490256Y-73167205D01*
X134659774Y-73053937D01*
X134803937Y-72909774D01*
X134917205Y-72740256D01*
X134995226Y-72551898D01*
X135035000Y-72351939D01*
X135035000Y-72148061D01*
X134995226Y-71948102D01*
X134917205Y-71759744D01*
X134803937Y-71590226D01*
X134659774Y-71446063D01*
X134490256Y-71332795D01*
X134301898Y-71254774D01*
X134101939Y-71215000D01*
X133898061Y-71215000D01*
X133698102Y-71254774D01*
X133509744Y-71332795D01*
X133340226Y-71446063D01*
X133196063Y-71590226D01*
X133082795Y-71759744D01*
X133004774Y-71948102D01*
X132965000Y-72148061D01*
X132025825Y-72148061D01*
X132035000Y-72101939D01*
X132035000Y-71898061D01*
X131995226Y-71698102D01*
X131917205Y-71509744D01*
X131803937Y-71340226D01*
X131659774Y-71196063D01*
X131490256Y-71082795D01*
X131301898Y-71004774D01*
X131101939Y-70965000D01*
X130898061Y-70965000D01*
X130698102Y-71004774D01*
X130509744Y-71082795D01*
X130340226Y-71196063D01*
X130196063Y-71340226D01*
X130082795Y-71509744D01*
X130004774Y-71698102D01*
X129965000Y-71898061D01*
X129965000Y-72101939D01*
X130004774Y-72301898D01*
X130034226Y-72373000D01*
X127965774Y-72373000D01*
X127995226Y-72301898D01*
X128035000Y-72101939D01*
X128035000Y-71898061D01*
X127995226Y-71698102D01*
X127917205Y-71509744D01*
X127803937Y-71340226D01*
X127659774Y-71196063D01*
X127490256Y-71082795D01*
X127301898Y-71004774D01*
X127101939Y-70965000D01*
X126898061Y-70965000D01*
X126698102Y-71004774D01*
X126509744Y-71082795D01*
X126340226Y-71196063D01*
X126196063Y-71340226D01*
X126082795Y-71509744D01*
X126004774Y-71698102D01*
X125965000Y-71898061D01*
X125965000Y-72101939D01*
X126004774Y-72301898D01*
X126034226Y-72373000D01*
X124215774Y-72373000D01*
X124245226Y-72301898D01*
X124285000Y-72101939D01*
X124285000Y-71898061D01*
X124245226Y-71698102D01*
X124167205Y-71509744D01*
X124053937Y-71340226D01*
X123909774Y-71196063D01*
X123740256Y-71082795D01*
X123551898Y-71004774D01*
X123351939Y-70965000D01*
X123148061Y-70965000D01*
X122948102Y-71004774D01*
X122759744Y-71082795D01*
X122590226Y-71196063D01*
X122446063Y-71340226D01*
X122332795Y-71509744D01*
X122254774Y-71698102D01*
X122215000Y-71898061D01*
X122215000Y-72101939D01*
X122254774Y-72301898D01*
X122284226Y-72373000D01*
X121255548Y-72373000D01*
X121055078Y-72355461D01*
X120866074Y-72304818D01*
X120688742Y-72222127D01*
X120528465Y-72109900D01*
X120390100Y-71971535D01*
X120277873Y-71811258D01*
X120260192Y-71773340D01*
X120245226Y-71698102D01*
X120167205Y-71509744D01*
X120158361Y-71496509D01*
X120144539Y-71444922D01*
X120127000Y-71244452D01*
X120127000Y-68300427D01*
X120167205Y-68240256D01*
X120245226Y-68051898D01*
X120285000Y-67851939D01*
X120285000Y-67850000D01*
X121011928Y-67850000D01*
X121024188Y-67974482D01*
X121060498Y-68094180D01*
X121119463Y-68204494D01*
X121198815Y-68301185D01*
X121295506Y-68380537D01*
X121405820Y-68439502D01*
X121478380Y-68461513D01*
X121346525Y-68593368D01*
X121184010Y-68836589D01*
X121072068Y-69106842D01*
X121015000Y-69393740D01*
X121015000Y-69686260D01*
X121072068Y-69973158D01*
X121184010Y-70243411D01*
X121346525Y-70486632D01*
X121553368Y-70693475D01*
X121796589Y-70855990D01*
X122066842Y-70967932D01*
X122353740Y-71025000D01*
X122646260Y-71025000D01*
X122933158Y-70967932D01*
X123203411Y-70855990D01*
X123446632Y-70693475D01*
X123653475Y-70486632D01*
X123770000Y-70312240D01*
X123886525Y-70486632D01*
X124093368Y-70693475D01*
X124336589Y-70855990D01*
X124606842Y-70967932D01*
X124893740Y-71025000D01*
X125186260Y-71025000D01*
X125473158Y-70967932D01*
X125743411Y-70855990D01*
X125986632Y-70693475D01*
X126193475Y-70486632D01*
X126310000Y-70312240D01*
X126426525Y-70486632D01*
X126633368Y-70693475D01*
X126876589Y-70855990D01*
X127146842Y-70967932D01*
X127433740Y-71025000D01*
X127726260Y-71025000D01*
X128013158Y-70967932D01*
X128283411Y-70855990D01*
X128526632Y-70693475D01*
X128733475Y-70486632D01*
X128850000Y-70312240D01*
X128966525Y-70486632D01*
X129173368Y-70693475D01*
X129416589Y-70855990D01*
X129686842Y-70967932D01*
X129973740Y-71025000D01*
X130266260Y-71025000D01*
X130553158Y-70967932D01*
X130823411Y-70855990D01*
X131066632Y-70693475D01*
X131273475Y-70486632D01*
X131390000Y-70312240D01*
X131506525Y-70486632D01*
X131713368Y-70693475D01*
X131956589Y-70855990D01*
X132226842Y-70967932D01*
X132513740Y-71025000D01*
X132806260Y-71025000D01*
X133093158Y-70967932D01*
X133363411Y-70855990D01*
X133606632Y-70693475D01*
X133813475Y-70486632D01*
X133975990Y-70243411D01*
X134087932Y-69973158D01*
X134145000Y-69686260D01*
X134145000Y-69393740D01*
X134087932Y-69106842D01*
X133975990Y-68836589D01*
X133813475Y-68593368D01*
X133606632Y-68386525D01*
X133432240Y-68270000D01*
X133606632Y-68153475D01*
X133813475Y-67946632D01*
X133975990Y-67703411D01*
X134087932Y-67433158D01*
X134145000Y-67146260D01*
X134145000Y-66853740D01*
X134087932Y-66566842D01*
X133975990Y-66296589D01*
X133813475Y-66053368D01*
X133606632Y-65846525D01*
X133363411Y-65684010D01*
X133276623Y-65648061D01*
X133965000Y-65648061D01*
X133965000Y-65851939D01*
X134004774Y-66051898D01*
X134082795Y-66240256D01*
X134196063Y-66409774D01*
X134340226Y-66553937D01*
X134509744Y-66667205D01*
X134698102Y-66745226D01*
X134898061Y-66785000D01*
X135101939Y-66785000D01*
X135301898Y-66745226D01*
X135490256Y-66667205D01*
X135659774Y-66553937D01*
X135803937Y-66409774D01*
X135917205Y-66240256D01*
X135995226Y-66051898D01*
X136035000Y-65851939D01*
X136035000Y-65650000D01*
X137511928Y-65650000D01*
X137511928Y-67350000D01*
X137524188Y-67474482D01*
X137560498Y-67594180D01*
X137619463Y-67704494D01*
X137698815Y-67801185D01*
X137795506Y-67880537D01*
X137905820Y-67939502D01*
X137978380Y-67961513D01*
X137846525Y-68093368D01*
X137684010Y-68336589D01*
X137572068Y-68606842D01*
X137515000Y-68893740D01*
X137515000Y-69186260D01*
X137572068Y-69473158D01*
X137684010Y-69743411D01*
X137846525Y-69986632D01*
X138053368Y-70193475D01*
X138227760Y-70310000D01*
X138053368Y-70426525D01*
X137846525Y-70633368D01*
X137684010Y-70876589D01*
X137572068Y-71146842D01*
X137515000Y-71433740D01*
X137515000Y-71726260D01*
X137572068Y-72013158D01*
X137684010Y-72283411D01*
X137846525Y-72526632D01*
X138053368Y-72733475D01*
X138296589Y-72895990D01*
X138566842Y-73007932D01*
X138853740Y-73065000D01*
X139146260Y-73065000D01*
X139433158Y-73007932D01*
X139703411Y-72895990D01*
X139946632Y-72733475D01*
X140153475Y-72526632D01*
X140315990Y-72283411D01*
X140427932Y-72013158D01*
X140485000Y-71726260D01*
X140485000Y-71433740D01*
X140427932Y-71146842D01*
X140315990Y-70876589D01*
X140153475Y-70633368D01*
X139946632Y-70426525D01*
X139772240Y-70310000D01*
X139946632Y-70193475D01*
X140153475Y-69986632D01*
X140315990Y-69743411D01*
X140427932Y-69473158D01*
X140485000Y-69186260D01*
X140485000Y-68893740D01*
X140427932Y-68606842D01*
X140315990Y-68336589D01*
X140153475Y-68093368D01*
X140021620Y-67961513D01*
X140094180Y-67939502D01*
X140204494Y-67880537D01*
X140301185Y-67801185D01*
X140380537Y-67704494D01*
X140439502Y-67594180D01*
X140475812Y-67474482D01*
X140488072Y-67350000D01*
X140488072Y-65650000D01*
X141511928Y-65650000D01*
X141511928Y-67350000D01*
X141524188Y-67474482D01*
X141560498Y-67594180D01*
X141619463Y-67704494D01*
X141698815Y-67801185D01*
X141795506Y-67880537D01*
X141905820Y-67939502D01*
X141978380Y-67961513D01*
X141846525Y-68093368D01*
X141684010Y-68336589D01*
X141572068Y-68606842D01*
X141515000Y-68893740D01*
X141515000Y-69186260D01*
X141572068Y-69473158D01*
X141684010Y-69743411D01*
X141846525Y-69986632D01*
X142053368Y-70193475D01*
X142227760Y-70310000D01*
X142053368Y-70426525D01*
X141846525Y-70633368D01*
X141684010Y-70876589D01*
X141572068Y-71146842D01*
X141515000Y-71433740D01*
X141515000Y-71726260D01*
X141572068Y-72013158D01*
X141684010Y-72283411D01*
X141846525Y-72526632D01*
X142053368Y-72733475D01*
X142296589Y-72895990D01*
X142566842Y-73007932D01*
X142853740Y-73065000D01*
X143146260Y-73065000D01*
X143433158Y-73007932D01*
X143680640Y-72905422D01*
X143631274Y-73024602D01*
X143591500Y-73224561D01*
X143591500Y-73428439D01*
X143631274Y-73628398D01*
X143709295Y-73816756D01*
X143822563Y-73986274D01*
X143966726Y-74130437D01*
X144136244Y-74243705D01*
X144324602Y-74321726D01*
X144524561Y-74361500D01*
X144728439Y-74361500D01*
X144928398Y-74321726D01*
X145116756Y-74243705D01*
X145286274Y-74130437D01*
X145430437Y-73986274D01*
X145543705Y-73816756D01*
X145621726Y-73628398D01*
X145661500Y-73428439D01*
X145661500Y-73224561D01*
X145621726Y-73024602D01*
X145543705Y-72836244D01*
X145430437Y-72666726D01*
X145286274Y-72522563D01*
X145258332Y-72503893D01*
X145301897Y-72495227D01*
X145490255Y-72417206D01*
X145659773Y-72303938D01*
X145682923Y-72280788D01*
X145684010Y-72283411D01*
X145846525Y-72526632D01*
X146053368Y-72733475D01*
X146296589Y-72895990D01*
X146566842Y-73007932D01*
X146853740Y-73065000D01*
X147146260Y-73065000D01*
X147433158Y-73007932D01*
X147703411Y-72895990D01*
X147946632Y-72733475D01*
X148153475Y-72526632D01*
X148315990Y-72283411D01*
X148427932Y-72013158D01*
X148485000Y-71726260D01*
X148485000Y-71433740D01*
X148477414Y-71395603D01*
X148509744Y-71417205D01*
X148698102Y-71495226D01*
X148898061Y-71535000D01*
X149101939Y-71535000D01*
X149301898Y-71495226D01*
X149490256Y-71417205D01*
X149659774Y-71303937D01*
X149803937Y-71159774D01*
X149917205Y-70990256D01*
X149995226Y-70801898D01*
X150035000Y-70601939D01*
X150035000Y-70398061D01*
X149995226Y-70198102D01*
X149971974Y-70141968D01*
X150009744Y-70167205D01*
X150198102Y-70245226D01*
X150398061Y-70285000D01*
X150601939Y-70285000D01*
X150801898Y-70245226D01*
X150990256Y-70167205D01*
X151159774Y-70053937D01*
X151298682Y-69915029D01*
X151346525Y-69986632D01*
X151553368Y-70193475D01*
X151727760Y-70310000D01*
X151553368Y-70426525D01*
X151346525Y-70633368D01*
X151184010Y-70876589D01*
X151072068Y-71146842D01*
X151015000Y-71433740D01*
X151015000Y-71726260D01*
X151072068Y-72013158D01*
X151184010Y-72283411D01*
X151346525Y-72526632D01*
X151553368Y-72733475D01*
X151796589Y-72895990D01*
X152066842Y-73007932D01*
X152353740Y-73065000D01*
X152646260Y-73065000D01*
X152933158Y-73007932D01*
X153203411Y-72895990D01*
X153446632Y-72733475D01*
X153653475Y-72526632D01*
X153727663Y-72415602D01*
X153754774Y-72551898D01*
X153832795Y-72740256D01*
X153946063Y-72909774D01*
X154090226Y-73053937D01*
X154259744Y-73167205D01*
X154448102Y-73245226D01*
X154648061Y-73285000D01*
X154851939Y-73285000D01*
X155051898Y-73245226D01*
X155240256Y-73167205D01*
X155409774Y-73053937D01*
X155553937Y-72909774D01*
X155667205Y-72740256D01*
X155745226Y-72551898D01*
X155785000Y-72351939D01*
X155785000Y-72148061D01*
X156965000Y-72148061D01*
X156965000Y-72351939D01*
X157004774Y-72551898D01*
X157082795Y-72740256D01*
X157196063Y-72909774D01*
X157340226Y-73053937D01*
X157509744Y-73167205D01*
X157698102Y-73245226D01*
X157898061Y-73285000D01*
X158101939Y-73285000D01*
X158301898Y-73245226D01*
X158490256Y-73167205D01*
X158659774Y-73053937D01*
X158803937Y-72909774D01*
X158917205Y-72740256D01*
X158995226Y-72551898D01*
X159035000Y-72351939D01*
X159035000Y-72148061D01*
X158995226Y-71948102D01*
X158917205Y-71759744D01*
X158803937Y-71590226D01*
X158659774Y-71446063D01*
X158490256Y-71332795D01*
X158301898Y-71254774D01*
X158101939Y-71215000D01*
X157898061Y-71215000D01*
X157698102Y-71254774D01*
X157509744Y-71332795D01*
X157340226Y-71446063D01*
X157196063Y-71590226D01*
X157082795Y-71759744D01*
X157004774Y-71948102D01*
X156965000Y-72148061D01*
X155785000Y-72148061D01*
X155745226Y-71948102D01*
X155667205Y-71759744D01*
X155553937Y-71590226D01*
X155409774Y-71446063D01*
X155240256Y-71332795D01*
X155051898Y-71254774D01*
X154851939Y-71215000D01*
X154648061Y-71215000D01*
X154448102Y-71254774D01*
X154259744Y-71332795D01*
X154090226Y-71446063D01*
X153985000Y-71551289D01*
X153985000Y-71433740D01*
X153927932Y-71146842D01*
X153824884Y-70898061D01*
X159465000Y-70898061D01*
X159465000Y-71101939D01*
X159504774Y-71301898D01*
X159582795Y-71490256D01*
X159696063Y-71659774D01*
X159840226Y-71803937D01*
X160009744Y-71917205D01*
X160198102Y-71995226D01*
X160398061Y-72035000D01*
X160601939Y-72035000D01*
X160801898Y-71995226D01*
X160990256Y-71917205D01*
X161159774Y-71803937D01*
X161303937Y-71659774D01*
X161417205Y-71490256D01*
X161495226Y-71301898D01*
X161535000Y-71101939D01*
X161535000Y-70898061D01*
X161495226Y-70698102D01*
X161417205Y-70509744D01*
X161303937Y-70340226D01*
X161159774Y-70196063D01*
X160990256Y-70082795D01*
X160801898Y-70004774D01*
X160601939Y-69965000D01*
X160398061Y-69965000D01*
X160198102Y-70004774D01*
X160009744Y-70082795D01*
X159840226Y-70196063D01*
X159696063Y-70340226D01*
X159582795Y-70509744D01*
X159504774Y-70698102D01*
X159465000Y-70898061D01*
X153824884Y-70898061D01*
X153815990Y-70876589D01*
X153653475Y-70633368D01*
X153446632Y-70426525D01*
X153272240Y-70310000D01*
X153446632Y-70193475D01*
X153653475Y-69986632D01*
X153815990Y-69743411D01*
X153927932Y-69473158D01*
X153982934Y-69196645D01*
X154090226Y-69303937D01*
X154259744Y-69417205D01*
X154448102Y-69495226D01*
X154648061Y-69535000D01*
X154851939Y-69535000D01*
X155051898Y-69495226D01*
X155240256Y-69417205D01*
X155409774Y-69303937D01*
X155553937Y-69159774D01*
X155667205Y-68990256D01*
X155745226Y-68801898D01*
X155785000Y-68601939D01*
X155785000Y-68398061D01*
X155745226Y-68198102D01*
X155667205Y-68009744D01*
X155553937Y-67840226D01*
X155409774Y-67696063D01*
X155240256Y-67582795D01*
X155051898Y-67504774D01*
X154851939Y-67465000D01*
X154648061Y-67465000D01*
X154448102Y-67504774D01*
X154259744Y-67582795D01*
X154090226Y-67696063D01*
X153946063Y-67840226D01*
X153832795Y-68009744D01*
X153754774Y-68198102D01*
X153747590Y-68234221D01*
X153653475Y-68093368D01*
X153521620Y-67961513D01*
X153594180Y-67939502D01*
X153704494Y-67880537D01*
X153801185Y-67801185D01*
X153880537Y-67704494D01*
X153939502Y-67594180D01*
X153975812Y-67474482D01*
X153988072Y-67350000D01*
X153985000Y-66785750D01*
X153826250Y-66627000D01*
X152627000Y-66627000D01*
X152627000Y-66647000D01*
X152373000Y-66647000D01*
X152373000Y-66627000D01*
X152353000Y-66627000D01*
X152353000Y-66373000D01*
X152373000Y-66373000D01*
X152373000Y-65173750D01*
X152627000Y-65173750D01*
X152627000Y-66373000D01*
X153826250Y-66373000D01*
X153985000Y-66214250D01*
X153985842Y-66059419D01*
X156315000Y-66059419D01*
X156315000Y-66440581D01*
X156389361Y-66814419D01*
X156535225Y-67166566D01*
X156746987Y-67483491D01*
X157016509Y-67753013D01*
X157333434Y-67964775D01*
X157685581Y-68110639D01*
X158059419Y-68185000D01*
X158440581Y-68185000D01*
X158626285Y-68148061D01*
X159465000Y-68148061D01*
X159465000Y-68351939D01*
X159504774Y-68551898D01*
X159582795Y-68740256D01*
X159696063Y-68909774D01*
X159840226Y-69053937D01*
X160009744Y-69167205D01*
X160198102Y-69245226D01*
X160398061Y-69285000D01*
X160601939Y-69285000D01*
X160801898Y-69245226D01*
X160990256Y-69167205D01*
X161159774Y-69053937D01*
X161303937Y-68909774D01*
X161417205Y-68740256D01*
X161495226Y-68551898D01*
X161535000Y-68351939D01*
X161535000Y-68148061D01*
X161507144Y-68008021D01*
X161595506Y-68080537D01*
X161705820Y-68139502D01*
X161825518Y-68175812D01*
X161950000Y-68188072D01*
X164550000Y-68188072D01*
X164674482Y-68175812D01*
X164794180Y-68139502D01*
X164904494Y-68080537D01*
X165001185Y-68001185D01*
X165080537Y-67904494D01*
X165139502Y-67794180D01*
X165175812Y-67674482D01*
X165188072Y-67550000D01*
X165188072Y-64950000D01*
X165175812Y-64825518D01*
X165139502Y-64705820D01*
X165080537Y-64595506D01*
X165001185Y-64498815D01*
X164904494Y-64419463D01*
X164794180Y-64360498D01*
X164674482Y-64324188D01*
X164550000Y-64311928D01*
X161950000Y-64311928D01*
X161825518Y-64324188D01*
X161723128Y-64355248D01*
X161745226Y-64301898D01*
X161785000Y-64101939D01*
X161785000Y-63898061D01*
X161745226Y-63698102D01*
X161667205Y-63509744D01*
X161553937Y-63340226D01*
X161409774Y-63196063D01*
X161337934Y-63148061D01*
X164965000Y-63148061D01*
X164965000Y-63351939D01*
X165004774Y-63551898D01*
X165082795Y-63740256D01*
X165196063Y-63909774D01*
X165340226Y-64053937D01*
X165509744Y-64167205D01*
X165698102Y-64245226D01*
X165898061Y-64285000D01*
X166101939Y-64285000D01*
X166301898Y-64245226D01*
X166490256Y-64167205D01*
X166659774Y-64053937D01*
X166803937Y-63909774D01*
X166917205Y-63740256D01*
X166995226Y-63551898D01*
X167035000Y-63351939D01*
X167035000Y-63148061D01*
X166995226Y-62948102D01*
X166917205Y-62759744D01*
X166803937Y-62590226D01*
X166659774Y-62446063D01*
X166490256Y-62332795D01*
X166301898Y-62254774D01*
X166101939Y-62215000D01*
X165898061Y-62215000D01*
X165698102Y-62254774D01*
X165509744Y-62332795D01*
X165340226Y-62446063D01*
X165196063Y-62590226D01*
X165082795Y-62759744D01*
X165004774Y-62948102D01*
X164965000Y-63148061D01*
X161337934Y-63148061D01*
X161240256Y-63082795D01*
X161051898Y-63004774D01*
X160851939Y-62965000D01*
X160648061Y-62965000D01*
X160448102Y-63004774D01*
X160259744Y-63082795D01*
X160090226Y-63196063D01*
X159946063Y-63340226D01*
X159832795Y-63509744D01*
X159754774Y-63698102D01*
X159715000Y-63898061D01*
X159715000Y-64101939D01*
X159754774Y-64301898D01*
X159832795Y-64490256D01*
X159946063Y-64659774D01*
X160090226Y-64803937D01*
X160259744Y-64917205D01*
X160448102Y-64995226D01*
X160648061Y-65035000D01*
X160851939Y-65035000D01*
X161051898Y-64995226D01*
X161240256Y-64917205D01*
X161320434Y-64863632D01*
X161311928Y-64950000D01*
X161311928Y-67550000D01*
X161317956Y-67611207D01*
X161303937Y-67590226D01*
X161159774Y-67446063D01*
X160990256Y-67332795D01*
X160801898Y-67254774D01*
X160601939Y-67215000D01*
X160398061Y-67215000D01*
X160198102Y-67254774D01*
X160009744Y-67332795D01*
X159840226Y-67446063D01*
X159696063Y-67590226D01*
X159582795Y-67759744D01*
X159504774Y-67948102D01*
X159465000Y-68148061D01*
X158626285Y-68148061D01*
X158814419Y-68110639D01*
X159166566Y-67964775D01*
X159483491Y-67753013D01*
X159753013Y-67483491D01*
X159964775Y-67166566D01*
X160110639Y-66814419D01*
X160185000Y-66440581D01*
X160185000Y-66059419D01*
X160110639Y-65685581D01*
X159964775Y-65333434D01*
X159753013Y-65016509D01*
X159483491Y-64746987D01*
X159166566Y-64535225D01*
X158814419Y-64389361D01*
X158440581Y-64315000D01*
X158059419Y-64315000D01*
X157685581Y-64389361D01*
X157333434Y-64535225D01*
X157016509Y-64746987D01*
X156746987Y-65016509D01*
X156535225Y-65333434D01*
X156389361Y-65685581D01*
X156315000Y-66059419D01*
X153985842Y-66059419D01*
X153988057Y-65652714D01*
X154009744Y-65667205D01*
X154198102Y-65745226D01*
X154398061Y-65785000D01*
X154601939Y-65785000D01*
X154801898Y-65745226D01*
X154990256Y-65667205D01*
X155159774Y-65553937D01*
X155303937Y-65409774D01*
X155417205Y-65240256D01*
X155495226Y-65051898D01*
X155535000Y-64851939D01*
X155535000Y-64648061D01*
X155495226Y-64448102D01*
X155417205Y-64259744D01*
X155303937Y-64090226D01*
X155159774Y-63946063D01*
X154990256Y-63832795D01*
X154801898Y-63754774D01*
X154601939Y-63715000D01*
X154398061Y-63715000D01*
X154198102Y-63754774D01*
X154009744Y-63832795D01*
X153840226Y-63946063D01*
X153696063Y-64090226D01*
X153582795Y-64259744D01*
X153504774Y-64448102D01*
X153465000Y-64648061D01*
X153465000Y-64851939D01*
X153500853Y-65032188D01*
X153474482Y-65024188D01*
X153350000Y-65011928D01*
X152785750Y-65015000D01*
X152627000Y-65173750D01*
X152373000Y-65173750D01*
X152214250Y-65015000D01*
X151650000Y-65011928D01*
X151525518Y-65024188D01*
X151499147Y-65032188D01*
X151535000Y-64851939D01*
X151535000Y-64648061D01*
X151495226Y-64448102D01*
X151417205Y-64259744D01*
X151303937Y-64090226D01*
X151159774Y-63946063D01*
X150990256Y-63832795D01*
X150801898Y-63754774D01*
X150601939Y-63715000D01*
X150398061Y-63715000D01*
X150198102Y-63754774D01*
X150009744Y-63832795D01*
X149840226Y-63946063D01*
X149696063Y-64090226D01*
X149582795Y-64259744D01*
X149504774Y-64448102D01*
X149465000Y-64648061D01*
X149465000Y-64851939D01*
X149504774Y-65051898D01*
X149582795Y-65240256D01*
X149696063Y-65409774D01*
X149840226Y-65553937D01*
X150009744Y-65667205D01*
X150198102Y-65745226D01*
X150398061Y-65785000D01*
X150601939Y-65785000D01*
X150801898Y-65745226D01*
X150990256Y-65667205D01*
X151011943Y-65652714D01*
X151014372Y-66098909D01*
X150990256Y-66082795D01*
X150801898Y-66004774D01*
X150601939Y-65965000D01*
X150398061Y-65965000D01*
X150198102Y-66004774D01*
X150009744Y-66082795D01*
X149840226Y-66196063D01*
X149696063Y-66340226D01*
X149582795Y-66509744D01*
X149504774Y-66698102D01*
X149465000Y-66898061D01*
X149465000Y-67101939D01*
X149504774Y-67301898D01*
X149582795Y-67490256D01*
X149696063Y-67659774D01*
X149840226Y-67803937D01*
X150009744Y-67917205D01*
X150198102Y-67995226D01*
X150398061Y-68035000D01*
X150601939Y-68035000D01*
X150801898Y-67995226D01*
X150990256Y-67917205D01*
X151159774Y-67803937D01*
X151182458Y-67781253D01*
X151198815Y-67801185D01*
X151295506Y-67880537D01*
X151405820Y-67939502D01*
X151478380Y-67961513D01*
X151346525Y-68093368D01*
X151184010Y-68336589D01*
X151143240Y-68435016D01*
X150990256Y-68332795D01*
X150801898Y-68254774D01*
X150601939Y-68215000D01*
X150398061Y-68215000D01*
X150198102Y-68254774D01*
X150009744Y-68332795D01*
X149840226Y-68446063D01*
X149696063Y-68590226D01*
X149582795Y-68759744D01*
X149504774Y-68948102D01*
X149465000Y-69148061D01*
X149465000Y-69351939D01*
X149504774Y-69551898D01*
X149528026Y-69608032D01*
X149490256Y-69582795D01*
X149301898Y-69504774D01*
X149101939Y-69465000D01*
X148898061Y-69465000D01*
X148698102Y-69504774D01*
X148509744Y-69582795D01*
X148340226Y-69696063D01*
X148332333Y-69703956D01*
X148427932Y-69473158D01*
X148485000Y-69186260D01*
X148485000Y-68893740D01*
X148427932Y-68606842D01*
X148315990Y-68336589D01*
X148153475Y-68093368D01*
X148021620Y-67961513D01*
X148094180Y-67939502D01*
X148204494Y-67880537D01*
X148301185Y-67801185D01*
X148380537Y-67704494D01*
X148439502Y-67594180D01*
X148475812Y-67474482D01*
X148488072Y-67350000D01*
X148485000Y-66785750D01*
X148326250Y-66627000D01*
X147127000Y-66627000D01*
X147127000Y-66647000D01*
X146873000Y-66647000D01*
X146873000Y-66627000D01*
X145673750Y-66627000D01*
X145515000Y-66785750D01*
X145511928Y-67350000D01*
X145524188Y-67474482D01*
X145560498Y-67594180D01*
X145619463Y-67704494D01*
X145698815Y-67801185D01*
X145795506Y-67880537D01*
X145905820Y-67939502D01*
X145978380Y-67961513D01*
X145846525Y-68093368D01*
X145826281Y-68123666D01*
X145803937Y-68090226D01*
X145659774Y-67946063D01*
X145490256Y-67832795D01*
X145301898Y-67754774D01*
X145101939Y-67715000D01*
X144898061Y-67715000D01*
X144698102Y-67754774D01*
X144509744Y-67832795D01*
X144340226Y-67946063D01*
X144196063Y-68090226D01*
X144173719Y-68123666D01*
X144153475Y-68093368D01*
X144021620Y-67961513D01*
X144094180Y-67939502D01*
X144204494Y-67880537D01*
X144301185Y-67801185D01*
X144380537Y-67704494D01*
X144439502Y-67594180D01*
X144475812Y-67474482D01*
X144488072Y-67350000D01*
X144488072Y-65650000D01*
X145511928Y-65650000D01*
X145515000Y-66214250D01*
X145673750Y-66373000D01*
X146873000Y-66373000D01*
X146873000Y-65173750D01*
X147127000Y-65173750D01*
X147127000Y-66373000D01*
X148326250Y-66373000D01*
X148485000Y-66214250D01*
X148488072Y-65650000D01*
X148475812Y-65525518D01*
X148439502Y-65405820D01*
X148380537Y-65295506D01*
X148301185Y-65198815D01*
X148204494Y-65119463D01*
X148094180Y-65060498D01*
X147974482Y-65024188D01*
X147850000Y-65011928D01*
X147285750Y-65015000D01*
X147127000Y-65173750D01*
X146873000Y-65173750D01*
X146714250Y-65015000D01*
X146150000Y-65011928D01*
X146025518Y-65024188D01*
X145905820Y-65060498D01*
X145795506Y-65119463D01*
X145698815Y-65198815D01*
X145619463Y-65295506D01*
X145560498Y-65405820D01*
X145524188Y-65525518D01*
X145511928Y-65650000D01*
X144488072Y-65650000D01*
X144475812Y-65525518D01*
X144439502Y-65405820D01*
X144380537Y-65295506D01*
X144301185Y-65198815D01*
X144204494Y-65119463D01*
X144094180Y-65060498D01*
X143974482Y-65024188D01*
X143850000Y-65011928D01*
X142150000Y-65011928D01*
X142025518Y-65024188D01*
X141905820Y-65060498D01*
X141795506Y-65119463D01*
X141698815Y-65198815D01*
X141619463Y-65295506D01*
X141560498Y-65405820D01*
X141524188Y-65525518D01*
X141511928Y-65650000D01*
X140488072Y-65650000D01*
X140475812Y-65525518D01*
X140439502Y-65405820D01*
X140380537Y-65295506D01*
X140301185Y-65198815D01*
X140204494Y-65119463D01*
X140094180Y-65060498D01*
X139974482Y-65024188D01*
X139850000Y-65011928D01*
X138150000Y-65011928D01*
X138025518Y-65024188D01*
X137905820Y-65060498D01*
X137795506Y-65119463D01*
X137698815Y-65198815D01*
X137619463Y-65295506D01*
X137560498Y-65405820D01*
X137524188Y-65525518D01*
X137511928Y-65650000D01*
X136035000Y-65650000D01*
X136035000Y-65648061D01*
X135995226Y-65448102D01*
X135917205Y-65259744D01*
X135803937Y-65090226D01*
X135659774Y-64946063D01*
X135490256Y-64832795D01*
X135301898Y-64754774D01*
X135101939Y-64715000D01*
X134898061Y-64715000D01*
X134698102Y-64754774D01*
X134509744Y-64832795D01*
X134340226Y-64946063D01*
X134196063Y-65090226D01*
X134082795Y-65259744D01*
X134004774Y-65448102D01*
X133965000Y-65648061D01*
X133276623Y-65648061D01*
X133093158Y-65572068D01*
X132806260Y-65515000D01*
X132513740Y-65515000D01*
X132226842Y-65572068D01*
X131956589Y-65684010D01*
X131713368Y-65846525D01*
X131506525Y-66053368D01*
X131390000Y-66227760D01*
X131273475Y-66053368D01*
X131066632Y-65846525D01*
X130823411Y-65684010D01*
X130553158Y-65572068D01*
X130266260Y-65515000D01*
X129973740Y-65515000D01*
X129686842Y-65572068D01*
X129416589Y-65684010D01*
X129173368Y-65846525D01*
X128966525Y-66053368D01*
X128850000Y-66227760D01*
X128733475Y-66053368D01*
X128526632Y-65846525D01*
X128283411Y-65684010D01*
X128013158Y-65572068D01*
X127726260Y-65515000D01*
X127433740Y-65515000D01*
X127146842Y-65572068D01*
X126876589Y-65684010D01*
X126633368Y-65846525D01*
X126426525Y-66053368D01*
X126310000Y-66227760D01*
X126193475Y-66053368D01*
X125986632Y-65846525D01*
X125743411Y-65684010D01*
X125473158Y-65572068D01*
X125186260Y-65515000D01*
X124893740Y-65515000D01*
X124606842Y-65572068D01*
X124336589Y-65684010D01*
X124093368Y-65846525D01*
X123961513Y-65978380D01*
X123939502Y-65905820D01*
X123880537Y-65795506D01*
X123801185Y-65698815D01*
X123704494Y-65619463D01*
X123594180Y-65560498D01*
X123474482Y-65524188D01*
X123350000Y-65511928D01*
X122785750Y-65515000D01*
X122627000Y-65673750D01*
X122627000Y-66873000D01*
X122647000Y-66873000D01*
X122647000Y-67127000D01*
X122627000Y-67127000D01*
X122627000Y-67147000D01*
X122373000Y-67147000D01*
X122373000Y-67127000D01*
X121173750Y-67127000D01*
X121015000Y-67285750D01*
X121011928Y-67850000D01*
X120285000Y-67850000D01*
X120285000Y-67648061D01*
X120245226Y-67448102D01*
X120167205Y-67259744D01*
X120127000Y-67199573D01*
X120127000Y-66150000D01*
X121011928Y-66150000D01*
X121015000Y-66714250D01*
X121173750Y-66873000D01*
X122373000Y-66873000D01*
X122373000Y-65673750D01*
X122214250Y-65515000D01*
X121650000Y-65511928D01*
X121525518Y-65524188D01*
X121405820Y-65560498D01*
X121295506Y-65619463D01*
X121198815Y-65698815D01*
X121119463Y-65795506D01*
X121060498Y-65905820D01*
X121024188Y-66025518D01*
X121011928Y-66150000D01*
X120127000Y-66150000D01*
X120127000Y-64800427D01*
X120167205Y-64740256D01*
X120245226Y-64551898D01*
X120285000Y-64351939D01*
X120285000Y-64148061D01*
X120245226Y-63948102D01*
X120198377Y-63835000D01*
X120377715Y-63835000D01*
X121118628Y-63687623D01*
X121214139Y-63648061D01*
X137715000Y-63648061D01*
X137715000Y-63851939D01*
X137754774Y-64051898D01*
X137832795Y-64240256D01*
X137946063Y-64409774D01*
X138090226Y-64553937D01*
X138259744Y-64667205D01*
X138448102Y-64745226D01*
X138648061Y-64785000D01*
X138851939Y-64785000D01*
X139051898Y-64745226D01*
X139240256Y-64667205D01*
X139409774Y-64553937D01*
X139553937Y-64409774D01*
X139667205Y-64240256D01*
X139745226Y-64051898D01*
X139785000Y-63851939D01*
X139785000Y-63648061D01*
X139745226Y-63448102D01*
X139724499Y-63398061D01*
X141965000Y-63398061D01*
X141965000Y-63601939D01*
X142004774Y-63801898D01*
X142082795Y-63990256D01*
X142196063Y-64159774D01*
X142340226Y-64303937D01*
X142509744Y-64417205D01*
X142698102Y-64495226D01*
X142898061Y-64535000D01*
X143101939Y-64535000D01*
X143301898Y-64495226D01*
X143490256Y-64417205D01*
X143659774Y-64303937D01*
X143803937Y-64159774D01*
X143917205Y-63990256D01*
X143995226Y-63801898D01*
X144035000Y-63601939D01*
X144035000Y-63398061D01*
X143995226Y-63198102D01*
X143917205Y-63009744D01*
X143803937Y-62840226D01*
X143659774Y-62696063D01*
X143490256Y-62582795D01*
X143301898Y-62504774D01*
X143101939Y-62465000D01*
X142898061Y-62465000D01*
X142698102Y-62504774D01*
X142509744Y-62582795D01*
X142340226Y-62696063D01*
X142196063Y-62840226D01*
X142082795Y-63009744D01*
X142004774Y-63198102D01*
X141965000Y-63398061D01*
X139724499Y-63398061D01*
X139667205Y-63259744D01*
X139553937Y-63090226D01*
X139409774Y-62946063D01*
X139240256Y-62832795D01*
X139051898Y-62754774D01*
X138851939Y-62715000D01*
X138648061Y-62715000D01*
X138448102Y-62754774D01*
X138259744Y-62832795D01*
X138090226Y-62946063D01*
X137946063Y-63090226D01*
X137832795Y-63259744D01*
X137754774Y-63448102D01*
X137715000Y-63648061D01*
X121214139Y-63648061D01*
X121816554Y-63398533D01*
X122444670Y-62978839D01*
X122978839Y-62444670D01*
X123398533Y-61816554D01*
X123687623Y-61118628D01*
X123835000Y-60377715D01*
X123835000Y-60127000D01*
X164421491Y-60127000D01*
X164332795Y-60259744D01*
%TA.AperFunction,Conductor*%
D18*
G36*
X164332795Y-60259744D02*
G01*
X164254774Y-60448102D01*
X164215000Y-60648061D01*
X164215000Y-60851939D01*
X164254774Y-61051898D01*
X164332795Y-61240256D01*
X164446063Y-61409774D01*
X164590226Y-61553937D01*
X164759744Y-61667205D01*
X164948102Y-61745226D01*
X165148061Y-61785000D01*
X165351939Y-61785000D01*
X165551898Y-61745226D01*
X165740256Y-61667205D01*
X165909774Y-61553937D01*
X166053937Y-61409774D01*
X166167205Y-61240256D01*
X166245226Y-61051898D01*
X166272165Y-60916467D01*
X166312377Y-61118628D01*
X166601467Y-61816554D01*
X167021161Y-62444670D01*
X167555330Y-62978839D01*
X168183446Y-63398533D01*
X168881372Y-63687623D01*
X169622285Y-63835000D01*
X169873000Y-63835000D01*
X169873000Y-96165000D01*
X169622285Y-96165000D01*
X168881372Y-96312377D01*
X168183446Y-96601467D01*
X167555330Y-97021161D01*
X167021161Y-97555330D01*
X166601467Y-98183446D01*
X166312377Y-98881372D01*
X166165000Y-99622285D01*
X166165000Y-99873000D01*
X123835000Y-99873000D01*
X123835000Y-99622285D01*
X123687623Y-98881372D01*
X123398533Y-98183446D01*
X122978839Y-97555330D01*
X122444670Y-97021161D01*
X121816554Y-96601467D01*
X121118628Y-96312377D01*
X120377715Y-96165000D01*
X120127000Y-96165000D01*
X120127000Y-95498061D01*
X124365000Y-95498061D01*
X124365000Y-95701939D01*
X124404774Y-95901898D01*
X124482795Y-96090256D01*
X124596063Y-96259774D01*
X124740226Y-96403937D01*
X124909744Y-96517205D01*
X125098102Y-96595226D01*
X125298061Y-96635000D01*
X125501939Y-96635000D01*
X125701898Y-96595226D01*
X125890256Y-96517205D01*
X126059774Y-96403937D01*
X126203937Y-96259774D01*
X126317205Y-96090256D01*
X126395226Y-95901898D01*
X126400000Y-95877897D01*
X126404774Y-95901898D01*
X126482795Y-96090256D01*
X126596063Y-96259774D01*
X126740226Y-96403937D01*
X126909744Y-96517205D01*
X127098102Y-96595226D01*
X127298061Y-96635000D01*
X127501939Y-96635000D01*
X127701898Y-96595226D01*
X127890256Y-96517205D01*
X128059774Y-96403937D01*
X128203937Y-96259774D01*
X128317205Y-96090256D01*
X128395226Y-95901898D01*
X128435000Y-95701939D01*
X128435000Y-95498061D01*
X128565000Y-95498061D01*
X128565000Y-95701939D01*
X128604774Y-95901898D01*
X128682795Y-96090256D01*
X128796063Y-96259774D01*
X128940226Y-96403937D01*
X129109744Y-96517205D01*
X129298102Y-96595226D01*
X129498061Y-96635000D01*
X129701939Y-96635000D01*
X129901898Y-96595226D01*
X130090256Y-96517205D01*
X130259774Y-96403937D01*
X130403937Y-96259774D01*
X130517205Y-96090256D01*
X130595226Y-95901898D01*
X130635000Y-95701939D01*
X130635000Y-95498061D01*
X131765000Y-95498061D01*
X131765000Y-95701939D01*
X131804774Y-95901898D01*
X131882795Y-96090256D01*
X131996063Y-96259774D01*
X132140226Y-96403937D01*
X132309744Y-96517205D01*
X132498102Y-96595226D01*
X132698061Y-96635000D01*
X132901939Y-96635000D01*
X133101898Y-96595226D01*
X133290256Y-96517205D01*
X133459774Y-96403937D01*
X133603937Y-96259774D01*
X133717205Y-96090256D01*
X133795226Y-95901898D01*
X133835000Y-95701939D01*
X133835000Y-95498061D01*
X133965000Y-95498061D01*
X133965000Y-95701939D01*
X134004774Y-95901898D01*
X134082795Y-96090256D01*
X134196063Y-96259774D01*
X134340226Y-96403937D01*
X134509744Y-96517205D01*
X134698102Y-96595226D01*
X134898061Y-96635000D01*
X135101939Y-96635000D01*
X135301898Y-96595226D01*
X135490256Y-96517205D01*
X135659774Y-96403937D01*
X135803937Y-96259774D01*
X135917205Y-96090256D01*
X135995226Y-95901898D01*
X136035000Y-95701939D01*
X136035000Y-95498061D01*
X135995226Y-95298102D01*
X135917205Y-95109744D01*
X135803937Y-94940226D01*
X135659774Y-94796063D01*
X135490256Y-94682795D01*
X135301898Y-94604774D01*
X135101939Y-94565000D01*
X134898061Y-94565000D01*
X134698102Y-94604774D01*
X134509744Y-94682795D01*
X134340226Y-94796063D01*
X134196063Y-94940226D01*
X134082795Y-95109744D01*
X134004774Y-95298102D01*
X133965000Y-95498061D01*
X133835000Y-95498061D01*
X133795226Y-95298102D01*
X133717205Y-95109744D01*
X133603937Y-94940226D01*
X133459774Y-94796063D01*
X133290256Y-94682795D01*
X133101898Y-94604774D01*
X132901939Y-94565000D01*
X132698061Y-94565000D01*
X132498102Y-94604774D01*
X132309744Y-94682795D01*
X132140226Y-94796063D01*
X131996063Y-94940226D01*
X131882795Y-95109744D01*
X131804774Y-95298102D01*
X131765000Y-95498061D01*
X130635000Y-95498061D01*
X130595226Y-95298102D01*
X130517205Y-95109744D01*
X130403937Y-94940226D01*
X130259774Y-94796063D01*
X130090256Y-94682795D01*
X129901898Y-94604774D01*
X129701939Y-94565000D01*
X129498061Y-94565000D01*
X129298102Y-94604774D01*
X129109744Y-94682795D01*
X128940226Y-94796063D01*
X128796063Y-94940226D01*
X128682795Y-95109744D01*
X128604774Y-95298102D01*
X128565000Y-95498061D01*
X128435000Y-95498061D01*
X128395226Y-95298102D01*
X128317205Y-95109744D01*
X128203937Y-94940226D01*
X128059774Y-94796063D01*
X127890256Y-94682795D01*
X127701898Y-94604774D01*
X127501939Y-94565000D01*
X127298061Y-94565000D01*
X127098102Y-94604774D01*
X126909744Y-94682795D01*
X126740226Y-94796063D01*
X126596063Y-94940226D01*
X126482795Y-95109744D01*
X126404774Y-95298102D01*
X126400000Y-95322103D01*
X126395226Y-95298102D01*
X126317205Y-95109744D01*
X126203937Y-94940226D01*
X126059774Y-94796063D01*
X125890256Y-94682795D01*
X125701898Y-94604774D01*
X125501939Y-94565000D01*
X125298061Y-94565000D01*
X125098102Y-94604774D01*
X124909744Y-94682795D01*
X124740226Y-94796063D01*
X124596063Y-94940226D01*
X124482795Y-95109744D01*
X124404774Y-95298102D01*
X124365000Y-95498061D01*
X120127000Y-95498061D01*
X120127000Y-88755548D01*
X120144539Y-88555078D01*
X120195182Y-88366074D01*
X120277873Y-88188742D01*
X120390100Y-88028465D01*
X120528465Y-87890100D01*
X120688742Y-87777873D01*
X120866074Y-87695182D01*
X121055078Y-87644539D01*
X121255548Y-87627000D01*
X124465172Y-87627000D01*
X124532795Y-87790256D01*
X124646063Y-87959774D01*
X124790226Y-88103937D01*
X124959744Y-88217205D01*
X125148102Y-88295226D01*
X125348061Y-88335000D01*
X125551939Y-88335000D01*
X125751898Y-88295226D01*
X125940256Y-88217205D01*
X126109774Y-88103937D01*
X126253937Y-87959774D01*
X126367205Y-87790256D01*
X126434828Y-87627000D01*
X126535882Y-87627000D01*
X126582795Y-87740256D01*
X126696063Y-87909774D01*
X126840226Y-88053937D01*
X127009744Y-88167205D01*
X127198102Y-88245226D01*
X127398061Y-88285000D01*
X127601939Y-88285000D01*
X127801898Y-88245226D01*
X127990256Y-88167205D01*
X128159774Y-88053937D01*
X128303937Y-87909774D01*
X128417205Y-87740256D01*
X128464118Y-87627000D01*
X128535882Y-87627000D01*
X128582795Y-87740256D01*
X128696063Y-87909774D01*
X128840226Y-88053937D01*
X129009744Y-88167205D01*
X129198102Y-88245226D01*
X129398061Y-88285000D01*
X129601939Y-88285000D01*
X129801898Y-88245226D01*
X129990256Y-88167205D01*
X130159774Y-88053937D01*
X130303937Y-87909774D01*
X130417205Y-87740256D01*
X130464118Y-87627000D01*
X131250000Y-87627000D01*
X131261069Y-87626517D01*
X131478129Y-87607527D01*
X131499930Y-87603683D01*
X131710395Y-87547289D01*
X131731197Y-87539717D01*
X131928672Y-87447633D01*
X131947844Y-87436564D01*
X132000063Y-87400000D01*
X138011928Y-87400000D01*
X138011928Y-89100000D01*
X138024188Y-89224482D01*
X138060498Y-89344180D01*
X138119463Y-89454494D01*
X138198815Y-89551185D01*
X138295506Y-89630537D01*
X138405820Y-89689502D01*
X138478380Y-89711513D01*
X138346525Y-89843368D01*
X138184010Y-90086589D01*
X138072068Y-90356842D01*
X138015000Y-90643740D01*
X138015000Y-90936260D01*
X138072068Y-91223158D01*
X138184010Y-91493411D01*
X138346525Y-91736632D01*
X138553368Y-91943475D01*
X138796589Y-92105990D01*
X139066842Y-92217932D01*
X139353740Y-92275000D01*
X139646260Y-92275000D01*
X139933158Y-92217932D01*
X140203411Y-92105990D01*
X140446632Y-91943475D01*
X140653475Y-91736632D01*
X140815990Y-91493411D01*
X140855485Y-91398061D01*
X140965000Y-91398061D01*
X140965000Y-91601939D01*
X141004774Y-91801898D01*
X141082795Y-91990256D01*
X141196063Y-92159774D01*
X141340226Y-92303937D01*
X141509744Y-92417205D01*
X141698102Y-92495226D01*
X141898061Y-92535000D01*
X142101939Y-92535000D01*
X142301898Y-92495226D01*
X142490256Y-92417205D01*
X142659774Y-92303937D01*
X142803937Y-92159774D01*
X142917205Y-91990256D01*
X142995226Y-91801898D01*
X143035000Y-91601939D01*
X143035000Y-91398061D01*
X142995226Y-91198102D01*
X142917205Y-91009744D01*
X142803937Y-90840226D01*
X142748711Y-90785000D01*
X142873937Y-90659774D01*
X142987205Y-90490256D01*
X143065226Y-90301898D01*
X143105000Y-90101939D01*
X143105000Y-89898061D01*
X143065226Y-89698102D01*
X143009572Y-89563740D01*
X146855000Y-89563740D01*
X146855000Y-89856260D01*
X146912068Y-90143158D01*
X147024010Y-90413411D01*
X147186525Y-90656632D01*
X147393368Y-90863475D01*
X147567760Y-90980000D01*
X147393368Y-91096525D01*
X147186525Y-91303368D01*
X147024010Y-91546589D01*
X146912068Y-91816842D01*
X146855000Y-92103740D01*
X146855000Y-92396260D01*
X146912068Y-92683158D01*
X147024010Y-92953411D01*
X147186525Y-93196632D01*
X147393368Y-93403475D01*
X147636589Y-93565990D01*
X147906842Y-93677932D01*
X148193740Y-93735000D01*
X148486260Y-93735000D01*
X148773158Y-93677932D01*
X149043411Y-93565990D01*
X149286632Y-93403475D01*
X149493475Y-93196632D01*
X149610000Y-93022240D01*
X149726525Y-93196632D01*
X149933368Y-93403475D01*
X150176589Y-93565990D01*
X150446842Y-93677932D01*
X150733740Y-93735000D01*
X151026260Y-93735000D01*
X151313158Y-93677932D01*
X151583411Y-93565990D01*
X151826632Y-93403475D01*
X152033475Y-93196632D01*
X152150000Y-93022240D01*
X152266525Y-93196632D01*
X152473368Y-93403475D01*
X152716589Y-93565990D01*
X152986842Y-93677932D01*
X153273740Y-93735000D01*
X153566260Y-93735000D01*
X153853158Y-93677932D01*
X154123411Y-93565990D01*
X154366632Y-93403475D01*
X154573475Y-93196632D01*
X154690000Y-93022240D01*
X154806525Y-93196632D01*
X155013368Y-93403475D01*
X155256589Y-93565990D01*
X155526842Y-93677932D01*
X155813740Y-93735000D01*
X156106260Y-93735000D01*
X156393158Y-93677932D01*
X156663411Y-93565990D01*
X156906632Y-93403475D01*
X157038487Y-93271620D01*
X157060498Y-93344180D01*
X157119463Y-93454494D01*
X157198815Y-93551185D01*
X157295506Y-93630537D01*
X157405820Y-93689502D01*
X157525518Y-93725812D01*
X157650000Y-93738072D01*
X158214250Y-93735000D01*
X158373000Y-93576250D01*
X158373000Y-92377000D01*
X158627000Y-92377000D01*
X158627000Y-93576250D01*
X158785750Y-93735000D01*
X159350000Y-93738072D01*
X159474482Y-93725812D01*
X159594180Y-93689502D01*
X159704494Y-93630537D01*
X159801185Y-93551185D01*
X159880537Y-93454494D01*
X159939502Y-93344180D01*
X159975812Y-93224482D01*
X159988072Y-93100000D01*
X159985000Y-92535750D01*
X159826250Y-92377000D01*
X158627000Y-92377000D01*
X158373000Y-92377000D01*
X158353000Y-92377000D01*
X158353000Y-92123000D01*
X158373000Y-92123000D01*
X158373000Y-92103000D01*
X158627000Y-92103000D01*
X158627000Y-92123000D01*
X159826250Y-92123000D01*
X159985000Y-91964250D01*
X159988072Y-91400000D01*
X159975812Y-91275518D01*
X159939502Y-91155820D01*
X159880537Y-91045506D01*
X159801185Y-90948815D01*
X159704494Y-90869463D01*
X159594180Y-90810498D01*
X159521620Y-90788487D01*
X159653475Y-90656632D01*
X159691315Y-90600000D01*
X162511928Y-90600000D01*
X162524188Y-90724482D01*
X162560498Y-90844180D01*
X162619463Y-90954494D01*
X162698815Y-91051185D01*
X162795506Y-91130537D01*
X162905820Y-91189502D01*
X162978380Y-91211513D01*
X162846525Y-91343368D01*
X162684010Y-91586589D01*
X162572068Y-91856842D01*
X162515000Y-92143740D01*
X162515000Y-92436260D01*
X162572068Y-92723158D01*
X162684010Y-92993411D01*
X162846525Y-93236632D01*
X163053368Y-93443475D01*
X163296589Y-93605990D01*
X163566842Y-93717932D01*
X163853740Y-93775000D01*
X164146260Y-93775000D01*
X164433158Y-93717932D01*
X164703411Y-93605990D01*
X164946632Y-93443475D01*
X165153475Y-93236632D01*
X165315990Y-92993411D01*
X165427932Y-92723158D01*
X165485000Y-92436260D01*
X165485000Y-92143740D01*
X165427932Y-91856842D01*
X165315990Y-91586589D01*
X165153475Y-91343368D01*
X165021620Y-91211513D01*
X165094180Y-91189502D01*
X165204494Y-91130537D01*
X165301185Y-91051185D01*
X165380537Y-90954494D01*
X165439502Y-90844180D01*
X165475812Y-90724482D01*
X165488072Y-90600000D01*
X165485000Y-90035750D01*
X165326250Y-89877000D01*
X164127000Y-89877000D01*
X164127000Y-89897000D01*
X163873000Y-89897000D01*
X163873000Y-89877000D01*
X162673750Y-89877000D01*
X162515000Y-90035750D01*
X162511928Y-90600000D01*
X159691315Y-90600000D01*
X159815990Y-90413411D01*
X159927932Y-90143158D01*
X159985000Y-89856260D01*
X159985000Y-89563740D01*
X159927932Y-89276842D01*
X159815990Y-89006589D01*
X159744770Y-88900000D01*
X162511928Y-88900000D01*
X162515000Y-89464250D01*
X162673750Y-89623000D01*
X163873000Y-89623000D01*
X163873000Y-88423750D01*
X164127000Y-88423750D01*
X164127000Y-89623000D01*
X165326250Y-89623000D01*
X165485000Y-89464250D01*
X165488072Y-88900000D01*
X165475812Y-88775518D01*
X165439502Y-88655820D01*
X165380537Y-88545506D01*
X165301185Y-88448815D01*
X165204494Y-88369463D01*
X165094180Y-88310498D01*
X164974482Y-88274188D01*
X164850000Y-88261928D01*
X164285750Y-88265000D01*
X164127000Y-88423750D01*
X163873000Y-88423750D01*
X163714250Y-88265000D01*
X163150000Y-88261928D01*
X163025518Y-88274188D01*
X162905820Y-88310498D01*
X162795506Y-88369463D01*
X162698815Y-88448815D01*
X162619463Y-88545506D01*
X162560498Y-88655820D01*
X162524188Y-88775518D01*
X162511928Y-88900000D01*
X159744770Y-88900000D01*
X159653475Y-88763368D01*
X159446632Y-88556525D01*
X159203411Y-88394010D01*
X158933158Y-88282068D01*
X158646260Y-88225000D01*
X158353740Y-88225000D01*
X158066842Y-88282068D01*
X157796589Y-88394010D01*
X157553368Y-88556525D01*
X157346525Y-88763368D01*
X157230000Y-88937760D01*
X157113475Y-88763368D01*
X156906632Y-88556525D01*
X156663411Y-88394010D01*
X156393158Y-88282068D01*
X156106260Y-88225000D01*
X155813740Y-88225000D01*
X155526842Y-88282068D01*
X155256589Y-88394010D01*
X155013368Y-88556525D01*
X154806525Y-88763368D01*
X154690000Y-88937760D01*
X154573475Y-88763368D01*
X154366632Y-88556525D01*
X154123411Y-88394010D01*
X153853158Y-88282068D01*
X153566260Y-88225000D01*
X153273740Y-88225000D01*
X152986842Y-88282068D01*
X152716589Y-88394010D01*
X152473368Y-88556525D01*
X152266525Y-88763368D01*
X152150000Y-88937760D01*
X152033475Y-88763368D01*
X151826632Y-88556525D01*
X151583411Y-88394010D01*
X151313158Y-88282068D01*
X151026260Y-88225000D01*
X150733740Y-88225000D01*
X150446842Y-88282068D01*
X150176589Y-88394010D01*
X149933368Y-88556525D01*
X149726525Y-88763368D01*
X149610000Y-88937760D01*
X149493475Y-88763368D01*
X149286632Y-88556525D01*
X149043411Y-88394010D01*
X148773158Y-88282068D01*
X148486260Y-88225000D01*
X148193740Y-88225000D01*
X147906842Y-88282068D01*
X147636589Y-88394010D01*
X147393368Y-88556525D01*
X147186525Y-88763368D01*
X147024010Y-89006589D01*
X146912068Y-89276842D01*
X146855000Y-89563740D01*
X143009572Y-89563740D01*
X142987205Y-89509744D01*
X142873937Y-89340226D01*
X142729774Y-89196063D01*
X142560256Y-89082795D01*
X142371898Y-89004774D01*
X142363897Y-89003183D01*
X142403898Y-88995226D01*
X142592256Y-88917205D01*
X142761774Y-88803937D01*
X142905937Y-88659774D01*
X143019205Y-88490256D01*
X143097226Y-88301898D01*
X143137000Y-88101939D01*
X143137000Y-87898061D01*
X143097226Y-87698102D01*
X143019205Y-87509744D01*
X142905937Y-87340226D01*
X142761774Y-87196063D01*
X142592256Y-87082795D01*
X142403898Y-87004774D01*
X142203939Y-86965000D01*
X142000061Y-86965000D01*
X141800102Y-87004774D01*
X141611744Y-87082795D01*
X141442226Y-87196063D01*
X141298063Y-87340226D01*
X141184795Y-87509744D01*
X141106774Y-87698102D01*
X141067000Y-87898061D01*
X141067000Y-88101939D01*
X141106774Y-88301898D01*
X141184795Y-88490256D01*
X141298063Y-88659774D01*
X141442226Y-88803937D01*
X141611744Y-88917205D01*
X141800102Y-88995226D01*
X141808103Y-88996817D01*
X141768102Y-89004774D01*
X141579744Y-89082795D01*
X141410226Y-89196063D01*
X141266063Y-89340226D01*
X141152795Y-89509744D01*
X141074774Y-89698102D01*
X141035000Y-89898061D01*
X141035000Y-90101939D01*
X141074774Y-90301898D01*
X141152795Y-90490256D01*
X141266063Y-90659774D01*
X141321289Y-90715000D01*
X141196063Y-90840226D01*
X141082795Y-91009744D01*
X141004774Y-91198102D01*
X140965000Y-91398061D01*
X140855485Y-91398061D01*
X140927932Y-91223158D01*
X140985000Y-90936260D01*
X140985000Y-90643740D01*
X140927932Y-90356842D01*
X140815990Y-90086589D01*
X140653475Y-89843368D01*
X140521620Y-89711513D01*
X140594180Y-89689502D01*
X140704494Y-89630537D01*
X140801185Y-89551185D01*
X140880537Y-89454494D01*
X140939502Y-89344180D01*
X140975812Y-89224482D01*
X140988072Y-89100000D01*
X140988072Y-87400000D01*
X140975812Y-87275518D01*
X140939502Y-87155820D01*
X140880537Y-87045506D01*
X140801185Y-86948815D01*
X140704494Y-86869463D01*
X140594180Y-86810498D01*
X140474482Y-86774188D01*
X140350000Y-86761928D01*
X138650000Y-86761928D01*
X138525518Y-86774188D01*
X138405820Y-86810498D01*
X138295506Y-86869463D01*
X138198815Y-86948815D01*
X138119463Y-87045506D01*
X138060498Y-87155820D01*
X138024188Y-87275518D01*
X138011928Y-87400000D01*
X132000063Y-87400000D01*
X132126329Y-87311588D01*
X132143288Y-87297359D01*
X132297359Y-87143288D01*
X132311588Y-87126329D01*
X132436564Y-86947844D01*
X132447633Y-86928672D01*
X132539717Y-86731197D01*
X132547289Y-86710395D01*
X132603683Y-86499930D01*
X132607527Y-86478129D01*
X132626517Y-86261069D01*
X132627000Y-86250000D01*
X132627000Y-86004061D01*
X146285000Y-86004061D01*
X146285000Y-86207939D01*
X146324774Y-86407898D01*
X146402795Y-86596256D01*
X146516063Y-86765774D01*
X146660226Y-86909937D01*
X146829744Y-87023205D01*
X147018102Y-87101226D01*
X147218061Y-87141000D01*
X147421939Y-87141000D01*
X147621898Y-87101226D01*
X147810256Y-87023205D01*
X147979774Y-86909937D01*
X148123937Y-86765774D01*
X148237205Y-86596256D01*
X148315226Y-86407898D01*
X148339672Y-86285000D01*
X148351939Y-86285000D01*
X148551898Y-86245226D01*
X148740256Y-86167205D01*
X148909774Y-86053937D01*
X149053937Y-85909774D01*
X149167205Y-85740256D01*
X149245226Y-85551898D01*
X149285000Y-85351939D01*
X149285000Y-85148061D01*
X149245226Y-84948102D01*
X149167205Y-84759744D01*
X149053937Y-84590226D01*
X148909774Y-84446063D01*
X148740256Y-84332795D01*
X148551898Y-84254774D01*
X148351939Y-84215000D01*
X148148061Y-84215000D01*
X147948102Y-84254774D01*
X147759744Y-84332795D01*
X147590226Y-84446063D01*
X147446063Y-84590226D01*
X147332795Y-84759744D01*
X147254774Y-84948102D01*
X147230328Y-85071000D01*
X147218061Y-85071000D01*
X147018102Y-85110774D01*
X146829744Y-85188795D01*
X146660226Y-85302063D01*
X146516063Y-85446226D01*
X146402795Y-85615744D01*
X146324774Y-85804102D01*
X146285000Y-86004061D01*
X132627000Y-86004061D01*
X132627000Y-81218061D01*
X135905000Y-81218061D01*
X135905000Y-81421939D01*
X135944774Y-81621898D01*
X136022795Y-81810256D01*
X136136063Y-81979774D01*
X136280226Y-82123937D01*
X136449744Y-82237205D01*
X136623386Y-82309130D01*
X136542795Y-82429744D01*
X136464774Y-82618102D01*
X136425000Y-82818061D01*
X136425000Y-83021939D01*
X136464774Y-83221898D01*
X136542795Y-83410256D01*
X136656063Y-83579774D01*
X136800226Y-83723937D01*
X136969744Y-83837205D01*
X137158102Y-83915226D01*
X137358061Y-83955000D01*
X137561939Y-83955000D01*
X137761898Y-83915226D01*
X137950256Y-83837205D01*
X138119774Y-83723937D01*
X138195650Y-83648061D01*
X153015000Y-83648061D01*
X153015000Y-83851939D01*
X153054774Y-84051898D01*
X153132795Y-84240256D01*
X153246063Y-84409774D01*
X153390226Y-84553937D01*
X153559744Y-84667205D01*
X153748102Y-84745226D01*
X153948061Y-84785000D01*
X154151939Y-84785000D01*
X154351898Y-84745226D01*
X154540256Y-84667205D01*
X154709774Y-84553937D01*
X154853937Y-84409774D01*
X154967205Y-84240256D01*
X155045226Y-84051898D01*
X155085000Y-83851939D01*
X155085000Y-83648061D01*
X155045226Y-83448102D01*
X154967205Y-83259744D01*
X154853937Y-83090226D01*
X154709774Y-82946063D01*
X154540256Y-82832795D01*
X154351898Y-82754774D01*
X154151939Y-82715000D01*
X153948061Y-82715000D01*
X153748102Y-82754774D01*
X153559744Y-82832795D01*
X153390226Y-82946063D01*
X153246063Y-83090226D01*
X153132795Y-83259744D01*
X153054774Y-83448102D01*
X153015000Y-83648061D01*
X138195650Y-83648061D01*
X138263937Y-83579774D01*
X138377205Y-83410256D01*
X138455226Y-83221898D01*
X138495000Y-83021939D01*
X138495000Y-82818061D01*
X138455226Y-82618102D01*
X138377205Y-82429744D01*
X138263937Y-82260226D01*
X138119774Y-82116063D01*
X137950256Y-82002795D01*
X137776614Y-81930870D01*
X137857205Y-81810256D01*
X137935226Y-81621898D01*
X137975000Y-81421939D01*
X137975000Y-81218061D01*
X137935226Y-81018102D01*
X137857205Y-80829744D01*
X137743937Y-80660226D01*
X137599774Y-80516063D01*
X137430256Y-80402795D01*
X137241898Y-80324774D01*
X137041939Y-80285000D01*
X136838061Y-80285000D01*
X136638102Y-80324774D01*
X136449744Y-80402795D01*
X136280226Y-80516063D01*
X136136063Y-80660226D01*
X136022795Y-80829744D01*
X135944774Y-81018102D01*
X135905000Y-81218061D01*
X132627000Y-81218061D01*
X132627000Y-78398061D01*
X133465000Y-78398061D01*
X133465000Y-78601939D01*
X133504774Y-78801898D01*
X133582795Y-78990256D01*
X133696063Y-79159774D01*
X133840226Y-79303937D01*
X134009744Y-79417205D01*
X134198102Y-79495226D01*
X134398061Y-79535000D01*
X134601939Y-79535000D01*
X134801898Y-79495226D01*
X134990256Y-79417205D01*
X135159774Y-79303937D01*
X135303937Y-79159774D01*
X135417205Y-78990256D01*
X135495226Y-78801898D01*
X135535000Y-78601939D01*
X135535000Y-78508521D01*
X140897660Y-78508521D01*
X140897660Y-78712399D01*
X140937434Y-78912358D01*
X141015455Y-79100716D01*
X141128723Y-79270234D01*
X141272886Y-79414397D01*
X141442404Y-79527665D01*
X141630762Y-79605686D01*
X141830721Y-79645460D01*
X142034599Y-79645460D01*
X142234558Y-79605686D01*
X142422916Y-79527665D01*
X142592434Y-79414397D01*
X142736597Y-79270234D01*
X142849865Y-79100716D01*
X142927886Y-78912358D01*
X142950620Y-78798061D01*
X153115000Y-78798061D01*
X153115000Y-79001939D01*
X153154774Y-79201898D01*
X153232795Y-79390256D01*
X153346063Y-79559774D01*
X153490226Y-79703937D01*
X153659744Y-79817205D01*
X153848102Y-79895226D01*
X154048061Y-79935000D01*
X154251939Y-79935000D01*
X154451898Y-79895226D01*
X154640256Y-79817205D01*
X154809774Y-79703937D01*
X154953937Y-79559774D01*
X155061989Y-79398061D01*
X157615000Y-79398061D01*
X157615000Y-79601939D01*
X157654774Y-79801898D01*
X157732795Y-79990256D01*
X157846063Y-80159774D01*
X157990226Y-80303937D01*
X158159744Y-80417205D01*
X158348102Y-80495226D01*
X158548061Y-80535000D01*
X158751939Y-80535000D01*
X158951898Y-80495226D01*
X159140256Y-80417205D01*
X159309774Y-80303937D01*
X159453937Y-80159774D01*
X159567205Y-79990256D01*
X159645226Y-79801898D01*
X159685000Y-79601939D01*
X159685000Y-79398061D01*
X159645226Y-79198102D01*
X159567205Y-79009744D01*
X159453937Y-78840226D01*
X159309774Y-78696063D01*
X159140256Y-78582795D01*
X158951898Y-78504774D01*
X158751939Y-78465000D01*
X158548061Y-78465000D01*
X158348102Y-78504774D01*
X158159744Y-78582795D01*
X157990226Y-78696063D01*
X157846063Y-78840226D01*
X157732795Y-79009744D01*
X157654774Y-79198102D01*
X157615000Y-79398061D01*
X155061989Y-79398061D01*
X155067205Y-79390256D01*
X155145226Y-79201898D01*
X155185000Y-79001939D01*
X155185000Y-78798061D01*
X155145226Y-78598102D01*
X155067205Y-78409744D01*
X154953937Y-78240226D01*
X154809774Y-78096063D01*
X154640256Y-77982795D01*
X154451898Y-77904774D01*
X154251939Y-77865000D01*
X154048061Y-77865000D01*
X153848102Y-77904774D01*
X153659744Y-77982795D01*
X153490226Y-78096063D01*
X153346063Y-78240226D01*
X153232795Y-78409744D01*
X153154774Y-78598102D01*
X153115000Y-78798061D01*
X142950620Y-78798061D01*
X142967660Y-78712399D01*
X142967660Y-78508521D01*
X142927886Y-78308562D01*
X142849865Y-78120204D01*
X142736597Y-77950686D01*
X142592434Y-77806523D01*
X142422916Y-77693255D01*
X142234558Y-77615234D01*
X142034599Y-77575460D01*
X141830721Y-77575460D01*
X141630762Y-77615234D01*
X141442404Y-77693255D01*
X141272886Y-77806523D01*
X141128723Y-77950686D01*
X141015455Y-78120204D01*
X140937434Y-78308562D01*
X140897660Y-78508521D01*
X135535000Y-78508521D01*
X135535000Y-78398061D01*
X135495226Y-78198102D01*
X135417205Y-78009744D01*
X135303937Y-77840226D01*
X135159774Y-77696063D01*
X134990256Y-77582795D01*
X134801898Y-77504774D01*
X134601939Y-77465000D01*
X134398061Y-77465000D01*
X134198102Y-77504774D01*
X134009744Y-77582795D01*
X133840226Y-77696063D01*
X133696063Y-77840226D01*
X133582795Y-78009744D01*
X133504774Y-78198102D01*
X133465000Y-78398061D01*
X132627000Y-78398061D01*
X132627000Y-74148061D01*
X136465000Y-74148061D01*
X136465000Y-74351939D01*
X136504774Y-74551898D01*
X136582795Y-74740256D01*
X136696063Y-74909774D01*
X136840226Y-75053937D01*
X137009744Y-75167205D01*
X137198102Y-75245226D01*
X137398061Y-75285000D01*
X137601939Y-75285000D01*
X137801898Y-75245226D01*
X137990256Y-75167205D01*
X138159774Y-75053937D01*
X138303937Y-74909774D01*
X138417205Y-74740256D01*
X138495226Y-74551898D01*
X138535000Y-74351939D01*
X138535000Y-74148061D01*
X138495226Y-73948102D01*
X138417205Y-73759744D01*
X138303937Y-73590226D01*
X138159774Y-73446063D01*
X137990256Y-73332795D01*
X137801898Y-73254774D01*
X137601939Y-73215000D01*
X137398061Y-73215000D01*
X137198102Y-73254774D01*
X137009744Y-73332795D01*
X136840226Y-73446063D01*
X136696063Y-73590226D01*
X136582795Y-73759744D01*
X136504774Y-73948102D01*
X136465000Y-74148061D01*
X132627000Y-74148061D01*
X132627000Y-73750000D01*
X132626517Y-73738931D01*
X132607527Y-73521871D01*
X132603683Y-73500070D01*
X132547289Y-73289605D01*
X132539717Y-73268803D01*
X132447633Y-73071328D01*
X132436564Y-73052156D01*
X132311588Y-72873671D01*
X132297359Y-72856712D01*
X132143288Y-72702641D01*
X132126329Y-72688412D01*
X131947844Y-72563436D01*
X131928672Y-72552367D01*
X131888287Y-72533535D01*
X131917205Y-72490256D01*
X131995226Y-72301898D01*
X132025825Y-72148061D01*
X132965000Y-72148061D01*
X132965000Y-72351939D01*
X133004774Y-72551898D01*
X133082795Y-72740256D01*
X133196063Y-72909774D01*
X133340226Y-73053937D01*
X133509744Y-73167205D01*
X133698102Y-73245226D01*
X133898061Y-73285000D01*
X134101939Y-73285000D01*
X134301898Y-73245226D01*
X134490256Y-73167205D01*
X134659774Y-73053937D01*
X134803937Y-72909774D01*
X134917205Y-72740256D01*
X134995226Y-72551898D01*
X135035000Y-72351939D01*
X135035000Y-72148061D01*
X134995226Y-71948102D01*
X134917205Y-71759744D01*
X134803937Y-71590226D01*
X134659774Y-71446063D01*
X134490256Y-71332795D01*
X134301898Y-71254774D01*
X134101939Y-71215000D01*
X133898061Y-71215000D01*
X133698102Y-71254774D01*
X133509744Y-71332795D01*
X133340226Y-71446063D01*
X133196063Y-71590226D01*
X133082795Y-71759744D01*
X133004774Y-71948102D01*
X132965000Y-72148061D01*
X132025825Y-72148061D01*
X132035000Y-72101939D01*
X132035000Y-71898061D01*
X131995226Y-71698102D01*
X131917205Y-71509744D01*
X131803937Y-71340226D01*
X131659774Y-71196063D01*
X131490256Y-71082795D01*
X131301898Y-71004774D01*
X131101939Y-70965000D01*
X130898061Y-70965000D01*
X130698102Y-71004774D01*
X130509744Y-71082795D01*
X130340226Y-71196063D01*
X130196063Y-71340226D01*
X130082795Y-71509744D01*
X130004774Y-71698102D01*
X129965000Y-71898061D01*
X129965000Y-72101939D01*
X130004774Y-72301898D01*
X130034226Y-72373000D01*
X127965774Y-72373000D01*
X127995226Y-72301898D01*
X128035000Y-72101939D01*
X128035000Y-71898061D01*
X127995226Y-71698102D01*
X127917205Y-71509744D01*
X127803937Y-71340226D01*
X127659774Y-71196063D01*
X127490256Y-71082795D01*
X127301898Y-71004774D01*
X127101939Y-70965000D01*
X126898061Y-70965000D01*
X126698102Y-71004774D01*
X126509744Y-71082795D01*
X126340226Y-71196063D01*
X126196063Y-71340226D01*
X126082795Y-71509744D01*
X126004774Y-71698102D01*
X125965000Y-71898061D01*
X125965000Y-72101939D01*
X126004774Y-72301898D01*
X126034226Y-72373000D01*
X124215774Y-72373000D01*
X124245226Y-72301898D01*
X124285000Y-72101939D01*
X124285000Y-71898061D01*
X124245226Y-71698102D01*
X124167205Y-71509744D01*
X124053937Y-71340226D01*
X123909774Y-71196063D01*
X123740256Y-71082795D01*
X123551898Y-71004774D01*
X123351939Y-70965000D01*
X123148061Y-70965000D01*
X122948102Y-71004774D01*
X122759744Y-71082795D01*
X122590226Y-71196063D01*
X122446063Y-71340226D01*
X122332795Y-71509744D01*
X122254774Y-71698102D01*
X122215000Y-71898061D01*
X122215000Y-72101939D01*
X122254774Y-72301898D01*
X122284226Y-72373000D01*
X121255548Y-72373000D01*
X121055078Y-72355461D01*
X120866074Y-72304818D01*
X120688742Y-72222127D01*
X120528465Y-72109900D01*
X120390100Y-71971535D01*
X120277873Y-71811258D01*
X120260192Y-71773340D01*
X120245226Y-71698102D01*
X120167205Y-71509744D01*
X120158361Y-71496509D01*
X120144539Y-71444922D01*
X120127000Y-71244452D01*
X120127000Y-68300427D01*
X120167205Y-68240256D01*
X120245226Y-68051898D01*
X120285000Y-67851939D01*
X120285000Y-67850000D01*
X121011928Y-67850000D01*
X121024188Y-67974482D01*
X121060498Y-68094180D01*
X121119463Y-68204494D01*
X121198815Y-68301185D01*
X121295506Y-68380537D01*
X121405820Y-68439502D01*
X121478380Y-68461513D01*
X121346525Y-68593368D01*
X121184010Y-68836589D01*
X121072068Y-69106842D01*
X121015000Y-69393740D01*
X121015000Y-69686260D01*
X121072068Y-69973158D01*
X121184010Y-70243411D01*
X121346525Y-70486632D01*
X121553368Y-70693475D01*
X121796589Y-70855990D01*
X122066842Y-70967932D01*
X122353740Y-71025000D01*
X122646260Y-71025000D01*
X122933158Y-70967932D01*
X123203411Y-70855990D01*
X123446632Y-70693475D01*
X123653475Y-70486632D01*
X123770000Y-70312240D01*
X123886525Y-70486632D01*
X124093368Y-70693475D01*
X124336589Y-70855990D01*
X124606842Y-70967932D01*
X124893740Y-71025000D01*
X125186260Y-71025000D01*
X125473158Y-70967932D01*
X125743411Y-70855990D01*
X125986632Y-70693475D01*
X126193475Y-70486632D01*
X126310000Y-70312240D01*
X126426525Y-70486632D01*
X126633368Y-70693475D01*
X126876589Y-70855990D01*
X127146842Y-70967932D01*
X127433740Y-71025000D01*
X127726260Y-71025000D01*
X128013158Y-70967932D01*
X128283411Y-70855990D01*
X128526632Y-70693475D01*
X128733475Y-70486632D01*
X128850000Y-70312240D01*
X128966525Y-70486632D01*
X129173368Y-70693475D01*
X129416589Y-70855990D01*
X129686842Y-70967932D01*
X129973740Y-71025000D01*
X130266260Y-71025000D01*
X130553158Y-70967932D01*
X130823411Y-70855990D01*
X131066632Y-70693475D01*
X131273475Y-70486632D01*
X131390000Y-70312240D01*
X131506525Y-70486632D01*
X131713368Y-70693475D01*
X131956589Y-70855990D01*
X132226842Y-70967932D01*
X132513740Y-71025000D01*
X132806260Y-71025000D01*
X133093158Y-70967932D01*
X133363411Y-70855990D01*
X133606632Y-70693475D01*
X133813475Y-70486632D01*
X133975990Y-70243411D01*
X134087932Y-69973158D01*
X134145000Y-69686260D01*
X134145000Y-69393740D01*
X134087932Y-69106842D01*
X133975990Y-68836589D01*
X133813475Y-68593368D01*
X133606632Y-68386525D01*
X133432240Y-68270000D01*
X133606632Y-68153475D01*
X133813475Y-67946632D01*
X133975990Y-67703411D01*
X134087932Y-67433158D01*
X134145000Y-67146260D01*
X134145000Y-66853740D01*
X134087932Y-66566842D01*
X133975990Y-66296589D01*
X133813475Y-66053368D01*
X133606632Y-65846525D01*
X133363411Y-65684010D01*
X133276623Y-65648061D01*
X133965000Y-65648061D01*
X133965000Y-65851939D01*
X134004774Y-66051898D01*
X134082795Y-66240256D01*
X134196063Y-66409774D01*
X134340226Y-66553937D01*
X134509744Y-66667205D01*
X134698102Y-66745226D01*
X134898061Y-66785000D01*
X135101939Y-66785000D01*
X135301898Y-66745226D01*
X135490256Y-66667205D01*
X135659774Y-66553937D01*
X135803937Y-66409774D01*
X135917205Y-66240256D01*
X135995226Y-66051898D01*
X136035000Y-65851939D01*
X136035000Y-65650000D01*
X137511928Y-65650000D01*
X137511928Y-67350000D01*
X137524188Y-67474482D01*
X137560498Y-67594180D01*
X137619463Y-67704494D01*
X137698815Y-67801185D01*
X137795506Y-67880537D01*
X137905820Y-67939502D01*
X137978380Y-67961513D01*
X137846525Y-68093368D01*
X137684010Y-68336589D01*
X137572068Y-68606842D01*
X137515000Y-68893740D01*
X137515000Y-69186260D01*
X137572068Y-69473158D01*
X137684010Y-69743411D01*
X137846525Y-69986632D01*
X138053368Y-70193475D01*
X138227760Y-70310000D01*
X138053368Y-70426525D01*
X137846525Y-70633368D01*
X137684010Y-70876589D01*
X137572068Y-71146842D01*
X137515000Y-71433740D01*
X137515000Y-71726260D01*
X137572068Y-72013158D01*
X137684010Y-72283411D01*
X137846525Y-72526632D01*
X138053368Y-72733475D01*
X138296589Y-72895990D01*
X138566842Y-73007932D01*
X138853740Y-73065000D01*
X139146260Y-73065000D01*
X139433158Y-73007932D01*
X139703411Y-72895990D01*
X139946632Y-72733475D01*
X140153475Y-72526632D01*
X140315990Y-72283411D01*
X140427932Y-72013158D01*
X140485000Y-71726260D01*
X140485000Y-71433740D01*
X140427932Y-71146842D01*
X140315990Y-70876589D01*
X140153475Y-70633368D01*
X139946632Y-70426525D01*
X139772240Y-70310000D01*
X139946632Y-70193475D01*
X140153475Y-69986632D01*
X140315990Y-69743411D01*
X140427932Y-69473158D01*
X140485000Y-69186260D01*
X140485000Y-68893740D01*
X140427932Y-68606842D01*
X140315990Y-68336589D01*
X140153475Y-68093368D01*
X140021620Y-67961513D01*
X140094180Y-67939502D01*
X140204494Y-67880537D01*
X140301185Y-67801185D01*
X140380537Y-67704494D01*
X140439502Y-67594180D01*
X140475812Y-67474482D01*
X140488072Y-67350000D01*
X140488072Y-65650000D01*
X141511928Y-65650000D01*
X141511928Y-67350000D01*
X141524188Y-67474482D01*
X141560498Y-67594180D01*
X141619463Y-67704494D01*
X141698815Y-67801185D01*
X141795506Y-67880537D01*
X141905820Y-67939502D01*
X141978380Y-67961513D01*
X141846525Y-68093368D01*
X141684010Y-68336589D01*
X141572068Y-68606842D01*
X141515000Y-68893740D01*
X141515000Y-69186260D01*
X141572068Y-69473158D01*
X141684010Y-69743411D01*
X141846525Y-69986632D01*
X142053368Y-70193475D01*
X142227760Y-70310000D01*
X142053368Y-70426525D01*
X141846525Y-70633368D01*
X141684010Y-70876589D01*
X141572068Y-71146842D01*
X141515000Y-71433740D01*
X141515000Y-71726260D01*
X141572068Y-72013158D01*
X141684010Y-72283411D01*
X141846525Y-72526632D01*
X142053368Y-72733475D01*
X142296589Y-72895990D01*
X142566842Y-73007932D01*
X142853740Y-73065000D01*
X143146260Y-73065000D01*
X143433158Y-73007932D01*
X143680640Y-72905422D01*
X143631274Y-73024602D01*
X143591500Y-73224561D01*
X143591500Y-73428439D01*
X143631274Y-73628398D01*
X143709295Y-73816756D01*
X143822563Y-73986274D01*
X143966726Y-74130437D01*
X144136244Y-74243705D01*
X144324602Y-74321726D01*
X144524561Y-74361500D01*
X144728439Y-74361500D01*
X144928398Y-74321726D01*
X145116756Y-74243705D01*
X145286274Y-74130437D01*
X145430437Y-73986274D01*
X145543705Y-73816756D01*
X145621726Y-73628398D01*
X145661500Y-73428439D01*
X145661500Y-73224561D01*
X145621726Y-73024602D01*
X145543705Y-72836244D01*
X145430437Y-72666726D01*
X145286274Y-72522563D01*
X145258332Y-72503893D01*
X145301897Y-72495227D01*
X145490255Y-72417206D01*
X145659773Y-72303938D01*
X145682923Y-72280788D01*
X145684010Y-72283411D01*
X145846525Y-72526632D01*
X146053368Y-72733475D01*
X146296589Y-72895990D01*
X146566842Y-73007932D01*
X146853740Y-73065000D01*
X147146260Y-73065000D01*
X147433158Y-73007932D01*
X147703411Y-72895990D01*
X147946632Y-72733475D01*
X148153475Y-72526632D01*
X148315990Y-72283411D01*
X148427932Y-72013158D01*
X148485000Y-71726260D01*
X148485000Y-71433740D01*
X148477414Y-71395603D01*
X148509744Y-71417205D01*
X148698102Y-71495226D01*
X148898061Y-71535000D01*
X149101939Y-71535000D01*
X149301898Y-71495226D01*
X149490256Y-71417205D01*
X149659774Y-71303937D01*
X149803937Y-71159774D01*
X149917205Y-70990256D01*
X149995226Y-70801898D01*
X150035000Y-70601939D01*
X150035000Y-70398061D01*
X149995226Y-70198102D01*
X149971974Y-70141968D01*
X150009744Y-70167205D01*
X150198102Y-70245226D01*
X150398061Y-70285000D01*
X150601939Y-70285000D01*
X150801898Y-70245226D01*
X150990256Y-70167205D01*
X151159774Y-70053937D01*
X151298682Y-69915029D01*
X151346525Y-69986632D01*
X151553368Y-70193475D01*
X151727760Y-70310000D01*
X151553368Y-70426525D01*
X151346525Y-70633368D01*
X151184010Y-70876589D01*
X151072068Y-71146842D01*
X151015000Y-71433740D01*
X151015000Y-71726260D01*
X151072068Y-72013158D01*
X151184010Y-72283411D01*
X151346525Y-72526632D01*
X151553368Y-72733475D01*
X151796589Y-72895990D01*
X152066842Y-73007932D01*
X152353740Y-73065000D01*
X152646260Y-73065000D01*
X152933158Y-73007932D01*
X153203411Y-72895990D01*
X153446632Y-72733475D01*
X153653475Y-72526632D01*
X153727663Y-72415602D01*
X153754774Y-72551898D01*
X153832795Y-72740256D01*
X153946063Y-72909774D01*
X154090226Y-73053937D01*
X154259744Y-73167205D01*
X154448102Y-73245226D01*
X154648061Y-73285000D01*
X154851939Y-73285000D01*
X155051898Y-73245226D01*
X155240256Y-73167205D01*
X155409774Y-73053937D01*
X155553937Y-72909774D01*
X155667205Y-72740256D01*
X155745226Y-72551898D01*
X155785000Y-72351939D01*
X155785000Y-72148061D01*
X156965000Y-72148061D01*
X156965000Y-72351939D01*
X157004774Y-72551898D01*
X157082795Y-72740256D01*
X157196063Y-72909774D01*
X157340226Y-73053937D01*
X157509744Y-73167205D01*
X157698102Y-73245226D01*
X157898061Y-73285000D01*
X158101939Y-73285000D01*
X158301898Y-73245226D01*
X158490256Y-73167205D01*
X158659774Y-73053937D01*
X158803937Y-72909774D01*
X158917205Y-72740256D01*
X158995226Y-72551898D01*
X159035000Y-72351939D01*
X159035000Y-72148061D01*
X158995226Y-71948102D01*
X158917205Y-71759744D01*
X158803937Y-71590226D01*
X158659774Y-71446063D01*
X158490256Y-71332795D01*
X158301898Y-71254774D01*
X158101939Y-71215000D01*
X157898061Y-71215000D01*
X157698102Y-71254774D01*
X157509744Y-71332795D01*
X157340226Y-71446063D01*
X157196063Y-71590226D01*
X157082795Y-71759744D01*
X157004774Y-71948102D01*
X156965000Y-72148061D01*
X155785000Y-72148061D01*
X155745226Y-71948102D01*
X155667205Y-71759744D01*
X155553937Y-71590226D01*
X155409774Y-71446063D01*
X155240256Y-71332795D01*
X155051898Y-71254774D01*
X154851939Y-71215000D01*
X154648061Y-71215000D01*
X154448102Y-71254774D01*
X154259744Y-71332795D01*
X154090226Y-71446063D01*
X153985000Y-71551289D01*
X153985000Y-71433740D01*
X153927932Y-71146842D01*
X153824884Y-70898061D01*
X159465000Y-70898061D01*
X159465000Y-71101939D01*
X159504774Y-71301898D01*
X159582795Y-71490256D01*
X159696063Y-71659774D01*
X159840226Y-71803937D01*
X160009744Y-71917205D01*
X160198102Y-71995226D01*
X160398061Y-72035000D01*
X160601939Y-72035000D01*
X160801898Y-71995226D01*
X160990256Y-71917205D01*
X161159774Y-71803937D01*
X161303937Y-71659774D01*
X161417205Y-71490256D01*
X161495226Y-71301898D01*
X161535000Y-71101939D01*
X161535000Y-70898061D01*
X161495226Y-70698102D01*
X161417205Y-70509744D01*
X161303937Y-70340226D01*
X161159774Y-70196063D01*
X160990256Y-70082795D01*
X160801898Y-70004774D01*
X160601939Y-69965000D01*
X160398061Y-69965000D01*
X160198102Y-70004774D01*
X160009744Y-70082795D01*
X159840226Y-70196063D01*
X159696063Y-70340226D01*
X159582795Y-70509744D01*
X159504774Y-70698102D01*
X159465000Y-70898061D01*
X153824884Y-70898061D01*
X153815990Y-70876589D01*
X153653475Y-70633368D01*
X153446632Y-70426525D01*
X153272240Y-70310000D01*
X153446632Y-70193475D01*
X153653475Y-69986632D01*
X153815990Y-69743411D01*
X153927932Y-69473158D01*
X153982934Y-69196645D01*
X154090226Y-69303937D01*
X154259744Y-69417205D01*
X154448102Y-69495226D01*
X154648061Y-69535000D01*
X154851939Y-69535000D01*
X155051898Y-69495226D01*
X155240256Y-69417205D01*
X155409774Y-69303937D01*
X155553937Y-69159774D01*
X155667205Y-68990256D01*
X155745226Y-68801898D01*
X155785000Y-68601939D01*
X155785000Y-68398061D01*
X155745226Y-68198102D01*
X155667205Y-68009744D01*
X155553937Y-67840226D01*
X155409774Y-67696063D01*
X155240256Y-67582795D01*
X155051898Y-67504774D01*
X154851939Y-67465000D01*
X154648061Y-67465000D01*
X154448102Y-67504774D01*
X154259744Y-67582795D01*
X154090226Y-67696063D01*
X153946063Y-67840226D01*
X153832795Y-68009744D01*
X153754774Y-68198102D01*
X153747590Y-68234221D01*
X153653475Y-68093368D01*
X153521620Y-67961513D01*
X153594180Y-67939502D01*
X153704494Y-67880537D01*
X153801185Y-67801185D01*
X153880537Y-67704494D01*
X153939502Y-67594180D01*
X153975812Y-67474482D01*
X153988072Y-67350000D01*
X153985000Y-66785750D01*
X153826250Y-66627000D01*
X152627000Y-66627000D01*
X152627000Y-66647000D01*
X152373000Y-66647000D01*
X152373000Y-66627000D01*
X152353000Y-66627000D01*
X152353000Y-66373000D01*
X152373000Y-66373000D01*
X152373000Y-65173750D01*
X152627000Y-65173750D01*
X152627000Y-66373000D01*
X153826250Y-66373000D01*
X153985000Y-66214250D01*
X153985842Y-66059419D01*
X156315000Y-66059419D01*
X156315000Y-66440581D01*
X156389361Y-66814419D01*
X156535225Y-67166566D01*
X156746987Y-67483491D01*
X157016509Y-67753013D01*
X157333434Y-67964775D01*
X157685581Y-68110639D01*
X158059419Y-68185000D01*
X158440581Y-68185000D01*
X158626285Y-68148061D01*
X159465000Y-68148061D01*
X159465000Y-68351939D01*
X159504774Y-68551898D01*
X159582795Y-68740256D01*
X159696063Y-68909774D01*
X159840226Y-69053937D01*
X160009744Y-69167205D01*
X160198102Y-69245226D01*
X160398061Y-69285000D01*
X160601939Y-69285000D01*
X160801898Y-69245226D01*
X160990256Y-69167205D01*
X161159774Y-69053937D01*
X161303937Y-68909774D01*
X161417205Y-68740256D01*
X161495226Y-68551898D01*
X161535000Y-68351939D01*
X161535000Y-68148061D01*
X161507144Y-68008021D01*
X161595506Y-68080537D01*
X161705820Y-68139502D01*
X161825518Y-68175812D01*
X161950000Y-68188072D01*
X164550000Y-68188072D01*
X164674482Y-68175812D01*
X164794180Y-68139502D01*
X164904494Y-68080537D01*
X165001185Y-68001185D01*
X165080537Y-67904494D01*
X165139502Y-67794180D01*
X165175812Y-67674482D01*
X165188072Y-67550000D01*
X165188072Y-64950000D01*
X165175812Y-64825518D01*
X165139502Y-64705820D01*
X165080537Y-64595506D01*
X165001185Y-64498815D01*
X164904494Y-64419463D01*
X164794180Y-64360498D01*
X164674482Y-64324188D01*
X164550000Y-64311928D01*
X161950000Y-64311928D01*
X161825518Y-64324188D01*
X161723128Y-64355248D01*
X161745226Y-64301898D01*
X161785000Y-64101939D01*
X161785000Y-63898061D01*
X161745226Y-63698102D01*
X161667205Y-63509744D01*
X161553937Y-63340226D01*
X161409774Y-63196063D01*
X161337934Y-63148061D01*
X164965000Y-63148061D01*
X164965000Y-63351939D01*
X165004774Y-63551898D01*
X165082795Y-63740256D01*
X165196063Y-63909774D01*
X165340226Y-64053937D01*
X165509744Y-64167205D01*
X165698102Y-64245226D01*
X165898061Y-64285000D01*
X166101939Y-64285000D01*
X166301898Y-64245226D01*
X166490256Y-64167205D01*
X166659774Y-64053937D01*
X166803937Y-63909774D01*
X166917205Y-63740256D01*
X166995226Y-63551898D01*
X167035000Y-63351939D01*
X167035000Y-63148061D01*
X166995226Y-62948102D01*
X166917205Y-62759744D01*
X166803937Y-62590226D01*
X166659774Y-62446063D01*
X166490256Y-62332795D01*
X166301898Y-62254774D01*
X166101939Y-62215000D01*
X165898061Y-62215000D01*
X165698102Y-62254774D01*
X165509744Y-62332795D01*
X165340226Y-62446063D01*
X165196063Y-62590226D01*
X165082795Y-62759744D01*
X165004774Y-62948102D01*
X164965000Y-63148061D01*
X161337934Y-63148061D01*
X161240256Y-63082795D01*
X161051898Y-63004774D01*
X160851939Y-62965000D01*
X160648061Y-62965000D01*
X160448102Y-63004774D01*
X160259744Y-63082795D01*
X160090226Y-63196063D01*
X159946063Y-63340226D01*
X159832795Y-63509744D01*
X159754774Y-63698102D01*
X159715000Y-63898061D01*
X159715000Y-64101939D01*
X159754774Y-64301898D01*
X159832795Y-64490256D01*
X159946063Y-64659774D01*
X160090226Y-64803937D01*
X160259744Y-64917205D01*
X160448102Y-64995226D01*
X160648061Y-65035000D01*
X160851939Y-65035000D01*
X161051898Y-64995226D01*
X161240256Y-64917205D01*
X161320434Y-64863632D01*
X161311928Y-64950000D01*
X161311928Y-67550000D01*
X161317956Y-67611207D01*
X161303937Y-67590226D01*
X161159774Y-67446063D01*
X160990256Y-67332795D01*
X160801898Y-67254774D01*
X160601939Y-67215000D01*
X160398061Y-67215000D01*
X160198102Y-67254774D01*
X160009744Y-67332795D01*
X159840226Y-67446063D01*
X159696063Y-67590226D01*
X159582795Y-67759744D01*
X159504774Y-67948102D01*
X159465000Y-68148061D01*
X158626285Y-68148061D01*
X158814419Y-68110639D01*
X159166566Y-67964775D01*
X159483491Y-67753013D01*
X159753013Y-67483491D01*
X159964775Y-67166566D01*
X160110639Y-66814419D01*
X160185000Y-66440581D01*
X160185000Y-66059419D01*
X160110639Y-65685581D01*
X159964775Y-65333434D01*
X159753013Y-65016509D01*
X159483491Y-64746987D01*
X159166566Y-64535225D01*
X158814419Y-64389361D01*
X158440581Y-64315000D01*
X158059419Y-64315000D01*
X157685581Y-64389361D01*
X157333434Y-64535225D01*
X157016509Y-64746987D01*
X156746987Y-65016509D01*
X156535225Y-65333434D01*
X156389361Y-65685581D01*
X156315000Y-66059419D01*
X153985842Y-66059419D01*
X153988057Y-65652714D01*
X154009744Y-65667205D01*
X154198102Y-65745226D01*
X154398061Y-65785000D01*
X154601939Y-65785000D01*
X154801898Y-65745226D01*
X154990256Y-65667205D01*
X155159774Y-65553937D01*
X155303937Y-65409774D01*
X155417205Y-65240256D01*
X155495226Y-65051898D01*
X155535000Y-64851939D01*
X155535000Y-64648061D01*
X155495226Y-64448102D01*
X155417205Y-64259744D01*
X155303937Y-64090226D01*
X155159774Y-63946063D01*
X154990256Y-63832795D01*
X154801898Y-63754774D01*
X154601939Y-63715000D01*
X154398061Y-63715000D01*
X154198102Y-63754774D01*
X154009744Y-63832795D01*
X153840226Y-63946063D01*
X153696063Y-64090226D01*
X153582795Y-64259744D01*
X153504774Y-64448102D01*
X153465000Y-64648061D01*
X153465000Y-64851939D01*
X153500853Y-65032188D01*
X153474482Y-65024188D01*
X153350000Y-65011928D01*
X152785750Y-65015000D01*
X152627000Y-65173750D01*
X152373000Y-65173750D01*
X152214250Y-65015000D01*
X151650000Y-65011928D01*
X151525518Y-65024188D01*
X151499147Y-65032188D01*
X151535000Y-64851939D01*
X151535000Y-64648061D01*
X151495226Y-64448102D01*
X151417205Y-64259744D01*
X151303937Y-64090226D01*
X151159774Y-63946063D01*
X150990256Y-63832795D01*
X150801898Y-63754774D01*
X150601939Y-63715000D01*
X150398061Y-63715000D01*
X150198102Y-63754774D01*
X150009744Y-63832795D01*
X149840226Y-63946063D01*
X149696063Y-64090226D01*
X149582795Y-64259744D01*
X149504774Y-64448102D01*
X149465000Y-64648061D01*
X149465000Y-64851939D01*
X149504774Y-65051898D01*
X149582795Y-65240256D01*
X149696063Y-65409774D01*
X149840226Y-65553937D01*
X150009744Y-65667205D01*
X150198102Y-65745226D01*
X150398061Y-65785000D01*
X150601939Y-65785000D01*
X150801898Y-65745226D01*
X150990256Y-65667205D01*
X151011943Y-65652714D01*
X151014372Y-66098909D01*
X150990256Y-66082795D01*
X150801898Y-66004774D01*
X150601939Y-65965000D01*
X150398061Y-65965000D01*
X150198102Y-66004774D01*
X150009744Y-66082795D01*
X149840226Y-66196063D01*
X149696063Y-66340226D01*
X149582795Y-66509744D01*
X149504774Y-66698102D01*
X149465000Y-66898061D01*
X149465000Y-67101939D01*
X149504774Y-67301898D01*
X149582795Y-67490256D01*
X149696063Y-67659774D01*
X149840226Y-67803937D01*
X150009744Y-67917205D01*
X150198102Y-67995226D01*
X150398061Y-68035000D01*
X150601939Y-68035000D01*
X150801898Y-67995226D01*
X150990256Y-67917205D01*
X151159774Y-67803937D01*
X151182458Y-67781253D01*
X151198815Y-67801185D01*
X151295506Y-67880537D01*
X151405820Y-67939502D01*
X151478380Y-67961513D01*
X151346525Y-68093368D01*
X151184010Y-68336589D01*
X151143240Y-68435016D01*
X150990256Y-68332795D01*
X150801898Y-68254774D01*
X150601939Y-68215000D01*
X150398061Y-68215000D01*
X150198102Y-68254774D01*
X150009744Y-68332795D01*
X149840226Y-68446063D01*
X149696063Y-68590226D01*
X149582795Y-68759744D01*
X149504774Y-68948102D01*
X149465000Y-69148061D01*
X149465000Y-69351939D01*
X149504774Y-69551898D01*
X149528026Y-69608032D01*
X149490256Y-69582795D01*
X149301898Y-69504774D01*
X149101939Y-69465000D01*
X148898061Y-69465000D01*
X148698102Y-69504774D01*
X148509744Y-69582795D01*
X148340226Y-69696063D01*
X148332333Y-69703956D01*
X148427932Y-69473158D01*
X148485000Y-69186260D01*
X148485000Y-68893740D01*
X148427932Y-68606842D01*
X148315990Y-68336589D01*
X148153475Y-68093368D01*
X148021620Y-67961513D01*
X148094180Y-67939502D01*
X148204494Y-67880537D01*
X148301185Y-67801185D01*
X148380537Y-67704494D01*
X148439502Y-67594180D01*
X148475812Y-67474482D01*
X148488072Y-67350000D01*
X148485000Y-66785750D01*
X148326250Y-66627000D01*
X147127000Y-66627000D01*
X147127000Y-66647000D01*
X146873000Y-66647000D01*
X146873000Y-66627000D01*
X145673750Y-66627000D01*
X145515000Y-66785750D01*
X145511928Y-67350000D01*
X145524188Y-67474482D01*
X145560498Y-67594180D01*
X145619463Y-67704494D01*
X145698815Y-67801185D01*
X145795506Y-67880537D01*
X145905820Y-67939502D01*
X145978380Y-67961513D01*
X145846525Y-68093368D01*
X145826281Y-68123666D01*
X145803937Y-68090226D01*
X145659774Y-67946063D01*
X145490256Y-67832795D01*
X145301898Y-67754774D01*
X145101939Y-67715000D01*
X144898061Y-67715000D01*
X144698102Y-67754774D01*
X144509744Y-67832795D01*
X144340226Y-67946063D01*
X144196063Y-68090226D01*
X144173719Y-68123666D01*
X144153475Y-68093368D01*
X144021620Y-67961513D01*
X144094180Y-67939502D01*
X144204494Y-67880537D01*
X144301185Y-67801185D01*
X144380537Y-67704494D01*
X144439502Y-67594180D01*
X144475812Y-67474482D01*
X144488072Y-67350000D01*
X144488072Y-65650000D01*
X145511928Y-65650000D01*
X145515000Y-66214250D01*
X145673750Y-66373000D01*
X146873000Y-66373000D01*
X146873000Y-65173750D01*
X147127000Y-65173750D01*
X147127000Y-66373000D01*
X148326250Y-66373000D01*
X148485000Y-66214250D01*
X148488072Y-65650000D01*
X148475812Y-65525518D01*
X148439502Y-65405820D01*
X148380537Y-65295506D01*
X148301185Y-65198815D01*
X148204494Y-65119463D01*
X148094180Y-65060498D01*
X147974482Y-65024188D01*
X147850000Y-65011928D01*
X147285750Y-65015000D01*
X147127000Y-65173750D01*
X146873000Y-65173750D01*
X146714250Y-65015000D01*
X146150000Y-65011928D01*
X146025518Y-65024188D01*
X145905820Y-65060498D01*
X145795506Y-65119463D01*
X145698815Y-65198815D01*
X145619463Y-65295506D01*
X145560498Y-65405820D01*
X145524188Y-65525518D01*
X145511928Y-65650000D01*
X144488072Y-65650000D01*
X144475812Y-65525518D01*
X144439502Y-65405820D01*
X144380537Y-65295506D01*
X144301185Y-65198815D01*
X144204494Y-65119463D01*
X144094180Y-65060498D01*
X143974482Y-65024188D01*
X143850000Y-65011928D01*
X142150000Y-65011928D01*
X142025518Y-65024188D01*
X141905820Y-65060498D01*
X141795506Y-65119463D01*
X141698815Y-65198815D01*
X141619463Y-65295506D01*
X141560498Y-65405820D01*
X141524188Y-65525518D01*
X141511928Y-65650000D01*
X140488072Y-65650000D01*
X140475812Y-65525518D01*
X140439502Y-65405820D01*
X140380537Y-65295506D01*
X140301185Y-65198815D01*
X140204494Y-65119463D01*
X140094180Y-65060498D01*
X139974482Y-65024188D01*
X139850000Y-65011928D01*
X138150000Y-65011928D01*
X138025518Y-65024188D01*
X137905820Y-65060498D01*
X137795506Y-65119463D01*
X137698815Y-65198815D01*
X137619463Y-65295506D01*
X137560498Y-65405820D01*
X137524188Y-65525518D01*
X137511928Y-65650000D01*
X136035000Y-65650000D01*
X136035000Y-65648061D01*
X135995226Y-65448102D01*
X135917205Y-65259744D01*
X135803937Y-65090226D01*
X135659774Y-64946063D01*
X135490256Y-64832795D01*
X135301898Y-64754774D01*
X135101939Y-64715000D01*
X134898061Y-64715000D01*
X134698102Y-64754774D01*
X134509744Y-64832795D01*
X134340226Y-64946063D01*
X134196063Y-65090226D01*
X134082795Y-65259744D01*
X134004774Y-65448102D01*
X133965000Y-65648061D01*
X133276623Y-65648061D01*
X133093158Y-65572068D01*
X132806260Y-65515000D01*
X132513740Y-65515000D01*
X132226842Y-65572068D01*
X131956589Y-65684010D01*
X131713368Y-65846525D01*
X131506525Y-66053368D01*
X131390000Y-66227760D01*
X131273475Y-66053368D01*
X131066632Y-65846525D01*
X130823411Y-65684010D01*
X130553158Y-65572068D01*
X130266260Y-65515000D01*
X129973740Y-65515000D01*
X129686842Y-65572068D01*
X129416589Y-65684010D01*
X129173368Y-65846525D01*
X128966525Y-66053368D01*
X128850000Y-66227760D01*
X128733475Y-66053368D01*
X128526632Y-65846525D01*
X128283411Y-65684010D01*
X128013158Y-65572068D01*
X127726260Y-65515000D01*
X127433740Y-65515000D01*
X127146842Y-65572068D01*
X126876589Y-65684010D01*
X126633368Y-65846525D01*
X126426525Y-66053368D01*
X126310000Y-66227760D01*
X126193475Y-66053368D01*
X125986632Y-65846525D01*
X125743411Y-65684010D01*
X125473158Y-65572068D01*
X125186260Y-65515000D01*
X124893740Y-65515000D01*
X124606842Y-65572068D01*
X124336589Y-65684010D01*
X124093368Y-65846525D01*
X123961513Y-65978380D01*
X123939502Y-65905820D01*
X123880537Y-65795506D01*
X123801185Y-65698815D01*
X123704494Y-65619463D01*
X123594180Y-65560498D01*
X123474482Y-65524188D01*
X123350000Y-65511928D01*
X122785750Y-65515000D01*
X122627000Y-65673750D01*
X122627000Y-66873000D01*
X122647000Y-66873000D01*
X122647000Y-67127000D01*
X122627000Y-67127000D01*
X122627000Y-67147000D01*
X122373000Y-67147000D01*
X122373000Y-67127000D01*
X121173750Y-67127000D01*
X121015000Y-67285750D01*
X121011928Y-67850000D01*
X120285000Y-67850000D01*
X120285000Y-67648061D01*
X120245226Y-67448102D01*
X120167205Y-67259744D01*
X120127000Y-67199573D01*
X120127000Y-66150000D01*
X121011928Y-66150000D01*
X121015000Y-66714250D01*
X121173750Y-66873000D01*
X122373000Y-66873000D01*
X122373000Y-65673750D01*
X122214250Y-65515000D01*
X121650000Y-65511928D01*
X121525518Y-65524188D01*
X121405820Y-65560498D01*
X121295506Y-65619463D01*
X121198815Y-65698815D01*
X121119463Y-65795506D01*
X121060498Y-65905820D01*
X121024188Y-66025518D01*
X121011928Y-66150000D01*
X120127000Y-66150000D01*
X120127000Y-64800427D01*
X120167205Y-64740256D01*
X120245226Y-64551898D01*
X120285000Y-64351939D01*
X120285000Y-64148061D01*
X120245226Y-63948102D01*
X120198377Y-63835000D01*
X120377715Y-63835000D01*
X121118628Y-63687623D01*
X121214139Y-63648061D01*
X137715000Y-63648061D01*
X137715000Y-63851939D01*
X137754774Y-64051898D01*
X137832795Y-64240256D01*
X137946063Y-64409774D01*
X138090226Y-64553937D01*
X138259744Y-64667205D01*
X138448102Y-64745226D01*
X138648061Y-64785000D01*
X138851939Y-64785000D01*
X139051898Y-64745226D01*
X139240256Y-64667205D01*
X139409774Y-64553937D01*
X139553937Y-64409774D01*
X139667205Y-64240256D01*
X139745226Y-64051898D01*
X139785000Y-63851939D01*
X139785000Y-63648061D01*
X139745226Y-63448102D01*
X139724499Y-63398061D01*
X141965000Y-63398061D01*
X141965000Y-63601939D01*
X142004774Y-63801898D01*
X142082795Y-63990256D01*
X142196063Y-64159774D01*
X142340226Y-64303937D01*
X142509744Y-64417205D01*
X142698102Y-64495226D01*
X142898061Y-64535000D01*
X143101939Y-64535000D01*
X143301898Y-64495226D01*
X143490256Y-64417205D01*
X143659774Y-64303937D01*
X143803937Y-64159774D01*
X143917205Y-63990256D01*
X143995226Y-63801898D01*
X144035000Y-63601939D01*
X144035000Y-63398061D01*
X143995226Y-63198102D01*
X143917205Y-63009744D01*
X143803937Y-62840226D01*
X143659774Y-62696063D01*
X143490256Y-62582795D01*
X143301898Y-62504774D01*
X143101939Y-62465000D01*
X142898061Y-62465000D01*
X142698102Y-62504774D01*
X142509744Y-62582795D01*
X142340226Y-62696063D01*
X142196063Y-62840226D01*
X142082795Y-63009744D01*
X142004774Y-63198102D01*
X141965000Y-63398061D01*
X139724499Y-63398061D01*
X139667205Y-63259744D01*
X139553937Y-63090226D01*
X139409774Y-62946063D01*
X139240256Y-62832795D01*
X139051898Y-62754774D01*
X138851939Y-62715000D01*
X138648061Y-62715000D01*
X138448102Y-62754774D01*
X138259744Y-62832795D01*
X138090226Y-62946063D01*
X137946063Y-63090226D01*
X137832795Y-63259744D01*
X137754774Y-63448102D01*
X137715000Y-63648061D01*
X121214139Y-63648061D01*
X121816554Y-63398533D01*
X122444670Y-62978839D01*
X122978839Y-62444670D01*
X123398533Y-61816554D01*
X123687623Y-61118628D01*
X123835000Y-60377715D01*
X123835000Y-60127000D01*
X164421491Y-60127000D01*
X164332795Y-60259744D01*
G37*
%TD.AperFunction*%
%TD*%
M02*
