%TF.GenerationSoftware,KiCad,Pcbnew,(5.1.10)-1*%
%TF.CreationDate,2021-08-23T16:31:20+01:00*%
%TF.ProjectId,Abhoinn_IoT_V3,4162686f-696e-46e5-9f49-6f545f56332e,rev?*%
%TF.SameCoordinates,Original*%
%TF.FileFunction,Copper,L1,Top*%
%TF.FilePolarity,Positive*%
%FSLAX46Y46*%
G04 Gerber Fmt 4.6, Leading zero omitted, Abs format (unit mm)*
G04 Created by KiCad (PCBNEW (5.1.10)-1) date 2021-08-23 16:31:20*
%MOMM*%
%LPD*%
G01*
G04 APERTURE LIST*
%TA.AperFunction,SMDPad,CuDef*%
%ADD10R,1.200000X1.200000*%
%TD*%
%TA.AperFunction,SMDPad,CuDef*%
%ADD11R,0.350000X0.500000*%
%TD*%
%TA.AperFunction,SMDPad,CuDef*%
%ADD12R,0.500000X0.350000*%
%TD*%
%TA.AperFunction,SMDPad,CuDef*%
%ADD13R,1.800000X3.500000*%
%TD*%
%TA.AperFunction,ComponentPad*%
%ADD14O,1.700000X1.700000*%
%TD*%
%TA.AperFunction,ComponentPad*%
%ADD15R,1.700000X1.700000*%
%TD*%
%TA.AperFunction,SMDPad,CuDef*%
%ADD16R,0.900000X0.800000*%
%TD*%
%TA.AperFunction,ComponentPad*%
%ADD17C,2.600000*%
%TD*%
%TA.AperFunction,ComponentPad*%
%ADD18R,2.600000X2.600000*%
%TD*%
%TA.AperFunction,SMDPad,CuDef*%
%ADD19R,2.200000X1.050000*%
%TD*%
%TA.AperFunction,SMDPad,CuDef*%
%ADD20R,1.050000X1.000000*%
%TD*%
%TA.AperFunction,ComponentPad*%
%ADD21C,0.800000*%
%TD*%
%TA.AperFunction,ComponentPad*%
%ADD22C,6.400000*%
%TD*%
%TA.AperFunction,ViaPad*%
%ADD23C,0.800000*%
%TD*%
%TA.AperFunction,Conductor*%
%ADD24C,0.130000*%
%TD*%
%TA.AperFunction,Conductor*%
%ADD25C,0.250000*%
%TD*%
%TA.AperFunction,Conductor*%
%ADD26C,0.400000*%
%TD*%
%TA.AperFunction,Conductor*%
%ADD27C,0.800000*%
%TD*%
%TA.AperFunction,Conductor*%
%ADD28C,0.450000*%
%TD*%
%TA.AperFunction,Conductor*%
%ADD29C,2.000000*%
%TD*%
%TA.AperFunction,Conductor*%
%ADD30C,0.146812*%
%TD*%
%TA.AperFunction,Conductor*%
%ADD31C,0.254000*%
%TD*%
%TA.AperFunction,Conductor*%
%ADD32C,0.100000*%
%TD*%
G04 APERTURE END LIST*
D10*
%TO.P,IC1,44*%
%TO.N,GND*%
X131500000Y-81250000D03*
%TO.P,IC1,43*%
X131500000Y-79250000D03*
%TO.P,IC1,42*%
X129500000Y-81250000D03*
%TO.P,IC1,41*%
X129500000Y-79250000D03*
%TO.P,IC1,40*%
X127500000Y-81250000D03*
%TO.P,IC1,39*%
X127500000Y-79250000D03*
D11*
%TO.P,IC1,38*%
%TO.N,N/C*%
X126250000Y-77150000D03*
%TO.P,IC1,37*%
X126900000Y-77150000D03*
%TO.P,IC1,36*%
X127550000Y-77150000D03*
%TO.P,IC1,35*%
X128200000Y-77150000D03*
%TO.P,IC1,34*%
X128850000Y-77150000D03*
%TO.P,IC1,33*%
X129500000Y-77150000D03*
%TO.P,IC1,32*%
X130150000Y-77150000D03*
%TO.P,IC1,31*%
X130800000Y-77150000D03*
%TO.P,IC1,30*%
X131450000Y-77150000D03*
%TO.P,IC1,29*%
X132100000Y-77150000D03*
%TO.P,IC1,28*%
X132750000Y-77150000D03*
D12*
%TO.P,IC1,27*%
%TO.N,+3V3*%
X133600000Y-77975000D03*
%TO.P,IC1,26*%
%TO.N,GND*%
X133600000Y-78625000D03*
%TO.P,IC1,25*%
%TO.N,RESET_N*%
X133600000Y-79275000D03*
%TO.P,IC1,24*%
%TO.N,DBG_EN*%
X133600000Y-79925000D03*
%TO.P,IC1,23*%
%TO.N,TX_LED+DBG_CLK*%
X133600000Y-80575000D03*
%TO.P,IC1,22*%
%TO.N,RX_LED+DBG_DATA*%
X133600000Y-81225000D03*
%TO.P,IC1,21*%
%TO.N,LPUART1_TX*%
X133600000Y-81875000D03*
%TO.P,IC1,20*%
%TO.N,LPUART1_RX*%
X133600000Y-82525000D03*
D11*
%TO.P,IC1,19*%
%TO.N,DEEP_SLEEP_WAKUP*%
X132750000Y-83350000D03*
%TO.P,IC1,18*%
%TO.N,RADIO_LED*%
X132100000Y-83350000D03*
%TO.P,IC1,17*%
%TO.N,CPU_LED*%
X131450000Y-83350000D03*
%TO.P,IC1,16*%
%TO.N,N/C*%
X130800000Y-83350000D03*
%TO.P,IC1,15*%
X130150000Y-83350000D03*
%TO.P,IC1,14*%
X129500000Y-83350000D03*
%TO.P,IC1,13*%
X128850000Y-83350000D03*
%TO.P,IC1,12*%
X128200000Y-83350000D03*
%TO.P,IC1,11*%
X127550000Y-83350000D03*
%TO.P,IC1,10*%
X126900000Y-83350000D03*
%TO.P,IC1,9*%
X126250000Y-83350000D03*
D12*
%TO.P,IC1,8*%
X125400000Y-82525000D03*
%TO.P,IC1,7*%
X125400000Y-81875000D03*
%TO.P,IC1,6*%
%TO.N,GND*%
X125400000Y-81225000D03*
%TO.P,IC1,5*%
%TO.N,N/C*%
X125400000Y-80575000D03*
%TO.P,IC1,4*%
%TO.N,GND*%
X125400000Y-79925000D03*
%TO.P,IC1,3*%
%TO.N,Net-(IC1-Pad3)*%
X125400000Y-79275000D03*
%TO.P,IC1,2*%
%TO.N,GND*%
X125400000Y-78625000D03*
%TO.P,IC1,1*%
X125400000Y-77975000D03*
%TD*%
%TO.P,R4,2*%
%TO.N,GND*%
%TA.AperFunction,SMDPad,CuDef*%
G36*
G01*
X129099999Y-93650000D02*
X130000001Y-93650000D01*
G75*
G02*
X130250000Y-93899999I0J-249999D01*
G01*
X130250000Y-94600001D01*
G75*
G02*
X130000001Y-94850000I-249999J0D01*
G01*
X129099999Y-94850000D01*
G75*
G02*
X128850000Y-94600001I0J249999D01*
G01*
X128850000Y-93899999D01*
G75*
G02*
X129099999Y-93650000I249999J0D01*
G01*
G37*
%TD.AperFunction*%
%TO.P,R4,1*%
%TO.N,Net-(D4-Pad1)*%
%TA.AperFunction,SMDPad,CuDef*%
G36*
G01*
X129099999Y-91650000D02*
X130000001Y-91650000D01*
G75*
G02*
X130250000Y-91899999I0J-249999D01*
G01*
X130250000Y-92600001D01*
G75*
G02*
X130000001Y-92850000I-249999J0D01*
G01*
X129099999Y-92850000D01*
G75*
G02*
X128850000Y-92600001I0J249999D01*
G01*
X128850000Y-91899999D01*
G75*
G02*
X129099999Y-91650000I249999J0D01*
G01*
G37*
%TD.AperFunction*%
%TD*%
D13*
%TO.P,D1,2*%
%TO.N,+5V*%
X169000000Y-67000000D03*
%TO.P,D1,1*%
%TO.N,Net-(D1-Pad1)*%
X169000000Y-72000000D03*
%TD*%
D14*
%TO.P,J3,10*%
%TO.N,NRST*%
X148340000Y-89710000D03*
%TO.P,J3,9*%
%TO.N,GND*%
X148340000Y-92250000D03*
%TO.P,J3,8*%
%TO.N,N/C*%
X150880000Y-89710000D03*
%TO.P,J3,7*%
X150880000Y-92250000D03*
%TO.P,J3,6*%
X153420000Y-89710000D03*
%TO.P,J3,5*%
%TO.N,GND*%
X153420000Y-92250000D03*
%TO.P,J3,4*%
%TO.N,SWCLK*%
X155960000Y-89710000D03*
%TO.P,J3,3*%
%TO.N,GND*%
X155960000Y-92250000D03*
%TO.P,J3,2*%
%TO.N,SWDIO*%
X158500000Y-89710000D03*
D15*
%TO.P,J3,1*%
%TO.N,+3V3*%
X158500000Y-92250000D03*
%TD*%
D16*
%TO.P,U1,3*%
%TO.N,Net-(C6-Pad1)*%
X163306000Y-75692000D03*
%TO.P,U1,2*%
%TO.N,+3V3*%
X161306000Y-76642000D03*
%TO.P,U1,1*%
%TO.N,GND*%
X161306000Y-74742000D03*
%TD*%
%TO.P,C6,2*%
%TO.N,GND*%
%TA.AperFunction,SMDPad,CuDef*%
G36*
G01*
X161675000Y-72762500D02*
X161675000Y-73237500D01*
G75*
G02*
X161437500Y-73475000I-237500J0D01*
G01*
X160837500Y-73475000D01*
G75*
G02*
X160600000Y-73237500I0J237500D01*
G01*
X160600000Y-72762500D01*
G75*
G02*
X160837500Y-72525000I237500J0D01*
G01*
X161437500Y-72525000D01*
G75*
G02*
X161675000Y-72762500I0J-237500D01*
G01*
G37*
%TD.AperFunction*%
%TO.P,C6,1*%
%TO.N,Net-(C6-Pad1)*%
%TA.AperFunction,SMDPad,CuDef*%
G36*
G01*
X163400000Y-72762500D02*
X163400000Y-73237500D01*
G75*
G02*
X163162500Y-73475000I-237500J0D01*
G01*
X162562500Y-73475000D01*
G75*
G02*
X162325000Y-73237500I0J237500D01*
G01*
X162325000Y-72762500D01*
G75*
G02*
X162562500Y-72525000I237500J0D01*
G01*
X163162500Y-72525000D01*
G75*
G02*
X163400000Y-72762500I0J-237500D01*
G01*
G37*
%TD.AperFunction*%
%TD*%
%TO.P,C9,2*%
%TO.N,GND*%
%TA.AperFunction,SMDPad,CuDef*%
G36*
G01*
X159987500Y-80087500D02*
X159512500Y-80087500D01*
G75*
G02*
X159275000Y-79850000I0J237500D01*
G01*
X159275000Y-79250000D01*
G75*
G02*
X159512500Y-79012500I237500J0D01*
G01*
X159987500Y-79012500D01*
G75*
G02*
X160225000Y-79250000I0J-237500D01*
G01*
X160225000Y-79850000D01*
G75*
G02*
X159987500Y-80087500I-237500J0D01*
G01*
G37*
%TD.AperFunction*%
%TO.P,C9,1*%
%TO.N,+3V3*%
%TA.AperFunction,SMDPad,CuDef*%
G36*
G01*
X159987500Y-81812500D02*
X159512500Y-81812500D01*
G75*
G02*
X159275000Y-81575000I0J237500D01*
G01*
X159275000Y-80975000D01*
G75*
G02*
X159512500Y-80737500I237500J0D01*
G01*
X159987500Y-80737500D01*
G75*
G02*
X160225000Y-80975000I0J-237500D01*
G01*
X160225000Y-81575000D01*
G75*
G02*
X159987500Y-81812500I-237500J0D01*
G01*
G37*
%TD.AperFunction*%
%TD*%
%TO.P,F1,2*%
%TO.N,Net-(F1-Pad2)*%
%TA.AperFunction,SMDPad,CuDef*%
G36*
G01*
X167278880Y-75777440D02*
X167278880Y-77027440D01*
G75*
G02*
X167028880Y-77277440I-250000J0D01*
G01*
X166103880Y-77277440D01*
G75*
G02*
X165853880Y-77027440I0J250000D01*
G01*
X165853880Y-75777440D01*
G75*
G02*
X166103880Y-75527440I250000J0D01*
G01*
X167028880Y-75527440D01*
G75*
G02*
X167278880Y-75777440I0J-250000D01*
G01*
G37*
%TD.AperFunction*%
%TO.P,F1,1*%
%TO.N,Net-(D1-Pad1)*%
%TA.AperFunction,SMDPad,CuDef*%
G36*
G01*
X170253880Y-75777440D02*
X170253880Y-77027440D01*
G75*
G02*
X170003880Y-77277440I-250000J0D01*
G01*
X169078880Y-77277440D01*
G75*
G02*
X168828880Y-77027440I0J250000D01*
G01*
X168828880Y-75777440D01*
G75*
G02*
X169078880Y-75527440I250000J0D01*
G01*
X170003880Y-75527440D01*
G75*
G02*
X170253880Y-75777440I0J-250000D01*
G01*
G37*
%TD.AperFunction*%
%TD*%
D14*
%TO.P,JP4,3*%
%TO.N,GND*%
X152500000Y-71580000D03*
%TO.P,JP4,2*%
%TO.N,Net-(D4-Pad2)*%
X152500000Y-69040000D03*
D15*
%TO.P,JP4,1*%
%TO.N,+3V3*%
X152500000Y-66500000D03*
%TD*%
D14*
%TO.P,JP3,3*%
%TO.N,GND*%
X147000000Y-71580000D03*
%TO.P,JP3,2*%
%TO.N,DBG_EN*%
X147000000Y-69040000D03*
D15*
%TO.P,JP3,1*%
%TO.N,+3V3*%
X147000000Y-66500000D03*
%TD*%
D14*
%TO.P,JP2,3*%
%TO.N,LED_RX*%
X139000000Y-71580000D03*
%TO.P,JP2,2*%
%TO.N,RX_LED+DBG_DATA*%
X139000000Y-69040000D03*
D15*
%TO.P,JP2,1*%
%TO.N,TS_DBG_DATA*%
X139000000Y-66500000D03*
%TD*%
D14*
%TO.P,JP1,3*%
%TO.N,LED_TX*%
X143000000Y-71580000D03*
%TO.P,JP1,2*%
%TO.N,TX_LED+DBG_CLK*%
X143000000Y-69040000D03*
D15*
%TO.P,JP1,1*%
%TO.N,TS_DBG_CLK*%
X143000000Y-66500000D03*
%TD*%
D14*
%TO.P,J2,2*%
%TO.N,LPUART1_TX*%
X139500000Y-90790000D03*
D15*
%TO.P,J2,1*%
%TO.N,LPUART1_RX*%
X139500000Y-88250000D03*
%TD*%
D14*
%TO.P,J1,2*%
%TO.N,GND*%
X164000000Y-92290000D03*
D15*
%TO.P,J1,1*%
%TO.N,+3V3*%
X164000000Y-89750000D03*
%TD*%
D14*
%TO.P,J4,10*%
%TO.N,RESET_N*%
X132660000Y-69540000D03*
%TO.P,J4,9*%
%TO.N,GND*%
X132660000Y-67000000D03*
%TO.P,J4,8*%
%TO.N,N/C*%
X130120000Y-69540000D03*
%TO.P,J4,7*%
X130120000Y-67000000D03*
%TO.P,J4,6*%
X127580000Y-69540000D03*
%TO.P,J4,5*%
%TO.N,GND*%
X127580000Y-67000000D03*
%TO.P,J4,4*%
%TO.N,TS_DBG_CLK*%
X125040000Y-69540000D03*
%TO.P,J4,3*%
%TO.N,GND*%
X125040000Y-67000000D03*
%TO.P,J4,2*%
%TO.N,TS_DBG_DATA*%
X122500000Y-69540000D03*
D15*
%TO.P,J4,1*%
%TO.N,+3V3*%
X122500000Y-67000000D03*
%TD*%
%TO.P,U3,32*%
%TO.N,GND*%
%TA.AperFunction,SMDPad,CuDef*%
G36*
G01*
X144103554Y-76333095D02*
X144987437Y-75449212D01*
G75*
G02*
X145164213Y-75449212I88388J-88388D01*
G01*
X145340990Y-75625989D01*
G75*
G02*
X145340990Y-75802765I-88388J-88388D01*
G01*
X144457107Y-76686648D01*
G75*
G02*
X144280331Y-76686648I-88388J88388D01*
G01*
X144103554Y-76509871D01*
G75*
G02*
X144103554Y-76333095I88388J88388D01*
G01*
G37*
%TD.AperFunction*%
%TO.P,U3,31*%
%TO.N,BOOT0*%
%TA.AperFunction,SMDPad,CuDef*%
G36*
G01*
X144669239Y-76898781D02*
X145553122Y-76014898D01*
G75*
G02*
X145729898Y-76014898I88388J-88388D01*
G01*
X145906675Y-76191675D01*
G75*
G02*
X145906675Y-76368451I-88388J-88388D01*
G01*
X145022792Y-77252334D01*
G75*
G02*
X144846016Y-77252334I-88388J88388D01*
G01*
X144669239Y-77075557D01*
G75*
G02*
X144669239Y-76898781I88388J88388D01*
G01*
G37*
%TD.AperFunction*%
%TO.P,U3,30*%
%TO.N,N/C*%
%TA.AperFunction,SMDPad,CuDef*%
G36*
G01*
X145234925Y-77464466D02*
X146118808Y-76580583D01*
G75*
G02*
X146295584Y-76580583I88388J-88388D01*
G01*
X146472361Y-76757360D01*
G75*
G02*
X146472361Y-76934136I-88388J-88388D01*
G01*
X145588478Y-77818019D01*
G75*
G02*
X145411702Y-77818019I-88388J88388D01*
G01*
X145234925Y-77641242D01*
G75*
G02*
X145234925Y-77464466I88388J88388D01*
G01*
G37*
%TD.AperFunction*%
%TO.P,U3,29*%
%TA.AperFunction,SMDPad,CuDef*%
G36*
G01*
X145800610Y-78030151D02*
X146684493Y-77146268D01*
G75*
G02*
X146861269Y-77146268I88388J-88388D01*
G01*
X147038046Y-77323045D01*
G75*
G02*
X147038046Y-77499821I-88388J-88388D01*
G01*
X146154163Y-78383704D01*
G75*
G02*
X145977387Y-78383704I-88388J88388D01*
G01*
X145800610Y-78206927D01*
G75*
G02*
X145800610Y-78030151I88388J88388D01*
G01*
G37*
%TD.AperFunction*%
%TO.P,U3,28*%
%TA.AperFunction,SMDPad,CuDef*%
G36*
G01*
X146366296Y-78595837D02*
X147250179Y-77711954D01*
G75*
G02*
X147426955Y-77711954I88388J-88388D01*
G01*
X147603732Y-77888731D01*
G75*
G02*
X147603732Y-78065507I-88388J-88388D01*
G01*
X146719849Y-78949390D01*
G75*
G02*
X146543073Y-78949390I-88388J88388D01*
G01*
X146366296Y-78772613D01*
G75*
G02*
X146366296Y-78595837I88388J88388D01*
G01*
G37*
%TD.AperFunction*%
%TO.P,U3,27*%
%TA.AperFunction,SMDPad,CuDef*%
G36*
G01*
X146931981Y-79161522D02*
X147815864Y-78277639D01*
G75*
G02*
X147992640Y-78277639I88388J-88388D01*
G01*
X148169417Y-78454416D01*
G75*
G02*
X148169417Y-78631192I-88388J-88388D01*
G01*
X147285534Y-79515075D01*
G75*
G02*
X147108758Y-79515075I-88388J88388D01*
G01*
X146931981Y-79338298D01*
G75*
G02*
X146931981Y-79161522I88388J88388D01*
G01*
G37*
%TD.AperFunction*%
%TO.P,U3,26*%
%TA.AperFunction,SMDPad,CuDef*%
G36*
G01*
X147497666Y-79727208D02*
X148381549Y-78843325D01*
G75*
G02*
X148558325Y-78843325I88388J-88388D01*
G01*
X148735102Y-79020102D01*
G75*
G02*
X148735102Y-79196878I-88388J-88388D01*
G01*
X147851219Y-80080761D01*
G75*
G02*
X147674443Y-80080761I-88388J88388D01*
G01*
X147497666Y-79903984D01*
G75*
G02*
X147497666Y-79727208I88388J88388D01*
G01*
G37*
%TD.AperFunction*%
%TO.P,U3,25*%
%TA.AperFunction,SMDPad,CuDef*%
G36*
G01*
X148063352Y-80292893D02*
X148947235Y-79409010D01*
G75*
G02*
X149124011Y-79409010I88388J-88388D01*
G01*
X149300788Y-79585787D01*
G75*
G02*
X149300788Y-79762563I-88388J-88388D01*
G01*
X148416905Y-80646446D01*
G75*
G02*
X148240129Y-80646446I-88388J88388D01*
G01*
X148063352Y-80469669D01*
G75*
G02*
X148063352Y-80292893I88388J88388D01*
G01*
G37*
%TD.AperFunction*%
%TO.P,U3,24*%
%TO.N,SWCLK*%
%TA.AperFunction,SMDPad,CuDef*%
G36*
G01*
X148063352Y-81530331D02*
X148240129Y-81353554D01*
G75*
G02*
X148416905Y-81353554I88388J-88388D01*
G01*
X149300788Y-82237437D01*
G75*
G02*
X149300788Y-82414213I-88388J-88388D01*
G01*
X149124011Y-82590990D01*
G75*
G02*
X148947235Y-82590990I-88388J88388D01*
G01*
X148063352Y-81707107D01*
G75*
G02*
X148063352Y-81530331I88388J88388D01*
G01*
G37*
%TD.AperFunction*%
%TO.P,U3,23*%
%TO.N,SWDIO*%
%TA.AperFunction,SMDPad,CuDef*%
G36*
G01*
X147497666Y-82096016D02*
X147674443Y-81919239D01*
G75*
G02*
X147851219Y-81919239I88388J-88388D01*
G01*
X148735102Y-82803122D01*
G75*
G02*
X148735102Y-82979898I-88388J-88388D01*
G01*
X148558325Y-83156675D01*
G75*
G02*
X148381549Y-83156675I-88388J88388D01*
G01*
X147497666Y-82272792D01*
G75*
G02*
X147497666Y-82096016I88388J88388D01*
G01*
G37*
%TD.AperFunction*%
%TO.P,U3,22*%
%TO.N,N/C*%
%TA.AperFunction,SMDPad,CuDef*%
G36*
G01*
X146931981Y-82661702D02*
X147108758Y-82484925D01*
G75*
G02*
X147285534Y-82484925I88388J-88388D01*
G01*
X148169417Y-83368808D01*
G75*
G02*
X148169417Y-83545584I-88388J-88388D01*
G01*
X147992640Y-83722361D01*
G75*
G02*
X147815864Y-83722361I-88388J88388D01*
G01*
X146931981Y-82838478D01*
G75*
G02*
X146931981Y-82661702I88388J88388D01*
G01*
G37*
%TD.AperFunction*%
%TO.P,U3,21*%
%TA.AperFunction,SMDPad,CuDef*%
G36*
G01*
X146366296Y-83227387D02*
X146543073Y-83050610D01*
G75*
G02*
X146719849Y-83050610I88388J-88388D01*
G01*
X147603732Y-83934493D01*
G75*
G02*
X147603732Y-84111269I-88388J-88388D01*
G01*
X147426955Y-84288046D01*
G75*
G02*
X147250179Y-84288046I-88388J88388D01*
G01*
X146366296Y-83404163D01*
G75*
G02*
X146366296Y-83227387I88388J88388D01*
G01*
G37*
%TD.AperFunction*%
%TO.P,U3,20*%
%TO.N,PRESSURE_SDA*%
%TA.AperFunction,SMDPad,CuDef*%
G36*
G01*
X145800610Y-83793073D02*
X145977387Y-83616296D01*
G75*
G02*
X146154163Y-83616296I88388J-88388D01*
G01*
X147038046Y-84500179D01*
G75*
G02*
X147038046Y-84676955I-88388J-88388D01*
G01*
X146861269Y-84853732D01*
G75*
G02*
X146684493Y-84853732I-88388J88388D01*
G01*
X145800610Y-83969849D01*
G75*
G02*
X145800610Y-83793073I88388J88388D01*
G01*
G37*
%TD.AperFunction*%
%TO.P,U3,19*%
%TO.N,PRESSURE_SCL*%
%TA.AperFunction,SMDPad,CuDef*%
G36*
G01*
X145234925Y-84358758D02*
X145411702Y-84181981D01*
G75*
G02*
X145588478Y-84181981I88388J-88388D01*
G01*
X146472361Y-85065864D01*
G75*
G02*
X146472361Y-85242640I-88388J-88388D01*
G01*
X146295584Y-85419417D01*
G75*
G02*
X146118808Y-85419417I-88388J88388D01*
G01*
X145234925Y-84535534D01*
G75*
G02*
X145234925Y-84358758I88388J88388D01*
G01*
G37*
%TD.AperFunction*%
%TO.P,U3,18*%
%TO.N,N/C*%
%TA.AperFunction,SMDPad,CuDef*%
G36*
G01*
X144669239Y-84924443D02*
X144846016Y-84747666D01*
G75*
G02*
X145022792Y-84747666I88388J-88388D01*
G01*
X145906675Y-85631549D01*
G75*
G02*
X145906675Y-85808325I-88388J-88388D01*
G01*
X145729898Y-85985102D01*
G75*
G02*
X145553122Y-85985102I-88388J88388D01*
G01*
X144669239Y-85101219D01*
G75*
G02*
X144669239Y-84924443I88388J88388D01*
G01*
G37*
%TD.AperFunction*%
%TO.P,U3,17*%
%TO.N,+3V3*%
%TA.AperFunction,SMDPad,CuDef*%
G36*
G01*
X144103554Y-85490129D02*
X144280331Y-85313352D01*
G75*
G02*
X144457107Y-85313352I88388J-88388D01*
G01*
X145340990Y-86197235D01*
G75*
G02*
X145340990Y-86374011I-88388J-88388D01*
G01*
X145164213Y-86550788D01*
G75*
G02*
X144987437Y-86550788I-88388J88388D01*
G01*
X144103554Y-85666905D01*
G75*
G02*
X144103554Y-85490129I88388J88388D01*
G01*
G37*
%TD.AperFunction*%
%TO.P,U3,16*%
%TO.N,GND*%
%TA.AperFunction,SMDPad,CuDef*%
G36*
G01*
X142159010Y-86197235D02*
X143042893Y-85313352D01*
G75*
G02*
X143219669Y-85313352I88388J-88388D01*
G01*
X143396446Y-85490129D01*
G75*
G02*
X143396446Y-85666905I-88388J-88388D01*
G01*
X142512563Y-86550788D01*
G75*
G02*
X142335787Y-86550788I-88388J88388D01*
G01*
X142159010Y-86374011D01*
G75*
G02*
X142159010Y-86197235I88388J88388D01*
G01*
G37*
%TD.AperFunction*%
%TO.P,U3,15*%
%TO.N,DEEP_SLEEP_WAKUP*%
%TA.AperFunction,SMDPad,CuDef*%
G36*
G01*
X141593325Y-85631549D02*
X142477208Y-84747666D01*
G75*
G02*
X142653984Y-84747666I88388J-88388D01*
G01*
X142830761Y-84924443D01*
G75*
G02*
X142830761Y-85101219I-88388J-88388D01*
G01*
X141946878Y-85985102D01*
G75*
G02*
X141770102Y-85985102I-88388J88388D01*
G01*
X141593325Y-85808325D01*
G75*
G02*
X141593325Y-85631549I88388J88388D01*
G01*
G37*
%TD.AperFunction*%
%TO.P,U3,14*%
%TO.N,N/C*%
%TA.AperFunction,SMDPad,CuDef*%
G36*
G01*
X141027639Y-85065864D02*
X141911522Y-84181981D01*
G75*
G02*
X142088298Y-84181981I88388J-88388D01*
G01*
X142265075Y-84358758D01*
G75*
G02*
X142265075Y-84535534I-88388J-88388D01*
G01*
X141381192Y-85419417D01*
G75*
G02*
X141204416Y-85419417I-88388J88388D01*
G01*
X141027639Y-85242640D01*
G75*
G02*
X141027639Y-85065864I88388J88388D01*
G01*
G37*
%TD.AperFunction*%
%TO.P,U3,13*%
%TA.AperFunction,SMDPad,CuDef*%
G36*
G01*
X140461954Y-84500179D02*
X141345837Y-83616296D01*
G75*
G02*
X141522613Y-83616296I88388J-88388D01*
G01*
X141699390Y-83793073D01*
G75*
G02*
X141699390Y-83969849I-88388J-88388D01*
G01*
X140815507Y-84853732D01*
G75*
G02*
X140638731Y-84853732I-88388J88388D01*
G01*
X140461954Y-84676955D01*
G75*
G02*
X140461954Y-84500179I88388J88388D01*
G01*
G37*
%TD.AperFunction*%
%TO.P,U3,12*%
%TA.AperFunction,SMDPad,CuDef*%
G36*
G01*
X139896268Y-83934493D02*
X140780151Y-83050610D01*
G75*
G02*
X140956927Y-83050610I88388J-88388D01*
G01*
X141133704Y-83227387D01*
G75*
G02*
X141133704Y-83404163I-88388J-88388D01*
G01*
X140249821Y-84288046D01*
G75*
G02*
X140073045Y-84288046I-88388J88388D01*
G01*
X139896268Y-84111269D01*
G75*
G02*
X139896268Y-83934493I88388J88388D01*
G01*
G37*
%TD.AperFunction*%
%TO.P,U3,11*%
%TA.AperFunction,SMDPad,CuDef*%
G36*
G01*
X139330583Y-83368808D02*
X140214466Y-82484925D01*
G75*
G02*
X140391242Y-82484925I88388J-88388D01*
G01*
X140568019Y-82661702D01*
G75*
G02*
X140568019Y-82838478I-88388J-88388D01*
G01*
X139684136Y-83722361D01*
G75*
G02*
X139507360Y-83722361I-88388J88388D01*
G01*
X139330583Y-83545584D01*
G75*
G02*
X139330583Y-83368808I88388J88388D01*
G01*
G37*
%TD.AperFunction*%
%TO.P,U3,10*%
%TA.AperFunction,SMDPad,CuDef*%
G36*
G01*
X138764898Y-82803122D02*
X139648781Y-81919239D01*
G75*
G02*
X139825557Y-81919239I88388J-88388D01*
G01*
X140002334Y-82096016D01*
G75*
G02*
X140002334Y-82272792I-88388J-88388D01*
G01*
X139118451Y-83156675D01*
G75*
G02*
X138941675Y-83156675I-88388J88388D01*
G01*
X138764898Y-82979898D01*
G75*
G02*
X138764898Y-82803122I88388J88388D01*
G01*
G37*
%TD.AperFunction*%
%TO.P,U3,9*%
%TO.N,LPUART1_RX*%
%TA.AperFunction,SMDPad,CuDef*%
G36*
G01*
X138199212Y-82237437D02*
X139083095Y-81353554D01*
G75*
G02*
X139259871Y-81353554I88388J-88388D01*
G01*
X139436648Y-81530331D01*
G75*
G02*
X139436648Y-81707107I-88388J-88388D01*
G01*
X138552765Y-82590990D01*
G75*
G02*
X138375989Y-82590990I-88388J88388D01*
G01*
X138199212Y-82414213D01*
G75*
G02*
X138199212Y-82237437I88388J88388D01*
G01*
G37*
%TD.AperFunction*%
%TO.P,U3,8*%
%TO.N,LPUART1_TX*%
%TA.AperFunction,SMDPad,CuDef*%
G36*
G01*
X138199212Y-79585787D02*
X138375989Y-79409010D01*
G75*
G02*
X138552765Y-79409010I88388J-88388D01*
G01*
X139436648Y-80292893D01*
G75*
G02*
X139436648Y-80469669I-88388J-88388D01*
G01*
X139259871Y-80646446D01*
G75*
G02*
X139083095Y-80646446I-88388J88388D01*
G01*
X138199212Y-79762563D01*
G75*
G02*
X138199212Y-79585787I88388J88388D01*
G01*
G37*
%TD.AperFunction*%
%TO.P,U3,7*%
%TO.N,N/C*%
%TA.AperFunction,SMDPad,CuDef*%
G36*
G01*
X138764898Y-79020102D02*
X138941675Y-78843325D01*
G75*
G02*
X139118451Y-78843325I88388J-88388D01*
G01*
X140002334Y-79727208D01*
G75*
G02*
X140002334Y-79903984I-88388J-88388D01*
G01*
X139825557Y-80080761D01*
G75*
G02*
X139648781Y-80080761I-88388J88388D01*
G01*
X138764898Y-79196878D01*
G75*
G02*
X138764898Y-79020102I88388J88388D01*
G01*
G37*
%TD.AperFunction*%
%TO.P,U3,6*%
%TA.AperFunction,SMDPad,CuDef*%
G36*
G01*
X139330583Y-78454416D02*
X139507360Y-78277639D01*
G75*
G02*
X139684136Y-78277639I88388J-88388D01*
G01*
X140568019Y-79161522D01*
G75*
G02*
X140568019Y-79338298I-88388J-88388D01*
G01*
X140391242Y-79515075D01*
G75*
G02*
X140214466Y-79515075I-88388J88388D01*
G01*
X139330583Y-78631192D01*
G75*
G02*
X139330583Y-78454416I88388J88388D01*
G01*
G37*
%TD.AperFunction*%
%TO.P,U3,5*%
%TO.N,+3V3*%
%TA.AperFunction,SMDPad,CuDef*%
G36*
G01*
X139896268Y-77888731D02*
X140073045Y-77711954D01*
G75*
G02*
X140249821Y-77711954I88388J-88388D01*
G01*
X141133704Y-78595837D01*
G75*
G02*
X141133704Y-78772613I-88388J-88388D01*
G01*
X140956927Y-78949390D01*
G75*
G02*
X140780151Y-78949390I-88388J88388D01*
G01*
X139896268Y-78065507D01*
G75*
G02*
X139896268Y-77888731I88388J88388D01*
G01*
G37*
%TD.AperFunction*%
%TO.P,U3,4*%
%TO.N,NRST*%
%TA.AperFunction,SMDPad,CuDef*%
G36*
G01*
X140461954Y-77323045D02*
X140638731Y-77146268D01*
G75*
G02*
X140815507Y-77146268I88388J-88388D01*
G01*
X141699390Y-78030151D01*
G75*
G02*
X141699390Y-78206927I-88388J-88388D01*
G01*
X141522613Y-78383704D01*
G75*
G02*
X141345837Y-78383704I-88388J88388D01*
G01*
X140461954Y-77499821D01*
G75*
G02*
X140461954Y-77323045I88388J88388D01*
G01*
G37*
%TD.AperFunction*%
%TO.P,U3,3*%
%TO.N,N/C*%
%TA.AperFunction,SMDPad,CuDef*%
G36*
G01*
X141027639Y-76757360D02*
X141204416Y-76580583D01*
G75*
G02*
X141381192Y-76580583I88388J-88388D01*
G01*
X142265075Y-77464466D01*
G75*
G02*
X142265075Y-77641242I-88388J-88388D01*
G01*
X142088298Y-77818019D01*
G75*
G02*
X141911522Y-77818019I-88388J88388D01*
G01*
X141027639Y-76934136D01*
G75*
G02*
X141027639Y-76757360I88388J88388D01*
G01*
G37*
%TD.AperFunction*%
%TO.P,U3,2*%
%TA.AperFunction,SMDPad,CuDef*%
G36*
G01*
X141593325Y-76191675D02*
X141770102Y-76014898D01*
G75*
G02*
X141946878Y-76014898I88388J-88388D01*
G01*
X142830761Y-76898781D01*
G75*
G02*
X142830761Y-77075557I-88388J-88388D01*
G01*
X142653984Y-77252334D01*
G75*
G02*
X142477208Y-77252334I-88388J88388D01*
G01*
X141593325Y-76368451D01*
G75*
G02*
X141593325Y-76191675I88388J88388D01*
G01*
G37*
%TD.AperFunction*%
%TO.P,U3,1*%
%TO.N,+3V3*%
%TA.AperFunction,SMDPad,CuDef*%
G36*
G01*
X142159010Y-75625989D02*
X142335787Y-75449212D01*
G75*
G02*
X142512563Y-75449212I88388J-88388D01*
G01*
X143396446Y-76333095D01*
G75*
G02*
X143396446Y-76509871I-88388J-88388D01*
G01*
X143219669Y-76686648D01*
G75*
G02*
X143042893Y-76686648I-88388J88388D01*
G01*
X142159010Y-75802765D01*
G75*
G02*
X142159010Y-75625989I88388J88388D01*
G01*
G37*
%TD.AperFunction*%
%TD*%
%TO.P,R8,2*%
%TO.N,GND*%
%TA.AperFunction,SMDPad,CuDef*%
G36*
G01*
X134549999Y-93650000D02*
X135450001Y-93650000D01*
G75*
G02*
X135700000Y-93899999I0J-249999D01*
G01*
X135700000Y-94600001D01*
G75*
G02*
X135450001Y-94850000I-249999J0D01*
G01*
X134549999Y-94850000D01*
G75*
G02*
X134300000Y-94600001I0J249999D01*
G01*
X134300000Y-93899999D01*
G75*
G02*
X134549999Y-93650000I249999J0D01*
G01*
G37*
%TD.AperFunction*%
%TO.P,R8,1*%
%TO.N,Net-(D6-Pad1)*%
%TA.AperFunction,SMDPad,CuDef*%
G36*
G01*
X134549999Y-91650000D02*
X135450001Y-91650000D01*
G75*
G02*
X135700000Y-91899999I0J-249999D01*
G01*
X135700000Y-92600001D01*
G75*
G02*
X135450001Y-92850000I-249999J0D01*
G01*
X134549999Y-92850000D01*
G75*
G02*
X134300000Y-92600001I0J249999D01*
G01*
X134300000Y-91899999D01*
G75*
G02*
X134549999Y-91650000I249999J0D01*
G01*
G37*
%TD.AperFunction*%
%TD*%
%TO.P,R7,2*%
%TO.N,GND*%
%TA.AperFunction,SMDPad,CuDef*%
G36*
G01*
X132299999Y-93650000D02*
X133200001Y-93650000D01*
G75*
G02*
X133450000Y-93899999I0J-249999D01*
G01*
X133450000Y-94600001D01*
G75*
G02*
X133200001Y-94850000I-249999J0D01*
G01*
X132299999Y-94850000D01*
G75*
G02*
X132050000Y-94600001I0J249999D01*
G01*
X132050000Y-93899999D01*
G75*
G02*
X132299999Y-93650000I249999J0D01*
G01*
G37*
%TD.AperFunction*%
%TO.P,R7,1*%
%TO.N,Net-(D5-Pad1)*%
%TA.AperFunction,SMDPad,CuDef*%
G36*
G01*
X132299999Y-91650000D02*
X133200001Y-91650000D01*
G75*
G02*
X133450000Y-91899999I0J-249999D01*
G01*
X133450000Y-92600001D01*
G75*
G02*
X133200001Y-92850000I-249999J0D01*
G01*
X132299999Y-92850000D01*
G75*
G02*
X132050000Y-92600001I0J249999D01*
G01*
X132050000Y-91899999D01*
G75*
G02*
X132299999Y-91650000I249999J0D01*
G01*
G37*
%TD.AperFunction*%
%TD*%
%TO.P,R6,2*%
%TO.N,PRESSURE_SDA*%
%TA.AperFunction,SMDPad,CuDef*%
G36*
G01*
X155049999Y-77150000D02*
X155950001Y-77150000D01*
G75*
G02*
X156200000Y-77399999I0J-249999D01*
G01*
X156200000Y-78100001D01*
G75*
G02*
X155950001Y-78350000I-249999J0D01*
G01*
X155049999Y-78350000D01*
G75*
G02*
X154800000Y-78100001I0J249999D01*
G01*
X154800000Y-77399999D01*
G75*
G02*
X155049999Y-77150000I249999J0D01*
G01*
G37*
%TD.AperFunction*%
%TO.P,R6,1*%
%TO.N,+3V3*%
%TA.AperFunction,SMDPad,CuDef*%
G36*
G01*
X155049999Y-75150000D02*
X155950001Y-75150000D01*
G75*
G02*
X156200000Y-75399999I0J-249999D01*
G01*
X156200000Y-76100001D01*
G75*
G02*
X155950001Y-76350000I-249999J0D01*
G01*
X155049999Y-76350000D01*
G75*
G02*
X154800000Y-76100001I0J249999D01*
G01*
X154800000Y-75399999D01*
G75*
G02*
X155049999Y-75150000I249999J0D01*
G01*
G37*
%TD.AperFunction*%
%TD*%
%TO.P,R5,2*%
%TO.N,PRESSURE_SCL*%
%TA.AperFunction,SMDPad,CuDef*%
G36*
G01*
X155950001Y-84100000D02*
X155049999Y-84100000D01*
G75*
G02*
X154800000Y-83850001I0J249999D01*
G01*
X154800000Y-83149999D01*
G75*
G02*
X155049999Y-82900000I249999J0D01*
G01*
X155950001Y-82900000D01*
G75*
G02*
X156200000Y-83149999I0J-249999D01*
G01*
X156200000Y-83850001D01*
G75*
G02*
X155950001Y-84100000I-249999J0D01*
G01*
G37*
%TD.AperFunction*%
%TO.P,R5,1*%
%TO.N,+3V3*%
%TA.AperFunction,SMDPad,CuDef*%
G36*
G01*
X155950001Y-86100000D02*
X155049999Y-86100000D01*
G75*
G02*
X154800000Y-85850001I0J249999D01*
G01*
X154800000Y-85149999D01*
G75*
G02*
X155049999Y-84900000I249999J0D01*
G01*
X155950001Y-84900000D01*
G75*
G02*
X156200000Y-85149999I0J-249999D01*
G01*
X156200000Y-85850001D01*
G75*
G02*
X155950001Y-86100000I-249999J0D01*
G01*
G37*
%TD.AperFunction*%
%TD*%
%TO.P,R3,2*%
%TO.N,GND*%
%TA.AperFunction,SMDPad,CuDef*%
G36*
G01*
X127049999Y-93650000D02*
X127950001Y-93650000D01*
G75*
G02*
X128200000Y-93899999I0J-249999D01*
G01*
X128200000Y-94600001D01*
G75*
G02*
X127950001Y-94850000I-249999J0D01*
G01*
X127049999Y-94850000D01*
G75*
G02*
X126800000Y-94600001I0J249999D01*
G01*
X126800000Y-93899999D01*
G75*
G02*
X127049999Y-93650000I249999J0D01*
G01*
G37*
%TD.AperFunction*%
%TO.P,R3,1*%
%TO.N,Net-(D3-Pad1)*%
%TA.AperFunction,SMDPad,CuDef*%
G36*
G01*
X127049999Y-91650000D02*
X127950001Y-91650000D01*
G75*
G02*
X128200000Y-91899999I0J-249999D01*
G01*
X128200000Y-92600001D01*
G75*
G02*
X127950001Y-92850000I-249999J0D01*
G01*
X127049999Y-92850000D01*
G75*
G02*
X126800000Y-92600001I0J249999D01*
G01*
X126800000Y-91899999D01*
G75*
G02*
X127049999Y-91650000I249999J0D01*
G01*
G37*
%TD.AperFunction*%
%TD*%
%TO.P,R2,2*%
%TO.N,GND*%
%TA.AperFunction,SMDPad,CuDef*%
G36*
G01*
X124999999Y-93650000D02*
X125900001Y-93650000D01*
G75*
G02*
X126150000Y-93899999I0J-249999D01*
G01*
X126150000Y-94600001D01*
G75*
G02*
X125900001Y-94850000I-249999J0D01*
G01*
X124999999Y-94850000D01*
G75*
G02*
X124750000Y-94600001I0J249999D01*
G01*
X124750000Y-93899999D01*
G75*
G02*
X124999999Y-93650000I249999J0D01*
G01*
G37*
%TD.AperFunction*%
%TO.P,R2,1*%
%TO.N,Net-(D2-Pad1)*%
%TA.AperFunction,SMDPad,CuDef*%
G36*
G01*
X124999999Y-91650000D02*
X125900001Y-91650000D01*
G75*
G02*
X126150000Y-91899999I0J-249999D01*
G01*
X126150000Y-92600001D01*
G75*
G02*
X125900001Y-92850000I-249999J0D01*
G01*
X124999999Y-92850000D01*
G75*
G02*
X124750000Y-92600001I0J249999D01*
G01*
X124750000Y-91899999D01*
G75*
G02*
X124999999Y-91650000I249999J0D01*
G01*
G37*
%TD.AperFunction*%
%TD*%
%TO.P,R1,2*%
%TO.N,BOOT0*%
%TA.AperFunction,SMDPad,CuDef*%
G36*
G01*
X149260000Y-75126001D02*
X149260000Y-74225999D01*
G75*
G02*
X149509999Y-73976000I249999J0D01*
G01*
X150210001Y-73976000D01*
G75*
G02*
X150460000Y-74225999I0J-249999D01*
G01*
X150460000Y-75126001D01*
G75*
G02*
X150210001Y-75376000I-249999J0D01*
G01*
X149509999Y-75376000D01*
G75*
G02*
X149260000Y-75126001I0J249999D01*
G01*
G37*
%TD.AperFunction*%
%TO.P,R1,1*%
%TO.N,Net-(D4-Pad2)*%
%TA.AperFunction,SMDPad,CuDef*%
G36*
G01*
X147260000Y-75126001D02*
X147260000Y-74225999D01*
G75*
G02*
X147509999Y-73976000I249999J0D01*
G01*
X148210001Y-73976000D01*
G75*
G02*
X148460000Y-74225999I0J-249999D01*
G01*
X148460000Y-75126001D01*
G75*
G02*
X148210001Y-75376000I-249999J0D01*
G01*
X147509999Y-75376000D01*
G75*
G02*
X147260000Y-75126001I0J249999D01*
G01*
G37*
%TD.AperFunction*%
%TD*%
D17*
%TO.P,J6,2*%
%TO.N,GND*%
X158250000Y-66250000D03*
D18*
%TO.P,J6,1*%
%TO.N,+5V*%
X163250000Y-66250000D03*
%TD*%
D19*
%TO.P,J5,2*%
%TO.N,Net-(IC1-Pad3)*%
X121124980Y-80783220D03*
D20*
%TO.P,J5,1*%
%TO.N,GND*%
X122649980Y-79308220D03*
D19*
%TO.P,J5,2*%
%TO.N,Net-(IC1-Pad3)*%
X121124980Y-77833220D03*
%TD*%
D21*
%TO.P,H4,1*%
%TO.N,GND*%
X121697056Y-58302944D03*
X120000000Y-57600000D03*
X118302944Y-58302944D03*
X117600000Y-60000000D03*
X118302944Y-61697056D03*
X120000000Y-62400000D03*
X121697056Y-61697056D03*
X122400000Y-60000000D03*
D22*
X120000000Y-60000000D03*
%TD*%
D21*
%TO.P,H3,1*%
%TO.N,GND*%
X121697056Y-98302944D03*
X120000000Y-97600000D03*
X118302944Y-98302944D03*
X117600000Y-100000000D03*
X118302944Y-101697056D03*
X120000000Y-102400000D03*
X121697056Y-101697056D03*
X122400000Y-100000000D03*
D22*
X120000000Y-100000000D03*
%TD*%
D21*
%TO.P,H2,1*%
%TO.N,GND*%
X171697056Y-98302944D03*
X170000000Y-97600000D03*
X168302944Y-98302944D03*
X167600000Y-100000000D03*
X168302944Y-101697056D03*
X170000000Y-102400000D03*
X171697056Y-101697056D03*
X172400000Y-100000000D03*
D22*
X170000000Y-100000000D03*
%TD*%
D21*
%TO.P,H1,1*%
%TO.N,GND*%
X171697056Y-58302944D03*
X170000000Y-57600000D03*
X168302944Y-58302944D03*
X167600000Y-60000000D03*
X168302944Y-61697056D03*
X170000000Y-62400000D03*
X171697056Y-61697056D03*
X172400000Y-60000000D03*
D22*
X170000000Y-60000000D03*
%TD*%
%TO.P,FB1,2*%
%TO.N,Net-(C6-Pad1)*%
%TA.AperFunction,SMDPad,CuDef*%
G36*
G01*
X165019860Y-75477160D02*
X164544860Y-75477160D01*
G75*
G02*
X164307360Y-75239660I0J237500D01*
G01*
X164307360Y-74664660D01*
G75*
G02*
X164544860Y-74427160I237500J0D01*
G01*
X165019860Y-74427160D01*
G75*
G02*
X165257360Y-74664660I0J-237500D01*
G01*
X165257360Y-75239660D01*
G75*
G02*
X165019860Y-75477160I-237500J0D01*
G01*
G37*
%TD.AperFunction*%
%TO.P,FB1,1*%
%TO.N,Net-(F1-Pad2)*%
%TA.AperFunction,SMDPad,CuDef*%
G36*
G01*
X165019860Y-77227160D02*
X164544860Y-77227160D01*
G75*
G02*
X164307360Y-76989660I0J237500D01*
G01*
X164307360Y-76414660D01*
G75*
G02*
X164544860Y-76177160I237500J0D01*
G01*
X165019860Y-76177160D01*
G75*
G02*
X165257360Y-76414660I0J-237500D01*
G01*
X165257360Y-76989660D01*
G75*
G02*
X165019860Y-77227160I-237500J0D01*
G01*
G37*
%TD.AperFunction*%
%TD*%
%TO.P,D6,2*%
%TO.N,RADIO_LED*%
%TA.AperFunction,SMDPad,CuDef*%
G36*
G01*
X135400001Y-88987500D02*
X134599999Y-88987500D01*
G75*
G02*
X134350000Y-88737501I0J249999D01*
G01*
X134350000Y-87912499D01*
G75*
G02*
X134599999Y-87662500I249999J0D01*
G01*
X135400001Y-87662500D01*
G75*
G02*
X135650000Y-87912499I0J-249999D01*
G01*
X135650000Y-88737501D01*
G75*
G02*
X135400001Y-88987500I-249999J0D01*
G01*
G37*
%TD.AperFunction*%
%TO.P,D6,1*%
%TO.N,Net-(D6-Pad1)*%
%TA.AperFunction,SMDPad,CuDef*%
G36*
G01*
X135400001Y-90912500D02*
X134599999Y-90912500D01*
G75*
G02*
X134350000Y-90662501I0J249999D01*
G01*
X134350000Y-89837499D01*
G75*
G02*
X134599999Y-89587500I249999J0D01*
G01*
X135400001Y-89587500D01*
G75*
G02*
X135650000Y-89837499I0J-249999D01*
G01*
X135650000Y-90662501D01*
G75*
G02*
X135400001Y-90912500I-249999J0D01*
G01*
G37*
%TD.AperFunction*%
%TD*%
%TO.P,D5,2*%
%TO.N,CPU_LED*%
%TA.AperFunction,SMDPad,CuDef*%
G36*
G01*
X133150001Y-88912500D02*
X132349999Y-88912500D01*
G75*
G02*
X132100000Y-88662501I0J249999D01*
G01*
X132100000Y-87837499D01*
G75*
G02*
X132349999Y-87587500I249999J0D01*
G01*
X133150001Y-87587500D01*
G75*
G02*
X133400000Y-87837499I0J-249999D01*
G01*
X133400000Y-88662501D01*
G75*
G02*
X133150001Y-88912500I-249999J0D01*
G01*
G37*
%TD.AperFunction*%
%TO.P,D5,1*%
%TO.N,Net-(D5-Pad1)*%
%TA.AperFunction,SMDPad,CuDef*%
G36*
G01*
X133150001Y-90837500D02*
X132349999Y-90837500D01*
G75*
G02*
X132100000Y-90587501I0J249999D01*
G01*
X132100000Y-89762499D01*
G75*
G02*
X132349999Y-89512500I249999J0D01*
G01*
X133150001Y-89512500D01*
G75*
G02*
X133400000Y-89762499I0J-249999D01*
G01*
X133400000Y-90587501D01*
G75*
G02*
X133150001Y-90837500I-249999J0D01*
G01*
G37*
%TD.AperFunction*%
%TD*%
%TO.P,D4,2*%
%TO.N,Net-(D4-Pad2)*%
%TA.AperFunction,SMDPad,CuDef*%
G36*
G01*
X129900001Y-88987500D02*
X129099999Y-88987500D01*
G75*
G02*
X128850000Y-88737501I0J249999D01*
G01*
X128850000Y-87912499D01*
G75*
G02*
X129099999Y-87662500I249999J0D01*
G01*
X129900001Y-87662500D01*
G75*
G02*
X130150000Y-87912499I0J-249999D01*
G01*
X130150000Y-88737501D01*
G75*
G02*
X129900001Y-88987500I-249999J0D01*
G01*
G37*
%TD.AperFunction*%
%TO.P,D4,1*%
%TO.N,Net-(D4-Pad1)*%
%TA.AperFunction,SMDPad,CuDef*%
G36*
G01*
X129900001Y-90912500D02*
X129099999Y-90912500D01*
G75*
G02*
X128850000Y-90662501I0J249999D01*
G01*
X128850000Y-89837499D01*
G75*
G02*
X129099999Y-89587500I249999J0D01*
G01*
X129900001Y-89587500D01*
G75*
G02*
X130150000Y-89837499I0J-249999D01*
G01*
X130150000Y-90662501D01*
G75*
G02*
X129900001Y-90912500I-249999J0D01*
G01*
G37*
%TD.AperFunction*%
%TD*%
%TO.P,D3,2*%
%TO.N,LED_TX*%
%TA.AperFunction,SMDPad,CuDef*%
G36*
G01*
X127900001Y-88950000D02*
X127099999Y-88950000D01*
G75*
G02*
X126850000Y-88700001I0J249999D01*
G01*
X126850000Y-87874999D01*
G75*
G02*
X127099999Y-87625000I249999J0D01*
G01*
X127900001Y-87625000D01*
G75*
G02*
X128150000Y-87874999I0J-249999D01*
G01*
X128150000Y-88700001D01*
G75*
G02*
X127900001Y-88950000I-249999J0D01*
G01*
G37*
%TD.AperFunction*%
%TO.P,D3,1*%
%TO.N,Net-(D3-Pad1)*%
%TA.AperFunction,SMDPad,CuDef*%
G36*
G01*
X127900001Y-90875000D02*
X127099999Y-90875000D01*
G75*
G02*
X126850000Y-90625001I0J249999D01*
G01*
X126850000Y-89799999D01*
G75*
G02*
X127099999Y-89550000I249999J0D01*
G01*
X127900001Y-89550000D01*
G75*
G02*
X128150000Y-89799999I0J-249999D01*
G01*
X128150000Y-90625001D01*
G75*
G02*
X127900001Y-90875000I-249999J0D01*
G01*
G37*
%TD.AperFunction*%
%TD*%
%TO.P,D2,2*%
%TO.N,LED_RX*%
%TA.AperFunction,SMDPad,CuDef*%
G36*
G01*
X125850001Y-88987500D02*
X125049999Y-88987500D01*
G75*
G02*
X124800000Y-88737501I0J249999D01*
G01*
X124800000Y-87912499D01*
G75*
G02*
X125049999Y-87662500I249999J0D01*
G01*
X125850001Y-87662500D01*
G75*
G02*
X126100000Y-87912499I0J-249999D01*
G01*
X126100000Y-88737501D01*
G75*
G02*
X125850001Y-88987500I-249999J0D01*
G01*
G37*
%TD.AperFunction*%
%TO.P,D2,1*%
%TO.N,Net-(D2-Pad1)*%
%TA.AperFunction,SMDPad,CuDef*%
G36*
G01*
X125850001Y-90912500D02*
X125049999Y-90912500D01*
G75*
G02*
X124800000Y-90662501I0J249999D01*
G01*
X124800000Y-89837499D01*
G75*
G02*
X125049999Y-89587500I249999J0D01*
G01*
X125850001Y-89587500D01*
G75*
G02*
X126100000Y-89837499I0J-249999D01*
G01*
X126100000Y-90662501D01*
G75*
G02*
X125850001Y-90912500I-249999J0D01*
G01*
G37*
%TD.AperFunction*%
%TD*%
%TO.P,C8,2*%
%TO.N,GND*%
%TA.AperFunction,SMDPad,CuDef*%
G36*
G01*
X132675000Y-74262500D02*
X132675000Y-74737500D01*
G75*
G02*
X132437500Y-74975000I-237500J0D01*
G01*
X131837500Y-74975000D01*
G75*
G02*
X131600000Y-74737500I0J237500D01*
G01*
X131600000Y-74262500D01*
G75*
G02*
X131837500Y-74025000I237500J0D01*
G01*
X132437500Y-74025000D01*
G75*
G02*
X132675000Y-74262500I0J-237500D01*
G01*
G37*
%TD.AperFunction*%
%TO.P,C8,1*%
%TO.N,+3V3*%
%TA.AperFunction,SMDPad,CuDef*%
G36*
G01*
X134400000Y-74262500D02*
X134400000Y-74737500D01*
G75*
G02*
X134162500Y-74975000I-237500J0D01*
G01*
X133562500Y-74975000D01*
G75*
G02*
X133325000Y-74737500I0J237500D01*
G01*
X133325000Y-74262500D01*
G75*
G02*
X133562500Y-74025000I237500J0D01*
G01*
X134162500Y-74025000D01*
G75*
G02*
X134400000Y-74262500I0J-237500D01*
G01*
G37*
%TD.AperFunction*%
%TD*%
%TO.P,C7,2*%
%TO.N,GND*%
%TA.AperFunction,SMDPad,CuDef*%
G36*
G01*
X159762060Y-75385460D02*
X159287060Y-75385460D01*
G75*
G02*
X159049560Y-75147960I0J237500D01*
G01*
X159049560Y-74547960D01*
G75*
G02*
X159287060Y-74310460I237500J0D01*
G01*
X159762060Y-74310460D01*
G75*
G02*
X159999560Y-74547960I0J-237500D01*
G01*
X159999560Y-75147960D01*
G75*
G02*
X159762060Y-75385460I-237500J0D01*
G01*
G37*
%TD.AperFunction*%
%TO.P,C7,1*%
%TO.N,+3V3*%
%TA.AperFunction,SMDPad,CuDef*%
G36*
G01*
X159762060Y-77110460D02*
X159287060Y-77110460D01*
G75*
G02*
X159049560Y-76872960I0J237500D01*
G01*
X159049560Y-76272960D01*
G75*
G02*
X159287060Y-76035460I237500J0D01*
G01*
X159762060Y-76035460D01*
G75*
G02*
X159999560Y-76272960I0J-237500D01*
G01*
X159999560Y-76872960D01*
G75*
G02*
X159762060Y-77110460I-237500J0D01*
G01*
G37*
%TD.AperFunction*%
%TD*%
%TO.P,C5,2*%
%TO.N,GND*%
%TA.AperFunction,SMDPad,CuDef*%
G36*
G01*
X138737500Y-75675000D02*
X138262500Y-75675000D01*
G75*
G02*
X138025000Y-75437500I0J237500D01*
G01*
X138025000Y-74837500D01*
G75*
G02*
X138262500Y-74600000I237500J0D01*
G01*
X138737500Y-74600000D01*
G75*
G02*
X138975000Y-74837500I0J-237500D01*
G01*
X138975000Y-75437500D01*
G75*
G02*
X138737500Y-75675000I-237500J0D01*
G01*
G37*
%TD.AperFunction*%
%TO.P,C5,1*%
%TO.N,+3V3*%
%TA.AperFunction,SMDPad,CuDef*%
G36*
G01*
X138737500Y-77400000D02*
X138262500Y-77400000D01*
G75*
G02*
X138025000Y-77162500I0J237500D01*
G01*
X138025000Y-76562500D01*
G75*
G02*
X138262500Y-76325000I237500J0D01*
G01*
X138737500Y-76325000D01*
G75*
G02*
X138975000Y-76562500I0J-237500D01*
G01*
X138975000Y-77162500D01*
G75*
G02*
X138737500Y-77400000I-237500J0D01*
G01*
G37*
%TD.AperFunction*%
%TD*%
%TO.P,C4,2*%
%TO.N,GND*%
%TA.AperFunction,SMDPad,CuDef*%
G36*
G01*
X143537500Y-91262500D02*
X143537500Y-91737500D01*
G75*
G02*
X143300000Y-91975000I-237500J0D01*
G01*
X142700000Y-91975000D01*
G75*
G02*
X142462500Y-91737500I0J237500D01*
G01*
X142462500Y-91262500D01*
G75*
G02*
X142700000Y-91025000I237500J0D01*
G01*
X143300000Y-91025000D01*
G75*
G02*
X143537500Y-91262500I0J-237500D01*
G01*
G37*
%TD.AperFunction*%
%TO.P,C4,1*%
%TO.N,+3V3*%
%TA.AperFunction,SMDPad,CuDef*%
G36*
G01*
X145262500Y-91262500D02*
X145262500Y-91737500D01*
G75*
G02*
X145025000Y-91975000I-237500J0D01*
G01*
X144425000Y-91975000D01*
G75*
G02*
X144187500Y-91737500I0J237500D01*
G01*
X144187500Y-91262500D01*
G75*
G02*
X144425000Y-91025000I237500J0D01*
G01*
X145025000Y-91025000D01*
G75*
G02*
X145262500Y-91262500I0J-237500D01*
G01*
G37*
%TD.AperFunction*%
%TD*%
%TO.P,C3,2*%
%TO.N,GND*%
%TA.AperFunction,SMDPad,CuDef*%
G36*
G01*
X144089000Y-74405500D02*
X144089000Y-73930500D01*
G75*
G02*
X144326500Y-73693000I237500J0D01*
G01*
X144926500Y-73693000D01*
G75*
G02*
X145164000Y-73930500I0J-237500D01*
G01*
X145164000Y-74405500D01*
G75*
G02*
X144926500Y-74643000I-237500J0D01*
G01*
X144326500Y-74643000D01*
G75*
G02*
X144089000Y-74405500I0J237500D01*
G01*
G37*
%TD.AperFunction*%
%TO.P,C3,1*%
%TO.N,+3V3*%
%TA.AperFunction,SMDPad,CuDef*%
G36*
G01*
X142364000Y-74405500D02*
X142364000Y-73930500D01*
G75*
G02*
X142601500Y-73693000I237500J0D01*
G01*
X143201500Y-73693000D01*
G75*
G02*
X143439000Y-73930500I0J-237500D01*
G01*
X143439000Y-74405500D01*
G75*
G02*
X143201500Y-74643000I-237500J0D01*
G01*
X142601500Y-74643000D01*
G75*
G02*
X142364000Y-74405500I0J237500D01*
G01*
G37*
%TD.AperFunction*%
%TD*%
%TO.P,C2,2*%
%TO.N,GND*%
%TA.AperFunction,SMDPad,CuDef*%
G36*
G01*
X143537500Y-87762500D02*
X143537500Y-88237500D01*
G75*
G02*
X143300000Y-88475000I-237500J0D01*
G01*
X142700000Y-88475000D01*
G75*
G02*
X142462500Y-88237500I0J237500D01*
G01*
X142462500Y-87762500D01*
G75*
G02*
X142700000Y-87525000I237500J0D01*
G01*
X143300000Y-87525000D01*
G75*
G02*
X143537500Y-87762500I0J-237500D01*
G01*
G37*
%TD.AperFunction*%
%TO.P,C2,1*%
%TO.N,+3V3*%
%TA.AperFunction,SMDPad,CuDef*%
G36*
G01*
X145262500Y-87762500D02*
X145262500Y-88237500D01*
G75*
G02*
X145025000Y-88475000I-237500J0D01*
G01*
X144425000Y-88475000D01*
G75*
G02*
X144187500Y-88237500I0J237500D01*
G01*
X144187500Y-87762500D01*
G75*
G02*
X144425000Y-87525000I237500J0D01*
G01*
X145025000Y-87525000D01*
G75*
G02*
X145262500Y-87762500I0J-237500D01*
G01*
G37*
%TD.AperFunction*%
%TD*%
%TO.P,C1,2*%
%TO.N,GND*%
%TA.AperFunction,SMDPad,CuDef*%
G36*
G01*
X143487500Y-89512500D02*
X143487500Y-89987500D01*
G75*
G02*
X143250000Y-90225000I-237500J0D01*
G01*
X142750000Y-90225000D01*
G75*
G02*
X142512500Y-89987500I0J237500D01*
G01*
X142512500Y-89512500D01*
G75*
G02*
X142750000Y-89275000I237500J0D01*
G01*
X143250000Y-89275000D01*
G75*
G02*
X143487500Y-89512500I0J-237500D01*
G01*
G37*
%TD.AperFunction*%
%TO.P,C1,1*%
%TO.N,+3V3*%
%TA.AperFunction,SMDPad,CuDef*%
G36*
G01*
X145312500Y-89512500D02*
X145312500Y-89987500D01*
G75*
G02*
X145075000Y-90225000I-237500J0D01*
G01*
X144575000Y-90225000D01*
G75*
G02*
X144337500Y-89987500I0J237500D01*
G01*
X144337500Y-89512500D01*
G75*
G02*
X144575000Y-89275000I237500J0D01*
G01*
X145075000Y-89275000D01*
G75*
G02*
X145312500Y-89512500I0J-237500D01*
G01*
G37*
%TD.AperFunction*%
%TD*%
D23*
%TO.N,GND*%
X142070000Y-90000000D03*
X142102000Y-88000000D03*
X144626500Y-73326500D03*
X134500000Y-78500000D03*
X121718600Y-79308220D03*
X127500000Y-80250000D03*
X129500000Y-80250000D03*
X131500000Y-80250000D03*
X130550000Y-79250000D03*
X128450000Y-79250000D03*
X128500000Y-81250000D03*
X130500000Y-81250000D03*
X126325000Y-78075000D03*
X126300000Y-80050000D03*
X126275000Y-81225000D03*
X129500000Y-74500000D03*
X129500000Y-85500000D03*
X118500000Y-85500000D03*
X118500000Y-74500000D03*
X118500000Y-80000000D03*
X118500000Y-77500000D03*
X118500000Y-83000000D03*
X121500000Y-85500000D03*
X125000000Y-85500000D03*
X125000000Y-74500000D03*
X121500000Y-74500000D03*
X158650000Y-79500000D03*
X142000000Y-91500000D03*
X135000000Y-95600000D03*
X132800000Y-95600000D03*
X129600000Y-95600000D03*
X127400000Y-95600000D03*
X125400000Y-95600000D03*
X137500000Y-74250000D03*
X119250000Y-72000000D03*
X134000000Y-72250000D03*
X119250000Y-67750000D03*
X119250000Y-64250000D03*
X144750000Y-58500000D03*
X124750000Y-58500000D03*
X165250000Y-58500000D03*
X155250000Y-58500000D03*
X134250000Y-58500000D03*
X160500000Y-58500000D03*
X150250000Y-58500000D03*
X139500000Y-58500000D03*
X129250000Y-58500000D03*
X154750000Y-72250000D03*
X160500000Y-71000000D03*
X160750000Y-64000000D03*
X166000000Y-63250000D03*
X158000000Y-72250000D03*
X127000000Y-72000000D03*
X135000000Y-65750000D03*
X138750000Y-63750000D03*
X143000000Y-63500000D03*
X149000000Y-70500000D03*
X150500000Y-69250000D03*
X150500000Y-64750000D03*
X154500000Y-64750000D03*
X154750000Y-68500000D03*
X150500000Y-67000000D03*
X123250000Y-72000000D03*
X131000000Y-72000000D03*
X160500000Y-68250000D03*
X165250000Y-60750000D03*
X145000000Y-68750000D03*
X144999999Y-71500001D03*
%TO.N,+3V3*%
X141732000Y-74168000D03*
X145680000Y-88000000D03*
X145712000Y-90000000D03*
X133862500Y-73637500D03*
X145750000Y-91500000D03*
X140250000Y-74750000D03*
X158600000Y-81500000D03*
X162750000Y-78250000D03*
X170000000Y-80000000D03*
X170000000Y-85500000D03*
X170000000Y-82750000D03*
X157500000Y-85500000D03*
X164000000Y-85500000D03*
X167000000Y-85500000D03*
X160750000Y-85500000D03*
X164000000Y-80000000D03*
X167000000Y-80000000D03*
X157500000Y-83250000D03*
X157677040Y-77000000D03*
%TO.N,LED_RX*%
X125450000Y-87300000D03*
%TO.N,LED_TX*%
X127500000Y-87250000D03*
%TO.N,Net-(D4-Pad2)*%
X129500000Y-87250000D03*
%TO.N,LPUART1_TX*%
X136940000Y-81320000D03*
%TO.N,LPUART1_RX*%
X137460000Y-82920000D03*
%TO.N,PRESSURE_SDA*%
X148250000Y-85250000D03*
X154150000Y-78900000D03*
%TO.N,PRESSURE_SCL*%
X147320000Y-86106000D03*
X154050000Y-83750000D03*
%TO.N,NRST*%
X141932660Y-78610460D03*
%TD*%
D24*
%TO.N,*%
X148115001Y-65437999D02*
X147336983Y-64659981D01*
D25*
%TO.N,GND*%
X143000000Y-88000000D02*
X143000000Y-86154342D01*
X143000000Y-86154342D02*
X142777728Y-85932070D01*
X161112500Y-74887500D02*
X161130000Y-74870000D01*
X161025000Y-74765000D02*
X161130000Y-74870000D01*
D26*
X143000000Y-90000000D02*
X143000000Y-88000000D01*
D25*
X143000000Y-90000000D02*
X142070000Y-90000000D01*
X143000000Y-88000000D02*
X142102000Y-88000000D01*
X142070000Y-90000000D02*
X142070000Y-90000000D01*
X142102000Y-88000000D02*
X142102000Y-88000000D01*
X144722272Y-74263772D02*
X144626500Y-74168000D01*
X144722272Y-76067930D02*
X144722272Y-74263772D01*
X144626500Y-74168000D02*
X144626500Y-73326500D01*
X144626500Y-73326500D02*
X144626500Y-73326500D01*
X133600000Y-78625000D02*
X134375000Y-78625000D01*
X134375000Y-78625000D02*
X134500000Y-78500000D01*
X134500000Y-78500000D02*
X134500000Y-78500000D01*
X122649980Y-79308220D02*
X121718600Y-79308220D01*
X121718600Y-79308220D02*
X121718600Y-79308220D01*
X127500000Y-79250000D02*
X127500000Y-79300000D01*
X125400000Y-78625000D02*
X125925000Y-78625000D01*
X125925000Y-78625000D02*
X126050000Y-78750000D01*
X127500000Y-79250000D02*
X128450000Y-79250000D01*
X129500000Y-79250000D02*
X130550000Y-79250000D01*
X131500000Y-81250000D02*
X131500000Y-80250000D01*
X131500000Y-81250000D02*
X130500000Y-81250000D01*
X129500000Y-81250000D02*
X128500000Y-81250000D01*
X129500000Y-79250000D02*
X129500000Y-80250000D01*
X127500000Y-81250000D02*
X127500000Y-80250000D01*
X127000000Y-78750000D02*
X127500000Y-79250000D01*
X126050000Y-78750000D02*
X127000000Y-78750000D01*
X126225000Y-77975000D02*
X126325000Y-78075000D01*
X125400000Y-77975000D02*
X126225000Y-77975000D01*
X132125000Y-78625000D02*
X131500000Y-79250000D01*
X133600000Y-78625000D02*
X132125000Y-78625000D01*
X127475000Y-81225000D02*
X127500000Y-81250000D01*
X125400000Y-81225000D02*
X126275000Y-81225000D01*
X126175000Y-79925000D02*
X126300000Y-80050000D01*
X125400000Y-79925000D02*
X126175000Y-79925000D01*
X127500000Y-80250000D02*
X127500000Y-79250000D01*
X129500000Y-80250000D02*
X129500000Y-81250000D01*
X131500000Y-80250000D02*
X131500000Y-79250000D01*
X130550000Y-79250000D02*
X131500000Y-79250000D01*
X128450000Y-79250000D02*
X129500000Y-79250000D01*
X128500000Y-81250000D02*
X127500000Y-81250000D01*
X130500000Y-81250000D02*
X129500000Y-81250000D01*
X126325000Y-78075000D02*
X127500000Y-79250000D01*
X126300000Y-80050000D02*
X127500000Y-81250000D01*
X126275000Y-81225000D02*
X127475000Y-81225000D01*
X158700000Y-79550000D02*
X158650000Y-79500000D01*
X159750000Y-79550000D02*
X158700000Y-79550000D01*
X161107960Y-74847960D02*
X161130000Y-74870000D01*
X159524560Y-74847960D02*
X161107960Y-74847960D01*
X161165400Y-74834600D02*
X161130000Y-74870000D01*
X161165400Y-73222360D02*
X161165400Y-74834600D01*
D26*
X143000000Y-91500000D02*
X142000000Y-91500000D01*
X142000000Y-91500000D02*
X142000000Y-91500000D01*
D25*
X159524560Y-67524560D02*
X158250000Y-66250000D01*
X159524560Y-74847960D02*
X159524560Y-67524560D01*
D26*
X138500000Y-75137500D02*
X138387500Y-75137500D01*
X138387500Y-75137500D02*
X137500000Y-74250000D01*
D25*
X144999999Y-71500001D02*
X147480001Y-71500001D01*
D27*
X132137500Y-74500000D02*
X132137500Y-72637500D01*
D25*
%TO.N,+3V3*%
X142362500Y-75652702D02*
X142777728Y-76067930D01*
D28*
X133600000Y-74762500D02*
X133862500Y-74500000D01*
X133600000Y-77975000D02*
X133600000Y-74762500D01*
X160972500Y-76612500D02*
X161130000Y-76770000D01*
D26*
X144825000Y-88100000D02*
X144725000Y-88000000D01*
X144825000Y-90000000D02*
X144825000Y-88100000D01*
X144725000Y-85934798D02*
X144722272Y-85932070D01*
X144725000Y-88000000D02*
X144725000Y-85934798D01*
D28*
X144825000Y-90000000D02*
X145712000Y-90000000D01*
X144725000Y-88000000D02*
X145680000Y-88000000D01*
X145680000Y-88000000D02*
X145680000Y-88000000D01*
X145712000Y-90000000D02*
X145712000Y-90000000D01*
X142588547Y-74480953D02*
X142901500Y-74168000D01*
X142588547Y-75878749D02*
X142588547Y-74480953D01*
X142777728Y-76067930D02*
X142588547Y-75878749D01*
X142901500Y-74168000D02*
X141732000Y-74168000D01*
D26*
X139184314Y-77000000D02*
X138500000Y-77000000D01*
X140514986Y-78330672D02*
X139184314Y-77000000D01*
D28*
X133862500Y-74500000D02*
X133862500Y-73637500D01*
X133862500Y-73637500D02*
X133862500Y-73637500D01*
X158825000Y-81275000D02*
X158600000Y-81500000D01*
X159750000Y-81275000D02*
X158825000Y-81275000D01*
X160932960Y-76572960D02*
X161130000Y-76770000D01*
X159524560Y-76572960D02*
X160932960Y-76572960D01*
D26*
X144725000Y-91500000D02*
X145750000Y-91500000D01*
X145750000Y-91500000D02*
X145750000Y-91500000D01*
D28*
X156598791Y-76572960D02*
X155637915Y-75612084D01*
X159524560Y-76572960D02*
X157677040Y-76572960D01*
X155500000Y-85500000D02*
X156750000Y-85500000D01*
X156750000Y-85500000D02*
X156750000Y-85500000D01*
D26*
X138500000Y-76862500D02*
X139037500Y-76862500D01*
X140450000Y-75450000D02*
X140450000Y-74950000D01*
X139037500Y-76862500D02*
X140450000Y-75450000D01*
X140450000Y-74950000D02*
X140250000Y-74750000D01*
X140250000Y-74750000D02*
X140250000Y-74750000D01*
D28*
X157677040Y-76572960D02*
X156598791Y-76572960D01*
D25*
%TO.N,Net-(C6-Pad1)*%
X163997840Y-74952160D02*
X163130000Y-75820000D01*
X164782360Y-74952160D02*
X163997840Y-74952160D01*
X162890400Y-75580400D02*
X163130000Y-75820000D01*
X162890400Y-73222360D02*
X162890400Y-75580400D01*
D28*
%TO.N,+5V*%
X163600000Y-66600000D02*
X163250000Y-66250000D01*
D29*
X168250000Y-66250000D02*
X169000000Y-67000000D01*
X163250000Y-66250000D02*
X168250000Y-66250000D01*
%TO.N,Net-(D1-Pad1)*%
X169000000Y-75861060D02*
X169541380Y-76402440D01*
X169000000Y-72000000D02*
X169000000Y-75861060D01*
D25*
%TO.N,LED_RX*%
X125007498Y-88212500D02*
X125450000Y-88212500D01*
X125450000Y-88325000D02*
X125450000Y-87300000D01*
X125450000Y-87300000D02*
X125450000Y-87300000D01*
%TO.N,Net-(D2-Pad1)*%
X125450000Y-90137500D02*
X125450000Y-92175000D01*
%TO.N,LED_TX*%
X127500000Y-88287500D02*
X127500000Y-87250000D01*
X127500000Y-87250000D02*
X127500000Y-87250000D01*
%TO.N,Net-(D3-Pad1)*%
X127500000Y-90075000D02*
X127500000Y-92075000D01*
%TO.N,Net-(D4-Pad2)*%
X152500000Y-69336000D02*
X152500000Y-69040000D01*
X147860000Y-73976000D02*
X152500000Y-69336000D01*
X147860000Y-74676000D02*
X147860000Y-73976000D01*
X129500000Y-88325000D02*
X129500000Y-87250000D01*
X129500000Y-87250000D02*
X129500000Y-87250000D01*
%TO.N,Net-(D4-Pad1)*%
X129500000Y-92200000D02*
X129550000Y-92250000D01*
X129500000Y-90250000D02*
X129500000Y-92200000D01*
%TO.N,CPU_LED*%
X132750000Y-88250000D02*
X132950000Y-88050000D01*
X131450000Y-86950000D02*
X132750000Y-88250000D01*
X131450000Y-83350000D02*
X131450000Y-86950000D01*
%TO.N,Net-(D5-Pad1)*%
X132750000Y-90175000D02*
X132750000Y-92250000D01*
%TO.N,RADIO_LED*%
X134450690Y-88325000D02*
X135000000Y-88325000D01*
X132100000Y-85974310D02*
X134450690Y-88325000D01*
X132100000Y-83350000D02*
X132100000Y-85974310D01*
%TO.N,Net-(D6-Pad1)*%
X135000000Y-90250000D02*
X135000000Y-92250000D01*
%TO.N,RESET_N*%
X134798002Y-79275000D02*
X135225001Y-78848001D01*
X133600000Y-79275000D02*
X134798002Y-79275000D01*
X133790000Y-69540000D02*
X132660000Y-69540000D01*
X135225001Y-70975001D02*
X133790000Y-69540000D01*
X135225001Y-78848001D02*
X135225001Y-70975001D01*
D24*
%TO.N,DBG_EN*%
X145884999Y-67924999D02*
X147000000Y-69040000D01*
X145884999Y-67207997D02*
X145884999Y-67924999D01*
X137937999Y-65384999D02*
X144062001Y-65384999D01*
X144062001Y-65384999D02*
X145884999Y-67207997D01*
X135855011Y-67467987D02*
X137937999Y-65384999D01*
X135855011Y-78769547D02*
X135855011Y-67467987D01*
X134699558Y-79925000D02*
X135855011Y-78769547D01*
X133600000Y-79925000D02*
X134699558Y-79925000D01*
D25*
%TO.N,TX_LED+DBG_CLK*%
X142750000Y-68790000D02*
X143000000Y-69040000D01*
X142750000Y-68250000D02*
X142750000Y-68790000D01*
D24*
X141884999Y-67924999D02*
X143000000Y-69040000D01*
X138464799Y-67924999D02*
X141884999Y-67924999D01*
X136185021Y-70204777D02*
X138464799Y-67924999D01*
X136185021Y-79245655D02*
X136185021Y-70204777D01*
X134855676Y-80575000D02*
X136185021Y-79245655D01*
X133600000Y-80575000D02*
X134855676Y-80575000D01*
D25*
%TO.N,RX_LED+DBG_DATA*%
X136575031Y-70924969D02*
X139000000Y-68500000D01*
X136575031Y-79407201D02*
X136575031Y-70924969D01*
X134757232Y-81225000D02*
X136575031Y-79407201D01*
X133600000Y-81225000D02*
X134757232Y-81225000D01*
%TO.N,LPUART1_TX*%
X136970658Y-81875000D02*
X133600000Y-81875000D01*
X137237829Y-81607829D02*
X137227829Y-81607829D01*
X138817930Y-80027728D02*
X137237829Y-81607829D01*
X137237829Y-81607829D02*
X136970658Y-81875000D01*
X137227829Y-81607829D02*
X136940000Y-81320000D01*
X136940000Y-81320000D02*
X136940000Y-81320000D01*
%TO.N,LPUART1_RX*%
X138817930Y-81972272D02*
X138265202Y-82525000D01*
X137275000Y-82525000D02*
X137275000Y-82735000D01*
X138265202Y-82525000D02*
X137275000Y-82525000D01*
X137275000Y-82735000D02*
X137460000Y-82920000D01*
X137460000Y-82920000D02*
X137460000Y-82920000D01*
X137275000Y-82525000D02*
X133600000Y-82525000D01*
%TO.N,DEEP_SLEEP_WAKUP*%
X135535002Y-83350000D02*
X132750000Y-83350000D01*
X137966041Y-85781039D02*
X135535002Y-83350000D01*
X141797388Y-85781039D02*
X137966041Y-85781039D01*
X142212043Y-85366384D02*
X141797388Y-85781039D01*
D30*
%TO.N,Net-(IC1-Pad3)*%
X123561408Y-77833220D02*
X121124980Y-77833220D01*
X125003188Y-79275000D02*
X123561408Y-77833220D01*
X125400000Y-79275000D02*
X125003188Y-79275000D01*
X123494968Y-80783220D02*
X121124980Y-80783220D01*
X125003188Y-79275000D02*
X123494968Y-80783220D01*
D25*
%TO.N,PRESSURE_SDA*%
X155300000Y-77750000D02*
X154150000Y-78900000D01*
X155500000Y-77750000D02*
X155300000Y-77750000D01*
X147434314Y-85250000D02*
X148250000Y-85250000D01*
X146419328Y-84235014D02*
X147434314Y-85250000D01*
%TO.N,PRESSURE_SCL*%
X146014699Y-84800699D02*
X147320000Y-86106000D01*
X145853643Y-84800699D02*
X146014699Y-84800699D01*
X155250000Y-83750000D02*
X155500000Y-83500000D01*
X154050000Y-83750000D02*
X155250000Y-83750000D01*
D26*
%TO.N,NRST*%
X141080672Y-77764986D02*
X141080672Y-77783872D01*
X141080672Y-77764986D02*
X141087186Y-77764986D01*
X141087186Y-77764986D02*
X141932660Y-78610460D01*
X141932660Y-78610460D02*
X141932660Y-78610460D01*
X141932660Y-78610460D02*
X141932660Y-78610460D01*
%TO.N,SWCLK*%
X153209808Y-86959808D02*
X155960000Y-89710000D01*
X153209808Y-86500010D02*
X153209808Y-86959808D01*
X148682070Y-81972272D02*
X153209808Y-86500010D01*
%TO.N,SWDIO*%
X152169999Y-86591572D02*
X148116384Y-82537957D01*
X152169999Y-90310001D02*
X152169999Y-86591572D01*
X152819999Y-90960001D02*
X152169999Y-90310001D01*
X157249999Y-90960001D02*
X152819999Y-90960001D01*
X158500000Y-89710000D02*
X157249999Y-90960001D01*
D25*
%TO.N,BOOT0*%
X145287957Y-76633616D02*
X145489384Y-76633616D01*
X145702612Y-76218961D02*
X145287957Y-76633616D01*
X148317039Y-76218961D02*
X145702612Y-76218961D01*
X149860000Y-74676000D02*
X148317039Y-76218961D01*
D26*
%TO.N,Net-(F1-Pad2)*%
X166266660Y-76702160D02*
X166566380Y-76402440D01*
X164782360Y-76702160D02*
X166266660Y-76702160D01*
%TD*%
D31*
%TO.N,GND*%
X130373000Y-74873000D02*
X119000000Y-74873000D01*
X118975224Y-74875440D01*
X118951399Y-74882667D01*
X118929443Y-74894403D01*
X118910197Y-74910197D01*
X118894403Y-74929443D01*
X118882667Y-74951399D01*
X118875440Y-74975224D01*
X118873000Y-75000000D01*
X118873000Y-85000000D01*
X118875440Y-85024776D01*
X118882667Y-85048601D01*
X118894403Y-85070557D01*
X118910197Y-85089803D01*
X118929443Y-85105597D01*
X118951399Y-85117333D01*
X118975224Y-85124560D01*
X119000000Y-85127000D01*
X130623000Y-85127000D01*
X130623000Y-85873000D01*
X118127000Y-85873000D01*
X118127000Y-74127000D01*
X130373000Y-74127000D01*
X130373000Y-74873000D01*
%TA.AperFunction,Conductor*%
D32*
G36*
X130373000Y-74873000D02*
G01*
X119000000Y-74873000D01*
X118975224Y-74875440D01*
X118951399Y-74882667D01*
X118929443Y-74894403D01*
X118910197Y-74910197D01*
X118894403Y-74929443D01*
X118882667Y-74951399D01*
X118875440Y-74975224D01*
X118873000Y-75000000D01*
X118873000Y-85000000D01*
X118875440Y-85024776D01*
X118882667Y-85048601D01*
X118894403Y-85070557D01*
X118910197Y-85089803D01*
X118929443Y-85105597D01*
X118951399Y-85117333D01*
X118975224Y-85124560D01*
X119000000Y-85127000D01*
X130623000Y-85127000D01*
X130623000Y-85873000D01*
X118127000Y-85873000D01*
X118127000Y-74127000D01*
X130373000Y-74127000D01*
X130373000Y-74873000D01*
G37*
%TD.AperFunction*%
%TD*%
D31*
%TO.N,GND*%
X124415000Y-87198061D02*
X124415000Y-87293114D01*
X124311595Y-87419113D01*
X124229528Y-87572649D01*
X124178992Y-87739245D01*
X124161928Y-87912499D01*
X124161928Y-88737501D01*
X124178992Y-88910755D01*
X124229528Y-89077351D01*
X124311595Y-89230887D01*
X124358056Y-89287500D01*
X124311595Y-89344113D01*
X124229528Y-89497649D01*
X124178992Y-89664245D01*
X124161928Y-89837499D01*
X124161928Y-90662501D01*
X124178992Y-90835755D01*
X124229528Y-91002351D01*
X124311595Y-91155887D01*
X124392880Y-91254933D01*
X124372038Y-91272038D01*
X124261595Y-91406613D01*
X124179528Y-91560149D01*
X124128992Y-91726745D01*
X124111928Y-91899999D01*
X124111928Y-92600001D01*
X124128992Y-92773255D01*
X124179528Y-92939851D01*
X124261595Y-93093387D01*
X124328276Y-93174637D01*
X124298815Y-93198815D01*
X124219463Y-93295506D01*
X124160498Y-93405820D01*
X124124188Y-93525518D01*
X124111928Y-93650000D01*
X124115000Y-93964250D01*
X124273750Y-94123000D01*
X125323000Y-94123000D01*
X125323000Y-94103000D01*
X125577000Y-94103000D01*
X125577000Y-94123000D01*
X127373000Y-94123000D01*
X127373000Y-94103000D01*
X127627000Y-94103000D01*
X127627000Y-94123000D01*
X129423000Y-94123000D01*
X129423000Y-94103000D01*
X129677000Y-94103000D01*
X129677000Y-94123000D01*
X130726250Y-94123000D01*
X130885000Y-93964250D01*
X130888072Y-93650000D01*
X130875812Y-93525518D01*
X130839502Y-93405820D01*
X130780537Y-93295506D01*
X130701185Y-93198815D01*
X130671724Y-93174637D01*
X130738405Y-93093387D01*
X130820472Y-92939851D01*
X130871008Y-92773255D01*
X130888072Y-92600001D01*
X130888072Y-91899999D01*
X130871008Y-91726745D01*
X130820472Y-91560149D01*
X130738405Y-91406613D01*
X130627962Y-91272038D01*
X130577243Y-91230414D01*
X130638405Y-91155887D01*
X130720472Y-91002351D01*
X130771008Y-90835755D01*
X130788072Y-90662501D01*
X130788072Y-89837499D01*
X130771008Y-89664245D01*
X130720472Y-89497649D01*
X130638405Y-89344113D01*
X130591944Y-89287500D01*
X130638405Y-89230887D01*
X130720472Y-89077351D01*
X130771008Y-88910755D01*
X130788072Y-88737501D01*
X130788072Y-87912499D01*
X130771008Y-87739245D01*
X130720472Y-87572649D01*
X130638405Y-87419113D01*
X130535000Y-87293114D01*
X130535000Y-87148061D01*
X130530811Y-87127000D01*
X130709496Y-87127000D01*
X130744454Y-87242246D01*
X130815026Y-87374276D01*
X130876340Y-87448986D01*
X130910000Y-87490001D01*
X130938998Y-87513799D01*
X131461928Y-88036729D01*
X131461928Y-88662501D01*
X131478992Y-88835755D01*
X131529528Y-89002351D01*
X131611595Y-89155887D01*
X131658056Y-89212500D01*
X131611595Y-89269113D01*
X131529528Y-89422649D01*
X131478992Y-89589245D01*
X131461928Y-89762499D01*
X131461928Y-90587501D01*
X131478992Y-90760755D01*
X131529528Y-90927351D01*
X131611595Y-91080887D01*
X131722038Y-91215462D01*
X131731507Y-91223233D01*
X131672038Y-91272038D01*
X131561595Y-91406613D01*
X131479528Y-91560149D01*
X131428992Y-91726745D01*
X131411928Y-91899999D01*
X131411928Y-92600001D01*
X131428992Y-92773255D01*
X131479528Y-92939851D01*
X131561595Y-93093387D01*
X131628276Y-93174637D01*
X131598815Y-93198815D01*
X131519463Y-93295506D01*
X131460498Y-93405820D01*
X131424188Y-93525518D01*
X131411928Y-93650000D01*
X131415000Y-93964250D01*
X131573750Y-94123000D01*
X132623000Y-94123000D01*
X132623000Y-94103000D01*
X132877000Y-94103000D01*
X132877000Y-94123000D01*
X134873000Y-94123000D01*
X134873000Y-94103000D01*
X135127000Y-94103000D01*
X135127000Y-94123000D01*
X136176250Y-94123000D01*
X136335000Y-93964250D01*
X136338072Y-93650000D01*
X136325812Y-93525518D01*
X136289502Y-93405820D01*
X136230537Y-93295506D01*
X136151185Y-93198815D01*
X136121724Y-93174637D01*
X136188405Y-93093387D01*
X136270472Y-92939851D01*
X136321008Y-92773255D01*
X136338072Y-92600001D01*
X136338072Y-91899999D01*
X136321008Y-91726745D01*
X136270472Y-91560149D01*
X136188405Y-91406613D01*
X136077962Y-91272038D01*
X136057120Y-91254933D01*
X136138405Y-91155887D01*
X136220472Y-91002351D01*
X136271008Y-90835755D01*
X136288072Y-90662501D01*
X136288072Y-89837499D01*
X136271008Y-89664245D01*
X136220472Y-89497649D01*
X136138405Y-89344113D01*
X136091944Y-89287500D01*
X136138405Y-89230887D01*
X136220472Y-89077351D01*
X136271008Y-88910755D01*
X136288072Y-88737501D01*
X136288072Y-87912499D01*
X136271008Y-87739245D01*
X136220472Y-87572649D01*
X136138405Y-87419113D01*
X136027962Y-87284538D01*
X135893387Y-87174095D01*
X135805279Y-87127000D01*
X138075903Y-87127000D01*
X138060498Y-87155820D01*
X138024188Y-87275518D01*
X138011928Y-87400000D01*
X138011928Y-89100000D01*
X138024188Y-89224482D01*
X138060498Y-89344180D01*
X138119463Y-89454494D01*
X138198815Y-89551185D01*
X138295506Y-89630537D01*
X138405820Y-89689502D01*
X138478380Y-89711513D01*
X138346525Y-89843368D01*
X138184010Y-90086589D01*
X138072068Y-90356842D01*
X138015000Y-90643740D01*
X138015000Y-90936260D01*
X138072068Y-91223158D01*
X138184010Y-91493411D01*
X138346525Y-91736632D01*
X138553368Y-91943475D01*
X138796589Y-92105990D01*
X139066842Y-92217932D01*
X139353740Y-92275000D01*
X139646260Y-92275000D01*
X139933158Y-92217932D01*
X140203411Y-92105990D01*
X140399451Y-91975000D01*
X141824428Y-91975000D01*
X141836688Y-92099482D01*
X141872998Y-92219180D01*
X141931963Y-92329494D01*
X142011315Y-92426185D01*
X142108006Y-92505537D01*
X142218320Y-92564502D01*
X142338018Y-92600812D01*
X142462500Y-92613072D01*
X142714250Y-92610000D01*
X142873000Y-92451250D01*
X142873000Y-91627000D01*
X141986250Y-91627000D01*
X141827500Y-91785750D01*
X141824428Y-91975000D01*
X140399451Y-91975000D01*
X140446632Y-91943475D01*
X140653475Y-91736632D01*
X140815990Y-91493411D01*
X140927932Y-91223158D01*
X140967348Y-91025000D01*
X141824428Y-91025000D01*
X141827500Y-91214250D01*
X141986250Y-91373000D01*
X142873000Y-91373000D01*
X142873000Y-89877000D01*
X142036250Y-89877000D01*
X141877500Y-90035750D01*
X141874428Y-90225000D01*
X141886688Y-90349482D01*
X141922998Y-90469180D01*
X141981963Y-90579494D01*
X141994309Y-90594537D01*
X141931963Y-90670506D01*
X141872998Y-90780820D01*
X141836688Y-90900518D01*
X141824428Y-91025000D01*
X140967348Y-91025000D01*
X140985000Y-90936260D01*
X140985000Y-90643740D01*
X140927932Y-90356842D01*
X140815990Y-90086589D01*
X140653475Y-89843368D01*
X140521620Y-89711513D01*
X140594180Y-89689502D01*
X140704494Y-89630537D01*
X140801185Y-89551185D01*
X140880537Y-89454494D01*
X140939502Y-89344180D01*
X140975812Y-89224482D01*
X140988072Y-89100000D01*
X140988072Y-88475000D01*
X141824428Y-88475000D01*
X141836688Y-88599482D01*
X141872998Y-88719180D01*
X141931963Y-88829494D01*
X141994309Y-88905463D01*
X141981963Y-88920506D01*
X141922998Y-89030820D01*
X141886688Y-89150518D01*
X141874428Y-89275000D01*
X141877500Y-89464250D01*
X142036250Y-89623000D01*
X142873000Y-89623000D01*
X142873000Y-88127000D01*
X141986250Y-88127000D01*
X141827500Y-88285750D01*
X141824428Y-88475000D01*
X140988072Y-88475000D01*
X140988072Y-87400000D01*
X140975812Y-87275518D01*
X140939502Y-87155820D01*
X140924097Y-87127000D01*
X141967667Y-87127000D01*
X141931963Y-87170506D01*
X141872998Y-87280820D01*
X141836688Y-87400518D01*
X141824428Y-87525000D01*
X141827500Y-87714250D01*
X141986250Y-87873000D01*
X142873000Y-87873000D01*
X142873000Y-87853000D01*
X143127000Y-87853000D01*
X143127000Y-87873000D01*
X143147000Y-87873000D01*
X143147000Y-88127000D01*
X143127000Y-88127000D01*
X143127000Y-89623000D01*
X143147000Y-89623000D01*
X143147000Y-89877000D01*
X143127000Y-89877000D01*
X143127000Y-91373000D01*
X143147000Y-91373000D01*
X143147000Y-91627000D01*
X143127000Y-91627000D01*
X143127000Y-92451250D01*
X143285750Y-92610000D01*
X143537500Y-92613072D01*
X143661982Y-92600812D01*
X143781680Y-92564502D01*
X143891994Y-92505537D01*
X143939894Y-92466226D01*
X144089933Y-92546423D01*
X144254184Y-92596248D01*
X144425000Y-92613072D01*
X145025000Y-92613072D01*
X145087756Y-92606891D01*
X146898519Y-92606891D01*
X146995843Y-92881252D01*
X147144822Y-93131355D01*
X147339731Y-93347588D01*
X147573080Y-93521641D01*
X147835901Y-93646825D01*
X147983110Y-93691476D01*
X148213000Y-93570155D01*
X148213000Y-92377000D01*
X147019186Y-92377000D01*
X146898519Y-92606891D01*
X145087756Y-92606891D01*
X145195816Y-92596248D01*
X145360067Y-92546423D01*
X145453749Y-92496349D01*
X145648061Y-92535000D01*
X145851939Y-92535000D01*
X146051898Y-92495226D01*
X146240256Y-92417205D01*
X146409774Y-92303937D01*
X146553937Y-92159774D01*
X146667205Y-91990256D01*
X146745226Y-91801898D01*
X146785000Y-91601939D01*
X146785000Y-91398061D01*
X146745226Y-91198102D01*
X146667205Y-91009744D01*
X146553937Y-90840226D01*
X146444711Y-90731000D01*
X146515937Y-90659774D01*
X146629205Y-90490256D01*
X146707226Y-90301898D01*
X146747000Y-90101939D01*
X146747000Y-89898061D01*
X146707226Y-89698102D01*
X146629205Y-89509744D01*
X146515937Y-89340226D01*
X146371774Y-89196063D01*
X146202256Y-89082795D01*
X146013898Y-89004774D01*
X145973897Y-88996817D01*
X145981898Y-88995226D01*
X146170256Y-88917205D01*
X146339774Y-88803937D01*
X146483937Y-88659774D01*
X146597205Y-88490256D01*
X146675226Y-88301898D01*
X146715000Y-88101939D01*
X146715000Y-87898061D01*
X146675226Y-87698102D01*
X146597205Y-87509744D01*
X146483937Y-87340226D01*
X146339774Y-87196063D01*
X146236414Y-87127000D01*
X147147678Y-87127000D01*
X147218061Y-87141000D01*
X147421939Y-87141000D01*
X147492322Y-87127000D01*
X151335000Y-87127000D01*
X151335000Y-88291115D01*
X151313158Y-88282068D01*
X151026260Y-88225000D01*
X150733740Y-88225000D01*
X150446842Y-88282068D01*
X150176589Y-88394010D01*
X149933368Y-88556525D01*
X149726525Y-88763368D01*
X149610000Y-88937760D01*
X149493475Y-88763368D01*
X149286632Y-88556525D01*
X149043411Y-88394010D01*
X148773158Y-88282068D01*
X148486260Y-88225000D01*
X148193740Y-88225000D01*
X147906842Y-88282068D01*
X147636589Y-88394010D01*
X147393368Y-88556525D01*
X147186525Y-88763368D01*
X147024010Y-89006589D01*
X146912068Y-89276842D01*
X146855000Y-89563740D01*
X146855000Y-89856260D01*
X146912068Y-90143158D01*
X147024010Y-90413411D01*
X147186525Y-90656632D01*
X147393368Y-90863475D01*
X147569406Y-90981100D01*
X147339731Y-91152412D01*
X147144822Y-91368645D01*
X146995843Y-91618748D01*
X146898519Y-91893109D01*
X147019186Y-92123000D01*
X148213000Y-92123000D01*
X148213000Y-92103000D01*
X148467000Y-92103000D01*
X148467000Y-92123000D01*
X148487000Y-92123000D01*
X148487000Y-92377000D01*
X148467000Y-92377000D01*
X148467000Y-93570155D01*
X148696890Y-93691476D01*
X148844099Y-93646825D01*
X149106920Y-93521641D01*
X149340269Y-93347588D01*
X149535178Y-93131355D01*
X149604805Y-93014466D01*
X149726525Y-93196632D01*
X149933368Y-93403475D01*
X150176589Y-93565990D01*
X150446842Y-93677932D01*
X150733740Y-93735000D01*
X151026260Y-93735000D01*
X151313158Y-93677932D01*
X151583411Y-93565990D01*
X151826632Y-93403475D01*
X152033475Y-93196632D01*
X152155195Y-93014466D01*
X152224822Y-93131355D01*
X152419731Y-93347588D01*
X152653080Y-93521641D01*
X152915901Y-93646825D01*
X153063110Y-93691476D01*
X153293000Y-93570155D01*
X153293000Y-92377000D01*
X153547000Y-92377000D01*
X153547000Y-93570155D01*
X153776890Y-93691476D01*
X153924099Y-93646825D01*
X154186920Y-93521641D01*
X154420269Y-93347588D01*
X154615178Y-93131355D01*
X154690000Y-93005745D01*
X154764822Y-93131355D01*
X154959731Y-93347588D01*
X155193080Y-93521641D01*
X155455901Y-93646825D01*
X155603110Y-93691476D01*
X155833000Y-93570155D01*
X155833000Y-92377000D01*
X153547000Y-92377000D01*
X153293000Y-92377000D01*
X153273000Y-92377000D01*
X153273000Y-92123000D01*
X153293000Y-92123000D01*
X153293000Y-92103000D01*
X153547000Y-92103000D01*
X153547000Y-92123000D01*
X155833000Y-92123000D01*
X155833000Y-92103000D01*
X156087000Y-92103000D01*
X156087000Y-92123000D01*
X156107000Y-92123000D01*
X156107000Y-92377000D01*
X156087000Y-92377000D01*
X156087000Y-93570155D01*
X156316890Y-93691476D01*
X156464099Y-93646825D01*
X156726920Y-93521641D01*
X156960269Y-93347588D01*
X157036034Y-93263534D01*
X157060498Y-93344180D01*
X157119463Y-93454494D01*
X157198815Y-93551185D01*
X157295506Y-93630537D01*
X157405820Y-93689502D01*
X157525518Y-93725812D01*
X157650000Y-93738072D01*
X159350000Y-93738072D01*
X159474482Y-93725812D01*
X159594180Y-93689502D01*
X159704494Y-93630537D01*
X159801185Y-93551185D01*
X159880537Y-93454494D01*
X159939502Y-93344180D01*
X159975812Y-93224482D01*
X159988072Y-93100000D01*
X159988072Y-92646890D01*
X162558524Y-92646890D01*
X162603175Y-92794099D01*
X162728359Y-93056920D01*
X162902412Y-93290269D01*
X163118645Y-93485178D01*
X163368748Y-93634157D01*
X163643109Y-93731481D01*
X163873000Y-93610814D01*
X163873000Y-92417000D01*
X164127000Y-92417000D01*
X164127000Y-93610814D01*
X164356891Y-93731481D01*
X164631252Y-93634157D01*
X164881355Y-93485178D01*
X165097588Y-93290269D01*
X165271641Y-93056920D01*
X165396825Y-92794099D01*
X165441476Y-92646890D01*
X165320155Y-92417000D01*
X164127000Y-92417000D01*
X163873000Y-92417000D01*
X162679845Y-92417000D01*
X162558524Y-92646890D01*
X159988072Y-92646890D01*
X159988072Y-91400000D01*
X159975812Y-91275518D01*
X159939502Y-91155820D01*
X159880537Y-91045506D01*
X159801185Y-90948815D01*
X159704494Y-90869463D01*
X159594180Y-90810498D01*
X159521620Y-90788487D01*
X159653475Y-90656632D01*
X159815990Y-90413411D01*
X159927932Y-90143158D01*
X159985000Y-89856260D01*
X159985000Y-89563740D01*
X159927932Y-89276842D01*
X159815990Y-89006589D01*
X159744770Y-88900000D01*
X162511928Y-88900000D01*
X162511928Y-90600000D01*
X162524188Y-90724482D01*
X162560498Y-90844180D01*
X162619463Y-90954494D01*
X162698815Y-91051185D01*
X162795506Y-91130537D01*
X162905820Y-91189502D01*
X162986466Y-91213966D01*
X162902412Y-91289731D01*
X162728359Y-91523080D01*
X162603175Y-91785901D01*
X162558524Y-91933110D01*
X162679845Y-92163000D01*
X163873000Y-92163000D01*
X163873000Y-92143000D01*
X164127000Y-92143000D01*
X164127000Y-92163000D01*
X165320155Y-92163000D01*
X165441476Y-91933110D01*
X165396825Y-91785901D01*
X165271641Y-91523080D01*
X165097588Y-91289731D01*
X165013534Y-91213966D01*
X165094180Y-91189502D01*
X165204494Y-91130537D01*
X165301185Y-91051185D01*
X165380537Y-90954494D01*
X165439502Y-90844180D01*
X165475812Y-90724482D01*
X165488072Y-90600000D01*
X165488072Y-88900000D01*
X165475812Y-88775518D01*
X165439502Y-88655820D01*
X165380537Y-88545506D01*
X165301185Y-88448815D01*
X165204494Y-88369463D01*
X165094180Y-88310498D01*
X164974482Y-88274188D01*
X164850000Y-88261928D01*
X163150000Y-88261928D01*
X163025518Y-88274188D01*
X162905820Y-88310498D01*
X162795506Y-88369463D01*
X162698815Y-88448815D01*
X162619463Y-88545506D01*
X162560498Y-88655820D01*
X162524188Y-88775518D01*
X162511928Y-88900000D01*
X159744770Y-88900000D01*
X159653475Y-88763368D01*
X159446632Y-88556525D01*
X159203411Y-88394010D01*
X158933158Y-88282068D01*
X158646260Y-88225000D01*
X158353740Y-88225000D01*
X158066842Y-88282068D01*
X157796589Y-88394010D01*
X157553368Y-88556525D01*
X157346525Y-88763368D01*
X157230000Y-88937760D01*
X157113475Y-88763368D01*
X156906632Y-88556525D01*
X156663411Y-88394010D01*
X156393158Y-88282068D01*
X156106260Y-88225000D01*
X155813740Y-88225000D01*
X155682061Y-88251193D01*
X154557867Y-87127000D01*
X169744452Y-87127000D01*
X169944922Y-87144539D01*
X170133926Y-87195182D01*
X170311258Y-87277873D01*
X170471535Y-87390100D01*
X170609900Y-87528465D01*
X170722127Y-87688742D01*
X170804818Y-87866074D01*
X170855461Y-88055078D01*
X170873000Y-88255548D01*
X170873000Y-96255520D01*
X170775615Y-96225306D01*
X170024305Y-96146520D01*
X169272062Y-96215822D01*
X168547792Y-96430548D01*
X167879330Y-96782445D01*
X167838912Y-96809452D01*
X167478724Y-97299119D01*
X170000000Y-99820395D01*
X170014143Y-99806253D01*
X170193748Y-99985858D01*
X170179605Y-100000000D01*
X170193748Y-100014143D01*
X170014143Y-100193748D01*
X170000000Y-100179605D01*
X169985858Y-100193748D01*
X169806253Y-100014143D01*
X169820395Y-100000000D01*
X167299119Y-97478724D01*
X166809452Y-97838912D01*
X166449151Y-98502882D01*
X166225306Y-99224385D01*
X166146520Y-99975695D01*
X166215822Y-100727938D01*
X166430548Y-101452208D01*
X166652065Y-101873000D01*
X123346878Y-101873000D01*
X123550849Y-101497118D01*
X123774694Y-100775615D01*
X123853480Y-100024305D01*
X123784178Y-99272062D01*
X123569452Y-98547792D01*
X123217555Y-97879330D01*
X123190548Y-97838912D01*
X122700881Y-97478724D01*
X120179605Y-100000000D01*
X120193748Y-100014143D01*
X120014143Y-100193748D01*
X120000000Y-100179605D01*
X119985858Y-100193748D01*
X119806253Y-100014143D01*
X119820395Y-100000000D01*
X119806253Y-99985858D01*
X119985858Y-99806253D01*
X120000000Y-99820395D01*
X122521276Y-97299119D01*
X122161088Y-96809452D01*
X121497118Y-96449151D01*
X120775615Y-96225306D01*
X120024305Y-96146520D01*
X119272062Y-96215822D01*
X118547792Y-96430548D01*
X118127000Y-96652065D01*
X118127000Y-94850000D01*
X124111928Y-94850000D01*
X124124188Y-94974482D01*
X124160498Y-95094180D01*
X124219463Y-95204494D01*
X124298815Y-95301185D01*
X124395506Y-95380537D01*
X124505820Y-95439502D01*
X124625518Y-95475812D01*
X124750000Y-95488072D01*
X125164250Y-95485000D01*
X125323000Y-95326250D01*
X125323000Y-94377000D01*
X125577000Y-94377000D01*
X125577000Y-95326250D01*
X125735750Y-95485000D01*
X126150000Y-95488072D01*
X126274482Y-95475812D01*
X126394180Y-95439502D01*
X126475000Y-95396302D01*
X126555820Y-95439502D01*
X126675518Y-95475812D01*
X126800000Y-95488072D01*
X127214250Y-95485000D01*
X127373000Y-95326250D01*
X127373000Y-94377000D01*
X127627000Y-94377000D01*
X127627000Y-95326250D01*
X127785750Y-95485000D01*
X128200000Y-95488072D01*
X128324482Y-95475812D01*
X128444180Y-95439502D01*
X128525000Y-95396302D01*
X128605820Y-95439502D01*
X128725518Y-95475812D01*
X128850000Y-95488072D01*
X129264250Y-95485000D01*
X129423000Y-95326250D01*
X129423000Y-94377000D01*
X129677000Y-94377000D01*
X129677000Y-95326250D01*
X129835750Y-95485000D01*
X130250000Y-95488072D01*
X130374482Y-95475812D01*
X130494180Y-95439502D01*
X130604494Y-95380537D01*
X130701185Y-95301185D01*
X130780537Y-95204494D01*
X130839502Y-95094180D01*
X130875812Y-94974482D01*
X130888072Y-94850000D01*
X131411928Y-94850000D01*
X131424188Y-94974482D01*
X131460498Y-95094180D01*
X131519463Y-95204494D01*
X131598815Y-95301185D01*
X131695506Y-95380537D01*
X131805820Y-95439502D01*
X131925518Y-95475812D01*
X132050000Y-95488072D01*
X132464250Y-95485000D01*
X132623000Y-95326250D01*
X132623000Y-94377000D01*
X132877000Y-94377000D01*
X132877000Y-95326250D01*
X133035750Y-95485000D01*
X133450000Y-95488072D01*
X133574482Y-95475812D01*
X133694180Y-95439502D01*
X133804494Y-95380537D01*
X133875000Y-95322674D01*
X133945506Y-95380537D01*
X134055820Y-95439502D01*
X134175518Y-95475812D01*
X134300000Y-95488072D01*
X134714250Y-95485000D01*
X134873000Y-95326250D01*
X134873000Y-94377000D01*
X135127000Y-94377000D01*
X135127000Y-95326250D01*
X135285750Y-95485000D01*
X135700000Y-95488072D01*
X135824482Y-95475812D01*
X135944180Y-95439502D01*
X136054494Y-95380537D01*
X136151185Y-95301185D01*
X136230537Y-95204494D01*
X136289502Y-95094180D01*
X136325812Y-94974482D01*
X136338072Y-94850000D01*
X136335000Y-94535750D01*
X136176250Y-94377000D01*
X135127000Y-94377000D01*
X134873000Y-94377000D01*
X132877000Y-94377000D01*
X132623000Y-94377000D01*
X131573750Y-94377000D01*
X131415000Y-94535750D01*
X131411928Y-94850000D01*
X130888072Y-94850000D01*
X130885000Y-94535750D01*
X130726250Y-94377000D01*
X129677000Y-94377000D01*
X129423000Y-94377000D01*
X127627000Y-94377000D01*
X127373000Y-94377000D01*
X125577000Y-94377000D01*
X125323000Y-94377000D01*
X124273750Y-94377000D01*
X124115000Y-94535750D01*
X124111928Y-94850000D01*
X118127000Y-94850000D01*
X118127000Y-88255548D01*
X118144539Y-88055078D01*
X118195182Y-87866074D01*
X118277873Y-87688742D01*
X118390100Y-87528465D01*
X118528465Y-87390100D01*
X118688742Y-87277873D01*
X118866074Y-87195182D01*
X119055078Y-87144539D01*
X119255548Y-87127000D01*
X124429135Y-87127000D01*
X124415000Y-87198061D01*
%TA.AperFunction,Conductor*%
D32*
G36*
X124415000Y-87198061D02*
G01*
X124415000Y-87293114D01*
X124311595Y-87419113D01*
X124229528Y-87572649D01*
X124178992Y-87739245D01*
X124161928Y-87912499D01*
X124161928Y-88737501D01*
X124178992Y-88910755D01*
X124229528Y-89077351D01*
X124311595Y-89230887D01*
X124358056Y-89287500D01*
X124311595Y-89344113D01*
X124229528Y-89497649D01*
X124178992Y-89664245D01*
X124161928Y-89837499D01*
X124161928Y-90662501D01*
X124178992Y-90835755D01*
X124229528Y-91002351D01*
X124311595Y-91155887D01*
X124392880Y-91254933D01*
X124372038Y-91272038D01*
X124261595Y-91406613D01*
X124179528Y-91560149D01*
X124128992Y-91726745D01*
X124111928Y-91899999D01*
X124111928Y-92600001D01*
X124128992Y-92773255D01*
X124179528Y-92939851D01*
X124261595Y-93093387D01*
X124328276Y-93174637D01*
X124298815Y-93198815D01*
X124219463Y-93295506D01*
X124160498Y-93405820D01*
X124124188Y-93525518D01*
X124111928Y-93650000D01*
X124115000Y-93964250D01*
X124273750Y-94123000D01*
X125323000Y-94123000D01*
X125323000Y-94103000D01*
X125577000Y-94103000D01*
X125577000Y-94123000D01*
X127373000Y-94123000D01*
X127373000Y-94103000D01*
X127627000Y-94103000D01*
X127627000Y-94123000D01*
X129423000Y-94123000D01*
X129423000Y-94103000D01*
X129677000Y-94103000D01*
X129677000Y-94123000D01*
X130726250Y-94123000D01*
X130885000Y-93964250D01*
X130888072Y-93650000D01*
X130875812Y-93525518D01*
X130839502Y-93405820D01*
X130780537Y-93295506D01*
X130701185Y-93198815D01*
X130671724Y-93174637D01*
X130738405Y-93093387D01*
X130820472Y-92939851D01*
X130871008Y-92773255D01*
X130888072Y-92600001D01*
X130888072Y-91899999D01*
X130871008Y-91726745D01*
X130820472Y-91560149D01*
X130738405Y-91406613D01*
X130627962Y-91272038D01*
X130577243Y-91230414D01*
X130638405Y-91155887D01*
X130720472Y-91002351D01*
X130771008Y-90835755D01*
X130788072Y-90662501D01*
X130788072Y-89837499D01*
X130771008Y-89664245D01*
X130720472Y-89497649D01*
X130638405Y-89344113D01*
X130591944Y-89287500D01*
X130638405Y-89230887D01*
X130720472Y-89077351D01*
X130771008Y-88910755D01*
X130788072Y-88737501D01*
X130788072Y-87912499D01*
X130771008Y-87739245D01*
X130720472Y-87572649D01*
X130638405Y-87419113D01*
X130535000Y-87293114D01*
X130535000Y-87148061D01*
X130530811Y-87127000D01*
X130709496Y-87127000D01*
X130744454Y-87242246D01*
X130815026Y-87374276D01*
X130876340Y-87448986D01*
X130910000Y-87490001D01*
X130938998Y-87513799D01*
X131461928Y-88036729D01*
X131461928Y-88662501D01*
X131478992Y-88835755D01*
X131529528Y-89002351D01*
X131611595Y-89155887D01*
X131658056Y-89212500D01*
X131611595Y-89269113D01*
X131529528Y-89422649D01*
X131478992Y-89589245D01*
X131461928Y-89762499D01*
X131461928Y-90587501D01*
X131478992Y-90760755D01*
X131529528Y-90927351D01*
X131611595Y-91080887D01*
X131722038Y-91215462D01*
X131731507Y-91223233D01*
X131672038Y-91272038D01*
X131561595Y-91406613D01*
X131479528Y-91560149D01*
X131428992Y-91726745D01*
X131411928Y-91899999D01*
X131411928Y-92600001D01*
X131428992Y-92773255D01*
X131479528Y-92939851D01*
X131561595Y-93093387D01*
X131628276Y-93174637D01*
X131598815Y-93198815D01*
X131519463Y-93295506D01*
X131460498Y-93405820D01*
X131424188Y-93525518D01*
X131411928Y-93650000D01*
X131415000Y-93964250D01*
X131573750Y-94123000D01*
X132623000Y-94123000D01*
X132623000Y-94103000D01*
X132877000Y-94103000D01*
X132877000Y-94123000D01*
X134873000Y-94123000D01*
X134873000Y-94103000D01*
X135127000Y-94103000D01*
X135127000Y-94123000D01*
X136176250Y-94123000D01*
X136335000Y-93964250D01*
X136338072Y-93650000D01*
X136325812Y-93525518D01*
X136289502Y-93405820D01*
X136230537Y-93295506D01*
X136151185Y-93198815D01*
X136121724Y-93174637D01*
X136188405Y-93093387D01*
X136270472Y-92939851D01*
X136321008Y-92773255D01*
X136338072Y-92600001D01*
X136338072Y-91899999D01*
X136321008Y-91726745D01*
X136270472Y-91560149D01*
X136188405Y-91406613D01*
X136077962Y-91272038D01*
X136057120Y-91254933D01*
X136138405Y-91155887D01*
X136220472Y-91002351D01*
X136271008Y-90835755D01*
X136288072Y-90662501D01*
X136288072Y-89837499D01*
X136271008Y-89664245D01*
X136220472Y-89497649D01*
X136138405Y-89344113D01*
X136091944Y-89287500D01*
X136138405Y-89230887D01*
X136220472Y-89077351D01*
X136271008Y-88910755D01*
X136288072Y-88737501D01*
X136288072Y-87912499D01*
X136271008Y-87739245D01*
X136220472Y-87572649D01*
X136138405Y-87419113D01*
X136027962Y-87284538D01*
X135893387Y-87174095D01*
X135805279Y-87127000D01*
X138075903Y-87127000D01*
X138060498Y-87155820D01*
X138024188Y-87275518D01*
X138011928Y-87400000D01*
X138011928Y-89100000D01*
X138024188Y-89224482D01*
X138060498Y-89344180D01*
X138119463Y-89454494D01*
X138198815Y-89551185D01*
X138295506Y-89630537D01*
X138405820Y-89689502D01*
X138478380Y-89711513D01*
X138346525Y-89843368D01*
X138184010Y-90086589D01*
X138072068Y-90356842D01*
X138015000Y-90643740D01*
X138015000Y-90936260D01*
X138072068Y-91223158D01*
X138184010Y-91493411D01*
X138346525Y-91736632D01*
X138553368Y-91943475D01*
X138796589Y-92105990D01*
X139066842Y-92217932D01*
X139353740Y-92275000D01*
X139646260Y-92275000D01*
X139933158Y-92217932D01*
X140203411Y-92105990D01*
X140399451Y-91975000D01*
X141824428Y-91975000D01*
X141836688Y-92099482D01*
X141872998Y-92219180D01*
X141931963Y-92329494D01*
X142011315Y-92426185D01*
X142108006Y-92505537D01*
X142218320Y-92564502D01*
X142338018Y-92600812D01*
X142462500Y-92613072D01*
X142714250Y-92610000D01*
X142873000Y-92451250D01*
X142873000Y-91627000D01*
X141986250Y-91627000D01*
X141827500Y-91785750D01*
X141824428Y-91975000D01*
X140399451Y-91975000D01*
X140446632Y-91943475D01*
X140653475Y-91736632D01*
X140815990Y-91493411D01*
X140927932Y-91223158D01*
X140967348Y-91025000D01*
X141824428Y-91025000D01*
X141827500Y-91214250D01*
X141986250Y-91373000D01*
X142873000Y-91373000D01*
X142873000Y-89877000D01*
X142036250Y-89877000D01*
X141877500Y-90035750D01*
X141874428Y-90225000D01*
X141886688Y-90349482D01*
X141922998Y-90469180D01*
X141981963Y-90579494D01*
X141994309Y-90594537D01*
X141931963Y-90670506D01*
X141872998Y-90780820D01*
X141836688Y-90900518D01*
X141824428Y-91025000D01*
X140967348Y-91025000D01*
X140985000Y-90936260D01*
X140985000Y-90643740D01*
X140927932Y-90356842D01*
X140815990Y-90086589D01*
X140653475Y-89843368D01*
X140521620Y-89711513D01*
X140594180Y-89689502D01*
X140704494Y-89630537D01*
X140801185Y-89551185D01*
X140880537Y-89454494D01*
X140939502Y-89344180D01*
X140975812Y-89224482D01*
X140988072Y-89100000D01*
X140988072Y-88475000D01*
X141824428Y-88475000D01*
X141836688Y-88599482D01*
X141872998Y-88719180D01*
X141931963Y-88829494D01*
X141994309Y-88905463D01*
X141981963Y-88920506D01*
X141922998Y-89030820D01*
X141886688Y-89150518D01*
X141874428Y-89275000D01*
X141877500Y-89464250D01*
X142036250Y-89623000D01*
X142873000Y-89623000D01*
X142873000Y-88127000D01*
X141986250Y-88127000D01*
X141827500Y-88285750D01*
X141824428Y-88475000D01*
X140988072Y-88475000D01*
X140988072Y-87400000D01*
X140975812Y-87275518D01*
X140939502Y-87155820D01*
X140924097Y-87127000D01*
X141967667Y-87127000D01*
X141931963Y-87170506D01*
X141872998Y-87280820D01*
X141836688Y-87400518D01*
X141824428Y-87525000D01*
X141827500Y-87714250D01*
X141986250Y-87873000D01*
X142873000Y-87873000D01*
X142873000Y-87853000D01*
X143127000Y-87853000D01*
X143127000Y-87873000D01*
X143147000Y-87873000D01*
X143147000Y-88127000D01*
X143127000Y-88127000D01*
X143127000Y-89623000D01*
X143147000Y-89623000D01*
X143147000Y-89877000D01*
X143127000Y-89877000D01*
X143127000Y-91373000D01*
X143147000Y-91373000D01*
X143147000Y-91627000D01*
X143127000Y-91627000D01*
X143127000Y-92451250D01*
X143285750Y-92610000D01*
X143537500Y-92613072D01*
X143661982Y-92600812D01*
X143781680Y-92564502D01*
X143891994Y-92505537D01*
X143939894Y-92466226D01*
X144089933Y-92546423D01*
X144254184Y-92596248D01*
X144425000Y-92613072D01*
X145025000Y-92613072D01*
X145087756Y-92606891D01*
X146898519Y-92606891D01*
X146995843Y-92881252D01*
X147144822Y-93131355D01*
X147339731Y-93347588D01*
X147573080Y-93521641D01*
X147835901Y-93646825D01*
X147983110Y-93691476D01*
X148213000Y-93570155D01*
X148213000Y-92377000D01*
X147019186Y-92377000D01*
X146898519Y-92606891D01*
X145087756Y-92606891D01*
X145195816Y-92596248D01*
X145360067Y-92546423D01*
X145453749Y-92496349D01*
X145648061Y-92535000D01*
X145851939Y-92535000D01*
X146051898Y-92495226D01*
X146240256Y-92417205D01*
X146409774Y-92303937D01*
X146553937Y-92159774D01*
X146667205Y-91990256D01*
X146745226Y-91801898D01*
X146785000Y-91601939D01*
X146785000Y-91398061D01*
X146745226Y-91198102D01*
X146667205Y-91009744D01*
X146553937Y-90840226D01*
X146444711Y-90731000D01*
X146515937Y-90659774D01*
X146629205Y-90490256D01*
X146707226Y-90301898D01*
X146747000Y-90101939D01*
X146747000Y-89898061D01*
X146707226Y-89698102D01*
X146629205Y-89509744D01*
X146515937Y-89340226D01*
X146371774Y-89196063D01*
X146202256Y-89082795D01*
X146013898Y-89004774D01*
X145973897Y-88996817D01*
X145981898Y-88995226D01*
X146170256Y-88917205D01*
X146339774Y-88803937D01*
X146483937Y-88659774D01*
X146597205Y-88490256D01*
X146675226Y-88301898D01*
X146715000Y-88101939D01*
X146715000Y-87898061D01*
X146675226Y-87698102D01*
X146597205Y-87509744D01*
X146483937Y-87340226D01*
X146339774Y-87196063D01*
X146236414Y-87127000D01*
X147147678Y-87127000D01*
X147218061Y-87141000D01*
X147421939Y-87141000D01*
X147492322Y-87127000D01*
X151335000Y-87127000D01*
X151335000Y-88291115D01*
X151313158Y-88282068D01*
X151026260Y-88225000D01*
X150733740Y-88225000D01*
X150446842Y-88282068D01*
X150176589Y-88394010D01*
X149933368Y-88556525D01*
X149726525Y-88763368D01*
X149610000Y-88937760D01*
X149493475Y-88763368D01*
X149286632Y-88556525D01*
X149043411Y-88394010D01*
X148773158Y-88282068D01*
X148486260Y-88225000D01*
X148193740Y-88225000D01*
X147906842Y-88282068D01*
X147636589Y-88394010D01*
X147393368Y-88556525D01*
X147186525Y-88763368D01*
X147024010Y-89006589D01*
X146912068Y-89276842D01*
X146855000Y-89563740D01*
X146855000Y-89856260D01*
X146912068Y-90143158D01*
X147024010Y-90413411D01*
X147186525Y-90656632D01*
X147393368Y-90863475D01*
X147569406Y-90981100D01*
X147339731Y-91152412D01*
X147144822Y-91368645D01*
X146995843Y-91618748D01*
X146898519Y-91893109D01*
X147019186Y-92123000D01*
X148213000Y-92123000D01*
X148213000Y-92103000D01*
X148467000Y-92103000D01*
X148467000Y-92123000D01*
X148487000Y-92123000D01*
X148487000Y-92377000D01*
X148467000Y-92377000D01*
X148467000Y-93570155D01*
X148696890Y-93691476D01*
X148844099Y-93646825D01*
X149106920Y-93521641D01*
X149340269Y-93347588D01*
X149535178Y-93131355D01*
X149604805Y-93014466D01*
X149726525Y-93196632D01*
X149933368Y-93403475D01*
X150176589Y-93565990D01*
X150446842Y-93677932D01*
X150733740Y-93735000D01*
X151026260Y-93735000D01*
X151313158Y-93677932D01*
X151583411Y-93565990D01*
X151826632Y-93403475D01*
X152033475Y-93196632D01*
X152155195Y-93014466D01*
X152224822Y-93131355D01*
X152419731Y-93347588D01*
X152653080Y-93521641D01*
X152915901Y-93646825D01*
X153063110Y-93691476D01*
X153293000Y-93570155D01*
X153293000Y-92377000D01*
X153547000Y-92377000D01*
X153547000Y-93570155D01*
X153776890Y-93691476D01*
X153924099Y-93646825D01*
X154186920Y-93521641D01*
X154420269Y-93347588D01*
X154615178Y-93131355D01*
X154690000Y-93005745D01*
X154764822Y-93131355D01*
X154959731Y-93347588D01*
X155193080Y-93521641D01*
X155455901Y-93646825D01*
X155603110Y-93691476D01*
X155833000Y-93570155D01*
X155833000Y-92377000D01*
X153547000Y-92377000D01*
X153293000Y-92377000D01*
X153273000Y-92377000D01*
X153273000Y-92123000D01*
X153293000Y-92123000D01*
X153293000Y-92103000D01*
X153547000Y-92103000D01*
X153547000Y-92123000D01*
X155833000Y-92123000D01*
X155833000Y-92103000D01*
X156087000Y-92103000D01*
X156087000Y-92123000D01*
X156107000Y-92123000D01*
X156107000Y-92377000D01*
X156087000Y-92377000D01*
X156087000Y-93570155D01*
X156316890Y-93691476D01*
X156464099Y-93646825D01*
X156726920Y-93521641D01*
X156960269Y-93347588D01*
X157036034Y-93263534D01*
X157060498Y-93344180D01*
X157119463Y-93454494D01*
X157198815Y-93551185D01*
X157295506Y-93630537D01*
X157405820Y-93689502D01*
X157525518Y-93725812D01*
X157650000Y-93738072D01*
X159350000Y-93738072D01*
X159474482Y-93725812D01*
X159594180Y-93689502D01*
X159704494Y-93630537D01*
X159801185Y-93551185D01*
X159880537Y-93454494D01*
X159939502Y-93344180D01*
X159975812Y-93224482D01*
X159988072Y-93100000D01*
X159988072Y-92646890D01*
X162558524Y-92646890D01*
X162603175Y-92794099D01*
X162728359Y-93056920D01*
X162902412Y-93290269D01*
X163118645Y-93485178D01*
X163368748Y-93634157D01*
X163643109Y-93731481D01*
X163873000Y-93610814D01*
X163873000Y-92417000D01*
X164127000Y-92417000D01*
X164127000Y-93610814D01*
X164356891Y-93731481D01*
X164631252Y-93634157D01*
X164881355Y-93485178D01*
X165097588Y-93290269D01*
X165271641Y-93056920D01*
X165396825Y-92794099D01*
X165441476Y-92646890D01*
X165320155Y-92417000D01*
X164127000Y-92417000D01*
X163873000Y-92417000D01*
X162679845Y-92417000D01*
X162558524Y-92646890D01*
X159988072Y-92646890D01*
X159988072Y-91400000D01*
X159975812Y-91275518D01*
X159939502Y-91155820D01*
X159880537Y-91045506D01*
X159801185Y-90948815D01*
X159704494Y-90869463D01*
X159594180Y-90810498D01*
X159521620Y-90788487D01*
X159653475Y-90656632D01*
X159815990Y-90413411D01*
X159927932Y-90143158D01*
X159985000Y-89856260D01*
X159985000Y-89563740D01*
X159927932Y-89276842D01*
X159815990Y-89006589D01*
X159744770Y-88900000D01*
X162511928Y-88900000D01*
X162511928Y-90600000D01*
X162524188Y-90724482D01*
X162560498Y-90844180D01*
X162619463Y-90954494D01*
X162698815Y-91051185D01*
X162795506Y-91130537D01*
X162905820Y-91189502D01*
X162986466Y-91213966D01*
X162902412Y-91289731D01*
X162728359Y-91523080D01*
X162603175Y-91785901D01*
X162558524Y-91933110D01*
X162679845Y-92163000D01*
X163873000Y-92163000D01*
X163873000Y-92143000D01*
X164127000Y-92143000D01*
X164127000Y-92163000D01*
X165320155Y-92163000D01*
X165441476Y-91933110D01*
X165396825Y-91785901D01*
X165271641Y-91523080D01*
X165097588Y-91289731D01*
X165013534Y-91213966D01*
X165094180Y-91189502D01*
X165204494Y-91130537D01*
X165301185Y-91051185D01*
X165380537Y-90954494D01*
X165439502Y-90844180D01*
X165475812Y-90724482D01*
X165488072Y-90600000D01*
X165488072Y-88900000D01*
X165475812Y-88775518D01*
X165439502Y-88655820D01*
X165380537Y-88545506D01*
X165301185Y-88448815D01*
X165204494Y-88369463D01*
X165094180Y-88310498D01*
X164974482Y-88274188D01*
X164850000Y-88261928D01*
X163150000Y-88261928D01*
X163025518Y-88274188D01*
X162905820Y-88310498D01*
X162795506Y-88369463D01*
X162698815Y-88448815D01*
X162619463Y-88545506D01*
X162560498Y-88655820D01*
X162524188Y-88775518D01*
X162511928Y-88900000D01*
X159744770Y-88900000D01*
X159653475Y-88763368D01*
X159446632Y-88556525D01*
X159203411Y-88394010D01*
X158933158Y-88282068D01*
X158646260Y-88225000D01*
X158353740Y-88225000D01*
X158066842Y-88282068D01*
X157796589Y-88394010D01*
X157553368Y-88556525D01*
X157346525Y-88763368D01*
X157230000Y-88937760D01*
X157113475Y-88763368D01*
X156906632Y-88556525D01*
X156663411Y-88394010D01*
X156393158Y-88282068D01*
X156106260Y-88225000D01*
X155813740Y-88225000D01*
X155682061Y-88251193D01*
X154557867Y-87127000D01*
X169744452Y-87127000D01*
X169944922Y-87144539D01*
X170133926Y-87195182D01*
X170311258Y-87277873D01*
X170471535Y-87390100D01*
X170609900Y-87528465D01*
X170722127Y-87688742D01*
X170804818Y-87866074D01*
X170855461Y-88055078D01*
X170873000Y-88255548D01*
X170873000Y-96255520D01*
X170775615Y-96225306D01*
X170024305Y-96146520D01*
X169272062Y-96215822D01*
X168547792Y-96430548D01*
X167879330Y-96782445D01*
X167838912Y-96809452D01*
X167478724Y-97299119D01*
X170000000Y-99820395D01*
X170014143Y-99806253D01*
X170193748Y-99985858D01*
X170179605Y-100000000D01*
X170193748Y-100014143D01*
X170014143Y-100193748D01*
X170000000Y-100179605D01*
X169985858Y-100193748D01*
X169806253Y-100014143D01*
X169820395Y-100000000D01*
X167299119Y-97478724D01*
X166809452Y-97838912D01*
X166449151Y-98502882D01*
X166225306Y-99224385D01*
X166146520Y-99975695D01*
X166215822Y-100727938D01*
X166430548Y-101452208D01*
X166652065Y-101873000D01*
X123346878Y-101873000D01*
X123550849Y-101497118D01*
X123774694Y-100775615D01*
X123853480Y-100024305D01*
X123784178Y-99272062D01*
X123569452Y-98547792D01*
X123217555Y-97879330D01*
X123190548Y-97838912D01*
X122700881Y-97478724D01*
X120179605Y-100000000D01*
X120193748Y-100014143D01*
X120014143Y-100193748D01*
X120000000Y-100179605D01*
X119985858Y-100193748D01*
X119806253Y-100014143D01*
X119820395Y-100000000D01*
X119806253Y-99985858D01*
X119985858Y-99806253D01*
X120000000Y-99820395D01*
X122521276Y-97299119D01*
X122161088Y-96809452D01*
X121497118Y-96449151D01*
X120775615Y-96225306D01*
X120024305Y-96146520D01*
X119272062Y-96215822D01*
X118547792Y-96430548D01*
X118127000Y-96652065D01*
X118127000Y-94850000D01*
X124111928Y-94850000D01*
X124124188Y-94974482D01*
X124160498Y-95094180D01*
X124219463Y-95204494D01*
X124298815Y-95301185D01*
X124395506Y-95380537D01*
X124505820Y-95439502D01*
X124625518Y-95475812D01*
X124750000Y-95488072D01*
X125164250Y-95485000D01*
X125323000Y-95326250D01*
X125323000Y-94377000D01*
X125577000Y-94377000D01*
X125577000Y-95326250D01*
X125735750Y-95485000D01*
X126150000Y-95488072D01*
X126274482Y-95475812D01*
X126394180Y-95439502D01*
X126475000Y-95396302D01*
X126555820Y-95439502D01*
X126675518Y-95475812D01*
X126800000Y-95488072D01*
X127214250Y-95485000D01*
X127373000Y-95326250D01*
X127373000Y-94377000D01*
X127627000Y-94377000D01*
X127627000Y-95326250D01*
X127785750Y-95485000D01*
X128200000Y-95488072D01*
X128324482Y-95475812D01*
X128444180Y-95439502D01*
X128525000Y-95396302D01*
X128605820Y-95439502D01*
X128725518Y-95475812D01*
X128850000Y-95488072D01*
X129264250Y-95485000D01*
X129423000Y-95326250D01*
X129423000Y-94377000D01*
X129677000Y-94377000D01*
X129677000Y-95326250D01*
X129835750Y-95485000D01*
X130250000Y-95488072D01*
X130374482Y-95475812D01*
X130494180Y-95439502D01*
X130604494Y-95380537D01*
X130701185Y-95301185D01*
X130780537Y-95204494D01*
X130839502Y-95094180D01*
X130875812Y-94974482D01*
X130888072Y-94850000D01*
X131411928Y-94850000D01*
X131424188Y-94974482D01*
X131460498Y-95094180D01*
X131519463Y-95204494D01*
X131598815Y-95301185D01*
X131695506Y-95380537D01*
X131805820Y-95439502D01*
X131925518Y-95475812D01*
X132050000Y-95488072D01*
X132464250Y-95485000D01*
X132623000Y-95326250D01*
X132623000Y-94377000D01*
X132877000Y-94377000D01*
X132877000Y-95326250D01*
X133035750Y-95485000D01*
X133450000Y-95488072D01*
X133574482Y-95475812D01*
X133694180Y-95439502D01*
X133804494Y-95380537D01*
X133875000Y-95322674D01*
X133945506Y-95380537D01*
X134055820Y-95439502D01*
X134175518Y-95475812D01*
X134300000Y-95488072D01*
X134714250Y-95485000D01*
X134873000Y-95326250D01*
X134873000Y-94377000D01*
X135127000Y-94377000D01*
X135127000Y-95326250D01*
X135285750Y-95485000D01*
X135700000Y-95488072D01*
X135824482Y-95475812D01*
X135944180Y-95439502D01*
X136054494Y-95380537D01*
X136151185Y-95301185D01*
X136230537Y-95204494D01*
X136289502Y-95094180D01*
X136325812Y-94974482D01*
X136338072Y-94850000D01*
X136335000Y-94535750D01*
X136176250Y-94377000D01*
X135127000Y-94377000D01*
X134873000Y-94377000D01*
X132877000Y-94377000D01*
X132623000Y-94377000D01*
X131573750Y-94377000D01*
X131415000Y-94535750D01*
X131411928Y-94850000D01*
X130888072Y-94850000D01*
X130885000Y-94535750D01*
X130726250Y-94377000D01*
X129677000Y-94377000D01*
X129423000Y-94377000D01*
X127627000Y-94377000D01*
X127373000Y-94377000D01*
X125577000Y-94377000D01*
X125323000Y-94377000D01*
X124273750Y-94377000D01*
X124115000Y-94535750D01*
X124111928Y-94850000D01*
X118127000Y-94850000D01*
X118127000Y-88255548D01*
X118144539Y-88055078D01*
X118195182Y-87866074D01*
X118277873Y-87688742D01*
X118390100Y-87528465D01*
X118528465Y-87390100D01*
X118688742Y-87277873D01*
X118866074Y-87195182D01*
X119055078Y-87144539D01*
X119255548Y-87127000D01*
X124429135Y-87127000D01*
X124415000Y-87198061D01*
G37*
%TD.AperFunction*%
%TD*%
D31*
%TO.N,+3V3*%
X158414560Y-76699962D02*
X158573308Y-76699962D01*
X158414560Y-76858710D01*
X158411488Y-77110460D01*
X158423748Y-77234942D01*
X158460058Y-77354640D01*
X158519023Y-77464954D01*
X158598375Y-77561645D01*
X158695066Y-77640997D01*
X158805380Y-77699962D01*
X158925078Y-77736272D01*
X159049560Y-77748532D01*
X159238810Y-77745460D01*
X159397560Y-77586710D01*
X159397560Y-76699960D01*
X159377560Y-76699960D01*
X159377560Y-76627000D01*
X159671560Y-76627000D01*
X159671560Y-76699960D01*
X159651560Y-76699960D01*
X159651560Y-77586710D01*
X159810310Y-77745460D01*
X159999560Y-77748532D01*
X160124042Y-77736272D01*
X160243740Y-77699962D01*
X160354054Y-77640997D01*
X160450745Y-77561645D01*
X160465833Y-77543261D01*
X160501506Y-77572537D01*
X160611820Y-77631502D01*
X160731518Y-77667812D01*
X160856000Y-77680072D01*
X161020250Y-77677000D01*
X161179000Y-77518250D01*
X161179000Y-76769000D01*
X160544850Y-76769000D01*
X160475812Y-76699962D01*
X160634560Y-76699962D01*
X160634560Y-76627000D01*
X161453000Y-76627000D01*
X161453000Y-76769000D01*
X161433000Y-76769000D01*
X161433000Y-77518250D01*
X161591750Y-77677000D01*
X161756000Y-77680072D01*
X161880482Y-77667812D01*
X162000180Y-77631502D01*
X162110494Y-77572537D01*
X162207185Y-77493185D01*
X162286537Y-77396494D01*
X162345502Y-77286180D01*
X162381812Y-77166482D01*
X162394072Y-77042000D01*
X162391799Y-76957480D01*
X164568269Y-78800784D01*
X164577087Y-78807611D01*
X164756233Y-78934121D01*
X164775492Y-78945328D01*
X164973992Y-79038582D01*
X164994912Y-79046251D01*
X165206654Y-79103377D01*
X165228594Y-79107271D01*
X165447062Y-79126510D01*
X165458203Y-79127000D01*
X169744452Y-79127000D01*
X169944922Y-79144539D01*
X170133926Y-79195182D01*
X170311258Y-79277873D01*
X170471535Y-79390100D01*
X170609900Y-79528465D01*
X170722127Y-79688742D01*
X170804818Y-79866074D01*
X170855461Y-80055078D01*
X170873000Y-80255548D01*
X170873000Y-84994452D01*
X170855461Y-85194922D01*
X170804818Y-85383926D01*
X170722127Y-85561258D01*
X170609900Y-85721535D01*
X170471535Y-85859900D01*
X170311258Y-85972127D01*
X170133926Y-86054818D01*
X169944922Y-86105461D01*
X169744452Y-86123000D01*
X156835807Y-86123000D01*
X156838072Y-86100000D01*
X156835000Y-85785750D01*
X156676250Y-85627000D01*
X155823906Y-85627000D01*
X155777873Y-85561258D01*
X155695182Y-85383926D01*
X155692254Y-85373000D01*
X156676250Y-85373000D01*
X156835000Y-85214250D01*
X156838072Y-84900000D01*
X156825812Y-84775518D01*
X156789502Y-84655820D01*
X156730537Y-84545506D01*
X156651185Y-84448815D01*
X156621724Y-84424637D01*
X156688405Y-84343387D01*
X156770472Y-84189851D01*
X156821008Y-84023255D01*
X156838072Y-83850001D01*
X156838072Y-83149999D01*
X156821008Y-82976745D01*
X156770472Y-82810149D01*
X156688405Y-82656613D01*
X156577962Y-82522038D01*
X156443387Y-82411595D01*
X156289851Y-82329528D01*
X156123255Y-82278992D01*
X155950001Y-82261928D01*
X155627000Y-82261928D01*
X155627000Y-81812500D01*
X158636928Y-81812500D01*
X158649188Y-81936982D01*
X158685498Y-82056680D01*
X158744463Y-82166994D01*
X158823815Y-82263685D01*
X158920506Y-82343037D01*
X159030820Y-82402002D01*
X159150518Y-82438312D01*
X159275000Y-82450572D01*
X159464250Y-82447500D01*
X159623000Y-82288750D01*
X159623000Y-81402000D01*
X159877000Y-81402000D01*
X159877000Y-82288750D01*
X160035750Y-82447500D01*
X160225000Y-82450572D01*
X160349482Y-82438312D01*
X160469180Y-82402002D01*
X160579494Y-82343037D01*
X160676185Y-82263685D01*
X160755537Y-82166994D01*
X160814502Y-82056680D01*
X160850812Y-81936982D01*
X160863072Y-81812500D01*
X160860000Y-81560750D01*
X160701250Y-81402000D01*
X159877000Y-81402000D01*
X159623000Y-81402000D01*
X158798750Y-81402000D01*
X158640000Y-81560750D01*
X158636928Y-81812500D01*
X155627000Y-81812500D01*
X155627000Y-79398061D01*
X157615000Y-79398061D01*
X157615000Y-79601939D01*
X157654774Y-79801898D01*
X157732795Y-79990256D01*
X157846063Y-80159774D01*
X157990226Y-80303937D01*
X158159744Y-80417205D01*
X158348102Y-80495226D01*
X158548061Y-80535000D01*
X158672855Y-80535000D01*
X158649188Y-80613018D01*
X158636928Y-80737500D01*
X158640000Y-80989250D01*
X158798750Y-81148000D01*
X159623000Y-81148000D01*
X159623000Y-81128000D01*
X159877000Y-81128000D01*
X159877000Y-81148000D01*
X160701250Y-81148000D01*
X160860000Y-80989250D01*
X160863072Y-80737500D01*
X160850812Y-80613018D01*
X160814502Y-80493320D01*
X160755537Y-80383006D01*
X160716226Y-80335106D01*
X160796423Y-80185067D01*
X160846248Y-80020816D01*
X160863072Y-79850000D01*
X160863072Y-79250000D01*
X160846248Y-79079184D01*
X160796423Y-78914933D01*
X160715512Y-78763558D01*
X160606623Y-78630877D01*
X160473942Y-78521988D01*
X160322567Y-78441077D01*
X160158316Y-78391252D01*
X159987500Y-78374428D01*
X159512500Y-78374428D01*
X159341684Y-78391252D01*
X159177433Y-78441077D01*
X159026058Y-78521988D01*
X159015122Y-78530963D01*
X158951898Y-78504774D01*
X158751939Y-78465000D01*
X158548061Y-78465000D01*
X158348102Y-78504774D01*
X158159744Y-78582795D01*
X157990226Y-78696063D01*
X157846063Y-78840226D01*
X157732795Y-79009744D01*
X157654774Y-79198102D01*
X157615000Y-79398061D01*
X155627000Y-79398061D01*
X155627000Y-78988072D01*
X155950001Y-78988072D01*
X156123255Y-78971008D01*
X156289851Y-78920472D01*
X156443387Y-78838405D01*
X156577962Y-78727962D01*
X156688405Y-78593387D01*
X156770472Y-78439851D01*
X156821008Y-78273255D01*
X156838072Y-78100001D01*
X156838072Y-77399999D01*
X156821008Y-77226745D01*
X156770472Y-77060149D01*
X156688405Y-76906613D01*
X156621724Y-76825363D01*
X156651185Y-76801185D01*
X156730537Y-76704494D01*
X156771959Y-76627000D01*
X158414560Y-76627000D01*
X158414560Y-76699962D01*
%TA.AperFunction,Conductor*%
D32*
G36*
X158414560Y-76699962D02*
G01*
X158573308Y-76699962D01*
X158414560Y-76858710D01*
X158411488Y-77110460D01*
X158423748Y-77234942D01*
X158460058Y-77354640D01*
X158519023Y-77464954D01*
X158598375Y-77561645D01*
X158695066Y-77640997D01*
X158805380Y-77699962D01*
X158925078Y-77736272D01*
X159049560Y-77748532D01*
X159238810Y-77745460D01*
X159397560Y-77586710D01*
X159397560Y-76699960D01*
X159377560Y-76699960D01*
X159377560Y-76627000D01*
X159671560Y-76627000D01*
X159671560Y-76699960D01*
X159651560Y-76699960D01*
X159651560Y-77586710D01*
X159810310Y-77745460D01*
X159999560Y-77748532D01*
X160124042Y-77736272D01*
X160243740Y-77699962D01*
X160354054Y-77640997D01*
X160450745Y-77561645D01*
X160465833Y-77543261D01*
X160501506Y-77572537D01*
X160611820Y-77631502D01*
X160731518Y-77667812D01*
X160856000Y-77680072D01*
X161020250Y-77677000D01*
X161179000Y-77518250D01*
X161179000Y-76769000D01*
X160544850Y-76769000D01*
X160475812Y-76699962D01*
X160634560Y-76699962D01*
X160634560Y-76627000D01*
X161453000Y-76627000D01*
X161453000Y-76769000D01*
X161433000Y-76769000D01*
X161433000Y-77518250D01*
X161591750Y-77677000D01*
X161756000Y-77680072D01*
X161880482Y-77667812D01*
X162000180Y-77631502D01*
X162110494Y-77572537D01*
X162207185Y-77493185D01*
X162286537Y-77396494D01*
X162345502Y-77286180D01*
X162381812Y-77166482D01*
X162394072Y-77042000D01*
X162391799Y-76957480D01*
X164568269Y-78800784D01*
X164577087Y-78807611D01*
X164756233Y-78934121D01*
X164775492Y-78945328D01*
X164973992Y-79038582D01*
X164994912Y-79046251D01*
X165206654Y-79103377D01*
X165228594Y-79107271D01*
X165447062Y-79126510D01*
X165458203Y-79127000D01*
X169744452Y-79127000D01*
X169944922Y-79144539D01*
X170133926Y-79195182D01*
X170311258Y-79277873D01*
X170471535Y-79390100D01*
X170609900Y-79528465D01*
X170722127Y-79688742D01*
X170804818Y-79866074D01*
X170855461Y-80055078D01*
X170873000Y-80255548D01*
X170873000Y-84994452D01*
X170855461Y-85194922D01*
X170804818Y-85383926D01*
X170722127Y-85561258D01*
X170609900Y-85721535D01*
X170471535Y-85859900D01*
X170311258Y-85972127D01*
X170133926Y-86054818D01*
X169944922Y-86105461D01*
X169744452Y-86123000D01*
X156835807Y-86123000D01*
X156838072Y-86100000D01*
X156835000Y-85785750D01*
X156676250Y-85627000D01*
X155823906Y-85627000D01*
X155777873Y-85561258D01*
X155695182Y-85383926D01*
X155692254Y-85373000D01*
X156676250Y-85373000D01*
X156835000Y-85214250D01*
X156838072Y-84900000D01*
X156825812Y-84775518D01*
X156789502Y-84655820D01*
X156730537Y-84545506D01*
X156651185Y-84448815D01*
X156621724Y-84424637D01*
X156688405Y-84343387D01*
X156770472Y-84189851D01*
X156821008Y-84023255D01*
X156838072Y-83850001D01*
X156838072Y-83149999D01*
X156821008Y-82976745D01*
X156770472Y-82810149D01*
X156688405Y-82656613D01*
X156577962Y-82522038D01*
X156443387Y-82411595D01*
X156289851Y-82329528D01*
X156123255Y-82278992D01*
X155950001Y-82261928D01*
X155627000Y-82261928D01*
X155627000Y-81812500D01*
X158636928Y-81812500D01*
X158649188Y-81936982D01*
X158685498Y-82056680D01*
X158744463Y-82166994D01*
X158823815Y-82263685D01*
X158920506Y-82343037D01*
X159030820Y-82402002D01*
X159150518Y-82438312D01*
X159275000Y-82450572D01*
X159464250Y-82447500D01*
X159623000Y-82288750D01*
X159623000Y-81402000D01*
X159877000Y-81402000D01*
X159877000Y-82288750D01*
X160035750Y-82447500D01*
X160225000Y-82450572D01*
X160349482Y-82438312D01*
X160469180Y-82402002D01*
X160579494Y-82343037D01*
X160676185Y-82263685D01*
X160755537Y-82166994D01*
X160814502Y-82056680D01*
X160850812Y-81936982D01*
X160863072Y-81812500D01*
X160860000Y-81560750D01*
X160701250Y-81402000D01*
X159877000Y-81402000D01*
X159623000Y-81402000D01*
X158798750Y-81402000D01*
X158640000Y-81560750D01*
X158636928Y-81812500D01*
X155627000Y-81812500D01*
X155627000Y-79398061D01*
X157615000Y-79398061D01*
X157615000Y-79601939D01*
X157654774Y-79801898D01*
X157732795Y-79990256D01*
X157846063Y-80159774D01*
X157990226Y-80303937D01*
X158159744Y-80417205D01*
X158348102Y-80495226D01*
X158548061Y-80535000D01*
X158672855Y-80535000D01*
X158649188Y-80613018D01*
X158636928Y-80737500D01*
X158640000Y-80989250D01*
X158798750Y-81148000D01*
X159623000Y-81148000D01*
X159623000Y-81128000D01*
X159877000Y-81128000D01*
X159877000Y-81148000D01*
X160701250Y-81148000D01*
X160860000Y-80989250D01*
X160863072Y-80737500D01*
X160850812Y-80613018D01*
X160814502Y-80493320D01*
X160755537Y-80383006D01*
X160716226Y-80335106D01*
X160796423Y-80185067D01*
X160846248Y-80020816D01*
X160863072Y-79850000D01*
X160863072Y-79250000D01*
X160846248Y-79079184D01*
X160796423Y-78914933D01*
X160715512Y-78763558D01*
X160606623Y-78630877D01*
X160473942Y-78521988D01*
X160322567Y-78441077D01*
X160158316Y-78391252D01*
X159987500Y-78374428D01*
X159512500Y-78374428D01*
X159341684Y-78391252D01*
X159177433Y-78441077D01*
X159026058Y-78521988D01*
X159015122Y-78530963D01*
X158951898Y-78504774D01*
X158751939Y-78465000D01*
X158548061Y-78465000D01*
X158348102Y-78504774D01*
X158159744Y-78582795D01*
X157990226Y-78696063D01*
X157846063Y-78840226D01*
X157732795Y-79009744D01*
X157654774Y-79198102D01*
X157615000Y-79398061D01*
X155627000Y-79398061D01*
X155627000Y-78988072D01*
X155950001Y-78988072D01*
X156123255Y-78971008D01*
X156289851Y-78920472D01*
X156443387Y-78838405D01*
X156577962Y-78727962D01*
X156688405Y-78593387D01*
X156770472Y-78439851D01*
X156821008Y-78273255D01*
X156838072Y-78100001D01*
X156838072Y-77399999D01*
X156821008Y-77226745D01*
X156770472Y-77060149D01*
X156688405Y-76906613D01*
X156621724Y-76825363D01*
X156651185Y-76801185D01*
X156730537Y-76704494D01*
X156771959Y-76627000D01*
X158414560Y-76627000D01*
X158414560Y-76699962D01*
G37*
%TD.AperFunction*%
%TD*%
D31*
%TO.N,GND*%
X166809452Y-57838912D02*
X166449151Y-58502882D01*
X166225306Y-59224385D01*
X166146520Y-59975695D01*
X166215822Y-60727938D01*
X166430548Y-61452208D01*
X166782445Y-62120670D01*
X166809452Y-62161088D01*
X167299119Y-62521276D01*
X169820395Y-60000000D01*
X169806253Y-59985858D01*
X169985858Y-59806253D01*
X170000000Y-59820395D01*
X170014143Y-59806253D01*
X170193748Y-59985858D01*
X170179605Y-60000000D01*
X170193748Y-60014143D01*
X170014143Y-60193748D01*
X170000000Y-60179605D01*
X167478724Y-62700881D01*
X167838912Y-63190548D01*
X167855558Y-63199581D01*
X167261220Y-63645335D01*
X167104334Y-63744365D01*
X166938327Y-63814981D01*
X166763151Y-63858093D01*
X166578226Y-63873000D01*
X162250000Y-63873000D01*
X162238931Y-63873483D01*
X162021871Y-63892473D01*
X162000070Y-63896317D01*
X161789605Y-63952711D01*
X161768803Y-63960283D01*
X161571328Y-64052367D01*
X161552156Y-64063436D01*
X161373671Y-64188412D01*
X161356712Y-64202641D01*
X161202641Y-64356712D01*
X161188412Y-64373671D01*
X161063436Y-64552156D01*
X161052367Y-64571328D01*
X160960283Y-64768803D01*
X160952711Y-64789605D01*
X160896317Y-65000070D01*
X160892473Y-65021871D01*
X160873483Y-65238931D01*
X160873000Y-65250000D01*
X160873000Y-69982233D01*
X160873612Y-69994681D01*
X160897630Y-70238544D01*
X160902487Y-70262963D01*
X160973620Y-70497454D01*
X160983147Y-70520454D01*
X161098659Y-70736563D01*
X161112491Y-70757264D01*
X161267945Y-70946685D01*
X161276314Y-70955920D01*
X161539674Y-71219280D01*
X161683229Y-71394202D01*
X161786949Y-71588249D01*
X161850820Y-71798802D01*
X161862593Y-71918332D01*
X161799482Y-71899188D01*
X161675000Y-71886928D01*
X161423250Y-71890000D01*
X161264500Y-72048750D01*
X161264500Y-72873000D01*
X161284500Y-72873000D01*
X161284500Y-73127000D01*
X161264500Y-73127000D01*
X161264500Y-73147000D01*
X161010500Y-73147000D01*
X161010500Y-73127000D01*
X160123750Y-73127000D01*
X159965000Y-73285750D01*
X159961928Y-73475000D01*
X159974188Y-73599482D01*
X159996320Y-73672441D01*
X159810310Y-73675460D01*
X159651560Y-73834210D01*
X159651560Y-74720960D01*
X160475810Y-74720960D01*
X160581770Y-74615000D01*
X161179000Y-74615000D01*
X161179000Y-74595000D01*
X161433000Y-74595000D01*
X161433000Y-74615000D01*
X161453000Y-74615000D01*
X161453000Y-74869000D01*
X161433000Y-74869000D01*
X161433000Y-74889000D01*
X161179000Y-74889000D01*
X161179000Y-74869000D01*
X160379750Y-74869000D01*
X160273790Y-74974960D01*
X159651560Y-74974960D01*
X159651560Y-74994960D01*
X159397560Y-74994960D01*
X159397560Y-74974960D01*
X158573310Y-74974960D01*
X158414560Y-75133710D01*
X158414165Y-75166094D01*
X158359276Y-75129614D01*
X158218414Y-74997282D01*
X157600275Y-74310460D01*
X158411488Y-74310460D01*
X158414560Y-74562210D01*
X158573310Y-74720960D01*
X159397560Y-74720960D01*
X159397560Y-73834210D01*
X159238810Y-73675460D01*
X159049560Y-73672388D01*
X158925078Y-73684648D01*
X158805380Y-73720958D01*
X158695066Y-73779923D01*
X158598375Y-73859275D01*
X158519023Y-73955966D01*
X158460058Y-74066280D01*
X158423748Y-74185978D01*
X158411488Y-74310460D01*
X157600275Y-74310460D01*
X156716813Y-73328836D01*
X156709371Y-73321232D01*
X156556863Y-73177960D01*
X156540204Y-73164752D01*
X156365933Y-73048927D01*
X156347304Y-73038682D01*
X156156154Y-72953551D01*
X156136078Y-72946558D01*
X155933405Y-72894506D01*
X155912443Y-72890960D01*
X155703927Y-72873446D01*
X155693297Y-72873000D01*
X153217133Y-72873000D01*
X153381355Y-72775178D01*
X153597588Y-72580269D01*
X153638812Y-72525000D01*
X159961928Y-72525000D01*
X159965000Y-72714250D01*
X160123750Y-72873000D01*
X161010500Y-72873000D01*
X161010500Y-72048750D01*
X160851750Y-71890000D01*
X160600000Y-71886928D01*
X160475518Y-71899188D01*
X160355820Y-71935498D01*
X160245506Y-71994463D01*
X160148815Y-72073815D01*
X160069463Y-72170506D01*
X160010498Y-72280820D01*
X159974188Y-72400518D01*
X159961928Y-72525000D01*
X153638812Y-72525000D01*
X153771641Y-72346920D01*
X153896825Y-72084099D01*
X153941476Y-71936890D01*
X153820155Y-71707000D01*
X152627000Y-71707000D01*
X152627000Y-71727000D01*
X152373000Y-71727000D01*
X152373000Y-71707000D01*
X152353000Y-71707000D01*
X152353000Y-71453000D01*
X152373000Y-71453000D01*
X152373000Y-71433000D01*
X152627000Y-71433000D01*
X152627000Y-71453000D01*
X153820155Y-71453000D01*
X153941476Y-71223110D01*
X153896825Y-71075901D01*
X153771641Y-70813080D01*
X153597588Y-70579731D01*
X153381355Y-70384822D01*
X153264466Y-70315195D01*
X153446632Y-70193475D01*
X153653475Y-69986632D01*
X153815990Y-69743411D01*
X153927932Y-69473158D01*
X153985000Y-69186260D01*
X153985000Y-68893740D01*
X153927932Y-68606842D01*
X153815990Y-68336589D01*
X153653475Y-68093368D01*
X153521620Y-67961513D01*
X153594180Y-67939502D01*
X153704494Y-67880537D01*
X153801185Y-67801185D01*
X153880537Y-67704494D01*
X153936805Y-67599224D01*
X157080381Y-67599224D01*
X157212317Y-67894312D01*
X157553045Y-68065159D01*
X157920557Y-68166250D01*
X158300729Y-68193701D01*
X158678951Y-68146457D01*
X159040690Y-68026333D01*
X159287683Y-67894312D01*
X159419619Y-67599224D01*
X158250000Y-66429605D01*
X157080381Y-67599224D01*
X153936805Y-67599224D01*
X153939502Y-67594180D01*
X153975812Y-67474482D01*
X153988072Y-67350000D01*
X153988072Y-66300729D01*
X156306299Y-66300729D01*
X156353543Y-66678951D01*
X156473667Y-67040690D01*
X156605688Y-67287683D01*
X156900776Y-67419619D01*
X158070395Y-66250000D01*
X158429605Y-66250000D01*
X159599224Y-67419619D01*
X159894312Y-67287683D01*
X160065159Y-66946955D01*
X160166250Y-66579443D01*
X160193701Y-66199271D01*
X160146457Y-65821049D01*
X160026333Y-65459310D01*
X159894312Y-65212317D01*
X159599224Y-65080381D01*
X158429605Y-66250000D01*
X158070395Y-66250000D01*
X156900776Y-65080381D01*
X156605688Y-65212317D01*
X156434841Y-65553045D01*
X156333750Y-65920557D01*
X156306299Y-66300729D01*
X153988072Y-66300729D01*
X153988072Y-65650000D01*
X153975812Y-65525518D01*
X153939502Y-65405820D01*
X153880537Y-65295506D01*
X153801185Y-65198815D01*
X153704494Y-65119463D01*
X153594180Y-65060498D01*
X153474482Y-65024188D01*
X153350000Y-65011928D01*
X151650000Y-65011928D01*
X151525518Y-65024188D01*
X151405820Y-65060498D01*
X151295506Y-65119463D01*
X151198815Y-65198815D01*
X151119463Y-65295506D01*
X151060498Y-65405820D01*
X151024188Y-65525518D01*
X151011928Y-65650000D01*
X151011928Y-67350000D01*
X151024188Y-67474482D01*
X151060498Y-67594180D01*
X151119463Y-67704494D01*
X151198815Y-67801185D01*
X151295506Y-67880537D01*
X151405820Y-67939502D01*
X151478380Y-67961513D01*
X151346525Y-68093368D01*
X151184010Y-68336589D01*
X151072068Y-68606842D01*
X151015000Y-68893740D01*
X151015000Y-69186260D01*
X151072068Y-69473158D01*
X151135325Y-69625874D01*
X147888199Y-72873000D01*
X147717133Y-72873000D01*
X147881355Y-72775178D01*
X148097588Y-72580269D01*
X148271641Y-72346920D01*
X148396825Y-72084099D01*
X148441476Y-71936890D01*
X148320155Y-71707000D01*
X147127000Y-71707000D01*
X147127000Y-71727000D01*
X146873000Y-71727000D01*
X146873000Y-71707000D01*
X145679845Y-71707000D01*
X145558524Y-71936890D01*
X145603175Y-72084099D01*
X145728359Y-72346920D01*
X145902412Y-72580269D01*
X146118645Y-72775178D01*
X146282867Y-72873000D01*
X143737818Y-72873000D01*
X143946632Y-72733475D01*
X144153475Y-72526632D01*
X144315990Y-72283411D01*
X144427932Y-72013158D01*
X144485000Y-71726260D01*
X144485000Y-71433740D01*
X144427932Y-71146842D01*
X144315990Y-70876589D01*
X144153475Y-70633368D01*
X143946632Y-70426525D01*
X143772240Y-70310000D01*
X143946632Y-70193475D01*
X144153475Y-69986632D01*
X144315990Y-69743411D01*
X144427932Y-69473158D01*
X144485000Y-69186260D01*
X144485000Y-68893740D01*
X144427932Y-68606842D01*
X144315990Y-68336589D01*
X144153475Y-68093368D01*
X144021620Y-67961513D01*
X144094180Y-67939502D01*
X144204494Y-67880537D01*
X144301185Y-67801185D01*
X144380537Y-67704494D01*
X144439502Y-67594180D01*
X144475812Y-67474482D01*
X144488072Y-67350000D01*
X144488072Y-66801019D01*
X145184999Y-67497946D01*
X145184999Y-67890612D01*
X145181612Y-67924999D01*
X145184999Y-67959386D01*
X145184999Y-67959389D01*
X145195127Y-68062223D01*
X145218570Y-68139502D01*
X145235154Y-68194173D01*
X145300154Y-68315780D01*
X145365707Y-68395656D01*
X145387630Y-68422369D01*
X145414341Y-68444290D01*
X145573481Y-68603430D01*
X145572068Y-68606842D01*
X145515000Y-68893740D01*
X145515000Y-69186260D01*
X145572068Y-69473158D01*
X145684010Y-69743411D01*
X145846525Y-69986632D01*
X146053368Y-70193475D01*
X146235534Y-70315195D01*
X146118645Y-70384822D01*
X145902412Y-70579731D01*
X145728359Y-70813080D01*
X145603175Y-71075901D01*
X145558524Y-71223110D01*
X145679845Y-71453000D01*
X146873000Y-71453000D01*
X146873000Y-71433000D01*
X147127000Y-71433000D01*
X147127000Y-71453000D01*
X148320155Y-71453000D01*
X148441476Y-71223110D01*
X148396825Y-71075901D01*
X148271641Y-70813080D01*
X148097588Y-70579731D01*
X147881355Y-70384822D01*
X147764466Y-70315195D01*
X147946632Y-70193475D01*
X148153475Y-69986632D01*
X148315990Y-69743411D01*
X148427932Y-69473158D01*
X148485000Y-69186260D01*
X148485000Y-68893740D01*
X148427932Y-68606842D01*
X148315990Y-68336589D01*
X148153475Y-68093368D01*
X148021620Y-67961513D01*
X148094180Y-67939502D01*
X148204494Y-67880537D01*
X148301185Y-67801185D01*
X148380537Y-67704494D01*
X148439502Y-67594180D01*
X148475812Y-67474482D01*
X148488072Y-67350000D01*
X148488072Y-66032310D01*
X148505782Y-66022844D01*
X148612370Y-65935368D01*
X148699846Y-65828780D01*
X148764846Y-65707173D01*
X148804873Y-65575223D01*
X148818388Y-65437999D01*
X148804873Y-65300775D01*
X148764846Y-65168824D01*
X148699846Y-65047218D01*
X148634293Y-64967341D01*
X148567728Y-64900776D01*
X157080381Y-64900776D01*
X158250000Y-66070395D01*
X159419619Y-64900776D01*
X159287683Y-64605688D01*
X158946955Y-64434841D01*
X158579443Y-64333750D01*
X158199271Y-64306299D01*
X157821049Y-64353543D01*
X157459310Y-64473667D01*
X157212317Y-64605688D01*
X157080381Y-64900776D01*
X148567728Y-64900776D01*
X147807640Y-64140689D01*
X147727764Y-64075136D01*
X147606157Y-64010136D01*
X147474206Y-63970110D01*
X147336983Y-63956594D01*
X147199760Y-63970110D01*
X147067809Y-64010136D01*
X146946202Y-64075136D01*
X146839614Y-64162612D01*
X146752138Y-64269200D01*
X146687138Y-64390807D01*
X146647112Y-64522758D01*
X146633596Y-64659981D01*
X146647112Y-64797204D01*
X146687138Y-64929155D01*
X146731381Y-65011928D01*
X146150000Y-65011928D01*
X146025518Y-65024188D01*
X145905820Y-65060498D01*
X145795506Y-65119463D01*
X145698815Y-65198815D01*
X145619463Y-65295506D01*
X145560498Y-65405820D01*
X145524188Y-65525518D01*
X145511928Y-65650000D01*
X145511928Y-65844977D01*
X144581297Y-64914346D01*
X144559371Y-64887629D01*
X144452782Y-64800154D01*
X144331176Y-64735154D01*
X144199225Y-64695127D01*
X144096391Y-64684999D01*
X144096388Y-64684999D01*
X144062001Y-64681612D01*
X144027614Y-64684999D01*
X137972386Y-64684999D01*
X137937999Y-64681612D01*
X137903612Y-64684999D01*
X137903609Y-64684999D01*
X137800775Y-64695127D01*
X137668824Y-64735154D01*
X137547217Y-64800154D01*
X137467341Y-64865707D01*
X137440629Y-64887629D01*
X137418708Y-64914341D01*
X135384353Y-66948696D01*
X135357642Y-66970617D01*
X135335721Y-66997328D01*
X135335719Y-66997330D01*
X135270166Y-67077206D01*
X135205166Y-67198813D01*
X135193284Y-67237984D01*
X135168249Y-67320516D01*
X135165140Y-67330764D01*
X135151624Y-67467987D01*
X135155012Y-67502384D01*
X135155012Y-69830210D01*
X134353804Y-69029003D01*
X134330001Y-68999999D01*
X134214276Y-68905026D01*
X134082247Y-68834454D01*
X133947189Y-68793485D01*
X133813475Y-68593368D01*
X133606632Y-68386525D01*
X133430594Y-68268900D01*
X133660269Y-68097588D01*
X133855178Y-67881355D01*
X134004157Y-67631252D01*
X134101481Y-67356891D01*
X133980814Y-67127000D01*
X132787000Y-67127000D01*
X132787000Y-67147000D01*
X132533000Y-67147000D01*
X132533000Y-67127000D01*
X132513000Y-67127000D01*
X132513000Y-66873000D01*
X132533000Y-66873000D01*
X132533000Y-65679845D01*
X132787000Y-65679845D01*
X132787000Y-66873000D01*
X133980814Y-66873000D01*
X134101481Y-66643109D01*
X134004157Y-66368748D01*
X133855178Y-66118645D01*
X133660269Y-65902412D01*
X133426920Y-65728359D01*
X133164099Y-65603175D01*
X133016890Y-65558524D01*
X132787000Y-65679845D01*
X132533000Y-65679845D01*
X132303110Y-65558524D01*
X132155901Y-65603175D01*
X131893080Y-65728359D01*
X131659731Y-65902412D01*
X131464822Y-66118645D01*
X131395195Y-66235534D01*
X131273475Y-66053368D01*
X131066632Y-65846525D01*
X130823411Y-65684010D01*
X130553158Y-65572068D01*
X130266260Y-65515000D01*
X129973740Y-65515000D01*
X129686842Y-65572068D01*
X129416589Y-65684010D01*
X129173368Y-65846525D01*
X128966525Y-66053368D01*
X128844805Y-66235534D01*
X128775178Y-66118645D01*
X128580269Y-65902412D01*
X128346920Y-65728359D01*
X128084099Y-65603175D01*
X127936890Y-65558524D01*
X127707000Y-65679845D01*
X127707000Y-66873000D01*
X127727000Y-66873000D01*
X127727000Y-67127000D01*
X127707000Y-67127000D01*
X127707000Y-67147000D01*
X127453000Y-67147000D01*
X127453000Y-67127000D01*
X125167000Y-67127000D01*
X125167000Y-67147000D01*
X124913000Y-67147000D01*
X124913000Y-67127000D01*
X124893000Y-67127000D01*
X124893000Y-66873000D01*
X124913000Y-66873000D01*
X124913000Y-65679845D01*
X125167000Y-65679845D01*
X125167000Y-66873000D01*
X127453000Y-66873000D01*
X127453000Y-65679845D01*
X127223110Y-65558524D01*
X127075901Y-65603175D01*
X126813080Y-65728359D01*
X126579731Y-65902412D01*
X126384822Y-66118645D01*
X126310000Y-66244255D01*
X126235178Y-66118645D01*
X126040269Y-65902412D01*
X125806920Y-65728359D01*
X125544099Y-65603175D01*
X125396890Y-65558524D01*
X125167000Y-65679845D01*
X124913000Y-65679845D01*
X124683110Y-65558524D01*
X124535901Y-65603175D01*
X124273080Y-65728359D01*
X124039731Y-65902412D01*
X123963966Y-65986466D01*
X123939502Y-65905820D01*
X123880537Y-65795506D01*
X123801185Y-65698815D01*
X123704494Y-65619463D01*
X123594180Y-65560498D01*
X123474482Y-65524188D01*
X123350000Y-65511928D01*
X121650000Y-65511928D01*
X121525518Y-65524188D01*
X121405820Y-65560498D01*
X121295506Y-65619463D01*
X121198815Y-65698815D01*
X121119463Y-65795506D01*
X121060498Y-65905820D01*
X121024188Y-66025518D01*
X121011928Y-66150000D01*
X121011928Y-67850000D01*
X121024188Y-67974482D01*
X121060498Y-68094180D01*
X121119463Y-68204494D01*
X121198815Y-68301185D01*
X121295506Y-68380537D01*
X121405820Y-68439502D01*
X121478380Y-68461513D01*
X121346525Y-68593368D01*
X121184010Y-68836589D01*
X121072068Y-69106842D01*
X121015000Y-69393740D01*
X121015000Y-69686260D01*
X121072068Y-69973158D01*
X121184010Y-70243411D01*
X121346525Y-70486632D01*
X121553368Y-70693475D01*
X121796589Y-70855990D01*
X122066842Y-70967932D01*
X122353740Y-71025000D01*
X122646260Y-71025000D01*
X122933158Y-70967932D01*
X123203411Y-70855990D01*
X123446632Y-70693475D01*
X123653475Y-70486632D01*
X123770000Y-70312240D01*
X123886525Y-70486632D01*
X124093368Y-70693475D01*
X124336589Y-70855990D01*
X124606842Y-70967932D01*
X124893740Y-71025000D01*
X125186260Y-71025000D01*
X125473158Y-70967932D01*
X125743411Y-70855990D01*
X125986632Y-70693475D01*
X126193475Y-70486632D01*
X126310000Y-70312240D01*
X126426525Y-70486632D01*
X126633368Y-70693475D01*
X126876589Y-70855990D01*
X127146842Y-70967932D01*
X127433740Y-71025000D01*
X127726260Y-71025000D01*
X128013158Y-70967932D01*
X128283411Y-70855990D01*
X128526632Y-70693475D01*
X128733475Y-70486632D01*
X128850000Y-70312240D01*
X128966525Y-70486632D01*
X129173368Y-70693475D01*
X129416589Y-70855990D01*
X129686842Y-70967932D01*
X129973740Y-71025000D01*
X130266260Y-71025000D01*
X130553158Y-70967932D01*
X130823411Y-70855990D01*
X131066632Y-70693475D01*
X131273475Y-70486632D01*
X131390000Y-70312240D01*
X131506525Y-70486632D01*
X131713368Y-70693475D01*
X131956589Y-70855990D01*
X132226842Y-70967932D01*
X132513740Y-71025000D01*
X132806260Y-71025000D01*
X133093158Y-70967932D01*
X133363411Y-70855990D01*
X133606632Y-70693475D01*
X133737653Y-70562454D01*
X134465002Y-71289804D01*
X134465002Y-72795295D01*
X134352756Y-72720295D01*
X134164398Y-72642274D01*
X133964439Y-72602500D01*
X133760561Y-72602500D01*
X133560602Y-72642274D01*
X133372244Y-72720295D01*
X133202726Y-72833563D01*
X133163289Y-72873000D01*
X119255548Y-72873000D01*
X119055078Y-72855461D01*
X118866074Y-72804818D01*
X118688742Y-72722127D01*
X118528465Y-72609900D01*
X118390100Y-72471535D01*
X118277873Y-72311258D01*
X118195182Y-72133926D01*
X118144539Y-71944922D01*
X118127000Y-71744452D01*
X118127000Y-63346878D01*
X118502882Y-63550849D01*
X119224385Y-63774694D01*
X119975695Y-63853480D01*
X120727938Y-63784178D01*
X121452208Y-63569452D01*
X122120670Y-63217555D01*
X122161088Y-63190548D01*
X122521276Y-62700881D01*
X120000000Y-60179605D01*
X119985858Y-60193748D01*
X119806253Y-60014143D01*
X119820395Y-60000000D01*
X119806253Y-59985858D01*
X119985858Y-59806253D01*
X120000000Y-59820395D01*
X120014143Y-59806253D01*
X120193748Y-59985858D01*
X120179605Y-60000000D01*
X122700881Y-62521276D01*
X123190548Y-62161088D01*
X123550849Y-61497118D01*
X123774694Y-60775615D01*
X123853480Y-60024305D01*
X123784178Y-59272062D01*
X123569452Y-58547792D01*
X123217555Y-57879330D01*
X123190548Y-57838912D01*
X122902459Y-57627000D01*
X167097541Y-57627000D01*
X166809452Y-57838912D01*
%TA.AperFunction,Conductor*%
D32*
G36*
X166809452Y-57838912D02*
G01*
X166449151Y-58502882D01*
X166225306Y-59224385D01*
X166146520Y-59975695D01*
X166215822Y-60727938D01*
X166430548Y-61452208D01*
X166782445Y-62120670D01*
X166809452Y-62161088D01*
X167299119Y-62521276D01*
X169820395Y-60000000D01*
X169806253Y-59985858D01*
X169985858Y-59806253D01*
X170000000Y-59820395D01*
X170014143Y-59806253D01*
X170193748Y-59985858D01*
X170179605Y-60000000D01*
X170193748Y-60014143D01*
X170014143Y-60193748D01*
X170000000Y-60179605D01*
X167478724Y-62700881D01*
X167838912Y-63190548D01*
X167855558Y-63199581D01*
X167261220Y-63645335D01*
X167104334Y-63744365D01*
X166938327Y-63814981D01*
X166763151Y-63858093D01*
X166578226Y-63873000D01*
X162250000Y-63873000D01*
X162238931Y-63873483D01*
X162021871Y-63892473D01*
X162000070Y-63896317D01*
X161789605Y-63952711D01*
X161768803Y-63960283D01*
X161571328Y-64052367D01*
X161552156Y-64063436D01*
X161373671Y-64188412D01*
X161356712Y-64202641D01*
X161202641Y-64356712D01*
X161188412Y-64373671D01*
X161063436Y-64552156D01*
X161052367Y-64571328D01*
X160960283Y-64768803D01*
X160952711Y-64789605D01*
X160896317Y-65000070D01*
X160892473Y-65021871D01*
X160873483Y-65238931D01*
X160873000Y-65250000D01*
X160873000Y-69982233D01*
X160873612Y-69994681D01*
X160897630Y-70238544D01*
X160902487Y-70262963D01*
X160973620Y-70497454D01*
X160983147Y-70520454D01*
X161098659Y-70736563D01*
X161112491Y-70757264D01*
X161267945Y-70946685D01*
X161276314Y-70955920D01*
X161539674Y-71219280D01*
X161683229Y-71394202D01*
X161786949Y-71588249D01*
X161850820Y-71798802D01*
X161862593Y-71918332D01*
X161799482Y-71899188D01*
X161675000Y-71886928D01*
X161423250Y-71890000D01*
X161264500Y-72048750D01*
X161264500Y-72873000D01*
X161284500Y-72873000D01*
X161284500Y-73127000D01*
X161264500Y-73127000D01*
X161264500Y-73147000D01*
X161010500Y-73147000D01*
X161010500Y-73127000D01*
X160123750Y-73127000D01*
X159965000Y-73285750D01*
X159961928Y-73475000D01*
X159974188Y-73599482D01*
X159996320Y-73672441D01*
X159810310Y-73675460D01*
X159651560Y-73834210D01*
X159651560Y-74720960D01*
X160475810Y-74720960D01*
X160581770Y-74615000D01*
X161179000Y-74615000D01*
X161179000Y-74595000D01*
X161433000Y-74595000D01*
X161433000Y-74615000D01*
X161453000Y-74615000D01*
X161453000Y-74869000D01*
X161433000Y-74869000D01*
X161433000Y-74889000D01*
X161179000Y-74889000D01*
X161179000Y-74869000D01*
X160379750Y-74869000D01*
X160273790Y-74974960D01*
X159651560Y-74974960D01*
X159651560Y-74994960D01*
X159397560Y-74994960D01*
X159397560Y-74974960D01*
X158573310Y-74974960D01*
X158414560Y-75133710D01*
X158414165Y-75166094D01*
X158359276Y-75129614D01*
X158218414Y-74997282D01*
X157600275Y-74310460D01*
X158411488Y-74310460D01*
X158414560Y-74562210D01*
X158573310Y-74720960D01*
X159397560Y-74720960D01*
X159397560Y-73834210D01*
X159238810Y-73675460D01*
X159049560Y-73672388D01*
X158925078Y-73684648D01*
X158805380Y-73720958D01*
X158695066Y-73779923D01*
X158598375Y-73859275D01*
X158519023Y-73955966D01*
X158460058Y-74066280D01*
X158423748Y-74185978D01*
X158411488Y-74310460D01*
X157600275Y-74310460D01*
X156716813Y-73328836D01*
X156709371Y-73321232D01*
X156556863Y-73177960D01*
X156540204Y-73164752D01*
X156365933Y-73048927D01*
X156347304Y-73038682D01*
X156156154Y-72953551D01*
X156136078Y-72946558D01*
X155933405Y-72894506D01*
X155912443Y-72890960D01*
X155703927Y-72873446D01*
X155693297Y-72873000D01*
X153217133Y-72873000D01*
X153381355Y-72775178D01*
X153597588Y-72580269D01*
X153638812Y-72525000D01*
X159961928Y-72525000D01*
X159965000Y-72714250D01*
X160123750Y-72873000D01*
X161010500Y-72873000D01*
X161010500Y-72048750D01*
X160851750Y-71890000D01*
X160600000Y-71886928D01*
X160475518Y-71899188D01*
X160355820Y-71935498D01*
X160245506Y-71994463D01*
X160148815Y-72073815D01*
X160069463Y-72170506D01*
X160010498Y-72280820D01*
X159974188Y-72400518D01*
X159961928Y-72525000D01*
X153638812Y-72525000D01*
X153771641Y-72346920D01*
X153896825Y-72084099D01*
X153941476Y-71936890D01*
X153820155Y-71707000D01*
X152627000Y-71707000D01*
X152627000Y-71727000D01*
X152373000Y-71727000D01*
X152373000Y-71707000D01*
X152353000Y-71707000D01*
X152353000Y-71453000D01*
X152373000Y-71453000D01*
X152373000Y-71433000D01*
X152627000Y-71433000D01*
X152627000Y-71453000D01*
X153820155Y-71453000D01*
X153941476Y-71223110D01*
X153896825Y-71075901D01*
X153771641Y-70813080D01*
X153597588Y-70579731D01*
X153381355Y-70384822D01*
X153264466Y-70315195D01*
X153446632Y-70193475D01*
X153653475Y-69986632D01*
X153815990Y-69743411D01*
X153927932Y-69473158D01*
X153985000Y-69186260D01*
X153985000Y-68893740D01*
X153927932Y-68606842D01*
X153815990Y-68336589D01*
X153653475Y-68093368D01*
X153521620Y-67961513D01*
X153594180Y-67939502D01*
X153704494Y-67880537D01*
X153801185Y-67801185D01*
X153880537Y-67704494D01*
X153936805Y-67599224D01*
X157080381Y-67599224D01*
X157212317Y-67894312D01*
X157553045Y-68065159D01*
X157920557Y-68166250D01*
X158300729Y-68193701D01*
X158678951Y-68146457D01*
X159040690Y-68026333D01*
X159287683Y-67894312D01*
X159419619Y-67599224D01*
X158250000Y-66429605D01*
X157080381Y-67599224D01*
X153936805Y-67599224D01*
X153939502Y-67594180D01*
X153975812Y-67474482D01*
X153988072Y-67350000D01*
X153988072Y-66300729D01*
X156306299Y-66300729D01*
X156353543Y-66678951D01*
X156473667Y-67040690D01*
X156605688Y-67287683D01*
X156900776Y-67419619D01*
X158070395Y-66250000D01*
X158429605Y-66250000D01*
X159599224Y-67419619D01*
X159894312Y-67287683D01*
X160065159Y-66946955D01*
X160166250Y-66579443D01*
X160193701Y-66199271D01*
X160146457Y-65821049D01*
X160026333Y-65459310D01*
X159894312Y-65212317D01*
X159599224Y-65080381D01*
X158429605Y-66250000D01*
X158070395Y-66250000D01*
X156900776Y-65080381D01*
X156605688Y-65212317D01*
X156434841Y-65553045D01*
X156333750Y-65920557D01*
X156306299Y-66300729D01*
X153988072Y-66300729D01*
X153988072Y-65650000D01*
X153975812Y-65525518D01*
X153939502Y-65405820D01*
X153880537Y-65295506D01*
X153801185Y-65198815D01*
X153704494Y-65119463D01*
X153594180Y-65060498D01*
X153474482Y-65024188D01*
X153350000Y-65011928D01*
X151650000Y-65011928D01*
X151525518Y-65024188D01*
X151405820Y-65060498D01*
X151295506Y-65119463D01*
X151198815Y-65198815D01*
X151119463Y-65295506D01*
X151060498Y-65405820D01*
X151024188Y-65525518D01*
X151011928Y-65650000D01*
X151011928Y-67350000D01*
X151024188Y-67474482D01*
X151060498Y-67594180D01*
X151119463Y-67704494D01*
X151198815Y-67801185D01*
X151295506Y-67880537D01*
X151405820Y-67939502D01*
X151478380Y-67961513D01*
X151346525Y-68093368D01*
X151184010Y-68336589D01*
X151072068Y-68606842D01*
X151015000Y-68893740D01*
X151015000Y-69186260D01*
X151072068Y-69473158D01*
X151135325Y-69625874D01*
X147888199Y-72873000D01*
X147717133Y-72873000D01*
X147881355Y-72775178D01*
X148097588Y-72580269D01*
X148271641Y-72346920D01*
X148396825Y-72084099D01*
X148441476Y-71936890D01*
X148320155Y-71707000D01*
X147127000Y-71707000D01*
X147127000Y-71727000D01*
X146873000Y-71727000D01*
X146873000Y-71707000D01*
X145679845Y-71707000D01*
X145558524Y-71936890D01*
X145603175Y-72084099D01*
X145728359Y-72346920D01*
X145902412Y-72580269D01*
X146118645Y-72775178D01*
X146282867Y-72873000D01*
X143737818Y-72873000D01*
X143946632Y-72733475D01*
X144153475Y-72526632D01*
X144315990Y-72283411D01*
X144427932Y-72013158D01*
X144485000Y-71726260D01*
X144485000Y-71433740D01*
X144427932Y-71146842D01*
X144315990Y-70876589D01*
X144153475Y-70633368D01*
X143946632Y-70426525D01*
X143772240Y-70310000D01*
X143946632Y-70193475D01*
X144153475Y-69986632D01*
X144315990Y-69743411D01*
X144427932Y-69473158D01*
X144485000Y-69186260D01*
X144485000Y-68893740D01*
X144427932Y-68606842D01*
X144315990Y-68336589D01*
X144153475Y-68093368D01*
X144021620Y-67961513D01*
X144094180Y-67939502D01*
X144204494Y-67880537D01*
X144301185Y-67801185D01*
X144380537Y-67704494D01*
X144439502Y-67594180D01*
X144475812Y-67474482D01*
X144488072Y-67350000D01*
X144488072Y-66801019D01*
X145184999Y-67497946D01*
X145184999Y-67890612D01*
X145181612Y-67924999D01*
X145184999Y-67959386D01*
X145184999Y-67959389D01*
X145195127Y-68062223D01*
X145218570Y-68139502D01*
X145235154Y-68194173D01*
X145300154Y-68315780D01*
X145365707Y-68395656D01*
X145387630Y-68422369D01*
X145414341Y-68444290D01*
X145573481Y-68603430D01*
X145572068Y-68606842D01*
X145515000Y-68893740D01*
X145515000Y-69186260D01*
X145572068Y-69473158D01*
X145684010Y-69743411D01*
X145846525Y-69986632D01*
X146053368Y-70193475D01*
X146235534Y-70315195D01*
X146118645Y-70384822D01*
X145902412Y-70579731D01*
X145728359Y-70813080D01*
X145603175Y-71075901D01*
X145558524Y-71223110D01*
X145679845Y-71453000D01*
X146873000Y-71453000D01*
X146873000Y-71433000D01*
X147127000Y-71433000D01*
X147127000Y-71453000D01*
X148320155Y-71453000D01*
X148441476Y-71223110D01*
X148396825Y-71075901D01*
X148271641Y-70813080D01*
X148097588Y-70579731D01*
X147881355Y-70384822D01*
X147764466Y-70315195D01*
X147946632Y-70193475D01*
X148153475Y-69986632D01*
X148315990Y-69743411D01*
X148427932Y-69473158D01*
X148485000Y-69186260D01*
X148485000Y-68893740D01*
X148427932Y-68606842D01*
X148315990Y-68336589D01*
X148153475Y-68093368D01*
X148021620Y-67961513D01*
X148094180Y-67939502D01*
X148204494Y-67880537D01*
X148301185Y-67801185D01*
X148380537Y-67704494D01*
X148439502Y-67594180D01*
X148475812Y-67474482D01*
X148488072Y-67350000D01*
X148488072Y-66032310D01*
X148505782Y-66022844D01*
X148612370Y-65935368D01*
X148699846Y-65828780D01*
X148764846Y-65707173D01*
X148804873Y-65575223D01*
X148818388Y-65437999D01*
X148804873Y-65300775D01*
X148764846Y-65168824D01*
X148699846Y-65047218D01*
X148634293Y-64967341D01*
X148567728Y-64900776D01*
X157080381Y-64900776D01*
X158250000Y-66070395D01*
X159419619Y-64900776D01*
X159287683Y-64605688D01*
X158946955Y-64434841D01*
X158579443Y-64333750D01*
X158199271Y-64306299D01*
X157821049Y-64353543D01*
X157459310Y-64473667D01*
X157212317Y-64605688D01*
X157080381Y-64900776D01*
X148567728Y-64900776D01*
X147807640Y-64140689D01*
X147727764Y-64075136D01*
X147606157Y-64010136D01*
X147474206Y-63970110D01*
X147336983Y-63956594D01*
X147199760Y-63970110D01*
X147067809Y-64010136D01*
X146946202Y-64075136D01*
X146839614Y-64162612D01*
X146752138Y-64269200D01*
X146687138Y-64390807D01*
X146647112Y-64522758D01*
X146633596Y-64659981D01*
X146647112Y-64797204D01*
X146687138Y-64929155D01*
X146731381Y-65011928D01*
X146150000Y-65011928D01*
X146025518Y-65024188D01*
X145905820Y-65060498D01*
X145795506Y-65119463D01*
X145698815Y-65198815D01*
X145619463Y-65295506D01*
X145560498Y-65405820D01*
X145524188Y-65525518D01*
X145511928Y-65650000D01*
X145511928Y-65844977D01*
X144581297Y-64914346D01*
X144559371Y-64887629D01*
X144452782Y-64800154D01*
X144331176Y-64735154D01*
X144199225Y-64695127D01*
X144096391Y-64684999D01*
X144096388Y-64684999D01*
X144062001Y-64681612D01*
X144027614Y-64684999D01*
X137972386Y-64684999D01*
X137937999Y-64681612D01*
X137903612Y-64684999D01*
X137903609Y-64684999D01*
X137800775Y-64695127D01*
X137668824Y-64735154D01*
X137547217Y-64800154D01*
X137467341Y-64865707D01*
X137440629Y-64887629D01*
X137418708Y-64914341D01*
X135384353Y-66948696D01*
X135357642Y-66970617D01*
X135335721Y-66997328D01*
X135335719Y-66997330D01*
X135270166Y-67077206D01*
X135205166Y-67198813D01*
X135193284Y-67237984D01*
X135168249Y-67320516D01*
X135165140Y-67330764D01*
X135151624Y-67467987D01*
X135155012Y-67502384D01*
X135155012Y-69830210D01*
X134353804Y-69029003D01*
X134330001Y-68999999D01*
X134214276Y-68905026D01*
X134082247Y-68834454D01*
X133947189Y-68793485D01*
X133813475Y-68593368D01*
X133606632Y-68386525D01*
X133430594Y-68268900D01*
X133660269Y-68097588D01*
X133855178Y-67881355D01*
X134004157Y-67631252D01*
X134101481Y-67356891D01*
X133980814Y-67127000D01*
X132787000Y-67127000D01*
X132787000Y-67147000D01*
X132533000Y-67147000D01*
X132533000Y-67127000D01*
X132513000Y-67127000D01*
X132513000Y-66873000D01*
X132533000Y-66873000D01*
X132533000Y-65679845D01*
X132787000Y-65679845D01*
X132787000Y-66873000D01*
X133980814Y-66873000D01*
X134101481Y-66643109D01*
X134004157Y-66368748D01*
X133855178Y-66118645D01*
X133660269Y-65902412D01*
X133426920Y-65728359D01*
X133164099Y-65603175D01*
X133016890Y-65558524D01*
X132787000Y-65679845D01*
X132533000Y-65679845D01*
X132303110Y-65558524D01*
X132155901Y-65603175D01*
X131893080Y-65728359D01*
X131659731Y-65902412D01*
X131464822Y-66118645D01*
X131395195Y-66235534D01*
X131273475Y-66053368D01*
X131066632Y-65846525D01*
X130823411Y-65684010D01*
X130553158Y-65572068D01*
X130266260Y-65515000D01*
X129973740Y-65515000D01*
X129686842Y-65572068D01*
X129416589Y-65684010D01*
X129173368Y-65846525D01*
X128966525Y-66053368D01*
X128844805Y-66235534D01*
X128775178Y-66118645D01*
X128580269Y-65902412D01*
X128346920Y-65728359D01*
X128084099Y-65603175D01*
X127936890Y-65558524D01*
X127707000Y-65679845D01*
X127707000Y-66873000D01*
X127727000Y-66873000D01*
X127727000Y-67127000D01*
X127707000Y-67127000D01*
X127707000Y-67147000D01*
X127453000Y-67147000D01*
X127453000Y-67127000D01*
X125167000Y-67127000D01*
X125167000Y-67147000D01*
X124913000Y-67147000D01*
X124913000Y-67127000D01*
X124893000Y-67127000D01*
X124893000Y-66873000D01*
X124913000Y-66873000D01*
X124913000Y-65679845D01*
X125167000Y-65679845D01*
X125167000Y-66873000D01*
X127453000Y-66873000D01*
X127453000Y-65679845D01*
X127223110Y-65558524D01*
X127075901Y-65603175D01*
X126813080Y-65728359D01*
X126579731Y-65902412D01*
X126384822Y-66118645D01*
X126310000Y-66244255D01*
X126235178Y-66118645D01*
X126040269Y-65902412D01*
X125806920Y-65728359D01*
X125544099Y-65603175D01*
X125396890Y-65558524D01*
X125167000Y-65679845D01*
X124913000Y-65679845D01*
X124683110Y-65558524D01*
X124535901Y-65603175D01*
X124273080Y-65728359D01*
X124039731Y-65902412D01*
X123963966Y-65986466D01*
X123939502Y-65905820D01*
X123880537Y-65795506D01*
X123801185Y-65698815D01*
X123704494Y-65619463D01*
X123594180Y-65560498D01*
X123474482Y-65524188D01*
X123350000Y-65511928D01*
X121650000Y-65511928D01*
X121525518Y-65524188D01*
X121405820Y-65560498D01*
X121295506Y-65619463D01*
X121198815Y-65698815D01*
X121119463Y-65795506D01*
X121060498Y-65905820D01*
X121024188Y-66025518D01*
X121011928Y-66150000D01*
X121011928Y-67850000D01*
X121024188Y-67974482D01*
X121060498Y-68094180D01*
X121119463Y-68204494D01*
X121198815Y-68301185D01*
X121295506Y-68380537D01*
X121405820Y-68439502D01*
X121478380Y-68461513D01*
X121346525Y-68593368D01*
X121184010Y-68836589D01*
X121072068Y-69106842D01*
X121015000Y-69393740D01*
X121015000Y-69686260D01*
X121072068Y-69973158D01*
X121184010Y-70243411D01*
X121346525Y-70486632D01*
X121553368Y-70693475D01*
X121796589Y-70855990D01*
X122066842Y-70967932D01*
X122353740Y-71025000D01*
X122646260Y-71025000D01*
X122933158Y-70967932D01*
X123203411Y-70855990D01*
X123446632Y-70693475D01*
X123653475Y-70486632D01*
X123770000Y-70312240D01*
X123886525Y-70486632D01*
X124093368Y-70693475D01*
X124336589Y-70855990D01*
X124606842Y-70967932D01*
X124893740Y-71025000D01*
X125186260Y-71025000D01*
X125473158Y-70967932D01*
X125743411Y-70855990D01*
X125986632Y-70693475D01*
X126193475Y-70486632D01*
X126310000Y-70312240D01*
X126426525Y-70486632D01*
X126633368Y-70693475D01*
X126876589Y-70855990D01*
X127146842Y-70967932D01*
X127433740Y-71025000D01*
X127726260Y-71025000D01*
X128013158Y-70967932D01*
X128283411Y-70855990D01*
X128526632Y-70693475D01*
X128733475Y-70486632D01*
X128850000Y-70312240D01*
X128966525Y-70486632D01*
X129173368Y-70693475D01*
X129416589Y-70855990D01*
X129686842Y-70967932D01*
X129973740Y-71025000D01*
X130266260Y-71025000D01*
X130553158Y-70967932D01*
X130823411Y-70855990D01*
X131066632Y-70693475D01*
X131273475Y-70486632D01*
X131390000Y-70312240D01*
X131506525Y-70486632D01*
X131713368Y-70693475D01*
X131956589Y-70855990D01*
X132226842Y-70967932D01*
X132513740Y-71025000D01*
X132806260Y-71025000D01*
X133093158Y-70967932D01*
X133363411Y-70855990D01*
X133606632Y-70693475D01*
X133737653Y-70562454D01*
X134465002Y-71289804D01*
X134465002Y-72795295D01*
X134352756Y-72720295D01*
X134164398Y-72642274D01*
X133964439Y-72602500D01*
X133760561Y-72602500D01*
X133560602Y-72642274D01*
X133372244Y-72720295D01*
X133202726Y-72833563D01*
X133163289Y-72873000D01*
X119255548Y-72873000D01*
X119055078Y-72855461D01*
X118866074Y-72804818D01*
X118688742Y-72722127D01*
X118528465Y-72609900D01*
X118390100Y-72471535D01*
X118277873Y-72311258D01*
X118195182Y-72133926D01*
X118144539Y-71944922D01*
X118127000Y-71744452D01*
X118127000Y-63346878D01*
X118502882Y-63550849D01*
X119224385Y-63774694D01*
X119975695Y-63853480D01*
X120727938Y-63784178D01*
X121452208Y-63569452D01*
X122120670Y-63217555D01*
X122161088Y-63190548D01*
X122521276Y-62700881D01*
X120000000Y-60179605D01*
X119985858Y-60193748D01*
X119806253Y-60014143D01*
X119820395Y-60000000D01*
X119806253Y-59985858D01*
X119985858Y-59806253D01*
X120000000Y-59820395D01*
X120014143Y-59806253D01*
X120193748Y-59985858D01*
X120179605Y-60000000D01*
X122700881Y-62521276D01*
X123190548Y-62161088D01*
X123550849Y-61497118D01*
X123774694Y-60775615D01*
X123853480Y-60024305D01*
X123784178Y-59272062D01*
X123569452Y-58547792D01*
X123217555Y-57879330D01*
X123190548Y-57838912D01*
X122902459Y-57627000D01*
X167097541Y-57627000D01*
X166809452Y-57838912D01*
G37*
%TD.AperFunction*%
%TD*%
M02*
