%TF.GenerationSoftware,KiCad,Pcbnew,(5.1.10)-1*%
%TF.CreationDate,2021-08-23T16:31:20+01:00*%
%TF.ProjectId,Abhoinn_IoT_V3,4162686f-696e-46e5-9f49-6f545f56332e,rev?*%
%TF.SameCoordinates,Original*%
%TF.FileFunction,Copper,L2,Inr*%
%TF.FilePolarity,Positive*%
%FSLAX46Y46*%
G04 Gerber Fmt 4.6, Leading zero omitted, Abs format (unit mm)*
G04 Created by KiCad (PCBNEW (5.1.10)-1) date 2021-08-23 16:31:20*
%MOMM*%
%LPD*%
G01*
G04 APERTURE LIST*
%TA.AperFunction,ComponentPad*%
%ADD10O,1.700000X1.700000*%
%TD*%
%TA.AperFunction,ComponentPad*%
%ADD11R,1.700000X1.700000*%
%TD*%
%TA.AperFunction,ComponentPad*%
%ADD12C,2.600000*%
%TD*%
%TA.AperFunction,ComponentPad*%
%ADD13R,2.600000X2.600000*%
%TD*%
%TA.AperFunction,ComponentPad*%
%ADD14C,0.800000*%
%TD*%
%TA.AperFunction,ComponentPad*%
%ADD15C,6.400000*%
%TD*%
%TA.AperFunction,ViaPad*%
%ADD16C,0.800000*%
%TD*%
%TA.AperFunction,Conductor*%
%ADD17C,0.254000*%
%TD*%
%TA.AperFunction,Conductor*%
%ADD18C,0.100000*%
%TD*%
G04 APERTURE END LIST*
D10*
%TO.N,NRST*%
%TO.C,J3*%
X148340000Y-89710000D03*
%TO.N,GND*%
X148340000Y-92250000D03*
%TO.N,N/C*%
X150880000Y-89710000D03*
X150880000Y-92250000D03*
X153420000Y-89710000D03*
%TO.N,GND*%
X153420000Y-92250000D03*
%TO.N,SWCLK*%
X155960000Y-89710000D03*
%TO.N,GND*%
X155960000Y-92250000D03*
%TO.N,SWDIO*%
X158500000Y-89710000D03*
D11*
%TO.N,+3V3*%
X158500000Y-92250000D03*
%TD*%
D10*
%TO.N,GND*%
%TO.C,JP4*%
X152500000Y-71580000D03*
%TO.N,Net-(D4-Pad2)*%
X152500000Y-69040000D03*
D11*
%TO.N,+3V3*%
X152500000Y-66500000D03*
%TD*%
D10*
%TO.N,GND*%
%TO.C,JP3*%
X147000000Y-71580000D03*
%TO.N,DBG_EN*%
X147000000Y-69040000D03*
D11*
%TO.N,+3V3*%
X147000000Y-66500000D03*
%TD*%
D10*
%TO.N,LED_RX*%
%TO.C,JP2*%
X139000000Y-71580000D03*
%TO.N,RX_LED+DBG_DATA*%
X139000000Y-69040000D03*
D11*
%TO.N,TS_DBG_DATA*%
X139000000Y-66500000D03*
%TD*%
D10*
%TO.N,LED_TX*%
%TO.C,JP1*%
X143000000Y-71580000D03*
%TO.N,TX_LED+DBG_CLK*%
X143000000Y-69040000D03*
D11*
%TO.N,TS_DBG_CLK*%
X143000000Y-66500000D03*
%TD*%
D10*
%TO.N,LPUART1_TX*%
%TO.C,J2*%
X139500000Y-90790000D03*
D11*
%TO.N,LPUART1_RX*%
X139500000Y-88250000D03*
%TD*%
D10*
%TO.N,GND*%
%TO.C,J1*%
X164000000Y-92290000D03*
D11*
%TO.N,+3V3*%
X164000000Y-89750000D03*
%TD*%
D10*
%TO.N,RESET_N*%
%TO.C,J4*%
X132660000Y-69540000D03*
%TO.N,GND*%
X132660000Y-67000000D03*
%TO.N,N/C*%
X130120000Y-69540000D03*
X130120000Y-67000000D03*
X127580000Y-69540000D03*
%TO.N,GND*%
X127580000Y-67000000D03*
%TO.N,TS_DBG_CLK*%
X125040000Y-69540000D03*
%TO.N,GND*%
X125040000Y-67000000D03*
%TO.N,TS_DBG_DATA*%
X122500000Y-69540000D03*
D11*
%TO.N,+3V3*%
X122500000Y-67000000D03*
%TD*%
D12*
%TO.N,GND*%
%TO.C,J6*%
X158250000Y-66250000D03*
D13*
%TO.N,+5V*%
X163250000Y-66250000D03*
%TD*%
D14*
%TO.N,GND*%
%TO.C,H4*%
X121697056Y-58302944D03*
X120000000Y-57600000D03*
X118302944Y-58302944D03*
X117600000Y-60000000D03*
X118302944Y-61697056D03*
X120000000Y-62400000D03*
X121697056Y-61697056D03*
X122400000Y-60000000D03*
D15*
X120000000Y-60000000D03*
%TD*%
D14*
%TO.N,GND*%
%TO.C,H3*%
X121697056Y-98302944D03*
X120000000Y-97600000D03*
X118302944Y-98302944D03*
X117600000Y-100000000D03*
X118302944Y-101697056D03*
X120000000Y-102400000D03*
X121697056Y-101697056D03*
X122400000Y-100000000D03*
D15*
X120000000Y-100000000D03*
%TD*%
D14*
%TO.N,GND*%
%TO.C,H2*%
X171697056Y-98302944D03*
X170000000Y-97600000D03*
X168302944Y-98302944D03*
X167600000Y-100000000D03*
X168302944Y-101697056D03*
X170000000Y-102400000D03*
X171697056Y-101697056D03*
X172400000Y-100000000D03*
D15*
X170000000Y-100000000D03*
%TD*%
D14*
%TO.N,GND*%
%TO.C,H1*%
X171697056Y-58302944D03*
X170000000Y-57600000D03*
X168302944Y-58302944D03*
X167600000Y-60000000D03*
X168302944Y-61697056D03*
X170000000Y-62400000D03*
X171697056Y-61697056D03*
X172400000Y-60000000D03*
D15*
X170000000Y-60000000D03*
%TD*%
D16*
%TO.N,GND*%
X142070000Y-90000000D03*
X142102000Y-88000000D03*
X144626500Y-73326500D03*
X134500000Y-78500000D03*
X121718600Y-79308220D03*
X127500000Y-80250000D03*
X129500000Y-80250000D03*
X131500000Y-80250000D03*
X130550000Y-79250000D03*
X128450000Y-79250000D03*
X128500000Y-81250000D03*
X130500000Y-81250000D03*
X126325000Y-78075000D03*
X126300000Y-80050000D03*
X126275000Y-81225000D03*
X129500000Y-74500000D03*
X129500000Y-85500000D03*
X118500000Y-85500000D03*
X118500000Y-74500000D03*
X118500000Y-80000000D03*
X118500000Y-77500000D03*
X118500000Y-83000000D03*
X121500000Y-85500000D03*
X125000000Y-85500000D03*
X125000000Y-74500000D03*
X121500000Y-74500000D03*
X158650000Y-79500000D03*
X142000000Y-91500000D03*
X135000000Y-95600000D03*
X132800000Y-95600000D03*
X129600000Y-95600000D03*
X127400000Y-95600000D03*
X125400000Y-95600000D03*
X137500000Y-74250000D03*
X119250000Y-72000000D03*
X134000000Y-72250000D03*
X119250000Y-67750000D03*
X119250000Y-64250000D03*
X144750000Y-58500000D03*
X124750000Y-58500000D03*
X165250000Y-58500000D03*
X155250000Y-58500000D03*
X134250000Y-58500000D03*
X160500000Y-58500000D03*
X150250000Y-58500000D03*
X139500000Y-58500000D03*
X129250000Y-58500000D03*
X154750000Y-72250000D03*
X160500000Y-71000000D03*
X160750000Y-64000000D03*
X166000000Y-63250000D03*
X158000000Y-72250000D03*
X127000000Y-72000000D03*
X135000000Y-65750000D03*
X138750000Y-63750000D03*
X143000000Y-63500000D03*
X149000000Y-70500000D03*
X150500000Y-69250000D03*
X150500000Y-64750000D03*
X154500000Y-64750000D03*
X154750000Y-68500000D03*
X150500000Y-67000000D03*
X123250000Y-72000000D03*
X131000000Y-72000000D03*
X160500000Y-68250000D03*
X165250000Y-60750000D03*
X145000000Y-68750000D03*
X144999999Y-71500001D03*
%TO.N,+3V3*%
X141732000Y-74168000D03*
X145680000Y-88000000D03*
X145712000Y-90000000D03*
X133862500Y-73637500D03*
X145750000Y-91500000D03*
X140250000Y-74750000D03*
X158600000Y-81500000D03*
X162750000Y-78250000D03*
X170000000Y-80000000D03*
X170000000Y-85500000D03*
X170000000Y-82750000D03*
X157500000Y-85500000D03*
X164000000Y-85500000D03*
X167000000Y-85500000D03*
X160750000Y-85500000D03*
X164000000Y-80000000D03*
X167000000Y-80000000D03*
X157500000Y-83250000D03*
X157677040Y-77000000D03*
%TO.N,LED_RX*%
X125450000Y-87300000D03*
%TO.N,LED_TX*%
X127500000Y-87250000D03*
%TO.N,Net-(D4-Pad2)*%
X129500000Y-87250000D03*
%TO.N,LPUART1_TX*%
X136940000Y-81320000D03*
%TO.N,LPUART1_RX*%
X137460000Y-82920000D03*
%TO.N,PRESSURE_SDA*%
X148250000Y-85250000D03*
X154150000Y-78900000D03*
%TO.N,PRESSURE_SCL*%
X147320000Y-86106000D03*
X154050000Y-83750000D03*
%TO.N,NRST*%
X141932660Y-78610460D03*
%TD*%
D17*
%TO.N,GND*%
X166809452Y-57838912D02*
X166449151Y-58502882D01*
X166225306Y-59224385D01*
X166146520Y-59975695D01*
X166215822Y-60727938D01*
X166430548Y-61452208D01*
X166782445Y-62120670D01*
X166809452Y-62161088D01*
X167299119Y-62521276D01*
X169820395Y-60000000D01*
X169806253Y-59985858D01*
X169985858Y-59806253D01*
X170000000Y-59820395D01*
X170014143Y-59806253D01*
X170193748Y-59985858D01*
X170179605Y-60000000D01*
X170193748Y-60014143D01*
X170014143Y-60193748D01*
X170000000Y-60179605D01*
X167478724Y-62700881D01*
X167838912Y-63190548D01*
X168502882Y-63550849D01*
X169224385Y-63774694D01*
X169975695Y-63853480D01*
X170727938Y-63784178D01*
X171452208Y-63569452D01*
X172120670Y-63217555D01*
X172161088Y-63190548D01*
X172373000Y-62902459D01*
X172373000Y-97097541D01*
X172161088Y-96809452D01*
X171497118Y-96449151D01*
X170775615Y-96225306D01*
X170024305Y-96146520D01*
X169272062Y-96215822D01*
X168547792Y-96430548D01*
X167879330Y-96782445D01*
X167838912Y-96809452D01*
X167478724Y-97299119D01*
X170000000Y-99820395D01*
X170014143Y-99806253D01*
X170193748Y-99985858D01*
X170179605Y-100000000D01*
X170193748Y-100014143D01*
X170014143Y-100193748D01*
X170000000Y-100179605D01*
X169985858Y-100193748D01*
X169806253Y-100014143D01*
X169820395Y-100000000D01*
X167299119Y-97478724D01*
X166809452Y-97838912D01*
X166449151Y-98502882D01*
X166225306Y-99224385D01*
X166146520Y-99975695D01*
X166215822Y-100727938D01*
X166430548Y-101452208D01*
X166782445Y-102120670D01*
X166809452Y-102161088D01*
X167097541Y-102373000D01*
X122902459Y-102373000D01*
X123190548Y-102161088D01*
X123550849Y-101497118D01*
X123774694Y-100775615D01*
X123853480Y-100024305D01*
X123784178Y-99272062D01*
X123569452Y-98547792D01*
X123217555Y-97879330D01*
X123190548Y-97838912D01*
X122700881Y-97478724D01*
X120179605Y-100000000D01*
X120193748Y-100014143D01*
X120014143Y-100193748D01*
X120000000Y-100179605D01*
X119985858Y-100193748D01*
X119806253Y-100014143D01*
X119820395Y-100000000D01*
X119806253Y-99985858D01*
X119985858Y-99806253D01*
X120000000Y-99820395D01*
X122521276Y-97299119D01*
X122161088Y-96809452D01*
X121497118Y-96449151D01*
X120775615Y-96225306D01*
X120024305Y-96146520D01*
X119272062Y-96215822D01*
X118547792Y-96430548D01*
X117879330Y-96782445D01*
X117838912Y-96809452D01*
X117627000Y-97097541D01*
X117627000Y-92606891D01*
X146898519Y-92606891D01*
X146995843Y-92881252D01*
X147144822Y-93131355D01*
X147339731Y-93347588D01*
X147573080Y-93521641D01*
X147835901Y-93646825D01*
X147983110Y-93691476D01*
X148213000Y-93570155D01*
X148213000Y-92377000D01*
X147019186Y-92377000D01*
X146898519Y-92606891D01*
X117627000Y-92606891D01*
X117627000Y-87198061D01*
X124415000Y-87198061D01*
X124415000Y-87401939D01*
X124454774Y-87601898D01*
X124532795Y-87790256D01*
X124646063Y-87959774D01*
X124790226Y-88103937D01*
X124959744Y-88217205D01*
X125148102Y-88295226D01*
X125348061Y-88335000D01*
X125551939Y-88335000D01*
X125751898Y-88295226D01*
X125940256Y-88217205D01*
X126109774Y-88103937D01*
X126253937Y-87959774D01*
X126367205Y-87790256D01*
X126445226Y-87601898D01*
X126479973Y-87427213D01*
X126504774Y-87551898D01*
X126582795Y-87740256D01*
X126696063Y-87909774D01*
X126840226Y-88053937D01*
X127009744Y-88167205D01*
X127198102Y-88245226D01*
X127398061Y-88285000D01*
X127601939Y-88285000D01*
X127801898Y-88245226D01*
X127990256Y-88167205D01*
X128159774Y-88053937D01*
X128303937Y-87909774D01*
X128417205Y-87740256D01*
X128495226Y-87551898D01*
X128500000Y-87527897D01*
X128504774Y-87551898D01*
X128582795Y-87740256D01*
X128696063Y-87909774D01*
X128840226Y-88053937D01*
X129009744Y-88167205D01*
X129198102Y-88245226D01*
X129398061Y-88285000D01*
X129601939Y-88285000D01*
X129801898Y-88245226D01*
X129990256Y-88167205D01*
X130159774Y-88053937D01*
X130303937Y-87909774D01*
X130417205Y-87740256D01*
X130495226Y-87551898D01*
X130525440Y-87400000D01*
X138011928Y-87400000D01*
X138011928Y-89100000D01*
X138024188Y-89224482D01*
X138060498Y-89344180D01*
X138119463Y-89454494D01*
X138198815Y-89551185D01*
X138295506Y-89630537D01*
X138405820Y-89689502D01*
X138478380Y-89711513D01*
X138346525Y-89843368D01*
X138184010Y-90086589D01*
X138072068Y-90356842D01*
X138015000Y-90643740D01*
X138015000Y-90936260D01*
X138072068Y-91223158D01*
X138184010Y-91493411D01*
X138346525Y-91736632D01*
X138553368Y-91943475D01*
X138796589Y-92105990D01*
X139066842Y-92217932D01*
X139353740Y-92275000D01*
X139646260Y-92275000D01*
X139933158Y-92217932D01*
X140203411Y-92105990D01*
X140446632Y-91943475D01*
X140653475Y-91736632D01*
X140815990Y-91493411D01*
X140927932Y-91223158D01*
X140985000Y-90936260D01*
X140985000Y-90643740D01*
X140927932Y-90356842D01*
X140815990Y-90086589D01*
X140653475Y-89843368D01*
X140521620Y-89711513D01*
X140594180Y-89689502D01*
X140704494Y-89630537D01*
X140801185Y-89551185D01*
X140880537Y-89454494D01*
X140939502Y-89344180D01*
X140975812Y-89224482D01*
X140988072Y-89100000D01*
X140988072Y-87898061D01*
X144645000Y-87898061D01*
X144645000Y-88101939D01*
X144684774Y-88301898D01*
X144762795Y-88490256D01*
X144876063Y-88659774D01*
X145020226Y-88803937D01*
X145189744Y-88917205D01*
X145378102Y-88995226D01*
X145418103Y-89003183D01*
X145410102Y-89004774D01*
X145221744Y-89082795D01*
X145052226Y-89196063D01*
X144908063Y-89340226D01*
X144794795Y-89509744D01*
X144716774Y-89698102D01*
X144677000Y-89898061D01*
X144677000Y-90101939D01*
X144716774Y-90301898D01*
X144794795Y-90490256D01*
X144908063Y-90659774D01*
X145017289Y-90769000D01*
X144946063Y-90840226D01*
X144832795Y-91009744D01*
X144754774Y-91198102D01*
X144715000Y-91398061D01*
X144715000Y-91601939D01*
X144754774Y-91801898D01*
X144832795Y-91990256D01*
X144946063Y-92159774D01*
X145090226Y-92303937D01*
X145259744Y-92417205D01*
X145448102Y-92495226D01*
X145648061Y-92535000D01*
X145851939Y-92535000D01*
X146051898Y-92495226D01*
X146240256Y-92417205D01*
X146409774Y-92303937D01*
X146553937Y-92159774D01*
X146667205Y-91990256D01*
X146745226Y-91801898D01*
X146785000Y-91601939D01*
X146785000Y-91398061D01*
X146745226Y-91198102D01*
X146667205Y-91009744D01*
X146553937Y-90840226D01*
X146444711Y-90731000D01*
X146515937Y-90659774D01*
X146629205Y-90490256D01*
X146707226Y-90301898D01*
X146747000Y-90101939D01*
X146747000Y-89898061D01*
X146707226Y-89698102D01*
X146651572Y-89563740D01*
X146855000Y-89563740D01*
X146855000Y-89856260D01*
X146912068Y-90143158D01*
X147024010Y-90413411D01*
X147186525Y-90656632D01*
X147393368Y-90863475D01*
X147569406Y-90981100D01*
X147339731Y-91152412D01*
X147144822Y-91368645D01*
X146995843Y-91618748D01*
X146898519Y-91893109D01*
X147019186Y-92123000D01*
X148213000Y-92123000D01*
X148213000Y-92103000D01*
X148467000Y-92103000D01*
X148467000Y-92123000D01*
X148487000Y-92123000D01*
X148487000Y-92377000D01*
X148467000Y-92377000D01*
X148467000Y-93570155D01*
X148696890Y-93691476D01*
X148844099Y-93646825D01*
X149106920Y-93521641D01*
X149340269Y-93347588D01*
X149535178Y-93131355D01*
X149604805Y-93014466D01*
X149726525Y-93196632D01*
X149933368Y-93403475D01*
X150176589Y-93565990D01*
X150446842Y-93677932D01*
X150733740Y-93735000D01*
X151026260Y-93735000D01*
X151313158Y-93677932D01*
X151583411Y-93565990D01*
X151826632Y-93403475D01*
X152033475Y-93196632D01*
X152155195Y-93014466D01*
X152224822Y-93131355D01*
X152419731Y-93347588D01*
X152653080Y-93521641D01*
X152915901Y-93646825D01*
X153063110Y-93691476D01*
X153293000Y-93570155D01*
X153293000Y-92377000D01*
X153547000Y-92377000D01*
X153547000Y-93570155D01*
X153776890Y-93691476D01*
X153924099Y-93646825D01*
X154186920Y-93521641D01*
X154420269Y-93347588D01*
X154615178Y-93131355D01*
X154690000Y-93005745D01*
X154764822Y-93131355D01*
X154959731Y-93347588D01*
X155193080Y-93521641D01*
X155455901Y-93646825D01*
X155603110Y-93691476D01*
X155833000Y-93570155D01*
X155833000Y-92377000D01*
X153547000Y-92377000D01*
X153293000Y-92377000D01*
X153273000Y-92377000D01*
X153273000Y-92123000D01*
X153293000Y-92123000D01*
X153293000Y-92103000D01*
X153547000Y-92103000D01*
X153547000Y-92123000D01*
X155833000Y-92123000D01*
X155833000Y-92103000D01*
X156087000Y-92103000D01*
X156087000Y-92123000D01*
X156107000Y-92123000D01*
X156107000Y-92377000D01*
X156087000Y-92377000D01*
X156087000Y-93570155D01*
X156316890Y-93691476D01*
X156464099Y-93646825D01*
X156726920Y-93521641D01*
X156960269Y-93347588D01*
X157036034Y-93263534D01*
X157060498Y-93344180D01*
X157119463Y-93454494D01*
X157198815Y-93551185D01*
X157295506Y-93630537D01*
X157405820Y-93689502D01*
X157525518Y-93725812D01*
X157650000Y-93738072D01*
X159350000Y-93738072D01*
X159474482Y-93725812D01*
X159594180Y-93689502D01*
X159704494Y-93630537D01*
X159801185Y-93551185D01*
X159880537Y-93454494D01*
X159939502Y-93344180D01*
X159975812Y-93224482D01*
X159988072Y-93100000D01*
X159988072Y-92646890D01*
X162558524Y-92646890D01*
X162603175Y-92794099D01*
X162728359Y-93056920D01*
X162902412Y-93290269D01*
X163118645Y-93485178D01*
X163368748Y-93634157D01*
X163643109Y-93731481D01*
X163873000Y-93610814D01*
X163873000Y-92417000D01*
X164127000Y-92417000D01*
X164127000Y-93610814D01*
X164356891Y-93731481D01*
X164631252Y-93634157D01*
X164881355Y-93485178D01*
X165097588Y-93290269D01*
X165271641Y-93056920D01*
X165396825Y-92794099D01*
X165441476Y-92646890D01*
X165320155Y-92417000D01*
X164127000Y-92417000D01*
X163873000Y-92417000D01*
X162679845Y-92417000D01*
X162558524Y-92646890D01*
X159988072Y-92646890D01*
X159988072Y-91400000D01*
X159975812Y-91275518D01*
X159939502Y-91155820D01*
X159880537Y-91045506D01*
X159801185Y-90948815D01*
X159704494Y-90869463D01*
X159594180Y-90810498D01*
X159521620Y-90788487D01*
X159653475Y-90656632D01*
X159815990Y-90413411D01*
X159927932Y-90143158D01*
X159985000Y-89856260D01*
X159985000Y-89563740D01*
X159927932Y-89276842D01*
X159815990Y-89006589D01*
X159744770Y-88900000D01*
X162511928Y-88900000D01*
X162511928Y-90600000D01*
X162524188Y-90724482D01*
X162560498Y-90844180D01*
X162619463Y-90954494D01*
X162698815Y-91051185D01*
X162795506Y-91130537D01*
X162905820Y-91189502D01*
X162986466Y-91213966D01*
X162902412Y-91289731D01*
X162728359Y-91523080D01*
X162603175Y-91785901D01*
X162558524Y-91933110D01*
X162679845Y-92163000D01*
X163873000Y-92163000D01*
X163873000Y-92143000D01*
X164127000Y-92143000D01*
X164127000Y-92163000D01*
X165320155Y-92163000D01*
X165441476Y-91933110D01*
X165396825Y-91785901D01*
X165271641Y-91523080D01*
X165097588Y-91289731D01*
X165013534Y-91213966D01*
X165094180Y-91189502D01*
X165204494Y-91130537D01*
X165301185Y-91051185D01*
X165380537Y-90954494D01*
X165439502Y-90844180D01*
X165475812Y-90724482D01*
X165488072Y-90600000D01*
X165488072Y-88900000D01*
X165475812Y-88775518D01*
X165439502Y-88655820D01*
X165380537Y-88545506D01*
X165301185Y-88448815D01*
X165204494Y-88369463D01*
X165094180Y-88310498D01*
X164974482Y-88274188D01*
X164850000Y-88261928D01*
X163150000Y-88261928D01*
X163025518Y-88274188D01*
X162905820Y-88310498D01*
X162795506Y-88369463D01*
X162698815Y-88448815D01*
X162619463Y-88545506D01*
X162560498Y-88655820D01*
X162524188Y-88775518D01*
X162511928Y-88900000D01*
X159744770Y-88900000D01*
X159653475Y-88763368D01*
X159446632Y-88556525D01*
X159203411Y-88394010D01*
X158933158Y-88282068D01*
X158646260Y-88225000D01*
X158353740Y-88225000D01*
X158066842Y-88282068D01*
X157796589Y-88394010D01*
X157553368Y-88556525D01*
X157346525Y-88763368D01*
X157230000Y-88937760D01*
X157113475Y-88763368D01*
X156906632Y-88556525D01*
X156663411Y-88394010D01*
X156393158Y-88282068D01*
X156106260Y-88225000D01*
X155813740Y-88225000D01*
X155526842Y-88282068D01*
X155256589Y-88394010D01*
X155013368Y-88556525D01*
X154806525Y-88763368D01*
X154690000Y-88937760D01*
X154573475Y-88763368D01*
X154366632Y-88556525D01*
X154123411Y-88394010D01*
X153853158Y-88282068D01*
X153566260Y-88225000D01*
X153273740Y-88225000D01*
X152986842Y-88282068D01*
X152716589Y-88394010D01*
X152473368Y-88556525D01*
X152266525Y-88763368D01*
X152150000Y-88937760D01*
X152033475Y-88763368D01*
X151826632Y-88556525D01*
X151583411Y-88394010D01*
X151313158Y-88282068D01*
X151026260Y-88225000D01*
X150733740Y-88225000D01*
X150446842Y-88282068D01*
X150176589Y-88394010D01*
X149933368Y-88556525D01*
X149726525Y-88763368D01*
X149610000Y-88937760D01*
X149493475Y-88763368D01*
X149286632Y-88556525D01*
X149043411Y-88394010D01*
X148773158Y-88282068D01*
X148486260Y-88225000D01*
X148193740Y-88225000D01*
X147906842Y-88282068D01*
X147636589Y-88394010D01*
X147393368Y-88556525D01*
X147186525Y-88763368D01*
X147024010Y-89006589D01*
X146912068Y-89276842D01*
X146855000Y-89563740D01*
X146651572Y-89563740D01*
X146629205Y-89509744D01*
X146515937Y-89340226D01*
X146371774Y-89196063D01*
X146202256Y-89082795D01*
X146013898Y-89004774D01*
X145973897Y-88996817D01*
X145981898Y-88995226D01*
X146170256Y-88917205D01*
X146339774Y-88803937D01*
X146483937Y-88659774D01*
X146597205Y-88490256D01*
X146675226Y-88301898D01*
X146715000Y-88101939D01*
X146715000Y-87898061D01*
X146675226Y-87698102D01*
X146597205Y-87509744D01*
X146483937Y-87340226D01*
X146339774Y-87196063D01*
X146170256Y-87082795D01*
X145981898Y-87004774D01*
X145781939Y-86965000D01*
X145578061Y-86965000D01*
X145378102Y-87004774D01*
X145189744Y-87082795D01*
X145020226Y-87196063D01*
X144876063Y-87340226D01*
X144762795Y-87509744D01*
X144684774Y-87698102D01*
X144645000Y-87898061D01*
X140988072Y-87898061D01*
X140988072Y-87400000D01*
X140975812Y-87275518D01*
X140939502Y-87155820D01*
X140880537Y-87045506D01*
X140801185Y-86948815D01*
X140704494Y-86869463D01*
X140594180Y-86810498D01*
X140474482Y-86774188D01*
X140350000Y-86761928D01*
X138650000Y-86761928D01*
X138525518Y-86774188D01*
X138405820Y-86810498D01*
X138295506Y-86869463D01*
X138198815Y-86948815D01*
X138119463Y-87045506D01*
X138060498Y-87155820D01*
X138024188Y-87275518D01*
X138011928Y-87400000D01*
X130525440Y-87400000D01*
X130535000Y-87351939D01*
X130535000Y-87148061D01*
X130495226Y-86948102D01*
X130417205Y-86759744D01*
X130303937Y-86590226D01*
X130159774Y-86446063D01*
X129990256Y-86332795D01*
X129801898Y-86254774D01*
X129601939Y-86215000D01*
X129398061Y-86215000D01*
X129198102Y-86254774D01*
X129009744Y-86332795D01*
X128840226Y-86446063D01*
X128696063Y-86590226D01*
X128582795Y-86759744D01*
X128504774Y-86948102D01*
X128500000Y-86972103D01*
X128495226Y-86948102D01*
X128417205Y-86759744D01*
X128303937Y-86590226D01*
X128159774Y-86446063D01*
X127990256Y-86332795D01*
X127801898Y-86254774D01*
X127601939Y-86215000D01*
X127398061Y-86215000D01*
X127198102Y-86254774D01*
X127009744Y-86332795D01*
X126840226Y-86446063D01*
X126696063Y-86590226D01*
X126582795Y-86759744D01*
X126504774Y-86948102D01*
X126470027Y-87122787D01*
X126445226Y-86998102D01*
X126367205Y-86809744D01*
X126253937Y-86640226D01*
X126109774Y-86496063D01*
X125940256Y-86382795D01*
X125751898Y-86304774D01*
X125551939Y-86265000D01*
X125348061Y-86265000D01*
X125148102Y-86304774D01*
X124959744Y-86382795D01*
X124790226Y-86496063D01*
X124646063Y-86640226D01*
X124532795Y-86809744D01*
X124454774Y-86998102D01*
X124415000Y-87198061D01*
X117627000Y-87198061D01*
X117627000Y-86004061D01*
X146285000Y-86004061D01*
X146285000Y-86207939D01*
X146324774Y-86407898D01*
X146402795Y-86596256D01*
X146516063Y-86765774D01*
X146660226Y-86909937D01*
X146829744Y-87023205D01*
X147018102Y-87101226D01*
X147218061Y-87141000D01*
X147421939Y-87141000D01*
X147621898Y-87101226D01*
X147810256Y-87023205D01*
X147979774Y-86909937D01*
X148123937Y-86765774D01*
X148237205Y-86596256D01*
X148315226Y-86407898D01*
X148339672Y-86285000D01*
X148351939Y-86285000D01*
X148551898Y-86245226D01*
X148740256Y-86167205D01*
X148909774Y-86053937D01*
X149053937Y-85909774D01*
X149167205Y-85740256D01*
X149245226Y-85551898D01*
X149275825Y-85398061D01*
X156465000Y-85398061D01*
X156465000Y-85601939D01*
X156504774Y-85801898D01*
X156582795Y-85990256D01*
X156696063Y-86159774D01*
X156840226Y-86303937D01*
X157009744Y-86417205D01*
X157198102Y-86495226D01*
X157398061Y-86535000D01*
X157601939Y-86535000D01*
X157801898Y-86495226D01*
X157990256Y-86417205D01*
X158159774Y-86303937D01*
X158303937Y-86159774D01*
X158417205Y-85990256D01*
X158495226Y-85801898D01*
X158535000Y-85601939D01*
X158535000Y-85398061D01*
X159715000Y-85398061D01*
X159715000Y-85601939D01*
X159754774Y-85801898D01*
X159832795Y-85990256D01*
X159946063Y-86159774D01*
X160090226Y-86303937D01*
X160259744Y-86417205D01*
X160448102Y-86495226D01*
X160648061Y-86535000D01*
X160851939Y-86535000D01*
X161051898Y-86495226D01*
X161240256Y-86417205D01*
X161409774Y-86303937D01*
X161553937Y-86159774D01*
X161667205Y-85990256D01*
X161745226Y-85801898D01*
X161785000Y-85601939D01*
X161785000Y-85398061D01*
X162965000Y-85398061D01*
X162965000Y-85601939D01*
X163004774Y-85801898D01*
X163082795Y-85990256D01*
X163196063Y-86159774D01*
X163340226Y-86303937D01*
X163509744Y-86417205D01*
X163698102Y-86495226D01*
X163898061Y-86535000D01*
X164101939Y-86535000D01*
X164301898Y-86495226D01*
X164490256Y-86417205D01*
X164659774Y-86303937D01*
X164803937Y-86159774D01*
X164917205Y-85990256D01*
X164995226Y-85801898D01*
X165035000Y-85601939D01*
X165035000Y-85398061D01*
X165965000Y-85398061D01*
X165965000Y-85601939D01*
X166004774Y-85801898D01*
X166082795Y-85990256D01*
X166196063Y-86159774D01*
X166340226Y-86303937D01*
X166509744Y-86417205D01*
X166698102Y-86495226D01*
X166898061Y-86535000D01*
X167101939Y-86535000D01*
X167301898Y-86495226D01*
X167490256Y-86417205D01*
X167659774Y-86303937D01*
X167803937Y-86159774D01*
X167917205Y-85990256D01*
X167995226Y-85801898D01*
X168035000Y-85601939D01*
X168035000Y-85398061D01*
X168965000Y-85398061D01*
X168965000Y-85601939D01*
X169004774Y-85801898D01*
X169082795Y-85990256D01*
X169196063Y-86159774D01*
X169340226Y-86303937D01*
X169509744Y-86417205D01*
X169698102Y-86495226D01*
X169898061Y-86535000D01*
X170101939Y-86535000D01*
X170301898Y-86495226D01*
X170490256Y-86417205D01*
X170659774Y-86303937D01*
X170803937Y-86159774D01*
X170917205Y-85990256D01*
X170995226Y-85801898D01*
X171035000Y-85601939D01*
X171035000Y-85398061D01*
X170995226Y-85198102D01*
X170917205Y-85009744D01*
X170803937Y-84840226D01*
X170659774Y-84696063D01*
X170490256Y-84582795D01*
X170301898Y-84504774D01*
X170101939Y-84465000D01*
X169898061Y-84465000D01*
X169698102Y-84504774D01*
X169509744Y-84582795D01*
X169340226Y-84696063D01*
X169196063Y-84840226D01*
X169082795Y-85009744D01*
X169004774Y-85198102D01*
X168965000Y-85398061D01*
X168035000Y-85398061D01*
X167995226Y-85198102D01*
X167917205Y-85009744D01*
X167803937Y-84840226D01*
X167659774Y-84696063D01*
X167490256Y-84582795D01*
X167301898Y-84504774D01*
X167101939Y-84465000D01*
X166898061Y-84465000D01*
X166698102Y-84504774D01*
X166509744Y-84582795D01*
X166340226Y-84696063D01*
X166196063Y-84840226D01*
X166082795Y-85009744D01*
X166004774Y-85198102D01*
X165965000Y-85398061D01*
X165035000Y-85398061D01*
X164995226Y-85198102D01*
X164917205Y-85009744D01*
X164803937Y-84840226D01*
X164659774Y-84696063D01*
X164490256Y-84582795D01*
X164301898Y-84504774D01*
X164101939Y-84465000D01*
X163898061Y-84465000D01*
X163698102Y-84504774D01*
X163509744Y-84582795D01*
X163340226Y-84696063D01*
X163196063Y-84840226D01*
X163082795Y-85009744D01*
X163004774Y-85198102D01*
X162965000Y-85398061D01*
X161785000Y-85398061D01*
X161745226Y-85198102D01*
X161667205Y-85009744D01*
X161553937Y-84840226D01*
X161409774Y-84696063D01*
X161240256Y-84582795D01*
X161051898Y-84504774D01*
X160851939Y-84465000D01*
X160648061Y-84465000D01*
X160448102Y-84504774D01*
X160259744Y-84582795D01*
X160090226Y-84696063D01*
X159946063Y-84840226D01*
X159832795Y-85009744D01*
X159754774Y-85198102D01*
X159715000Y-85398061D01*
X158535000Y-85398061D01*
X158495226Y-85198102D01*
X158417205Y-85009744D01*
X158303937Y-84840226D01*
X158159774Y-84696063D01*
X157990256Y-84582795D01*
X157801898Y-84504774D01*
X157601939Y-84465000D01*
X157398061Y-84465000D01*
X157198102Y-84504774D01*
X157009744Y-84582795D01*
X156840226Y-84696063D01*
X156696063Y-84840226D01*
X156582795Y-85009744D01*
X156504774Y-85198102D01*
X156465000Y-85398061D01*
X149275825Y-85398061D01*
X149285000Y-85351939D01*
X149285000Y-85148061D01*
X149245226Y-84948102D01*
X149167205Y-84759744D01*
X149053937Y-84590226D01*
X148909774Y-84446063D01*
X148740256Y-84332795D01*
X148551898Y-84254774D01*
X148351939Y-84215000D01*
X148148061Y-84215000D01*
X147948102Y-84254774D01*
X147759744Y-84332795D01*
X147590226Y-84446063D01*
X147446063Y-84590226D01*
X147332795Y-84759744D01*
X147254774Y-84948102D01*
X147230328Y-85071000D01*
X147218061Y-85071000D01*
X147018102Y-85110774D01*
X146829744Y-85188795D01*
X146660226Y-85302063D01*
X146516063Y-85446226D01*
X146402795Y-85615744D01*
X146324774Y-85804102D01*
X146285000Y-86004061D01*
X117627000Y-86004061D01*
X117627000Y-81218061D01*
X135905000Y-81218061D01*
X135905000Y-81421939D01*
X135944774Y-81621898D01*
X136022795Y-81810256D01*
X136136063Y-81979774D01*
X136280226Y-82123937D01*
X136449744Y-82237205D01*
X136623386Y-82309130D01*
X136542795Y-82429744D01*
X136464774Y-82618102D01*
X136425000Y-82818061D01*
X136425000Y-83021939D01*
X136464774Y-83221898D01*
X136542795Y-83410256D01*
X136656063Y-83579774D01*
X136800226Y-83723937D01*
X136969744Y-83837205D01*
X137158102Y-83915226D01*
X137358061Y-83955000D01*
X137561939Y-83955000D01*
X137761898Y-83915226D01*
X137950256Y-83837205D01*
X138119774Y-83723937D01*
X138195650Y-83648061D01*
X153015000Y-83648061D01*
X153015000Y-83851939D01*
X153054774Y-84051898D01*
X153132795Y-84240256D01*
X153246063Y-84409774D01*
X153390226Y-84553937D01*
X153559744Y-84667205D01*
X153748102Y-84745226D01*
X153948061Y-84785000D01*
X154151939Y-84785000D01*
X154351898Y-84745226D01*
X154540256Y-84667205D01*
X154709774Y-84553937D01*
X154853937Y-84409774D01*
X154967205Y-84240256D01*
X155045226Y-84051898D01*
X155085000Y-83851939D01*
X155085000Y-83648061D01*
X155045226Y-83448102D01*
X154967205Y-83259744D01*
X154892582Y-83148061D01*
X156465000Y-83148061D01*
X156465000Y-83351939D01*
X156504774Y-83551898D01*
X156582795Y-83740256D01*
X156696063Y-83909774D01*
X156840226Y-84053937D01*
X157009744Y-84167205D01*
X157198102Y-84245226D01*
X157398061Y-84285000D01*
X157601939Y-84285000D01*
X157801898Y-84245226D01*
X157990256Y-84167205D01*
X158159774Y-84053937D01*
X158303937Y-83909774D01*
X158417205Y-83740256D01*
X158495226Y-83551898D01*
X158535000Y-83351939D01*
X158535000Y-83148061D01*
X158495226Y-82948102D01*
X158417205Y-82759744D01*
X158342582Y-82648061D01*
X168965000Y-82648061D01*
X168965000Y-82851939D01*
X169004774Y-83051898D01*
X169082795Y-83240256D01*
X169196063Y-83409774D01*
X169340226Y-83553937D01*
X169509744Y-83667205D01*
X169698102Y-83745226D01*
X169898061Y-83785000D01*
X170101939Y-83785000D01*
X170301898Y-83745226D01*
X170490256Y-83667205D01*
X170659774Y-83553937D01*
X170803937Y-83409774D01*
X170917205Y-83240256D01*
X170995226Y-83051898D01*
X171035000Y-82851939D01*
X171035000Y-82648061D01*
X170995226Y-82448102D01*
X170917205Y-82259744D01*
X170803937Y-82090226D01*
X170659774Y-81946063D01*
X170490256Y-81832795D01*
X170301898Y-81754774D01*
X170101939Y-81715000D01*
X169898061Y-81715000D01*
X169698102Y-81754774D01*
X169509744Y-81832795D01*
X169340226Y-81946063D01*
X169196063Y-82090226D01*
X169082795Y-82259744D01*
X169004774Y-82448102D01*
X168965000Y-82648061D01*
X158342582Y-82648061D01*
X158303937Y-82590226D01*
X158159774Y-82446063D01*
X158127742Y-82424660D01*
X158298102Y-82495226D01*
X158498061Y-82535000D01*
X158701939Y-82535000D01*
X158901898Y-82495226D01*
X159090256Y-82417205D01*
X159259774Y-82303937D01*
X159403937Y-82159774D01*
X159517205Y-81990256D01*
X159595226Y-81801898D01*
X159635000Y-81601939D01*
X159635000Y-81398061D01*
X159595226Y-81198102D01*
X159517205Y-81009744D01*
X159403937Y-80840226D01*
X159259774Y-80696063D01*
X159090256Y-80582795D01*
X158901898Y-80504774D01*
X158701939Y-80465000D01*
X158498061Y-80465000D01*
X158298102Y-80504774D01*
X158109744Y-80582795D01*
X157940226Y-80696063D01*
X157796063Y-80840226D01*
X157682795Y-81009744D01*
X157604774Y-81198102D01*
X157565000Y-81398061D01*
X157565000Y-81601939D01*
X157604774Y-81801898D01*
X157682795Y-81990256D01*
X157796063Y-82159774D01*
X157940226Y-82303937D01*
X157972258Y-82325340D01*
X157801898Y-82254774D01*
X157601939Y-82215000D01*
X157398061Y-82215000D01*
X157198102Y-82254774D01*
X157009744Y-82332795D01*
X156840226Y-82446063D01*
X156696063Y-82590226D01*
X156582795Y-82759744D01*
X156504774Y-82948102D01*
X156465000Y-83148061D01*
X154892582Y-83148061D01*
X154853937Y-83090226D01*
X154709774Y-82946063D01*
X154540256Y-82832795D01*
X154351898Y-82754774D01*
X154151939Y-82715000D01*
X153948061Y-82715000D01*
X153748102Y-82754774D01*
X153559744Y-82832795D01*
X153390226Y-82946063D01*
X153246063Y-83090226D01*
X153132795Y-83259744D01*
X153054774Y-83448102D01*
X153015000Y-83648061D01*
X138195650Y-83648061D01*
X138263937Y-83579774D01*
X138377205Y-83410256D01*
X138455226Y-83221898D01*
X138495000Y-83021939D01*
X138495000Y-82818061D01*
X138455226Y-82618102D01*
X138377205Y-82429744D01*
X138263937Y-82260226D01*
X138119774Y-82116063D01*
X137950256Y-82002795D01*
X137776614Y-81930870D01*
X137857205Y-81810256D01*
X137935226Y-81621898D01*
X137975000Y-81421939D01*
X137975000Y-81218061D01*
X137935226Y-81018102D01*
X137857205Y-80829744D01*
X137743937Y-80660226D01*
X137599774Y-80516063D01*
X137430256Y-80402795D01*
X137241898Y-80324774D01*
X137041939Y-80285000D01*
X136838061Y-80285000D01*
X136638102Y-80324774D01*
X136449744Y-80402795D01*
X136280226Y-80516063D01*
X136136063Y-80660226D01*
X136022795Y-80829744D01*
X135944774Y-81018102D01*
X135905000Y-81218061D01*
X117627000Y-81218061D01*
X117627000Y-78508521D01*
X140897660Y-78508521D01*
X140897660Y-78712399D01*
X140937434Y-78912358D01*
X141015455Y-79100716D01*
X141128723Y-79270234D01*
X141272886Y-79414397D01*
X141442404Y-79527665D01*
X141630762Y-79605686D01*
X141830721Y-79645460D01*
X142034599Y-79645460D01*
X142234558Y-79605686D01*
X142422916Y-79527665D01*
X142592434Y-79414397D01*
X142736597Y-79270234D01*
X142849865Y-79100716D01*
X142927886Y-78912358D01*
X142950620Y-78798061D01*
X153115000Y-78798061D01*
X153115000Y-79001939D01*
X153154774Y-79201898D01*
X153232795Y-79390256D01*
X153346063Y-79559774D01*
X153490226Y-79703937D01*
X153659744Y-79817205D01*
X153848102Y-79895226D01*
X154048061Y-79935000D01*
X154251939Y-79935000D01*
X154437645Y-79898061D01*
X162965000Y-79898061D01*
X162965000Y-80101939D01*
X163004774Y-80301898D01*
X163082795Y-80490256D01*
X163196063Y-80659774D01*
X163340226Y-80803937D01*
X163509744Y-80917205D01*
X163698102Y-80995226D01*
X163898061Y-81035000D01*
X164101939Y-81035000D01*
X164301898Y-80995226D01*
X164490256Y-80917205D01*
X164659774Y-80803937D01*
X164803937Y-80659774D01*
X164917205Y-80490256D01*
X164995226Y-80301898D01*
X165035000Y-80101939D01*
X165035000Y-79898061D01*
X165965000Y-79898061D01*
X165965000Y-80101939D01*
X166004774Y-80301898D01*
X166082795Y-80490256D01*
X166196063Y-80659774D01*
X166340226Y-80803937D01*
X166509744Y-80917205D01*
X166698102Y-80995226D01*
X166898061Y-81035000D01*
X167101939Y-81035000D01*
X167301898Y-80995226D01*
X167490256Y-80917205D01*
X167659774Y-80803937D01*
X167803937Y-80659774D01*
X167917205Y-80490256D01*
X167995226Y-80301898D01*
X168035000Y-80101939D01*
X168035000Y-79898061D01*
X168965000Y-79898061D01*
X168965000Y-80101939D01*
X169004774Y-80301898D01*
X169082795Y-80490256D01*
X169196063Y-80659774D01*
X169340226Y-80803937D01*
X169509744Y-80917205D01*
X169698102Y-80995226D01*
X169898061Y-81035000D01*
X170101939Y-81035000D01*
X170301898Y-80995226D01*
X170490256Y-80917205D01*
X170659774Y-80803937D01*
X170803937Y-80659774D01*
X170917205Y-80490256D01*
X170995226Y-80301898D01*
X171035000Y-80101939D01*
X171035000Y-79898061D01*
X170995226Y-79698102D01*
X170917205Y-79509744D01*
X170803937Y-79340226D01*
X170659774Y-79196063D01*
X170490256Y-79082795D01*
X170301898Y-79004774D01*
X170101939Y-78965000D01*
X169898061Y-78965000D01*
X169698102Y-79004774D01*
X169509744Y-79082795D01*
X169340226Y-79196063D01*
X169196063Y-79340226D01*
X169082795Y-79509744D01*
X169004774Y-79698102D01*
X168965000Y-79898061D01*
X168035000Y-79898061D01*
X167995226Y-79698102D01*
X167917205Y-79509744D01*
X167803937Y-79340226D01*
X167659774Y-79196063D01*
X167490256Y-79082795D01*
X167301898Y-79004774D01*
X167101939Y-78965000D01*
X166898061Y-78965000D01*
X166698102Y-79004774D01*
X166509744Y-79082795D01*
X166340226Y-79196063D01*
X166196063Y-79340226D01*
X166082795Y-79509744D01*
X166004774Y-79698102D01*
X165965000Y-79898061D01*
X165035000Y-79898061D01*
X164995226Y-79698102D01*
X164917205Y-79509744D01*
X164803937Y-79340226D01*
X164659774Y-79196063D01*
X164490256Y-79082795D01*
X164301898Y-79004774D01*
X164101939Y-78965000D01*
X163898061Y-78965000D01*
X163698102Y-79004774D01*
X163509744Y-79082795D01*
X163340226Y-79196063D01*
X163196063Y-79340226D01*
X163082795Y-79509744D01*
X163004774Y-79698102D01*
X162965000Y-79898061D01*
X154437645Y-79898061D01*
X154451898Y-79895226D01*
X154640256Y-79817205D01*
X154809774Y-79703937D01*
X154953937Y-79559774D01*
X155067205Y-79390256D01*
X155145226Y-79201898D01*
X155185000Y-79001939D01*
X155185000Y-78798061D01*
X155145226Y-78598102D01*
X155067205Y-78409744D01*
X154953937Y-78240226D01*
X154861772Y-78148061D01*
X161715000Y-78148061D01*
X161715000Y-78351939D01*
X161754774Y-78551898D01*
X161832795Y-78740256D01*
X161946063Y-78909774D01*
X162090226Y-79053937D01*
X162259744Y-79167205D01*
X162448102Y-79245226D01*
X162648061Y-79285000D01*
X162851939Y-79285000D01*
X163051898Y-79245226D01*
X163240256Y-79167205D01*
X163409774Y-79053937D01*
X163553937Y-78909774D01*
X163667205Y-78740256D01*
X163745226Y-78551898D01*
X163785000Y-78351939D01*
X163785000Y-78148061D01*
X163745226Y-77948102D01*
X163667205Y-77759744D01*
X163553937Y-77590226D01*
X163409774Y-77446063D01*
X163240256Y-77332795D01*
X163051898Y-77254774D01*
X162851939Y-77215000D01*
X162648061Y-77215000D01*
X162448102Y-77254774D01*
X162259744Y-77332795D01*
X162090226Y-77446063D01*
X161946063Y-77590226D01*
X161832795Y-77759744D01*
X161754774Y-77948102D01*
X161715000Y-78148061D01*
X154861772Y-78148061D01*
X154809774Y-78096063D01*
X154640256Y-77982795D01*
X154451898Y-77904774D01*
X154251939Y-77865000D01*
X154048061Y-77865000D01*
X153848102Y-77904774D01*
X153659744Y-77982795D01*
X153490226Y-78096063D01*
X153346063Y-78240226D01*
X153232795Y-78409744D01*
X153154774Y-78598102D01*
X153115000Y-78798061D01*
X142950620Y-78798061D01*
X142967660Y-78712399D01*
X142967660Y-78508521D01*
X142927886Y-78308562D01*
X142849865Y-78120204D01*
X142736597Y-77950686D01*
X142592434Y-77806523D01*
X142422916Y-77693255D01*
X142234558Y-77615234D01*
X142034599Y-77575460D01*
X141830721Y-77575460D01*
X141630762Y-77615234D01*
X141442404Y-77693255D01*
X141272886Y-77806523D01*
X141128723Y-77950686D01*
X141015455Y-78120204D01*
X140937434Y-78308562D01*
X140897660Y-78508521D01*
X117627000Y-78508521D01*
X117627000Y-76898061D01*
X156642040Y-76898061D01*
X156642040Y-77101939D01*
X156681814Y-77301898D01*
X156759835Y-77490256D01*
X156873103Y-77659774D01*
X157017266Y-77803937D01*
X157186784Y-77917205D01*
X157375142Y-77995226D01*
X157575101Y-78035000D01*
X157778979Y-78035000D01*
X157978938Y-77995226D01*
X158167296Y-77917205D01*
X158336814Y-77803937D01*
X158480977Y-77659774D01*
X158594245Y-77490256D01*
X158672266Y-77301898D01*
X158712040Y-77101939D01*
X158712040Y-76898061D01*
X158672266Y-76698102D01*
X158594245Y-76509744D01*
X158480977Y-76340226D01*
X158336814Y-76196063D01*
X158167296Y-76082795D01*
X157978938Y-76004774D01*
X157778979Y-75965000D01*
X157575101Y-75965000D01*
X157375142Y-76004774D01*
X157186784Y-76082795D01*
X157017266Y-76196063D01*
X156873103Y-76340226D01*
X156759835Y-76509744D01*
X156681814Y-76698102D01*
X156642040Y-76898061D01*
X117627000Y-76898061D01*
X117627000Y-73535561D01*
X132827500Y-73535561D01*
X132827500Y-73739439D01*
X132867274Y-73939398D01*
X132945295Y-74127756D01*
X133058563Y-74297274D01*
X133202726Y-74441437D01*
X133372244Y-74554705D01*
X133560602Y-74632726D01*
X133760561Y-74672500D01*
X133964439Y-74672500D01*
X134087303Y-74648061D01*
X139215000Y-74648061D01*
X139215000Y-74851939D01*
X139254774Y-75051898D01*
X139332795Y-75240256D01*
X139446063Y-75409774D01*
X139590226Y-75553937D01*
X139759744Y-75667205D01*
X139948102Y-75745226D01*
X140148061Y-75785000D01*
X140351939Y-75785000D01*
X140551898Y-75745226D01*
X140740256Y-75667205D01*
X140909774Y-75553937D01*
X141053937Y-75409774D01*
X141167205Y-75240256D01*
X141233666Y-75079807D01*
X141241744Y-75085205D01*
X141430102Y-75163226D01*
X141630061Y-75203000D01*
X141833939Y-75203000D01*
X142033898Y-75163226D01*
X142222256Y-75085205D01*
X142391774Y-74971937D01*
X142535937Y-74827774D01*
X142649205Y-74658256D01*
X142727226Y-74469898D01*
X142767000Y-74269939D01*
X142767000Y-74066061D01*
X142727226Y-73866102D01*
X142649205Y-73677744D01*
X142535937Y-73508226D01*
X142391774Y-73364063D01*
X142222256Y-73250795D01*
X142033898Y-73172774D01*
X141833939Y-73133000D01*
X141630061Y-73133000D01*
X141430102Y-73172774D01*
X141241744Y-73250795D01*
X141072226Y-73364063D01*
X140928063Y-73508226D01*
X140814795Y-73677744D01*
X140748334Y-73838193D01*
X140740256Y-73832795D01*
X140551898Y-73754774D01*
X140351939Y-73715000D01*
X140148061Y-73715000D01*
X139948102Y-73754774D01*
X139759744Y-73832795D01*
X139590226Y-73946063D01*
X139446063Y-74090226D01*
X139332795Y-74259744D01*
X139254774Y-74448102D01*
X139215000Y-74648061D01*
X134087303Y-74648061D01*
X134164398Y-74632726D01*
X134352756Y-74554705D01*
X134522274Y-74441437D01*
X134666437Y-74297274D01*
X134779705Y-74127756D01*
X134857726Y-73939398D01*
X134897500Y-73739439D01*
X134897500Y-73535561D01*
X134857726Y-73335602D01*
X134779705Y-73147244D01*
X134666437Y-72977726D01*
X134522274Y-72833563D01*
X134352756Y-72720295D01*
X134164398Y-72642274D01*
X133964439Y-72602500D01*
X133760561Y-72602500D01*
X133560602Y-72642274D01*
X133372244Y-72720295D01*
X133202726Y-72833563D01*
X133058563Y-72977726D01*
X132945295Y-73147244D01*
X132867274Y-73335602D01*
X132827500Y-73535561D01*
X117627000Y-73535561D01*
X117627000Y-66150000D01*
X121011928Y-66150000D01*
X121011928Y-67850000D01*
X121024188Y-67974482D01*
X121060498Y-68094180D01*
X121119463Y-68204494D01*
X121198815Y-68301185D01*
X121295506Y-68380537D01*
X121405820Y-68439502D01*
X121478380Y-68461513D01*
X121346525Y-68593368D01*
X121184010Y-68836589D01*
X121072068Y-69106842D01*
X121015000Y-69393740D01*
X121015000Y-69686260D01*
X121072068Y-69973158D01*
X121184010Y-70243411D01*
X121346525Y-70486632D01*
X121553368Y-70693475D01*
X121796589Y-70855990D01*
X122066842Y-70967932D01*
X122353740Y-71025000D01*
X122646260Y-71025000D01*
X122933158Y-70967932D01*
X123203411Y-70855990D01*
X123446632Y-70693475D01*
X123653475Y-70486632D01*
X123770000Y-70312240D01*
X123886525Y-70486632D01*
X124093368Y-70693475D01*
X124336589Y-70855990D01*
X124606842Y-70967932D01*
X124893740Y-71025000D01*
X125186260Y-71025000D01*
X125473158Y-70967932D01*
X125743411Y-70855990D01*
X125986632Y-70693475D01*
X126193475Y-70486632D01*
X126310000Y-70312240D01*
X126426525Y-70486632D01*
X126633368Y-70693475D01*
X126876589Y-70855990D01*
X127146842Y-70967932D01*
X127433740Y-71025000D01*
X127726260Y-71025000D01*
X128013158Y-70967932D01*
X128283411Y-70855990D01*
X128526632Y-70693475D01*
X128733475Y-70486632D01*
X128850000Y-70312240D01*
X128966525Y-70486632D01*
X129173368Y-70693475D01*
X129416589Y-70855990D01*
X129686842Y-70967932D01*
X129973740Y-71025000D01*
X130266260Y-71025000D01*
X130553158Y-70967932D01*
X130823411Y-70855990D01*
X131066632Y-70693475D01*
X131273475Y-70486632D01*
X131390000Y-70312240D01*
X131506525Y-70486632D01*
X131713368Y-70693475D01*
X131956589Y-70855990D01*
X132226842Y-70967932D01*
X132513740Y-71025000D01*
X132806260Y-71025000D01*
X133093158Y-70967932D01*
X133363411Y-70855990D01*
X133606632Y-70693475D01*
X133813475Y-70486632D01*
X133975990Y-70243411D01*
X134087932Y-69973158D01*
X134145000Y-69686260D01*
X134145000Y-69393740D01*
X134087932Y-69106842D01*
X133975990Y-68836589D01*
X133813475Y-68593368D01*
X133606632Y-68386525D01*
X133430594Y-68268900D01*
X133660269Y-68097588D01*
X133855178Y-67881355D01*
X134004157Y-67631252D01*
X134101481Y-67356891D01*
X133980814Y-67127000D01*
X132787000Y-67127000D01*
X132787000Y-67147000D01*
X132533000Y-67147000D01*
X132533000Y-67127000D01*
X132513000Y-67127000D01*
X132513000Y-66873000D01*
X132533000Y-66873000D01*
X132533000Y-65679845D01*
X132787000Y-65679845D01*
X132787000Y-66873000D01*
X133980814Y-66873000D01*
X134101481Y-66643109D01*
X134004157Y-66368748D01*
X133855178Y-66118645D01*
X133660269Y-65902412D01*
X133426920Y-65728359D01*
X133262408Y-65650000D01*
X137511928Y-65650000D01*
X137511928Y-67350000D01*
X137524188Y-67474482D01*
X137560498Y-67594180D01*
X137619463Y-67704494D01*
X137698815Y-67801185D01*
X137795506Y-67880537D01*
X137905820Y-67939502D01*
X137978380Y-67961513D01*
X137846525Y-68093368D01*
X137684010Y-68336589D01*
X137572068Y-68606842D01*
X137515000Y-68893740D01*
X137515000Y-69186260D01*
X137572068Y-69473158D01*
X137684010Y-69743411D01*
X137846525Y-69986632D01*
X138053368Y-70193475D01*
X138227760Y-70310000D01*
X138053368Y-70426525D01*
X137846525Y-70633368D01*
X137684010Y-70876589D01*
X137572068Y-71146842D01*
X137515000Y-71433740D01*
X137515000Y-71726260D01*
X137572068Y-72013158D01*
X137684010Y-72283411D01*
X137846525Y-72526632D01*
X138053368Y-72733475D01*
X138296589Y-72895990D01*
X138566842Y-73007932D01*
X138853740Y-73065000D01*
X139146260Y-73065000D01*
X139433158Y-73007932D01*
X139703411Y-72895990D01*
X139946632Y-72733475D01*
X140153475Y-72526632D01*
X140315990Y-72283411D01*
X140427932Y-72013158D01*
X140485000Y-71726260D01*
X140485000Y-71433740D01*
X140427932Y-71146842D01*
X140315990Y-70876589D01*
X140153475Y-70633368D01*
X139946632Y-70426525D01*
X139772240Y-70310000D01*
X139946632Y-70193475D01*
X140153475Y-69986632D01*
X140315990Y-69743411D01*
X140427932Y-69473158D01*
X140485000Y-69186260D01*
X140485000Y-68893740D01*
X140427932Y-68606842D01*
X140315990Y-68336589D01*
X140153475Y-68093368D01*
X140021620Y-67961513D01*
X140094180Y-67939502D01*
X140204494Y-67880537D01*
X140301185Y-67801185D01*
X140380537Y-67704494D01*
X140439502Y-67594180D01*
X140475812Y-67474482D01*
X140488072Y-67350000D01*
X140488072Y-65650000D01*
X141511928Y-65650000D01*
X141511928Y-67350000D01*
X141524188Y-67474482D01*
X141560498Y-67594180D01*
X141619463Y-67704494D01*
X141698815Y-67801185D01*
X141795506Y-67880537D01*
X141905820Y-67939502D01*
X141978380Y-67961513D01*
X141846525Y-68093368D01*
X141684010Y-68336589D01*
X141572068Y-68606842D01*
X141515000Y-68893740D01*
X141515000Y-69186260D01*
X141572068Y-69473158D01*
X141684010Y-69743411D01*
X141846525Y-69986632D01*
X142053368Y-70193475D01*
X142227760Y-70310000D01*
X142053368Y-70426525D01*
X141846525Y-70633368D01*
X141684010Y-70876589D01*
X141572068Y-71146842D01*
X141515000Y-71433740D01*
X141515000Y-71726260D01*
X141572068Y-72013158D01*
X141684010Y-72283411D01*
X141846525Y-72526632D01*
X142053368Y-72733475D01*
X142296589Y-72895990D01*
X142566842Y-73007932D01*
X142853740Y-73065000D01*
X143146260Y-73065000D01*
X143433158Y-73007932D01*
X143703411Y-72895990D01*
X143946632Y-72733475D01*
X144153475Y-72526632D01*
X144315990Y-72283411D01*
X144427932Y-72013158D01*
X144443102Y-71936890D01*
X145558524Y-71936890D01*
X145603175Y-72084099D01*
X145728359Y-72346920D01*
X145902412Y-72580269D01*
X146118645Y-72775178D01*
X146368748Y-72924157D01*
X146643109Y-73021481D01*
X146873000Y-72900814D01*
X146873000Y-71707000D01*
X147127000Y-71707000D01*
X147127000Y-72900814D01*
X147356891Y-73021481D01*
X147631252Y-72924157D01*
X147881355Y-72775178D01*
X148097588Y-72580269D01*
X148271641Y-72346920D01*
X148396825Y-72084099D01*
X148441476Y-71936890D01*
X151058524Y-71936890D01*
X151103175Y-72084099D01*
X151228359Y-72346920D01*
X151402412Y-72580269D01*
X151618645Y-72775178D01*
X151868748Y-72924157D01*
X152143109Y-73021481D01*
X152373000Y-72900814D01*
X152373000Y-71707000D01*
X152627000Y-71707000D01*
X152627000Y-72900814D01*
X152856891Y-73021481D01*
X153131252Y-72924157D01*
X153381355Y-72775178D01*
X153597588Y-72580269D01*
X153771641Y-72346920D01*
X153896825Y-72084099D01*
X153941476Y-71936890D01*
X153820155Y-71707000D01*
X152627000Y-71707000D01*
X152373000Y-71707000D01*
X151179845Y-71707000D01*
X151058524Y-71936890D01*
X148441476Y-71936890D01*
X148320155Y-71707000D01*
X147127000Y-71707000D01*
X146873000Y-71707000D01*
X145679845Y-71707000D01*
X145558524Y-71936890D01*
X144443102Y-71936890D01*
X144485000Y-71726260D01*
X144485000Y-71433740D01*
X144427932Y-71146842D01*
X144315990Y-70876589D01*
X144153475Y-70633368D01*
X143946632Y-70426525D01*
X143772240Y-70310000D01*
X143946632Y-70193475D01*
X144153475Y-69986632D01*
X144315990Y-69743411D01*
X144427932Y-69473158D01*
X144485000Y-69186260D01*
X144485000Y-68893740D01*
X144427932Y-68606842D01*
X144315990Y-68336589D01*
X144153475Y-68093368D01*
X144021620Y-67961513D01*
X144094180Y-67939502D01*
X144204494Y-67880537D01*
X144301185Y-67801185D01*
X144380537Y-67704494D01*
X144439502Y-67594180D01*
X144475812Y-67474482D01*
X144488072Y-67350000D01*
X144488072Y-65650000D01*
X145511928Y-65650000D01*
X145511928Y-67350000D01*
X145524188Y-67474482D01*
X145560498Y-67594180D01*
X145619463Y-67704494D01*
X145698815Y-67801185D01*
X145795506Y-67880537D01*
X145905820Y-67939502D01*
X145978380Y-67961513D01*
X145846525Y-68093368D01*
X145684010Y-68336589D01*
X145572068Y-68606842D01*
X145515000Y-68893740D01*
X145515000Y-69186260D01*
X145572068Y-69473158D01*
X145684010Y-69743411D01*
X145846525Y-69986632D01*
X146053368Y-70193475D01*
X146235534Y-70315195D01*
X146118645Y-70384822D01*
X145902412Y-70579731D01*
X145728359Y-70813080D01*
X145603175Y-71075901D01*
X145558524Y-71223110D01*
X145679845Y-71453000D01*
X146873000Y-71453000D01*
X146873000Y-71433000D01*
X147127000Y-71433000D01*
X147127000Y-71453000D01*
X148320155Y-71453000D01*
X148441476Y-71223110D01*
X148396825Y-71075901D01*
X148271641Y-70813080D01*
X148097588Y-70579731D01*
X147881355Y-70384822D01*
X147764466Y-70315195D01*
X147946632Y-70193475D01*
X148153475Y-69986632D01*
X148315990Y-69743411D01*
X148427932Y-69473158D01*
X148485000Y-69186260D01*
X148485000Y-68893740D01*
X148427932Y-68606842D01*
X148315990Y-68336589D01*
X148153475Y-68093368D01*
X148021620Y-67961513D01*
X148094180Y-67939502D01*
X148204494Y-67880537D01*
X148301185Y-67801185D01*
X148380537Y-67704494D01*
X148439502Y-67594180D01*
X148475812Y-67474482D01*
X148488072Y-67350000D01*
X148488072Y-65650000D01*
X151011928Y-65650000D01*
X151011928Y-67350000D01*
X151024188Y-67474482D01*
X151060498Y-67594180D01*
X151119463Y-67704494D01*
X151198815Y-67801185D01*
X151295506Y-67880537D01*
X151405820Y-67939502D01*
X151478380Y-67961513D01*
X151346525Y-68093368D01*
X151184010Y-68336589D01*
X151072068Y-68606842D01*
X151015000Y-68893740D01*
X151015000Y-69186260D01*
X151072068Y-69473158D01*
X151184010Y-69743411D01*
X151346525Y-69986632D01*
X151553368Y-70193475D01*
X151735534Y-70315195D01*
X151618645Y-70384822D01*
X151402412Y-70579731D01*
X151228359Y-70813080D01*
X151103175Y-71075901D01*
X151058524Y-71223110D01*
X151179845Y-71453000D01*
X152373000Y-71453000D01*
X152373000Y-71433000D01*
X152627000Y-71433000D01*
X152627000Y-71453000D01*
X153820155Y-71453000D01*
X153941476Y-71223110D01*
X153896825Y-71075901D01*
X153771641Y-70813080D01*
X153597588Y-70579731D01*
X153381355Y-70384822D01*
X153264466Y-70315195D01*
X153446632Y-70193475D01*
X153653475Y-69986632D01*
X153815990Y-69743411D01*
X153927932Y-69473158D01*
X153985000Y-69186260D01*
X153985000Y-68893740D01*
X153927932Y-68606842D01*
X153815990Y-68336589D01*
X153653475Y-68093368D01*
X153521620Y-67961513D01*
X153594180Y-67939502D01*
X153704494Y-67880537D01*
X153801185Y-67801185D01*
X153880537Y-67704494D01*
X153936805Y-67599224D01*
X157080381Y-67599224D01*
X157212317Y-67894312D01*
X157553045Y-68065159D01*
X157920557Y-68166250D01*
X158300729Y-68193701D01*
X158678951Y-68146457D01*
X159040690Y-68026333D01*
X159287683Y-67894312D01*
X159419619Y-67599224D01*
X158250000Y-66429605D01*
X157080381Y-67599224D01*
X153936805Y-67599224D01*
X153939502Y-67594180D01*
X153975812Y-67474482D01*
X153988072Y-67350000D01*
X153988072Y-66300729D01*
X156306299Y-66300729D01*
X156353543Y-66678951D01*
X156473667Y-67040690D01*
X156605688Y-67287683D01*
X156900776Y-67419619D01*
X158070395Y-66250000D01*
X158429605Y-66250000D01*
X159599224Y-67419619D01*
X159894312Y-67287683D01*
X160065159Y-66946955D01*
X160166250Y-66579443D01*
X160193701Y-66199271D01*
X160146457Y-65821049D01*
X160026333Y-65459310D01*
X159894312Y-65212317D01*
X159599224Y-65080381D01*
X158429605Y-66250000D01*
X158070395Y-66250000D01*
X156900776Y-65080381D01*
X156605688Y-65212317D01*
X156434841Y-65553045D01*
X156333750Y-65920557D01*
X156306299Y-66300729D01*
X153988072Y-66300729D01*
X153988072Y-65650000D01*
X153975812Y-65525518D01*
X153939502Y-65405820D01*
X153880537Y-65295506D01*
X153801185Y-65198815D01*
X153704494Y-65119463D01*
X153594180Y-65060498D01*
X153474482Y-65024188D01*
X153350000Y-65011928D01*
X151650000Y-65011928D01*
X151525518Y-65024188D01*
X151405820Y-65060498D01*
X151295506Y-65119463D01*
X151198815Y-65198815D01*
X151119463Y-65295506D01*
X151060498Y-65405820D01*
X151024188Y-65525518D01*
X151011928Y-65650000D01*
X148488072Y-65650000D01*
X148475812Y-65525518D01*
X148439502Y-65405820D01*
X148380537Y-65295506D01*
X148301185Y-65198815D01*
X148204494Y-65119463D01*
X148094180Y-65060498D01*
X147974482Y-65024188D01*
X147850000Y-65011928D01*
X146150000Y-65011928D01*
X146025518Y-65024188D01*
X145905820Y-65060498D01*
X145795506Y-65119463D01*
X145698815Y-65198815D01*
X145619463Y-65295506D01*
X145560498Y-65405820D01*
X145524188Y-65525518D01*
X145511928Y-65650000D01*
X144488072Y-65650000D01*
X144475812Y-65525518D01*
X144439502Y-65405820D01*
X144380537Y-65295506D01*
X144301185Y-65198815D01*
X144204494Y-65119463D01*
X144094180Y-65060498D01*
X143974482Y-65024188D01*
X143850000Y-65011928D01*
X142150000Y-65011928D01*
X142025518Y-65024188D01*
X141905820Y-65060498D01*
X141795506Y-65119463D01*
X141698815Y-65198815D01*
X141619463Y-65295506D01*
X141560498Y-65405820D01*
X141524188Y-65525518D01*
X141511928Y-65650000D01*
X140488072Y-65650000D01*
X140475812Y-65525518D01*
X140439502Y-65405820D01*
X140380537Y-65295506D01*
X140301185Y-65198815D01*
X140204494Y-65119463D01*
X140094180Y-65060498D01*
X139974482Y-65024188D01*
X139850000Y-65011928D01*
X138150000Y-65011928D01*
X138025518Y-65024188D01*
X137905820Y-65060498D01*
X137795506Y-65119463D01*
X137698815Y-65198815D01*
X137619463Y-65295506D01*
X137560498Y-65405820D01*
X137524188Y-65525518D01*
X137511928Y-65650000D01*
X133262408Y-65650000D01*
X133164099Y-65603175D01*
X133016890Y-65558524D01*
X132787000Y-65679845D01*
X132533000Y-65679845D01*
X132303110Y-65558524D01*
X132155901Y-65603175D01*
X131893080Y-65728359D01*
X131659731Y-65902412D01*
X131464822Y-66118645D01*
X131395195Y-66235534D01*
X131273475Y-66053368D01*
X131066632Y-65846525D01*
X130823411Y-65684010D01*
X130553158Y-65572068D01*
X130266260Y-65515000D01*
X129973740Y-65515000D01*
X129686842Y-65572068D01*
X129416589Y-65684010D01*
X129173368Y-65846525D01*
X128966525Y-66053368D01*
X128844805Y-66235534D01*
X128775178Y-66118645D01*
X128580269Y-65902412D01*
X128346920Y-65728359D01*
X128084099Y-65603175D01*
X127936890Y-65558524D01*
X127707000Y-65679845D01*
X127707000Y-66873000D01*
X127727000Y-66873000D01*
X127727000Y-67127000D01*
X127707000Y-67127000D01*
X127707000Y-67147000D01*
X127453000Y-67147000D01*
X127453000Y-67127000D01*
X125167000Y-67127000D01*
X125167000Y-67147000D01*
X124913000Y-67147000D01*
X124913000Y-67127000D01*
X124893000Y-67127000D01*
X124893000Y-66873000D01*
X124913000Y-66873000D01*
X124913000Y-65679845D01*
X125167000Y-65679845D01*
X125167000Y-66873000D01*
X127453000Y-66873000D01*
X127453000Y-65679845D01*
X127223110Y-65558524D01*
X127075901Y-65603175D01*
X126813080Y-65728359D01*
X126579731Y-65902412D01*
X126384822Y-66118645D01*
X126310000Y-66244255D01*
X126235178Y-66118645D01*
X126040269Y-65902412D01*
X125806920Y-65728359D01*
X125544099Y-65603175D01*
X125396890Y-65558524D01*
X125167000Y-65679845D01*
X124913000Y-65679845D01*
X124683110Y-65558524D01*
X124535901Y-65603175D01*
X124273080Y-65728359D01*
X124039731Y-65902412D01*
X123963966Y-65986466D01*
X123939502Y-65905820D01*
X123880537Y-65795506D01*
X123801185Y-65698815D01*
X123704494Y-65619463D01*
X123594180Y-65560498D01*
X123474482Y-65524188D01*
X123350000Y-65511928D01*
X121650000Y-65511928D01*
X121525518Y-65524188D01*
X121405820Y-65560498D01*
X121295506Y-65619463D01*
X121198815Y-65698815D01*
X121119463Y-65795506D01*
X121060498Y-65905820D01*
X121024188Y-66025518D01*
X121011928Y-66150000D01*
X117627000Y-66150000D01*
X117627000Y-64900776D01*
X157080381Y-64900776D01*
X158250000Y-66070395D01*
X159370395Y-64950000D01*
X161311928Y-64950000D01*
X161311928Y-67550000D01*
X161324188Y-67674482D01*
X161360498Y-67794180D01*
X161419463Y-67904494D01*
X161498815Y-68001185D01*
X161595506Y-68080537D01*
X161705820Y-68139502D01*
X161825518Y-68175812D01*
X161950000Y-68188072D01*
X164550000Y-68188072D01*
X164674482Y-68175812D01*
X164794180Y-68139502D01*
X164904494Y-68080537D01*
X165001185Y-68001185D01*
X165080537Y-67904494D01*
X165139502Y-67794180D01*
X165175812Y-67674482D01*
X165188072Y-67550000D01*
X165188072Y-64950000D01*
X165175812Y-64825518D01*
X165139502Y-64705820D01*
X165080537Y-64595506D01*
X165001185Y-64498815D01*
X164904494Y-64419463D01*
X164794180Y-64360498D01*
X164674482Y-64324188D01*
X164550000Y-64311928D01*
X161950000Y-64311928D01*
X161825518Y-64324188D01*
X161705820Y-64360498D01*
X161595506Y-64419463D01*
X161498815Y-64498815D01*
X161419463Y-64595506D01*
X161360498Y-64705820D01*
X161324188Y-64825518D01*
X161311928Y-64950000D01*
X159370395Y-64950000D01*
X159419619Y-64900776D01*
X159287683Y-64605688D01*
X158946955Y-64434841D01*
X158579443Y-64333750D01*
X158199271Y-64306299D01*
X157821049Y-64353543D01*
X157459310Y-64473667D01*
X157212317Y-64605688D01*
X157080381Y-64900776D01*
X117627000Y-64900776D01*
X117627000Y-62902459D01*
X117838912Y-63190548D01*
X118502882Y-63550849D01*
X119224385Y-63774694D01*
X119975695Y-63853480D01*
X120727938Y-63784178D01*
X121452208Y-63569452D01*
X122120670Y-63217555D01*
X122161088Y-63190548D01*
X122521276Y-62700881D01*
X120000000Y-60179605D01*
X119985858Y-60193748D01*
X119806253Y-60014143D01*
X119820395Y-60000000D01*
X119806253Y-59985858D01*
X119985858Y-59806253D01*
X120000000Y-59820395D01*
X120014143Y-59806253D01*
X120193748Y-59985858D01*
X120179605Y-60000000D01*
X122700881Y-62521276D01*
X123190548Y-62161088D01*
X123550849Y-61497118D01*
X123774694Y-60775615D01*
X123853480Y-60024305D01*
X123784178Y-59272062D01*
X123569452Y-58547792D01*
X123217555Y-57879330D01*
X123190548Y-57838912D01*
X122902459Y-57627000D01*
X167097541Y-57627000D01*
X166809452Y-57838912D01*
%TA.AperFunction,Conductor*%
D18*
G36*
X166809452Y-57838912D02*
G01*
X166449151Y-58502882D01*
X166225306Y-59224385D01*
X166146520Y-59975695D01*
X166215822Y-60727938D01*
X166430548Y-61452208D01*
X166782445Y-62120670D01*
X166809452Y-62161088D01*
X167299119Y-62521276D01*
X169820395Y-60000000D01*
X169806253Y-59985858D01*
X169985858Y-59806253D01*
X170000000Y-59820395D01*
X170014143Y-59806253D01*
X170193748Y-59985858D01*
X170179605Y-60000000D01*
X170193748Y-60014143D01*
X170014143Y-60193748D01*
X170000000Y-60179605D01*
X167478724Y-62700881D01*
X167838912Y-63190548D01*
X168502882Y-63550849D01*
X169224385Y-63774694D01*
X169975695Y-63853480D01*
X170727938Y-63784178D01*
X171452208Y-63569452D01*
X172120670Y-63217555D01*
X172161088Y-63190548D01*
X172373000Y-62902459D01*
X172373000Y-97097541D01*
X172161088Y-96809452D01*
X171497118Y-96449151D01*
X170775615Y-96225306D01*
X170024305Y-96146520D01*
X169272062Y-96215822D01*
X168547792Y-96430548D01*
X167879330Y-96782445D01*
X167838912Y-96809452D01*
X167478724Y-97299119D01*
X170000000Y-99820395D01*
X170014143Y-99806253D01*
X170193748Y-99985858D01*
X170179605Y-100000000D01*
X170193748Y-100014143D01*
X170014143Y-100193748D01*
X170000000Y-100179605D01*
X169985858Y-100193748D01*
X169806253Y-100014143D01*
X169820395Y-100000000D01*
X167299119Y-97478724D01*
X166809452Y-97838912D01*
X166449151Y-98502882D01*
X166225306Y-99224385D01*
X166146520Y-99975695D01*
X166215822Y-100727938D01*
X166430548Y-101452208D01*
X166782445Y-102120670D01*
X166809452Y-102161088D01*
X167097541Y-102373000D01*
X122902459Y-102373000D01*
X123190548Y-102161088D01*
X123550849Y-101497118D01*
X123774694Y-100775615D01*
X123853480Y-100024305D01*
X123784178Y-99272062D01*
X123569452Y-98547792D01*
X123217555Y-97879330D01*
X123190548Y-97838912D01*
X122700881Y-97478724D01*
X120179605Y-100000000D01*
X120193748Y-100014143D01*
X120014143Y-100193748D01*
X120000000Y-100179605D01*
X119985858Y-100193748D01*
X119806253Y-100014143D01*
X119820395Y-100000000D01*
X119806253Y-99985858D01*
X119985858Y-99806253D01*
X120000000Y-99820395D01*
X122521276Y-97299119D01*
X122161088Y-96809452D01*
X121497118Y-96449151D01*
X120775615Y-96225306D01*
X120024305Y-96146520D01*
X119272062Y-96215822D01*
X118547792Y-96430548D01*
X117879330Y-96782445D01*
X117838912Y-96809452D01*
X117627000Y-97097541D01*
X117627000Y-92606891D01*
X146898519Y-92606891D01*
X146995843Y-92881252D01*
X147144822Y-93131355D01*
X147339731Y-93347588D01*
X147573080Y-93521641D01*
X147835901Y-93646825D01*
X147983110Y-93691476D01*
X148213000Y-93570155D01*
X148213000Y-92377000D01*
X147019186Y-92377000D01*
X146898519Y-92606891D01*
X117627000Y-92606891D01*
X117627000Y-87198061D01*
X124415000Y-87198061D01*
X124415000Y-87401939D01*
X124454774Y-87601898D01*
X124532795Y-87790256D01*
X124646063Y-87959774D01*
X124790226Y-88103937D01*
X124959744Y-88217205D01*
X125148102Y-88295226D01*
X125348061Y-88335000D01*
X125551939Y-88335000D01*
X125751898Y-88295226D01*
X125940256Y-88217205D01*
X126109774Y-88103937D01*
X126253937Y-87959774D01*
X126367205Y-87790256D01*
X126445226Y-87601898D01*
X126479973Y-87427213D01*
X126504774Y-87551898D01*
X126582795Y-87740256D01*
X126696063Y-87909774D01*
X126840226Y-88053937D01*
X127009744Y-88167205D01*
X127198102Y-88245226D01*
X127398061Y-88285000D01*
X127601939Y-88285000D01*
X127801898Y-88245226D01*
X127990256Y-88167205D01*
X128159774Y-88053937D01*
X128303937Y-87909774D01*
X128417205Y-87740256D01*
X128495226Y-87551898D01*
X128500000Y-87527897D01*
X128504774Y-87551898D01*
X128582795Y-87740256D01*
X128696063Y-87909774D01*
X128840226Y-88053937D01*
X129009744Y-88167205D01*
X129198102Y-88245226D01*
X129398061Y-88285000D01*
X129601939Y-88285000D01*
X129801898Y-88245226D01*
X129990256Y-88167205D01*
X130159774Y-88053937D01*
X130303937Y-87909774D01*
X130417205Y-87740256D01*
X130495226Y-87551898D01*
X130525440Y-87400000D01*
X138011928Y-87400000D01*
X138011928Y-89100000D01*
X138024188Y-89224482D01*
X138060498Y-89344180D01*
X138119463Y-89454494D01*
X138198815Y-89551185D01*
X138295506Y-89630537D01*
X138405820Y-89689502D01*
X138478380Y-89711513D01*
X138346525Y-89843368D01*
X138184010Y-90086589D01*
X138072068Y-90356842D01*
X138015000Y-90643740D01*
X138015000Y-90936260D01*
X138072068Y-91223158D01*
X138184010Y-91493411D01*
X138346525Y-91736632D01*
X138553368Y-91943475D01*
X138796589Y-92105990D01*
X139066842Y-92217932D01*
X139353740Y-92275000D01*
X139646260Y-92275000D01*
X139933158Y-92217932D01*
X140203411Y-92105990D01*
X140446632Y-91943475D01*
X140653475Y-91736632D01*
X140815990Y-91493411D01*
X140927932Y-91223158D01*
X140985000Y-90936260D01*
X140985000Y-90643740D01*
X140927932Y-90356842D01*
X140815990Y-90086589D01*
X140653475Y-89843368D01*
X140521620Y-89711513D01*
X140594180Y-89689502D01*
X140704494Y-89630537D01*
X140801185Y-89551185D01*
X140880537Y-89454494D01*
X140939502Y-89344180D01*
X140975812Y-89224482D01*
X140988072Y-89100000D01*
X140988072Y-87898061D01*
X144645000Y-87898061D01*
X144645000Y-88101939D01*
X144684774Y-88301898D01*
X144762795Y-88490256D01*
X144876063Y-88659774D01*
X145020226Y-88803937D01*
X145189744Y-88917205D01*
X145378102Y-88995226D01*
X145418103Y-89003183D01*
X145410102Y-89004774D01*
X145221744Y-89082795D01*
X145052226Y-89196063D01*
X144908063Y-89340226D01*
X144794795Y-89509744D01*
X144716774Y-89698102D01*
X144677000Y-89898061D01*
X144677000Y-90101939D01*
X144716774Y-90301898D01*
X144794795Y-90490256D01*
X144908063Y-90659774D01*
X145017289Y-90769000D01*
X144946063Y-90840226D01*
X144832795Y-91009744D01*
X144754774Y-91198102D01*
X144715000Y-91398061D01*
X144715000Y-91601939D01*
X144754774Y-91801898D01*
X144832795Y-91990256D01*
X144946063Y-92159774D01*
X145090226Y-92303937D01*
X145259744Y-92417205D01*
X145448102Y-92495226D01*
X145648061Y-92535000D01*
X145851939Y-92535000D01*
X146051898Y-92495226D01*
X146240256Y-92417205D01*
X146409774Y-92303937D01*
X146553937Y-92159774D01*
X146667205Y-91990256D01*
X146745226Y-91801898D01*
X146785000Y-91601939D01*
X146785000Y-91398061D01*
X146745226Y-91198102D01*
X146667205Y-91009744D01*
X146553937Y-90840226D01*
X146444711Y-90731000D01*
X146515937Y-90659774D01*
X146629205Y-90490256D01*
X146707226Y-90301898D01*
X146747000Y-90101939D01*
X146747000Y-89898061D01*
X146707226Y-89698102D01*
X146651572Y-89563740D01*
X146855000Y-89563740D01*
X146855000Y-89856260D01*
X146912068Y-90143158D01*
X147024010Y-90413411D01*
X147186525Y-90656632D01*
X147393368Y-90863475D01*
X147569406Y-90981100D01*
X147339731Y-91152412D01*
X147144822Y-91368645D01*
X146995843Y-91618748D01*
X146898519Y-91893109D01*
X147019186Y-92123000D01*
X148213000Y-92123000D01*
X148213000Y-92103000D01*
X148467000Y-92103000D01*
X148467000Y-92123000D01*
X148487000Y-92123000D01*
X148487000Y-92377000D01*
X148467000Y-92377000D01*
X148467000Y-93570155D01*
X148696890Y-93691476D01*
X148844099Y-93646825D01*
X149106920Y-93521641D01*
X149340269Y-93347588D01*
X149535178Y-93131355D01*
X149604805Y-93014466D01*
X149726525Y-93196632D01*
X149933368Y-93403475D01*
X150176589Y-93565990D01*
X150446842Y-93677932D01*
X150733740Y-93735000D01*
X151026260Y-93735000D01*
X151313158Y-93677932D01*
X151583411Y-93565990D01*
X151826632Y-93403475D01*
X152033475Y-93196632D01*
X152155195Y-93014466D01*
X152224822Y-93131355D01*
X152419731Y-93347588D01*
X152653080Y-93521641D01*
X152915901Y-93646825D01*
X153063110Y-93691476D01*
X153293000Y-93570155D01*
X153293000Y-92377000D01*
X153547000Y-92377000D01*
X153547000Y-93570155D01*
X153776890Y-93691476D01*
X153924099Y-93646825D01*
X154186920Y-93521641D01*
X154420269Y-93347588D01*
X154615178Y-93131355D01*
X154690000Y-93005745D01*
X154764822Y-93131355D01*
X154959731Y-93347588D01*
X155193080Y-93521641D01*
X155455901Y-93646825D01*
X155603110Y-93691476D01*
X155833000Y-93570155D01*
X155833000Y-92377000D01*
X153547000Y-92377000D01*
X153293000Y-92377000D01*
X153273000Y-92377000D01*
X153273000Y-92123000D01*
X153293000Y-92123000D01*
X153293000Y-92103000D01*
X153547000Y-92103000D01*
X153547000Y-92123000D01*
X155833000Y-92123000D01*
X155833000Y-92103000D01*
X156087000Y-92103000D01*
X156087000Y-92123000D01*
X156107000Y-92123000D01*
X156107000Y-92377000D01*
X156087000Y-92377000D01*
X156087000Y-93570155D01*
X156316890Y-93691476D01*
X156464099Y-93646825D01*
X156726920Y-93521641D01*
X156960269Y-93347588D01*
X157036034Y-93263534D01*
X157060498Y-93344180D01*
X157119463Y-93454494D01*
X157198815Y-93551185D01*
X157295506Y-93630537D01*
X157405820Y-93689502D01*
X157525518Y-93725812D01*
X157650000Y-93738072D01*
X159350000Y-93738072D01*
X159474482Y-93725812D01*
X159594180Y-93689502D01*
X159704494Y-93630537D01*
X159801185Y-93551185D01*
X159880537Y-93454494D01*
X159939502Y-93344180D01*
X159975812Y-93224482D01*
X159988072Y-93100000D01*
X159988072Y-92646890D01*
X162558524Y-92646890D01*
X162603175Y-92794099D01*
X162728359Y-93056920D01*
X162902412Y-93290269D01*
X163118645Y-93485178D01*
X163368748Y-93634157D01*
X163643109Y-93731481D01*
X163873000Y-93610814D01*
X163873000Y-92417000D01*
X164127000Y-92417000D01*
X164127000Y-93610814D01*
X164356891Y-93731481D01*
X164631252Y-93634157D01*
X164881355Y-93485178D01*
X165097588Y-93290269D01*
X165271641Y-93056920D01*
X165396825Y-92794099D01*
X165441476Y-92646890D01*
X165320155Y-92417000D01*
X164127000Y-92417000D01*
X163873000Y-92417000D01*
X162679845Y-92417000D01*
X162558524Y-92646890D01*
X159988072Y-92646890D01*
X159988072Y-91400000D01*
X159975812Y-91275518D01*
X159939502Y-91155820D01*
X159880537Y-91045506D01*
X159801185Y-90948815D01*
X159704494Y-90869463D01*
X159594180Y-90810498D01*
X159521620Y-90788487D01*
X159653475Y-90656632D01*
X159815990Y-90413411D01*
X159927932Y-90143158D01*
X159985000Y-89856260D01*
X159985000Y-89563740D01*
X159927932Y-89276842D01*
X159815990Y-89006589D01*
X159744770Y-88900000D01*
X162511928Y-88900000D01*
X162511928Y-90600000D01*
X162524188Y-90724482D01*
X162560498Y-90844180D01*
X162619463Y-90954494D01*
X162698815Y-91051185D01*
X162795506Y-91130537D01*
X162905820Y-91189502D01*
X162986466Y-91213966D01*
X162902412Y-91289731D01*
X162728359Y-91523080D01*
X162603175Y-91785901D01*
X162558524Y-91933110D01*
X162679845Y-92163000D01*
X163873000Y-92163000D01*
X163873000Y-92143000D01*
X164127000Y-92143000D01*
X164127000Y-92163000D01*
X165320155Y-92163000D01*
X165441476Y-91933110D01*
X165396825Y-91785901D01*
X165271641Y-91523080D01*
X165097588Y-91289731D01*
X165013534Y-91213966D01*
X165094180Y-91189502D01*
X165204494Y-91130537D01*
X165301185Y-91051185D01*
X165380537Y-90954494D01*
X165439502Y-90844180D01*
X165475812Y-90724482D01*
X165488072Y-90600000D01*
X165488072Y-88900000D01*
X165475812Y-88775518D01*
X165439502Y-88655820D01*
X165380537Y-88545506D01*
X165301185Y-88448815D01*
X165204494Y-88369463D01*
X165094180Y-88310498D01*
X164974482Y-88274188D01*
X164850000Y-88261928D01*
X163150000Y-88261928D01*
X163025518Y-88274188D01*
X162905820Y-88310498D01*
X162795506Y-88369463D01*
X162698815Y-88448815D01*
X162619463Y-88545506D01*
X162560498Y-88655820D01*
X162524188Y-88775518D01*
X162511928Y-88900000D01*
X159744770Y-88900000D01*
X159653475Y-88763368D01*
X159446632Y-88556525D01*
X159203411Y-88394010D01*
X158933158Y-88282068D01*
X158646260Y-88225000D01*
X158353740Y-88225000D01*
X158066842Y-88282068D01*
X157796589Y-88394010D01*
X157553368Y-88556525D01*
X157346525Y-88763368D01*
X157230000Y-88937760D01*
X157113475Y-88763368D01*
X156906632Y-88556525D01*
X156663411Y-88394010D01*
X156393158Y-88282068D01*
X156106260Y-88225000D01*
X155813740Y-88225000D01*
X155526842Y-88282068D01*
X155256589Y-88394010D01*
X155013368Y-88556525D01*
X154806525Y-88763368D01*
X154690000Y-88937760D01*
X154573475Y-88763368D01*
X154366632Y-88556525D01*
X154123411Y-88394010D01*
X153853158Y-88282068D01*
X153566260Y-88225000D01*
X153273740Y-88225000D01*
X152986842Y-88282068D01*
X152716589Y-88394010D01*
X152473368Y-88556525D01*
X152266525Y-88763368D01*
X152150000Y-88937760D01*
X152033475Y-88763368D01*
X151826632Y-88556525D01*
X151583411Y-88394010D01*
X151313158Y-88282068D01*
X151026260Y-88225000D01*
X150733740Y-88225000D01*
X150446842Y-88282068D01*
X150176589Y-88394010D01*
X149933368Y-88556525D01*
X149726525Y-88763368D01*
X149610000Y-88937760D01*
X149493475Y-88763368D01*
X149286632Y-88556525D01*
X149043411Y-88394010D01*
X148773158Y-88282068D01*
X148486260Y-88225000D01*
X148193740Y-88225000D01*
X147906842Y-88282068D01*
X147636589Y-88394010D01*
X147393368Y-88556525D01*
X147186525Y-88763368D01*
X147024010Y-89006589D01*
X146912068Y-89276842D01*
X146855000Y-89563740D01*
X146651572Y-89563740D01*
X146629205Y-89509744D01*
X146515937Y-89340226D01*
X146371774Y-89196063D01*
X146202256Y-89082795D01*
X146013898Y-89004774D01*
X145973897Y-88996817D01*
X145981898Y-88995226D01*
X146170256Y-88917205D01*
X146339774Y-88803937D01*
X146483937Y-88659774D01*
X146597205Y-88490256D01*
X146675226Y-88301898D01*
X146715000Y-88101939D01*
X146715000Y-87898061D01*
X146675226Y-87698102D01*
X146597205Y-87509744D01*
X146483937Y-87340226D01*
X146339774Y-87196063D01*
X146170256Y-87082795D01*
X145981898Y-87004774D01*
X145781939Y-86965000D01*
X145578061Y-86965000D01*
X145378102Y-87004774D01*
X145189744Y-87082795D01*
X145020226Y-87196063D01*
X144876063Y-87340226D01*
X144762795Y-87509744D01*
X144684774Y-87698102D01*
X144645000Y-87898061D01*
X140988072Y-87898061D01*
X140988072Y-87400000D01*
X140975812Y-87275518D01*
X140939502Y-87155820D01*
X140880537Y-87045506D01*
X140801185Y-86948815D01*
X140704494Y-86869463D01*
X140594180Y-86810498D01*
X140474482Y-86774188D01*
X140350000Y-86761928D01*
X138650000Y-86761928D01*
X138525518Y-86774188D01*
X138405820Y-86810498D01*
X138295506Y-86869463D01*
X138198815Y-86948815D01*
X138119463Y-87045506D01*
X138060498Y-87155820D01*
X138024188Y-87275518D01*
X138011928Y-87400000D01*
X130525440Y-87400000D01*
X130535000Y-87351939D01*
X130535000Y-87148061D01*
X130495226Y-86948102D01*
X130417205Y-86759744D01*
X130303937Y-86590226D01*
X130159774Y-86446063D01*
X129990256Y-86332795D01*
X129801898Y-86254774D01*
X129601939Y-86215000D01*
X129398061Y-86215000D01*
X129198102Y-86254774D01*
X129009744Y-86332795D01*
X128840226Y-86446063D01*
X128696063Y-86590226D01*
X128582795Y-86759744D01*
X128504774Y-86948102D01*
X128500000Y-86972103D01*
X128495226Y-86948102D01*
X128417205Y-86759744D01*
X128303937Y-86590226D01*
X128159774Y-86446063D01*
X127990256Y-86332795D01*
X127801898Y-86254774D01*
X127601939Y-86215000D01*
X127398061Y-86215000D01*
X127198102Y-86254774D01*
X127009744Y-86332795D01*
X126840226Y-86446063D01*
X126696063Y-86590226D01*
X126582795Y-86759744D01*
X126504774Y-86948102D01*
X126470027Y-87122787D01*
X126445226Y-86998102D01*
X126367205Y-86809744D01*
X126253937Y-86640226D01*
X126109774Y-86496063D01*
X125940256Y-86382795D01*
X125751898Y-86304774D01*
X125551939Y-86265000D01*
X125348061Y-86265000D01*
X125148102Y-86304774D01*
X124959744Y-86382795D01*
X124790226Y-86496063D01*
X124646063Y-86640226D01*
X124532795Y-86809744D01*
X124454774Y-86998102D01*
X124415000Y-87198061D01*
X117627000Y-87198061D01*
X117627000Y-86004061D01*
X146285000Y-86004061D01*
X146285000Y-86207939D01*
X146324774Y-86407898D01*
X146402795Y-86596256D01*
X146516063Y-86765774D01*
X146660226Y-86909937D01*
X146829744Y-87023205D01*
X147018102Y-87101226D01*
X147218061Y-87141000D01*
X147421939Y-87141000D01*
X147621898Y-87101226D01*
X147810256Y-87023205D01*
X147979774Y-86909937D01*
X148123937Y-86765774D01*
X148237205Y-86596256D01*
X148315226Y-86407898D01*
X148339672Y-86285000D01*
X148351939Y-86285000D01*
X148551898Y-86245226D01*
X148740256Y-86167205D01*
X148909774Y-86053937D01*
X149053937Y-85909774D01*
X149167205Y-85740256D01*
X149245226Y-85551898D01*
X149275825Y-85398061D01*
X156465000Y-85398061D01*
X156465000Y-85601939D01*
X156504774Y-85801898D01*
X156582795Y-85990256D01*
X156696063Y-86159774D01*
X156840226Y-86303937D01*
X157009744Y-86417205D01*
X157198102Y-86495226D01*
X157398061Y-86535000D01*
X157601939Y-86535000D01*
X157801898Y-86495226D01*
X157990256Y-86417205D01*
X158159774Y-86303937D01*
X158303937Y-86159774D01*
X158417205Y-85990256D01*
X158495226Y-85801898D01*
X158535000Y-85601939D01*
X158535000Y-85398061D01*
X159715000Y-85398061D01*
X159715000Y-85601939D01*
X159754774Y-85801898D01*
X159832795Y-85990256D01*
X159946063Y-86159774D01*
X160090226Y-86303937D01*
X160259744Y-86417205D01*
X160448102Y-86495226D01*
X160648061Y-86535000D01*
X160851939Y-86535000D01*
X161051898Y-86495226D01*
X161240256Y-86417205D01*
X161409774Y-86303937D01*
X161553937Y-86159774D01*
X161667205Y-85990256D01*
X161745226Y-85801898D01*
X161785000Y-85601939D01*
X161785000Y-85398061D01*
X162965000Y-85398061D01*
X162965000Y-85601939D01*
X163004774Y-85801898D01*
X163082795Y-85990256D01*
X163196063Y-86159774D01*
X163340226Y-86303937D01*
X163509744Y-86417205D01*
X163698102Y-86495226D01*
X163898061Y-86535000D01*
X164101939Y-86535000D01*
X164301898Y-86495226D01*
X164490256Y-86417205D01*
X164659774Y-86303937D01*
X164803937Y-86159774D01*
X164917205Y-85990256D01*
X164995226Y-85801898D01*
X165035000Y-85601939D01*
X165035000Y-85398061D01*
X165965000Y-85398061D01*
X165965000Y-85601939D01*
X166004774Y-85801898D01*
X166082795Y-85990256D01*
X166196063Y-86159774D01*
X166340226Y-86303937D01*
X166509744Y-86417205D01*
X166698102Y-86495226D01*
X166898061Y-86535000D01*
X167101939Y-86535000D01*
X167301898Y-86495226D01*
X167490256Y-86417205D01*
X167659774Y-86303937D01*
X167803937Y-86159774D01*
X167917205Y-85990256D01*
X167995226Y-85801898D01*
X168035000Y-85601939D01*
X168035000Y-85398061D01*
X168965000Y-85398061D01*
X168965000Y-85601939D01*
X169004774Y-85801898D01*
X169082795Y-85990256D01*
X169196063Y-86159774D01*
X169340226Y-86303937D01*
X169509744Y-86417205D01*
X169698102Y-86495226D01*
X169898061Y-86535000D01*
X170101939Y-86535000D01*
X170301898Y-86495226D01*
X170490256Y-86417205D01*
X170659774Y-86303937D01*
X170803937Y-86159774D01*
X170917205Y-85990256D01*
X170995226Y-85801898D01*
X171035000Y-85601939D01*
X171035000Y-85398061D01*
X170995226Y-85198102D01*
X170917205Y-85009744D01*
X170803937Y-84840226D01*
X170659774Y-84696063D01*
X170490256Y-84582795D01*
X170301898Y-84504774D01*
X170101939Y-84465000D01*
X169898061Y-84465000D01*
X169698102Y-84504774D01*
X169509744Y-84582795D01*
X169340226Y-84696063D01*
X169196063Y-84840226D01*
X169082795Y-85009744D01*
X169004774Y-85198102D01*
X168965000Y-85398061D01*
X168035000Y-85398061D01*
X167995226Y-85198102D01*
X167917205Y-85009744D01*
X167803937Y-84840226D01*
X167659774Y-84696063D01*
X167490256Y-84582795D01*
X167301898Y-84504774D01*
X167101939Y-84465000D01*
X166898061Y-84465000D01*
X166698102Y-84504774D01*
X166509744Y-84582795D01*
X166340226Y-84696063D01*
X166196063Y-84840226D01*
X166082795Y-85009744D01*
X166004774Y-85198102D01*
X165965000Y-85398061D01*
X165035000Y-85398061D01*
X164995226Y-85198102D01*
X164917205Y-85009744D01*
X164803937Y-84840226D01*
X164659774Y-84696063D01*
X164490256Y-84582795D01*
X164301898Y-84504774D01*
X164101939Y-84465000D01*
X163898061Y-84465000D01*
X163698102Y-84504774D01*
X163509744Y-84582795D01*
X163340226Y-84696063D01*
X163196063Y-84840226D01*
X163082795Y-85009744D01*
X163004774Y-85198102D01*
X162965000Y-85398061D01*
X161785000Y-85398061D01*
X161745226Y-85198102D01*
X161667205Y-85009744D01*
X161553937Y-84840226D01*
X161409774Y-84696063D01*
X161240256Y-84582795D01*
X161051898Y-84504774D01*
X160851939Y-84465000D01*
X160648061Y-84465000D01*
X160448102Y-84504774D01*
X160259744Y-84582795D01*
X160090226Y-84696063D01*
X159946063Y-84840226D01*
X159832795Y-85009744D01*
X159754774Y-85198102D01*
X159715000Y-85398061D01*
X158535000Y-85398061D01*
X158495226Y-85198102D01*
X158417205Y-85009744D01*
X158303937Y-84840226D01*
X158159774Y-84696063D01*
X157990256Y-84582795D01*
X157801898Y-84504774D01*
X157601939Y-84465000D01*
X157398061Y-84465000D01*
X157198102Y-84504774D01*
X157009744Y-84582795D01*
X156840226Y-84696063D01*
X156696063Y-84840226D01*
X156582795Y-85009744D01*
X156504774Y-85198102D01*
X156465000Y-85398061D01*
X149275825Y-85398061D01*
X149285000Y-85351939D01*
X149285000Y-85148061D01*
X149245226Y-84948102D01*
X149167205Y-84759744D01*
X149053937Y-84590226D01*
X148909774Y-84446063D01*
X148740256Y-84332795D01*
X148551898Y-84254774D01*
X148351939Y-84215000D01*
X148148061Y-84215000D01*
X147948102Y-84254774D01*
X147759744Y-84332795D01*
X147590226Y-84446063D01*
X147446063Y-84590226D01*
X147332795Y-84759744D01*
X147254774Y-84948102D01*
X147230328Y-85071000D01*
X147218061Y-85071000D01*
X147018102Y-85110774D01*
X146829744Y-85188795D01*
X146660226Y-85302063D01*
X146516063Y-85446226D01*
X146402795Y-85615744D01*
X146324774Y-85804102D01*
X146285000Y-86004061D01*
X117627000Y-86004061D01*
X117627000Y-81218061D01*
X135905000Y-81218061D01*
X135905000Y-81421939D01*
X135944774Y-81621898D01*
X136022795Y-81810256D01*
X136136063Y-81979774D01*
X136280226Y-82123937D01*
X136449744Y-82237205D01*
X136623386Y-82309130D01*
X136542795Y-82429744D01*
X136464774Y-82618102D01*
X136425000Y-82818061D01*
X136425000Y-83021939D01*
X136464774Y-83221898D01*
X136542795Y-83410256D01*
X136656063Y-83579774D01*
X136800226Y-83723937D01*
X136969744Y-83837205D01*
X137158102Y-83915226D01*
X137358061Y-83955000D01*
X137561939Y-83955000D01*
X137761898Y-83915226D01*
X137950256Y-83837205D01*
X138119774Y-83723937D01*
X138195650Y-83648061D01*
X153015000Y-83648061D01*
X153015000Y-83851939D01*
X153054774Y-84051898D01*
X153132795Y-84240256D01*
X153246063Y-84409774D01*
X153390226Y-84553937D01*
X153559744Y-84667205D01*
X153748102Y-84745226D01*
X153948061Y-84785000D01*
X154151939Y-84785000D01*
X154351898Y-84745226D01*
X154540256Y-84667205D01*
X154709774Y-84553937D01*
X154853937Y-84409774D01*
X154967205Y-84240256D01*
X155045226Y-84051898D01*
X155085000Y-83851939D01*
X155085000Y-83648061D01*
X155045226Y-83448102D01*
X154967205Y-83259744D01*
X154892582Y-83148061D01*
X156465000Y-83148061D01*
X156465000Y-83351939D01*
X156504774Y-83551898D01*
X156582795Y-83740256D01*
X156696063Y-83909774D01*
X156840226Y-84053937D01*
X157009744Y-84167205D01*
X157198102Y-84245226D01*
X157398061Y-84285000D01*
X157601939Y-84285000D01*
X157801898Y-84245226D01*
X157990256Y-84167205D01*
X158159774Y-84053937D01*
X158303937Y-83909774D01*
X158417205Y-83740256D01*
X158495226Y-83551898D01*
X158535000Y-83351939D01*
X158535000Y-83148061D01*
X158495226Y-82948102D01*
X158417205Y-82759744D01*
X158342582Y-82648061D01*
X168965000Y-82648061D01*
X168965000Y-82851939D01*
X169004774Y-83051898D01*
X169082795Y-83240256D01*
X169196063Y-83409774D01*
X169340226Y-83553937D01*
X169509744Y-83667205D01*
X169698102Y-83745226D01*
X169898061Y-83785000D01*
X170101939Y-83785000D01*
X170301898Y-83745226D01*
X170490256Y-83667205D01*
X170659774Y-83553937D01*
X170803937Y-83409774D01*
X170917205Y-83240256D01*
X170995226Y-83051898D01*
X171035000Y-82851939D01*
X171035000Y-82648061D01*
X170995226Y-82448102D01*
X170917205Y-82259744D01*
X170803937Y-82090226D01*
X170659774Y-81946063D01*
X170490256Y-81832795D01*
X170301898Y-81754774D01*
X170101939Y-81715000D01*
X169898061Y-81715000D01*
X169698102Y-81754774D01*
X169509744Y-81832795D01*
X169340226Y-81946063D01*
X169196063Y-82090226D01*
X169082795Y-82259744D01*
X169004774Y-82448102D01*
X168965000Y-82648061D01*
X158342582Y-82648061D01*
X158303937Y-82590226D01*
X158159774Y-82446063D01*
X158127742Y-82424660D01*
X158298102Y-82495226D01*
X158498061Y-82535000D01*
X158701939Y-82535000D01*
X158901898Y-82495226D01*
X159090256Y-82417205D01*
X159259774Y-82303937D01*
X159403937Y-82159774D01*
X159517205Y-81990256D01*
X159595226Y-81801898D01*
X159635000Y-81601939D01*
X159635000Y-81398061D01*
X159595226Y-81198102D01*
X159517205Y-81009744D01*
X159403937Y-80840226D01*
X159259774Y-80696063D01*
X159090256Y-80582795D01*
X158901898Y-80504774D01*
X158701939Y-80465000D01*
X158498061Y-80465000D01*
X158298102Y-80504774D01*
X158109744Y-80582795D01*
X157940226Y-80696063D01*
X157796063Y-80840226D01*
X157682795Y-81009744D01*
X157604774Y-81198102D01*
X157565000Y-81398061D01*
X157565000Y-81601939D01*
X157604774Y-81801898D01*
X157682795Y-81990256D01*
X157796063Y-82159774D01*
X157940226Y-82303937D01*
X157972258Y-82325340D01*
X157801898Y-82254774D01*
X157601939Y-82215000D01*
X157398061Y-82215000D01*
X157198102Y-82254774D01*
X157009744Y-82332795D01*
X156840226Y-82446063D01*
X156696063Y-82590226D01*
X156582795Y-82759744D01*
X156504774Y-82948102D01*
X156465000Y-83148061D01*
X154892582Y-83148061D01*
X154853937Y-83090226D01*
X154709774Y-82946063D01*
X154540256Y-82832795D01*
X154351898Y-82754774D01*
X154151939Y-82715000D01*
X153948061Y-82715000D01*
X153748102Y-82754774D01*
X153559744Y-82832795D01*
X153390226Y-82946063D01*
X153246063Y-83090226D01*
X153132795Y-83259744D01*
X153054774Y-83448102D01*
X153015000Y-83648061D01*
X138195650Y-83648061D01*
X138263937Y-83579774D01*
X138377205Y-83410256D01*
X138455226Y-83221898D01*
X138495000Y-83021939D01*
X138495000Y-82818061D01*
X138455226Y-82618102D01*
X138377205Y-82429744D01*
X138263937Y-82260226D01*
X138119774Y-82116063D01*
X137950256Y-82002795D01*
X137776614Y-81930870D01*
X137857205Y-81810256D01*
X137935226Y-81621898D01*
X137975000Y-81421939D01*
X137975000Y-81218061D01*
X137935226Y-81018102D01*
X137857205Y-80829744D01*
X137743937Y-80660226D01*
X137599774Y-80516063D01*
X137430256Y-80402795D01*
X137241898Y-80324774D01*
X137041939Y-80285000D01*
X136838061Y-80285000D01*
X136638102Y-80324774D01*
X136449744Y-80402795D01*
X136280226Y-80516063D01*
X136136063Y-80660226D01*
X136022795Y-80829744D01*
X135944774Y-81018102D01*
X135905000Y-81218061D01*
X117627000Y-81218061D01*
X117627000Y-78508521D01*
X140897660Y-78508521D01*
X140897660Y-78712399D01*
X140937434Y-78912358D01*
X141015455Y-79100716D01*
X141128723Y-79270234D01*
X141272886Y-79414397D01*
X141442404Y-79527665D01*
X141630762Y-79605686D01*
X141830721Y-79645460D01*
X142034599Y-79645460D01*
X142234558Y-79605686D01*
X142422916Y-79527665D01*
X142592434Y-79414397D01*
X142736597Y-79270234D01*
X142849865Y-79100716D01*
X142927886Y-78912358D01*
X142950620Y-78798061D01*
X153115000Y-78798061D01*
X153115000Y-79001939D01*
X153154774Y-79201898D01*
X153232795Y-79390256D01*
X153346063Y-79559774D01*
X153490226Y-79703937D01*
X153659744Y-79817205D01*
X153848102Y-79895226D01*
X154048061Y-79935000D01*
X154251939Y-79935000D01*
X154437645Y-79898061D01*
X162965000Y-79898061D01*
X162965000Y-80101939D01*
X163004774Y-80301898D01*
X163082795Y-80490256D01*
X163196063Y-80659774D01*
X163340226Y-80803937D01*
X163509744Y-80917205D01*
X163698102Y-80995226D01*
X163898061Y-81035000D01*
X164101939Y-81035000D01*
X164301898Y-80995226D01*
X164490256Y-80917205D01*
X164659774Y-80803937D01*
X164803937Y-80659774D01*
X164917205Y-80490256D01*
X164995226Y-80301898D01*
X165035000Y-80101939D01*
X165035000Y-79898061D01*
X165965000Y-79898061D01*
X165965000Y-80101939D01*
X166004774Y-80301898D01*
X166082795Y-80490256D01*
X166196063Y-80659774D01*
X166340226Y-80803937D01*
X166509744Y-80917205D01*
X166698102Y-80995226D01*
X166898061Y-81035000D01*
X167101939Y-81035000D01*
X167301898Y-80995226D01*
X167490256Y-80917205D01*
X167659774Y-80803937D01*
X167803937Y-80659774D01*
X167917205Y-80490256D01*
X167995226Y-80301898D01*
X168035000Y-80101939D01*
X168035000Y-79898061D01*
X168965000Y-79898061D01*
X168965000Y-80101939D01*
X169004774Y-80301898D01*
X169082795Y-80490256D01*
X169196063Y-80659774D01*
X169340226Y-80803937D01*
X169509744Y-80917205D01*
X169698102Y-80995226D01*
X169898061Y-81035000D01*
X170101939Y-81035000D01*
X170301898Y-80995226D01*
X170490256Y-80917205D01*
X170659774Y-80803937D01*
X170803937Y-80659774D01*
X170917205Y-80490256D01*
X170995226Y-80301898D01*
X171035000Y-80101939D01*
X171035000Y-79898061D01*
X170995226Y-79698102D01*
X170917205Y-79509744D01*
X170803937Y-79340226D01*
X170659774Y-79196063D01*
X170490256Y-79082795D01*
X170301898Y-79004774D01*
X170101939Y-78965000D01*
X169898061Y-78965000D01*
X169698102Y-79004774D01*
X169509744Y-79082795D01*
X169340226Y-79196063D01*
X169196063Y-79340226D01*
X169082795Y-79509744D01*
X169004774Y-79698102D01*
X168965000Y-79898061D01*
X168035000Y-79898061D01*
X167995226Y-79698102D01*
X167917205Y-79509744D01*
X167803937Y-79340226D01*
X167659774Y-79196063D01*
X167490256Y-79082795D01*
X167301898Y-79004774D01*
X167101939Y-78965000D01*
X166898061Y-78965000D01*
X166698102Y-79004774D01*
X166509744Y-79082795D01*
X166340226Y-79196063D01*
X166196063Y-79340226D01*
X166082795Y-79509744D01*
X166004774Y-79698102D01*
X165965000Y-79898061D01*
X165035000Y-79898061D01*
X164995226Y-79698102D01*
X164917205Y-79509744D01*
X164803937Y-79340226D01*
X164659774Y-79196063D01*
X164490256Y-79082795D01*
X164301898Y-79004774D01*
X164101939Y-78965000D01*
X163898061Y-78965000D01*
X163698102Y-79004774D01*
X163509744Y-79082795D01*
X163340226Y-79196063D01*
X163196063Y-79340226D01*
X163082795Y-79509744D01*
X163004774Y-79698102D01*
X162965000Y-79898061D01*
X154437645Y-79898061D01*
X154451898Y-79895226D01*
X154640256Y-79817205D01*
X154809774Y-79703937D01*
X154953937Y-79559774D01*
X155067205Y-79390256D01*
X155145226Y-79201898D01*
X155185000Y-79001939D01*
X155185000Y-78798061D01*
X155145226Y-78598102D01*
X155067205Y-78409744D01*
X154953937Y-78240226D01*
X154861772Y-78148061D01*
X161715000Y-78148061D01*
X161715000Y-78351939D01*
X161754774Y-78551898D01*
X161832795Y-78740256D01*
X161946063Y-78909774D01*
X162090226Y-79053937D01*
X162259744Y-79167205D01*
X162448102Y-79245226D01*
X162648061Y-79285000D01*
X162851939Y-79285000D01*
X163051898Y-79245226D01*
X163240256Y-79167205D01*
X163409774Y-79053937D01*
X163553937Y-78909774D01*
X163667205Y-78740256D01*
X163745226Y-78551898D01*
X163785000Y-78351939D01*
X163785000Y-78148061D01*
X163745226Y-77948102D01*
X163667205Y-77759744D01*
X163553937Y-77590226D01*
X163409774Y-77446063D01*
X163240256Y-77332795D01*
X163051898Y-77254774D01*
X162851939Y-77215000D01*
X162648061Y-77215000D01*
X162448102Y-77254774D01*
X162259744Y-77332795D01*
X162090226Y-77446063D01*
X161946063Y-77590226D01*
X161832795Y-77759744D01*
X161754774Y-77948102D01*
X161715000Y-78148061D01*
X154861772Y-78148061D01*
X154809774Y-78096063D01*
X154640256Y-77982795D01*
X154451898Y-77904774D01*
X154251939Y-77865000D01*
X154048061Y-77865000D01*
X153848102Y-77904774D01*
X153659744Y-77982795D01*
X153490226Y-78096063D01*
X153346063Y-78240226D01*
X153232795Y-78409744D01*
X153154774Y-78598102D01*
X153115000Y-78798061D01*
X142950620Y-78798061D01*
X142967660Y-78712399D01*
X142967660Y-78508521D01*
X142927886Y-78308562D01*
X142849865Y-78120204D01*
X142736597Y-77950686D01*
X142592434Y-77806523D01*
X142422916Y-77693255D01*
X142234558Y-77615234D01*
X142034599Y-77575460D01*
X141830721Y-77575460D01*
X141630762Y-77615234D01*
X141442404Y-77693255D01*
X141272886Y-77806523D01*
X141128723Y-77950686D01*
X141015455Y-78120204D01*
X140937434Y-78308562D01*
X140897660Y-78508521D01*
X117627000Y-78508521D01*
X117627000Y-76898061D01*
X156642040Y-76898061D01*
X156642040Y-77101939D01*
X156681814Y-77301898D01*
X156759835Y-77490256D01*
X156873103Y-77659774D01*
X157017266Y-77803937D01*
X157186784Y-77917205D01*
X157375142Y-77995226D01*
X157575101Y-78035000D01*
X157778979Y-78035000D01*
X157978938Y-77995226D01*
X158167296Y-77917205D01*
X158336814Y-77803937D01*
X158480977Y-77659774D01*
X158594245Y-77490256D01*
X158672266Y-77301898D01*
X158712040Y-77101939D01*
X158712040Y-76898061D01*
X158672266Y-76698102D01*
X158594245Y-76509744D01*
X158480977Y-76340226D01*
X158336814Y-76196063D01*
X158167296Y-76082795D01*
X157978938Y-76004774D01*
X157778979Y-75965000D01*
X157575101Y-75965000D01*
X157375142Y-76004774D01*
X157186784Y-76082795D01*
X157017266Y-76196063D01*
X156873103Y-76340226D01*
X156759835Y-76509744D01*
X156681814Y-76698102D01*
X156642040Y-76898061D01*
X117627000Y-76898061D01*
X117627000Y-73535561D01*
X132827500Y-73535561D01*
X132827500Y-73739439D01*
X132867274Y-73939398D01*
X132945295Y-74127756D01*
X133058563Y-74297274D01*
X133202726Y-74441437D01*
X133372244Y-74554705D01*
X133560602Y-74632726D01*
X133760561Y-74672500D01*
X133964439Y-74672500D01*
X134087303Y-74648061D01*
X139215000Y-74648061D01*
X139215000Y-74851939D01*
X139254774Y-75051898D01*
X139332795Y-75240256D01*
X139446063Y-75409774D01*
X139590226Y-75553937D01*
X139759744Y-75667205D01*
X139948102Y-75745226D01*
X140148061Y-75785000D01*
X140351939Y-75785000D01*
X140551898Y-75745226D01*
X140740256Y-75667205D01*
X140909774Y-75553937D01*
X141053937Y-75409774D01*
X141167205Y-75240256D01*
X141233666Y-75079807D01*
X141241744Y-75085205D01*
X141430102Y-75163226D01*
X141630061Y-75203000D01*
X141833939Y-75203000D01*
X142033898Y-75163226D01*
X142222256Y-75085205D01*
X142391774Y-74971937D01*
X142535937Y-74827774D01*
X142649205Y-74658256D01*
X142727226Y-74469898D01*
X142767000Y-74269939D01*
X142767000Y-74066061D01*
X142727226Y-73866102D01*
X142649205Y-73677744D01*
X142535937Y-73508226D01*
X142391774Y-73364063D01*
X142222256Y-73250795D01*
X142033898Y-73172774D01*
X141833939Y-73133000D01*
X141630061Y-73133000D01*
X141430102Y-73172774D01*
X141241744Y-73250795D01*
X141072226Y-73364063D01*
X140928063Y-73508226D01*
X140814795Y-73677744D01*
X140748334Y-73838193D01*
X140740256Y-73832795D01*
X140551898Y-73754774D01*
X140351939Y-73715000D01*
X140148061Y-73715000D01*
X139948102Y-73754774D01*
X139759744Y-73832795D01*
X139590226Y-73946063D01*
X139446063Y-74090226D01*
X139332795Y-74259744D01*
X139254774Y-74448102D01*
X139215000Y-74648061D01*
X134087303Y-74648061D01*
X134164398Y-74632726D01*
X134352756Y-74554705D01*
X134522274Y-74441437D01*
X134666437Y-74297274D01*
X134779705Y-74127756D01*
X134857726Y-73939398D01*
X134897500Y-73739439D01*
X134897500Y-73535561D01*
X134857726Y-73335602D01*
X134779705Y-73147244D01*
X134666437Y-72977726D01*
X134522274Y-72833563D01*
X134352756Y-72720295D01*
X134164398Y-72642274D01*
X133964439Y-72602500D01*
X133760561Y-72602500D01*
X133560602Y-72642274D01*
X133372244Y-72720295D01*
X133202726Y-72833563D01*
X133058563Y-72977726D01*
X132945295Y-73147244D01*
X132867274Y-73335602D01*
X132827500Y-73535561D01*
X117627000Y-73535561D01*
X117627000Y-66150000D01*
X121011928Y-66150000D01*
X121011928Y-67850000D01*
X121024188Y-67974482D01*
X121060498Y-68094180D01*
X121119463Y-68204494D01*
X121198815Y-68301185D01*
X121295506Y-68380537D01*
X121405820Y-68439502D01*
X121478380Y-68461513D01*
X121346525Y-68593368D01*
X121184010Y-68836589D01*
X121072068Y-69106842D01*
X121015000Y-69393740D01*
X121015000Y-69686260D01*
X121072068Y-69973158D01*
X121184010Y-70243411D01*
X121346525Y-70486632D01*
X121553368Y-70693475D01*
X121796589Y-70855990D01*
X122066842Y-70967932D01*
X122353740Y-71025000D01*
X122646260Y-71025000D01*
X122933158Y-70967932D01*
X123203411Y-70855990D01*
X123446632Y-70693475D01*
X123653475Y-70486632D01*
X123770000Y-70312240D01*
X123886525Y-70486632D01*
X124093368Y-70693475D01*
X124336589Y-70855990D01*
X124606842Y-70967932D01*
X124893740Y-71025000D01*
X125186260Y-71025000D01*
X125473158Y-70967932D01*
X125743411Y-70855990D01*
X125986632Y-70693475D01*
X126193475Y-70486632D01*
X126310000Y-70312240D01*
X126426525Y-70486632D01*
X126633368Y-70693475D01*
X126876589Y-70855990D01*
X127146842Y-70967932D01*
X127433740Y-71025000D01*
X127726260Y-71025000D01*
X128013158Y-70967932D01*
X128283411Y-70855990D01*
X128526632Y-70693475D01*
X128733475Y-70486632D01*
X128850000Y-70312240D01*
X128966525Y-70486632D01*
X129173368Y-70693475D01*
X129416589Y-70855990D01*
X129686842Y-70967932D01*
X129973740Y-71025000D01*
X130266260Y-71025000D01*
X130553158Y-70967932D01*
X130823411Y-70855990D01*
X131066632Y-70693475D01*
X131273475Y-70486632D01*
X131390000Y-70312240D01*
X131506525Y-70486632D01*
X131713368Y-70693475D01*
X131956589Y-70855990D01*
X132226842Y-70967932D01*
X132513740Y-71025000D01*
X132806260Y-71025000D01*
X133093158Y-70967932D01*
X133363411Y-70855990D01*
X133606632Y-70693475D01*
X133813475Y-70486632D01*
X133975990Y-70243411D01*
X134087932Y-69973158D01*
X134145000Y-69686260D01*
X134145000Y-69393740D01*
X134087932Y-69106842D01*
X133975990Y-68836589D01*
X133813475Y-68593368D01*
X133606632Y-68386525D01*
X133430594Y-68268900D01*
X133660269Y-68097588D01*
X133855178Y-67881355D01*
X134004157Y-67631252D01*
X134101481Y-67356891D01*
X133980814Y-67127000D01*
X132787000Y-67127000D01*
X132787000Y-67147000D01*
X132533000Y-67147000D01*
X132533000Y-67127000D01*
X132513000Y-67127000D01*
X132513000Y-66873000D01*
X132533000Y-66873000D01*
X132533000Y-65679845D01*
X132787000Y-65679845D01*
X132787000Y-66873000D01*
X133980814Y-66873000D01*
X134101481Y-66643109D01*
X134004157Y-66368748D01*
X133855178Y-66118645D01*
X133660269Y-65902412D01*
X133426920Y-65728359D01*
X133262408Y-65650000D01*
X137511928Y-65650000D01*
X137511928Y-67350000D01*
X137524188Y-67474482D01*
X137560498Y-67594180D01*
X137619463Y-67704494D01*
X137698815Y-67801185D01*
X137795506Y-67880537D01*
X137905820Y-67939502D01*
X137978380Y-67961513D01*
X137846525Y-68093368D01*
X137684010Y-68336589D01*
X137572068Y-68606842D01*
X137515000Y-68893740D01*
X137515000Y-69186260D01*
X137572068Y-69473158D01*
X137684010Y-69743411D01*
X137846525Y-69986632D01*
X138053368Y-70193475D01*
X138227760Y-70310000D01*
X138053368Y-70426525D01*
X137846525Y-70633368D01*
X137684010Y-70876589D01*
X137572068Y-71146842D01*
X137515000Y-71433740D01*
X137515000Y-71726260D01*
X137572068Y-72013158D01*
X137684010Y-72283411D01*
X137846525Y-72526632D01*
X138053368Y-72733475D01*
X138296589Y-72895990D01*
X138566842Y-73007932D01*
X138853740Y-73065000D01*
X139146260Y-73065000D01*
X139433158Y-73007932D01*
X139703411Y-72895990D01*
X139946632Y-72733475D01*
X140153475Y-72526632D01*
X140315990Y-72283411D01*
X140427932Y-72013158D01*
X140485000Y-71726260D01*
X140485000Y-71433740D01*
X140427932Y-71146842D01*
X140315990Y-70876589D01*
X140153475Y-70633368D01*
X139946632Y-70426525D01*
X139772240Y-70310000D01*
X139946632Y-70193475D01*
X140153475Y-69986632D01*
X140315990Y-69743411D01*
X140427932Y-69473158D01*
X140485000Y-69186260D01*
X140485000Y-68893740D01*
X140427932Y-68606842D01*
X140315990Y-68336589D01*
X140153475Y-68093368D01*
X140021620Y-67961513D01*
X140094180Y-67939502D01*
X140204494Y-67880537D01*
X140301185Y-67801185D01*
X140380537Y-67704494D01*
X140439502Y-67594180D01*
X140475812Y-67474482D01*
X140488072Y-67350000D01*
X140488072Y-65650000D01*
X141511928Y-65650000D01*
X141511928Y-67350000D01*
X141524188Y-67474482D01*
X141560498Y-67594180D01*
X141619463Y-67704494D01*
X141698815Y-67801185D01*
X141795506Y-67880537D01*
X141905820Y-67939502D01*
X141978380Y-67961513D01*
X141846525Y-68093368D01*
X141684010Y-68336589D01*
X141572068Y-68606842D01*
X141515000Y-68893740D01*
X141515000Y-69186260D01*
X141572068Y-69473158D01*
X141684010Y-69743411D01*
X141846525Y-69986632D01*
X142053368Y-70193475D01*
X142227760Y-70310000D01*
X142053368Y-70426525D01*
X141846525Y-70633368D01*
X141684010Y-70876589D01*
X141572068Y-71146842D01*
X141515000Y-71433740D01*
X141515000Y-71726260D01*
X141572068Y-72013158D01*
X141684010Y-72283411D01*
X141846525Y-72526632D01*
X142053368Y-72733475D01*
X142296589Y-72895990D01*
X142566842Y-73007932D01*
X142853740Y-73065000D01*
X143146260Y-73065000D01*
X143433158Y-73007932D01*
X143703411Y-72895990D01*
X143946632Y-72733475D01*
X144153475Y-72526632D01*
X144315990Y-72283411D01*
X144427932Y-72013158D01*
X144443102Y-71936890D01*
X145558524Y-71936890D01*
X145603175Y-72084099D01*
X145728359Y-72346920D01*
X145902412Y-72580269D01*
X146118645Y-72775178D01*
X146368748Y-72924157D01*
X146643109Y-73021481D01*
X146873000Y-72900814D01*
X146873000Y-71707000D01*
X147127000Y-71707000D01*
X147127000Y-72900814D01*
X147356891Y-73021481D01*
X147631252Y-72924157D01*
X147881355Y-72775178D01*
X148097588Y-72580269D01*
X148271641Y-72346920D01*
X148396825Y-72084099D01*
X148441476Y-71936890D01*
X151058524Y-71936890D01*
X151103175Y-72084099D01*
X151228359Y-72346920D01*
X151402412Y-72580269D01*
X151618645Y-72775178D01*
X151868748Y-72924157D01*
X152143109Y-73021481D01*
X152373000Y-72900814D01*
X152373000Y-71707000D01*
X152627000Y-71707000D01*
X152627000Y-72900814D01*
X152856891Y-73021481D01*
X153131252Y-72924157D01*
X153381355Y-72775178D01*
X153597588Y-72580269D01*
X153771641Y-72346920D01*
X153896825Y-72084099D01*
X153941476Y-71936890D01*
X153820155Y-71707000D01*
X152627000Y-71707000D01*
X152373000Y-71707000D01*
X151179845Y-71707000D01*
X151058524Y-71936890D01*
X148441476Y-71936890D01*
X148320155Y-71707000D01*
X147127000Y-71707000D01*
X146873000Y-71707000D01*
X145679845Y-71707000D01*
X145558524Y-71936890D01*
X144443102Y-71936890D01*
X144485000Y-71726260D01*
X144485000Y-71433740D01*
X144427932Y-71146842D01*
X144315990Y-70876589D01*
X144153475Y-70633368D01*
X143946632Y-70426525D01*
X143772240Y-70310000D01*
X143946632Y-70193475D01*
X144153475Y-69986632D01*
X144315990Y-69743411D01*
X144427932Y-69473158D01*
X144485000Y-69186260D01*
X144485000Y-68893740D01*
X144427932Y-68606842D01*
X144315990Y-68336589D01*
X144153475Y-68093368D01*
X144021620Y-67961513D01*
X144094180Y-67939502D01*
X144204494Y-67880537D01*
X144301185Y-67801185D01*
X144380537Y-67704494D01*
X144439502Y-67594180D01*
X144475812Y-67474482D01*
X144488072Y-67350000D01*
X144488072Y-65650000D01*
X145511928Y-65650000D01*
X145511928Y-67350000D01*
X145524188Y-67474482D01*
X145560498Y-67594180D01*
X145619463Y-67704494D01*
X145698815Y-67801185D01*
X145795506Y-67880537D01*
X145905820Y-67939502D01*
X145978380Y-67961513D01*
X145846525Y-68093368D01*
X145684010Y-68336589D01*
X145572068Y-68606842D01*
X145515000Y-68893740D01*
X145515000Y-69186260D01*
X145572068Y-69473158D01*
X145684010Y-69743411D01*
X145846525Y-69986632D01*
X146053368Y-70193475D01*
X146235534Y-70315195D01*
X146118645Y-70384822D01*
X145902412Y-70579731D01*
X145728359Y-70813080D01*
X145603175Y-71075901D01*
X145558524Y-71223110D01*
X145679845Y-71453000D01*
X146873000Y-71453000D01*
X146873000Y-71433000D01*
X147127000Y-71433000D01*
X147127000Y-71453000D01*
X148320155Y-71453000D01*
X148441476Y-71223110D01*
X148396825Y-71075901D01*
X148271641Y-70813080D01*
X148097588Y-70579731D01*
X147881355Y-70384822D01*
X147764466Y-70315195D01*
X147946632Y-70193475D01*
X148153475Y-69986632D01*
X148315990Y-69743411D01*
X148427932Y-69473158D01*
X148485000Y-69186260D01*
X148485000Y-68893740D01*
X148427932Y-68606842D01*
X148315990Y-68336589D01*
X148153475Y-68093368D01*
X148021620Y-67961513D01*
X148094180Y-67939502D01*
X148204494Y-67880537D01*
X148301185Y-67801185D01*
X148380537Y-67704494D01*
X148439502Y-67594180D01*
X148475812Y-67474482D01*
X148488072Y-67350000D01*
X148488072Y-65650000D01*
X151011928Y-65650000D01*
X151011928Y-67350000D01*
X151024188Y-67474482D01*
X151060498Y-67594180D01*
X151119463Y-67704494D01*
X151198815Y-67801185D01*
X151295506Y-67880537D01*
X151405820Y-67939502D01*
X151478380Y-67961513D01*
X151346525Y-68093368D01*
X151184010Y-68336589D01*
X151072068Y-68606842D01*
X151015000Y-68893740D01*
X151015000Y-69186260D01*
X151072068Y-69473158D01*
X151184010Y-69743411D01*
X151346525Y-69986632D01*
X151553368Y-70193475D01*
X151735534Y-70315195D01*
X151618645Y-70384822D01*
X151402412Y-70579731D01*
X151228359Y-70813080D01*
X151103175Y-71075901D01*
X151058524Y-71223110D01*
X151179845Y-71453000D01*
X152373000Y-71453000D01*
X152373000Y-71433000D01*
X152627000Y-71433000D01*
X152627000Y-71453000D01*
X153820155Y-71453000D01*
X153941476Y-71223110D01*
X153896825Y-71075901D01*
X153771641Y-70813080D01*
X153597588Y-70579731D01*
X153381355Y-70384822D01*
X153264466Y-70315195D01*
X153446632Y-70193475D01*
X153653475Y-69986632D01*
X153815990Y-69743411D01*
X153927932Y-69473158D01*
X153985000Y-69186260D01*
X153985000Y-68893740D01*
X153927932Y-68606842D01*
X153815990Y-68336589D01*
X153653475Y-68093368D01*
X153521620Y-67961513D01*
X153594180Y-67939502D01*
X153704494Y-67880537D01*
X153801185Y-67801185D01*
X153880537Y-67704494D01*
X153936805Y-67599224D01*
X157080381Y-67599224D01*
X157212317Y-67894312D01*
X157553045Y-68065159D01*
X157920557Y-68166250D01*
X158300729Y-68193701D01*
X158678951Y-68146457D01*
X159040690Y-68026333D01*
X159287683Y-67894312D01*
X159419619Y-67599224D01*
X158250000Y-66429605D01*
X157080381Y-67599224D01*
X153936805Y-67599224D01*
X153939502Y-67594180D01*
X153975812Y-67474482D01*
X153988072Y-67350000D01*
X153988072Y-66300729D01*
X156306299Y-66300729D01*
X156353543Y-66678951D01*
X156473667Y-67040690D01*
X156605688Y-67287683D01*
X156900776Y-67419619D01*
X158070395Y-66250000D01*
X158429605Y-66250000D01*
X159599224Y-67419619D01*
X159894312Y-67287683D01*
X160065159Y-66946955D01*
X160166250Y-66579443D01*
X160193701Y-66199271D01*
X160146457Y-65821049D01*
X160026333Y-65459310D01*
X159894312Y-65212317D01*
X159599224Y-65080381D01*
X158429605Y-66250000D01*
X158070395Y-66250000D01*
X156900776Y-65080381D01*
X156605688Y-65212317D01*
X156434841Y-65553045D01*
X156333750Y-65920557D01*
X156306299Y-66300729D01*
X153988072Y-66300729D01*
X153988072Y-65650000D01*
X153975812Y-65525518D01*
X153939502Y-65405820D01*
X153880537Y-65295506D01*
X153801185Y-65198815D01*
X153704494Y-65119463D01*
X153594180Y-65060498D01*
X153474482Y-65024188D01*
X153350000Y-65011928D01*
X151650000Y-65011928D01*
X151525518Y-65024188D01*
X151405820Y-65060498D01*
X151295506Y-65119463D01*
X151198815Y-65198815D01*
X151119463Y-65295506D01*
X151060498Y-65405820D01*
X151024188Y-65525518D01*
X151011928Y-65650000D01*
X148488072Y-65650000D01*
X148475812Y-65525518D01*
X148439502Y-65405820D01*
X148380537Y-65295506D01*
X148301185Y-65198815D01*
X148204494Y-65119463D01*
X148094180Y-65060498D01*
X147974482Y-65024188D01*
X147850000Y-65011928D01*
X146150000Y-65011928D01*
X146025518Y-65024188D01*
X145905820Y-65060498D01*
X145795506Y-65119463D01*
X145698815Y-65198815D01*
X145619463Y-65295506D01*
X145560498Y-65405820D01*
X145524188Y-65525518D01*
X145511928Y-65650000D01*
X144488072Y-65650000D01*
X144475812Y-65525518D01*
X144439502Y-65405820D01*
X144380537Y-65295506D01*
X144301185Y-65198815D01*
X144204494Y-65119463D01*
X144094180Y-65060498D01*
X143974482Y-65024188D01*
X143850000Y-65011928D01*
X142150000Y-65011928D01*
X142025518Y-65024188D01*
X141905820Y-65060498D01*
X141795506Y-65119463D01*
X141698815Y-65198815D01*
X141619463Y-65295506D01*
X141560498Y-65405820D01*
X141524188Y-65525518D01*
X141511928Y-65650000D01*
X140488072Y-65650000D01*
X140475812Y-65525518D01*
X140439502Y-65405820D01*
X140380537Y-65295506D01*
X140301185Y-65198815D01*
X140204494Y-65119463D01*
X140094180Y-65060498D01*
X139974482Y-65024188D01*
X139850000Y-65011928D01*
X138150000Y-65011928D01*
X138025518Y-65024188D01*
X137905820Y-65060498D01*
X137795506Y-65119463D01*
X137698815Y-65198815D01*
X137619463Y-65295506D01*
X137560498Y-65405820D01*
X137524188Y-65525518D01*
X137511928Y-65650000D01*
X133262408Y-65650000D01*
X133164099Y-65603175D01*
X133016890Y-65558524D01*
X132787000Y-65679845D01*
X132533000Y-65679845D01*
X132303110Y-65558524D01*
X132155901Y-65603175D01*
X131893080Y-65728359D01*
X131659731Y-65902412D01*
X131464822Y-66118645D01*
X131395195Y-66235534D01*
X131273475Y-66053368D01*
X131066632Y-65846525D01*
X130823411Y-65684010D01*
X130553158Y-65572068D01*
X130266260Y-65515000D01*
X129973740Y-65515000D01*
X129686842Y-65572068D01*
X129416589Y-65684010D01*
X129173368Y-65846525D01*
X128966525Y-66053368D01*
X128844805Y-66235534D01*
X128775178Y-66118645D01*
X128580269Y-65902412D01*
X128346920Y-65728359D01*
X128084099Y-65603175D01*
X127936890Y-65558524D01*
X127707000Y-65679845D01*
X127707000Y-66873000D01*
X127727000Y-66873000D01*
X127727000Y-67127000D01*
X127707000Y-67127000D01*
X127707000Y-67147000D01*
X127453000Y-67147000D01*
X127453000Y-67127000D01*
X125167000Y-67127000D01*
X125167000Y-67147000D01*
X124913000Y-67147000D01*
X124913000Y-67127000D01*
X124893000Y-67127000D01*
X124893000Y-66873000D01*
X124913000Y-66873000D01*
X124913000Y-65679845D01*
X125167000Y-65679845D01*
X125167000Y-66873000D01*
X127453000Y-66873000D01*
X127453000Y-65679845D01*
X127223110Y-65558524D01*
X127075901Y-65603175D01*
X126813080Y-65728359D01*
X126579731Y-65902412D01*
X126384822Y-66118645D01*
X126310000Y-66244255D01*
X126235178Y-66118645D01*
X126040269Y-65902412D01*
X125806920Y-65728359D01*
X125544099Y-65603175D01*
X125396890Y-65558524D01*
X125167000Y-65679845D01*
X124913000Y-65679845D01*
X124683110Y-65558524D01*
X124535901Y-65603175D01*
X124273080Y-65728359D01*
X124039731Y-65902412D01*
X123963966Y-65986466D01*
X123939502Y-65905820D01*
X123880537Y-65795506D01*
X123801185Y-65698815D01*
X123704494Y-65619463D01*
X123594180Y-65560498D01*
X123474482Y-65524188D01*
X123350000Y-65511928D01*
X121650000Y-65511928D01*
X121525518Y-65524188D01*
X121405820Y-65560498D01*
X121295506Y-65619463D01*
X121198815Y-65698815D01*
X121119463Y-65795506D01*
X121060498Y-65905820D01*
X121024188Y-66025518D01*
X121011928Y-66150000D01*
X117627000Y-66150000D01*
X117627000Y-64900776D01*
X157080381Y-64900776D01*
X158250000Y-66070395D01*
X159370395Y-64950000D01*
X161311928Y-64950000D01*
X161311928Y-67550000D01*
X161324188Y-67674482D01*
X161360498Y-67794180D01*
X161419463Y-67904494D01*
X161498815Y-68001185D01*
X161595506Y-68080537D01*
X161705820Y-68139502D01*
X161825518Y-68175812D01*
X161950000Y-68188072D01*
X164550000Y-68188072D01*
X164674482Y-68175812D01*
X164794180Y-68139502D01*
X164904494Y-68080537D01*
X165001185Y-68001185D01*
X165080537Y-67904494D01*
X165139502Y-67794180D01*
X165175812Y-67674482D01*
X165188072Y-67550000D01*
X165188072Y-64950000D01*
X165175812Y-64825518D01*
X165139502Y-64705820D01*
X165080537Y-64595506D01*
X165001185Y-64498815D01*
X164904494Y-64419463D01*
X164794180Y-64360498D01*
X164674482Y-64324188D01*
X164550000Y-64311928D01*
X161950000Y-64311928D01*
X161825518Y-64324188D01*
X161705820Y-64360498D01*
X161595506Y-64419463D01*
X161498815Y-64498815D01*
X161419463Y-64595506D01*
X161360498Y-64705820D01*
X161324188Y-64825518D01*
X161311928Y-64950000D01*
X159370395Y-64950000D01*
X159419619Y-64900776D01*
X159287683Y-64605688D01*
X158946955Y-64434841D01*
X158579443Y-64333750D01*
X158199271Y-64306299D01*
X157821049Y-64353543D01*
X157459310Y-64473667D01*
X157212317Y-64605688D01*
X157080381Y-64900776D01*
X117627000Y-64900776D01*
X117627000Y-62902459D01*
X117838912Y-63190548D01*
X118502882Y-63550849D01*
X119224385Y-63774694D01*
X119975695Y-63853480D01*
X120727938Y-63784178D01*
X121452208Y-63569452D01*
X122120670Y-63217555D01*
X122161088Y-63190548D01*
X122521276Y-62700881D01*
X120000000Y-60179605D01*
X119985858Y-60193748D01*
X119806253Y-60014143D01*
X119820395Y-60000000D01*
X119806253Y-59985858D01*
X119985858Y-59806253D01*
X120000000Y-59820395D01*
X120014143Y-59806253D01*
X120193748Y-59985858D01*
X120179605Y-60000000D01*
X122700881Y-62521276D01*
X123190548Y-62161088D01*
X123550849Y-61497118D01*
X123774694Y-60775615D01*
X123853480Y-60024305D01*
X123784178Y-59272062D01*
X123569452Y-58547792D01*
X123217555Y-57879330D01*
X123190548Y-57838912D01*
X122902459Y-57627000D01*
X167097541Y-57627000D01*
X166809452Y-57838912D01*
G37*
%TD.AperFunction*%
%TD*%
M02*
