M48
; DRILL file {KiCad (5.1.10)-1} date 08/23/21 16:32:22
; FORMAT={-:-/ absolute / metric / decimal}
; #@! TF.CreationDate,2021-08-23T16:32:22+01:00
; #@! TF.GenerationSoftware,Kicad,Pcbnew,(5.1.10)-1
; #@! TF.FileFunction,Plated,1,4,PTH
FMAT,2
METRIC
T1C0.400
T2C0.500
T3C1.000
T4C1.300
T5C3.200
%
G90
G05
T1
X118.5Y-74.5
X118.5Y-77.5
X118.5Y-80.0
X118.5Y-83.0
X118.5Y-85.5
X119.25Y-64.25
X119.25Y-67.75
X119.25Y-72.0
X121.5Y-74.5
X121.5Y-85.5
X121.719Y-79.308
X123.25Y-72.0
X124.75Y-58.5
X125.0Y-74.5
X125.0Y-85.5
X125.4Y-95.6
X125.45Y-87.3
X126.275Y-81.225
X126.3Y-80.05
X126.325Y-78.075
X127.0Y-72.0
X127.4Y-95.6
X127.5Y-80.25
X127.5Y-87.25
X128.45Y-79.25
X128.5Y-81.25
X129.25Y-58.5
X129.5Y-74.5
X129.5Y-80.25
X129.5Y-85.5
X129.5Y-87.25
X129.6Y-95.6
X130.5Y-81.25
X130.55Y-79.25
X131.0Y-72.0
X131.5Y-80.25
X132.8Y-95.6
X133.862Y-73.638
X134.0Y-72.25
X134.25Y-58.5
X134.5Y-78.5
X135.0Y-65.75
X135.0Y-95.6
X136.94Y-81.32
X137.46Y-82.92
X137.5Y-74.25
X138.75Y-63.75
X139.5Y-58.5
X140.25Y-74.75
X141.732Y-74.168
X141.933Y-78.61
X142.0Y-91.5
X142.07Y-90.0
X142.102Y-88.0
X143.0Y-63.5
X144.626Y-73.326
X144.75Y-58.5
X145.0Y-71.5
X145.0Y-68.75
X145.68Y-88.0
X145.712Y-90.0
X145.75Y-91.5
X147.32Y-86.106
X148.25Y-85.25
X149.0Y-70.5
X150.25Y-58.5
X150.5Y-64.75
X150.5Y-67.0
X150.5Y-69.25
X154.05Y-83.75
X154.15Y-78.9
X154.5Y-64.75
X154.75Y-68.5
X154.75Y-72.25
X155.25Y-58.5
X157.5Y-83.25
X157.5Y-85.5
X157.677Y-77.0
X158.0Y-72.25
X158.6Y-81.5
X158.65Y-79.5
X160.5Y-58.5
X160.5Y-68.25
X160.5Y-71.0
X160.75Y-64.0
X160.75Y-85.5
X162.75Y-78.25
X164.0Y-80.0
X164.0Y-85.5
X165.25Y-58.5
X165.25Y-60.75
X166.0Y-63.25
X167.0Y-80.0
X167.0Y-85.5
X170.0Y-80.0
X170.0Y-82.75
X170.0Y-85.5
T2
X117.6Y-60.0
X117.6Y-100.0
X118.303Y-58.303
X118.303Y-61.697
X118.303Y-98.303
X118.303Y-101.697
X120.0Y-57.6
X120.0Y-62.4
X120.0Y-97.6
X120.0Y-102.4
X121.697Y-58.303
X121.697Y-61.697
X121.697Y-98.303
X121.697Y-101.697
X122.4Y-60.0
X122.4Y-100.0
X167.6Y-60.0
X167.6Y-100.0
X168.303Y-58.303
X168.303Y-61.697
X168.303Y-98.303
X168.303Y-101.697
X170.0Y-57.6
X170.0Y-62.4
X170.0Y-97.6
X170.0Y-102.4
X171.697Y-58.303
X171.697Y-61.697
X171.697Y-98.303
X171.697Y-101.697
X172.4Y-60.0
X172.4Y-100.0
T3
X122.5Y-67.0
X122.5Y-69.54
X125.04Y-67.0
X125.04Y-69.54
X127.58Y-67.0
X127.58Y-69.54
X130.12Y-67.0
X130.12Y-69.54
X132.66Y-67.0
X132.66Y-69.54
X139.0Y-66.5
X139.0Y-69.04
X139.0Y-71.58
X139.5Y-88.25
X139.5Y-90.79
X143.0Y-66.5
X143.0Y-69.04
X143.0Y-71.58
X147.0Y-66.5
X147.0Y-69.04
X147.0Y-71.58
X148.34Y-89.71
X148.34Y-92.25
X150.88Y-89.71
X150.88Y-92.25
X152.5Y-66.5
X152.5Y-69.04
X152.5Y-71.58
X153.42Y-89.71
X153.42Y-92.25
X155.96Y-89.71
X155.96Y-92.25
X158.5Y-89.71
X158.5Y-92.25
X164.0Y-89.75
X164.0Y-92.29
T4
X158.25Y-66.25
X163.25Y-66.25
T5
X120.0Y-60.0
X120.0Y-100.0
X170.0Y-60.0
X170.0Y-100.0
T0
M30
