%TF.GenerationSoftware,KiCad,Pcbnew,(5.1.10)-1*%
%TF.CreationDate,2021-07-16T13:02:24+01:00*%
%TF.ProjectId,Abhoinn_IoT_V2,4162686f-696e-46e5-9f49-6f545f56322e,rev?*%
%TF.SameCoordinates,Original*%
%TF.FileFunction,Legend,Top*%
%TF.FilePolarity,Positive*%
%FSLAX46Y46*%
G04 Gerber Fmt 4.6, Leading zero omitted, Abs format (unit mm)*
G04 Created by KiCad (PCBNEW (5.1.10)-1) date 2021-07-16 13:02:24*
%MOMM*%
%LPD*%
G01*
G04 APERTURE LIST*
%ADD10C,0.300000*%
%ADD11C,0.150000*%
%ADD12C,0.120000*%
%ADD13C,0.100000*%
%ADD14C,0.254000*%
G04 APERTURE END LIST*
D10*
X165107142Y-95250000D02*
X165178571Y-95035714D01*
X165178571Y-94678571D01*
X165107142Y-94535714D01*
X165035714Y-94464285D01*
X164892857Y-94392857D01*
X164750000Y-94392857D01*
X164607142Y-94464285D01*
X164535714Y-94535714D01*
X164464285Y-94678571D01*
X164392857Y-94964285D01*
X164321428Y-95107142D01*
X164250000Y-95178571D01*
X164107142Y-95250000D01*
X163964285Y-95250000D01*
X163821428Y-95178571D01*
X163750000Y-95107142D01*
X163678571Y-94964285D01*
X163678571Y-94607142D01*
X163750000Y-94392857D01*
X163678571Y-93892857D02*
X165178571Y-93535714D01*
X164107142Y-93250000D01*
X165178571Y-92964285D01*
X163678571Y-92607142D01*
X165178571Y-92035714D02*
X163678571Y-92035714D01*
X163678571Y-91678571D01*
X163750000Y-91464285D01*
X163892857Y-91321428D01*
X164035714Y-91250000D01*
X164321428Y-91178571D01*
X164535714Y-91178571D01*
X164821428Y-91250000D01*
X164964285Y-91321428D01*
X165107142Y-91464285D01*
X165178571Y-91678571D01*
X165178571Y-92035714D01*
X165178571Y-89392857D02*
X163678571Y-89392857D01*
X164750000Y-88892857D01*
X163678571Y-88392857D01*
X165178571Y-88392857D01*
X165035714Y-86821428D02*
X165107142Y-86892857D01*
X165178571Y-87107142D01*
X165178571Y-87250000D01*
X165107142Y-87464285D01*
X164964285Y-87607142D01*
X164821428Y-87678571D01*
X164535714Y-87750000D01*
X164321428Y-87750000D01*
X164035714Y-87678571D01*
X163892857Y-87607142D01*
X163750000Y-87464285D01*
X163678571Y-87250000D01*
X163678571Y-87107142D01*
X163750000Y-86892857D01*
X163821428Y-86821428D01*
X163678571Y-86178571D02*
X164892857Y-86178571D01*
X165035714Y-86107142D01*
X165107142Y-86035714D01*
X165178571Y-85892857D01*
X165178571Y-85607142D01*
X165107142Y-85464285D01*
X165035714Y-85392857D01*
X164892857Y-85321428D01*
X163678571Y-85321428D01*
X136642857Y-50928571D02*
X136642857Y-49428571D01*
X137000000Y-49428571D01*
X137214285Y-49500000D01*
X137357142Y-49642857D01*
X137428571Y-49785714D01*
X137500000Y-50071428D01*
X137500000Y-50285714D01*
X137428571Y-50571428D01*
X137357142Y-50714285D01*
X137214285Y-50857142D01*
X137000000Y-50928571D01*
X136642857Y-50928571D01*
X138142857Y-50142857D02*
X138642857Y-50142857D01*
X138857142Y-50928571D02*
X138142857Y-50928571D01*
X138142857Y-49428571D01*
X138857142Y-49428571D01*
X140000000Y-50142857D02*
X140214285Y-50214285D01*
X140285714Y-50285714D01*
X140357142Y-50428571D01*
X140357142Y-50642857D01*
X140285714Y-50785714D01*
X140214285Y-50857142D01*
X140071428Y-50928571D01*
X139500000Y-50928571D01*
X139500000Y-49428571D01*
X140000000Y-49428571D01*
X140142857Y-49500000D01*
X140214285Y-49571428D01*
X140285714Y-49714285D01*
X140285714Y-49857142D01*
X140214285Y-50000000D01*
X140142857Y-50071428D01*
X140000000Y-50142857D01*
X139500000Y-50142857D01*
X141000000Y-49428571D02*
X141000000Y-50642857D01*
X141071428Y-50785714D01*
X141142857Y-50857142D01*
X141285714Y-50928571D01*
X141571428Y-50928571D01*
X141714285Y-50857142D01*
X141785714Y-50785714D01*
X141857142Y-50642857D01*
X141857142Y-49428571D01*
X143357142Y-49500000D02*
X143214285Y-49428571D01*
X143000000Y-49428571D01*
X142785714Y-49500000D01*
X142642857Y-49642857D01*
X142571428Y-49785714D01*
X142500000Y-50071428D01*
X142500000Y-50285714D01*
X142571428Y-50571428D01*
X142642857Y-50714285D01*
X142785714Y-50857142D01*
X143000000Y-50928571D01*
X143142857Y-50928571D01*
X143357142Y-50857142D01*
X143428571Y-50785714D01*
X143428571Y-50285714D01*
X143142857Y-50285714D01*
X145000000Y-49428571D02*
X145857142Y-49428571D01*
X145428571Y-50928571D02*
X145428571Y-49428571D01*
X146357142Y-50928571D02*
X146357142Y-49928571D01*
X146357142Y-50214285D02*
X146428571Y-50071428D01*
X146500000Y-50000000D01*
X146642857Y-49928571D01*
X146785714Y-49928571D01*
X147928571Y-50928571D02*
X147928571Y-50142857D01*
X147857142Y-50000000D01*
X147714285Y-49928571D01*
X147428571Y-49928571D01*
X147285714Y-50000000D01*
X147928571Y-50857142D02*
X147785714Y-50928571D01*
X147428571Y-50928571D01*
X147285714Y-50857142D01*
X147214285Y-50714285D01*
X147214285Y-50571428D01*
X147285714Y-50428571D01*
X147428571Y-50357142D01*
X147785714Y-50357142D01*
X147928571Y-50285714D01*
X148642857Y-49928571D02*
X148642857Y-50928571D01*
X148642857Y-50071428D02*
X148714285Y-50000000D01*
X148857142Y-49928571D01*
X149071428Y-49928571D01*
X149214285Y-50000000D01*
X149285714Y-50142857D01*
X149285714Y-50928571D01*
X149928571Y-50857142D02*
X150071428Y-50928571D01*
X150357142Y-50928571D01*
X150500000Y-50857142D01*
X150571428Y-50714285D01*
X150571428Y-50642857D01*
X150500000Y-50500000D01*
X150357142Y-50428571D01*
X150142857Y-50428571D01*
X150000000Y-50357142D01*
X149928571Y-50214285D01*
X149928571Y-50142857D01*
X150000000Y-50000000D01*
X150142857Y-49928571D01*
X150357142Y-49928571D01*
X150500000Y-50000000D01*
X151785714Y-50857142D02*
X151642857Y-50928571D01*
X151357142Y-50928571D01*
X151214285Y-50857142D01*
X151142857Y-50714285D01*
X151142857Y-50142857D01*
X151214285Y-50000000D01*
X151357142Y-49928571D01*
X151642857Y-49928571D01*
X151785714Y-50000000D01*
X151857142Y-50142857D01*
X151857142Y-50285714D01*
X151142857Y-50428571D01*
X152500000Y-50928571D02*
X152500000Y-49928571D01*
X152500000Y-49428571D02*
X152428571Y-49500000D01*
X152500000Y-49571428D01*
X152571428Y-49500000D01*
X152500000Y-49428571D01*
X152500000Y-49571428D01*
X153071428Y-49928571D02*
X153428571Y-50928571D01*
X153785714Y-49928571D01*
X154928571Y-50857142D02*
X154785714Y-50928571D01*
X154500000Y-50928571D01*
X154357142Y-50857142D01*
X154285714Y-50714285D01*
X154285714Y-50142857D01*
X154357142Y-50000000D01*
X154500000Y-49928571D01*
X154785714Y-49928571D01*
X154928571Y-50000000D01*
X155000000Y-50142857D01*
X155000000Y-50285714D01*
X154285714Y-50428571D01*
X155642857Y-50928571D02*
X155642857Y-49928571D01*
X155642857Y-50214285D02*
X155714285Y-50071428D01*
X155785714Y-50000000D01*
X155928571Y-49928571D01*
X156071428Y-49928571D01*
D11*
X165523809Y-62428571D02*
X165666666Y-62476190D01*
X165714285Y-62523809D01*
X165761904Y-62619047D01*
X165761904Y-62761904D01*
X165714285Y-62857142D01*
X165666666Y-62904761D01*
X165571428Y-62952380D01*
X165190476Y-62952380D01*
X165190476Y-61952380D01*
X165523809Y-61952380D01*
X165619047Y-62000000D01*
X165666666Y-62047619D01*
X165714285Y-62142857D01*
X165714285Y-62238095D01*
X165666666Y-62333333D01*
X165619047Y-62380952D01*
X165523809Y-62428571D01*
X165190476Y-62428571D01*
X166333333Y-62952380D02*
X166238095Y-62904761D01*
X166190476Y-62857142D01*
X166142857Y-62761904D01*
X166142857Y-62476190D01*
X166190476Y-62380952D01*
X166238095Y-62333333D01*
X166333333Y-62285714D01*
X166476190Y-62285714D01*
X166571428Y-62333333D01*
X166619047Y-62380952D01*
X166666666Y-62476190D01*
X166666666Y-62761904D01*
X166619047Y-62857142D01*
X166571428Y-62904761D01*
X166476190Y-62952380D01*
X166333333Y-62952380D01*
X167238095Y-62952380D02*
X167142857Y-62904761D01*
X167095238Y-62857142D01*
X167047619Y-62761904D01*
X167047619Y-62476190D01*
X167095238Y-62380952D01*
X167142857Y-62333333D01*
X167238095Y-62285714D01*
X167380952Y-62285714D01*
X167476190Y-62333333D01*
X167523809Y-62380952D01*
X167571428Y-62476190D01*
X167571428Y-62761904D01*
X167523809Y-62857142D01*
X167476190Y-62904761D01*
X167380952Y-62952380D01*
X167238095Y-62952380D01*
X167857142Y-62285714D02*
X168238095Y-62285714D01*
X168000000Y-61952380D02*
X168000000Y-62809523D01*
X168047619Y-62904761D01*
X168142857Y-62952380D01*
X168238095Y-62952380D01*
X169333333Y-62428571D02*
X169666666Y-62428571D01*
X169809523Y-62952380D02*
X169333333Y-62952380D01*
X169333333Y-61952380D01*
X169809523Y-61952380D01*
X170238095Y-62952380D02*
X170238095Y-61952380D01*
X170809523Y-62952380D01*
X170809523Y-61952380D01*
X165595238Y-66952380D02*
X165261904Y-66476190D01*
X165023809Y-66952380D02*
X165023809Y-65952380D01*
X165404761Y-65952380D01*
X165500000Y-66000000D01*
X165547619Y-66047619D01*
X165595238Y-66142857D01*
X165595238Y-66285714D01*
X165547619Y-66380952D01*
X165500000Y-66428571D01*
X165404761Y-66476190D01*
X165023809Y-66476190D01*
X165928571Y-65952380D02*
X166595238Y-66952380D01*
X166595238Y-65952380D02*
X165928571Y-66952380D01*
X168214285Y-66952380D02*
X167738095Y-66952380D01*
X167738095Y-65952380D01*
X168547619Y-66428571D02*
X168880952Y-66428571D01*
X169023809Y-66952380D02*
X168547619Y-66952380D01*
X168547619Y-65952380D01*
X169023809Y-65952380D01*
X169452380Y-66952380D02*
X169452380Y-65952380D01*
X169690476Y-65952380D01*
X169833333Y-66000000D01*
X169928571Y-66095238D01*
X169976190Y-66190476D01*
X170023809Y-66380952D01*
X170023809Y-66523809D01*
X169976190Y-66714285D01*
X169928571Y-66809523D01*
X169833333Y-66904761D01*
X169690476Y-66952380D01*
X169452380Y-66952380D01*
X165000000Y-57952380D02*
X165571428Y-57952380D01*
X165285714Y-58952380D02*
X165285714Y-57952380D01*
X165809523Y-57952380D02*
X166476190Y-58952380D01*
X166476190Y-57952380D02*
X165809523Y-58952380D01*
X168095238Y-58952380D02*
X167619047Y-58952380D01*
X167619047Y-57952380D01*
X168428571Y-58428571D02*
X168761904Y-58428571D01*
X168904761Y-58952380D02*
X168428571Y-58952380D01*
X168428571Y-57952380D01*
X168904761Y-57952380D01*
X169333333Y-58952380D02*
X169333333Y-57952380D01*
X169571428Y-57952380D01*
X169714285Y-58000000D01*
X169809523Y-58095238D01*
X169857142Y-58190476D01*
X169904761Y-58380952D01*
X169904761Y-58523809D01*
X169857142Y-58714285D01*
X169809523Y-58809523D01*
X169714285Y-58904761D01*
X169571428Y-58952380D01*
X169333333Y-58952380D01*
D10*
X152414285Y-62300000D02*
X152471428Y-62128571D01*
X152528571Y-62071428D01*
X152642857Y-62014285D01*
X152814285Y-62014285D01*
X152928571Y-62071428D01*
X152985714Y-62128571D01*
X153042857Y-62242857D01*
X153042857Y-62700000D01*
X151842857Y-62700000D01*
X151842857Y-62300000D01*
X151900000Y-62185714D01*
X151957142Y-62128571D01*
X152071428Y-62071428D01*
X152185714Y-62071428D01*
X152300000Y-62128571D01*
X152357142Y-62185714D01*
X152414285Y-62300000D01*
X152414285Y-62700000D01*
X153042857Y-61328571D02*
X152985714Y-61442857D01*
X152928571Y-61500000D01*
X152814285Y-61557142D01*
X152471428Y-61557142D01*
X152357142Y-61500000D01*
X152300000Y-61442857D01*
X152242857Y-61328571D01*
X152242857Y-61157142D01*
X152300000Y-61042857D01*
X152357142Y-60985714D01*
X152471428Y-60928571D01*
X152814285Y-60928571D01*
X152928571Y-60985714D01*
X152985714Y-61042857D01*
X153042857Y-61157142D01*
X153042857Y-61328571D01*
X153042857Y-60242857D02*
X152985714Y-60357142D01*
X152928571Y-60414285D01*
X152814285Y-60471428D01*
X152471428Y-60471428D01*
X152357142Y-60414285D01*
X152300000Y-60357142D01*
X152242857Y-60242857D01*
X152242857Y-60071428D01*
X152300000Y-59957142D01*
X152357142Y-59900000D01*
X152471428Y-59842857D01*
X152814285Y-59842857D01*
X152928571Y-59900000D01*
X152985714Y-59957142D01*
X153042857Y-60071428D01*
X153042857Y-60242857D01*
X152242857Y-59500000D02*
X152242857Y-59042857D01*
X151842857Y-59328571D02*
X152871428Y-59328571D01*
X152985714Y-59271428D01*
X153042857Y-59157142D01*
X153042857Y-59042857D01*
X147542857Y-63142857D02*
X146342857Y-63142857D01*
X146342857Y-62857142D01*
X146400000Y-62685714D01*
X146514285Y-62571428D01*
X146628571Y-62514285D01*
X146857142Y-62457142D01*
X147028571Y-62457142D01*
X147257142Y-62514285D01*
X147371428Y-62571428D01*
X147485714Y-62685714D01*
X147542857Y-62857142D01*
X147542857Y-63142857D01*
X146914285Y-61542857D02*
X146971428Y-61371428D01*
X147028571Y-61314285D01*
X147142857Y-61257142D01*
X147314285Y-61257142D01*
X147428571Y-61314285D01*
X147485714Y-61371428D01*
X147542857Y-61485714D01*
X147542857Y-61942857D01*
X146342857Y-61942857D01*
X146342857Y-61542857D01*
X146400000Y-61428571D01*
X146457142Y-61371428D01*
X146571428Y-61314285D01*
X146685714Y-61314285D01*
X146800000Y-61371428D01*
X146857142Y-61428571D01*
X146914285Y-61542857D01*
X146914285Y-61942857D01*
X146400000Y-60114285D02*
X146342857Y-60228571D01*
X146342857Y-60400000D01*
X146400000Y-60571428D01*
X146514285Y-60685714D01*
X146628571Y-60742857D01*
X146857142Y-60800000D01*
X147028571Y-60800000D01*
X147257142Y-60742857D01*
X147371428Y-60685714D01*
X147485714Y-60571428D01*
X147542857Y-60400000D01*
X147542857Y-60285714D01*
X147485714Y-60114285D01*
X147428571Y-60057142D01*
X147028571Y-60057142D01*
X147028571Y-60285714D01*
X146914285Y-58628571D02*
X146914285Y-58228571D01*
X147542857Y-58057142D02*
X147542857Y-58628571D01*
X146342857Y-58628571D01*
X146342857Y-58057142D01*
X147542857Y-57542857D02*
X146342857Y-57542857D01*
X147542857Y-56857142D01*
X146342857Y-56857142D01*
X143428571Y-62342857D02*
X143485714Y-62400000D01*
X143542857Y-62571428D01*
X143542857Y-62685714D01*
X143485714Y-62857142D01*
X143371428Y-62971428D01*
X143257142Y-63028571D01*
X143028571Y-63085714D01*
X142857142Y-63085714D01*
X142628571Y-63028571D01*
X142514285Y-62971428D01*
X142400000Y-62857142D01*
X142342857Y-62685714D01*
X142342857Y-62571428D01*
X142400000Y-62400000D01*
X142457142Y-62342857D01*
X143542857Y-61257142D02*
X143542857Y-61828571D01*
X142342857Y-61828571D01*
X143542857Y-60857142D02*
X142342857Y-60857142D01*
X143542857Y-60171428D02*
X142857142Y-60685714D01*
X142342857Y-60171428D02*
X143028571Y-60857142D01*
X142914285Y-58742857D02*
X142914285Y-58342857D01*
X143542857Y-58171428D02*
X143542857Y-58742857D01*
X142342857Y-58742857D01*
X142342857Y-58171428D01*
X143542857Y-57657142D02*
X142342857Y-57657142D01*
X143542857Y-56971428D01*
X142342857Y-56971428D01*
X139542857Y-62457142D02*
X138342857Y-62457142D01*
X138342857Y-62171428D01*
X138400000Y-62000000D01*
X138514285Y-61885714D01*
X138628571Y-61828571D01*
X138857142Y-61771428D01*
X139028571Y-61771428D01*
X139257142Y-61828571D01*
X139371428Y-61885714D01*
X139485714Y-62000000D01*
X139542857Y-62171428D01*
X139542857Y-62457142D01*
X139200000Y-61314285D02*
X139200000Y-60742857D01*
X139542857Y-61428571D02*
X138342857Y-61028571D01*
X139542857Y-60628571D01*
X138914285Y-59314285D02*
X138914285Y-58914285D01*
X139542857Y-58742857D02*
X139542857Y-59314285D01*
X138342857Y-59314285D01*
X138342857Y-58742857D01*
X139542857Y-58228571D02*
X138342857Y-58228571D01*
X139542857Y-57542857D01*
X138342857Y-57542857D01*
D12*
%TO.C,U3*%
X143537868Y-76106821D02*
X142608023Y-75176976D01*
X143750000Y-75894689D02*
X143537868Y-76106821D01*
X143962132Y-76106821D02*
X143750000Y-75894689D01*
X148855311Y-81000000D02*
X148643179Y-81212132D01*
X148643179Y-80787868D02*
X148855311Y-81000000D01*
X138644689Y-81000000D02*
X138856821Y-80787868D01*
X138856821Y-81212132D02*
X138644689Y-81000000D01*
X143750000Y-86105311D02*
X143962132Y-85893179D01*
X143537868Y-85893179D02*
X143750000Y-86105311D01*
%TO.C,U2*%
X151650000Y-91140000D02*
X149200000Y-91140000D01*
X149850000Y-94360000D02*
X151650000Y-94360000D01*
%TO.C,U1*%
X169390000Y-76400000D02*
X167930000Y-76400000D01*
X169390000Y-73240000D02*
X167230000Y-73240000D01*
X169390000Y-73240000D02*
X169390000Y-74170000D01*
X169390000Y-76400000D02*
X169390000Y-75470000D01*
%TO.C,R9*%
X153227500Y-112332776D02*
X153227500Y-112842224D01*
X154272500Y-112332776D02*
X154272500Y-112842224D01*
%TO.C,R8*%
X132765000Y-91522936D02*
X132765000Y-91977064D01*
X134235000Y-91522936D02*
X134235000Y-91977064D01*
%TO.C,R7*%
X130515000Y-91522936D02*
X130515000Y-91977064D01*
X131985000Y-91522936D02*
X131985000Y-91977064D01*
%TO.C,R6*%
X154459000Y-74718936D02*
X154459000Y-75173064D01*
X155929000Y-74718936D02*
X155929000Y-75173064D01*
%TO.C,R5*%
X155929000Y-86317064D02*
X155929000Y-85862936D01*
X154459000Y-86317064D02*
X154459000Y-85862936D01*
%TO.C,R4*%
X162272936Y-63235000D02*
X162727064Y-63235000D01*
X162272936Y-61765000D02*
X162727064Y-61765000D01*
%TO.C,R3*%
X162272936Y-59235000D02*
X162727064Y-59235000D01*
X162272936Y-57765000D02*
X162727064Y-57765000D01*
%TO.C,R2*%
X162272936Y-67235000D02*
X162727064Y-67235000D01*
X162272936Y-65765000D02*
X162727064Y-65765000D01*
%TO.C,R1*%
X148632936Y-75411000D02*
X149087064Y-75411000D01*
X148632936Y-73941000D02*
X149087064Y-73941000D01*
%TO.C,P1*%
X152000000Y-117130000D02*
X153500000Y-117130000D01*
X152000000Y-117130000D02*
X152000000Y-124390000D01*
X161500000Y-117130000D02*
X161500000Y-124390000D01*
X160000000Y-117130000D02*
X161500000Y-117130000D01*
%TO.C,JP4*%
X152500000Y-65440000D02*
X153560000Y-65440000D01*
X153560000Y-65440000D02*
X153560000Y-66500000D01*
X153560000Y-67500000D02*
X153560000Y-71560000D01*
X151440000Y-71560000D02*
X153560000Y-71560000D01*
X151440000Y-67500000D02*
X151440000Y-71560000D01*
X151440000Y-67500000D02*
X153560000Y-67500000D01*
%TO.C,JP3*%
X147000000Y-65440000D02*
X148060000Y-65440000D01*
X148060000Y-65440000D02*
X148060000Y-66500000D01*
X148060000Y-67500000D02*
X148060000Y-71560000D01*
X145940000Y-71560000D02*
X148060000Y-71560000D01*
X145940000Y-67500000D02*
X145940000Y-71560000D01*
X145940000Y-67500000D02*
X148060000Y-67500000D01*
%TO.C,JP2*%
X139000000Y-65440000D02*
X140060000Y-65440000D01*
X140060000Y-65440000D02*
X140060000Y-66500000D01*
X140060000Y-67500000D02*
X140060000Y-71560000D01*
X137940000Y-71560000D02*
X140060000Y-71560000D01*
X137940000Y-67500000D02*
X137940000Y-71560000D01*
X137940000Y-67500000D02*
X140060000Y-67500000D01*
%TO.C,JP1*%
X143000000Y-65440000D02*
X144060000Y-65440000D01*
X144060000Y-65440000D02*
X144060000Y-66500000D01*
X144060000Y-67500000D02*
X144060000Y-71560000D01*
X141940000Y-71560000D02*
X144060000Y-71560000D01*
X141940000Y-67500000D02*
X141940000Y-71560000D01*
X141940000Y-67500000D02*
X144060000Y-67500000D01*
%TO.C,J6*%
X189770000Y-87780000D02*
X189770000Y-87280000D01*
X189030000Y-87780000D02*
X189770000Y-87780000D01*
X185893000Y-81207000D02*
X185939000Y-81254000D01*
X183595000Y-78910000D02*
X183631000Y-78945000D01*
X186109000Y-81014000D02*
X186144000Y-81049000D01*
X183801000Y-78705000D02*
X183847000Y-78752000D01*
X179609000Y-77420000D02*
X189530000Y-77420000D01*
X179609000Y-87540000D02*
X189530000Y-87540000D01*
X189530000Y-87540000D02*
X189530000Y-77420000D01*
X179609000Y-87540000D02*
X179609000Y-77420000D01*
X182569000Y-87540000D02*
X182569000Y-77420000D01*
X187470000Y-87540000D02*
X187470000Y-77420000D01*
X188970000Y-87540000D02*
X188970000Y-77420000D01*
X186550000Y-79980000D02*
G75*
G03*
X186550000Y-79980000I-1680000J0D01*
G01*
X186550253Y-84951195D02*
G75*
G02*
X186405000Y-85664000I-1680253J-28805D01*
G01*
X185553042Y-86515426D02*
G75*
G02*
X184186000Y-86515000I-683042J1535426D01*
G01*
X183334574Y-85663042D02*
G75*
G02*
X183335000Y-84296000I1535426J683042D01*
G01*
X184186958Y-83444574D02*
G75*
G02*
X185554000Y-83445000I683042J-1535426D01*
G01*
X186404756Y-84296682D02*
G75*
G02*
X186550000Y-84980000I-1534756J-683318D01*
G01*
%TO.C,J5*%
X122484980Y-80708220D02*
X122484980Y-80068220D01*
X122484980Y-77908220D02*
X122484980Y-78548220D01*
X122484980Y-80068220D02*
X123114980Y-80068220D01*
X119764980Y-80658220D02*
X119764980Y-77958220D01*
%TO.C,J4*%
X147060000Y-55000000D02*
X147060000Y-56060000D01*
X147060000Y-56060000D02*
X146000000Y-56060000D01*
X147060000Y-54000000D02*
X145000000Y-54000000D01*
X145000000Y-54000000D02*
X145000000Y-56060000D01*
X145000000Y-56060000D02*
X136940000Y-56060000D01*
X136940000Y-51940000D02*
X136940000Y-56060000D01*
X147060000Y-51940000D02*
X136940000Y-51940000D01*
X147060000Y-51940000D02*
X147060000Y-54000000D01*
%TO.C,J3*%
X159500000Y-94560000D02*
X158440000Y-94560000D01*
X158440000Y-94560000D02*
X158440000Y-93500000D01*
X160500000Y-94560000D02*
X160500000Y-92500000D01*
X160500000Y-92500000D02*
X158440000Y-92500000D01*
X158440000Y-92500000D02*
X158440000Y-84440000D01*
X162560000Y-84440000D02*
X158440000Y-84440000D01*
X162560000Y-94560000D02*
X162560000Y-84440000D01*
X162560000Y-94560000D02*
X160500000Y-94560000D01*
%TO.C,J2*%
X136750000Y-85440000D02*
X137810000Y-85440000D01*
X137810000Y-85440000D02*
X137810000Y-86500000D01*
X137810000Y-87500000D02*
X137810000Y-89560000D01*
X135690000Y-89560000D02*
X137810000Y-89560000D01*
X135690000Y-87500000D02*
X135690000Y-89560000D01*
X135690000Y-87500000D02*
X137810000Y-87500000D01*
%TO.C,J1*%
X165820000Y-80110000D02*
X166880000Y-80110000D01*
X166880000Y-80110000D02*
X166880000Y-81170000D01*
X166880000Y-82170000D02*
X166880000Y-84230000D01*
X164760000Y-84230000D02*
X166880000Y-84230000D01*
X164760000Y-82170000D02*
X164760000Y-84230000D01*
X164760000Y-82170000D02*
X166880000Y-82170000D01*
D13*
%TO.C,IC1*%
X124400000Y-77975000D02*
X124400000Y-77975000D01*
X124300000Y-77975000D02*
X124300000Y-77975000D01*
X124300000Y-77975000D02*
G75*
G02*
X124400000Y-77975000I50000J0D01*
G01*
X124400000Y-77975000D02*
G75*
G02*
X124300000Y-77975000I-50000J0D01*
G01*
D12*
%TO.C,FB1*%
X173268733Y-76600000D02*
X173611267Y-76600000D01*
X173268733Y-75580000D02*
X173611267Y-75580000D01*
%TO.C,F1*%
X171835436Y-81260000D02*
X174639564Y-81260000D01*
X171835436Y-78540000D02*
X174639564Y-78540000D01*
%TO.C,D6*%
X134410000Y-89672500D02*
X134410000Y-86787500D01*
X132590000Y-89672500D02*
X134410000Y-89672500D01*
X132590000Y-86787500D02*
X132590000Y-89672500D01*
%TO.C,D5*%
X132160000Y-89597500D02*
X132160000Y-86712500D01*
X130340000Y-89597500D02*
X132160000Y-89597500D01*
X130340000Y-86712500D02*
X130340000Y-89597500D01*
%TO.C,D4*%
X160422500Y-61590000D02*
X157537500Y-61590000D01*
X160422500Y-63410000D02*
X160422500Y-61590000D01*
X157537500Y-63410000D02*
X160422500Y-63410000D01*
%TO.C,D3*%
X160422500Y-57590000D02*
X157537500Y-57590000D01*
X160422500Y-59410000D02*
X160422500Y-57590000D01*
X157537500Y-59410000D02*
X160422500Y-59410000D01*
%TO.C,D2*%
X160385000Y-65590000D02*
X157500000Y-65590000D01*
X160385000Y-67410000D02*
X160385000Y-65590000D01*
X157500000Y-67410000D02*
X160385000Y-67410000D01*
%TO.C,D1*%
X168950000Y-82830000D02*
X176500000Y-82830000D01*
X168950000Y-87130000D02*
X176500000Y-87130000D01*
X168950000Y-82830000D02*
X168950000Y-87130000D01*
%TO.C,C8*%
X133146267Y-73990000D02*
X132853733Y-73990000D01*
X133146267Y-75010000D02*
X132853733Y-75010000D01*
%TO.C,C7*%
X165760000Y-74896267D02*
X165760000Y-74603733D01*
X164740000Y-74896267D02*
X164740000Y-74603733D01*
%TO.C,C6*%
X168533767Y-71240000D02*
X168241233Y-71240000D01*
X168533767Y-72260000D02*
X168241233Y-72260000D01*
%TO.C,C5*%
X139010000Y-76146267D02*
X139010000Y-75853733D01*
X137990000Y-76146267D02*
X137990000Y-75853733D01*
%TO.C,C4*%
X143766000Y-93464767D02*
X143766000Y-93172233D01*
X142746000Y-93464767D02*
X142746000Y-93172233D01*
%TO.C,C3*%
X143617733Y-74678000D02*
X143910267Y-74678000D01*
X143617733Y-73658000D02*
X143910267Y-73658000D01*
%TO.C,C2*%
X144008767Y-87490000D02*
X143716233Y-87490000D01*
X144008767Y-88510000D02*
X143716233Y-88510000D01*
%TO.C,C1*%
X144167224Y-89477500D02*
X143657776Y-89477500D01*
X144167224Y-90522500D02*
X143657776Y-90522500D01*
%TO.C,U3*%
D11*
X147756265Y-75916238D02*
X147183845Y-76488658D01*
X147150173Y-76589673D01*
X147150173Y-76657017D01*
X147183845Y-76758032D01*
X147318532Y-76892719D01*
X147419547Y-76926391D01*
X147486891Y-76926391D01*
X147587906Y-76892719D01*
X148160326Y-76320299D01*
X148429700Y-76589673D02*
X148867432Y-77027406D01*
X148362356Y-77061078D01*
X148463371Y-77162093D01*
X148497043Y-77263108D01*
X148497043Y-77330452D01*
X148463371Y-77431467D01*
X148295013Y-77599826D01*
X148193997Y-77633498D01*
X148126654Y-77633498D01*
X148025639Y-77599826D01*
X147823608Y-77397795D01*
X147789936Y-77296780D01*
X147789936Y-77229437D01*
%TO.C,U2*%
X149988095Y-89302380D02*
X149988095Y-90111904D01*
X150035714Y-90207142D01*
X150083333Y-90254761D01*
X150178571Y-90302380D01*
X150369047Y-90302380D01*
X150464285Y-90254761D01*
X150511904Y-90207142D01*
X150559523Y-90111904D01*
X150559523Y-89302380D01*
X150988095Y-89397619D02*
X151035714Y-89350000D01*
X151130952Y-89302380D01*
X151369047Y-89302380D01*
X151464285Y-89350000D01*
X151511904Y-89397619D01*
X151559523Y-89492857D01*
X151559523Y-89588095D01*
X151511904Y-89730952D01*
X150940476Y-90302380D01*
X151559523Y-90302380D01*
%TO.C,U1*%
X170988095Y-72702380D02*
X170988095Y-73511904D01*
X171035714Y-73607142D01*
X171083333Y-73654761D01*
X171178571Y-73702380D01*
X171369047Y-73702380D01*
X171464285Y-73654761D01*
X171511904Y-73607142D01*
X171559523Y-73511904D01*
X171559523Y-72702380D01*
X172559523Y-73702380D02*
X171988095Y-73702380D01*
X172273809Y-73702380D02*
X172273809Y-72702380D01*
X172178571Y-72845238D01*
X172083333Y-72940476D01*
X171988095Y-72988095D01*
%TO.C,R9*%
X155632380Y-112754166D02*
X155156190Y-113087500D01*
X155632380Y-113325595D02*
X154632380Y-113325595D01*
X154632380Y-112944642D01*
X154680000Y-112849404D01*
X154727619Y-112801785D01*
X154822857Y-112754166D01*
X154965714Y-112754166D01*
X155060952Y-112801785D01*
X155108571Y-112849404D01*
X155156190Y-112944642D01*
X155156190Y-113325595D01*
X155632380Y-112277976D02*
X155632380Y-112087500D01*
X155584761Y-111992261D01*
X155537142Y-111944642D01*
X155394285Y-111849404D01*
X155203809Y-111801785D01*
X154822857Y-111801785D01*
X154727619Y-111849404D01*
X154680000Y-111897023D01*
X154632380Y-111992261D01*
X154632380Y-112182738D01*
X154680000Y-112277976D01*
X154727619Y-112325595D01*
X154822857Y-112373214D01*
X155060952Y-112373214D01*
X155156190Y-112325595D01*
X155203809Y-112277976D01*
X155251428Y-112182738D01*
X155251428Y-111992261D01*
X155203809Y-111897023D01*
X155156190Y-111849404D01*
X155060952Y-111801785D01*
%TO.C,R8*%
X135952380Y-93666666D02*
X135476190Y-94000000D01*
X135952380Y-94238095D02*
X134952380Y-94238095D01*
X134952380Y-93857142D01*
X135000000Y-93761904D01*
X135047619Y-93714285D01*
X135142857Y-93666666D01*
X135285714Y-93666666D01*
X135380952Y-93714285D01*
X135428571Y-93761904D01*
X135476190Y-93857142D01*
X135476190Y-94238095D01*
X135380952Y-93095238D02*
X135333333Y-93190476D01*
X135285714Y-93238095D01*
X135190476Y-93285714D01*
X135142857Y-93285714D01*
X135047619Y-93238095D01*
X135000000Y-93190476D01*
X134952380Y-93095238D01*
X134952380Y-92904761D01*
X135000000Y-92809523D01*
X135047619Y-92761904D01*
X135142857Y-92714285D01*
X135190476Y-92714285D01*
X135285714Y-92761904D01*
X135333333Y-92809523D01*
X135380952Y-92904761D01*
X135380952Y-93095238D01*
X135428571Y-93190476D01*
X135476190Y-93238095D01*
X135571428Y-93285714D01*
X135761904Y-93285714D01*
X135857142Y-93238095D01*
X135904761Y-93190476D01*
X135952380Y-93095238D01*
X135952380Y-92904761D01*
X135904761Y-92809523D01*
X135857142Y-92761904D01*
X135761904Y-92714285D01*
X135571428Y-92714285D01*
X135476190Y-92761904D01*
X135428571Y-92809523D01*
X135380952Y-92904761D01*
%TO.C,R7*%
X129952380Y-91166666D02*
X129476190Y-91500000D01*
X129952380Y-91738095D02*
X128952380Y-91738095D01*
X128952380Y-91357142D01*
X129000000Y-91261904D01*
X129047619Y-91214285D01*
X129142857Y-91166666D01*
X129285714Y-91166666D01*
X129380952Y-91214285D01*
X129428571Y-91261904D01*
X129476190Y-91357142D01*
X129476190Y-91738095D01*
X128952380Y-90833333D02*
X128952380Y-90166666D01*
X129952380Y-90595238D01*
%TO.C,R6*%
X155446380Y-72162666D02*
X154970190Y-72496000D01*
X155446380Y-72734095D02*
X154446380Y-72734095D01*
X154446380Y-72353142D01*
X154494000Y-72257904D01*
X154541619Y-72210285D01*
X154636857Y-72162666D01*
X154779714Y-72162666D01*
X154874952Y-72210285D01*
X154922571Y-72257904D01*
X154970190Y-72353142D01*
X154970190Y-72734095D01*
X154446380Y-71305523D02*
X154446380Y-71496000D01*
X154494000Y-71591238D01*
X154541619Y-71638857D01*
X154684476Y-71734095D01*
X154874952Y-71781714D01*
X155255904Y-71781714D01*
X155351142Y-71734095D01*
X155398761Y-71686476D01*
X155446380Y-71591238D01*
X155446380Y-71400761D01*
X155398761Y-71305523D01*
X155351142Y-71257904D01*
X155255904Y-71210285D01*
X155017809Y-71210285D01*
X154922571Y-71257904D01*
X154874952Y-71305523D01*
X154827333Y-71400761D01*
X154827333Y-71591238D01*
X154874952Y-71686476D01*
X154922571Y-71734095D01*
X155017809Y-71781714D01*
%TO.C,R5*%
X155746380Y-89256666D02*
X155270190Y-89590000D01*
X155746380Y-89828095D02*
X154746380Y-89828095D01*
X154746380Y-89447142D01*
X154794000Y-89351904D01*
X154841619Y-89304285D01*
X154936857Y-89256666D01*
X155079714Y-89256666D01*
X155174952Y-89304285D01*
X155222571Y-89351904D01*
X155270190Y-89447142D01*
X155270190Y-89828095D01*
X154746380Y-88351904D02*
X154746380Y-88828095D01*
X155222571Y-88875714D01*
X155174952Y-88828095D01*
X155127333Y-88732857D01*
X155127333Y-88494761D01*
X155174952Y-88399523D01*
X155222571Y-88351904D01*
X155317809Y-88304285D01*
X155555904Y-88304285D01*
X155651142Y-88351904D01*
X155698761Y-88399523D01*
X155746380Y-88494761D01*
X155746380Y-88732857D01*
X155698761Y-88828095D01*
X155651142Y-88875714D01*
%TO.C,R4*%
X162333333Y-61302380D02*
X162000000Y-60826190D01*
X161761904Y-61302380D02*
X161761904Y-60302380D01*
X162142857Y-60302380D01*
X162238095Y-60350000D01*
X162285714Y-60397619D01*
X162333333Y-60492857D01*
X162333333Y-60635714D01*
X162285714Y-60730952D01*
X162238095Y-60778571D01*
X162142857Y-60826190D01*
X161761904Y-60826190D01*
X163190476Y-60635714D02*
X163190476Y-61302380D01*
X162952380Y-60254761D02*
X162714285Y-60969047D01*
X163333333Y-60969047D01*
%TO.C,R3*%
X162333333Y-57302380D02*
X162000000Y-56826190D01*
X161761904Y-57302380D02*
X161761904Y-56302380D01*
X162142857Y-56302380D01*
X162238095Y-56350000D01*
X162285714Y-56397619D01*
X162333333Y-56492857D01*
X162333333Y-56635714D01*
X162285714Y-56730952D01*
X162238095Y-56778571D01*
X162142857Y-56826190D01*
X161761904Y-56826190D01*
X162666666Y-56302380D02*
X163285714Y-56302380D01*
X162952380Y-56683333D01*
X163095238Y-56683333D01*
X163190476Y-56730952D01*
X163238095Y-56778571D01*
X163285714Y-56873809D01*
X163285714Y-57111904D01*
X163238095Y-57207142D01*
X163190476Y-57254761D01*
X163095238Y-57302380D01*
X162809523Y-57302380D01*
X162714285Y-57254761D01*
X162666666Y-57207142D01*
%TO.C,R2*%
X162333333Y-65302380D02*
X162000000Y-64826190D01*
X161761904Y-65302380D02*
X161761904Y-64302380D01*
X162142857Y-64302380D01*
X162238095Y-64350000D01*
X162285714Y-64397619D01*
X162333333Y-64492857D01*
X162333333Y-64635714D01*
X162285714Y-64730952D01*
X162238095Y-64778571D01*
X162142857Y-64826190D01*
X161761904Y-64826190D01*
X162714285Y-64397619D02*
X162761904Y-64350000D01*
X162857142Y-64302380D01*
X163095238Y-64302380D01*
X163190476Y-64350000D01*
X163238095Y-64397619D01*
X163285714Y-64492857D01*
X163285714Y-64588095D01*
X163238095Y-64730952D01*
X162666666Y-65302380D01*
X163285714Y-65302380D01*
%TO.C,R1*%
X151833333Y-74952380D02*
X151500000Y-74476190D01*
X151261904Y-74952380D02*
X151261904Y-73952380D01*
X151642857Y-73952380D01*
X151738095Y-74000000D01*
X151785714Y-74047619D01*
X151833333Y-74142857D01*
X151833333Y-74285714D01*
X151785714Y-74380952D01*
X151738095Y-74428571D01*
X151642857Y-74476190D01*
X151261904Y-74476190D01*
X152785714Y-74952380D02*
X152214285Y-74952380D01*
X152500000Y-74952380D02*
X152500000Y-73952380D01*
X152404761Y-74095238D01*
X152309523Y-74190476D01*
X152214285Y-74238095D01*
%TO.C,P1*%
X156011904Y-116592380D02*
X156011904Y-115592380D01*
X156392857Y-115592380D01*
X156488095Y-115640000D01*
X156535714Y-115687619D01*
X156583333Y-115782857D01*
X156583333Y-115925714D01*
X156535714Y-116020952D01*
X156488095Y-116068571D01*
X156392857Y-116116190D01*
X156011904Y-116116190D01*
X157535714Y-116592380D02*
X156964285Y-116592380D01*
X157250000Y-116592380D02*
X157250000Y-115592380D01*
X157154761Y-115735238D01*
X157059523Y-115830476D01*
X156964285Y-115878095D01*
%TO.C,JP4*%
X151666666Y-63452380D02*
X151666666Y-64166666D01*
X151619047Y-64309523D01*
X151523809Y-64404761D01*
X151380952Y-64452380D01*
X151285714Y-64452380D01*
X152142857Y-64452380D02*
X152142857Y-63452380D01*
X152523809Y-63452380D01*
X152619047Y-63500000D01*
X152666666Y-63547619D01*
X152714285Y-63642857D01*
X152714285Y-63785714D01*
X152666666Y-63880952D01*
X152619047Y-63928571D01*
X152523809Y-63976190D01*
X152142857Y-63976190D01*
X153571428Y-63785714D02*
X153571428Y-64452380D01*
X153333333Y-63404761D02*
X153095238Y-64119047D01*
X153714285Y-64119047D01*
%TO.C,JP3*%
X146166666Y-63452380D02*
X146166666Y-64166666D01*
X146119047Y-64309523D01*
X146023809Y-64404761D01*
X145880952Y-64452380D01*
X145785714Y-64452380D01*
X146642857Y-64452380D02*
X146642857Y-63452380D01*
X147023809Y-63452380D01*
X147119047Y-63500000D01*
X147166666Y-63547619D01*
X147214285Y-63642857D01*
X147214285Y-63785714D01*
X147166666Y-63880952D01*
X147119047Y-63928571D01*
X147023809Y-63976190D01*
X146642857Y-63976190D01*
X147547619Y-63452380D02*
X148166666Y-63452380D01*
X147833333Y-63833333D01*
X147976190Y-63833333D01*
X148071428Y-63880952D01*
X148119047Y-63928571D01*
X148166666Y-64023809D01*
X148166666Y-64261904D01*
X148119047Y-64357142D01*
X148071428Y-64404761D01*
X147976190Y-64452380D01*
X147690476Y-64452380D01*
X147595238Y-64404761D01*
X147547619Y-64357142D01*
%TO.C,JP2*%
X138166666Y-63452380D02*
X138166666Y-64166666D01*
X138119047Y-64309523D01*
X138023809Y-64404761D01*
X137880952Y-64452380D01*
X137785714Y-64452380D01*
X138642857Y-64452380D02*
X138642857Y-63452380D01*
X139023809Y-63452380D01*
X139119047Y-63500000D01*
X139166666Y-63547619D01*
X139214285Y-63642857D01*
X139214285Y-63785714D01*
X139166666Y-63880952D01*
X139119047Y-63928571D01*
X139023809Y-63976190D01*
X138642857Y-63976190D01*
X139595238Y-63547619D02*
X139642857Y-63500000D01*
X139738095Y-63452380D01*
X139976190Y-63452380D01*
X140071428Y-63500000D01*
X140119047Y-63547619D01*
X140166666Y-63642857D01*
X140166666Y-63738095D01*
X140119047Y-63880952D01*
X139547619Y-64452380D01*
X140166666Y-64452380D01*
%TO.C,JP1*%
X142166666Y-63452380D02*
X142166666Y-64166666D01*
X142119047Y-64309523D01*
X142023809Y-64404761D01*
X141880952Y-64452380D01*
X141785714Y-64452380D01*
X142642857Y-64452380D02*
X142642857Y-63452380D01*
X143023809Y-63452380D01*
X143119047Y-63500000D01*
X143166666Y-63547619D01*
X143214285Y-63642857D01*
X143214285Y-63785714D01*
X143166666Y-63880952D01*
X143119047Y-63928571D01*
X143023809Y-63976190D01*
X142642857Y-63976190D01*
X144166666Y-64452380D02*
X143595238Y-64452380D01*
X143880952Y-64452380D02*
X143880952Y-63452380D01*
X143785714Y-63595238D01*
X143690476Y-63690476D01*
X143595238Y-63738095D01*
%TO.C,J6*%
X178062380Y-82813333D02*
X178776666Y-82813333D01*
X178919523Y-82860952D01*
X179014761Y-82956190D01*
X179062380Y-83099047D01*
X179062380Y-83194285D01*
X178062380Y-81908571D02*
X178062380Y-82099047D01*
X178110000Y-82194285D01*
X178157619Y-82241904D01*
X178300476Y-82337142D01*
X178490952Y-82384761D01*
X178871904Y-82384761D01*
X178967142Y-82337142D01*
X179014761Y-82289523D01*
X179062380Y-82194285D01*
X179062380Y-82003809D01*
X179014761Y-81908571D01*
X178967142Y-81860952D01*
X178871904Y-81813333D01*
X178633809Y-81813333D01*
X178538571Y-81860952D01*
X178490952Y-81908571D01*
X178443333Y-82003809D01*
X178443333Y-82194285D01*
X178490952Y-82289523D01*
X178538571Y-82337142D01*
X178633809Y-82384761D01*
%TO.C,J5*%
X120791646Y-81960600D02*
X120791646Y-82674886D01*
X120744027Y-82817743D01*
X120648789Y-82912981D01*
X120505932Y-82960600D01*
X120410694Y-82960600D01*
X121744027Y-81960600D02*
X121267837Y-81960600D01*
X121220218Y-82436791D01*
X121267837Y-82389172D01*
X121363075Y-82341553D01*
X121601170Y-82341553D01*
X121696408Y-82389172D01*
X121744027Y-82436791D01*
X121791646Y-82532029D01*
X121791646Y-82770124D01*
X121744027Y-82865362D01*
X121696408Y-82912981D01*
X121601170Y-82960600D01*
X121363075Y-82960600D01*
X121267837Y-82912981D01*
X121220218Y-82865362D01*
%TO.C,J4*%
X148166666Y-53452380D02*
X148166666Y-54166666D01*
X148119047Y-54309523D01*
X148023809Y-54404761D01*
X147880952Y-54452380D01*
X147785714Y-54452380D01*
X149071428Y-53785714D02*
X149071428Y-54452380D01*
X148833333Y-53404761D02*
X148595238Y-54119047D01*
X149214285Y-54119047D01*
%TO.C,J3*%
X156666666Y-93702380D02*
X156666666Y-94416666D01*
X156619047Y-94559523D01*
X156523809Y-94654761D01*
X156380952Y-94702380D01*
X156285714Y-94702380D01*
X157047619Y-93702380D02*
X157666666Y-93702380D01*
X157333333Y-94083333D01*
X157476190Y-94083333D01*
X157571428Y-94130952D01*
X157619047Y-94178571D01*
X157666666Y-94273809D01*
X157666666Y-94511904D01*
X157619047Y-94607142D01*
X157571428Y-94654761D01*
X157476190Y-94702380D01*
X157190476Y-94702380D01*
X157095238Y-94654761D01*
X157047619Y-94607142D01*
%TO.C,J2*%
X136416666Y-83452380D02*
X136416666Y-84166666D01*
X136369047Y-84309523D01*
X136273809Y-84404761D01*
X136130952Y-84452380D01*
X136035714Y-84452380D01*
X136845238Y-83547619D02*
X136892857Y-83500000D01*
X136988095Y-83452380D01*
X137226190Y-83452380D01*
X137321428Y-83500000D01*
X137369047Y-83547619D01*
X137416666Y-83642857D01*
X137416666Y-83738095D01*
X137369047Y-83880952D01*
X136797619Y-84452380D01*
X137416666Y-84452380D01*
%TO.C,J1*%
X165486666Y-78122380D02*
X165486666Y-78836666D01*
X165439047Y-78979523D01*
X165343809Y-79074761D01*
X165200952Y-79122380D01*
X165105714Y-79122380D01*
X166486666Y-79122380D02*
X165915238Y-79122380D01*
X166200952Y-79122380D02*
X166200952Y-78122380D01*
X166105714Y-78265238D01*
X166010476Y-78360476D01*
X165915238Y-78408095D01*
%TO.C,IC1*%
D14*
X128260238Y-80824523D02*
X128260238Y-79554523D01*
X129590714Y-80703571D02*
X129530238Y-80764047D01*
X129348809Y-80824523D01*
X129227857Y-80824523D01*
X129046428Y-80764047D01*
X128925476Y-80643095D01*
X128865000Y-80522142D01*
X128804523Y-80280238D01*
X128804523Y-80098809D01*
X128865000Y-79856904D01*
X128925476Y-79735952D01*
X129046428Y-79615000D01*
X129227857Y-79554523D01*
X129348809Y-79554523D01*
X129530238Y-79615000D01*
X129590714Y-79675476D01*
X130800238Y-80824523D02*
X130074523Y-80824523D01*
X130437380Y-80824523D02*
X130437380Y-79554523D01*
X130316428Y-79735952D01*
X130195476Y-79856904D01*
X130074523Y-79917380D01*
%TO.C,H4*%
D11*
X130738095Y-51752380D02*
X130738095Y-50752380D01*
X130738095Y-51228571D02*
X131309523Y-51228571D01*
X131309523Y-51752380D02*
X131309523Y-50752380D01*
X132214285Y-51085714D02*
X132214285Y-51752380D01*
X131976190Y-50704761D02*
X131738095Y-51419047D01*
X132357142Y-51419047D01*
%TO.C,H3*%
X130738095Y-101752380D02*
X130738095Y-100752380D01*
X130738095Y-101228571D02*
X131309523Y-101228571D01*
X131309523Y-101752380D02*
X131309523Y-100752380D01*
X131690476Y-100752380D02*
X132309523Y-100752380D01*
X131976190Y-101133333D01*
X132119047Y-101133333D01*
X132214285Y-101180952D01*
X132261904Y-101228571D01*
X132309523Y-101323809D01*
X132309523Y-101561904D01*
X132261904Y-101657142D01*
X132214285Y-101704761D01*
X132119047Y-101752380D01*
X131833333Y-101752380D01*
X131738095Y-101704761D01*
X131690476Y-101657142D01*
%TO.C,H2*%
X180738095Y-101752380D02*
X180738095Y-100752380D01*
X180738095Y-101228571D02*
X181309523Y-101228571D01*
X181309523Y-101752380D02*
X181309523Y-100752380D01*
X181738095Y-100847619D02*
X181785714Y-100800000D01*
X181880952Y-100752380D01*
X182119047Y-100752380D01*
X182214285Y-100800000D01*
X182261904Y-100847619D01*
X182309523Y-100942857D01*
X182309523Y-101038095D01*
X182261904Y-101180952D01*
X181690476Y-101752380D01*
X182309523Y-101752380D01*
%TO.C,H1*%
X180738095Y-51752380D02*
X180738095Y-50752380D01*
X180738095Y-51228571D02*
X181309523Y-51228571D01*
X181309523Y-51752380D02*
X181309523Y-50752380D01*
X182309523Y-51752380D02*
X181738095Y-51752380D01*
X182023809Y-51752380D02*
X182023809Y-50752380D01*
X181928571Y-50895238D01*
X181833333Y-50990476D01*
X181738095Y-51038095D01*
%TO.C,FB1*%
X172606666Y-74588571D02*
X172273333Y-74588571D01*
X172273333Y-75112380D02*
X172273333Y-74112380D01*
X172749523Y-74112380D01*
X173463809Y-74588571D02*
X173606666Y-74636190D01*
X173654285Y-74683809D01*
X173701904Y-74779047D01*
X173701904Y-74921904D01*
X173654285Y-75017142D01*
X173606666Y-75064761D01*
X173511428Y-75112380D01*
X173130476Y-75112380D01*
X173130476Y-74112380D01*
X173463809Y-74112380D01*
X173559047Y-74160000D01*
X173606666Y-74207619D01*
X173654285Y-74302857D01*
X173654285Y-74398095D01*
X173606666Y-74493333D01*
X173559047Y-74540952D01*
X173463809Y-74588571D01*
X173130476Y-74588571D01*
X174654285Y-75112380D02*
X174082857Y-75112380D01*
X174368571Y-75112380D02*
X174368571Y-74112380D01*
X174273333Y-74255238D01*
X174178095Y-74350476D01*
X174082857Y-74398095D01*
%TO.C,F1*%
X172904166Y-77548571D02*
X172570833Y-77548571D01*
X172570833Y-78072380D02*
X172570833Y-77072380D01*
X173047023Y-77072380D01*
X173951785Y-78072380D02*
X173380357Y-78072380D01*
X173666071Y-78072380D02*
X173666071Y-77072380D01*
X173570833Y-77215238D01*
X173475595Y-77310476D01*
X173380357Y-77358095D01*
%TO.C,D6*%
X135952380Y-91738095D02*
X134952380Y-91738095D01*
X134952380Y-91500000D01*
X135000000Y-91357142D01*
X135095238Y-91261904D01*
X135190476Y-91214285D01*
X135380952Y-91166666D01*
X135523809Y-91166666D01*
X135714285Y-91214285D01*
X135809523Y-91261904D01*
X135904761Y-91357142D01*
X135952380Y-91500000D01*
X135952380Y-91738095D01*
X134952380Y-90309523D02*
X134952380Y-90500000D01*
X135000000Y-90595238D01*
X135047619Y-90642857D01*
X135190476Y-90738095D01*
X135380952Y-90785714D01*
X135761904Y-90785714D01*
X135857142Y-90738095D01*
X135904761Y-90690476D01*
X135952380Y-90595238D01*
X135952380Y-90404761D01*
X135904761Y-90309523D01*
X135857142Y-90261904D01*
X135761904Y-90214285D01*
X135523809Y-90214285D01*
X135428571Y-90261904D01*
X135380952Y-90309523D01*
X135333333Y-90404761D01*
X135333333Y-90595238D01*
X135380952Y-90690476D01*
X135428571Y-90738095D01*
X135523809Y-90785714D01*
%TO.C,D5*%
X129952380Y-89738095D02*
X128952380Y-89738095D01*
X128952380Y-89500000D01*
X129000000Y-89357142D01*
X129095238Y-89261904D01*
X129190476Y-89214285D01*
X129380952Y-89166666D01*
X129523809Y-89166666D01*
X129714285Y-89214285D01*
X129809523Y-89261904D01*
X129904761Y-89357142D01*
X129952380Y-89500000D01*
X129952380Y-89738095D01*
X128952380Y-88261904D02*
X128952380Y-88738095D01*
X129428571Y-88785714D01*
X129380952Y-88738095D01*
X129333333Y-88642857D01*
X129333333Y-88404761D01*
X129380952Y-88309523D01*
X129428571Y-88261904D01*
X129523809Y-88214285D01*
X129761904Y-88214285D01*
X129857142Y-88261904D01*
X129904761Y-88309523D01*
X129952380Y-88404761D01*
X129952380Y-88642857D01*
X129904761Y-88738095D01*
X129857142Y-88785714D01*
%TO.C,D4*%
X157799404Y-64552380D02*
X157799404Y-63552380D01*
X158037500Y-63552380D01*
X158180357Y-63600000D01*
X158275595Y-63695238D01*
X158323214Y-63790476D01*
X158370833Y-63980952D01*
X158370833Y-64123809D01*
X158323214Y-64314285D01*
X158275595Y-64409523D01*
X158180357Y-64504761D01*
X158037500Y-64552380D01*
X157799404Y-64552380D01*
X159227976Y-63885714D02*
X159227976Y-64552380D01*
X158989880Y-63504761D02*
X158751785Y-64219047D01*
X159370833Y-64219047D01*
%TO.C,D3*%
X157799404Y-60552380D02*
X157799404Y-59552380D01*
X158037500Y-59552380D01*
X158180357Y-59600000D01*
X158275595Y-59695238D01*
X158323214Y-59790476D01*
X158370833Y-59980952D01*
X158370833Y-60123809D01*
X158323214Y-60314285D01*
X158275595Y-60409523D01*
X158180357Y-60504761D01*
X158037500Y-60552380D01*
X157799404Y-60552380D01*
X158704166Y-59552380D02*
X159323214Y-59552380D01*
X158989880Y-59933333D01*
X159132738Y-59933333D01*
X159227976Y-59980952D01*
X159275595Y-60028571D01*
X159323214Y-60123809D01*
X159323214Y-60361904D01*
X159275595Y-60457142D01*
X159227976Y-60504761D01*
X159132738Y-60552380D01*
X158847023Y-60552380D01*
X158751785Y-60504761D01*
X158704166Y-60457142D01*
%TO.C,D2*%
X157761904Y-68552380D02*
X157761904Y-67552380D01*
X158000000Y-67552380D01*
X158142857Y-67600000D01*
X158238095Y-67695238D01*
X158285714Y-67790476D01*
X158333333Y-67980952D01*
X158333333Y-68123809D01*
X158285714Y-68314285D01*
X158238095Y-68409523D01*
X158142857Y-68504761D01*
X158000000Y-68552380D01*
X157761904Y-68552380D01*
X158714285Y-67647619D02*
X158761904Y-67600000D01*
X158857142Y-67552380D01*
X159095238Y-67552380D01*
X159190476Y-67600000D01*
X159238095Y-67647619D01*
X159285714Y-67742857D01*
X159285714Y-67838095D01*
X159238095Y-67980952D01*
X158666666Y-68552380D01*
X159285714Y-68552380D01*
%TO.C,D1*%
X173061904Y-82432380D02*
X173061904Y-81432380D01*
X173300000Y-81432380D01*
X173442857Y-81480000D01*
X173538095Y-81575238D01*
X173585714Y-81670476D01*
X173633333Y-81860952D01*
X173633333Y-82003809D01*
X173585714Y-82194285D01*
X173538095Y-82289523D01*
X173442857Y-82384761D01*
X173300000Y-82432380D01*
X173061904Y-82432380D01*
X174585714Y-82432380D02*
X174014285Y-82432380D01*
X174300000Y-82432380D02*
X174300000Y-81432380D01*
X174204761Y-81575238D01*
X174109523Y-81670476D01*
X174014285Y-81718095D01*
%TO.C,C8*%
X130083333Y-74857142D02*
X130035714Y-74904761D01*
X129892857Y-74952380D01*
X129797619Y-74952380D01*
X129654761Y-74904761D01*
X129559523Y-74809523D01*
X129511904Y-74714285D01*
X129464285Y-74523809D01*
X129464285Y-74380952D01*
X129511904Y-74190476D01*
X129559523Y-74095238D01*
X129654761Y-74000000D01*
X129797619Y-73952380D01*
X129892857Y-73952380D01*
X130035714Y-74000000D01*
X130083333Y-74047619D01*
X130654761Y-74380952D02*
X130559523Y-74333333D01*
X130511904Y-74285714D01*
X130464285Y-74190476D01*
X130464285Y-74142857D01*
X130511904Y-74047619D01*
X130559523Y-74000000D01*
X130654761Y-73952380D01*
X130845238Y-73952380D01*
X130940476Y-74000000D01*
X130988095Y-74047619D01*
X131035714Y-74142857D01*
X131035714Y-74190476D01*
X130988095Y-74285714D01*
X130940476Y-74333333D01*
X130845238Y-74380952D01*
X130654761Y-74380952D01*
X130559523Y-74428571D01*
X130511904Y-74476190D01*
X130464285Y-74571428D01*
X130464285Y-74761904D01*
X130511904Y-74857142D01*
X130559523Y-74904761D01*
X130654761Y-74952380D01*
X130845238Y-74952380D01*
X130940476Y-74904761D01*
X130988095Y-74857142D01*
X131035714Y-74761904D01*
X131035714Y-74571428D01*
X130988095Y-74476190D01*
X130940476Y-74428571D01*
X130845238Y-74380952D01*
%TO.C,C7*%
X164177142Y-74916666D02*
X164224761Y-74964285D01*
X164272380Y-75107142D01*
X164272380Y-75202380D01*
X164224761Y-75345238D01*
X164129523Y-75440476D01*
X164034285Y-75488095D01*
X163843809Y-75535714D01*
X163700952Y-75535714D01*
X163510476Y-75488095D01*
X163415238Y-75440476D01*
X163320000Y-75345238D01*
X163272380Y-75202380D01*
X163272380Y-75107142D01*
X163320000Y-74964285D01*
X163367619Y-74916666D01*
X163272380Y-74583333D02*
X163272380Y-73916666D01*
X164272380Y-74345238D01*
%TO.C,C6*%
X168083333Y-70607142D02*
X168035714Y-70654761D01*
X167892857Y-70702380D01*
X167797619Y-70702380D01*
X167654761Y-70654761D01*
X167559523Y-70559523D01*
X167511904Y-70464285D01*
X167464285Y-70273809D01*
X167464285Y-70130952D01*
X167511904Y-69940476D01*
X167559523Y-69845238D01*
X167654761Y-69750000D01*
X167797619Y-69702380D01*
X167892857Y-69702380D01*
X168035714Y-69750000D01*
X168083333Y-69797619D01*
X168940476Y-69702380D02*
X168750000Y-69702380D01*
X168654761Y-69750000D01*
X168607142Y-69797619D01*
X168511904Y-69940476D01*
X168464285Y-70130952D01*
X168464285Y-70511904D01*
X168511904Y-70607142D01*
X168559523Y-70654761D01*
X168654761Y-70702380D01*
X168845238Y-70702380D01*
X168940476Y-70654761D01*
X168988095Y-70607142D01*
X169035714Y-70511904D01*
X169035714Y-70273809D01*
X168988095Y-70178571D01*
X168940476Y-70130952D01*
X168845238Y-70083333D01*
X168654761Y-70083333D01*
X168559523Y-70130952D01*
X168511904Y-70178571D01*
X168464285Y-70273809D01*
%TO.C,C5*%
X137427142Y-75329166D02*
X137474761Y-75376785D01*
X137522380Y-75519642D01*
X137522380Y-75614880D01*
X137474761Y-75757738D01*
X137379523Y-75852976D01*
X137284285Y-75900595D01*
X137093809Y-75948214D01*
X136950952Y-75948214D01*
X136760476Y-75900595D01*
X136665238Y-75852976D01*
X136570000Y-75757738D01*
X136522380Y-75614880D01*
X136522380Y-75519642D01*
X136570000Y-75376785D01*
X136617619Y-75329166D01*
X136522380Y-74424404D02*
X136522380Y-74900595D01*
X136998571Y-74948214D01*
X136950952Y-74900595D01*
X136903333Y-74805357D01*
X136903333Y-74567261D01*
X136950952Y-74472023D01*
X136998571Y-74424404D01*
X137093809Y-74376785D01*
X137331904Y-74376785D01*
X137427142Y-74424404D01*
X137474761Y-74472023D01*
X137522380Y-74567261D01*
X137522380Y-74805357D01*
X137474761Y-74900595D01*
X137427142Y-74948214D01*
%TO.C,C4*%
X142183142Y-93485166D02*
X142230761Y-93532785D01*
X142278380Y-93675642D01*
X142278380Y-93770880D01*
X142230761Y-93913738D01*
X142135523Y-94008976D01*
X142040285Y-94056595D01*
X141849809Y-94104214D01*
X141706952Y-94104214D01*
X141516476Y-94056595D01*
X141421238Y-94008976D01*
X141326000Y-93913738D01*
X141278380Y-93770880D01*
X141278380Y-93675642D01*
X141326000Y-93532785D01*
X141373619Y-93485166D01*
X141611714Y-92628023D02*
X142278380Y-92628023D01*
X141230761Y-92866119D02*
X141945047Y-93104214D01*
X141945047Y-92485166D01*
%TO.C,C3*%
X146347333Y-74275142D02*
X146299714Y-74322761D01*
X146156857Y-74370380D01*
X146061619Y-74370380D01*
X145918761Y-74322761D01*
X145823523Y-74227523D01*
X145775904Y-74132285D01*
X145728285Y-73941809D01*
X145728285Y-73798952D01*
X145775904Y-73608476D01*
X145823523Y-73513238D01*
X145918761Y-73418000D01*
X146061619Y-73370380D01*
X146156857Y-73370380D01*
X146299714Y-73418000D01*
X146347333Y-73465619D01*
X146680666Y-73370380D02*
X147299714Y-73370380D01*
X146966380Y-73751333D01*
X147109238Y-73751333D01*
X147204476Y-73798952D01*
X147252095Y-73846571D01*
X147299714Y-73941809D01*
X147299714Y-74179904D01*
X147252095Y-74275142D01*
X147204476Y-74322761D01*
X147109238Y-74370380D01*
X146823523Y-74370380D01*
X146728285Y-74322761D01*
X146680666Y-74275142D01*
%TO.C,C2*%
X140833333Y-88357142D02*
X140785714Y-88404761D01*
X140642857Y-88452380D01*
X140547619Y-88452380D01*
X140404761Y-88404761D01*
X140309523Y-88309523D01*
X140261904Y-88214285D01*
X140214285Y-88023809D01*
X140214285Y-87880952D01*
X140261904Y-87690476D01*
X140309523Y-87595238D01*
X140404761Y-87500000D01*
X140547619Y-87452380D01*
X140642857Y-87452380D01*
X140785714Y-87500000D01*
X140833333Y-87547619D01*
X141214285Y-87547619D02*
X141261904Y-87500000D01*
X141357142Y-87452380D01*
X141595238Y-87452380D01*
X141690476Y-87500000D01*
X141738095Y-87547619D01*
X141785714Y-87642857D01*
X141785714Y-87738095D01*
X141738095Y-87880952D01*
X141166666Y-88452380D01*
X141785714Y-88452380D01*
%TO.C,C1*%
X140833333Y-90357142D02*
X140785714Y-90404761D01*
X140642857Y-90452380D01*
X140547619Y-90452380D01*
X140404761Y-90404761D01*
X140309523Y-90309523D01*
X140261904Y-90214285D01*
X140214285Y-90023809D01*
X140214285Y-89880952D01*
X140261904Y-89690476D01*
X140309523Y-89595238D01*
X140404761Y-89500000D01*
X140547619Y-89452380D01*
X140642857Y-89452380D01*
X140785714Y-89500000D01*
X140833333Y-89547619D01*
X141785714Y-90452380D02*
X141214285Y-90452380D01*
X141500000Y-90452380D02*
X141500000Y-89452380D01*
X141404761Y-89595238D01*
X141309523Y-89690476D01*
X141214285Y-89738095D01*
%TD*%
M02*
